<svg width="24" height="24" viewBox="0 0 24 24" fill="none" xmlns="http://www.w3.org/2000/svg">
<path fill-rule="evenodd" clip-rule="evenodd" d="M22.1897 6.75015C22.4397 6.75015 22.6425 6.94488 22.6425 7.18509V19.1461C22.6425 19.3863 22.4397 19.581 22.1897 19.581H1.8123C1.56221 19.581 1.35947 19.3863 1.35947 19.1461V8.27246C1.35947 7.91214 1.05536 7.62004 0.680222 7.62004C0.305084 7.62004 0.000976562 7.91214 0.000976562 8.27246V19.1461C0.000976562 20.107 0.811934 20.8859 1.8123 20.8859H22.1897C23.19 20.8859 24.001 20.107 24.001 19.1461V7.18509C24.001 6.22424 23.19 5.44531 22.1897 5.44531H10.3029C9.92773 5.44531 9.62362 5.73741 9.62362 6.09773C9.62362 6.45805 9.92773 6.75015 10.3029 6.75015H22.1897Z" fill="black" fill-opacity="0.87"/>
<path fill-rule="evenodd" clip-rule="evenodd" d="M1.71518 1.41207C2.05081 1.24123 2.41557 1.28215 2.61854 1.46799C2.68377 1.52771 2.83214 1.7005 3.06638 2.01089C3.28914 2.30607 3.5621 2.68831 3.86932 3.13199C4.48321 4.01858 5.22218 5.13359 5.94895 6.25227C6.81426 7.5842 7.652 8.9055 8.23669 9.84481C7.48083 9.06137 6.35882 7.87988 5.22802 6.64951C4.29845 5.63809 3.37388 4.60547 2.65484 3.74907C2.29486 3.32032 1.99173 2.94205 1.76685 2.63621C1.52582 2.30842 1.42056 2.1239 1.39781 2.06146C1.30368 1.80303 1.40476 1.57009 1.71518 1.41207ZM1.07906 0.259131C0.340758 0.634939 -0.257005 1.46964 0.11554 2.49237C0.209462 2.75021 0.424753 3.07283 0.657198 3.38895C0.905786 3.72703 1.22904 4.12948 1.59737 4.56818C2.33497 5.44669 3.2748 6.49596 4.20959 7.51305C6.06967 9.53692 7.95364 11.4807 8.21166 11.7172C8.40641 11.8956 8.64081 12.0229 8.8731 12.0974C9.0971 12.1693 9.37686 12.21 9.65358 12.1466C9.95833 12.0768 10.2851 11.8637 10.3884 11.4615C10.4761 11.1203 10.3613 10.7848 10.2145 10.5154C9.96721 10.0618 8.55345 7.79647 7.10146 5.5615C6.37165 4.43814 5.62484 3.3111 5.00048 2.4094C4.68858 1.95894 4.4043 1.56046 4.1663 1.24509C3.93978 0.94493 3.72387 0.677319 3.55588 0.523511C2.826 -0.14476 1.79215 -0.103845 1.07906 0.259131Z" fill="black" fill-opacity="0.87"/>
<path fill-rule="evenodd" clip-rule="evenodd" d="M11.6004 13.2934C11.7229 13.3317 11.8445 13.4162 11.9178 13.6273C12.1376 14.2606 12.4335 14.8153 12.7224 15.2665C11.9802 15.0691 11.2623 14.7225 10.8635 14.1469C10.6793 13.881 10.7033 13.7216 10.7335 13.6412C10.7728 13.5368 10.8816 13.4164 11.0689 13.3366C11.2558 13.2568 11.4539 13.2477 11.6004 13.2934ZM15.959 16.9645L14.2607 16.7913L14.259 16.7913L14.2559 16.7913L14.2465 16.7912L14.2157 16.7908L14.109 16.7877L13.7377 16.7635C13.4299 16.7361 13.0054 16.681 12.5393 16.5694C11.6339 16.3525 10.4397 15.8905 9.73254 14.8698C9.35068 14.3186 9.25595 13.7297 9.4557 13.1982C9.6464 12.6907 10.0682 12.3356 10.5177 12.1439C10.9676 11.9522 11.5124 11.8939 12.0204 12.0525C12.5524 12.2186 12.9968 12.6102 13.2066 13.2146C13.462 13.9508 13.8486 14.5719 14.1762 15.0123C14.339 15.2312 14.4847 15.4019 14.5878 15.5162C14.6392 15.5732 14.6799 15.6159 14.7065 15.6432C14.7198 15.6568 14.7295 15.6666 14.7353 15.6723L14.741 15.6779L15.959 16.9645Z" fill="black" fill-opacity="0.87"/>
<path fill-rule="evenodd" clip-rule="evenodd" d="M23.585 23.3517C23.585 22.9935 23.2914 22.7031 22.9293 22.7031H1.073C0.710876 22.7031 0.417315 22.9935 0.417315 23.3517C0.417315 23.7099 0.710876 24.0003 1.073 24.0003H22.9293C23.2914 24.0003 23.585 23.7099 23.585 23.3517Z" fill="black" fill-opacity="0.87"/>
</svg>
