<svg width="24" height="24" viewBox="0 0 24 24" fill="none" xmlns="http://www.w3.org/2000/svg">
<path fill-rule="evenodd" clip-rule="evenodd" d="M2 0.679245C2 0.304108 2.25342 0 2.56604 0H15.7736C16.0862 0 16.3396 0.304108 16.3396 0.679245V6.33962C16.3396 6.71476 16.0862 7.01887 15.7736 7.01887C15.461 7.01887 15.2075 6.71476 15.2075 6.33962V1.35849H3.13208V22.6415H15.2075V17.6604C15.2075 17.2852 15.461 16.9811 15.7736 16.9811C16.0862 16.9811 16.3396 17.2852 16.3396 17.6604V23.3208C16.3396 23.6959 16.0862 24 15.7736 24H2.56604C2.25342 24 2 23.6959 2 23.3208V0.679245Z" fill="black" fill-opacity="0.87"/>
<path fill-rule="evenodd" clip-rule="evenodd" d="M18.2317 7.19113L21.834 11.5138C22.055 11.7791 22.055 12.2092 21.834 12.4744L18.2317 16.7971C18.0107 17.0624 17.6523 17.0624 17.4312 16.7971C17.2102 16.5319 17.2102 16.1018 17.4312 15.8365L20.0672 12.6734L9.16955 12.6734C8.85694 12.6734 8.60352 12.3693 8.60352 11.9941C8.60352 11.619 8.85694 11.3149 9.16955 11.3149L20.0672 11.3149L17.4312 8.15173C17.2102 7.88647 17.2102 7.4564 17.4312 7.19113C17.6523 6.92587 18.0107 6.92587 18.2317 7.19113Z" fill="black" fill-opacity="0.87"/>
</svg>
