<svg width="24" height="24" viewBox="0 0 24 24" fill="none" xmlns="http://www.w3.org/2000/svg">
<path fill-rule="evenodd" clip-rule="evenodd" d="M23.6006 0.999902C23.6006 0.668532 23.332 0.399902 23.0006 0.399902H10.0006C9.82139 0.399902 9.65158 0.479996 9.5376 0.61827C9.42362 0.756544 9.37741 0.938524 9.41162 1.11442L12.9116 19.1144C12.9664 19.3964 13.2134 19.5999 13.5006 19.5999H21.0006C22.4365 19.5999 23.6006 18.4358 23.6006 16.9999V0.999902ZM22.4006 1.5999V16.9999C22.4006 17.7731 21.7738 18.3999 21.0006 18.3999H13.9952L10.7285 1.5999H22.4006Z" fill="black" fill-opacity="0.87"/>
<path fill-rule="evenodd" clip-rule="evenodd" d="M11.1006 4.4999C11.1006 4.16853 10.832 3.8999 10.5006 3.8999H3.00058C1.56464 3.8999 0.400579 5.06396 0.400579 6.4999V22.9999C0.400579 23.3313 0.669209 23.5999 1.00058 23.5999H17.0006C17.1853 23.5999 17.3598 23.5148 17.4735 23.3692C17.5872 23.2235 17.6275 23.0336 17.5827 22.8544L16.5827 18.8544C16.5023 18.5329 16.1765 18.3374 15.8551 18.4178C15.5336 18.4982 15.3381 18.8239 15.4185 19.1454L16.2321 22.3999H1.60058V6.4999C1.60058 5.7267 2.22738 5.0999 3.00058 5.0999H10.5006C10.832 5.0999 11.1006 4.83127 11.1006 4.4999Z" fill="black" fill-opacity="0.87"/>
<path fill-rule="evenodd" clip-rule="evenodd" d="M20.2688 5.46313C19.9724 5.31494 19.612 5.43507 19.4638 5.73146L17.0005 10.6581L14.5371 5.73146C14.3889 5.43507 14.0285 5.31494 13.7321 5.46313C13.4357 5.61133 13.3156 5.97173 13.4638 6.26812L16.4638 12.2681C16.5654 12.4714 16.7732 12.5998 17.0005 12.5998C17.2277 12.5998 17.4355 12.4714 17.5371 12.2681L20.5371 6.26812C20.6853 5.97173 20.5652 5.61133 20.2688 5.46313Z" fill="black" fill-opacity="0.87"/>
<path fill-rule="evenodd" clip-rule="evenodd" d="M8.10059 10.4999C8.10059 10.1685 7.83196 9.8999 7.50059 9.8999H5.50059C5.16922 9.8999 4.90059 10.1685 4.90059 10.4999C4.90059 10.8313 5.16922 11.0999 5.50059 11.0999H7.50059C7.83196 11.0999 8.10059 10.8313 8.10059 10.4999Z" fill="black" fill-opacity="0.87"/>
<path fill-rule="evenodd" clip-rule="evenodd" d="M10.1006 12.4999C10.1006 12.1685 9.83195 11.8999 9.50058 11.8999H3.50058C3.26226 11.8999 3.04654 12.0409 2.95095 12.2593C2.85537 12.4776 2.89805 12.7318 3.0597 12.9069L9.0597 19.4069C9.28446 19.6504 9.66406 19.6655 9.90755 19.4408C10.151 19.216 10.1662 18.8364 9.94147 18.5929L4.87097 13.0999H9.50058C9.83195 13.0999 10.1006 12.8313 10.1006 12.4999Z" fill="black" fill-opacity="0.87"/>
<path fill-rule="evenodd" clip-rule="evenodd" d="M7.4615 16.1158C7.24937 15.8612 6.87103 15.8268 6.61646 16.039L3.61646 18.539C3.36189 18.7511 3.3275 19.1295 3.53964 19.384C3.75178 19.6386 4.13012 19.673 4.38468 19.4609L7.38468 16.9609C7.63925 16.7487 7.67364 16.3704 7.4615 16.1158Z" fill="black" fill-opacity="0.87"/>
</svg>
