<svg width="24" height="24" viewBox="0 0 24 24" fill="none" xmlns="http://www.w3.org/2000/svg">
<g clip-path="url(#clip0_3078_7268)">
<path fill-rule="evenodd" clip-rule="evenodd" d="M4.08594 10.8685C4.08594 10.4933 4.36571 10.1892 4.71083 10.1892H19.2916C19.6367 10.1892 19.9165 10.4933 19.9165 10.8685C19.9165 11.2436 19.6367 11.5478 19.2916 11.5478H4.71083C4.36571 11.5478 4.08594 11.2436 4.08594 10.8685Z" fill="black" fill-opacity="0.87"/>
<path fill-rule="evenodd" clip-rule="evenodd" d="M20.374 11.7169C20.1714 11.5701 19.8633 11.548 19.2886 11.548C18.9435 11.548 18.6637 11.2438 18.6637 10.8687C18.6637 10.4935 18.9435 10.1894 19.2886 10.1894C19.3104 10.1894 19.3327 10.1894 19.3556 10.1893C19.8234 10.1883 20.5157 10.1868 21.0673 10.5865C21.7155 11.0563 21.9965 11.9111 21.9965 13.1329C21.9965 13.5081 21.7167 13.8122 21.3716 13.8122C21.0264 13.8122 20.7467 13.5081 20.7467 13.1329C20.7467 12.0905 20.5069 11.8132 20.374 11.7169ZM4.64092 10.1893C4.66378 10.1894 4.68611 10.1894 4.70785 10.1894C5.05297 10.1894 5.33274 10.4935 5.33274 10.8687C5.33274 11.2438 5.05297 11.548 4.70785 11.548C4.13332 11.548 3.82516 11.5701 3.62253 11.7169C3.48964 11.8132 3.24978 12.0906 3.24978 13.1329C3.24978 13.5081 2.97001 13.8122 2.62489 13.8122C2.27977 13.8122 2 13.5081 2 13.1329C2 11.911 2.28103 11.0563 2.92932 10.5865C3.48091 10.1868 4.17318 10.1883 4.64092 10.1893Z" fill="black" fill-opacity="0.87"/>
<path fill-rule="evenodd" clip-rule="evenodd" d="M2.62489 12.446C2.97001 12.446 3.24978 12.7502 3.24978 13.1253V21.0502C3.24978 21.4253 2.97001 21.7294 2.62489 21.7294C2.27977 21.7294 2 21.4253 2 21.0502V13.1253C2 12.7502 2.27977 12.446 2.62489 12.446Z" fill="black" fill-opacity="0.87"/>
<path fill-rule="evenodd" clip-rule="evenodd" d="M21.3749 12.446C21.72 12.446 21.9998 12.7502 21.9998 13.1253V21.0502C21.9998 21.4253 21.72 21.7294 21.3749 21.7294C21.0298 21.7294 20.75 21.4253 20.75 21.0502V13.1253C20.75 12.7502 21.0298 12.446 21.3749 12.446Z" fill="black" fill-opacity="0.87"/>
<path fill-rule="evenodd" clip-rule="evenodd" d="M2.62508 20.3784C2.97019 20.3784 3.24996 20.6825 3.24996 21.0577C3.24996 21.6824 3.27033 22.0174 3.40538 22.2376C3.49395 22.382 3.74908 22.6427 4.70804 22.6427C5.05316 22.6427 5.33293 22.9468 5.33293 23.3219C5.33293 23.6971 5.05316 24.0012 4.70804 24.0012C3.58403 24.0012 2.79768 23.6958 2.36551 22.9912C1.9978 22.3916 1.99917 21.639 2.0001 21.1305C2.00014 21.1056 2.00019 21.0813 2.00019 21.0577C2.00019 20.6825 2.27996 20.3784 2.62508 20.3784ZM21.3717 20.3784C21.7169 20.3784 21.9966 20.6825 21.9966 21.0577C21.9966 21.0813 21.9967 21.1056 21.9967 21.1305C21.9977 21.639 21.999 22.3916 21.6313 22.9912C21.1991 23.6958 20.4128 24.0012 19.2888 24.0012C18.9437 24.0012 18.6639 23.6971 18.6639 23.3219C18.6639 22.9468 18.9437 22.6427 19.2888 22.6427C20.2477 22.6427 20.5029 22.382 20.5914 22.2376C20.7265 22.0174 20.7469 21.6824 20.7469 21.0577C20.7469 20.6825 21.0266 20.3784 21.3717 20.3784Z" fill="black" fill-opacity="0.87"/>
<path fill-rule="evenodd" clip-rule="evenodd" d="M4.08594 23.3228C4.08594 22.9477 4.36571 22.6436 4.71083 22.6436H19.2916C19.6367 22.6436 19.9165 22.9477 19.9165 23.3228C19.9165 23.698 19.6367 24.0021 19.2916 24.0021H4.71083C4.36571 24.0021 4.08594 23.698 4.08594 23.3228Z" fill="black" fill-opacity="0.87"/>
<path fill-rule="evenodd" clip-rule="evenodd" d="M6.26942 6.2229C6.61454 6.2229 6.89431 6.52702 6.89431 6.90217V10.2985C6.89431 10.6737 6.61454 10.9778 6.26942 10.9778C5.9243 10.9778 5.64453 10.6737 5.64453 10.2985V6.90217C5.64453 6.52702 5.9243 6.2229 6.26942 6.2229Z" fill="black" fill-opacity="0.87"/>
<path fill-rule="evenodd" clip-rule="evenodd" d="M17.7259 6.22947C18.071 6.22963 18.3506 6.53388 18.3505 6.90903L18.349 10.8719C18.3488 11.2471 18.0689 11.5511 17.7238 11.5509C17.3787 11.5508 17.0991 11.2465 17.0992 10.8714L17.1007 6.90846C17.1009 6.53331 17.3808 6.22931 17.7259 6.22947Z" fill="black" fill-opacity="0.87"/>
<path fill-rule="evenodd" clip-rule="evenodd" d="M17.1008 6.90594C17.1008 3.86031 15.0342 1.34762 11.9996 1.35858C8.99204 1.36945 6.89431 3.86764 6.89431 6.90594C6.89431 7.2811 6.61454 7.58522 6.26942 7.58522C5.9243 7.58522 5.64453 7.2811 5.64453 6.90594C5.64453 3.15095 8.27034 0.0135026 11.9955 4.37433e-05C15.7671 -0.0135828 18.3506 3.15829 18.3506 6.90594C18.3506 7.2811 18.0708 7.58522 17.7257 7.58522C17.3806 7.58522 17.1008 7.2811 17.1008 6.90594Z" fill="black" fill-opacity="0.87"/>
<path d="M13.601 15.7954C13.601 16.7332 12.9016 17.4935 12.0388 17.4935C11.176 17.4935 10.4766 16.7332 10.4766 15.7954C10.4766 14.8575 11.176 14.0972 12.0388 14.0972C12.9016 14.0972 13.601 14.8575 13.601 15.7954Z" fill="black" fill-opacity="0.87"/>
<path d="M10.957 16.532C10.957 15.9068 11.4233 15.3999 11.9985 15.3999C12.5737 15.3999 13.04 15.9068 13.04 16.532V18.7963C13.04 19.4215 12.5737 19.9284 11.9985 19.9284C11.4233 19.9284 10.957 19.4215 10.957 18.7963V16.532Z" fill="black" fill-opacity="0.87"/>
</g>
<defs>
<clipPath id="clip0_3078_7268">
<rect width="24" height="24" fill="white"/>
</clipPath>
</defs>
</svg>
