<svg width="24" height="24" viewBox="0 0 24 24" fill="none" xmlns="http://www.w3.org/2000/svg">
<path fill-rule="evenodd" clip-rule="evenodd" d="M0.900391 22.9999C0.900391 22.6685 1.16902 22.3999 1.50039 22.3999H21.0004C21.3318 22.3999 21.6004 22.6685 21.6004 22.9999C21.6004 23.3313 21.3318 23.5999 21.0004 23.5999H1.50039C1.16902 23.5999 0.900391 23.3313 0.900391 22.9999Z" fill="black" fill-opacity="0.87"/>
<path fill-rule="evenodd" clip-rule="evenodd" d="M21.9004 22.9999C21.9004 22.6685 22.169 22.3999 22.5004 22.3999H23.0004C23.3318 22.3999 23.6004 22.6685 23.6004 22.9999C23.6004 23.3313 23.3318 23.5999 23.0004 23.5999H22.5004C22.169 23.5999 21.9004 23.3313 21.9004 22.9999Z" fill="black" fill-opacity="0.87"/>
<path fill-rule="evenodd" clip-rule="evenodd" d="M2.00039 15.0667C2.33176 15.0667 2.60039 15.3353 2.60039 15.6667V22.5111C2.60039 22.8425 2.33176 23.1111 2.00039 23.1111C1.66902 23.1111 1.40039 22.8425 1.40039 22.5111V15.6667C1.40039 15.3353 1.66902 15.0667 2.00039 15.0667Z" fill="black" fill-opacity="0.87"/>
<path fill-rule="evenodd" clip-rule="evenodd" d="M7.50039 9.19995C7.83176 9.19995 8.10039 9.46858 8.10039 9.79995V22.5111C8.10039 22.8424 7.83176 23.1111 7.50039 23.1111C7.16902 23.1111 6.90039 22.8424 6.90039 22.5111V9.79995C6.90039 9.46858 7.16902 9.19995 7.50039 9.19995Z" fill="black" fill-opacity="0.87"/>
<path fill-rule="evenodd" clip-rule="evenodd" d="M13.0004 12.1333C13.3318 12.1333 13.6004 12.4019 13.6004 12.7333V23C13.6004 23.3313 13.3318 23.6 13.0004 23.6C12.669 23.6 12.4004 23.3313 12.4004 23V12.7333C12.4004 12.4019 12.669 12.1333 13.0004 12.1333Z" fill="black" fill-opacity="0.87"/>
<path fill-rule="evenodd" clip-rule="evenodd" d="M18.0004 6.2666C18.3318 6.2666 18.6004 6.53523 18.6004 6.8666L18.6004 22.511C18.6004 22.8424 18.3318 23.111 18.0004 23.111C17.669 23.111 17.4004 22.8424 17.4004 22.511L17.4004 6.8666C17.4004 6.53523 17.669 6.2666 18.0004 6.2666Z" fill="black" fill-opacity="0.87"/>
<path fill-rule="evenodd" clip-rule="evenodd" d="M1.40039 15.6667C1.40039 15.3353 1.66902 15.0667 2.00039 15.0667H4.50039C4.83176 15.0667 5.10039 15.3353 5.10039 15.6667C5.10039 15.998 4.83176 16.2667 4.50039 16.2667H2.00039C1.66902 16.2667 1.40039 15.998 1.40039 15.6667Z" fill="black" fill-opacity="0.87"/>
<path fill-rule="evenodd" clip-rule="evenodd" d="M6.90039 9.79995C6.90039 9.46858 7.16902 9.19995 7.50039 9.19995H10.0004C10.3318 9.19995 10.6004 9.46858 10.6004 9.79995C10.6004 10.1313 10.3318 10.4 10.0004 10.4H7.50039C7.16902 10.4 6.90039 10.1313 6.90039 9.79995Z" fill="black" fill-opacity="0.87"/>
<path fill-rule="evenodd" clip-rule="evenodd" d="M12.4004 12.7333C12.4004 12.4019 12.669 12.1333 13.0004 12.1333H15.5004C15.8318 12.1333 16.1004 12.4019 16.1004 12.7333C16.1004 13.0647 15.8318 13.3333 15.5004 13.3333H13.0004C12.669 13.3333 12.4004 13.0647 12.4004 12.7333Z" fill="black" fill-opacity="0.87"/>
<path fill-rule="evenodd" clip-rule="evenodd" d="M17.4004 6.8666C17.4004 6.53523 17.669 6.2666 18.0004 6.2666L20.5004 6.2666C20.8318 6.2666 21.1004 6.53523 21.1004 6.8666C21.1004 7.19797 20.8318 7.4666 20.5004 7.4666L18.0004 7.4666C17.669 7.4666 17.4004 7.19797 17.4004 6.8666Z" fill="black" fill-opacity="0.87"/>
<path fill-rule="evenodd" clip-rule="evenodd" d="M4.50039 15.0667C4.83176 15.0667 5.10039 15.3353 5.10039 15.6667V23C5.10039 23.3314 4.83176 23.6 4.50039 23.6C4.16902 23.6 3.90039 23.3314 3.90039 23V15.6667C3.90039 15.3353 4.16902 15.0667 4.50039 15.0667Z" fill="black" fill-opacity="0.87"/>
<path fill-rule="evenodd" clip-rule="evenodd" d="M10.0004 9.19995C10.3318 9.19995 10.6004 9.46858 10.6004 9.79995V23C10.6004 23.3313 10.3318 23.6 10.0004 23.6C9.66902 23.6 9.40039 23.3313 9.40039 23V9.79995C9.40039 9.46858 9.66902 9.19995 10.0004 9.19995Z" fill="black" fill-opacity="0.87"/>
<path fill-rule="evenodd" clip-rule="evenodd" d="M15.5004 12.1333C15.8318 12.1333 16.1004 12.4019 16.1004 12.7333V22.5111C16.1004 22.8424 15.8318 23.1111 15.5004 23.1111C15.169 23.1111 14.9004 22.8424 14.9004 22.5111V12.7333C14.9004 12.4019 15.169 12.1333 15.5004 12.1333Z" fill="black" fill-opacity="0.87"/>
<path fill-rule="evenodd" clip-rule="evenodd" d="M20.5004 6.29712C20.8318 6.29712 21.1004 6.56575 21.1004 6.89712V10.2858C21.1004 10.6172 20.8318 10.8858 20.5004 10.8858C20.169 10.8858 19.9004 10.6172 19.9004 10.2858V6.89712C19.9004 6.56575 20.169 6.29712 20.5004 6.29712Z" fill="black" fill-opacity="0.87"/>
<path fill-rule="evenodd" clip-rule="evenodd" d="M20.5004 13.5999C20.8318 13.5999 21.1004 13.8685 21.1004 14.1999V22.511C21.1004 22.8423 20.8318 23.111 20.5004 23.111C20.169 23.111 19.9004 22.8423 19.9004 22.511V14.1999C19.9004 13.8685 20.169 13.5999 20.5004 13.5999Z" fill="black" fill-opacity="0.87"/>
<path fill-rule="evenodd" clip-rule="evenodd" d="M20.5004 11.1555C20.8318 11.1555 21.1004 11.4241 21.1004 11.7555V12.7333C21.1004 13.0647 20.8318 13.3333 20.5004 13.3333C20.169 13.3333 19.9004 13.0647 19.9004 12.7333V11.7555C19.9004 11.4241 20.169 11.1555 20.5004 11.1555Z" fill="black" fill-opacity="0.87"/>
<path fill-rule="evenodd" clip-rule="evenodd" d="M1.92939 11.336C2.16106 11.573 2.15679 11.9529 1.91986 12.1845L1.41986 12.6734C1.18293 12.9051 0.803054 12.9008 0.571387 12.6639C0.33972 12.4269 0.343988 12.0471 0.58092 11.8154L1.08092 11.3265C1.31785 11.0948 1.69773 11.0991 1.92939 11.336Z" fill="black" fill-opacity="0.87"/>
<path fill-rule="evenodd" clip-rule="evenodd" d="M3.92939 9.38048C4.16106 9.61741 4.15679 9.99729 3.91986 10.229L2.91986 11.2067C2.68293 11.4384 2.30305 11.4341 2.07139 11.1972C1.83972 10.9603 1.84399 10.5804 2.08092 10.3487L3.08092 9.37095C3.31785 9.13928 3.69773 9.14355 3.92939 9.38048Z" fill="black" fill-opacity="0.87"/>
<path fill-rule="evenodd" clip-rule="evenodd" d="M8.42939 4.98058C8.66106 5.21751 8.65679 5.59739 8.41986 5.82905L4.91986 9.25128C4.68293 9.48294 4.30305 9.47867 4.07139 9.24174C3.83972 9.00481 3.84399 8.62493 4.08092 8.39327L7.58092 4.97105C7.81785 4.73938 8.19773 4.74365 8.42939 4.98058Z" fill="black" fill-opacity="0.87"/>
<path fill-rule="evenodd" clip-rule="evenodd" d="M7.49104 5.08291C7.6661 4.80155 8.0361 4.71539 8.31745 4.89045L13.8175 8.31267C14.0988 8.48774 14.185 8.85774 14.0099 9.13909C13.8348 9.42044 13.4648 9.50661 13.1835 9.33154L7.68349 5.90932C7.40214 5.73426 7.31597 5.36426 7.49104 5.08291Z" fill="black" fill-opacity="0.87"/>
<path fill-rule="evenodd" clip-rule="evenodd" d="M18.8896 2.49883C19.1418 2.71377 19.172 3.09247 18.9571 3.34467L13.9571 9.21134C13.7421 9.46354 13.3634 9.49374 13.1112 9.2788C12.859 9.06385 12.8288 8.68516 13.0438 8.43296L18.0438 2.56629C18.2587 2.31409 18.6374 2.28388 18.8896 2.49883Z" fill="black" fill-opacity="0.87"/>
<path d="M19.0011 1.84397C19.1393 1.77464 19.301 1.87672 19.2934 2.0284L19.1995 3.88145C19.1917 4.03419 19.0182 4.12255 18.8877 4.0402L17.2934 3.03418C17.1629 2.95183 17.1737 2.76083 17.3129 2.69101L19.0011 1.84397Z" fill="black" fill-opacity="0.87"/>
</svg>
