<svg width="24" height="24" viewBox="0 0 24 24" fill="none" xmlns="http://www.w3.org/2000/svg">
<path fill-rule="evenodd" clip-rule="evenodd" d="M15.2691 12.5984C13.793 12.5984 12.5964 13.795 12.5964 15.271C12.5964 16.7471 13.793 17.9437 15.2691 17.9437C16.7452 17.9437 17.9417 16.7471 17.9417 15.271C17.9417 13.795 16.7452 12.5984 15.2691 12.5984ZM11.3965 15.271C11.3965 13.1323 13.1303 11.3984 15.2691 11.3984C17.4079 11.3984 19.1417 13.1323 19.1417 15.271C19.1417 17.4098 17.4079 19.1437 15.2691 19.1437C13.1303 19.1437 11.3965 17.4098 11.3965 15.271Z" fill="black" fill-opacity="0.87"/>
<path fill-rule="evenodd" clip-rule="evenodd" d="M8.7271 6.05153C7.25104 6.05153 6.05446 7.24811 6.05446 8.72417C6.05446 10.2002 7.25104 11.3968 8.7271 11.3968C9.05846 11.3968 9.32709 11.6654 9.32709 11.9968C9.32709 12.3282 9.05846 12.5968 8.7271 12.5968C6.58832 12.5968 4.85449 10.863 4.85449 8.72417C4.85449 6.58539 6.58832 4.85156 8.7271 4.85156C10.8659 4.85156 12.5997 6.58539 12.5997 8.72417V9.3787C12.5997 9.71006 12.3311 9.97868 11.9997 9.97868C11.6684 9.97868 11.3997 9.71006 11.3997 9.3787V8.72417C11.3997 7.24811 10.2032 6.05153 8.7271 6.05153Z" fill="black" fill-opacity="0.87"/>
<path d="M10.4002 0.403356C10.3125 0.161521 10.0794 1.59308e-06 9.81883 1.59308e-06H7.9629C7.8359 -0.000286359 7.7119 0.0384681 7.60784 0.110975C7.50378 0.183481 7.42473 0.286205 7.38148 0.405121L6.79652 2.03C6.49075 2.13857 6.2479 2.23918 6.06621 2.33539C5.91376 2.4157 5.74536 2.51544 5.55924 2.639L3.87703 1.94704C3.76623 1.9014 3.64454 1.88861 3.52661 1.91022C3.40868 1.93183 3.29953 1.98691 3.2123 2.06884L1.96793 3.23918C1.87455 3.32646 1.81138 3.44097 1.78749 3.56626C1.7636 3.69155 1.78023 3.82116 1.83498 3.93644L2.55643 5.45453C2.4546 5.6599 2.36175 5.86957 2.27813 6.08294C2.21875 6.2427 2.15139 6.46158 2.07428 6.74314L0.409799 7.53925C0.309397 7.58679 0.223958 7.66077 0.162722 7.75317C0.101486 7.84558 0.0667832 7.95289 0.0623671 8.06352L0.00032569 9.75901C-0.0040693 9.8931 0.0361193 10.0249 0.11465 10.1339C0.193181 10.2429 0.305659 10.323 0.434616 10.3618L2.0211 10.8429C2.10252 11.0841 2.19119 11.3228 2.287 11.5587C2.36907 11.7514 2.45836 11.941 2.55466 12.1271L1.83055 13.6981C1.77778 13.8131 1.76266 13.9417 1.78731 14.0657C1.81196 14.1897 1.87515 14.3029 1.96793 14.3892L3.21407 15.5533C3.30218 15.6354 3.41234 15.6902 3.53114 15.711C3.64995 15.7319 3.77227 15.7179 3.88323 15.6707L5.56722 14.9541C5.74678 15.0465 5.92946 15.1327 6.11495 15.2127C6.34174 15.3044 6.57109 15.3898 6.80273 15.4686L7.14218 16.3631L7.48252 14.4139C7.05178 14.2674 6.75487 14.1597 6.59976 14.0953C6.44732 14.0308 6.20624 13.9135 5.88274 13.744C5.80083 13.7012 5.71036 13.6771 5.61792 13.6734C5.52547 13.6697 5.43337 13.6866 5.3483 13.7228L3.7689 14.3954L3.13874 13.8058L3.80435 12.3601C3.88323 12.1888 3.87703 11.9911 3.78751 11.8252C3.65697 11.5875 3.53749 11.3439 3.42944 11.0953C3.3479 10.8993 3.23446 10.5869 3.09265 10.1632C3.02972 9.97614 2.87905 9.8305 2.68849 9.77313L1.25268 9.33889L1.28458 8.47393L2.87107 7.71577C2.95151 7.67739 3.02255 7.62195 3.0792 7.55334C3.13584 7.48473 3.17674 7.40461 3.19901 7.3186C3.29739 6.93908 3.37804 6.66458 3.43831 6.50483C3.49858 6.3442 3.61823 6.08294 3.79549 5.72902C3.8788 5.56397 3.88057 5.3698 3.80081 5.2021L3.14228 3.81641L3.77422 3.22153L5.39616 3.8879C5.49307 3.92789 5.59854 3.94288 5.70282 3.93146C5.80709 3.92004 5.90678 3.88259 5.99264 3.82258C6.25499 3.63724 6.47568 3.49867 6.64851 3.40776C6.81159 3.32214 7.09078 3.21182 7.47721 3.08384C7.56553 3.05469 7.64605 3.00594 7.71269 2.94126C7.77932 2.87658 7.83033 2.79768 7.86186 2.7105L8.39808 1.21536H9.38454L9.9757 2.84995C10.0115 2.94752 10.0715 3.03443 10.1503 3.10252C10.2291 3.17061 10.3239 3.21764 10.4259 3.23918C10.6831 3.2912 10.9368 3.35899 11.1855 3.44218C11.4772 3.5541 11.7635 3.67957 12.0435 3.81817C12.1314 3.86009 12.2279 3.88088 12.3253 3.87889C12.4228 3.8769 12.5184 3.85217 12.6045 3.8067L13.9233 3.1112L14.6004 3.80846L13.9579 5.3089C13.9212 5.39438 13.905 5.48716 13.9103 5.57995C13.9157 5.67275 13.9426 5.76304 13.9889 5.84376C14.1225 6.07222 14.2467 6.30601 14.3611 6.54455L14.9995 7.46832H16.3631C16.2532 7.18148 15.5594 6.20474 15.485 6.04323C15.4159 5.89495 15.3254 5.71755 15.212 5.51013L15.8953 3.91526C15.9911 3.69107 15.9432 3.43424 15.773 3.2586L14.4914 1.9391C14.3976 1.84299 14.275 1.77977 14.1421 1.75892C14.0091 1.73808 13.873 1.76073 13.754 1.82347L12.2969 2.59134C12.0133 2.45984 11.7838 2.36363 11.6056 2.30008C11.4425 2.24183 11.2502 2.18623 11.026 2.13062L10.4002 0.403356Z" fill="black" fill-opacity="0.87"/>
<path d="M16.2137 6.54688C16.4702 6.54688 16.6997 6.70658 16.7861 6.9457L17.4022 8.65355C17.623 8.70853 17.8124 8.76351 17.973 8.82111C18.1484 8.88394 18.3744 8.97906 18.6537 9.10909L20.0883 8.34985C20.2054 8.28781 20.3395 8.26542 20.4704 8.28603C20.6013 8.30664 20.722 8.36915 20.8144 8.46418L22.0763 9.76885C22.2438 9.94251 22.2909 10.1965 22.1967 10.4181L21.5239 11.9951C21.6356 12.2002 21.7246 12.3756 21.7927 12.5222C21.866 12.6819 21.9567 12.9018 22.0649 13.1854L23.6331 13.8574C23.8687 13.9578 24.0145 14.1934 23.9988 14.4456L23.8836 16.2564C23.8757 16.3741 23.8335 16.4868 23.7621 16.5807C23.6907 16.6745 23.5934 16.7454 23.4821 16.7844L21.9969 17.3124C21.9541 17.5175 21.9096 17.6929 21.8625 17.8412C21.7865 18.0704 21.6997 18.2958 21.6024 18.5167L22.3485 20.1661C22.4012 20.282 22.4154 20.4117 22.389 20.5362C22.3626 20.6607 22.2971 20.7735 22.2019 20.8581L20.783 22.1253C20.6895 22.2084 20.5729 22.2609 20.4488 22.2759C20.3246 22.2909 20.1988 22.2675 20.0883 22.209L18.6257 21.4341C18.3969 21.5553 18.1608 21.6622 17.9189 21.7544L17.2801 21.9935L16.7128 23.5643C16.6708 23.6794 16.595 23.779 16.4953 23.8502C16.3956 23.9214 16.2768 23.9607 16.1543 23.9632L14.4962 24.0007C14.3706 24.004 14.2469 23.9682 14.1424 23.8984C14.0378 23.8285 13.9575 23.728 13.9124 23.6106L13.244 21.8416C13.0159 21.7637 12.7901 21.6793 12.5668 21.5886C12.3841 21.5095 12.2043 21.4242 12.0275 21.3329L10.3694 22.0415C10.2601 22.0881 10.1397 22.1019 10.0227 22.0813C9.90574 22.0607 9.79727 22.0066 9.71052 21.9254L8.48355 20.7743C8.3922 20.689 8.32999 20.5771 8.30571 20.4545C8.28144 20.3319 8.29633 20.2047 8.34828 20.091L9.06126 18.5376C8.96644 18.3537 8.87852 18.1662 8.79771 17.9756C8.70338 17.7424 8.61607 17.5064 8.53591 17.2679L6.97383 16.7923C6.84685 16.7539 6.73611 16.6746 6.65878 16.5669C6.58146 16.4591 6.54189 16.3288 6.54622 16.1962L6.60731 14.5198C6.61165 14.4104 6.64582 14.3043 6.70612 14.2129C6.76641 14.1215 6.85054 14.0484 6.94939 14.0014L8.58827 13.2142C8.66419 12.9358 8.73051 12.7194 8.78898 12.5615C8.87131 12.3505 8.96274 12.1432 9.063 11.9401L8.35265 10.4391C8.29874 10.3251 8.28237 10.1969 8.30589 10.0731C8.32941 9.94917 8.39161 9.83595 8.48355 9.74965L9.70878 8.59246C9.79467 8.51145 9.90214 8.45699 10.0183 8.43562C10.1344 8.41426 10.2542 8.4269 10.3633 8.47203L12.0196 9.15622C12.2029 9.03404 12.3687 8.93543 12.5188 8.85601C12.6977 8.76089 12.9368 8.6614 13.2379 8.55406L13.8138 6.94744C13.8564 6.82986 13.9342 6.72829 14.0367 6.6566C14.1392 6.58491 14.2612 6.54659 14.3863 6.54688H16.2137ZM15.7861 7.74857H14.8148L14.2868 9.22691C14.2558 9.31311 14.2055 9.39113 14.1399 9.45508C14.0743 9.51903 13.995 9.56723 13.9081 9.59606C13.5276 9.7226 13.2527 9.83168 13.0921 9.91633C12.922 10.0062 12.7047 10.1432 12.4463 10.3265C12.3618 10.3858 12.2636 10.4229 12.161 10.4341C12.0583 10.4454 11.9545 10.4306 11.859 10.3911L10.2621 9.7322L9.63984 10.3204L10.2882 11.6905C10.3668 11.8563 10.365 12.0483 10.283 12.2115C10.1085 12.5615 9.99065 12.8198 9.93131 12.9786C9.87197 13.1366 9.79255 13.408 9.69569 13.7832C9.67376 13.8683 9.6335 13.9475 9.57772 14.0153C9.52194 14.0832 9.452 14.138 9.3728 14.1759L7.81072 14.9256L7.7793 15.7808L9.19303 16.2102C9.38065 16.2669 9.52901 16.4109 9.59097 16.5959C9.73059 17.0148 9.8423 17.3237 9.92258 17.5175C10.029 17.7633 10.1466 18.0041 10.2751 18.2392C10.3633 18.4032 10.3694 18.5987 10.2917 18.768L9.63635 20.1975L10.2568 20.7805L11.8119 20.1155C11.8957 20.0797 11.9864 20.063 12.0774 20.0666C12.1684 20.0702 12.2575 20.0941 12.3381 20.1364C12.6567 20.304 12.894 20.42 13.0441 20.4837C13.1968 20.5474 13.4892 20.6539 13.9133 20.7988C13.9975 20.8275 14.0743 20.8745 14.1383 20.9363C14.2022 20.9982 14.2518 21.0734 14.2833 21.1566L14.9012 22.7894L15.7093 22.7719L16.2302 21.3285C16.26 21.2461 16.3074 21.1712 16.369 21.109C16.4307 21.0468 16.5051 20.9987 16.5872 20.9681L17.4921 20.6295C17.7208 20.5448 17.9983 20.4113 18.322 20.228C18.4116 20.1777 18.5125 20.1507 18.6152 20.1495C18.718 20.1482 18.8194 20.1729 18.9102 20.2211L20.2864 20.9498L21.0605 20.2595L20.3833 18.7645C20.3485 18.6878 20.3304 18.6045 20.3303 18.5203C20.3301 18.436 20.3479 18.3527 20.3824 18.2758C20.5412 17.9206 20.6486 17.6527 20.7027 17.4817C20.7559 17.3141 20.8109 17.0724 20.8641 16.7617C20.8824 16.6562 20.9286 16.5574 20.9977 16.4757C21.0669 16.3939 21.1567 16.3321 21.2577 16.2966L22.6959 15.786L22.7587 14.7912L21.345 14.1855C21.2697 14.1535 21.2017 14.1065 21.1452 14.0474C21.0886 13.9883 21.0447 13.9183 21.016 13.8417C20.9152 13.5635 20.8051 13.2888 20.6861 13.0179C20.5734 12.782 20.4511 12.5508 20.3196 12.325C20.274 12.2451 20.2475 12.1559 20.2422 12.0641C20.2369 11.9724 20.253 11.8806 20.289 11.7961L20.9217 10.3125L20.255 9.62311L18.9565 10.3108C18.8717 10.3558 18.7776 10.3802 18.6816 10.3822C18.5857 10.3841 18.4906 10.3636 18.4041 10.3221C18.1284 10.1851 17.8466 10.061 17.5593 9.95037C17.3144 9.86812 17.0646 9.80108 16.8114 9.74965C16.711 9.72835 16.6176 9.68185 16.54 9.61453C16.4625 9.5472 16.4033 9.46127 16.3681 9.36479L15.7861 7.74857Z" fill="black" fill-opacity="0.87"/>
</svg>
