<svg width="24" height="24" viewBox="0 0 24 24" fill="none" xmlns="http://www.w3.org/2000/svg">
<path d="M11.5047 17.2364V15.9753C10.797 15.9736 10.1039 15.7832 9.50391 15.4258L9.80751 14.5899C10.3685 14.9384 11.0232 15.1252 11.6929 15.1279C12.6219 15.1279 13.2504 14.6159 13.2504 13.9044C13.2504 13.1929 12.7494 12.7938 11.7809 12.4178C10.4451 11.9174 9.61928 11.3447 9.61928 10.2601C9.61928 9.22462 10.3935 8.4379 11.5988 8.2499V6.99463H12.4155V8.20363C13.0129 8.20909 13.5991 8.35939 14.1187 8.64037L13.7908 9.46468C13.2918 9.18086 12.7203 9.03374 12.1392 9.03951C11.1312 9.03951 10.7517 9.61798 10.7517 10.1126C10.7517 10.7604 11.2375 11.0844 12.376 11.5356C13.724 12.0591 14.4071 12.6925 14.4071 13.8176C14.4071 14.8039 13.6845 15.7266 12.3365 15.9377V17.2364H11.5047Z" fill="black" fill-opacity="0.87"/>
<path fill-rule="evenodd" clip-rule="evenodd" d="M12 1.5C6.20101 1.5 1.5 6.20101 1.5 12C1.5 17.799 6.20101 22.5 12 22.5C17.799 22.5 22.5 17.799 22.5 12C22.5 6.20101 17.799 1.5 12 1.5ZM0 12C0 5.37258 5.37258 0 12 0C18.6274 0 24 5.37258 24 12C24 18.6274 18.6274 24 12 24C5.37258 24 0 18.6274 0 12Z" fill="black" fill-opacity="0.87"/>
</svg>
