<svg width="20" height="20" viewBox="0 0 20 20" fill="none" xmlns="http://www.w3.org/2000/svg">
    <path fill-rule="evenodd" clip-rule="evenodd"
        d="M1.16699 18.333C1.16699 18.0569 1.39085 17.833 1.66699 17.833H18.3337C18.6098 17.833 18.8337 18.0569 18.8337 18.333C18.8337 18.6092 18.6098 18.833 18.3337 18.833H1.66699C1.39085 18.833 1.16699 18.6092 1.16699 18.333Z"
        fill="#212121" />
    <path fill-rule="evenodd" clip-rule="evenodd"
        d="M2.24263 1.54507C2.45286 1.31045 2.75052 1.1665 3.07416 1.1665H10.8664C11.19 1.1665 11.4877 1.31045 11.6979 1.54507C11.9065 1.77788 12.0157 2.08297 12.0157 2.39114V18.3332C12.0157 18.6093 11.7919 18.8332 11.5157 18.8332C11.2396 18.8332 11.0157 18.6093 11.0157 18.3332V2.39114C11.0157 2.31494 10.9881 2.25141 10.9532 2.21243C10.9198 2.17525 10.8872 2.1665 10.8664 2.1665H3.07416C3.05335 2.1665 3.02068 2.17525 2.98736 2.21243C2.95243 2.25141 2.9248 2.31494 2.9248 2.39114V18.3332C2.9248 18.6093 2.70095 18.8332 2.4248 18.8332C2.14866 18.8332 1.9248 18.6093 1.9248 18.3332V2.39114C1.9248 2.08297 2.03401 1.77788 2.24263 1.54507Z"
        fill="#333333" />
    <path fill-rule="evenodd" clip-rule="evenodd"
        d="M11.0156 6.96924C11.0156 6.6931 11.2395 6.46924 11.5156 6.46924H16.2884C16.6308 6.46924 16.9045 6.66381 17.0729 6.9044C17.2402 7.14328 17.3187 7.44008 17.3187 7.72681V18.3329C17.3187 18.609 17.0948 18.8329 16.8187 18.8329C16.5425 18.8329 16.3187 18.609 16.3187 18.3329V7.72681C16.3187 7.6117 16.2854 7.52312 16.2537 7.47786C16.2514 7.47455 16.2493 7.4717 16.2473 7.46924H11.5156C11.2395 7.46924 11.0156 7.24538 11.0156 6.96924Z"
        fill="#333333" />
    <path fill-rule="evenodd" clip-rule="evenodd"
        d="M4.19727 5.4541C4.19727 5.17796 4.42112 4.9541 4.69727 4.9541H6.96999C7.24613 4.9541 7.46999 5.17796 7.46999 5.4541C7.46999 5.73024 7.24613 5.9541 6.96999 5.9541H4.69727C4.42112 5.9541 4.19727 5.73024 4.19727 5.4541Z"
        fill="#333333" />
    <path fill-rule="evenodd" clip-rule="evenodd"
        d="M5.71289 9.24316C5.71289 8.96702 5.93675 8.74316 6.21289 8.74316H8.48562C8.76176 8.74316 8.98562 8.96702 8.98562 9.24316C8.98562 9.51931 8.76176 9.74316 8.48562 9.74316H6.21289C5.93675 9.74316 5.71289 9.51931 5.71289 9.24316Z"
        fill="#333333" />
    <path fill-rule="evenodd" clip-rule="evenodd"
        d="M4.19727 12.272C4.19727 11.9958 4.42112 11.772 4.69727 11.772H6.96999C7.24613 11.772 7.46999 11.9958 7.46999 12.272C7.46999 12.5481 7.24613 12.772 6.96999 12.772H4.69727C4.42112 12.772 4.19727 12.5481 4.19727 12.272Z"
        fill="#333333" />
    <path fill-rule="evenodd" clip-rule="evenodd"
        d="M13.2881 14.5459C13.2881 14.2698 13.5119 14.0459 13.7881 14.0459H14.5457C14.8218 14.0459 15.0457 14.2698 15.0457 14.5459C15.0457 14.822 14.8218 15.0459 14.5457 15.0459H13.7881C13.5119 15.0459 13.2881 14.822 13.2881 14.5459Z"
        fill="#333333" />
    <path fill-rule="evenodd" clip-rule="evenodd"
        d="M13.2881 10.7568C13.2881 10.4807 13.5119 10.2568 13.7881 10.2568H14.5457C14.8218 10.2568 15.0457 10.4807 15.0457 10.7568C15.0457 11.033 14.8218 11.2568 14.5457 11.2568H13.7881C13.5119 11.2568 13.2881 11.033 13.2881 10.7568Z"
        fill="#333333" />
    <path fill-rule="evenodd" clip-rule="evenodd"
        d="M5.71289 15.3027C5.71289 15.0266 5.93675 14.8027 6.21289 14.8027H7.72804C8.00418 14.8027 8.22804 15.0266 8.22804 15.3027V18.333C8.22804 18.6092 8.00418 18.833 7.72804 18.833H6.21289C5.93675 18.833 5.71289 18.6092 5.71289 18.333V15.3027ZM6.71289 15.8027V17.833H7.22804V15.8027H6.71289Z"
        fill="#333333" />
</svg>
    