<svg width="20" height="20" viewBox="0 0 20 20" fill="none" xmlns="http://www.w3.org/2000/svg">
    <path fill-rule="evenodd" clip-rule="evenodd"
        d="M1.5969 4.6665C1.46512 4.6665 1.33301 4.78084 1.33301 4.95354V17.5461C1.33301 17.7188 1.46512 17.8332 1.5969 17.8332H18.4025C18.5342 17.8332 18.6663 17.7188 18.6663 17.5461V4.95354C18.6663 4.78084 18.5342 4.6665 18.4025 4.6665H1.5969ZM0.333008 4.95354C0.333008 4.25691 0.884905 3.6665 1.5969 3.6665H18.4025C19.1144 3.6665 19.6663 4.25691 19.6663 4.95354V17.5461C19.6663 18.2428 19.1144 18.8332 18.4025 18.8332H1.5969C0.884905 18.8332 0.333008 18.2428 0.333008 17.5461V4.95354Z"
        fill="#333333" />
    <path fill-rule="evenodd" clip-rule="evenodd"
        d="M6.02116 1.63262C6.43146 1.32489 6.96434 1.1665 7.49967 1.1665H12.4997C13.035 1.1665 13.5679 1.32489 13.9782 1.63262C14.3912 1.94241 14.6663 2.39834 14.6663 2.9165V4.1665C14.6663 4.44265 14.4425 4.6665 14.1663 4.6665C13.8902 4.6665 13.6663 4.44265 13.6663 4.1665V2.9165C13.6663 2.77162 13.5903 2.59167 13.3782 2.43262C13.1634 2.27151 12.8484 2.1665 12.4997 2.1665H7.49967C7.15095 2.1665 6.83598 2.27151 6.62116 2.43262C6.4091 2.59167 6.33301 2.77162 6.33301 2.9165V4.1665C6.33301 4.44265 6.10915 4.6665 5.83301 4.6665C5.55687 4.6665 5.33301 4.44265 5.33301 4.1665V2.9165C5.33301 2.39834 5.60811 1.94241 6.02116 1.63262Z"
        fill="#333333" />
    <path fill-rule="evenodd" clip-rule="evenodd"
        d="M19.6319 9.81685C19.7328 10.0739 19.6063 10.3641 19.3493 10.465C16.5008 11.5838 13.2762 12.1688 10 12.1663C6.72305 12.172 3.49687 11.5867 0.649831 10.4648C0.392916 10.3636 0.266717 10.0732 0.367956 9.81634C0.469196 9.55942 0.759537 9.43322 1.01645 9.53446C3.73774 10.6068 6.83818 11.1719 9.99892 11.1663L10.0002 11.1663C13.1607 11.1688 16.2603 10.6039 18.9837 9.53426C19.2407 9.4333 19.5309 9.55982 19.6319 9.81685Z"
        fill="#333333" />
    <path fill-rule="evenodd" clip-rule="evenodd"
        d="M7.83301 9.1665C7.83301 8.89036 8.05687 8.6665 8.33301 8.6665H11.6663C11.9425 8.6665 12.1663 8.89036 12.1663 9.1665C12.1663 9.44265 11.9425 9.6665 11.6663 9.6665H8.33301C8.05687 9.6665 7.83301 9.44265 7.83301 9.1665Z"
        fill="#333333" />
</svg>
    