<svg xmlns="http://www.w3.org/2000/svg" width="18" height="18" viewBox="0 0 18 18" fill="none">
  <path fill-rule="evenodd" clip-rule="evenodd" d="M8.98237 4.24609H8.99981C13.0357 4.24609 16.6561 7.13966 16.6561 11.5466C16.6561 13.3361 15.6835 14.545 14.3828 14.7765C13.0945 15.0059 11.7754 14.2181 11.2227 12.6437C11.1165 12.3415 11.0582 12.103 11.0067 11.8926C10.8983 11.4494 10.8205 11.1315 10.3913 10.6075C9.55805 9.59009 8.19741 9.77168 7.63636 10.5707C7.04683 11.4102 7.01251 12.4907 7.58799 13.6223C8.16823 14.7632 9.36291 15.9225 11.1429 16.7675C11.4547 16.9155 11.5875 17.2883 11.4395 17.6001C11.2914 17.9119 10.9187 18.0447 10.6068 17.8967C8.63682 16.9615 7.20621 15.629 6.47381 14.1889C5.73665 12.7395 5.70233 11.1498 6.61337 9.85235C7.65344 8.37117 10.0048 8.16273 11.3584 9.81551C11.9772 10.5711 12.1454 11.2499 12.2759 11.7764C12.3174 11.9437 12.355 12.0956 12.4021 12.2297C12.7868 13.3255 13.5771 13.6503 14.1638 13.5459C14.7381 13.4436 15.4061 12.8724 15.4061 11.5466C15.4061 7.94897 12.4738 5.50426 9.01714 5.49611C7.14798 5.60358 5.79301 6.17489 4.83691 6.97148C3.87535 7.77262 3.2786 8.83385 2.98404 9.97794C2.68853 11.1258 2.70108 12.3451 2.9512 13.4297C3.20284 14.5209 3.68306 15.4278 4.27395 15.9888C4.52427 16.2264 4.53453 16.622 4.29686 16.8724C4.05919 17.1227 3.6636 17.1329 3.41327 16.8953C2.59797 16.1212 2.02352 14.9697 1.73317 13.7106C1.44129 12.4449 1.42453 11.0218 1.77352 9.66628C2.12347 8.30705 2.84504 7.00404 4.03677 6.01112C5.23098 5.01615 6.85879 4.36469 8.96496 4.24707L8.98237 4.24609Z" fill="#141414"/>
  <path fill-rule="evenodd" clip-rule="evenodd" d="M15.1539 3.56444C11.639 0.527846 6.36056 0.538336 2.84532 3.56516C2.58375 3.79039 2.18912 3.76093 1.96389 3.49936C1.73866 3.23778 1.76813 2.84315 2.0297 2.61793C6.01188 -0.810969 11.9849 -0.825136 15.9711 2.61854C16.2323 2.84419 16.2611 3.23887 16.0355 3.50007C15.8098 3.76128 15.4151 3.79009 15.1539 3.56444Z" fill="#141414"/>
  <path fill-rule="evenodd" clip-rule="evenodd" d="M15.9966 7.02286C12.4879 2.25295 5.47589 2.30479 2.00341 7.02293C1.7988 7.30093 1.40757 7.36043 1.12957 7.15582C0.85157 6.95122 0.792071 6.55999 0.996676 6.28199C4.96429 0.891111 12.9909 0.827177 17.0035 6.28218C17.208 6.56024 17.1484 6.95145 16.8704 7.15598C16.5923 7.36052 16.2011 7.30091 15.9966 7.02286Z" fill="#141414"/>
  <path fill-rule="evenodd" clip-rule="evenodd" d="M10.3747 7.90955C9.0147 7.43138 7.38575 7.71177 6.14903 8.8859L6.14902 8.88591C5.11733 9.86533 4.72913 10.9982 4.93005 12.2858C5.1375 13.615 5.98497 15.1738 7.58468 16.9095C7.81861 17.1634 7.80249 17.5588 7.54867 17.7927C7.29485 18.0266 6.89945 18.0105 6.66552 17.7567C4.9839 15.9321 3.95634 14.1531 3.695 12.4785C3.42714 10.7621 3.97641 9.22489 5.28839 7.97936L5.7187 8.43264L5.28839 7.97936C6.86422 6.48329 8.98527 6.09602 10.7893 6.73032C12.6081 7.3698 14.0504 9.02666 14.309 11.4822C14.3452 11.8255 14.0962 12.1331 13.7529 12.1692C13.4097 12.2054 13.1021 11.9564 13.0659 11.6131C12.8558 9.61828 11.72 8.38254 10.3747 7.90955Z" fill="#141414"/>
  <path fill-rule="evenodd" clip-rule="evenodd" d="M9 10.4766C9.34518 10.4766 9.625 10.7564 9.625 11.1016C9.625 13.3857 11.1894 14.5643 13.018 15.4323C13.3299 15.5804 13.4626 15.9532 13.3146 16.265C13.1666 16.5768 12.7938 16.7096 12.482 16.5616C10.5606 15.6495 8.375 14.1578 8.375 11.1016C8.375 10.7564 8.65482 10.4766 9 10.4766Z" fill="#141414"/>
</svg>