<svg xmlns="http://www.w3.org/2000/svg" width="136" height="137" viewBox="0 0 136 137" fill="none">
  <path d="M39.698 0.375488C38.3077 0.375488 36.9796 0.743362 35.8521 1.44089C35.2166 1.83266 34.6624 2.33908 34.2086 2.93628C33.7929 3.47615 33.4728 4.10201 33.2578 4.78999C32.8661 4.55589 32.4456 4.39345 32.0156 4.30745C31.7768 4.2549 31.5235 4.23101 31.2703 4.23101C30.9932 4.23101 30.6923 4.26446 30.3817 4.32657C29.8992 4.4269 29.3975 4.63233 28.8815 4.94288C28.4181 5.21998 27.969 5.57829 27.5056 6.03694C27.0995 6.43826 26.703 6.91603 26.3016 7.48934C25.5754 8.53086 25.0069 9.70137 24.6008 10.9722C24.4097 11.5694 24.2712 12.1714 24.1852 12.7638C24.0992 13.3849 24.0705 13.9725 24.1135 14.5076C24.1756 15.3246 24.424 16.476 25.284 17.3073C25.6041 17.6179 26.0198 17.8663 26.5166 18.0431C26.789 18.1434 27.0899 18.2055 27.4387 18.2437L27.3193 18.3918C27.0422 18.7836 26.8128 19.2279 26.6361 19.7105C26.316 20.58 26.2109 21.5833 26.3303 22.6105C26.4354 23.5564 26.7555 24.5119 27.2524 25.3624C27.7636 26.2319 28.442 26.9676 29.2207 27.4836C29.5934 27.7273 30.0234 27.9423 30.5394 28.1334C31.0601 28.3292 31.5904 28.463 32.1112 28.5251C32.3071 28.549 32.5077 28.5634 32.7084 28.5634C33.4203 28.5634 34.1226 28.4009 34.7341 28.0904C35.4603 27.7273 36.1244 27.1301 36.7025 26.3274C36.7932 26.2032 36.8793 26.0742 36.9605 25.9452C37.0035 25.9691 37.0512 25.9787 37.1038 25.9787C37.1659 25.9787 37.228 25.9643 37.2853 25.9309C38.432 25.2907 39.5642 24.4881 40.6488 23.5469C41.6807 22.6535 42.6315 21.6454 43.4771 20.5513C44.6189 19.0702 45.5745 17.3264 46.315 15.3772C47.1033 13.3132 47.5142 11.2828 47.5333 9.34305C47.5524 7.19791 47.0173 5.26298 45.9853 3.74848C45.412 2.90762 44.6906 2.1862 43.8354 1.60333C43.0901 1.09212 42.1871 0.72425 41.2316 0.528368C40.7252 0.428038 40.2092 0.375488 39.698 0.375488Z" fill="#100258"/>
  <path d="M58.5406 5.37915C57.4274 5.37915 56.2664 5.45559 55.0912 5.59892C52.4587 5.92857 50.4521 6.50189 48.7895 7.40963C47.8292 7.93039 46.9597 8.59925 46.2048 9.39233C45.6745 9.95131 45.1872 10.5963 44.7668 11.3034C43.8734 11.547 43.0134 11.9149 42.2012 12.3831C41.3842 12.8561 40.6007 13.4629 39.8697 14.189C38.5177 15.5363 37.4475 17.2706 36.7739 19.2007C36.2244 20.7821 35.9808 22.4877 36.0715 24.1312C36.1432 25.3782 36.406 26.5821 36.8551 27.7097C36.6401 28.8228 36.4155 30.1462 36.4012 31.4648C36.3964 32.1098 36.449 32.7452 36.5541 33.352C36.6592 33.9492 36.8455 34.5559 37.1083 35.1627C37.5908 36.2663 38.3982 37.2935 39.5114 38.2108C40.4096 38.9561 41.4989 39.5533 42.7506 39.9929C43.73 40.3369 44.8098 40.5614 45.9707 40.6569C46.3004 40.6856 46.63 40.7 46.9501 40.7C47.232 40.7 47.5139 40.6904 47.791 40.6665C48.3882 40.6187 49.038 40.5232 49.7642 40.3703C49.8693 40.3512 49.9648 40.2747 50.0126 40.1696C50.5333 39.7062 51.121 39.2858 51.8042 38.894L51.7516 38.9227L51.8042 38.8892L51.8089 38.894C53.0702 38.1965 54.3745 37.7187 55.3731 37.3843C55.9273 37.198 56.4814 37.0212 57.0404 36.8492L57.2937 36.768C58.0103 36.5387 58.7221 36.3141 59.434 36.08C62.5203 35.0767 65.2388 34.1212 67.7566 33.1513C70.69 32.0238 73.5136 30.8008 76.1508 29.5204C76.2129 29.5013 76.2607 29.4726 76.3037 29.4391C77.3405 28.5218 78.1909 27.6571 78.9123 26.7876C79.7006 25.8416 80.3551 24.8049 80.8663 23.7108C81.3871 22.5928 81.7358 21.3984 81.9031 20.161C82.0416 19.1052 81.9938 18.035 81.7693 17.0604C81.5591 16.1574 81.1721 15.2974 80.6131 14.5044C80.1115 13.7925 79.4617 13.1428 78.6782 12.5838C77.9615 12.0678 77.1111 11.6283 76.146 11.2843C75.2622 10.9642 74.2732 10.7444 73.2126 10.625C72.7301 10.5724 72.2332 10.5437 71.7268 10.5437C71.6312 10.5437 71.5405 10.5437 71.4449 10.5485C71.077 10.0899 70.6709 9.65033 70.2409 9.25378C69.5004 8.57059 68.6405 7.95905 67.6802 7.4383C65.965 6.50666 63.9059 5.88079 61.5648 5.57503C60.5806 5.44125 59.5678 5.37915 58.5406 5.37915Z" fill="#100258"/>
  <path d="M48.6497 7.46596C48.2102 7.61406 47.7946 7.80994 47.3932 8.03927C47.1782 8.16348 46.9632 8.29726 46.7578 8.44058C46.5333 8.59825 46.3231 8.77024 46.1176 8.95179C45.7163 9.29578 45.3532 9.69232 45.0474 10.1271C44.7608 10.538 44.5267 10.987 44.4025 11.4791C44.3738 11.6034 44.4359 11.7419 44.5506 11.7992C44.6174 11.8327 44.6939 11.8422 44.7703 11.8184C44.8372 11.7992 44.9184 11.7419 44.9423 11.675C45.0474 11.3884 45.1669 11.1113 45.3054 10.8389C45.4535 10.5475 45.6303 10.2656 45.8166 9.99809C46.2036 9.46777 46.6527 8.99479 47.1591 8.57914C47.1496 8.58869 47.1352 8.59825 47.1257 8.6078C47.4983 8.30681 47.9044 8.04882 48.3392 7.84338C48.4634 7.78605 48.5924 7.74306 48.7166 7.69528C48.7787 7.67617 48.817 7.60928 48.7979 7.54717C48.7835 7.4994 48.7357 7.46118 48.6832 7.46118C48.6736 7.46118 48.6641 7.46118 48.6497 7.46596ZM48.344 7.83861C48.344 7.83861 48.3392 7.83861 48.3392 7.84338C48.344 7.83861 48.344 7.83861 48.344 7.83861Z" fill="#0C0144"/>
  <path d="M44.6474 11.2832C44.16 11.288 43.6823 11.374 43.2141 11.5221C42.7315 11.675 42.2729 11.8995 41.8381 12.1623C41.3795 12.4346 40.9543 12.7643 40.5482 13.113C40.123 13.4761 39.7312 13.8774 39.3633 14.2979C38.6324 15.1244 37.9969 16.0369 37.4475 16.9924C37.1991 17.4272 36.9698 17.8763 36.7691 18.3302C36.5541 18.8175 36.3726 19.3143 36.2244 19.8256C35.8422 21.1346 35.6846 22.5106 35.7276 23.877C35.7515 24.5649 35.8327 25.2529 35.9665 25.9266C36.1002 26.5906 36.3009 27.2404 36.5923 27.8519C36.5971 27.8663 36.6019 27.8806 36.6066 27.8949C36.664 28.0574 36.8264 28.1529 36.9984 28.1051C37.1561 28.0574 37.2612 27.8758 37.2086 27.7134C37.0557 27.2691 36.9124 26.8152 36.7882 26.3613C36.6544 25.8644 36.5445 25.358 36.4633 24.8516C36.3057 23.8149 36.2722 22.7638 36.3678 21.7175C36.3678 21.7414 36.363 21.7605 36.363 21.7891C36.4538 20.8384 36.6497 19.8972 36.9745 18.999L36.9698 19.0038C37.395 17.862 38.0017 16.787 38.704 15.798C39.3729 14.8664 40.1325 14.0017 41.0164 13.2659C41.0164 13.2659 41.0164 13.2659 41.0116 13.2659C41.0164 13.2611 41.0164 13.2611 41.0212 13.2611C41.0307 13.2516 41.045 13.242 41.0546 13.2325C41.0498 13.2325 41.0498 13.2372 41.0498 13.2372C41.5754 12.8168 42.1391 12.4442 42.7507 12.1671C43.1472 11.9951 43.5628 11.8613 43.9881 11.7848C44.2126 11.7514 44.4324 11.7275 44.6617 11.7275C44.7812 11.7275 44.8767 11.6176 44.8719 11.503C44.8671 11.374 44.7716 11.2832 44.6474 11.2832ZM36.965 19.0229C36.965 19.0277 36.9602 19.0372 36.9554 19.042L36.965 19.0229ZM36.4729 24.885C36.4777 24.8994 36.4777 24.9089 36.4777 24.9233C36.4729 24.9041 36.4729 24.8946 36.4729 24.885ZM36.5637 27.7755C36.5732 27.7946 36.5828 27.8185 36.5923 27.8424C36.5876 27.8233 36.5732 27.7994 36.5637 27.7755ZM41.0212 13.2516L41.0164 13.2563C41.0307 13.2468 41.0403 13.2372 41.0498 13.2277C41.0403 13.2372 41.0307 13.242 41.0212 13.2516Z" fill="#0C0144"/>
  <path d="M28.9183 6.72437C28.8896 6.72437 28.8561 6.7387 28.8323 6.76259C28.4118 7.19257 28.001 7.67989 27.5996 8.21498C27.2127 8.73096 26.8591 9.2995 26.539 9.90625C26.238 10.47 26.0039 11.072 25.8128 11.7408C25.7364 12.0084 25.679 12.3094 25.6265 12.6868C25.5835 12.9974 25.5644 13.284 25.5739 13.5563C25.5883 14.0054 25.6743 14.4784 25.8272 14.961C25.9848 15.4626 26.2285 15.9213 26.5486 16.3274C26.6871 16.4993 26.8305 16.6427 26.9881 16.7669C27.098 16.8481 27.2031 16.9293 27.3178 16.9962C27.4515 17.0727 27.5949 17.13 27.7286 17.1778C27.9197 17.2542 28.1586 17.2924 28.4262 17.2924C28.5695 17.2924 28.7128 17.2638 28.837 17.2447C28.966 17.2208 29.0855 17.1825 29.2288 17.1204C29.4725 17.0201 29.654 16.9198 29.8164 16.7956L29.9263 16.7096C29.998 16.6379 30.0458 16.5519 30.0697 16.4611C30.1127 16.313 30.0888 16.1554 30.0123 16.0264C29.9407 15.9021 29.8165 15.8066 29.6779 15.7684C29.6301 15.754 29.5823 15.7493 29.5346 15.7493C29.439 15.7493 29.3435 15.7731 29.2431 15.8257C29.1524 15.8735 29.0664 15.9165 28.9756 15.9547C28.8179 16.012 28.6889 16.0502 28.5695 16.0694C28.5122 16.0741 28.4596 16.0741 28.4071 16.0741C28.3593 16.0741 28.3115 16.0741 28.2637 16.0694C28.1682 16.0502 28.0726 16.0264 27.9771 15.9881C27.8672 15.9308 27.7573 15.8687 27.6522 15.797C27.4993 15.6728 27.356 15.5247 27.2127 15.3527C27.0263 15.0995 26.8591 14.8128 26.7158 14.4975C26.5916 14.1822 26.5008 13.8669 26.4482 13.5516C26.3814 12.9783 26.4339 12.4145 26.496 11.9367C26.5438 11.6214 26.6107 11.2918 26.711 10.9334C26.8161 10.5512 26.9451 10.1738 27.098 9.8107C27.4085 9.09884 27.8099 8.42042 28.2781 7.80888C28.5217 7.49356 28.7654 7.21646 29.0186 6.95847C29.0568 6.92025 29.0664 6.87247 29.0425 6.8247C29.0186 6.76259 28.9708 6.72437 28.9183 6.72437Z" fill="#0C0144"/>
  <path d="M28.2641 19.3232C28.1781 19.3232 28.1064 19.3806 28.0873 19.457C27.6812 21.2104 27.7146 22.7822 28.1828 24.1391C28.3118 24.5165 28.4743 24.8653 28.6654 25.171C28.7657 25.3382 28.8899 25.4959 29.0189 25.6583C29.1431 25.8064 29.2769 25.945 29.4346 26.0883C29.7451 26.3702 30.0987 26.5995 30.4761 26.7667C30.6863 26.8575 30.8965 26.934 31.102 26.9913C31.3169 27.0486 31.5606 27.0916 31.8473 27.1155C32.0718 27.1155 32.2342 26.9483 32.2772 26.7859C32.3107 26.6712 32.2916 26.547 32.2343 26.4419C32.1721 26.3368 32.0766 26.2651 31.9667 26.2364C31.5988 26.1457 31.3026 26.0501 31.0255 25.9402C30.6815 25.7873 30.3614 25.601 30.0796 25.3908C29.8168 25.1854 29.5731 24.9321 29.3247 24.6168C29.0906 24.3015 28.8899 23.9527 28.7275 23.5801C28.5316 23.0928 28.3931 22.5768 28.3214 22.0417C28.2497 21.4397 28.2497 20.8091 28.3262 20.1689C28.3548 19.9587 28.3931 19.7532 28.4408 19.543C28.4647 19.4427 28.4074 19.3471 28.3118 19.3232H28.2641Z" fill="#0C0144"/>
  <path d="M39.6649 1.67358C39.383 1.67358 39.0868 1.70703 38.7524 1.76913C38.3749 1.8408 37.9832 1.97457 37.558 2.17523C36.8557 2.50967 36.1772 3.01131 35.5514 3.67062C34.9972 4.24871 34.5576 4.94624 34.2662 5.68677C34.2471 5.73455 34.2518 5.7871 34.2757 5.83966C34.3092 5.90176 34.3665 5.95431 34.4286 5.96865C34.4477 5.97342 34.4668 5.9782 34.4907 5.9782C34.5863 5.9782 34.6723 5.91609 34.7105 5.80621C34.8538 5.45744 35.0449 5.12779 35.2934 4.79336C35.5896 4.41115 35.9383 4.06238 36.3397 3.75184C36.7314 3.46518 37.1614 3.21675 37.6296 3.01609C38.0692 2.8441 38.5182 2.71988 38.9673 2.65299C39.1298 2.63388 39.2874 2.62432 39.4499 2.62432C39.598 2.62432 39.7461 2.6291 39.8894 2.64821C40.1617 2.68643 40.4484 2.7581 40.7398 2.86799C41.0552 3.00654 41.3705 3.18808 41.6954 3.43174L41.7766 3.48908C41.8435 3.5273 41.9247 3.55118 42.0059 3.55118C42.1253 3.55118 42.2448 3.5034 42.326 3.41741C42.5028 3.24064 42.498 2.95876 42.326 2.77243C42.0155 2.45234 41.6571 2.19434 41.2558 2.01279C41.0504 1.91724 40.8401 1.84558 40.6347 1.79302C40.4054 1.73569 40.1665 1.70702 39.9897 1.69269C39.8751 1.67836 39.77 1.67358 39.6649 1.67358Z" fill="#0C0144"/>
  <path d="M40.036 4.39233H39.9357C39.8354 4.39233 39.7542 4.47833 39.7542 4.57866C39.7542 4.67899 39.8354 4.7602 39.9357 4.7602H40.0121C40.1555 4.7602 40.2988 4.76976 40.4469 4.78409C40.7049 4.82231 40.9581 4.8892 41.2161 4.98953L41.2686 5.00864C41.5649 5.14719 41.8372 5.31441 42.0904 5.49596C42.4344 5.77306 42.7258 6.05971 42.9742 6.37981C43.2322 6.7238 43.4568 7.12035 43.6431 7.56466C43.71 7.73188 43.7673 7.90387 43.8199 8.07109C43.8486 8.16186 43.8724 8.24786 43.8915 8.33863L43.9107 8.40074C43.9298 8.48196 43.9536 8.56318 43.9823 8.64918C44.0492 8.86417 44.2355 9.0075 44.4505 9.0075C44.5748 9.0075 44.699 8.95495 44.7897 8.86417C44.8662 8.78773 44.9426 8.64918 44.9331 8.52496C44.9139 8.35774 44.8901 8.21441 44.8566 8.07586C44.8232 7.94687 44.7754 7.81787 44.7276 7.69365C44.6082 7.38311 44.4744 7.11079 44.3215 6.86236C44.0253 6.37982 43.6192 5.91161 43.1462 5.51985C42.7019 5.1472 42.1955 4.86054 41.6365 4.66465C41.1444 4.4831 40.5902 4.39233 40.036 4.39233Z" fill="#0C0144"/>
  <path d="M77.1255 20.2354C77.0108 20.2401 76.9009 20.2449 76.791 20.264C76.6668 20.2831 76.5378 20.3166 76.4184 20.3452C75.7782 20.5268 75.1714 20.8469 74.6602 21.1383C74.3162 21.339 73.977 21.5492 73.6378 21.7642L73.5805 21.8024C73.332 21.9601 73.0836 22.1177 72.8447 22.2945C72.3288 22.6671 71.8271 23.0924 71.3589 23.5558C70.8764 24.0335 70.4177 24.5591 69.9973 25.1133C69.5768 25.6675 69.1803 26.2742 68.8124 26.9049C67.8378 28.5914 67.0543 30.555 66.4762 32.7431C66.3997 33.0489 66.3137 33.3833 66.2373 33.7225C66.7581 33.541 67.2597 33.3546 67.7518 33.1635C70.6757 32.0408 73.4945 30.8225 76.1174 29.5469C76.5283 28.1709 76.963 26.6994 77.3596 25.1849C77.4838 24.7072 77.6128 24.1912 77.737 23.68C77.7848 23.4793 77.8373 23.2835 77.8899 23.0828L77.9472 22.8583C78.0762 22.3518 78.21 21.8454 78.2148 21.3199C78.21 21.1527 78.1957 21.0141 78.1622 20.8803C78.1383 20.7991 78.1049 20.7227 78.0667 20.6462C78.0332 20.5937 77.9998 20.5507 77.9615 20.5077C77.9281 20.4742 77.866 20.4265 77.8087 20.3882C77.7227 20.3405 77.6367 20.307 77.5459 20.2831C77.3978 20.2497 77.2592 20.2401 77.1255 20.2354Z" fill="#0C0144"/>
  <path d="M39.2678 17.3367C39.2153 17.3367 39.1675 17.3653 39.1388 17.4131C38.9812 17.6998 38.7757 18.082 38.6037 18.4881C38.4461 18.8559 38.3028 19.2573 38.1785 19.6825C37.9397 20.4803 37.7772 21.3164 37.6912 22.1716C37.653 22.5873 37.6626 23.0029 37.6769 23.4281C37.696 23.882 37.7342 24.3215 37.8011 24.7276C37.8632 25.1289 37.9588 25.5398 38.0782 25.9602C38.212 26.4237 38.3696 26.825 38.5655 27.1785C38.6372 27.3027 38.7853 27.384 38.9525 27.384C39.0051 27.384 39.048 27.3792 39.0863 27.3649C39.1961 27.3266 39.2917 27.2454 39.3491 27.1355C39.4064 27.0256 39.4159 26.9062 39.3777 26.7915C39.3395 26.6864 39.306 26.5766 39.2678 26.4714L39.2057 26.2851C39.1054 26.008 39.0098 25.7309 38.9238 25.4443C38.7996 25.0382 38.6993 24.613 38.599 24.1065C38.5034 23.581 38.4413 23.0507 38.4222 22.5347C38.4031 22.0378 38.384 21.455 38.427 20.896C38.4604 20.5138 38.5177 20.1363 38.5942 19.7732C38.6754 19.3958 38.7805 19.0184 38.9143 18.641C39.0863 18.1727 39.2344 17.8431 39.3968 17.5469C39.4159 17.5182 39.4207 17.4752 39.4064 17.4418C39.3921 17.4036 39.3682 17.3701 39.3347 17.3558C39.3156 17.3414 39.2917 17.3367 39.2678 17.3367Z" fill="#0C0144"/>
  <path d="M58.0823 6.79736C57.638 6.79736 57.1555 6.81647 56.649 6.84992C56.0996 6.89292 55.5502 6.96935 55.0867 7.04102C54.5469 7.12702 54.0596 7.22734 53.5914 7.35156C52.913 7.52355 52.2298 7.75288 51.5513 8.0252C50.8872 8.29275 50.2996 8.58418 49.7502 8.91861C49.4301 9.11449 49.1386 9.32949 48.895 9.51104C48.6466 9.69736 48.3933 9.91713 48.1401 10.1512C47.9347 10.3519 47.7245 10.5812 47.5238 10.8344C47.4044 10.9873 47.2849 11.1402 47.175 11.3026C47.1177 11.3886 47.0604 11.4794 47.0078 11.5702L46.9218 11.7135C46.8454 11.8377 46.8215 11.9858 46.8597 12.1387C46.8932 12.2868 46.9887 12.4158 47.1177 12.497C47.2037 12.5496 47.304 12.5783 47.4044 12.5783C47.605 12.5783 47.7914 12.4731 47.8965 12.3012C48.0111 12.1196 48.1497 11.9428 48.2691 11.7947C48.766 11.1736 49.3393 10.6147 49.9747 10.1274C50.3904 9.82158 50.8204 9.53971 51.2599 9.29127C51.7138 9.03328 52.2202 8.79439 52.8461 8.54596L52.7219 8.57463C53.4958 8.28797 54.3032 8.07298 54.9195 7.91532C55.5693 7.75288 56.2668 7.62866 57.1125 7.53311C57.9247 7.44711 58.7177 7.39934 59.4678 7.39934C60.3421 7.39934 61.1925 7.46145 61.9952 7.58089C63.0606 7.74811 63.9922 8.01087 64.8426 8.37397L64.9047 8.40264C64.9286 8.41219 64.9525 8.42174 64.9764 8.42174C65.0194 8.42174 65.0576 8.39785 65.0815 8.35963C65.1006 8.32619 65.1054 8.2832 65.0911 8.24498C65.0815 8.21153 65.0624 8.19242 65.0385 8.18286C63.5001 7.49011 61.699 7.05057 59.6828 6.86902C59.1525 6.82125 58.6126 6.79736 58.0823 6.79736Z" fill="#0C0144"/>
  <path d="M50.4954 40.5918C50.4572 40.5918 50.4286 40.5966 50.3999 40.6061C50.3043 40.63 50.2183 40.7065 50.1706 40.802C50.1276 40.8832 50.118 40.974 50.1515 41.0552C50.3474 41.6046 50.4907 42.1971 50.5767 42.8086C50.6866 43.702 50.6866 44.5763 50.5719 45.4411C50.462 46.215 50.2613 46.9508 49.9842 47.6292C49.7454 48.1882 49.4539 48.6994 49.11 49.1532C48.8233 49.5163 48.5032 49.8412 48.1544 50.1231C47.9394 50.2855 47.7149 50.4336 47.4808 50.5674C47.3613 50.6343 47.2945 50.7681 47.304 50.9066C47.2276 50.9926 47.1989 51.1168 47.2228 51.2411C47.6623 53.3575 48.8376 55.3833 50.5337 56.9407C51.3602 57.7052 52.2918 58.3262 53.2999 58.7992C53.8063 59.0333 54.3319 59.2292 54.867 59.3773C55.3686 59.5206 55.9228 59.621 56.5105 59.6735C56.7637 59.6974 57.0217 59.707 57.2796 59.707C58.0727 59.707 58.8754 59.5923 59.6637 59.3725C60.7243 59.0716 61.6512 58.503 62.3344 57.7338C62.9937 56.9933 63.4332 56.0425 63.5765 55.0488C63.6482 54.528 63.6482 53.993 63.5765 53.4627C63.5049 52.9467 63.352 52.4259 63.1226 51.8765C63.1083 51.8478 63.0892 51.8192 63.0605 51.7905C63.0128 51.7093 62.9363 51.6567 62.8551 51.6424C62.6162 51.5946 62.3821 51.5277 62.1671 51.4417C61.9951 51.3605 61.8231 51.2602 61.6607 51.1455C61.5126 51.0213 61.374 50.8875 61.2498 50.7346C61.0969 50.534 60.9679 50.3094 60.8533 50.0514C60.71 49.6931 60.6096 49.3014 60.5428 48.8523L60.5284 48.7854H60.5236C60.366 47.4524 60.538 46.0765 60.6956 44.7435L60.7434 44.3422C60.753 44.2466 60.6956 44.1416 60.6383 44.0842C60.5714 44.0173 60.4806 43.9791 60.3851 43.9791C60.2895 43.9791 60.194 44.0173 60.1271 44.0842C60.0554 44.1559 60.0315 44.2371 60.022 44.3422L60.0172 44.3948C59.9981 44.5572 59.979 44.7244 59.9599 44.8869C59.8022 44.6002 59.6063 44.3135 59.3627 44.0126C58.8324 43.3533 58.1444 42.7465 57.3083 42.2066C56.4866 41.6763 55.6409 41.3132 54.7953 41.1269C54.4131 41.0409 54.0404 40.9979 53.6821 40.9979C53.19 40.9979 52.7362 41.0791 52.3301 41.2415C52.1867 41.2989 52.0482 41.361 51.9144 41.4422C51.7711 41.5187 51.6421 41.6142 51.494 41.7336C51.3793 41.8244 51.2742 41.9247 51.1786 42.0251C51.1022 41.6238 50.9923 41.2272 50.8538 40.8498C50.8203 40.7494 50.7678 40.6778 50.6866 40.6348C50.6245 40.6109 50.5576 40.5918 50.4954 40.5918Z" fill="#FFDECD"/>
  <path d="M50.3938 40.6026C50.2983 40.6265 50.2075 40.7029 50.1549 40.7985C50.1072 40.8845 50.1024 40.9753 50.1358 41.0565C50.217 41.2906 50.2887 41.5247 50.3556 41.7683C50.3843 41.84 50.4177 41.9117 50.4512 41.9786C50.6279 42.3608 50.8238 42.7334 51.0388 43.0917C51.034 43.087 51.034 43.0822 51.034 43.0822C51.0388 43.087 51.0436 43.0917 51.0436 43.0965C51.0436 43.0965 51.0484 43.1013 51.0484 43.1061C51.6456 44.0807 52.3765 44.9693 53.2031 45.7624C53.1983 45.7576 53.1887 45.7529 53.1839 45.7481C54.063 46.5842 55.0472 47.3056 56.1174 47.8885C56.1078 47.8837 56.0983 47.8789 56.0887 47.8741C56.5378 48.113 56.9964 48.3328 57.4742 48.5143C57.9281 48.6863 58.3963 48.8344 58.8741 48.9443H58.8693C59.2419 49.0303 59.6194 49.0972 59.9968 49.1306C60.2022 49.1497 60.4077 49.1641 60.6131 49.1688C60.594 49.0685 60.5749 48.9634 60.5605 48.8583L60.5414 48.7914C60.3838 47.4585 60.551 46.0873 60.7134 44.7591L60.766 44.353C60.7755 44.2527 60.7134 44.1476 60.6561 44.0855C60.5892 44.0186 60.4937 43.9804 60.3933 43.9804C60.2978 43.9804 60.2022 44.0186 60.1306 44.0855C60.0589 44.1619 60.035 44.2479 60.0207 44.3482L60.0159 44.4008C60.0016 44.5107 59.9872 44.6206 59.9777 44.7305L59.9586 44.8881C59.8296 44.6158 59.6337 44.3244 59.3757 44.009C58.8454 43.345 58.1526 42.7382 57.3213 42.2031C56.5044 41.6728 55.6587 41.3049 54.8083 41.1186C54.4261 41.0326 54.0487 40.9944 53.6904 40.9944C53.1983 40.9944 52.7396 41.0756 52.3335 41.238C52.1902 41.2954 52.0517 41.3575 51.9179 41.4387C51.765 41.5199 51.6264 41.625 51.4927 41.7301C51.378 41.8209 51.2729 41.9165 51.1726 42.0263C51.12 41.6537 51.0149 41.2571 50.8668 40.851C50.8286 40.7507 50.776 40.6791 50.6996 40.6313C50.6422 40.5978 50.5754 40.5835 50.5085 40.5835C50.4559 40.5835 50.4273 40.5883 50.3938 40.6026Z" fill="#FFCCB1"/>
  <path d="M51.05 43.1167C51.05 43.1067 51.04 43.1067 51.04 43.1067C51.05 43.1067 51.05 43.1167 51.05 43.1167Z" fill="#FFCCB1"/>
  <path d="M75.2435 26.3655C75.1623 26.3655 75.0859 26.3703 75.0094 26.375C74.6272 26.4085 74.2689 26.5231 73.9392 26.719C73.8437 26.7716 73.7529 26.8385 73.6574 26.9054C73.643 26.8815 73.5857 26.8671 73.5236 26.8671C73.4233 26.8671 73.3277 26.9053 73.256 26.977C72.8786 27.3831 72.5872 27.8991 72.3483 28.6157C72.1381 29.2273 71.9995 29.9296 71.9231 30.7609C71.861 31.5014 71.8753 32.2467 71.9661 32.9681C72.0712 33.7517 72.248 34.4062 72.5107 34.9652C72.6971 35.3713 73.0315 35.9111 73.5857 36.1978C73.8198 36.3268 74.0921 36.3984 74.3883 36.408C74.675 36.408 74.9521 36.3459 75.2483 36.2217C75.5684 36.0879 75.879 35.9016 76.2468 35.6149C76.6243 35.3187 76.973 34.9413 77.3218 34.4587C77.6228 34.0431 77.8808 33.551 78.1149 32.9586C78.3155 32.4569 78.4589 31.8932 78.5401 31.2769C78.6452 30.4073 78.5831 29.5808 78.3442 28.8164C78.2295 28.4151 78.0575 28.0615 77.8425 27.7605C77.6371 27.4643 77.3696 27.2016 77.0304 26.9531C76.7628 26.762 76.4475 26.6091 76.0892 26.4993C75.8168 26.4133 75.5254 26.3655 75.2435 26.3655Z" fill="#FFCCB1"/>
  <path d="M76.3325 28.0078C76.2322 28.0078 76.1271 28.0126 76.0268 28.0269C75.8165 28.0508 75.6063 28.1129 75.4678 28.1559C75.1286 28.2658 74.7846 28.4617 74.4358 28.7436C74.2543 28.8917 74.0966 29.0589 73.9915 29.1735C73.872 29.3025 73.7478 29.4554 73.6045 29.6561C73.3513 30.0096 73.1506 30.3727 73.0169 30.7358C72.993 30.8027 72.993 30.8792 73.0217 30.9413C73.0503 31.0034 73.1029 31.0559 73.1698 31.0798C73.1984 31.0941 73.2319 31.0989 73.2653 31.0989C73.3035 31.0989 73.337 31.0894 73.3704 31.075C73.4325 31.0511 73.4755 31.0034 73.5137 30.9269C73.5711 30.8075 73.6332 30.6928 73.6953 30.5782C73.9724 30.0908 74.2686 29.68 74.603 29.3312C74.8515 29.0828 75.0951 28.8773 75.3579 28.7149C75.5442 28.6098 75.7353 28.5238 75.9217 28.4665C76.0507 28.4378 76.1797 28.4187 76.3134 28.4091C76.4042 28.4091 76.4806 28.4139 76.5618 28.4187C76.6765 28.4187 76.7673 28.3422 76.7768 28.2419C76.7816 28.1894 76.7625 28.1368 76.7291 28.0986C76.6956 28.0556 76.6478 28.0317 76.5953 28.0269C76.5141 28.0126 76.4233 28.0078 76.3325 28.0078Z" fill="#E2895B"/>
  <path d="M61.7559 12.9783C61.4788 12.9783 61.197 12.9831 60.9199 12.9974C59.6586 13.0452 58.4308 13.2076 57.265 13.4799C54.7329 14.0628 52.5065 15.2046 50.8344 16.7812C49.9839 17.5839 49.2147 18.5537 48.5554 19.6717C47.9343 20.7228 47.4375 21.8789 47.0648 23.1163C46.482 25.0704 46.2813 27.0722 46.4724 29.0788C45.5647 28.5103 44.59 28.214 43.6632 28.214C43.5724 28.214 43.4768 28.2188 43.3861 28.2236C42.9179 28.257 42.421 28.3813 41.8668 28.6106C41.518 28.7539 41.1836 28.9498 40.8444 29.203C40.5816 29.3989 40.338 29.6521 40.0943 29.9674C39.908 30.2159 39.7503 30.5025 39.6022 30.8656C39.3681 31.4437 39.2678 32.1412 39.3156 32.8722C39.4111 34.3007 39.994 35.734 41.0116 37.0144C41.4894 37.6116 42.0531 38.1323 42.6886 38.5576C43.324 38.978 44.0263 39.2694 44.7286 39.3984C45.0296 39.4557 45.3353 39.4844 45.6363 39.4844C45.9899 39.4844 46.3482 39.4462 46.6969 39.3698C47.4136 40.3396 48.2258 41.2426 49.1049 42.0404C50.0269 42.8813 51.0541 43.6361 52.153 44.2859C53.2232 44.9213 54.3793 45.4469 55.5976 45.8577C56.6439 46.2113 57.7667 46.4597 58.9372 46.6078C59.6299 46.6938 60.3465 46.7368 61.0584 46.7368C62.3245 46.7368 63.6096 46.603 64.8805 46.3355C66.8966 45.9103 68.779 45.1315 70.3174 44.0757C71.9896 42.9338 73.2843 41.4289 74.063 39.7281C74.2733 39.2694 74.45 38.7917 74.5934 38.2948C74.7558 37.7406 74.8752 37.1195 74.9565 36.3981C75.1237 34.8979 74.9995 33.4025 74.8466 31.8785L74.7893 31.3243C74.665 30.1108 74.5312 28.859 74.536 27.6216C74.536 27.077 74.5647 26.5228 74.5886 25.9877L74.6077 25.6246L74.6172 25.3666C74.6459 24.7646 74.6746 24.1626 74.6889 23.5607C74.7367 21.9745 74.6937 20.6989 74.5504 19.5427C74.4596 18.8404 74.3306 18.162 74.1586 17.5265C73.9866 16.8816 73.7525 16.2414 73.442 15.5582C73.4037 15.4722 73.3034 15.4148 73.227 15.391C73.1935 15.3814 73.1601 15.3766 73.1314 15.3766C73.0932 15.3766 73.055 15.3814 73.0215 15.3957C72.8734 15.3527 72.7206 15.2954 72.5533 15.219C72.4148 15.1521 72.281 15.0804 72.1472 15.0088C71.9991 14.9323 71.8558 14.8511 71.7077 14.7794C71.4067 14.6313 71.1009 14.5167 70.733 14.3829C70.1454 14.1727 69.5052 13.9863 68.7695 13.8144C67.5464 13.5229 66.2373 13.3175 64.6512 13.155C63.5762 13.0308 62.6302 12.9783 61.7559 12.9783Z" fill="#FFDECD"/>
  <path d="M43.9501 30.5267C43.9167 30.5841 43.8785 30.6318 43.845 30.6892C43.8068 30.7417 43.7829 30.8038 43.7495 30.8612C43.673 31.0093 43.6109 31.1717 43.5631 31.3294C43.4533 31.6543 43.4055 31.9982 43.3768 32.3327C43.31 33.0254 43.3864 33.7325 43.5584 34.4014C43.7256 35.0655 44.017 35.7009 44.4088 36.2646C44.7671 36.7806 45.2401 37.244 45.7991 37.5403C45.8899 37.588 46.0093 37.5642 46.0618 37.4734C46.1144 37.3826 46.0857 37.2584 45.995 37.2058C45.866 37.1389 45.7465 37.0625 45.6319 36.9765C45.4694 36.8427 45.3213 36.6946 45.1875 36.5322C44.9725 36.2455 44.7958 35.935 44.6572 35.6101C44.4327 35.0607 44.2941 34.4826 44.2129 33.895C44.1413 33.3025 44.1317 32.7053 44.2081 32.1129C44.2034 32.1463 44.1986 32.1846 44.1938 32.218C44.2272 31.9696 44.2798 31.7307 44.3419 31.487C44.3992 31.2912 44.4661 31.1001 44.5426 30.909C44.5474 30.8994 44.5521 30.8898 44.5569 30.8803C44.6477 30.7131 44.5999 30.4981 44.4327 30.4025C44.3801 30.3691 44.318 30.3547 44.2559 30.3547C44.1365 30.35 44.017 30.4121 43.9501 30.5267ZM45.1684 36.5035C45.1732 36.5083 45.178 36.5178 45.1828 36.5226C45.178 36.5178 45.1732 36.5131 45.1684 36.5035ZM45.608 36.9574C45.6175 36.9622 45.6223 36.9669 45.6319 36.9717C45.6223 36.9669 45.6127 36.9622 45.608 36.9574ZM45.6319 36.9717C45.6366 36.9765 45.6414 36.9813 45.6462 36.9861L45.6319 36.9717Z" fill="#FFCCB1"/>
  <path d="M42.7025 30.2158C42.4971 30.2493 42.2964 30.3019 42.1005 30.364C41.9238 30.4213 41.7518 30.4882 41.5846 30.5646C41.4078 30.6411 41.2406 30.7462 41.0782 30.8465C40.7724 31.0424 40.4953 31.3051 40.3042 31.6109C40.2707 31.6635 40.2707 31.7351 40.3281 31.7781C40.3758 31.8163 40.4618 31.8116 40.4953 31.7542C40.5622 31.6491 40.6386 31.5584 40.7198 31.4676C40.8345 31.3577 40.9587 31.2621 41.0877 31.1809C41.1832 31.1236 41.2836 31.071 41.3887 31.0233C41.5081 30.9707 41.6419 30.9277 41.7709 30.8895C42.048 30.8178 42.3299 30.7844 42.6165 30.7701C42.9796 30.7653 43.3332 30.8035 43.6867 30.8895C43.8253 30.9277 43.9591 30.9755 44.0928 31.0233C44.2648 31.0902 44.4607 31.0089 44.5324 30.8369C44.5658 30.7509 44.5658 30.6554 44.5324 30.5742C44.4941 30.4882 44.432 30.4404 44.3508 30.3974C44.2887 30.364 44.2266 30.3353 44.1549 30.3066C44.0594 30.2684 43.9543 30.2493 43.8539 30.2254C43.6676 30.1824 43.4717 30.1729 43.2758 30.1729C43.08 30.1729 42.8936 30.1872 42.7025 30.2158Z" fill="#FFCCB1"/>
  <path d="M29.5552 54.2811C26.7508 54.5152 24.018 55.012 21.4429 55.7573C20.1959 56.1157 18.949 56.5504 17.7116 57.0568C17.3198 57.2432 16.928 57.4343 16.5411 57.6397C16.5411 57.6397 16.5458 57.6397 16.5506 57.6397C15.4661 58.213 14.415 58.8532 13.4261 59.5746C13.192 59.7418 12.9674 59.9186 12.7381 60.0954C12.203 60.5445 11.7109 61.0222 11.257 61.5191C10.7076 62.1211 10.206 62.8234 9.66609 63.7359C9.24566 64.443 8.85869 65.2218 8.48126 66.1104C7.81239 67.6822 7.27252 69.4452 6.87598 71.3562C6.52244 73.0714 6.30267 74.9203 6.22145 76.8504C6.18801 77.7152 6.18322 78.6229 6.21667 79.5354C6.24533 80.3237 6.31223 81.1503 6.41733 82.1392C6.61321 83.9356 6.89508 85.7368 7.24385 87.4902C7.96049 91.0925 9.02589 94.4702 10.4114 97.5422C11.1328 99.1379 11.9593 100.681 12.8671 102.129C13.7653 103.567 14.8163 104.99 15.9869 106.371C17.1287 107.719 18.4234 109.018 19.8328 110.236C20.6832 110.972 21.6149 111.693 22.6755 112.444C24.964 114.058 27.391 115.473 29.8849 116.657C31.2608 117.312 32.6559 117.885 34.0414 118.358C35.4842 118.855 36.9032 119.223 38.2648 119.457C39.3398 119.639 40.3717 119.734 41.3416 119.734C43.0902 119.734 44.6763 119.433 46.0523 118.836C47.2276 118.325 48.2834 117.584 49.1768 116.629C49.688 116.084 50.1323 115.473 50.4907 114.813C50.849 114.159 51.15 113.385 51.408 112.448C51.8571 110.833 52.0386 109.185 52.1676 107.193C52.2249 106.338 52.2632 105.483 52.3014 104.623C52.3444 103.615 52.3492 102.563 52.3205 101.407C52.2249 97.6521 51.6946 93.5242 50.6627 88.4313C50.29 86.5872 49.8361 84.571 49.2389 82.0819C48.8806 80.6009 48.5223 79.1246 48.1497 77.6435C47.2658 74.1176 46.487 71.4613 45.6366 69.02C45.1015 67.4768 44.5091 66.0053 43.888 64.6341C43.2096 63.1435 42.5025 61.8153 41.7238 60.5827C40.1472 58.0793 38.3412 56.1634 36.3538 54.8783L36.4636 54.8926C36.8172 54.9069 37.166 54.9308 37.5195 54.9499L38.1788 54.9881C38.2839 54.9881 38.3747 54.9308 38.432 54.8687C38.4989 54.797 38.5323 54.7015 38.5228 54.6059C38.518 54.5104 38.475 54.4196 38.4033 54.3527C38.3269 54.2811 38.2409 54.2667 38.1454 54.2572L37.5816 54.2237C37.0274 54.1903 36.4684 54.1568 35.9142 54.133C35.2024 54.1091 34.4809 54.0947 33.7739 54.0947C32.3358 54.1043 30.9216 54.1664 29.5552 54.2811Z" fill="#62619A"/>
  <path d="M80.7839 103.476C77.0383 103.476 73.3213 103.538 69.7238 103.658C69.6187 103.662 69.5375 103.677 69.461 103.739C69.3846 103.801 69.3368 103.892 69.332 103.992C69.3225 104.083 69.3559 104.178 69.4133 104.255C69.4324 104.274 69.4467 104.293 69.4658 104.303C69.3368 104.341 69.2078 104.384 69.0788 104.432C68.4721 104.661 67.8701 104.967 67.292 105.339C66.7617 105.679 66.26 106.113 65.8062 106.625C65.4287 107.05 65.0847 107.575 64.7312 108.278C64.1961 109.333 63.8808 110.58 63.8187 111.88C63.7661 113.055 63.9238 114.321 64.2964 115.635C64.6404 116.849 65.1421 118.057 65.8301 119.333C66.4464 120.47 67.206 121.621 68.0851 122.763C68.8782 123.786 69.762 124.775 70.7175 125.706C71.6014 126.571 72.5139 127.345 73.4264 128.004C74.4249 128.726 75.4999 129.404 76.7134 130.073C79.0162 131.344 81.6009 132.433 84.3862 133.322C87.0904 134.182 89.9569 134.831 92.9095 135.252C95.2696 135.586 97.6393 135.758 99.9469 135.758C100.487 135.758 101.022 135.749 101.562 135.73C104.452 135.634 107.166 135.261 109.636 134.631C110.935 134.296 112.197 133.885 113.377 133.403C114.59 132.916 115.508 132.409 116.267 131.812C116.63 131.525 116.965 131.186 117.261 130.814C117.524 130.479 117.748 130.087 117.92 129.648C118.25 128.826 118.336 127.861 118.188 126.705C118.116 126.155 117.987 125.577 117.772 124.88C117.567 124.201 117.309 123.494 116.936 122.591C116.315 121.086 115.555 119.572 114.609 117.967C113.788 116.562 112.851 115.148 111.752 113.643C111.26 112.964 110.735 112.276 110.195 111.593C109.674 110.929 109.187 110.356 108.719 109.845C107.768 108.813 106.76 107.905 105.723 107.155C104.753 106.448 103.669 105.841 102.503 105.349C100.434 104.475 98.0167 103.968 94.9065 103.768C94.1373 103.715 93.3586 103.691 92.5989 103.667L92.4508 103.662C91.4905 103.634 90.5302 103.605 89.5652 103.581C87.6541 103.533 85.7096 103.5 83.7938 103.486C82.7953 103.481 81.792 103.476 80.7839 103.476Z" fill="#0C0144"/>
  <path d="M64.9087 107.76C64.3258 107.76 63.7382 107.765 63.1553 107.78C60.7808 107.827 58.6739 107.966 56.7199 108.21C54.4649 108.491 52.5204 108.912 50.7718 109.495C48.856 110.135 47.3606 110.947 46.2092 111.97C45.5976 112.514 45.0912 113.121 44.7138 113.775C44.5179 114.115 44.3459 114.478 44.2074 114.855C44.0784 115.209 43.978 115.601 43.8968 116.045C43.7535 116.843 43.7535 117.746 43.8968 118.72C44.0401 119.709 44.3411 120.756 44.8141 121.912C45.3396 123.192 46.0706 124.401 46.9927 125.5C47.8192 126.484 48.8369 127.401 50.0265 128.228C51.0775 128.959 52.2767 129.613 53.6814 130.22C54.8805 130.741 56.2039 131.195 57.7136 131.61C60.6948 132.432 63.7382 132.872 66.0505 133.163C73.3937 134.085 81.1764 134.601 90.5405 134.773C92.7573 134.816 95.1366 134.835 98.0223 134.84H98.3328H98.6433C99.0542 134.84 99.4603 134.84 99.8712 134.835C100.526 134.826 101.18 134.807 101.835 134.787L102.05 134.783C102.991 134.754 103.966 134.725 104.926 134.725C105.16 134.725 105.394 134.725 105.628 134.73H105.633C105.686 134.73 105.733 134.721 105.776 134.706C105.805 134.716 105.834 134.716 105.862 134.716C105.881 134.716 105.901 134.716 105.92 134.711C106.116 134.678 106.245 134.496 106.216 134.291C106.039 133.067 105.896 131.806 105.757 130.583C105.275 126.293 104.773 121.859 102.661 117.975C102.169 117.067 101.591 116.203 100.946 115.414C100.344 114.674 99.6371 113.967 98.8536 113.317C97.4203 112.118 95.686 111.138 93.6985 110.398C91.8209 109.7 89.7331 109.237 87.1341 108.941C84.0525 108.587 80.9519 108.506 77.7795 108.444L76.8623 108.429C75.9402 108.415 75.0181 108.396 74.096 108.372C74.0721 108.205 73.9336 108.076 73.7712 108.066L73.1931 108.038C71.841 107.966 70.4889 107.894 69.1369 107.842C67.6128 107.789 66.2321 107.76 64.9087 107.76Z" fill="#100258"/>
  <path d="M62.7071 50.5884C62.3965 50.5884 62.086 50.6075 61.7802 50.6457C61.6799 50.6553 61.5987 50.6792 61.527 50.7556C61.4601 50.8273 61.4219 50.918 61.4219 51.0136C61.4219 51.1091 61.4649 51.1999 61.5318 51.2668C61.5509 51.2859 61.57 51.3003 61.5891 51.3146C61.5748 51.4101 61.6082 51.4961 61.6417 51.5678C61.7372 51.7446 61.8328 51.9213 61.9235 52.1029C62.4682 53.2304 62.9268 54.5395 63.3568 56.1973C63.6674 57.3869 63.9206 58.61 64.1642 59.7948L64.3267 60.5736C64.47 61.2472 64.6229 61.9686 64.7996 62.6948C64.9525 63.3111 65.115 63.9274 65.2822 64.539L65.416 65.0263C65.9415 66.9708 66.3906 68.5522 66.8206 70.0046C67.8812 73.5878 68.9705 76.7314 70.141 79.6123C71.4405 82.8181 72.9072 85.8184 74.5029 88.5416C75.4298 90.1278 76.5716 91.7331 77.8998 93.3192C79.5242 95.2589 81.1104 96.7782 82.7491 97.9678C83.6855 98.6463 84.5789 99.1766 85.4866 99.5779C86.4517 100.008 87.3977 100.266 88.3102 100.357C88.5443 100.381 88.7784 100.39 89.0125 100.39C89.753 100.39 90.4745 100.275 91.1624 100.041C91.6115 99.8884 92.0797 99.6687 92.548 99.3868C92.9827 99.124 93.4031 98.7991 93.8809 98.3644C94.5306 97.772 95.1183 97.0171 95.6868 96.0616C96.2172 95.1682 96.671 94.1505 97.0293 93.0421C97.3877 91.9385 97.5979 90.8158 97.6552 89.7026C97.7125 88.556 97.5596 87.4954 97.2013 86.5494C96.8812 85.699 96.3461 84.9346 95.663 84.3374C95.6104 84.2752 95.5674 84.237 95.5101 84.1988C95.1804 83.9695 94.8508 83.7306 94.5259 83.4917C93.0018 82.3451 91.4491 81.0026 89.6336 79.254C88.8071 78.4609 88.1239 77.7873 87.4646 77.0658C86.8435 76.3874 86.2176 75.6469 85.5535 74.8013C83.5517 72.2213 81.8031 69.4026 80.1118 66.6746C79.0273 64.926 77.9094 63.12 76.7341 61.3953C75.253 59.2215 73.8389 57.4347 72.4056 55.9297C71.5456 55.0268 70.6618 54.2194 69.7827 53.5218C68.765 52.7144 67.7904 52.0885 66.7967 51.606C65.4064 50.9324 64.0304 50.5884 62.7071 50.5884Z" fill="#FFB40F"/>
  <path d="M62.0797 50.7216C61.9937 50.7264 61.8982 50.7933 61.8456 50.8602C61.7883 50.9366 61.7644 51.037 61.7787 51.1325C61.7931 51.2233 61.8408 51.3093 61.9173 51.3618C62.0033 51.4239 62.0893 51.4335 62.1896 51.4287C62.3186 51.4239 62.4476 51.4192 62.5766 51.4192H62.5575C62.567 51.4192 62.5814 51.4192 62.5957 51.4192H62.653C62.6483 51.4192 62.6387 51.4192 62.6339 51.4192C62.8537 51.4144 63.0782 51.4144 63.298 51.4144C63.3983 51.4144 63.4796 51.4048 63.5608 51.338C63.6372 51.2806 63.685 51.1898 63.6993 51.0943C63.7089 51.0035 63.6802 50.908 63.6229 50.8363C63.5703 50.7694 63.47 50.6978 63.3792 50.6978C62.9445 50.6978 62.5097 50.7073 62.0797 50.7216ZM62.5957 51.4192C62.5909 51.4192 62.5814 51.4192 62.5766 51.4192C62.5957 51.4192 62.6148 51.4192 62.6339 51.4192C62.6196 51.4192 62.6053 51.4192 62.5957 51.4192Z" fill="#FFB40F"/>
  <path d="M61.9857 50.6298C61.8902 50.6298 61.8042 50.6394 61.7278 50.7063C61.6513 50.7636 61.6035 50.8544 61.5892 50.9499C61.5797 51.0407 61.6083 51.1362 61.6656 51.2079C61.7182 51.2748 61.8185 51.3464 61.9093 51.3464C62.368 51.3417 62.8266 51.3369 63.2853 51.3464C63.3808 51.3464 63.4668 51.3321 63.548 51.2748C63.6245 51.2175 63.6723 51.1267 63.6818 51.0311C63.7009 50.8496 63.5623 50.6394 63.3665 50.6346C63.1658 50.6298 62.9604 50.6298 62.7597 50.6298C62.5017 50.625 62.2437 50.6298 61.9857 50.6298Z" fill="#FFB40F"/>
  <path d="M61.7453 50.5886C61.5494 50.603 61.4156 50.8132 61.4443 50.9947C61.4586 51.0855 61.5064 51.1715 61.5828 51.2288C61.6641 51.2909 61.7548 51.3053 61.8504 51.2957C62.0176 51.2862 62.1848 51.2766 62.352 51.2718C62.653 51.267 62.954 51.2766 63.255 51.3053C63.4509 51.3244 63.6277 51.1858 63.6515 50.9899C63.6754 50.7988 63.5321 50.6125 63.3362 50.5934C63.0782 50.5695 62.8202 50.5552 62.567 50.5552C62.2899 50.56 62.0176 50.5695 61.7453 50.5886Z" fill="#FFB40F"/>
  <path d="M61.7548 50.6155C61.6688 50.6203 61.5733 50.6824 61.5255 50.7541C61.4682 50.8305 61.4395 50.9261 61.4538 51.0216C61.4682 51.1124 61.516 51.1984 61.5924 51.2557C61.6784 51.3179 61.7644 51.3274 61.8647 51.3226C62.1657 51.3083 62.4619 51.2892 62.7582 51.2844C62.868 51.2844 62.9827 51.2844 63.0926 51.2844C63.1881 51.2844 63.2741 51.2701 63.3506 51.2127C63.427 51.1554 63.4748 51.0647 63.4891 50.9691C63.5082 50.7876 63.3697 50.5773 63.1738 50.5726C63.1117 50.5726 63.0496 50.5726 62.9922 50.5726C62.5766 50.5678 62.1657 50.5964 61.7548 50.6155Z" fill="#FFB40F"/>
  <path d="M48.0056 49.9136C47.9722 49.9136 47.9387 49.9184 47.9053 49.9279C47.805 49.9566 47.7142 50.033 47.6712 50.1334C46.4433 50.5012 45.2346 51.065 44.0736 51.8103C42.9414 52.5365 41.8521 53.4347 40.7437 54.5526C39.769 55.5368 38.8231 56.6739 37.8484 58.0355C37.0028 59.2156 36.2002 60.5055 35.3928 61.9722C34.0455 64.4232 32.8367 67.1559 31.8048 70.0894C31.3796 71.2981 31.0117 72.4782 30.7059 73.6009C30.4336 74.5994 30.1947 75.6314 29.9702 76.7589C29.5115 79.0952 29.1771 81.5939 28.9908 84.1881C28.7901 86.9352 28.7662 89.6919 28.9239 92.3817C29.0959 95.2721 29.4829 98.024 30.0848 100.566C30.7346 103.294 31.6423 105.773 32.7937 107.923C34.0264 110.231 35.5552 112.161 37.3468 113.661C38.288 114.449 39.3199 115.133 40.414 115.682C41.8807 116.423 43.5338 116.977 45.3302 117.33C46.8542 117.631 48.4738 117.784 50.1508 117.784C52.0761 117.784 54.1305 117.584 56.2517 117.187C58.0051 116.857 59.8015 116.375 61.5931 115.758C62.3767 115.486 63.1888 115.176 64.0775 114.798C64.7559 114.512 65.4152 114.201 66.1939 113.824C68.4442 112.734 70.9954 111.497 73.1883 109.834C74.3971 108.917 75.3144 107.995 75.9928 107.015C76.3368 106.519 76.6139 105.974 76.8193 105.386C77.0152 104.832 77.1108 104.235 77.1155 103.614C77.1155 103.27 77.0725 102.897 76.9913 102.477C76.9483 102.262 76.8862 102.056 76.8241 101.846L76.8098 101.798C76.7238 101.512 76.6282 101.225 76.5279 100.943C76.2078 100.007 75.8065 99.0082 75.2618 97.7947C74.8701 96.9204 74.4496 96.0365 74.0435 95.1861C73.5037 94.0586 72.9447 92.8881 72.4478 91.7128L72.4765 91.8036C72.0226 90.6952 71.6547 89.6871 71.3633 88.7125C71.0671 87.7235 70.8378 86.6916 70.6849 85.65C71.7264 84.685 72.5243 83.8298 73.1979 82.9555C73.6136 82.4204 73.991 81.8614 74.3206 81.3024C74.6551 80.7291 74.9608 80.0985 75.257 79.3675C75.7635 78.1301 76.074 76.8163 76.1791 75.4546C76.2747 74.265 76.1791 72.9989 75.8973 71.6947C75.5819 70.2279 75.0086 68.7326 74.1486 67.1225C73.4081 65.7466 72.4813 64.3563 71.2295 62.7606C71.2104 62.7367 71.1818 62.7128 71.1483 62.6937C70.7996 62.1586 70.4221 61.6283 70.059 61.1123C69.7007 60.6058 69.328 60.0851 68.9841 59.55C68.5159 58.819 68.0763 58.0594 67.6511 57.3236C67.1447 56.4493 66.6191 55.5464 66.0506 54.6912C65.4868 53.8408 64.9183 53.1241 64.3116 52.4983C63.6236 51.7864 62.8639 51.1892 62.0518 50.721C61.9801 50.678 61.918 50.6589 61.8607 50.6541C61.8033 50.6159 61.7269 50.5968 61.6552 50.5968C61.6218 50.5968 61.5931 50.6016 61.5597 50.6111C61.3734 50.6637 61.2635 50.8595 61.3064 51.0554C61.3542 51.2609 61.3924 51.4663 61.4259 51.6765C61.4928 52.2068 61.4976 52.7419 61.4402 53.2579C61.3781 53.707 61.2682 54.1418 61.1058 54.5479C60.9577 54.8918 60.7809 55.2024 60.5611 55.4986C60.3462 55.7709 60.0882 56.0241 59.7967 56.2582C59.4814 56.4923 59.1518 56.6882 58.8173 56.8315C58.4686 56.9701 58.1198 57.0609 57.7663 57.1134C57.5656 57.1373 57.3554 57.1517 57.1452 57.1517C56.9111 57.1517 56.6674 57.1373 56.4238 57.1039L56.376 57.0991C55.8122 57.0131 55.215 56.8411 54.5844 56.5736C53.8104 56.2343 53.0269 55.7661 52.2529 55.1785C51.3165 54.4523 50.4756 53.6114 49.7542 52.6894C49.2 51.9632 48.7891 51.28 48.4881 50.592C48.426 50.4343 48.3783 50.3149 48.3353 50.1955C48.3018 50.0235 48.1633 49.9136 48.0056 49.9136Z" fill="#FFB40F"/>
  <path d="M28.9152 92.3827C29.0872 95.2874 29.4789 98.0441 30.0809 100.567C30.186 101.011 30.3007 101.451 30.4201 101.885C30.9552 102.239 31.4999 102.569 32.0588 102.874H32.0541C34.4333 104.183 37.0036 105.129 39.6361 105.779H39.6313C42.7176 106.529 45.9043 106.868 49.0814 106.778H49.048C51.7569 106.696 54.461 106.305 57.06 105.521C57.0504 105.521 57.0409 105.526 57.0313 105.526C58.0107 105.23 58.971 104.881 59.9075 104.465C60.7961 104.069 61.6608 103.62 62.4921 103.113C62.4969 103.108 62.4969 103.108 62.5017 103.108C62.5017 103.108 62.4969 103.108 62.4969 103.113L62.5017 103.108C63.1897 102.683 63.8585 102.215 64.4892 101.709C65.1007 101.212 65.6836 100.681 66.2282 100.118C66.2282 100.122 66.2235 100.122 66.2235 100.127C66.5722 99.7593 66.9066 99.3819 67.2172 98.9853C67.3987 98.756 67.5755 98.5267 67.7379 98.2878C67.9195 98.0154 68.0867 97.7383 68.2492 97.4517V97.4469C68.4928 96.9978 68.7174 96.5392 68.9323 96.0757C69.1473 95.6123 69.3576 95.1441 69.5917 94.6902C69.8114 94.2507 70.0503 93.8207 70.3322 93.4146C70.6141 93.0037 70.9294 92.6168 71.2973 92.2776C71.5075 92.0817 71.7272 91.8953 71.9661 91.7329C72.0951 91.6421 72.2241 91.5561 72.3579 91.4701C72.2098 91.0879 72.0712 90.7201 71.947 90.3713C70.915 90.6388 69.8878 90.9064 68.8559 91.1596C66.9592 91.6278 65.0386 92.0339 63.0941 92.2441C62.3106 92.3301 61.5223 92.3874 60.734 92.4113C59.9218 92.4352 59.1096 92.4495 58.3022 92.4543C56.6444 92.4687 54.9818 92.4543 53.3239 92.4113C50.0274 92.3253 46.7356 92.1342 43.4534 91.8571C38.5659 91.4462 33.7023 90.8586 28.8435 90.1802C28.8435 90.9159 28.8722 91.6517 28.9152 92.3827ZM32.0588 102.874C32.0684 102.879 32.0732 102.879 32.0827 102.889C32.0732 102.884 32.0636 102.879 32.0588 102.874ZM62.516 103.094C62.5113 103.094 62.5065 103.099 62.5065 103.099C62.5065 103.099 62.5113 103.099 62.516 103.094ZM39.6361 105.774C39.6457 105.774 39.6552 105.779 39.6648 105.784C39.6552 105.779 39.6457 105.779 39.6361 105.774Z" fill="#E3A00D"/>
  <path d="M62.4868 103.118L62.4968 103.108L62.4868 103.118Z" fill="#E3A00D"/>
  <path d="M69.5568 60.4542C69.4947 60.4924 69.4612 60.588 69.5042 60.6501C70.4598 62.0595 71.4439 63.445 72.3708 64.8735C73.3024 66.3068 74.1576 67.7974 74.8217 69.374L74.7835 69.2784C75.2899 70.4919 75.7056 71.7628 75.8919 73.0671C76.0257 74.1229 76.0161 75.1979 75.8775 76.2537C75.8823 76.2298 75.8823 76.206 75.8871 76.1869C75.7199 77.4099 75.3855 78.6043 74.9029 79.7414C74.9077 79.7318 74.9125 79.7175 74.9172 79.7079C74.4299 80.845 73.7993 81.9104 73.0492 82.8946C73.054 82.8898 73.0587 82.8851 73.0635 82.8755C73.054 82.8851 73.0444 82.8994 73.0349 82.9089C73.0253 82.9185 73.0205 82.928 73.011 82.9424C73.0158 82.9328 73.0205 82.928 73.0253 82.9185C72.7004 83.3341 72.3564 83.7355 71.9886 84.1129C71.7831 84.3279 71.5682 84.5333 71.3579 84.7435C71.1525 84.949 70.9375 85.1496 70.713 85.3312C70.627 85.3981 70.541 85.4602 70.4502 85.5175C70.3164 85.6035 70.2639 85.7755 70.3451 85.9188C70.4215 86.0478 70.6126 86.1147 70.7464 86.0239C71.0283 85.8328 71.291 85.6274 71.549 85.4076C71.8214 85.1735 72.0794 84.9203 72.3374 84.6671C72.7817 84.2276 73.1878 83.7546 73.5652 83.2625C74.3296 82.2735 74.965 81.1985 75.4667 80.0567C75.9683 78.9149 76.3267 77.7157 76.5225 76.4831C76.7184 75.2504 76.7471 73.9987 76.5894 72.7613C76.47 71.8488 76.255 70.9554 75.954 70.0858C75.6482 69.2163 75.2565 68.3803 74.8026 67.5728C74.3583 66.7798 73.8518 66.0297 73.3215 65.2939C72.7912 64.5582 72.2418 63.8415 71.6876 63.1249C71.6971 63.1392 71.7067 63.1488 71.7163 63.1679C71.0426 62.2888 70.369 61.4097 69.7479 60.4972C69.7192 60.4542 69.6715 60.4255 69.6237 60.4255C69.6046 60.4351 69.5807 60.4446 69.5568 60.4542ZM75.8823 72.9954L75.8871 73.0289C75.8871 73.0193 75.8823 73.0097 75.8823 72.9954ZM73.0301 82.9328C73.0301 82.928 73.0349 82.928 73.0396 82.9233C73.0444 82.9185 73.0492 82.9137 73.054 82.9042C73.0444 82.9137 73.0397 82.9233 73.0301 82.9328Z" fill="#E3A00D"/>
  <path d="M16.5408 57.6355C15.4611 58.2088 14.41 58.849 13.421 59.5704C12.4607 60.2679 11.553 61.0419 10.6835 61.8541L10.6643 61.8732C10.6691 61.8684 10.6691 61.8684 10.6739 61.8636C10.6691 61.8684 10.6644 61.8732 10.6596 61.878C10.6596 61.878 10.6643 61.878 10.6643 61.8732C9.6706 62.8048 8.7342 63.7986 7.86946 64.8496C7.02382 65.8768 6.24985 66.9566 5.55232 68.0888C5.5571 68.0793 5.56187 68.0697 5.56665 68.065C4.90734 69.1351 4.31491 70.2388 3.79893 71.3854C3.27817 72.5368 2.83385 73.7216 2.46598 74.9304C2.46598 74.9256 2.46598 74.9256 2.47076 74.9208C2.24144 75.6852 2.036 76.4592 1.86401 77.2427C1.67768 78.117 1.52957 78.9913 1.41013 79.8752C1.18081 81.6286 1.06615 83.3963 0.970603 85.164C0.965825 85.5223 0.96582 85.8854 0.96582 86.2485C0.999264 90.5914 1.60602 95.0727 2.81475 99.9507C3.85627 104.165 5.3421 108.493 7.35347 113.189C8.22299 115.22 9.1833 117.279 10.2869 119.491C11.4097 121.737 12.4942 123.753 13.6073 125.659C15.4372 128.798 17.5823 132.023 19.9759 135.233C20.038 135.319 20.1335 135.372 20.2387 135.381C20.3055 135.429 20.382 135.443 20.4537 135.453C24.8156 135.95 29.5645 136.179 35.4028 136.179C37.0988 136.179 38.9143 136.16 41.112 136.122C42.5214 136.098 43.9308 136.065 45.3402 136.036C47.3754 135.993 49.4155 135.945 51.4555 135.916C52.5304 135.902 53.6102 135.897 54.6851 135.888C56.9306 135.873 59.2573 135.864 61.541 135.773C63.6001 135.692 65.4347 135.553 67.1547 135.343C68.1054 135.224 69.0371 135.085 69.9257 134.923C70.3891 134.837 70.8525 134.746 71.3112 134.646L71.5596 134.588C71.9371 134.502 72.3193 134.416 72.7015 134.345C72.7827 134.33 72.8544 134.283 72.9021 134.206C72.9595 134.12 72.9834 134.015 72.9595 133.919C72.9595 133.896 72.9595 133.876 72.9499 133.853C72.4817 131.746 71.7555 129.72 70.7952 127.838C69.8158 125.917 68.6118 124.183 67.2216 122.697C64.9809 120.303 62.014 118.402 58.1489 116.892C56.5914 116.285 54.9001 115.75 52.8267 115.206C51.2596 114.795 49.5779 114.417 47.3659 113.982C46.3817 113.787 45.3975 113.6 44.4085 113.414C43.6393 113.266 42.8654 113.123 42.0962 112.97C40.1326 112.587 38.3935 112.205 36.7787 111.79L36.6497 111.756L36.5589 111.732C32.6317 110.7 29.5311 109.501 26.7983 107.967L26.87 108.02C24.9016 106.897 23.1291 105.583 21.6003 104.117L21.6433 104.169C20.898 103.429 20.1861 102.645 19.5363 101.833C18.8818 101.011 18.2464 100.089 17.654 99.105C16.8083 97.6718 16.02 96.033 15.2413 94.0981C14.5868 92.4689 13.9943 90.7108 13.4879 88.8714C12.3222 84.5907 11.725 80.3052 11.7059 76.1248C11.7106 72.8235 12.0881 69.6989 12.8286 66.8419C12.8286 66.8419 12.8286 66.8323 12.8334 66.8228H12.8286L12.8334 66.818V66.8132V66.7893C13.0627 65.9341 13.3302 65.1028 13.6265 64.3002C13.7029 64.0422 13.7841 63.789 13.8701 63.5358C14.1424 62.7379 14.4434 61.9496 14.8017 61.1852C14.8543 61.0705 14.9068 60.9559 14.9642 60.8412C15.4563 59.7185 15.9675 58.591 16.6507 57.5781C16.6172 57.5972 16.579 57.6163 16.5408 57.6355Z" fill="#7B7AC0"/>
  <path d="M66.5566 87.5425C65.797 87.5425 65.0374 87.5711 64.2921 87.6285C64.1105 87.6428 63.9672 87.8148 63.972 88.0011C63.8191 88.0585 63.6566 88.1397 63.4894 88.24C63.1741 88.4216 62.8922 88.6939 62.6964 89.0044C62.3333 89.5777 62.2186 90.3183 62.3619 91.1448C62.4861 91.8662 62.7871 92.6211 63.2744 93.4428C63.6901 94.1404 64.1965 94.7662 64.7794 95.3013C64.8367 95.3539 64.8988 95.4112 64.9609 95.459C64.7125 95.4685 64.4689 95.4876 64.2204 95.5211C64.1296 95.5306 64.0436 95.5832 63.9863 95.6596C63.9242 95.7361 63.9003 95.8364 63.9099 95.9319C63.9338 96.1087 64.0914 96.2425 64.273 96.2425C64.8367 96.1804 65.367 96.1469 65.8973 96.1374C67.044 96.1422 68.2049 96.2951 69.3468 96.596C69.9917 96.7728 70.6415 96.9974 71.3342 97.2792C71.6687 97.4178 71.9983 97.5659 72.328 97.7235C72.5621 97.8334 72.7675 97.929 72.9634 98.0389C73.2071 98.187 73.4364 98.3446 73.6705 98.5071L74.0909 98.7985C74.3059 98.9466 74.5161 99.0947 74.7311 99.2381C75.142 99.5152 75.5194 99.7588 75.8921 99.9786C76.3507 100.251 76.7091 100.437 77.0578 100.59C77.3301 100.705 77.698 100.843 78.0755 100.872C78.1185 100.877 78.1614 100.877 78.2044 100.877C78.3191 100.877 78.4146 100.867 78.5054 100.843C78.5819 100.824 78.6535 100.8 78.7252 100.767C78.8112 100.724 78.8972 100.667 78.9832 100.595C79.1217 100.48 79.2316 100.342 79.3176 100.17C79.3893 100.026 79.4227 99.8544 79.4227 99.625C79.4179 99.2381 79.2364 98.8797 79.0787 98.6074C78.8303 98.187 78.4911 97.7809 78.0181 97.3318C78.6726 97.6089 79.4562 97.9146 80.2636 98.1392C80.598 98.2347 80.9946 98.3351 81.4198 98.3733C81.5201 98.3829 81.6252 98.3876 81.7255 98.3876C81.9692 98.3876 82.1842 98.3542 82.3753 98.2873C82.4995 98.2443 82.6189 98.1774 82.7097 98.0962C82.8339 97.9863 82.9199 97.8573 82.9916 97.6901C83.0441 97.5563 83.0776 97.413 83.0871 97.2649C83.0919 97.0977 83.0728 96.94 83.0203 96.7489C82.9629 96.5339 82.8435 96.3142 82.6428 96.0514C82.5091 95.8746 82.3418 95.6979 82.1316 95.5067C82.1507 95.5067 82.1698 95.5067 82.189 95.5067C82.3801 95.5067 82.5473 95.4781 82.7097 95.4255C82.9104 95.3586 83.0967 95.2153 83.2209 95.0385C83.4359 94.728 83.4885 94.2741 83.3595 93.8011C83.283 93.5145 83.1301 93.2278 82.896 92.9221C82.6906 92.6545 82.423 92.387 82.0552 92.0908C81.7637 91.8519 81.4293 91.6178 80.9754 91.3407C80.2397 90.8868 79.3988 90.4616 78.4099 90.0268C77.698 89.7163 76.9384 89.4201 76.1501 89.1477C75.2614 88.8372 74.2964 88.5649 73.1975 88.3069C71.0333 87.7957 68.7973 87.5425 66.5566 87.5425Z" fill="#FFDECD"/>
  <path d="M77.0017 92.7027C76.973 92.8173 77.0447 92.9224 77.1498 92.9607C77.4604 93.061 77.7661 93.1756 78.0671 93.2999C78.0623 93.2999 78.0623 93.2999 78.0575 93.2951C79.3953 93.8541 80.6518 94.6041 81.8271 95.4498C81.8844 95.4928 81.9704 95.4593 82.0086 95.402C82.0469 95.3351 82.0182 95.2635 81.9608 95.2252C80.5037 94.1646 78.994 93.1135 77.2597 92.5593C77.2406 92.5546 77.2215 92.5498 77.2071 92.5498C77.1116 92.545 77.0256 92.6167 77.0017 92.7027Z" fill="#FFCCB1"/>
  <path d="M74.3734 95.297C74.3639 95.3353 74.3686 95.3735 74.3878 95.4117C74.4116 95.4499 74.4403 95.469 74.4833 95.4834C74.7222 95.5694 74.9611 95.6601 75.1952 95.7557L75.1569 95.7366C76.0742 96.1236 76.9533 96.6109 77.7464 97.2176C77.7369 97.2081 77.7273 97.2033 77.7225 97.1985C77.7464 97.2176 77.7655 97.232 77.7894 97.2511C77.8133 97.2702 77.8372 97.2845 77.8706 97.2845C77.9041 97.2845 77.9327 97.2702 77.9566 97.2511C77.9805 97.2272 77.9901 97.1985 77.9901 97.1651C77.9901 97.1412 77.9805 97.0982 77.9566 97.0839C77.7273 96.9023 77.4932 96.7255 77.2543 96.5535C76.9724 96.3529 76.6858 96.1666 76.3896 95.9946C76.0934 95.8178 75.7876 95.6649 75.4771 95.5216C75.1808 95.3878 74.8751 95.2732 74.5645 95.1872C74.5502 95.1824 74.5406 95.1824 74.5263 95.1824C74.4546 95.1824 74.3878 95.2302 74.3734 95.297Z" fill="#FFCCB1"/>
  <path d="M47.8472 49.7664L47.8377 49.7711C46.5238 49.7855 45.2196 49.924 43.963 50.1725C42.7639 50.4113 41.5504 50.7744 40.3512 51.257C38.1153 52.1504 35.994 53.469 34.0495 55.1698C32.2054 56.7847 30.5619 58.7339 29.1716 60.9603C28.5792 61.9015 28.0154 62.943 27.3943 64.2425C26.8784 65.3222 26.3863 66.4832 25.9276 67.7063C25.0055 70.1667 24.2841 72.761 23.792 75.4125C23.276 78.1788 23.061 80.8877 23.1518 83.4628C23.1996 84.8101 23.3334 86.1287 23.5579 87.3852C23.7777 88.637 24.1073 89.8839 24.5421 91.0974C24.9721 92.3109 25.5072 93.4384 26.1283 94.4513C26.7063 95.3973 27.4039 96.2716 28.2065 97.0503C29.6685 98.4788 31.5461 99.6732 33.7915 100.595C35.6978 101.379 37.8812 101.962 40.4611 102.373C42.4868 102.697 44.7227 102.893 47.293 102.97C48.0431 102.989 48.8362 103.003 49.6388 103.003C49.9207 103.003 50.2026 103.003 50.4892 102.998C51.5642 102.989 52.5006 102.96 53.3606 102.908C55.8115 102.76 57.7751 102.439 59.5476 101.909C61.7787 101.235 63.5273 100.232 64.736 98.9279C65.4288 98.1826 65.9639 97.3131 66.3318 96.348C66.5133 95.8655 66.6566 95.316 66.7617 94.6806C66.8621 94.0882 66.8955 93.4623 66.8717 92.7744C66.8239 91.4414 66.5276 90.1658 65.9926 88.9809C65.7393 88.4172 65.4049 87.8582 64.9988 87.3327C64.6357 86.8549 64.1819 86.4058 63.6468 85.9949C62.7534 85.307 61.621 84.8053 60.2833 84.4995C59.2275 84.2607 58.0809 84.1508 56.6762 84.1508H56.4756C55.2907 84.1555 54.0868 84.2511 52.9211 84.3419L52.7156 84.3562L52.4337 84.3801C51.8604 84.4279 51.2919 84.4709 50.7186 84.5282C50.193 84.5808 49.6675 84.6333 49.1372 84.6906L48.4731 84.7623C47.6657 84.8435 46.8535 84.9248 46.0461 84.9821C46.0413 84.9821 46.0413 84.9821 46.0365 84.9821H46.0318C44.9664 85.0585 44.1064 85.0967 43.3133 85.0967C42.5107 85.0967 41.7845 85.0585 41.0869 84.9821L41.3736 83.3338C41.5408 82.3544 41.708 81.3798 41.88 80.4004C42.0138 79.6264 42.1571 78.8476 42.3005 78.0737L42.353 77.7918L42.4055 77.5099L42.4151 77.4621C42.4247 77.4191 42.4342 77.3809 42.4342 77.3379L42.4772 77.099L42.5202 76.8602C42.5966 76.4588 42.6731 76.0527 42.7495 75.6514C42.8977 74.8774 43.0553 74.1035 43.213 73.3295C43.5235 71.8054 43.8627 70.2766 44.2115 68.7096C44.8087 66.0245 45.3915 63.4016 45.9266 60.7692C46.0556 60.1194 46.1846 59.4745 46.3136 58.8247C46.4378 58.1797 46.5573 57.5777 46.6576 56.9662C46.7293 56.5314 46.7914 56.0967 46.8583 55.6619C46.9586 54.9931 47.0589 54.3051 47.1831 53.6314C47.3695 52.6568 47.6275 51.5197 48.1291 50.44C48.1482 50.4066 48.153 50.354 48.1482 50.3014C48.1721 50.2584 48.1817 50.2107 48.1865 50.1581C48.1912 50.0578 48.153 49.9527 48.0813 49.8762C48.0145 49.8046 47.9285 49.7664 47.8472 49.7664ZM28.1396 64.3524L28.1635 64.3142C28.1253 64.3954 28.0823 64.4766 28.0441 64.5578C28.0727 64.4909 28.1062 64.4193 28.1396 64.3524ZM24.5182 75.4221V75.403L24.5373 75.36C24.5087 75.5033 24.48 75.6466 24.4561 75.7852C24.4752 75.6753 24.4943 75.5606 24.5182 75.4508H24.5134L24.523 75.4316V75.4364C24.523 75.4317 24.523 75.4317 24.523 75.4269V75.4221C24.523 75.4221 24.5278 75.4125 24.5278 75.4078C24.523 75.4125 24.523 75.4173 24.5182 75.4221Z" fill="#FFB40F"/>
  <path d="M47.6752 49.7809C47.4793 49.7952 47.3264 49.9672 47.3408 50.1631C47.3551 50.359 47.5271 50.5119 47.723 50.4975C47.7899 50.4928 47.8615 50.4928 47.9284 50.4928C48.0192 50.4928 48.1147 50.4402 48.1721 50.3733C48.239 50.3017 48.2724 50.2061 48.2628 50.1105C48.2581 50.015 48.2151 49.929 48.1434 49.8669C48.067 49.8 47.981 49.7809 47.8806 49.7761C47.8568 49.7761 47.8329 49.7761 47.809 49.7761C47.766 49.7761 47.723 49.7761 47.6752 49.7809Z" fill="#FFB40F"/>
  <path d="M47.8726 49.7856C47.8679 49.7856 47.8631 49.7856 47.8583 49.7856C47.6624 49.7952 47.5095 49.972 47.5239 50.1678C47.5382 50.3637 47.7102 50.5118 47.9061 50.5023C47.9109 50.5023 47.9156 50.5023 47.9204 50.5023C48.1163 50.4927 48.2692 50.316 48.2548 50.1201C48.2405 49.9338 48.0781 49.7856 47.8917 49.7856C47.887 49.7856 47.8774 49.7856 47.8726 49.7856Z" fill="#FFB40F"/>
  <path d="M55.9939 84.0267C55.3012 84.0267 54.6036 84.0362 53.9109 84.0649C53.1321 84.0935 52.3486 84.1509 51.5746 84.213C50.1748 84.3229 48.775 84.471 47.3751 84.5904C46.6919 84.6477 46.004 84.7003 45.3208 84.7385C44.5994 84.7815 43.8779 84.8006 43.1517 84.8102H43.2282C41.6181 84.8293 40.0129 84.7911 38.4028 84.7624C36.8214 84.7385 35.24 84.7242 33.6634 84.7958C33.5965 84.8006 33.5535 84.8723 33.5631 84.9296C33.5726 84.9965 33.6348 85.0347 33.6969 85.0299C33.9453 85.0204 34.1985 85.0108 34.447 85.0061H34.4135C35.9806 84.9869 37.5476 85.0777 39.1099 85.178C40.6817 85.2784 42.2488 85.3835 43.8206 85.3739C45.3781 85.3692 46.9356 85.2163 48.4883 85.0634C50.041 84.9057 51.5937 84.7385 53.156 84.6525C53.6242 84.6286 54.0972 84.6095 54.5654 84.6047C54.5559 84.6047 54.5463 84.6047 54.532 84.6047C55.091 84.6 55.6547 84.6095 56.2185 84.6143C56.744 84.6191 57.2695 84.6334 57.7951 84.6525C58.8509 84.7003 59.9068 84.8054 60.9292 85.0586L61.0008 85.0777C60.9913 85.0729 60.977 85.0729 60.9674 85.0682C61.6554 85.2545 62.3194 85.5077 62.9405 85.8517C63.4517 86.1527 63.9199 86.5158 64.3451 86.9314C64.7226 87.3136 65.0761 87.7293 65.3485 88.1927C65.3819 88.25 65.4727 88.2501 65.5204 88.2166C65.5778 88.1736 65.5778 88.1019 65.5443 88.0446C65.3771 87.7627 65.2099 87.4809 65.0331 87.2038C64.8372 86.9075 64.6079 86.6304 64.3643 86.3724C63.9534 85.9425 63.4756 85.5794 62.9644 85.2832C61.9325 84.6907 60.7715 84.3754 59.5962 84.2082C58.4878 84.0458 57.3699 84.0171 56.2519 84.0171C56.1611 84.0219 56.0799 84.0219 55.9939 84.0267ZM62.8928 85.8326C62.9071 85.8421 62.9214 85.8469 62.931 85.8565C62.9167 85.8517 62.9023 85.8421 62.8928 85.8326ZM60.9626 85.0729C60.9483 85.0682 60.9387 85.0682 60.9244 85.0634C60.934 85.0682 60.9483 85.0729 60.9626 85.0729ZM54.4842 84.6047C54.4985 84.6047 54.5129 84.6047 54.5272 84.6047C54.5081 84.6047 54.4938 84.6047 54.4842 84.6047Z" fill="#E3A00D"/>
  <path d="M44.6857 65.7527C44.2796 67.1908 43.9165 68.6384 43.5916 70.0955C43.4244 70.8313 43.2668 71.5623 43.1091 72.3028C42.9562 73.0385 42.8129 73.7838 42.6743 74.5244C42.531 75.2649 42.3972 76.0054 42.2635 76.7507C42.1297 77.4913 41.9959 78.2318 41.8669 78.9723C41.7379 79.7081 41.6089 80.4486 41.4847 81.1796C41.3557 81.9153 41.222 82.6463 41.1073 83.3821C41.0308 83.8933 40.9687 84.4045 40.9496 84.9157C40.9448 85.0399 41.0499 85.1498 41.1742 85.1498C41.2315 85.1498 41.2936 85.1306 41.3366 85.0924C41.3844 85.0447 41.4035 84.9921 41.413 84.93C41.4321 84.7771 41.456 84.629 41.4799 84.4809C41.4751 84.5 41.4704 84.5239 41.4704 84.5478C41.5325 84.1608 41.6042 83.7738 41.6758 83.3868C41.7523 82.9712 41.8287 82.5555 41.8956 82.1447C42.0293 81.3516 42.1536 80.5633 42.273 79.7702C42.5215 78.1458 42.7651 76.5214 43.0279 74.9018C43.0279 74.9066 43.0231 74.9114 43.0231 74.9161C43.047 74.7776 43.0661 74.6438 43.09 74.5053C43.09 74.5244 43.0852 74.5435 43.0804 74.5578C43.1951 73.8412 43.3193 73.1245 43.4483 72.4127C43.5821 71.6721 43.7158 70.9316 43.8687 70.1911C44.1697 68.7291 44.5089 67.272 44.915 65.8339C44.9294 65.7718 44.9007 65.7049 44.8338 65.6858C44.8243 65.681 44.8099 65.681 44.8004 65.681C44.7478 65.6715 44.7 65.7001 44.6857 65.7527ZM43.0231 74.8922C43.0231 74.8779 43.0279 74.8684 43.0279 74.854L43.0231 74.8922Z" fill="#E3A00D"/>
  <path d="M47.9579 49.4894C47.7811 49.5658 47.6903 49.7808 47.7668 49.9576C48.7223 52.0741 50.1221 54.0281 51.9233 55.5044C52.8215 56.2354 53.8439 56.8278 54.9427 57.1861C55.4921 57.3677 56.0655 57.4823 56.6483 57.5349C57.2073 57.5874 57.7758 57.5635 58.3253 57.425C58.9464 57.2721 59.5149 56.9711 59.9926 56.5459C60.48 56.1111 60.8431 55.5665 61.1249 54.9836C61.4068 54.396 61.5836 53.7558 61.703 53.1156C61.7651 52.7907 61.8081 52.4563 61.832 52.1266C61.8703 51.6489 61.8846 51.1663 61.8273 50.6886C61.8034 50.4927 61.6122 50.3589 61.4211 50.3828C61.2253 50.4115 61.0963 50.5978 61.1201 50.7889C61.1393 50.9418 61.1488 51.0994 61.1536 51.2571C61.1584 52.0024 61.0676 52.7477 60.8956 53.4739C60.7618 53.9851 60.5851 54.4772 60.3414 54.9454C60.1646 55.2607 59.9592 55.5522 59.7203 55.8149C59.5053 56.0299 59.276 56.221 59.018 56.3787C59.0276 56.3739 59.0371 56.3691 59.0467 56.3644C59.0371 56.3691 59.0228 56.3739 59.0132 56.3835C58.9989 56.393 58.9798 56.4026 58.9655 56.4121C58.9798 56.4026 58.9941 56.393 59.0085 56.3835C58.76 56.522 58.502 56.6319 58.2249 56.7083C57.9144 56.7896 57.5943 56.8278 57.2742 56.8374C56.7486 56.8374 56.2279 56.7705 55.7167 56.6558C55.0526 56.4886 54.4172 56.2354 53.8152 55.9153C53.7961 55.9057 53.777 55.8962 53.7579 55.8818C53.777 55.8914 53.7961 55.9009 53.8152 55.9153C53.0173 55.4709 52.2959 54.9168 51.6318 54.2861C51.6462 54.3004 51.6653 54.3195 51.6796 54.3339C51.6557 54.31 51.6318 54.2909 51.6127 54.267C50.7002 53.3736 49.9215 52.3607 49.2622 51.2714C49.2765 51.2905 49.286 51.3097 49.3004 51.3335C48.9803 50.7985 48.6888 50.2395 48.4308 49.671C48.3687 49.5372 48.2398 49.4512 48.0964 49.4512C48.0487 49.4607 48.0056 49.4703 47.9579 49.4894ZM59.0085 56.3883L59.018 56.3835C59.0132 56.3883 59.0132 56.3883 59.0085 56.3883ZM51.6127 54.2718C51.6175 54.2765 51.6271 54.2861 51.6318 54.2909C51.6271 54.2861 51.6223 54.2813 51.6127 54.2718Z" fill="#E3A00D"/>
  <path d="M63.4079 11.6458C61.9794 11.6458 60.527 11.7747 59.0889 12.028C57.2973 12.3385 55.5631 12.8449 53.9387 13.5234C52.3 14.2066 50.8332 15.0617 49.5767 16.0603C48.9556 16.5524 48.3728 17.1066 47.8377 17.7038C47.3169 18.2914 46.8869 18.8838 46.5716 19.4524C46.371 19.8155 46.2372 20.2168 46.1034 20.6085C45.9027 21.2105 45.726 21.8364 45.5492 22.5626C45.1431 24.23 44.9233 25.6871 44.8803 27.0153C44.8564 27.837 44.8947 28.4534 45.0093 29.0219C45.1431 29.6764 45.3581 30.159 45.6686 30.503C45.8502 30.7036 46.0652 30.8565 46.2993 30.9616C46.5143 31.0572 46.7579 31.1002 47.0494 31.1002H47.1067C47.4268 31.0954 47.7612 31.0237 48.0479 30.8995C48.3871 30.7562 48.6976 30.4934 48.9174 30.159C49.1181 29.858 49.2614 29.4949 49.3665 29.0171C49.4477 28.654 49.4859 28.2527 49.4859 27.7558C49.4859 26.9532 49.3856 26.1171 49.1945 25.2667C49.1802 25.2046 49.1658 25.1377 49.1467 25.0756C49.1706 25.0756 49.1945 25.0756 49.2184 25.0756C49.4716 25.0756 49.7296 25.0469 49.9685 24.9944C50.3937 24.9036 50.8141 24.7364 51.2345 24.4927C51.9655 24.0675 52.6344 23.4273 53.2268 22.5817C53.7667 21.8077 54.1967 20.9286 54.5072 19.9588C54.7413 19.2278 54.8799 18.4968 54.9181 17.7897C55.3911 18.1481 55.9214 18.4729 56.4756 18.7596C57.2973 19.18 58.1382 19.4715 58.9743 19.6243C59.3135 19.6865 59.6718 19.7199 60.0492 19.7199C60.1113 19.7199 60.1734 19.7199 60.2355 19.7199C60.6178 19.7103 61.0191 19.6435 61.4252 19.5192C62.1848 19.2899 62.8871 18.7835 63.3935 18.0812C63.5703 17.8423 63.7232 17.5748 63.8665 17.269C64.9224 19.2565 66.2506 20.7996 67.7985 21.8507C69.2413 22.8301 70.8753 23.37 72.4089 23.37C72.9822 23.37 73.5412 23.2983 74.0762 23.1502C74.8216 22.9448 75.5048 22.5817 76.059 22.1039C76.6275 21.6118 77.0862 20.9525 77.3824 20.1881C77.3871 20.1881 77.3967 20.1881 77.4015 20.1881C77.411 20.1881 77.4254 20.1881 77.4349 20.1833C77.5352 20.169 77.6308 20.1117 77.6929 20.0257C77.7454 19.9492 77.7646 19.8585 77.7502 19.7772C77.7024 19.5527 77.6404 19.352 77.5544 19.1609C77.4779 18.9937 77.3871 18.8313 77.2964 18.6784L77.2581 18.6115L77.1291 18.3774C76.9571 18.0716 76.7756 17.7515 76.5749 17.4553C76.36 17.1304 76.1163 16.8103 75.8487 16.495C75.3375 15.8883 74.7403 15.3245 74.0858 14.8181C72.8532 13.8673 71.3721 13.1125 69.6809 12.5774C68.0899 12.071 66.3461 11.77 64.5067 11.6887C64.1436 11.6553 63.7758 11.6458 63.4079 11.6458Z" fill="#100258"/>
  <path d="M65.478 16.0792C65.3634 16.1222 65.2678 16.2082 65.2153 16.3181C65.1627 16.4232 65.1484 16.5761 65.2009 16.686C65.2487 16.7911 65.2917 16.901 65.3395 17.0109C65.3968 17.1446 65.4685 17.2736 65.5401 17.3979C65.6691 17.6367 65.822 17.8565 65.9797 18.0715C66.3189 18.5301 66.7202 18.9362 67.1454 19.3137C67.9911 20.0685 68.9848 20.6657 70.055 21.048C70.5805 21.2343 71.1204 21.368 71.6746 21.4445C71.9326 21.4779 72.1954 21.497 72.4581 21.5018C72.7304 21.5066 73.0027 21.5018 73.2751 21.4732C73.7958 21.4206 74.3166 21.2916 74.8039 21.0909C75.3151 20.8807 75.7785 20.5654 76.2085 20.2214C76.2276 20.2071 76.242 20.1928 76.2611 20.1784C76.3184 20.1306 76.3423 20.0446 76.2945 19.9825C76.2515 19.9204 76.156 19.8965 76.0939 19.9491C75.8598 20.1402 75.6161 20.3074 75.3486 20.446L75.3533 20.4412C74.995 20.6227 74.6128 20.7613 74.2258 20.8568C74.2258 20.8568 74.2258 20.8568 74.2306 20.8568H74.2258C74.2067 20.8616 74.1924 20.8664 74.1733 20.8712C74.1876 20.8664 74.1972 20.8664 74.2115 20.8616C73.7624 20.9572 73.3085 20.9858 72.8499 20.9667C72.8738 20.9667 72.8976 20.9667 72.9215 20.9667C72.4151 20.9381 71.9182 20.8234 71.4405 20.6705C71.1347 20.5654 70.8433 20.4364 70.5566 20.2979C70.2174 20.1354 69.8878 19.9491 69.5724 19.7437C69.4052 19.6338 69.238 19.5239 69.0756 19.3997C68.8606 19.242 68.6504 19.0748 68.4449 18.9076C68.0436 18.5779 67.671 18.2196 67.3174 17.8422C67.1024 17.6033 66.8922 17.3596 66.6916 17.1064C66.5769 16.9631 66.467 16.815 66.3523 16.6717C66.2472 16.5331 66.1278 16.3946 66.037 16.2417C65.9558 16.1127 65.8029 16.041 65.65 16.041C65.5832 16.0506 65.5306 16.0601 65.478 16.0792ZM75.382 20.4316C75.3725 20.4364 75.3677 20.4364 75.3581 20.4412C75.3677 20.4412 75.3725 20.4364 75.382 20.4316Z" fill="#0C0144"/>
  <path d="M70.8991 18.4438C70.8561 18.4964 70.837 18.5585 70.8418 18.6206C70.8466 18.6779 70.8752 18.7496 70.9278 18.783C71.1667 18.9455 71.4151 19.0888 71.6779 19.213C71.9359 19.3324 72.1986 19.4232 72.4709 19.4949C72.7385 19.5618 73.0156 19.5904 73.2975 19.5952C73.5794 19.6 73.8564 19.557 74.1288 19.4949C74.1813 19.4853 74.21 19.4184 74.2052 19.3707C74.2004 19.3133 74.1383 19.2512 74.0762 19.2608C73.9663 19.2847 73.8612 19.3038 73.7513 19.3181C73.6175 19.3372 73.4886 19.3324 73.3548 19.3324C73.0729 19.3133 72.7958 19.2608 72.5283 19.1796C72.5426 19.1843 72.5569 19.1891 72.5713 19.1891C72.2703 19.0888 71.9884 18.955 71.7256 18.7878C71.5536 18.6731 71.396 18.5441 71.2383 18.4104C71.1953 18.3721 71.138 18.353 71.0854 18.353C71.0138 18.3626 70.9421 18.3912 70.8991 18.4438Z" fill="#0C0144"/>
  <path d="M61.1389 35.4758C61.1007 35.5332 61.0815 35.5571 61.072 35.5857C60.7567 36.2307 60.5942 36.9712 60.6133 37.7261C60.6229 38.2277 60.7471 39.1594 61.4351 39.7518C61.5832 39.876 61.7408 39.9763 61.8985 40.0432C62.0944 40.134 62.3094 40.1818 62.553 40.2009H62.6056C62.7728 40.2009 62.9591 40.1674 63.1646 40.1006C63.3605 40.0337 63.5468 39.9381 63.7331 39.8043C64.0484 39.5893 64.3351 39.2931 64.6313 38.8823C64.8081 38.6386 64.9562 38.3663 65.0756 38.0796C64.8367 38.0127 64.6074 37.9363 64.3876 37.8455C63.9338 37.6592 63.4942 37.4203 63.0834 37.1384C62.4575 36.7085 61.8221 36.1638 61.1532 35.4758C61.1484 35.4806 61.1437 35.4758 61.1389 35.4758Z" fill="#FEFEFE"/>
  <path d="M65.1521 26.4895C65.0899 26.4895 65.0326 26.5325 65.0231 26.5851C64.8129 27.4594 64.6552 28.2429 64.5358 28.993C64.4784 29.3656 64.4259 29.7335 64.3877 30.1109C64.359 30.388 64.3399 30.6603 64.3255 30.9374L64.3208 31.0234L64.2969 31.3674C64.2969 31.4104 64.3112 31.4487 64.3399 31.4869C64.3733 31.5251 64.4211 31.5442 64.4689 31.5442L64.5931 31.5394C64.7412 31.5346 64.8893 31.5299 65.0374 31.5299C65.2715 31.5299 65.4722 31.5394 65.6585 31.5633C65.883 31.5968 66.0837 31.6493 66.2652 31.7258C66.3656 31.7735 66.4659 31.8309 66.5567 31.8977C66.6379 31.9646 66.7096 32.0363 66.7764 32.1175C66.8386 32.2083 66.8959 32.2991 66.9437 32.4042C66.9914 32.5284 67.0249 32.6574 67.044 32.8007C67.0535 32.9297 67.0535 33.0539 67.0392 33.1734C67.0153 33.3262 66.9771 33.4696 66.9198 33.6034C66.8481 33.761 66.7573 33.9091 66.6522 34.0524C66.5185 34.2149 66.3847 34.3487 66.2509 34.4538C66.1315 34.5398 66.0025 34.6114 65.8592 34.6735C65.7684 34.707 65.6824 34.7404 65.5868 34.7691C65.5391 34.7834 65.496 34.7978 65.4483 34.8121L65.4005 34.8264L65.2142 34.8837C65.0469 34.9411 64.9418 35.0796 64.9418 35.2421C64.9418 35.4427 65.1043 35.6099 65.3145 35.6147C65.6394 35.6147 65.9547 35.5048 66.3035 35.2707C66.4659 35.1608 66.6188 35.0319 66.7478 34.9172C66.8816 34.7978 67.0058 34.664 67.1252 34.5015C67.3545 34.1958 67.5074 33.8661 67.5886 33.5174C67.6699 33.1638 67.6555 32.7864 67.5361 32.4281C67.4358 32.1127 67.259 31.8404 67.0201 31.6302C66.8195 31.4487 66.5567 31.3197 66.2414 31.2337C65.9929 31.1668 65.711 31.1333 65.3336 31.1286C65.0804 31.1286 64.8559 31.1429 64.6217 31.1715C64.6313 30.8753 64.6504 30.56 64.6695 30.2925C64.6934 29.9341 64.7316 29.5758 64.7794 29.2175C64.8893 28.4196 65.0517 27.5836 65.2715 26.6567C65.2906 26.585 65.2476 26.5134 65.1807 26.4943C65.1903 26.4943 65.1521 26.4895 65.1521 26.4895Z" fill="#FFCCB1"/>
  <path d="M56.4761 28.7449H56.4474C56.0413 28.7449 55.6495 29.5475 55.5588 30.5651C55.5158 31.0668 55.554 31.5446 55.6639 31.9124C55.7737 32.2851 55.9457 32.5001 56.1512 32.5144C56.5812 32.5144 56.9777 31.7309 57.0685 30.6941C57.1592 29.6574 56.8917 28.7831 56.4761 28.7449Z" fill="#0C0144"/>
  <path d="M70.0879 29.4189H70.064C69.6579 29.4189 69.2662 30.2216 69.1754 31.2392C69.0846 32.2807 69.3474 33.155 69.763 33.1933C70.193 33.1933 70.5896 32.4097 70.6803 31.373C70.7472 30.5942 70.623 29.8919 70.3602 29.5766C70.2742 29.4811 70.1882 29.4285 70.0879 29.4189Z" fill="#0C0144"/>
  <path d="M58.014 20.9197C57.4503 20.9197 56.7719 21.063 56.0982 21.3306C55.4103 21.5933 54.8083 21.9516 54.3926 22.3338C53.977 22.7208 53.8098 23.0839 53.9149 23.3562C54.02 23.6334 54.3974 23.7862 54.9755 23.7862C55.5392 23.7862 56.2177 23.6429 56.8913 23.3754C57.9567 22.9597 58.8024 22.3386 59.0412 21.794C59.1129 21.6268 59.1272 21.4739 59.0747 21.3449C58.9696 21.0726 58.5921 20.9197 58.014 20.9197Z" fill="#100258"/>
  <path d="M95.1085 99.6147H64.6608L64.6465 102.553L95.1085 102.563L95.118 99.6243L95.1085 99.6147Z" fill="#E9E9E9"/>
  <path d="M115.972 66.6697H129.483H133.826C134.483 66.6697 134.961 67.2913 134.793 67.9258L126.545 99.0525C126.113 100.681 124.701 101.856 123.028 101.99C122.999 101.992 122.971 101.994 122.943 101.995C121.954 102.263 121.342 104.628 120.009 104.647C119.885 104.652 119.766 104.652 119.642 104.652C118.834 104.652 117.983 104.612 117.284 104.579L117.21 104.575L117.095 104.57L116.627 104.547C115.877 104.513 115.089 104.499 114.286 104.499C113.574 104.499 112.857 104.513 112.155 104.537C110.626 104.594 109.011 104.695 107.827 104.771L107.674 104.781C106.193 104.876 104.516 104.977 102.872 105.024C102.328 105.039 101.783 105.048 101.233 105.048C100.144 105.048 99.1552 105.015 98.214 104.948C97.8079 104.919 97.4018 104.886 97.0005 104.843L96.9739 104.84C96.7825 104.822 96.5951 104.804 96.4033 104.795C96.0163 104.776 95.6341 104.766 95.2471 104.766H95.0274C94.3872 104.771 93.7422 104.79 93.102 104.809C92.3758 104.833 91.6448 104.852 90.9186 104.852C90.0825 104.852 89.3611 104.824 88.7018 104.766C87.1682 104.637 84.9609 104.293 83.5133 102.86C83.4703 102.874 83.4273 102.884 83.3796 102.884C83.3461 102.884 83.3175 102.879 83.2792 102.87C83.1837 102.851 83.1025 102.784 83.0499 102.688C83.0021 102.602 82.9926 102.507 83.0213 102.416L83.0595 102.287L83.0929 102.177L84.1535 98.737L85.2906 95.0439L88.955 83.1476L90.9043 76.8173L92.8583 70.4631L93.2549 69.1731L93.6466 67.9023L93.7422 67.5918L93.8425 67.2669L93.8759 67.1618C93.8998 67.0853 93.9524 67.0089 94.0193 66.9659C94.0527 66.7987 94.2104 66.6697 94.3824 66.6697H99.5852H115.972Z" fill="#F2F2F2"/>
  <path d="M95.486 66.6602H94.3871C94.2103 66.6602 94.0479 66.7891 94.0097 66.9659C93.9428 67.0041 93.8903 67.0806 93.8712 67.1618L93.8377 67.2669L93.7374 67.5918L93.6418 67.9023L93.25 69.1732L92.8535 70.4631L90.8995 76.8173L88.9502 83.1476L85.2858 95.0439L84.1487 98.737C83.7952 99.8836 83.4417 101.03 83.0929 102.172L83.0594 102.282L83.0212 102.411C82.9878 102.502 82.9973 102.597 83.0499 102.693C83.1024 102.788 83.1884 102.855 83.284 102.879C83.3174 102.893 83.3509 102.898 83.3843 102.898C83.4273 102.898 83.4703 102.889 83.5229 102.87C83.7044 103.061 83.9242 103.242 84.1726 103.414L85.1807 100.17L86.1792 96.931L89.0792 87.5144L91.9792 78.0834C93.1545 74.2757 94.325 70.4679 95.4955 66.6602H95.486Z" fill="#E9E9E9"/>
  <path d="M47.2463 102.879C47.0409 102.879 46.8164 102.893 46.587 102.922C46.2239 102.965 45.837 103.06 45.3974 103.199C45.0343 103.314 44.676 103.467 44.2986 103.662C43.988 103.825 43.7205 103.983 43.4816 104.15C43.4386 104.035 43.3192 103.944 43.1997 103.925C43.1806 103.925 43.1615 103.92 43.1424 103.92C43.0659 103.92 42.9943 103.944 42.9322 103.987C42.8557 104.04 42.8127 104.116 42.7888 104.231L42.7076 104.575L42.6264 104.919L42.5739 104.986C42.4879 105.091 42.4687 105.239 42.5261 105.363C41.2887 110.676 40.0465 115.993 38.8091 121.311L37.9874 124.846C37.4905 126.977 36.9936 129.108 36.4967 131.239C36.4729 131.344 36.5158 131.463 36.6066 131.549C36.6257 131.611 36.664 131.659 36.7165 131.697C37.3281 132.166 38.0208 132.51 38.7805 132.72C39.349 132.877 39.9462 132.959 40.5577 132.959C40.7249 132.959 40.8921 132.954 41.0546 132.94C41.1453 132.935 41.2266 132.887 41.2887 132.815C41.3556 132.734 41.3842 132.634 41.3747 132.538C41.4464 132.505 41.5276 132.433 41.5562 132.357L43.8447 124.904L46.1379 117.451L48.9949 108.158L49.8692 105.32C49.9552 105.239 49.9935 105.129 49.9744 105.024L50.0604 104.704L50.1511 104.413C50.1846 104.307 50.1941 104.231 50.1559 104.135C50.1225 104.049 50.0508 103.973 49.9648 103.935C49.9218 103.916 49.8692 103.906 49.8167 103.906C49.7689 103.906 49.7259 103.916 49.6877 103.93C49.6495 103.944 49.6113 103.968 49.5826 103.992L49.5539 103.94C49.3724 103.658 49.1001 103.419 48.7513 103.218C48.479 103.065 48.1397 102.96 47.7432 102.908C47.5712 102.888 47.4088 102.879 47.2463 102.879Z" fill="#2D2A8E"/>
  <path d="M123.105 101.799H90.264H56.4147H29.0772H28.1886H28.0357C27.9832 101.799 27.9402 101.809 27.8972 101.828C27.7873 101.837 27.6774 101.904 27.6105 102.004C27.3 102.468 27.1423 103.065 27.1567 103.734C27.171 104.35 27.3478 104.967 27.6535 105.473C27.6822 105.521 27.7204 105.564 27.7682 105.592C27.8351 105.65 27.9163 105.678 27.9975 105.678H52.6213H87.2971H120.253H123.215C123.239 105.64 123.268 105.597 123.287 105.559C123.344 105.459 123.397 105.354 123.44 105.248C123.497 105.105 123.545 104.962 123.583 104.809C123.616 104.675 123.64 104.546 123.664 104.408C123.664 104.403 123.664 104.403 123.664 104.398V104.403C123.664 104.393 123.664 104.388 123.664 104.379C123.688 104.178 123.702 103.978 123.698 103.772C123.693 103.581 123.679 103.385 123.655 103.194C123.655 103.204 123.659 103.218 123.659 103.228C123.631 103.017 123.593 102.807 123.535 102.602C123.483 102.42 123.425 102.248 123.354 102.076L123.363 102.105C123.315 101.995 123.263 101.89 123.21 101.789C123.206 101.789 123.206 101.789 123.201 101.789C123.167 101.785 123.134 101.789 123.105 101.799ZM123.669 104.379C123.669 104.388 123.669 104.393 123.669 104.398C123.664 104.388 123.669 104.384 123.669 104.379Z" fill="#9BAAFD"/>
  <path d="M112.719 79.4448C110.169 79.4448 108.102 81.4857 108.102 84.0033C108.102 86.5208 110.169 88.5618 112.719 88.5618C115.27 88.5618 117.337 86.5208 117.337 84.0033C117.337 81.4857 115.269 79.4448 112.719 79.4448ZM112.684 87.8156C110.577 87.8156 108.87 86.1296 108.87 84.0499C108.87 81.9702 110.577 80.2842 112.684 80.2842C114.791 80.2842 116.498 81.9702 116.498 84.0499C116.498 86.1296 114.791 87.8156 112.684 87.8156Z" fill="#FAAF3A"/>
  <path d="M115.705 84.8265C115.705 84.8252 115.705 84.8239 115.705 84.8228C115.705 84.7698 115.681 84.7264 115.647 84.6906C115.621 84.6635 115.588 84.6443 115.552 84.6352C115.516 84.626 115.477 84.6274 115.442 84.6391C115.406 84.6509 115.375 84.6724 115.351 84.7013C115.327 84.7303 115.312 84.7653 115.308 84.8024C115.02 85.9929 113.947 86.8774 112.668 86.8774C111.398 86.8774 110.332 86.0066 110.035 84.8303C110.033 84.8185 110.031 84.8069 110.027 84.7954C110.027 84.7945 110.027 84.7935 110.027 84.7926C110.015 84.7537 109.993 84.7186 109.964 84.6909C109.92 84.6504 109.863 84.6279 109.804 84.6279C109.744 84.6279 109.687 84.6504 109.644 84.6909C109.621 84.7122 109.603 84.7379 109.59 84.7665C109.578 84.7951 109.571 84.8259 109.571 84.8571C109.571 84.8727 109.573 84.8881 109.576 84.9033C109.578 84.9124 109.58 84.9214 109.583 84.9301C109.585 84.9357 109.587 84.9411 109.59 84.9465C109.966 86.2716 111.186 87.2424 112.634 87.2424C114.173 87.2424 115.422 86.2882 115.706 84.8343L115.704 84.8375C115.704 84.8338 115.705 84.8299 115.705 84.8265Z" fill="#FAAF3A"/>
  <path d="M106.398 80.4397H105.938V79.0684C105.938 78.3527 106.521 77.7705 107.237 77.7705H108.611V78.2294H107.237C107.015 78.2298 106.801 78.3183 106.644 78.4756C106.487 78.6329 106.398 78.8461 106.398 79.0684V80.4397Z" fill="#373737"/>
  <path d="M119.501 80.4397H119.042V79.0684C119.042 78.846 118.953 78.6327 118.796 78.4754C118.638 78.3181 118.424 78.2297 118.202 78.2294H116.828V77.7705H118.202C118.546 77.7709 118.877 77.9078 119.12 78.1511C119.364 78.3944 119.501 78.7243 119.501 79.0684V80.4397Z" fill="#373737"/>
  <path d="M108.611 90.2354H107.237C106.521 90.2354 105.938 89.6532 105.938 88.9375V87.5662H106.398V88.9375C106.398 89.1599 106.487 89.3731 106.644 89.5305C106.801 89.6878 107.015 89.7764 107.237 89.7767H108.611V90.2354Z" fill="#373737"/>
  <path d="M118.202 90.2354H116.828V89.7767H118.202C118.424 89.7765 118.638 89.688 118.796 89.5307C118.953 89.3734 119.042 89.1601 119.042 88.9377V87.5662H119.501V88.9375C119.501 89.2816 119.364 89.6115 119.12 89.8548C118.877 90.0982 118.546 90.235 118.202 90.2354Z" fill="#373737"/>
</svg>