<svg xmlns="http://www.w3.org/2000/svg" width="28" height="28" viewBox="0 0 28 28" fill="none">
<rect width="28" height="28" rx="14" fill="#E8F0FD"/>
<path fill-rule="evenodd" clip-rule="evenodd" d="M13.9831 9.24707H14.0005C18.0364 9.24707 21.6569 12.1406 21.6568 16.5476C21.6568 18.337 20.6842 19.546 19.3836 19.7775C18.0952 20.0069 16.7761 19.2191 16.2234 17.6447C16.1173 17.3425 16.0589 17.1039 16.0074 16.8936C15.899 16.4504 15.8212 16.1325 15.3921 15.6085C14.5588 14.5911 13.1981 14.7727 12.6371 15.5717C12.0476 16.4112 12.0132 17.4917 12.5887 18.6233C13.169 19.7642 14.3636 20.9235 16.1436 21.7685C16.4554 21.9165 16.5882 22.2893 16.4402 22.6011C16.2922 22.9129 15.9194 23.0457 15.6076 22.8977C13.6376 21.9625 12.2069 20.63 11.4745 19.1899C10.7374 17.7405 10.7031 16.1508 11.6141 14.8533C12.6542 13.3721 15.0055 13.1637 16.3591 14.8165C16.978 15.5721 17.1462 16.2509 17.2766 16.7773C17.3181 16.9446 17.3557 17.0965 17.4028 17.2306C17.7876 18.3265 18.5779 18.6513 19.1645 18.5469C19.7388 18.4446 20.4068 17.8734 20.4068 16.5476C20.4068 12.9499 17.4745 10.5052 14.0179 10.4971C12.1487 10.6046 10.7937 11.1759 9.83764 11.9725C8.87608 12.7736 8.27933 13.8348 7.98478 14.9789C7.68926 16.1267 7.70182 17.346 7.95193 18.4307C8.20357 19.5219 8.68379 20.4287 9.27468 20.9897C9.525 21.2274 9.53526 21.623 9.29759 21.8733C9.05992 22.1237 8.66433 22.1339 8.41401 21.8962C7.5987 21.1222 7.02425 19.9707 6.7339 18.7116C6.44203 17.4459 6.42527 16.0228 6.77425 14.6673C7.1242 13.308 7.84577 12.005 9.03751 11.0121C10.2317 10.0171 11.8595 9.36567 13.9657 9.24804L13.9831 9.24707Z" fill="#186ADE"/>
<path fill-rule="evenodd" clip-rule="evenodd" d="M20.1539 8.56493C16.639 5.52833 11.3606 5.53882 7.84532 8.56565C7.58375 8.79088 7.18912 8.76142 6.96389 8.49984C6.73866 8.23827 6.76813 7.84364 7.0297 7.61841C11.0119 4.18952 16.9849 4.17535 20.9711 7.61902C21.2323 7.84468 21.2611 8.23936 21.0355 8.50056C20.8098 8.76176 20.4151 8.79058 20.1539 8.56493Z" fill="#186ADE"/>
<path fill-rule="evenodd" clip-rule="evenodd" d="M20.9966 12.0229C17.4879 7.25295 10.4759 7.30479 7.00341 12.0229C6.7988 12.3009 6.40757 12.3604 6.12957 12.1558C5.85157 11.9512 5.79207 11.56 5.99668 11.282C9.96429 5.89111 17.9909 5.82718 22.0035 11.2822C22.208 11.5602 22.1484 11.9514 21.8704 12.156C21.5923 12.3605 21.2011 12.3009 20.9966 12.0229Z" fill="#186ADE"/>
<path fill-rule="evenodd" clip-rule="evenodd" d="M15.3747 12.9096C14.0147 12.4314 12.3857 12.7118 11.149 13.8859L11.149 13.8859C10.1173 14.8653 9.72913 15.9982 9.93005 17.2858C10.1375 18.615 10.985 20.1738 12.5847 21.9095C12.8186 22.1634 12.8025 22.5588 12.5487 22.7927C12.2948 23.0266 11.8994 23.0105 11.6655 22.7567C9.9839 20.9321 8.95634 19.1531 8.695 17.4785C8.42714 15.7621 8.97641 14.2249 10.2884 12.9794L10.7187 13.4326L10.2884 12.9794C11.8642 11.4833 13.9853 11.096 15.7893 11.7303C17.6081 12.3698 19.0504 14.0267 19.309 16.4822C19.3452 16.8255 19.0962 17.1331 18.7529 17.1692C18.4097 17.2054 18.1021 16.9564 18.0659 16.6131C17.8558 14.6183 16.72 13.3825 15.3747 12.9096Z" fill="#186ADE"/>
<path fill-rule="evenodd" clip-rule="evenodd" d="M14 15.4775C14.3452 15.4775 14.625 15.7574 14.625 16.1025C14.625 18.3867 16.1894 19.5653 18.018 20.4333C18.3299 20.5813 18.4626 20.9541 18.3146 21.266C18.1666 21.5778 17.7938 21.7106 17.482 21.5625C15.5606 20.6505 13.375 19.1588 13.375 16.1025C13.375 15.7574 13.6548 15.4775 14 15.4775Z" fill="#186ADE"/>
</svg>