<svg xmlns="http://www.w3.org/2000/svg" width="18" height="14" viewBox="0 0 18 14" fill="none">
<path fill-rule="evenodd" clip-rule="evenodd" d="M5.66536 4.2915C5.20513 4.2915 4.83203 4.6646 4.83203 5.12484C4.83203 5.58507 5.20513 5.95817 5.66536 5.95817C6.1256 5.95817 6.4987 5.58507 6.4987 5.12484C6.4987 4.6646 6.1256 4.2915 5.66536 4.2915ZM3.58203 5.12484C3.58203 3.97424 4.51477 3.0415 5.66536 3.0415C6.81596 3.0415 7.7487 3.97424 7.7487 5.12484C7.7487 6.27543 6.81596 7.20817 5.66536 7.20817C4.51477 7.20817 3.58203 6.27543 3.58203 5.12484Z" fill="#08979C"/>
<path fill-rule="evenodd" clip-rule="evenodd" d="M3.51767 8.27794C4.10798 7.82393 4.87933 7.625 5.66602 7.625C6.4527 7.625 7.22405 7.82393 7.81436 8.27794C8.42413 8.74691 8.79102 9.4525 8.79102 10.3333C8.79102 10.6785 8.51119 10.9583 8.16602 10.9583C7.82084 10.9583 7.54102 10.6785 7.54102 10.3333C7.54102 9.83202 7.34766 9.49594 7.0523 9.26878C6.73749 9.02666 6.25884 8.875 5.66602 8.875C5.07319 8.875 4.59454 9.02666 4.27973 9.26878C3.98437 9.49594 3.79102 9.83202 3.79102 10.3333C3.79102 10.6785 3.51119 10.9583 3.16602 10.9583C2.82084 10.9583 2.54102 10.6785 2.54102 10.3333C2.54102 9.4525 2.9079 8.74691 3.51767 8.27794Z" fill="#08979C"/>
<path fill-rule="evenodd" clip-rule="evenodd" d="M0.0410156 3.6665C0.0410156 1.94061 1.44013 0.541504 3.16602 0.541504H14.8327C16.5586 0.541504 17.9577 1.94061 17.9577 3.6665V10.3332C17.9577 12.0591 16.5586 13.4582 14.8327 13.4582H3.16602C1.44013 13.4582 0.0410156 12.0591 0.0410156 10.3332V3.6665ZM3.16602 1.7915C2.13048 1.7915 1.29102 2.63097 1.29102 3.6665V10.3332C1.29102 11.3687 2.13048 12.2082 3.16602 12.2082H14.8327C15.8682 12.2082 16.7077 11.3687 16.7077 10.3332V3.6665C16.7077 2.63097 15.8682 1.7915 14.8327 1.7915H3.16602Z" fill="#08979C"/>
<path fill-rule="evenodd" clip-rule="evenodd" d="M10.457 9.08301C10.457 8.73783 10.7369 8.45801 11.082 8.45801H15.2487C15.5939 8.45801 15.8737 8.73783 15.8737 9.08301C15.8737 9.42819 15.5939 9.70801 15.2487 9.70801H11.082C10.7369 9.70801 10.457 9.42819 10.457 9.08301Z" fill="#08979C"/>
<path fill-rule="evenodd" clip-rule="evenodd" d="M10.457 5.75C10.457 5.40482 10.7369 5.125 11.082 5.125H15.2487C15.5939 5.125 15.8737 5.40482 15.8737 5.75C15.8737 6.09518 15.5939 6.375 15.2487 6.375H11.082C10.7369 6.375 10.457 6.09518 10.457 5.75Z" fill="#08979C"/>
</svg>