<svg width="24" height="24" viewBox="0 0 24 24" fill="none" xmlns="http://www.w3.org/2000/svg">
    <path fill-rule="evenodd" clip-rule="evenodd"
        d="M10.1665 2.08542C7.76655 2.08542 5.78725 4.04354 5.78725 6.50003C5.78725 8.95652 7.76655 10.9146 10.1665 10.9146C12.5665 10.9146 14.5458 8.95652 14.5458 6.50003C14.5458 4.04354 12.5665 2.08542 10.1665 2.08542ZM4.6665 6.50003C4.6665 3.48082 7.11032 1 10.1665 1C13.2228 1 15.6666 3.48082 15.6666 6.50003C15.6666 9.51925 13.2228 12.0001 10.1665 12.0001C7.11032 12.0001 4.6665 9.51925 4.6665 6.50003Z"
        fill="#707070" />
    <path fill-rule="evenodd" clip-rule="evenodd"
        d="M4.56641 6.50006C4.56641 3.42605 7.05455 0.900024 10.1664 0.900024C13.2783 0.900024 15.7665 3.42605 15.7665 6.50006C15.7665 9.57406 13.2783 12.1001 10.1664 12.1001C7.05455 12.1001 4.56641 9.57406 4.56641 6.50006ZM10.1664 1.10002C7.16589 1.10002 4.76641 3.53563 4.76641 6.50006C4.76641 9.46448 7.16589 11.9001 10.1664 11.9001C13.167 11.9001 15.5665 9.46448 15.5665 6.50006C15.5665 3.53563 13.167 1.10002 10.1664 1.10002ZM10.1664 2.18544C7.82189 2.18544 5.88715 4.09858 5.88715 6.50006C5.88715 8.90153 7.82189 10.8147 10.1664 10.8147C12.511 10.8147 14.4457 8.90153 14.4457 6.50006C14.4457 4.09858 12.511 2.18544 10.1664 2.18544ZM5.68715 6.50006C5.68715 3.98854 7.71102 1.98544 10.1664 1.98544C12.6219 1.98544 14.6457 3.98854 14.6457 6.50006C14.6457 9.01157 12.6219 11.0147 10.1664 11.0147C7.71102 11.0147 5.68715 9.01157 5.68715 6.50006Z"
        fill="#707070" />
    <path
        d="M2.61351 15.2462C1.8559 16.8579 1.75764 18.7709 3.14415 20.0157C3.77719 20.5841 4.75306 21.056 5.96044 21.3889C7.16026 21.7197 8.55112 21.9028 9.97829 21.9201C11.4278 21.9377 12.9219 21.7294 13.8688 21.5364C14.8157 21.3434 14.8157 22.4061 14.2917 22.5418C13.7677 22.6776 11.5283 23.0184 9.96546 22.9994C8.4614 22.9811 6.97903 22.7885 5.67946 22.4302C4.38746 22.074 3.2378 21.5435 2.43503 20.8227C0.527057 19.1097 0.802369 16.5841 1.64904 14.783C2.07766 13.8712 2.67979 13.0734 3.31466 12.5713C3.90759 12.1023 4.75152 11.739 5.47006 12.2443C7.16423 13.4358 8.55737 14.047 10.0124 14.0785C11.4691 14.1101 13.0786 13.5626 15.2055 12.235C15.5576 11.9937 15.9627 11.9633 16.336 12.0462C16.706 12.1284 17.405 12.577 17.405 12.577C17.9584 12.9168 17.5001 13.8335 16.7668 13.4423C16.7668 13.4423 16.281 13.1391 16.1068 13.1004C15.9406 13.0635 15.8537 13.0939 15.8018 13.1304L15.79 13.1387L15.7777 13.1464C13.5674 14.5277 11.7451 15.1958 9.98945 15.1577C8.22967 15.1195 6.62811 14.3737 4.86019 13.1304C4.76453 13.0631 4.4926 13.0102 3.97269 13.4214C3.49473 13.7994 2.98704 14.4516 2.61351 15.2462Z"
        fill="#707070" />
    <path fill-rule="evenodd" clip-rule="evenodd"
        d="M4.32261 11.945C4.71956 11.8536 5.14054 11.8905 5.52737 12.1625C7.21468 13.3492 8.58817 13.9476 10.0143 13.9786C11.4426 14.0095 13.0319 13.4735 15.1505 12.1512C15.5307 11.8916 15.9651 11.8614 16.3574 11.9486C16.5585 11.9932 16.8376 12.1331 17.0575 12.2549C17.1695 12.3169 17.2696 12.3763 17.3417 12.4201C17.3778 12.4421 17.407 12.4601 17.4271 12.4728L17.4504 12.4875L17.4566 12.4914C17.7887 12.6953 17.814 13.0751 17.6534 13.3362C17.5726 13.4675 17.4434 13.5733 17.279 13.6166C17.1136 13.6602 16.9216 13.6384 16.7195 13.5306L16.7135 13.5274L16.7123 13.5264L16.7084 13.5239L16.693 13.5144C16.6796 13.5062 16.6602 13.4944 16.6364 13.48C16.5887 13.4513 16.5234 13.4127 16.4528 13.373C16.3821 13.3332 16.3071 13.2928 16.2397 13.2602C16.1699 13.2265 16.1161 13.205 16.0849 13.1981C15.9395 13.1658 15.8829 13.1954 15.8592 13.2121L15.8428 13.2236L15.8305 13.2312C15.8305 13.2312 15.8305 13.2312 15.8305 13.2312C13.6129 14.6171 11.7708 15.2963 9.98707 15.2577C8.19844 15.2189 6.57722 14.4604 4.80245 13.2121C4.76384 13.185 4.545 13.096 4.03451 13.4998C3.5712 13.8663 3.07225 14.505 2.7038 15.2888C1.95456 16.8826 1.87223 18.7395 3.21074 19.9413C3.82791 20.4954 4.78746 20.9618 5.98681 21.2925C7.1772 21.6207 8.5594 21.8028 9.97929 21.8201C11.4198 21.8376 12.9066 21.6304 13.8487 21.4384C14.1027 21.3866 14.3072 21.4164 14.4591 21.5071C14.6115 21.5981 14.6984 21.7429 14.7296 21.8958C14.7898 22.1901 14.6449 22.5536 14.3166 22.6386C13.7841 22.7766 11.5358 23.1185 9.96403 23.0994C8.45269 23.081 6.96166 22.8875 5.65267 22.5266C4.35263 22.1682 3.18666 21.6321 2.368 20.8971C0.411539 19.1406 0.7037 16.5585 1.55833 14.7404C1.99201 13.8178 2.60288 13.0066 3.25241 12.4928C3.55586 12.2528 3.92841 12.0357 4.32261 11.945ZM4.36747 12.1399C4.01184 12.2217 3.66597 12.4207 3.37648 12.6497C2.75626 13.1403 2.16288 13.9245 1.73932 14.8255C0.900609 16.6097 0.642146 19.0788 2.50162 20.7483C3.28852 21.4548 4.42186 21.9798 5.70583 22.3338C6.99597 22.6895 8.46968 22.8812 9.96646 22.8994C11.5204 22.9183 13.751 22.5786 14.2664 22.445C14.4622 22.3943 14.5792 22.1586 14.5337 21.9359C14.5121 21.8302 14.4542 21.7371 14.3566 21.6789C14.2586 21.6203 14.108 21.5897 13.8886 21.6344C12.9368 21.8283 11.4354 22.0378 9.97686 22.0201C8.54241 22.0027 7.14289 21.8187 5.93365 21.4853C4.71824 21.1502 3.72604 20.6727 3.07712 20.0901C1.64263 18.8022 1.75681 16.8332 2.5228 15.2037C2.90139 14.3983 3.41784 13.7326 3.91044 13.3429C4.43977 12.9243 4.76479 12.9411 4.91751 13.0486C6.67856 14.2871 8.26047 15.0202 9.99141 15.0577C11.719 15.0952 13.5215 14.4383 15.7245 13.0616L15.7345 13.0553L15.7441 13.0486C15.824 12.9924 15.9413 12.9613 16.1283 13.0028C16.1843 13.0152 16.2565 13.0462 16.3268 13.0801C16.3994 13.1153 16.4785 13.1579 16.551 13.1988C16.6237 13.2397 16.6907 13.2793 16.7395 13.3087C16.7639 13.3233 16.7838 13.3355 16.7977 13.344L16.8137 13.3539L16.8165 13.3556C16.9797 13.442 17.1191 13.4519 17.228 13.4232C17.3385 13.3941 17.4268 13.3228 17.483 13.2313C17.5965 13.0469 17.5738 12.7981 17.3525 12.6622L17.3508 12.6611L17.349 12.66L17.3433 12.6563L17.321 12.6423C17.3015 12.6301 17.2731 12.6124 17.2379 12.591C17.1674 12.5482 17.0696 12.4903 16.9606 12.4299C16.7385 12.3068 16.4831 12.1813 16.3141 12.1438C15.9604 12.0653 15.5855 12.0956 15.2618 12.3175L15.2582 12.3199C13.1241 13.6521 11.4947 14.2107 10.01 14.1785C8.52615 14.1463 7.11335 13.5225 5.41231 12.3261C5.08061 12.0928 4.72035 12.0587 4.36747 12.1399Z"
        fill="#707070" />
    <path fill-rule="evenodd" clip-rule="evenodd"
        d="M18.5 21.8C20.3225 21.8 21.8 20.3225 21.8 18.5C21.8 16.6775 20.3225 15.2 18.5 15.2C16.6775 15.2 15.2 16.6775 15.2 18.5C15.2 20.3225 16.6775 21.8 18.5 21.8ZM18.5 23C20.9853 23 23 20.9853 23 18.5C23 16.0147 20.9853 14 18.5 14C16.0147 14 14 16.0147 14 18.5C14 20.9853 16.0147 23 18.5 23Z"
        fill="#FF3434" />
    <path fill-rule="evenodd" clip-rule="evenodd"
        d="M16.3999 18.5C16.3999 18.1687 16.6685 17.9 16.9999 17.9H19.9999C20.3313 17.9 20.5999 18.1687 20.5999 18.5C20.5999 18.8314 20.3313 19.1 19.9999 19.1H16.9999C16.6685 19.1 16.3999 18.8314 16.3999 18.5Z"
        fill="#FF3434" />
</svg>
    