<svg width="32" height="32" viewBox="0 0 32 32" fill="none" xmlns="http://www.w3.org/2000/svg">
<path fill-rule="evenodd" clip-rule="evenodd" d="M24.6676 7.46646C23.6137 7.46646 22.6597 7.88698 21.9615 8.57118C21.6459 8.88042 21.1394 8.87528 20.8302 8.55971C20.5209 8.24414 20.5261 7.73763 20.8416 7.4284C21.8268 6.46301 23.1783 5.86646 24.6676 5.86646C27.6867 5.86646 30.1342 8.31396 30.1342 11.3331C30.1342 12.9805 29.4045 14.4584 28.2534 15.4595C27.92 15.7494 27.4147 15.7142 27.1248 15.3808C26.8349 15.0474 26.8701 14.5421 27.2035 14.2521C28.02 13.542 28.5342 12.4981 28.5342 11.3331C28.5342 9.19762 26.8031 7.46646 24.6676 7.46646Z" fill="#FFCD29"/>
<path fill-rule="evenodd" clip-rule="evenodd" d="M8.01035 16.0074C8.70517 16.0857 9.38237 16.2842 10.0118 16.5956C10.4078 16.7914 10.5701 17.2713 10.3742 17.6673C10.1783 18.0633 9.69849 18.2256 9.30246 18.0297C8.71504 17.7392 8.07133 17.5823 7.41636 17.5702H7.38623C2.16568 17.9717 2.15599 25.4633 7.38631 25.8664H22.1945C23.801 25.8781 25.3449 25.2896 26.5187 24.2222L26.5325 24.2098C29.1913 21.9025 29.0651 17.9441 26.957 15.4774L26.9544 15.4744C26.0891 14.4517 24.8981 13.7186 23.4288 13.4805C23.4169 13.4813 23.4049 13.4818 23.3928 13.482C22.7356 13.4932 22.0898 13.6501 21.5004 13.9416C21.1043 14.1375 20.6245 13.9752 20.4286 13.5792C20.2327 13.1832 20.395 12.7033 20.791 12.5074C21.2887 12.2613 21.8162 12.0856 22.3587 11.9842C22.0154 10.5765 21.4372 9.46097 20.7283 8.59948C20.706 8.5723 20.6855 8.54382 20.6671 8.51423C18.3546 5.83029 14.4497 5.51339 11.4528 7.06663C9.95638 7.84219 8.73442 9.0657 8.08501 10.6366C7.48514 12.0877 7.35049 13.8913 8.01035 16.0074ZM23.9936 11.9576C25.7176 12.3088 27.137 13.2136 28.1747 14.4395C30.7446 17.4483 31.02 22.4273 27.5882 25.4123C26.1156 26.7482 24.1863 27.4802 22.186 27.4664H7.35656C7.33739 27.4664 7.31822 27.4657 7.29909 27.4643C0.397466 26.9672 0.0558821 17.4077 6.36998 16.0998C5.73889 13.8185 5.88853 11.7619 6.60638 10.0254C7.41811 8.06178 8.92953 6.57227 10.7165 5.64609C14.258 3.81058 19.0743 4.11445 21.9598 7.56472C21.9871 7.59743 22.0117 7.6321 22.0333 7.66834C22.9355 8.79343 23.623 10.2194 23.9936 11.9576Z" fill="#3078F1"/>
</svg>
