<svg width="20" height="20" viewBox="0 0 20 20" fill="none" xmlns="http://www.w3.org/2000/svg">
<path d="M5.83366 7.29175H3.33366C2.06699 7.29175 1.04199 6.26675 1.04199 5.00008V3.33341C1.04199 2.06675 2.06699 1.04175 3.33366 1.04175H5.83366C7.10033 1.04175 8.12533 2.06675 8.12533 3.33341V5.00008C8.12533 6.26675 7.10033 7.29175 5.83366 7.29175ZM3.33366 2.29175C2.75866 2.29175 2.29199 2.75841 2.29199 3.33341V5.00008C2.29199 5.57508 2.75866 6.04175 3.33366 6.04175H5.83366C6.40866 6.04175 6.87533 5.57508 6.87533 5.00008V3.33341C6.87533 2.75841 6.40866 2.29175 5.83366 2.29175H3.33366Z" fill="#141414"/>
<path d="M17.333 6.45833H14.333C13.433 6.45833 12.708 5.72499 12.708 4.83332V3.50001C12.708 2.60001 13.4413 1.875 14.333 1.875H17.333C18.233 1.875 18.958 2.60834 18.958 3.50001V4.83332C18.958 5.73332 18.233 6.45833 17.333 6.45833ZM14.333 3.125C14.133 3.125 13.958 3.30001 13.958 3.50001V4.83332C13.958 5.03332 14.133 5.20833 14.333 5.20833H17.333C17.533 5.20833 17.708 5.03332 17.708 4.83332V3.50001C17.708 3.30001 17.533 3.125 17.333 3.125H14.333Z" fill="#141414"/>
<path d="M17.333 12.7083H14.333C13.433 12.7083 12.708 11.975 12.708 11.0833V9.75001C12.708 8.85001 13.4413 8.125 14.333 8.125H17.333C18.233 8.125 18.958 8.85834 18.958 9.75001V11.0833C18.958 11.9833 18.233 12.7083 17.333 12.7083ZM14.333 9.375C14.133 9.375 13.958 9.55001 13.958 9.75001V11.0833C13.958 11.2833 14.133 11.4583 14.333 11.4583H17.333C17.533 11.4583 17.708 11.2833 17.708 11.0833V9.75001C17.708 9.55001 17.533 9.375 17.333 9.375H14.333Z" fill="#141414"/>
<path d="M13.3333 4.79175H7.5C7.15833 4.79175 6.875 4.50841 6.875 4.16675C6.875 3.82508 7.15833 3.54175 7.5 3.54175H13.3333C13.675 3.54175 13.9583 3.82508 13.9583 4.16675C13.9583 4.50841 13.675 4.79175 13.3333 4.79175Z" fill="#141414"/>
<path d="M13.3337 17.2917H12.0837C10.817 17.2917 9.79199 16.2667 9.79199 15.0001V4.16675C9.79199 3.82508 10.0753 3.54175 10.417 3.54175C10.7587 3.54175 11.042 3.82508 11.042 4.16675V15.0001C11.042 15.5751 11.5087 16.0417 12.0837 16.0417H13.3337C13.6753 16.0417 13.9587 16.3251 13.9587 16.6667C13.9587 17.0084 13.6753 17.2917 13.3337 17.2917Z" fill="#141414"/>
<path d="M13.3337 11.0417H10.417C10.0753 11.0417 9.79199 10.7584 9.79199 10.4167C9.79199 10.0751 10.0753 9.79175 10.417 9.79175H13.3337C13.6753 9.79175 13.9587 10.0751 13.9587 10.4167C13.9587 10.7584 13.6753 11.0417 13.3337 11.0417Z" fill="#141414"/>
<path d="M17.333 18.9583H14.333C13.433 18.9583 12.708 18.225 12.708 17.3333V16C12.708 15.1 13.4413 14.375 14.333 14.375H17.333C18.233 14.375 18.958 15.1083 18.958 16V17.3333C18.958 18.2333 18.233 18.9583 17.333 18.9583ZM14.333 15.625C14.133 15.625 13.958 15.8 13.958 16V17.3333C13.958 17.5333 14.133 17.7083 14.333 17.7083H17.333C17.533 17.7083 17.708 17.5333 17.708 17.3333V16C17.708 15.8 17.533 15.625 17.333 15.625H14.333Z" fill="#141414"/>
</svg>
