<svg width="20" height="20" viewBox="0 0 20 20" fill="none" xmlns="http://www.w3.org/2000/svg">
<path fill-rule="evenodd" clip-rule="evenodd" d="M3.05685 8.05661C2.57516 8.5383 2.29199 9.35339 2.29199 10.7501V14.2501C2.29199 15.6468 2.57516 16.4619 3.05685 16.9436C3.53854 17.4253 4.35364 17.7084 5.75033 17.7084H9.25033C10.647 17.7084 11.4621 17.4253 11.9438 16.9436C12.4255 16.4619 12.7087 15.6468 12.7087 14.2501V10.7501C12.7087 9.35339 12.4255 8.5383 11.9438 8.05661C11.4621 7.57491 10.647 7.29175 9.25033 7.29175H5.75033C4.35364 7.29175 3.53854 7.57491 3.05685 8.05661ZM2.17297 7.17272C3.00377 6.34192 4.23035 6.04175 5.75033 6.04175H9.25033C10.7703 6.04175 11.9969 6.34192 12.8277 7.17272C13.6585 8.00353 13.9587 9.2301 13.9587 10.7501V14.2501C13.9587 15.7701 13.6585 16.9966 12.8277 17.8274C11.9969 18.6582 10.7703 18.9584 9.25033 18.9584H5.75033C4.23035 18.9584 3.00377 18.6582 2.17297 17.8274C1.34216 16.9966 1.04199 15.7701 1.04199 14.2501V10.7501C1.04199 9.2301 1.34216 8.00353 2.17297 7.17272Z" fill="#141414"/>
<path fill-rule="evenodd" clip-rule="evenodd" d="M8.05685 3.05661C7.57516 3.5383 7.29199 4.35339 7.29199 5.75008V6.04175H9.25033C10.7703 6.04175 11.9969 6.34192 12.8277 7.17272C13.6585 8.00353 13.9587 9.2301 13.9587 10.7501V12.7084H14.2503C15.647 12.7084 16.4621 12.4252 16.9438 11.9436C17.4255 11.4619 17.7087 10.6468 17.7087 9.25008V5.75008C17.7087 4.35339 17.4255 3.5383 16.9438 3.05661C16.4621 2.57491 15.647 2.29175 14.2503 2.29175H10.7503C9.35364 2.29175 8.53854 2.57491 8.05685 3.05661ZM7.17297 2.17272C8.00377 1.34192 9.23035 1.04175 10.7503 1.04175H14.2503C15.7703 1.04175 16.9969 1.34192 17.8277 2.17272C18.6585 3.00353 18.9587 4.2301 18.9587 5.75008V9.25008C18.9587 10.7701 18.6585 11.9966 17.8277 12.8274C16.9969 13.6582 15.7703 13.9584 14.2503 13.9584H13.3337C12.9885 13.9584 12.7087 13.6786 12.7087 13.3334V10.7501C12.7087 9.35339 12.4255 8.5383 11.9438 8.05661C11.4621 7.57491 10.647 7.29175 9.25033 7.29175H6.66699C6.32181 7.29175 6.04199 7.01193 6.04199 6.66675V5.75008C6.04199 4.2301 6.34216 3.00353 7.17297 2.17272Z" fill="#141414"/>
</svg>
