<svg width="20" height="20" viewBox="0 0 20 20" fill="none" xmlns="http://www.w3.org/2000/svg">
<path fill-rule="evenodd" clip-rule="evenodd" d="M13.0345 6.8332C13.2786 7.07728 13.2786 7.47301 13.0345 7.71709L7.58452 13.1671C7.34044 13.4111 6.94471 13.4111 6.70064 13.1671C6.45656 12.923 6.45656 12.5273 6.70064 12.2832L12.1506 6.8332C12.3947 6.58913 12.7904 6.58913 13.0345 6.8332Z" fill="#141414"/>
<path fill-rule="evenodd" clip-rule="evenodd" d="M7.48399 7.2168C7.26308 7.2168 7.08398 7.39589 7.08398 7.61681C7.08398 7.8377 7.26306 8.01679 7.48399 8.01679C7.70491 8.01679 7.88398 7.83772 7.88398 7.61681C7.88398 7.39587 7.70489 7.2168 7.48399 7.2168ZM5.83398 7.61681C5.83398 6.70554 6.57272 5.9668 7.48399 5.9668C8.39528 5.9668 9.13398 6.70556 9.13398 7.61681C9.13398 8.52808 8.39526 9.26679 7.48399 9.26679C6.57274 9.26679 5.83398 8.5281 5.83398 7.61681Z" fill="#141414"/>
<path fill-rule="evenodd" clip-rule="evenodd" d="M12.9332 11.9834C12.7123 11.9834 12.5332 12.1625 12.5332 12.3834C12.5332 12.6043 12.7123 12.7834 12.9332 12.7834C13.1541 12.7834 13.3332 12.6043 13.3332 12.3834C13.3332 12.1625 13.1541 11.9834 12.9332 11.9834ZM11.2832 12.3834C11.2832 11.4721 12.0219 10.7334 12.9332 10.7334C13.8444 10.7334 14.5832 11.4721 14.5832 12.3834C14.5832 13.2947 13.8445 14.0334 12.9332 14.0334C12.0219 14.0334 11.2832 13.2946 11.2832 12.3834Z" fill="#141414"/>
<path fill-rule="evenodd" clip-rule="evenodd" d="M10.0003 2.29175C5.74313 2.29175 2.29199 5.74289 2.29199 10.0001C2.29199 14.2573 5.74313 17.7084 10.0003 17.7084C14.2575 17.7084 17.7087 14.2573 17.7087 10.0001C17.7087 5.74289 14.2575 2.29175 10.0003 2.29175ZM1.04199 10.0001C1.04199 5.05253 5.05277 1.04175 10.0003 1.04175C14.9479 1.04175 18.9587 5.05253 18.9587 10.0001C18.9587 14.9476 14.9479 18.9584 10.0003 18.9584C5.05277 18.9584 1.04199 14.9476 1.04199 10.0001Z" fill="#141414"/>
</svg>
