<svg width="18" height="18" viewBox="0 0 18 18" fill="none" xmlns="http://www.w3.org/2000/svg">
<path fill-rule="evenodd" clip-rule="evenodd" d="M9.59451 0.922578C9.82805 0.82584 10.0969 0.879313 10.2756 1.05806L17.7756 8.55806C18.0197 8.80214 18.0197 9.19787 17.7756 9.44195L10.2756 16.9419C10.0969 17.1207 9.82805 17.1742 9.59451 17.0774C9.36096 16.9807 9.20868 16.7528 9.20868 16.5V12.0651C8.17838 12.0264 6.86406 12.3095 5.50086 12.9059C3.90788 13.6029 2.322 14.6962 1.14155 16.0734C0.962576 16.2822 0.668145 16.3495 0.416242 16.2392C0.164339 16.1288 0.014164 15.8668 0.0462967 15.5936C0.483084 11.881 2.13536 9.53839 4.0964 8.08162C5.81715 6.80335 7.7416 6.23126 9.20868 5.96774V1.5C9.20868 1.24721 9.36096 1.01932 9.59451 0.922578ZM10.4587 3.00889V6.5C10.4587 6.81104 10.23 7.07474 9.92207 7.11872C8.5159 7.3196 6.54786 7.8177 4.8418 9.08505C3.50515 10.078 2.30199 11.5624 1.6638 13.8167C2.69506 12.9588 3.849 12.2642 4.99984 11.7607C6.72713 11.005 8.52227 10.6478 9.93643 10.8835C10.2378 10.9337 10.4587 11.1945 10.4587 11.5V14.9911L16.4498 9L10.4587 3.00889Z" fill="#141414"/>
</svg>
