<svg width="20" height="20" viewBox="0 0 20 20" fill="none" xmlns="http://www.w3.org/2000/svg">
<path fill-rule="evenodd" clip-rule="evenodd" d="M10.0003 2.29175C5.7138 2.29175 2.29199 5.74363 2.29199 10.0001C2.29199 10.3453 2.01217 10.6251 1.66699 10.6251C1.32181 10.6251 1.04199 10.3453 1.04199 10.0001C1.04199 5.05653 5.02019 1.04175 10.0003 1.04175C12.9651 1.04175 15.1852 2.28008 16.6517 3.50348C17.0612 3.84509 17.4135 4.18662 17.7087 4.50176V2.13341C17.7087 1.78824 17.9885 1.50841 18.3337 1.50841C18.6788 1.50841 18.9587 1.78824 18.9587 2.13341V6.30008C18.9587 6.64526 18.6788 6.92508 18.3337 6.92508H14.6337C14.2885 6.92508 14.0087 6.64526 14.0087 6.30008C14.0087 5.9549 14.2885 5.67508 14.6337 5.67508H17.0831C16.772 5.31458 16.3611 4.88889 15.851 4.46335C14.5405 3.37008 12.5939 2.29175 10.0003 2.29175ZM18.3337 9.37508C18.6788 9.37508 18.9587 9.6549 18.9587 10.0001C18.9587 14.9453 14.9455 18.9584 10.0003 18.9584C7.48328 18.9584 5.4874 17.6916 4.15127 16.4797C3.79661 16.158 3.48445 15.8367 3.21699 15.538V17.8667C3.21699 18.2119 2.93717 18.4917 2.59199 18.4917C2.24681 18.4917 1.96699 18.2119 1.96699 17.8667V13.7001C1.96699 13.3549 2.24681 13.0751 2.59199 13.0751H6.35866C6.70384 13.0751 6.98366 13.3549 6.98366 13.7001C6.98366 14.0453 6.70384 14.3251 6.35866 14.3251H3.82291C4.12357 14.6906 4.51568 15.1226 4.99105 15.5538C6.20909 16.6586 7.91738 17.7084 10.0003 17.7084C14.2551 17.7084 17.7087 14.2549 17.7087 10.0001C17.7087 9.6549 17.9885 9.37508 18.3337 9.37508Z" fill="#141414"/>
</svg>
