<svg xmlns="http://www.w3.org/2000/svg" width="33.746" height="33.746" viewBox="0 0 33.746 33.746">
  <path id="Icon_awesome-check-circle" data-name="Icon awesome-check-circle" d="M34.309,17.436A16.873,16.873,0,1,1,17.436.563,16.873,16.873,0,0,1,34.309,17.436ZM15.484,26.37,28,13.851a1.089,1.089,0,0,0,0-1.539l-1.539-1.539a1.089,1.089,0,0,0-1.54,0L14.714,20.981,9.948,16.215a1.089,1.089,0,0,0-1.54,0L6.869,17.754a1.089,1.089,0,0,0,0,1.539l7.076,7.076A1.089,1.089,0,0,0,15.484,26.37Z" transform="translate(-0.563 -0.563)" fill="#f9ba09"/>
</svg>
