<svg width="32" height="32" viewBox="0 0 32 32" fill="none" xmlns="http://www.w3.org/2000/svg">
<g id="Camera Icon">
<g id="Vector">
<path d="M27.668 23.111C27.668 24.0929 26.9218 24.8888 26.0013 24.8888H6.0013C5.08083 24.8888 4.33464 24.0929 4.33464 23.111V12.4444C4.33464 11.4625 5.08083 10.6666 6.0013 10.6666H7.95392C9.28001 10.6666 10.5518 10.1047 11.4895 9.10449L12.8702 7.63173C13.1827 7.29833 13.6067 7.11103 14.0487 7.11103H17.9539C18.396 7.11103 18.8199 7.29833 19.1324 7.63173L20.5131 9.10449C21.4508 10.1047 22.7226 10.6666 24.0487 10.6666H26.0013C26.9218 10.6666 27.668 11.4625 27.668 12.4444V23.111ZM6.0013 8.88881C4.16035 8.88881 2.66797 10.4807 2.66797 12.4444V23.111C2.66797 25.0747 4.16035 26.6666 6.0013 26.6666H26.0013C27.8423 26.6666 29.3346 25.0747 29.3346 23.111V12.4444C29.3346 10.4807 27.8423 8.88881 26.0013 8.88881H24.0487C23.1646 8.88881 22.3168 8.51421 21.6917 7.84741L20.3109 6.37465C19.6858 5.70785 18.838 5.33325 17.9539 5.33325H14.0487C13.1646 5.33325 12.3168 5.70785 11.6917 6.37465L10.3109 7.84741C9.68583 8.51421 8.83798 8.88881 7.95392 8.88881H6.0013Z" fill="#707070"/>
<path d="M16.0013 21.3333C13.7001 21.3333 11.8346 19.3434 11.8346 16.8888C11.8346 14.4342 13.7001 12.4444 16.0013 12.4444C18.3025 12.4444 20.168 14.4342 20.168 16.8888C20.168 19.3434 18.3025 21.3333 16.0013 21.3333ZM16.0013 23.111C19.223 23.111 21.8346 20.3252 21.8346 16.8888C21.8346 13.4524 19.223 10.6666 16.0013 10.6666C12.7796 10.6666 10.168 13.4524 10.168 16.8888C10.168 20.3252 12.7796 23.111 16.0013 23.111Z" fill="#707070"/>
<path d="M7.66797 13.3333C7.66797 13.8242 7.29487 14.2221 6.83464 14.2221C6.3744 14.2221 6.0013 13.8242 6.0013 13.3333C6.0013 12.8423 6.3744 12.4444 6.83464 12.4444C7.29487 12.4444 7.66797 12.8423 7.66797 13.3333Z" fill="#707070"/>
</g>
</g>
</svg>
