<svg width="30" height="30" viewBox="0 0 30 30" fill="none" xmlns="http://www.w3.org/2000/svg">
<path fill-rule="evenodd" clip-rule="evenodd" d="M10.9999 7.8002C9.96894 7.8002 9.1332 8.63593 9.1332 9.66686C9.1332 10.6978 9.96894 11.5335 10.9999 11.5335C12.0308 11.5335 12.8665 10.6978 12.8665 9.66686C12.8665 8.63593 12.0308 7.8002 10.9999 7.8002ZM7.5332 9.66686C7.5332 7.75227 9.08528 6.2002 10.9999 6.2002C12.9145 6.2002 14.4665 7.75227 14.4665 9.66686C14.4665 11.5814 12.9145 13.1335 10.9999 13.1335C9.08528 13.1335 7.5332 11.5814 7.5332 9.66686Z" fill="#333333"/>
<path fill-rule="evenodd" clip-rule="evenodd" d="M25.5302 16.2819C24.7287 15.6369 23.3905 15.6395 22.5933 16.2897L16.7547 21.0477C15.3656 22.1808 13.1746 22.1808 11.7855 21.0477L11.7785 21.0421L11.3189 20.6584C10.8415 20.2693 10.5457 20.1135 10.3136 20.0715C10.1299 20.0382 9.87932 20.058 9.44372 20.3326L2.79204 24.9888C2.43008 25.2422 1.93126 25.1541 1.67789 24.7922C1.42451 24.4302 1.51254 23.9314 1.8745 23.678L8.54117 19.0114C8.55067 19.0047 8.56032 18.9983 8.5701 18.992C9.23465 18.5687 9.89648 18.37 10.5985 18.497C11.2536 18.6156 11.8166 18.9996 12.3337 19.4214L12.3406 19.427L12.8 19.8105C13.6007 20.4607 14.9441 20.4599 15.7434 19.8079L21.582 15.0499C21.5819 15.05 21.5821 15.0498 21.582 15.0499C22.9711 13.917 25.1622 13.9169 26.5512 15.0499C26.5582 15.0556 26.5652 15.0615 26.572 15.0675L28.8599 17.0672C29.1925 17.358 29.2265 17.8634 28.9357 18.196C28.6449 18.5287 28.1395 18.5626 27.8069 18.2719L25.5302 16.2819Z" fill="#333333"/>
<path fill-rule="evenodd" clip-rule="evenodd" d="M0.866211 7.00003C0.866211 3.61269 3.6122 0.866699 6.99954 0.866699H22.9995C26.3869 0.866699 29.1329 3.61269 29.1329 7.00003V23C29.1329 26.3874 26.3869 29.1334 22.9995 29.1334H6.99954C3.6122 29.1334 0.866211 26.3874 0.866211 23V7.00003ZM6.99954 2.4667C4.49585 2.4667 2.46621 4.49634 2.46621 7.00003V23C2.46621 25.5037 4.49585 27.5334 6.99954 27.5334H22.9995C25.5032 27.5334 27.5329 25.5037 27.5329 23V7.00003C27.5329 4.49634 25.5032 2.4667 22.9995 2.4667H6.99954Z" fill="#333333"/>
</svg>
