<svg xmlns="http://www.w3.org/2000/svg" width="12.347" height="12.347" viewBox="0 0 12.347 12.347">
  <path id="Icon_awesome-check-circle" data-name="Icon awesome-check-circle" d="M12.21,6.386A5.824,5.824,0,1,1,6.386.563,5.824,5.824,0,0,1,12.21,6.386ZM5.713,9.47l4.321-4.321a.376.376,0,0,0,0-.531L9.5,4.086a.376.376,0,0,0-.531,0L5.447,7.61,3.8,5.965a.376.376,0,0,0-.531,0L2.739,6.5a.376.376,0,0,0,0,.531L5.181,9.47A.376.376,0,0,0,5.713,9.47Z" transform="translate(-0.212 -0.213)" fill="none" stroke="#f9ba09" stroke-width="0.7"/>
</svg>
