<svg width="22" height="22" viewBox="0 0 22 22" fill="none" xmlns="http://www.w3.org/2000/svg">
<path fill-rule="evenodd" clip-rule="evenodd" d="M1.72513 0.406251C2.00821 0.380621 2.29593 0.432738 2.55158 0.559998L2.55454 0.561471L20.8217 9.78065C20.8221 9.78088 20.8226 9.78111 20.8231 9.78134C21.0476 9.89358 21.2429 10.0619 21.3826 10.2754C21.523 10.49 21.6004 10.7403 21.6004 10.9999C21.6004 11.2595 21.523 11.5098 21.3826 11.7244C21.2429 11.9378 21.0477 12.1061 20.8233 12.2184C20.8227 12.2186 20.8222 12.2189 20.8217 12.2191L2.55453 21.4383L2.55158 21.4398C2.29593 21.5671 2.00821 21.6192 1.72513 21.5935C1.44202 21.5679 1.16769 21.4648 0.939895 21.2902C0.711483 21.115 0.537906 20.8735 0.454411 20.5918C0.370699 20.3093 0.384785 20.0097 0.49315 19.7365M0.49315 19.7365L3.93293 11.0423C3.93626 11.0339 3.93977 11.0256 3.94348 11.0173C3.94693 11.0097 3.94768 11.004 3.94768 10.9999C3.94768 10.9958 3.94693 10.9901 3.94348 10.9825C3.93977 10.9742 3.93626 10.9659 3.93293 10.9575L0.493503 2.2642C0.493437 2.26403 0.493569 2.26436 0.493503 2.2642C0.384996 1.9909 0.370659 1.69064 0.454411 1.40801C0.537906 1.12626 0.711483 0.884752 0.939895 0.709628C1.16769 0.534977 1.44202 0.431883 1.72513 0.406251M20.554 10.3177L20.2836 10.8533L2.01682 1.63426C2.01646 1.63408 2.0161 1.6339 2.01574 1.63372C1.96379 1.60812 1.89966 1.59536 1.83333 1.60136C1.76658 1.60741 1.71004 1.63126 1.67003 1.66194C1.63064 1.69214 1.61218 1.7246 1.60496 1.74896C1.59805 1.77228 1.59876 1.79609 1.60864 1.82094L5.04457 10.5054C5.18206 10.8221 5.18206 11.1777 5.04457 11.4944L1.60899 20.178C1.59911 20.2028 1.59805 20.2275 1.60496 20.2508C1.61218 20.2752 1.63064 20.3077 1.67003 20.3379C1.71004 20.3685 1.76658 20.3924 1.83333 20.3984C1.89972 20.4044 1.96391 20.3916 2.01588 20.366C2.01619 20.3659 2.01651 20.3657 2.01682 20.3655L20.2836 11.1465L20.2863 11.1452C20.3317 11.1226 20.3613 11.0935 20.3784 11.0674C20.395 11.042 20.4004 11.0189 20.4004 10.9999C20.4004 10.9809 20.395 10.9578 20.3784 10.9324C20.3613 10.9063 20.3317 10.8772 20.2863 10.8546L20.554 10.3177Z" fill="#333333"/>
<path fill-rule="evenodd" clip-rule="evenodd" d="M4.40039 10.9999C4.40039 10.6685 4.66902 10.3999 5.00039 10.3999H12.0004C12.3318 10.3999 12.6004 10.6685 12.6004 10.9999C12.6004 11.3313 12.3318 11.5999 12.0004 11.5999H5.00039C4.66902 11.5999 4.40039 11.3313 4.40039 10.9999Z" fill="#333333"/>
</svg>
