<svg xmlns="http://www.w3.org/2000/svg" width="30" height="26.626" viewBox="0 0 30 26.626">
  <path id="bell-slash" d="M23.189,12.66a13.32,13.32,0,0,0,4.428,8.261,1.928,1.928,0,0,1-1.9,1.9H19.058a3.8,3.8,0,0,1-3.8,3.8,3.655,3.655,0,0,1-2.682-1.107,3.705,3.705,0,0,1-1.122-2.681ZM15.254,25.438a.238.238,0,0,0,0-.475,2.156,2.156,0,0,1-2.139-2.14.238.238,0,1,0-.475,0,2.613,2.613,0,0,0,2.614,2.615ZM30.142,1.664a.509.509,0,0,1,.112.349.456.456,0,0,1-.156.334L2.283,26.448a.48.48,0,0,1-.349.1.434.434,0,0,1-.32-.163L.365,24.962a.509.509,0,0,1-.112-.349.41.41,0,0,1,.156-.32L3.174,21.9a1.9,1.9,0,0,1-.282-.981,13.028,13.028,0,0,0,1.352-1.308,11.771,11.771,0,0,0,1.263-1.776,13.4,13.4,0,0,0,1.107-2.355,17.254,17.254,0,0,0,.743-3.061,24.357,24.357,0,0,0,.289-3.863,6.178,6.178,0,0,1,1.739-4.2,7.346,7.346,0,0,1,4.561-2.355,1.477,1.477,0,0,1-.119-.58,1.375,1.375,0,0,1,.416-1.01,1.435,1.435,0,0,1,2.02,0,1.375,1.375,0,0,1,.416,1.01,1.477,1.477,0,0,1-.119.58,7.663,7.663,0,0,1,3.254,1.226,7.026,7.026,0,0,1,2.2,2.341L28.226.178a.48.48,0,0,1,.349-.1.434.434,0,0,1,.32.163Z" transform="translate(-0.253)" fill="#FF2C00"/>
</svg>
