<svg width="20" height="20" viewBox="0 0 20 20" fill="none" xmlns="http://www.w3.org/2000/svg">
<path fill-rule="evenodd" clip-rule="evenodd" d="M2.89137 2.89143C3.13545 2.64735 3.53118 2.64735 3.77525 2.89143L17.1086 16.2248C17.3527 16.4688 17.3527 16.8646 17.1086 17.1086C16.8645 17.3527 16.4688 17.3527 16.2247 17.1086L2.89137 3.77532C2.64729 3.53124 2.64729 3.13551 2.89137 2.89143Z" fill="white"/>
<path fill-rule="evenodd" clip-rule="evenodd" d="M17.1086 2.89143C17.3527 3.13551 17.3527 3.53124 17.1086 3.77532L3.77525 17.1086C3.53118 17.3527 3.13545 17.3527 2.89137 17.1086C2.64729 16.8646 2.64729 16.4688 2.89137 16.2248L16.2247 2.89143C16.4688 2.64735 16.8645 2.64735 17.1086 2.89143Z" fill="white"/>
</svg>
