<svg width="20" height="20" viewBox="0 0 20 20" fill="none" xmlns="http://www.w3.org/2000/svg">
<path fill-rule="evenodd" clip-rule="evenodd" d="M5.39107 5.39155C5.63514 5.14748 6.03087 5.14748 6.27495 5.39155L14.6083 13.7249C14.8524 13.969 14.8524 14.3647 14.6083 14.6088C14.3642 14.8528 13.9685 14.8528 13.7244 14.6088L5.39107 6.27544C5.14699 6.03136 5.14699 5.63563 5.39107 5.39155Z" fill="#FF2C00"/>
<path fill-rule="evenodd" clip-rule="evenodd" d="M14.6083 5.39155C14.8524 5.63563 14.8524 6.03136 14.6083 6.27544L6.27495 14.6088C6.03087 14.8528 5.63514 14.8528 5.39107 14.6088C5.14699 14.3647 5.14699 13.969 5.39107 13.7249L13.7244 5.39155C13.9685 5.14748 14.3642 5.14748 14.6083 5.39155Z" fill="#FF2C00"/>
</svg>
