<svg width="18" height="8" viewBox="0 0 18 8" fill="none" xmlns="http://www.w3.org/2000/svg">
<path d="M0.666016 2.33317C0.666016 1.4127 1.41221 0.666504 2.33268 0.666504H15.666C16.5865 0.666504 17.3327 1.4127 17.3327 2.33317V5.6665C17.3327 6.58698 16.5865 7.33317 15.666 7.33317H2.33268C1.41221 7.33317 0.666016 6.58698 0.666016 5.6665V2.33317Z" fill="white"/>
<path d="M7.29199 3.94743H7.59513C7.70228 3.94743 7.79045 3.92912 7.85962 3.8925C7.93015 3.85452 7.98237 3.80298 8.01628 3.73787C8.05154 3.67141 8.06917 3.59478 8.06917 3.50798C8.06917 3.42253 8.05358 3.34861 8.02238 3.28621C7.99118 3.22247 7.94371 3.17364 7.87996 3.13973C7.81757 3.10447 7.73755 3.08683 7.63989 3.08683C7.56123 3.08683 7.48866 3.10243 7.4222 3.13363C7.3571 3.16482 7.30488 3.20958 7.26554 3.2679C7.22757 3.32487 7.20858 3.39336 7.20858 3.47339H6.66943C6.66943 3.31334 6.71148 3.17296 6.79557 3.05225C6.88102 2.93018 6.99631 2.83455 7.14144 2.76538C7.28657 2.69621 7.44865 2.66162 7.62769 2.66162C7.823 2.66162 7.9939 2.69417 8.14038 2.75928C8.28822 2.82303 8.40283 2.91729 8.48421 3.04207C8.56695 3.16686 8.60832 3.32148 8.60832 3.50594C8.60832 3.5941 8.58729 3.68226 8.54525 3.77043C8.50456 3.85723 8.4442 3.9359 8.36418 4.00643C8.28551 4.0756 8.18853 4.13189 8.07324 4.17529C7.95931 4.21734 7.82842 4.23836 7.68058 4.23836H7.29199V3.94743ZM7.29199 4.36247V4.0756H7.68058C7.84741 4.0756 7.99186 4.09527 8.11393 4.1346C8.23736 4.17258 8.33908 4.22683 8.41911 4.29736C8.49913 4.36654 8.55813 4.44724 8.59611 4.53947C8.63544 4.6317 8.65511 4.73071 8.65511 4.83651C8.65511 4.97485 8.62934 5.09828 8.5778 5.20679C8.52626 5.31394 8.45369 5.40481 8.36011 5.47941C8.26788 5.55401 8.15937 5.61098 8.03459 5.65031C7.9098 5.68829 7.77485 5.70728 7.62972 5.70728C7.50358 5.70728 7.38083 5.69032 7.26147 5.65641C7.14347 5.62115 7.037 5.56893 6.94206 5.49976C6.84711 5.42923 6.77184 5.34106 6.71623 5.23527C6.66062 5.12812 6.63281 5.00401 6.63281 4.86296H7.17196C7.17196 4.94434 7.19162 5.0169 7.23096 5.08065C7.27165 5.1444 7.32726 5.19458 7.39779 5.2312C7.46967 5.26647 7.55037 5.2841 7.63989 5.2841C7.73891 5.2841 7.82368 5.26647 7.89421 5.2312C7.96609 5.19458 8.02102 5.14304 8.059 5.07658C8.09698 5.00876 8.11597 4.92806 8.11597 4.83447C8.11597 4.72325 8.09494 4.63306 8.0529 4.56388C8.01085 4.49471 7.95049 4.44385 7.87183 4.4113C7.79452 4.37874 7.70228 4.36247 7.59513 4.36247H7.29199Z" fill="black"/>
<path d="M6.27791 5.24341V5.66659H4.27189V5.30444L5.23421 4.26481C5.33458 4.15088 5.41393 4.05187 5.47225 3.96777C5.53057 3.88368 5.57194 3.80773 5.59635 3.73991C5.62212 3.67074 5.63501 3.60495 5.63501 3.54256C5.63501 3.45169 5.61873 3.37234 5.58618 3.30452C5.55363 3.23535 5.50616 3.18178 5.44377 3.1438C5.38273 3.10582 5.30745 3.08683 5.21794 3.08683C5.11892 3.08683 5.03415 3.10989 4.96362 3.15601C4.89445 3.20077 4.84155 3.26316 4.80493 3.34318C4.76967 3.4232 4.75203 3.51476 4.75203 3.61784H4.21289C4.21289 3.44287 4.25358 3.2835 4.33496 3.13973C4.41634 2.9946 4.53299 2.87864 4.6849 2.79183C4.83681 2.70502 5.0172 2.66162 5.22607 2.66162C5.42952 2.66162 5.60178 2.69553 5.74284 2.76335C5.8839 2.82981 5.99105 2.92475 6.06429 3.04818C6.13753 3.1716 6.17415 3.31877 6.17415 3.48966C6.17415 3.58461 6.15856 3.6782 6.12736 3.77043C6.09616 3.86266 6.05208 3.95421 5.99512 4.04508C5.93951 4.1346 5.87305 4.22548 5.79574 4.31771C5.71842 4.40994 5.6323 4.5042 5.53735 4.6005L4.95955 5.24341H6.27791Z" fill="black"/>
<path d="M3.22591 2.69629V5.66667H2.68677V3.32495L1.97266 3.56095V3.12557L3.16488 2.69629H3.22591Z" fill="black"/>
<path fill-rule="evenodd" clip-rule="evenodd" d="M10.041 5.25C10.041 4.90482 10.3208 4.625 10.666 4.625H15.666C16.0112 4.625 16.291 4.90482 16.291 5.25C16.291 5.59518 16.0112 5.875 15.666 5.875H10.666C10.3208 5.875 10.041 5.59518 10.041 5.25Z" fill="black"/>
</svg>
