<svg width="24" height="24" viewBox="0 0 24 24" fill="none" xmlns="http://www.w3.org/2000/svg">
<path fill-rule="evenodd" clip-rule="evenodd" d="M11.9999 4.3999C12.9799 4.39991 13.5999 5.3399 13.5999 6.4999C13.5999 7.55442 13.3413 9.47687 13.0929 11.0911C12.9673 11.9079 12.8417 12.6614 12.7475 13.2106C12.7004 13.4853 12.6612 13.709 12.6337 13.8643L12.6017 14.0437L12.5902 14.1071C12.5902 14.1071 12.5902 14.1072 11.9999 13.9998C11.4096 14.1072 11.4096 14.1071 11.4096 14.1071L11.3981 14.0437L11.3661 13.8643C11.3386 13.709 11.2994 13.4853 11.2523 13.2106C11.1581 12.6614 11.0325 11.9079 10.9069 11.0911C10.6585 9.47686 10.3999 7.5544 10.3999 6.49988C10.3999 5.33988 11.0199 4.39989 11.9999 4.3999ZM11.9999 13.9998L11.4096 14.1071C11.4614 14.3924 11.7099 14.5998 11.9999 14.5998C12.2899 14.5998 12.5384 14.3924 12.5902 14.1071L11.9999 13.9998ZM11.9999 10.2911C12.2149 8.8317 12.3999 7.3277 12.3999 6.4999C12.3999 6.0959 12.2989 5.85691 12.2074 5.73491C12.1187 5.61667 12.0381 5.5999 11.9999 5.5999C11.9617 5.5999 11.8811 5.61667 11.7924 5.7349C11.7009 5.85689 11.5999 6.09588 11.5999 6.49988C11.5999 7.32769 11.7849 8.83169 11.9999 10.2911Z" fill="#FF3434"/>
<path d="M13 17C13 17.5523 12.5523 18 12 18C11.4477 18 11 17.5523 11 17C11 16.4477 11.4477 16 12 16C12.5523 16 13 16.4477 13 17Z" fill="#FF3434"/>
<path fill-rule="evenodd" clip-rule="evenodd" d="M11.9999 2.5999C6.80843 2.5999 2.5999 6.80843 2.5999 11.9999C2.5999 17.1914 6.80843 21.3999 11.9999 21.3999C17.1914 21.3999 21.3999 17.1914 21.3999 11.9999C21.3999 6.80843 17.1914 2.5999 11.9999 2.5999ZM1.3999 11.9999C1.3999 6.14568 6.14568 1.3999 11.9999 1.3999C17.8541 1.3999 22.5999 6.14568 22.5999 11.9999C22.5999 17.8541 17.8541 22.5999 11.9999 22.5999C6.14568 22.5999 1.3999 17.8541 1.3999 11.9999Z" fill="#FF3434"/>
</svg>
