<svg width="20" height="20" viewBox="0 0 20 20" fill="none" xmlns="http://www.w3.org/2000/svg">
<path fill-rule="evenodd" clip-rule="evenodd" d="M4.66022 2.16406C4.19695 2.16406 3.73337 2.35323 3.27478 2.80399L3.2672 2.81143C2.87506 3.18082 2.60136 3.58673 2.4297 4.02236L2.42866 4.025C2.25361 4.46197 2.16406 4.94008 2.16406 5.4474C2.16406 6.23573 2.34608 7.07772 2.72538 7.97742C3.10882 8.87856 3.63945 9.79576 4.30561 10.7206C4.98223 11.6485 5.74103 12.5367 6.58254 13.3852C7.4325 14.2256 8.3225 14.9837 9.26087 15.6681C10.185 16.3399 11.112 16.8703 12.0334 17.2623C12.943 17.6493 13.7861 17.8307 14.5584 17.8307C15.0792 17.8307 15.5562 17.7345 15.9938 17.5524L15.9965 17.5513C16.4289 17.3743 16.8197 17.0959 17.1845 16.6945C17.3915 16.4664 17.5481 16.2248 17.6701 15.967C17.7809 15.7327 17.8307 15.4973 17.8307 15.2724C17.8307 15.1185 17.7993 14.9761 17.7365 14.8169C17.6869 14.7078 17.6033 14.6037 17.4539 14.5004L17.449 14.497L14.6908 12.5416C14.5025 12.4141 14.3431 12.3261 14.2024 12.2686C14.0706 12.2148 13.9678 12.1974 13.8824 12.1974C13.7761 12.1974 13.673 12.2246 13.5495 12.2997L13.5355 12.3082L13.5208 12.3158C13.3902 12.3839 13.2306 12.5048 13.0422 12.6929L13.0399 12.6952L12.4079 13.3179C12.4075 13.3183 12.407 13.3188 12.4066 13.3192C12.2263 13.4986 11.9931 13.6057 11.7125 13.6057C11.5987 13.6057 11.4682 13.593 11.3285 13.5406L11.3177 13.5366L11.3071 13.5321C11.2742 13.518 11.2436 13.504 11.2208 13.4935L11.2144 13.4906C11.1877 13.4784 11.1758 13.4731 11.1681 13.4701L11.1434 13.4602L11.1199 13.4478C10.7926 13.2747 10.4031 13.0002 9.95429 12.621L9.95365 12.6204C9.49831 12.2344 9.05472 11.8168 8.60003 11.3712L8.59329 11.3646C8.15035 10.9138 7.74266 10.4641 7.362 10.0249L7.35837 10.0207C6.9823 9.57689 6.69878 9.18876 6.52488 8.87043L6.50352 8.83133L6.48941 8.78906C6.48812 8.78518 6.48508 8.77712 6.47305 8.74871C6.47211 8.7465 6.47112 8.74417 6.47008 8.74171C6.45964 8.71713 6.44421 8.68079 6.42883 8.63986L6.41881 8.61316L6.41188 8.5855C6.38696 8.48596 6.37187 8.3865 6.37187 8.2724C6.37187 8.01933 6.45752 7.78164 6.64816 7.58922L7.28634 6.92684C7.46397 6.74948 7.59142 6.585 7.67194 6.44275L7.67592 6.43571L7.68014 6.4288C7.75409 6.30749 7.78232 6.19659 7.78232 6.0974C7.78232 6.02303 7.76159 5.91576 7.70602 5.78627L7.70274 5.77865C7.64542 5.63873 7.55818 5.48135 7.42609 5.29817L7.42405 5.29535L5.48449 2.56564C5.38931 2.42838 5.26975 2.33396 5.12697 2.26816L5.12011 2.265C4.9832 2.19938 4.82401 2.16406 4.66022 2.16406ZM2.57761 2.08706C3.18641 1.4902 3.88992 1.16406 4.66022 1.16406C4.96258 1.16406 5.26946 1.22827 5.54893 1.36154C5.83795 1.49539 6.10032 1.69975 6.30454 1.9933L8.23825 4.71473C8.40518 4.94642 8.53402 5.17073 8.62661 5.39574C8.72033 5.61522 8.78232 5.85652 8.78232 6.0974C8.78232 6.39552 8.69529 6.68214 8.53825 6.94229C8.4028 7.1797 8.21581 7.41157 7.9965 7.63104L7.37195 8.27926C7.37222 8.29034 7.37325 8.30149 7.37607 8.31639C7.38058 8.32738 7.38558 8.33918 7.39167 8.35354L7.39428 8.35971C7.401 8.37557 7.4102 8.39727 7.41981 8.42218C7.54963 8.6514 7.7779 8.96875 8.1195 9.37202C8.48848 9.79769 8.88026 10.2295 9.30333 10.6603C9.74858 11.0965 10.1718 11.4943 10.5998 11.8573C11.0078 12.2019 11.3296 12.4247 11.5679 12.5533C11.5913 12.5633 11.6132 12.5734 11.6299 12.581C11.6488 12.5897 11.6655 12.5973 11.6811 12.6042C11.685 12.6048 11.6927 12.6055 11.706 12.6057L12.3356 11.9852C12.336 11.9848 12.3364 11.9844 12.3368 11.984C12.561 11.7604 12.7968 11.5682 13.0442 11.4366C13.3007 11.2836 13.577 11.1974 13.8824 11.1974C14.1141 11.1974 14.3452 11.2467 14.5806 11.3429C14.8061 11.435 15.0293 11.5628 15.2566 11.7171L15.2649 11.7227L18.0251 13.6796C18.3051 13.8737 18.5207 14.1167 18.6547 14.4208L18.6582 14.4286L18.6613 14.4365C18.7631 14.6905 18.8307 14.9624 18.8307 15.2724C18.8307 15.6475 18.7471 16.0287 18.5741 16.3945C18.4123 16.7365 18.2018 17.0616 17.9248 17.3668C17.4721 17.8649 16.9617 18.2366 16.3764 18.4763C15.8129 18.7105 15.2054 18.8307 14.5584 18.8307C13.6282 18.8307 12.6518 18.6122 11.6419 18.1825C10.6439 17.7579 9.65138 17.1883 8.67268 16.4768C7.6923 15.7618 6.76299 14.9701 5.87767 14.0946L5.87423 14.0912C4.99752 13.2073 4.20487 12.2798 3.49675 11.3086L3.49505 11.3063C2.79307 10.3319 2.22244 9.3497 1.80487 8.36813L1.80425 8.36667C1.38255 7.36663 1.16406 6.39219 1.16406 5.4474C1.16406 4.82186 1.27465 4.2171 1.49985 3.65444C1.72822 3.07544 2.08743 2.54978 2.57761 2.08706Z" fill="#212121"/>
</svg>
