<svg width="20" height="20" viewBox="0 0 20 20" fill="none" xmlns="http://www.w3.org/2000/svg">
<path fill-rule="evenodd" clip-rule="evenodd" d="M16.9453 10.5938C16.6692 10.5938 16.4453 10.8176 16.4453 11.0938V17.5711C16.4453 17.6527 16.4152 17.7233 16.3733 17.7689C16.3328 17.8131 16.2877 17.8286 16.2509 17.8286H3.75087C3.71403 17.8286 3.66889 17.8131 3.6284 17.7689C3.58657 17.7233 3.55642 17.6527 3.55642 17.5711V11.0938C3.55642 10.8176 3.33256 10.5938 3.05642 10.5938C2.78028 10.5938 2.55642 10.8176 2.55642 11.0938V17.5711C2.55642 17.8912 2.67261 18.2061 2.89124 18.4446C3.11121 18.6846 3.41935 18.8286 3.75087 18.8286H16.2509C16.5824 18.8286 16.8905 18.6846 17.1105 18.4446C17.3291 18.2061 17.4453 17.8912 17.4453 17.5711V11.0938C17.4453 10.8176 17.2215 10.5938 16.9453 10.5938Z" fill="#212121"/>
<path fill-rule="evenodd" clip-rule="evenodd" d="M16.4184 1.16406H3.56669C3.29768 1.16648 3.04185 1.26334 2.83648 1.4321C2.63191 1.6002 2.4888 1.82971 2.42023 2.08233L2.41897 2.08698L1.17768 6.8408C1.13854 6.99066 1.17107 7.15019 1.26575 7.27277C1.36043 7.39535 1.50657 7.46712 1.66146 7.46712H18.3281C18.483 7.46712 18.6291 7.39535 18.7238 7.27277C18.8185 7.15019 18.851 6.99066 18.8119 6.8408L17.5694 2.08233C17.5008 1.82971 17.3577 1.6002 17.1531 1.4321C16.9477 1.26334 16.6919 1.1665 16.4229 1.16408L16.4184 1.16406ZM16.4153 2.16406C16.4473 2.16467 16.4834 2.17613 16.5182 2.20471C16.554 2.23409 16.5867 2.28083 16.6038 2.3425L17.6808 6.46712H2.30878L3.38532 2.34428C3.38547 2.34371 3.38563 2.34314 3.38579 2.34257C3.4029 2.28086 3.43559 2.2341 3.47136 2.20471C3.50614 2.17613 3.54229 2.16467 3.57423 2.16406H16.4153Z" fill="#212121"/>
<path fill-rule="evenodd" clip-rule="evenodd" d="M18.3281 6.46875C18.052 6.46875 17.8281 6.69261 17.8281 6.96875V8.48391C17.8281 9.16836 17.5785 9.81695 17.146 10.2888C16.7148 10.7592 16.1397 11.0142 15.5503 11.0142C14.961 11.0142 14.3859 10.7592 13.9547 10.2888C13.5222 9.81695 13.2726 9.16836 13.2726 8.48391V6.96875C13.2726 6.69261 13.0487 6.46875 12.7726 6.46875C12.4964 6.46875 12.2726 6.69261 12.2726 6.96875V8.48391C12.2726 9.40685 12.6082 10.2998 13.2176 10.9645C13.8283 11.6307 14.6663 12.0142 15.5503 12.0142C16.4344 12.0142 17.2724 11.6307 17.8831 10.9645C18.4924 10.2998 18.8281 9.40685 18.8281 8.48391V6.96875C18.8281 6.69261 18.6043 6.46875 18.3281 6.46875Z" fill="#212121"/>
<path fill-rule="evenodd" clip-rule="evenodd" d="M12.7734 6.46875C12.4973 6.46875 12.2734 6.69261 12.2734 6.96875V8.48391C12.2734 9.16836 12.0238 9.81695 11.5913 10.2888C11.1601 10.7592 10.585 11.0142 9.99566 11.0142C9.40629 11.0142 8.83125 10.7592 8.40005 10.2888C7.96752 9.81695 7.71788 9.16836 7.71788 8.48391V6.96875C7.71788 6.69261 7.49402 6.46875 7.21788 6.46875C6.94174 6.46875 6.71788 6.69261 6.71788 6.96875V8.48391C6.71788 9.40685 7.05356 10.2998 7.6629 10.9645C8.27357 11.6307 9.1116 12.0142 9.99566 12.0142C10.8797 12.0142 11.7178 11.6307 12.3284 10.9645C12.9378 10.2998 13.2734 9.40685 13.2734 8.48391V6.96875C13.2734 6.69261 13.0496 6.46875 12.7734 6.46875Z" fill="#212121"/>
<path fill-rule="evenodd" clip-rule="evenodd" d="M7.21875 6.46875C6.94261 6.46875 6.71875 6.69261 6.71875 6.96875V8.48391C6.71875 9.16836 6.46911 9.81695 6.03658 10.2888C5.60538 10.7592 5.03034 11.0142 4.44097 11.0142C3.8516 11.0142 3.27656 10.7592 2.84537 10.2888C2.41283 9.81695 2.16319 9.16836 2.16319 8.48391V6.96875C2.16319 6.69261 1.93934 6.46875 1.66319 6.46875C1.38705 6.46875 1.16319 6.69261 1.16319 6.96875V8.48391C1.16319 9.40685 1.49887 10.2998 2.10821 10.9645C2.71888 11.6307 3.55692 12.0142 4.44097 12.0142C5.32503 12.0142 6.16307 11.6307 6.77374 10.9645C7.38307 10.2998 7.71875 9.40685 7.71875 8.48391V6.96875C7.71875 6.69261 7.49489 6.46875 7.21875 6.46875Z" fill="#212121"/>
<path fill-rule="evenodd" clip-rule="evenodd" d="M12.1641 14.1641C12.1641 13.8879 11.9402 13.6641 11.6641 13.6641H8.33073C8.05459 13.6641 7.83073 13.8879 7.83073 14.1641V18.3307C7.83073 18.6069 8.05459 18.8307 8.33073 18.8307H11.6641C11.9402 18.8307 12.1641 18.6069 12.1641 18.3307V14.1641ZM11.1641 14.6641V17.8307H8.83073V14.6641H11.1641Z" fill="#212121"/>
</svg>
