<svg width="20" height="20" viewBox="0 0 20 20" fill="none" xmlns="http://www.w3.org/2000/svg">
<path fill-rule="evenodd" clip-rule="evenodd" d="M4.89657 9.52327C5.34616 9.43957 5.75753 9.5949 6.05877 9.77791C6.83981 10.2524 7.41501 10.5499 7.99286 10.7338C8.56454 10.9158 9.16491 10.9945 10.0008 10.9945C10.8365 10.9945 11.4367 10.9158 12.0082 10.7339C12.5859 10.55 13.1609 10.2525 13.9417 9.77801C14.243 9.59496 14.6545 9.43954 15.1042 9.52332C16.3841 9.76175 17.3201 10.8253 17.7406 12.0886C18.1649 13.3635 18.1004 14.9248 17.3089 16.3028L17.3012 16.3158C16.4896 17.6352 14.9719 18.2446 13.5762 18.5378C12.169 18.8335 10.759 18.8335 10.0102 18.8335H9.99141C9.24242 18.8335 7.83212 18.8335 6.42462 18.5378C5.02866 18.2446 3.51066 17.6352 2.6989 16.3158L2.69121 16.3029C1.89948 14.9248 1.83496 13.3634 2.25944 12.0885C2.68012 10.8251 3.61638 9.7616 4.89657 9.52327ZM5.53956 10.6326C5.35075 10.5179 5.1944 10.485 5.07959 10.5064C4.2641 10.6582 3.5531 11.3687 3.20823 12.4044C2.86785 13.4267 2.91862 14.6867 3.5545 15.7981C4.1465 16.7543 5.31585 17.2831 6.63019 17.5592C7.92996 17.8322 9.25048 17.8335 10.0008 17.8335C10.751 17.8335 12.0712 17.8322 13.3706 17.5592C14.6846 17.2831 15.8537 16.7544 16.4455 15.7981C17.0813 14.6867 17.132 13.4268 16.7918 12.4045C16.447 11.3687 15.7362 10.6583 14.921 10.5064C14.8062 10.485 14.6499 10.5179 14.461 10.6326C13.6602 11.1192 13.0041 11.4663 12.3115 11.6867C11.6127 11.9092 10.9035 11.9945 10.0008 11.9945C9.09791 11.9945 8.38853 11.9092 7.68961 11.6867C6.99686 11.4663 6.34064 11.1192 5.53956 10.6326Z" fill="#212121"/>
<path fill-rule="evenodd" clip-rule="evenodd" d="M10.0027 2.16406C7.97759 2.16406 6.33594 3.80572 6.33594 5.8308C6.33594 7.85589 7.97759 9.49755 10.0027 9.49755C12.0278 9.49755 13.6694 7.85589 13.6694 5.8308C13.6694 3.80572 12.0278 2.16406 10.0027 2.16406ZM5.33594 5.8308C5.33594 3.25343 7.42531 1.16406 10.0027 1.16406C12.58 1.16406 14.6694 3.25343 14.6694 5.8308C14.6694 8.40817 12.58 10.4975 10.0027 10.4975C7.42531 10.4975 5.33594 8.40817 5.33594 5.8308Z" fill="#212121"/>
</svg>
