<svg xmlns="http://www.w3.org/2000/svg" width="21.707" height="18.61" viewBox="0 0 21.707 18.61">
  <g id="Icon_ionic-ios-eye-off" data-name="Icon ionic-ios-eye-off" transform="translate(-2.252 -4.499)">
    <path id="Path_23727" data-name="Path 23727" d="M5.679,4.7a.689.689,0,0,0-.974.974L21.933,22.91a.683.683,0,0,0,.664.174.671.671,0,0,0,.31-.179.687.687,0,0,0,0-.969Z" transform="translate(-0.7 0)" fill="#fff"/>
    <g id="Group_12980" data-name="Group 12980" transform="translate(2.252 6.826)">
      <path id="Path_23728" data-name="Path 23728" d="M13.309,20.346a4.357,4.357,0,0,1-4.143-6.222L6.578,11.531a33.993,33.993,0,0,0-4.124,3.94.766.766,0,0,0,0,1.032c3.145,3.475,5.917,6.465,10.647,6.465a9.331,9.331,0,0,0,3.988-.93l-2.108-2.108A4.4,4.4,0,0,1,13.309,20.346Z" transform="translate(-2.252 -9.011)" fill="#fff"/>
      <path id="Path_23729" data-name="Path 23729" d="M26.855,15.338a.76.76,0,0,0,.024-1c-2.534-3.077-6.048-6.46-10.686-6.46A9.072,9.072,0,0,0,12.22,8.8l2.118,2.118A4.27,4.27,0,0,1,16,10.5a4.357,4.357,0,0,1,4.143,6.222l2.593,2.593A32.055,32.055,0,0,0,26.855,15.338Z" transform="translate(-5.35 -7.875)" fill="#fff"/>
      <path id="Path_23730" data-name="Path 23730" d="M13.51,17.831a3.114,3.114,0,0,0,2.854,2.854,3.029,3.029,0,0,0,1.134-.126l-3.867-3.867A3.17,3.17,0,0,0,13.51,17.831Z" transform="translate(-5.748 -10.615)" fill="#fff"/>
      <path id="Path_23731" data-name="Path 23731" d="M22.032,17.915c0-.063,0-.126,0-.189a2.149,2.149,0,0,1-.882.189c-.053,0-.1,0-.15,0l.9.906A3.1,3.1,0,0,0,22.032,17.915Z" transform="translate(-8.077 -10.936)" fill="#fff"/>
      <path id="Path_23732" data-name="Path 23732" d="M17.6,14.324a2.277,2.277,0,0,1,.15-.819c-.048,0-.1,0-.15,0a3.066,3.066,0,0,0-.9.136l.906.906C17.6,14.469,17.6,14.4,17.6,14.324Z" transform="translate(-6.742 -9.623)" fill="#fff"/>
    </g>
  </g>
</svg>
