<svg width="16" height="16" viewBox="0 0 16 16" fill="none" xmlns="http://www.w3.org/2000/svg">
<g clip-path="url(#clip0_2884_283836)">
<path fill-rule="evenodd" clip-rule="evenodd" d="M1.60328 10.3808C1.79366 10.5584 1.81565 10.8704 1.6524 11.0776C0.640289 12.3622 0.780671 13.7299 1.36322 14.4429C1.65579 14.801 2.07388 15.0209 2.57662 15.0108C3.08336 15.0006 3.71743 14.7543 4.41422 14.0906C4.60293 13.9108 4.8898 13.9316 5.05497 14.1369C5.22014 14.3423 5.20105 14.6545 5.01235 14.8343C4.19598 15.612 3.36386 15.9835 2.59344 15.999C1.81903 16.0146 1.14899 15.6682 0.684542 15.0997C-0.246957 13.9595 -0.296208 12.0325 0.963001 10.4342C1.12624 10.227 1.41291 10.2031 1.60328 10.3808Z" fill="black" fill-opacity="0.6"/>
<path fill-rule="evenodd" clip-rule="evenodd" d="M9.95685 1.35129C10.1342 1.54429 10.1342 1.8572 9.95685 2.0502L1.63209 11.1105C1.45476 11.3035 1.16726 11.3035 0.98993 11.1105C0.812601 10.9175 0.812601 10.6046 0.98993 10.4116L9.31469 1.35129C9.49202 1.15829 9.77952 1.15829 9.95685 1.35129Z" fill="black" fill-opacity="0.6"/>
<path fill-rule="evenodd" clip-rule="evenodd" d="M14.2136 1.71627C13.2078 0.79683 11.4738 0.579568 9.93541 2.06762C9.74797 2.24894 9.46096 2.23054 9.29436 2.02652C9.12777 1.82251 9.14468 1.51014 9.33213 1.32883C11.1993 -0.477231 13.4385 -0.282987 14.7977 0.959399C15.4736 1.57729 15.931 2.45679 15.9934 3.46C16.0561 4.46834 15.7168 5.54709 14.8924 6.55669C14.7258 6.7607 14.4388 6.7791 14.2513 6.59779C14.0639 6.41648 14.0469 6.10411 14.2135 5.9001C14.9027 5.05612 15.131 4.23004 15.0873 3.52673C15.0432 2.81828 14.7201 2.17928 14.2136 1.71627Z" fill="black" fill-opacity="0.6"/>
<path fill-rule="evenodd" clip-rule="evenodd" d="M12.6009 5.87888C12.7783 6.07188 12.7783 6.38479 12.6009 6.57778L5.03297 14.8145C4.85564 15.0075 4.56814 15.0075 4.39081 14.8145C4.21348 14.6215 4.21348 14.3085 4.39081 14.1156L11.9588 5.87888C12.1361 5.68588 12.4236 5.68588 12.6009 5.87888Z" fill="black" fill-opacity="0.6"/>
<path fill-rule="evenodd" clip-rule="evenodd" d="M14.8651 5.86904C15.0475 6.05645 15.0557 6.36923 14.8835 6.56766L8.4507 13.9807C8.27851 14.1791 7.99112 14.188 7.8088 14.0006C7.62648 13.8132 7.61827 13.5004 7.79046 13.302L14.2232 5.889C14.3954 5.69057 14.6828 5.68164 14.8651 5.86904Z" fill="black" fill-opacity="0.6"/>
<path fill-rule="evenodd" clip-rule="evenodd" d="M9.95351 4.23215C10.1308 4.42515 10.1308 4.73806 9.95351 4.93106L3.14235 12.3441C2.96502 12.5371 2.67751 12.5371 2.50018 12.3441C2.32286 12.1511 2.32286 11.8382 2.50018 11.6452L9.31135 4.23215C9.48868 4.03915 9.77618 4.03915 9.95351 4.23215Z" fill="black" fill-opacity="0.6"/>
<path fill-rule="evenodd" clip-rule="evenodd" d="M12.2604 4.11964C11.9034 3.85032 11.0127 3.78547 9.95493 4.93734C9.77765 5.13039 9.49015 5.13048 9.31277 4.93753C9.13539 4.74459 9.13532 4.43168 9.3126 4.23863C10.5252 2.91815 11.9049 2.6489 12.7777 3.30729C13.2148 3.637 13.4642 4.17275 13.4398 4.78428C13.4158 5.38521 13.1322 6.01035 12.6034 6.58503C12.4259 6.77788 12.1384 6.77766 11.9612 6.58452C11.784 6.39138 11.7842 6.07847 11.9617 5.88561C12.3789 5.43221 12.521 5.02836 12.5325 4.74134C12.5435 4.46493 12.4382 4.25379 12.2604 4.11964Z" fill="black" fill-opacity="0.6"/>
</g>
<defs>
<clipPath id="clip0_2884_283836">
<rect width="16" height="16" fill="white"/>
</clipPath>
</defs>
</svg>
