<svg width="18" height="18" viewBox="0 0 18 18" fill="none" xmlns="http://www.w3.org/2000/svg">
<path fill-rule="evenodd" clip-rule="evenodd" d="M7.4842 1.1665C3.99476 1.1665 1.16602 3.99525 1.16602 7.48469C1.16602 10.9741 3.99476 13.8029 7.4842 13.8029C7.72188 13.8029 7.95631 13.7898 8.18684 13.7643C8.46131 13.7339 8.7084 13.9318 8.73875 14.2063C8.76909 14.4808 8.57118 14.7279 8.29671 14.7582C8.02976 14.7877 7.75865 14.8029 7.4842 14.8029C3.44248 14.8029 0.166016 11.5264 0.166016 7.48469C0.166016 3.44297 3.44248 0.166504 7.4842 0.166504C11.5259 0.166504 14.8024 3.44297 14.8024 7.48469C14.8024 7.75914 14.7872 8.03025 14.7577 8.2972C14.7274 8.57167 14.4803 8.76958 14.2058 8.73923C13.9314 8.70889 13.7335 8.46179 13.7638 8.18732C13.7893 7.95679 13.8024 7.72236 13.8024 7.48469C13.8024 3.99525 10.9736 1.1665 7.4842 1.1665Z" fill="#0E49B5"/>
<path fill-rule="evenodd" clip-rule="evenodd" d="M6.64278 5.11955C6.545 5.26672 6.46875 5.49773 6.46875 5.77494C6.46875 6.12526 6.52362 6.29856 6.57313 6.38825C6.61541 6.46482 6.67523 6.52067 6.79956 6.5837L8.62254 7.4952C8.85718 7.61644 9.09674 7.79348 9.26439 8.09986C9.42504 8.39346 9.49148 8.75488 9.49148 9.19485C9.49148 9.64275 9.37076 10.0719 9.15036 10.4036C8.93273 10.7312 8.57605 11.0152 8.11269 11.0152H6.97633C6.47856 11.0152 6.08987 10.7092 5.84891 10.3471C5.60486 9.98043 5.46875 9.50252 5.46875 9.00004C5.46875 8.7239 5.69261 8.50004 5.96875 8.50004C6.24489 8.50004 6.46875 8.7239 6.46875 9.00004C6.46875 9.3309 6.55992 9.61056 6.6814 9.7931C6.80597 9.98028 6.92106 10.0152 6.97633 10.0152H8.11269C8.13417 10.0152 8.21689 10.0016 8.31744 9.85024C8.41523 9.70306 8.49148 9.47206 8.49148 9.19485C8.49148 8.84477 8.4367 8.67048 8.38713 8.57988C8.34486 8.50264 8.28577 8.44721 8.16616 8.38504L6.34908 7.4765C6.11044 7.35576 5.86743 7.17901 5.6977 6.87158C5.5351 6.57707 5.46875 6.21466 5.46875 5.77494C5.46875 5.32704 5.58947 4.89787 5.80987 4.56615C6.0275 4.23859 6.38417 3.95459 6.84754 3.95459H7.99355C8.48499 3.96408 8.87258 4.26171 9.11665 4.62476C9.36271 4.99077 9.49905 5.46685 9.49905 5.96974C9.49905 6.24588 9.2752 6.46974 8.99905 6.46974C8.72291 6.46974 8.49905 6.24588 8.49905 5.96974C8.49905 5.63931 8.40812 5.36321 8.28676 5.18268C8.16532 5.00205 8.04715 4.95721 7.97751 4.95459H6.84754C6.82605 4.95459 6.74334 4.9682 6.64278 5.11955Z" fill="#0E49B5"/>
<path fill-rule="evenodd" clip-rule="evenodd" d="M7.48438 10.0151C7.76052 10.0151 7.98438 10.239 7.98438 10.5151V11.2727C7.98438 11.5489 7.76052 11.7727 7.48438 11.7727C7.20823 11.7727 6.98438 11.5489 6.98438 11.2727V10.5151C6.98438 10.239 7.20823 10.0151 7.48438 10.0151Z" fill="#0E49B5"/>
<path fill-rule="evenodd" clip-rule="evenodd" d="M7.48438 3.19678C7.76052 3.19678 7.98438 3.42064 7.98438 3.69678V4.45435C7.98438 4.7305 7.76052 4.95435 7.48438 4.95435C7.20823 4.95435 6.98438 4.7305 6.98438 4.45435V3.69678C6.98438 3.42064 7.20823 3.19678 7.48438 3.19678Z" fill="#0E49B5"/>
<path fill-rule="evenodd" clip-rule="evenodd" d="M13.5457 10.2573C11.7298 10.2573 10.2578 11.7294 10.2578 13.5452C10.2578 15.361 11.7298 16.8331 13.5457 16.8331C15.3615 16.8331 16.8336 15.361 16.8336 13.5452C16.8336 11.7294 15.3615 10.2573 13.5457 10.2573ZM9.25781 13.5452C9.25781 11.1771 11.1776 9.25732 13.5457 9.25732C15.9138 9.25732 17.8336 11.1771 17.8336 13.5452C17.8336 15.9133 15.9138 17.8331 13.5457 17.8331C11.1776 17.8331 9.25781 15.9133 9.25781 13.5452Z" fill="#0E49B5"/>
<path fill-rule="evenodd" clip-rule="evenodd" d="M15.54 11.5097C15.7647 11.6702 15.8167 11.9825 15.6562 12.2072L13.5729 15.1238C13.4875 15.2434 13.3537 15.3194 13.2073 15.3315C13.0608 15.3436 12.9164 15.2907 12.8125 15.1868L11.5625 13.9368C11.3672 13.7415 11.3672 13.4249 11.5625 13.2297C11.7577 13.0344 12.0743 13.0344 12.2696 13.2297L13.1022 14.0623L14.8425 11.6259C15.003 11.4012 15.3153 11.3492 15.54 11.5097Z" fill="#0E49B5"/>
</svg>
