<!-- <svg width="12" height="13" viewBox="0 0 12 13" fill="none" xmlns="http://www.w3.org/2000/svg">
<path fill-rule="evenodd" clip-rule="evenodd" d="M4.00307 2.21779C4.15893 2.08141 4.39584 2.0972 4.53222 2.25307L8.03222 6.25307C8.15593 6.39445 8.15593 6.60556 8.03222 6.74694L4.53222 10.7469C4.39584 10.9028 4.15893 10.9186 4.00307 10.7822C3.8472 10.6458 3.83141 10.4089 3.96779 10.2531L7.25172 6.50001L3.96779 2.74694C3.83141 2.59108 3.8472 2.35417 4.00307 2.21779Z" fill="#707070"/>
</svg> -->


<svg xmlns="http://www.w3.org/2000/svg" width="7" height="12" viewBox="0 0 7 12" fill="none">
  <path fill-rule="evenodd" clip-rule="evenodd" d="M0.586388 0.366448C0.78165 0.171186 1.09823 0.171186 1.29349 0.366448L5.64016 4.71311C6.34876 5.42171 6.34876 6.57829 5.64016 7.28689L1.29349 11.6336C1.09823 11.8288 0.78165 11.8288 0.586388 11.6336C0.391126 11.4383 0.391126 11.1217 0.586388 10.9264L4.93305 6.57978C5.25113 6.26171 5.25113 5.73829 4.93305 5.42022L0.586388 1.07355C0.391126 0.878292 0.391126 0.56171 0.586388 0.366448Z" fill="#8A8A8A"/>
</svg>