<svg width="34" height="34" viewBox="0 0 34 34" fill="none" xmlns="http://www.w3.org/2000/svg">
<rect width="34" height="34" rx="17" fill="#FFE8E2"/>
<path fill-rule="evenodd" clip-rule="evenodd" d="M22.0004 14.0999C21.2272 14.0999 20.6004 14.7267 20.6004 15.4999C20.6004 16.2731 21.2272 16.8999 22.0004 16.8999C22.7736 16.8999 23.4004 16.2731 23.4004 15.4999C23.4004 14.7267 22.7736 14.0999 22.0004 14.0999ZM19.4004 15.4999C19.4004 14.064 20.5645 12.8999 22.0004 12.8999C23.4363 12.8999 24.6004 14.064 24.6004 15.4999C24.6004 16.9358 23.4363 18.0999 22.0004 18.0999C20.5645 18.0999 19.4004 16.9358 19.4004 15.4999Z" fill="#FF5252"/>
<path fill-rule="evenodd" clip-rule="evenodd" d="M16.4919 22.6317C16.4148 21.6992 17.1508 20.8999 18.0864 20.8999H25.9143C26.85 20.8999 27.586 21.6992 27.5089 22.6317L27.2196 26.1317C27.1511 26.9614 26.4576 27.5999 25.6251 27.5999H18.3757C17.5431 27.5999 16.8497 26.9614 16.7811 26.1317L16.4919 22.6317ZM18.0864 22.0999C17.8525 22.0999 17.6685 22.2997 17.6878 22.5328L17.9771 26.0328C17.9942 26.2403 18.1676 26.3999 18.3757 26.3999H25.6251C25.8332 26.3999 26.0066 26.2403 26.0237 26.0328L26.313 22.5328C26.3322 22.2997 26.1482 22.0999 25.9143 22.0999H18.0864Z" fill="#FF5252"/>
<path d="M22.5 23.5C22.5 23.7761 22.2761 24 22 24C21.7239 24 21.5 23.7761 21.5 23.5C21.5 23.2239 21.7239 23 22 23C22.2761 23 22.5 23.2239 22.5 23.5Z" fill="#FF5252"/>
<path fill-rule="evenodd" clip-rule="evenodd" d="M18.1394 19.27C17.7768 19.6844 17.6004 20.174 17.6004 20.4999C17.6004 20.8313 17.3318 21.0999 17.0004 21.0999C16.669 21.0999 16.4004 20.8313 16.4004 20.4999C16.4004 19.8258 16.724 19.0654 17.2363 18.4798C17.7586 17.8829 18.5376 17.3999 19.5004 17.3999C19.8318 17.3999 20.1004 17.6685 20.1004 17.9999C20.1004 18.3313 19.8318 18.5999 19.5004 18.5999C18.9632 18.5999 18.4921 18.8669 18.1394 19.27Z" fill="#FF5252"/>
<path fill-rule="evenodd" clip-rule="evenodd" d="M25.8606 19.27C26.2232 19.6844 26.3996 20.174 26.3996 20.4999C26.3996 20.8313 26.6682 21.0999 26.9996 21.0999C27.331 21.0999 27.5996 20.8313 27.5996 20.4999C27.5996 19.8258 27.276 19.0654 26.7637 18.4798C26.2414 17.8829 25.4624 17.3999 24.4996 17.3999C24.1682 17.3999 23.8996 17.6685 23.8996 17.9999C23.8996 18.3313 24.1682 18.5999 24.4996 18.5999C25.0368 18.5999 25.5079 18.8669 25.8606 19.27Z" fill="#FF5252"/>
<path fill-rule="evenodd" clip-rule="evenodd" d="M16.0004 7.5999C11.3612 7.5999 7.60039 11.3607 7.60039 15.9999C7.60039 20.4823 11.1116 24.145 15.5332 24.3871C15.8641 24.4053 16.1176 24.6882 16.0995 25.0191C16.0814 25.3499 15.7985 25.6035 15.4676 25.5854C10.4132 25.3086 6.40039 21.1231 6.40039 15.9999C6.40039 10.698 10.6985 6.3999 16.0004 6.3999C19.9791 6.3999 23.3911 8.82017 24.8472 12.2664C24.9761 12.5716 24.8332 12.9236 24.528 13.0526C24.2228 13.1816 23.8708 13.0387 23.7418 12.7334C22.4668 9.71575 19.48 7.5999 16.0004 7.5999Z" fill="#FF5252"/>
<path fill-rule="evenodd" clip-rule="evenodd" d="M16.0005 10.3999C16.3318 10.3999 16.6005 10.6685 16.6005 10.9999V15.9999C16.6005 16.2005 16.5002 16.3879 16.3333 16.4991L13.3333 18.4991C13.0576 18.6829 12.685 18.6084 12.5012 18.3327C12.3174 18.057 12.3919 17.6845 12.6676 17.5007L15.4005 15.6788V10.9999C15.4005 10.6685 15.6691 10.3999 16.0005 10.3999Z" fill="#FF5252"/>
</svg>
