<svg width="34" height="34" viewBox="0 0 34 34" fill="none" xmlns="http://www.w3.org/2000/svg">
<rect width="34" height="34" rx="17" fill="#FFFDDC"/>
<path fill-rule="evenodd" clip-rule="evenodd" d="M22.0004 6.3999C22.3318 6.3999 22.6004 6.66853 22.6004 6.9999L22.6004 10.9999C22.6004 11.3313 22.3318 11.5999 22.0004 11.5999C21.669 11.5999 21.4004 11.3313 21.4004 10.9999L21.4004 6.9999C21.4004 6.66853 21.669 6.3999 22.0004 6.3999Z" fill="#FFCF28"/>
<path fill-rule="evenodd" clip-rule="evenodd" d="M12.0102 6.39981C12.3415 6.40057 12.6095 6.66981 12.6088 7.00118L12.5996 11.0012C12.5989 11.3326 12.3296 11.6006 11.9983 11.5998C11.6669 11.599 11.3989 11.3298 11.3996 10.9984L11.4088 6.99844C11.4095 6.66707 11.6788 6.39905 12.0102 6.39981Z" fill="#FFCF28"/>
<path fill-rule="evenodd" clip-rule="evenodd" d="M6.40039 12.9999C6.40039 12.6685 6.66902 12.3999 7.00039 12.3999H27.0004C27.3318 12.3999 27.6004 12.6685 27.6004 12.9999C27.6004 13.3313 27.3318 13.5999 27.0004 13.5999H7.00039C6.66902 13.5999 6.40039 13.3313 6.40039 12.9999Z" fill="#FFCF28"/>
<path d="M12 17C12 17.5523 11.5523 18 11 18C10.4477 18 10 17.5523 10 17C10 16.4477 10.4477 16 11 16C11.5523 16 12 16.4477 12 17Z" fill="#FFCF28"/>
<path d="M12 23C12 23.5523 11.5523 24 11 24C10.4477 24 10 23.5523 10 23C10 22.4477 10.4477 22 11 22C11.5523 22 12 22.4477 12 23Z" fill="#FFCF28"/>
<path d="M18 17C18 17.5523 17.5523 18 17 18C16.4477 18 16 17.5523 16 17C16 16.4477 16.4477 16 17 16C17.5523 16 18 16.4477 18 17Z" fill="#FFCF28"/>
<path d="M18 23C18 23.5523 17.5523 24 17 24C16.4477 24 16 23.5523 16 23C16 22.4477 16.4477 22 17 22C17.5523 22 18 22.4477 18 23Z" fill="#FFCF28"/>
<path d="M24 17C24 17.5523 23.5523 18 23 18C22.4477 18 22 17.5523 22 17C22 16.4477 22.4477 16 23 16C23.5523 16 24 16.4477 24 17Z" fill="#FFCF28"/>
<path fill-rule="evenodd" clip-rule="evenodd" d="M23.5004 20.5999C21.8988 20.5999 20.6004 21.8983 20.6004 23.4999C20.6004 25.1015 21.8988 26.3999 23.5004 26.3999C25.102 26.3999 26.4004 25.1015 26.4004 23.4999C26.4004 21.8983 25.102 20.5999 23.5004 20.5999ZM19.4004 23.4999C19.4004 21.2355 21.236 19.3999 23.5004 19.3999C25.7648 19.3999 27.6004 21.2355 27.6004 23.4999C27.6004 25.7643 25.7648 27.5999 23.5004 27.5999C21.236 27.5999 19.4004 25.7643 19.4004 23.4999Z" fill="#FFCF28"/>
<path fill-rule="evenodd" clip-rule="evenodd" d="M8.00039 9.5999C7.77948 9.5999 7.60039 9.77899 7.60039 9.9999V25.9999C7.60039 26.2208 7.77948 26.3999 8.00039 26.3999H19.0004C19.3318 26.3999 19.6004 26.6685 19.6004 26.9999C19.6004 27.3313 19.3318 27.5999 19.0004 27.5999H8.00039C7.11673 27.5999 6.40039 26.8836 6.40039 25.9999V9.9999C6.40039 9.11625 7.11673 8.3999 8.00039 8.3999H26.0004C26.884 8.3999 27.6004 9.11625 27.6004 9.9999V17.9999C27.6004 18.3313 27.3318 18.5999 27.0004 18.5999C26.669 18.5999 26.4004 18.3313 26.4004 17.9999V9.9999C26.4004 9.77899 26.2213 9.5999 26.0004 9.5999H8.00039Z" fill="#FFCF28"/>
<path fill-rule="evenodd" clip-rule="evenodd" d="M23.5004 21.1997C23.8318 21.1997 24.1004 21.4683 24.1004 21.7997V23.4997C24.1004 23.6955 24.0049 23.8789 23.8446 23.9912L22.8446 24.6914C22.5731 24.8815 22.199 24.8155 22.0089 24.544C21.8189 24.2726 21.8849 23.8985 22.1563 23.7084L22.9004 23.1874V21.7997C22.9004 21.4683 23.1691 21.1997 23.5004 21.1997Z" fill="#FFCF28"/>
</svg>
