<svg width="21" height="20" viewBox="0 0 21 20" fill="none" xmlns="http://www.w3.org/2000/svg">
<path d="M10.25 18.9584C5.30832 18.9584 1.29166 14.9417 1.29166 10.0001C1.29166 5.05841 5.30832 1.04175 10.25 1.04175C15.1917 1.04175 19.2083 5.05841 19.2083 10.0001C19.2083 14.9417 15.1917 18.9584 10.25 18.9584ZM10.25 2.29175C5.99999 2.29175 2.54166 5.75008 2.54166 10.0001C2.54166 14.2501 5.99999 17.7084 10.25 17.7084C14.5 17.7084 17.9583 14.2501 17.9583 10.0001C17.9583 5.75008 14.5 2.29175 10.25 2.29175Z" fill="white"/>
<path d="M9.06667 12.9834C8.9 12.9834 8.74167 12.9167 8.625 12.8001L6.26667 10.4417C6.025 10.2001 6.025 9.80008 6.26667 9.55841C6.50834 9.31675 6.90834 9.31675 7.15 9.55841L9.06667 11.4751L13.35 7.19175C13.5917 6.95008 13.9917 6.95008 14.2333 7.19175C14.475 7.43341 14.475 7.83341 14.2333 8.07508L9.50834 12.8001C9.39167 12.9167 9.23334 12.9834 9.06667 12.9834Z" fill="white"/>
</svg>
