<svg width="32" height="32" viewBox="0 0 32 32" fill="none" xmlns="http://www.w3.org/2000/svg">
<path fill-rule="evenodd" clip-rule="evenodd" d="M2.66602 25.8071C2.66602 25.3363 3.08249 24.9546 3.59625 24.9546H28.4025C28.9162 24.9546 29.3327 25.3363 29.3327 25.8071C29.3327 26.2779 28.9162 26.6596 28.4025 26.6596H3.59625C3.08249 26.6596 2.66602 26.2779 2.66602 25.8071Z" fill="#0054E1"/>
<path fill-rule="evenodd" clip-rule="evenodd" d="M15.9696 5.70497C14.3136 5.70642 12.7822 6.04856 11.8754 6.62023C9.9557 7.83045 8.40245 10.3704 8.40245 14.4428C8.40245 18.7527 7.63053 23.3173 4.2546 26.4165C3.89163 26.7497 3.30264 26.7501 2.93905 26.4175C2.57545 26.0849 2.57494 25.5451 2.9379 25.2119C5.76352 22.6179 6.54198 18.6576 6.54198 14.4428C6.54198 9.99027 8.25316 6.83433 10.821 5.21554C12.1579 4.37271 14.1149 4.00163 15.9678 4.00001C17.8233 3.99838 19.7946 4.36694 21.1678 5.20905C23.8327 6.84317 25.4567 10.0036 25.4567 14.4428C25.4567 18.6574 26.2352 22.6179 29.0608 25.2119C29.4238 25.5451 29.4232 26.0849 29.0596 26.4175C28.6961 26.7501 28.1071 26.7497 27.7441 26.4165C24.3682 23.3173 23.5962 18.7525 23.5962 14.4428C23.5962 10.3576 22.1135 7.84039 20.1332 6.62604C19.1809 6.04205 17.6229 5.70353 15.9696 5.70497Z" fill="#0054E1"/>
<path fill-rule="evenodd" clip-rule="evenodd" d="M12.7832 25.8396C12.7832 25.8397 12.7832 25.8397 12.7832 25.8397C12.7832 25.8399 12.7833 25.8401 12.7833 25.8404L12.7867 25.8555C12.7904 25.8712 12.7969 25.8977 12.8066 25.9335C12.8261 26.0053 12.8583 26.1133 12.9067 26.2453C13.0044 26.5116 13.1628 26.8622 13.4048 27.2078C13.8758 27.8807 14.6528 28.5332 15.9994 28.5332C17.3459 28.5332 18.123 27.8807 18.594 27.2078C18.8359 26.8622 18.9944 26.5116 19.092 26.2453C19.1404 26.1133 19.1727 26.0053 19.1922 25.9335C19.2019 25.8977 19.2083 25.8712 19.212 25.8555L19.2154 25.8404L19.2154 25.8406L19.2152 25.8416L19.215 25.8423C19.2152 25.8414 19.2154 25.8405 19.2156 25.8397C19.2155 25.8399 19.2155 25.8401 19.2154 25.8404L19.2156 25.8394C19.2157 25.8391 19.2157 25.8392 19.2156 25.8397C19.3037 25.4083 19.7241 25.129 20.1563 25.2154C20.5895 25.302 20.8705 25.7235 20.7838 26.1568L19.9994 25.9999C20.7838 26.1568 20.7838 26.1571 20.7837 26.1575L20.7835 26.1584L20.7831 26.1603L20.7821 26.1651L20.7793 26.1784L20.7701 26.2191C20.7624 26.2522 20.7513 26.2973 20.7363 26.3527C20.7063 26.4631 20.6604 26.6156 20.5942 26.7961C20.4627 27.1548 20.2462 27.6376 19.9048 28.1253C19.2091 29.1191 17.9861 30.1332 15.9994 30.1332C14.0126 30.1332 12.7896 29.1191 12.094 28.1253C11.7526 27.6376 11.5361 27.1548 11.4045 26.7961C11.3383 26.6156 11.2925 26.4631 11.2625 26.3527C11.2474 26.2973 11.2363 26.2522 11.2286 26.2191L11.2194 26.1784L11.2166 26.1651L11.2156 26.1603L11.2152 26.1584L11.2151 26.1575C11.215 26.1571 11.2149 26.1568 11.9994 25.9999L11.2149 26.1568C11.1283 25.7235 11.4092 25.302 11.8425 25.2154C12.2746 25.129 12.695 25.4083 12.7832 25.8396Z" fill="#138300"/>
<path fill-rule="evenodd" clip-rule="evenodd" d="M14.0907 4.92451C13.9492 5.34057 13.498 5.56483 13.0804 5.42565C12.6613 5.28593 12.4348 4.83287 12.5745 4.41372L13.3334 4.6667C12.5745 4.41372 12.5746 4.41338 12.5747 4.41303L12.575 4.41229L12.5755 4.41067L12.5768 4.40687L12.5802 4.39704L12.5903 4.36883C12.5985 4.34636 12.6098 4.3166 12.6244 4.28061C12.6535 4.20876 12.6959 4.1112 12.7533 3.99643C12.8672 3.76868 13.0449 3.46325 13.3022 3.15455C13.8216 2.53124 14.6952 1.8667 16.0001 1.8667C17.305 1.8667 18.1786 2.53124 18.698 3.15455C18.9552 3.46325 19.133 3.76868 19.2469 3.99643C19.3043 4.1112 19.3467 4.20876 19.3758 4.28061C19.3903 4.3166 19.4016 4.34636 19.4099 4.36883L19.42 4.39704L19.4234 4.40687L19.4247 4.41067L19.4252 4.41229L19.4255 4.41303C19.4256 4.41338 19.4257 4.41372 18.6668 4.6667L19.4257 4.41372C19.5654 4.83287 19.3389 5.28593 18.9197 5.42565C18.5022 5.56483 18.051 5.34057 17.9094 4.9245L17.9077 4.91964C17.9052 4.91282 17.9002 4.89961 17.8926 4.88092C17.8775 4.84339 17.8522 4.7847 17.8158 4.71197C17.7422 4.56472 17.6283 4.37015 17.4688 4.17885C17.1549 3.80216 16.6952 3.4667 16.0001 3.4667C15.305 3.4667 14.8452 3.80216 14.5313 4.17885C14.3719 4.37015 14.258 4.56472 14.1844 4.71197C14.148 4.7847 14.1227 4.84339 14.1075 4.88092C14.1 4.89961 14.095 4.91282 14.0925 4.91964L14.0907 4.92451Z" fill="#138300"/>
</svg>
