<svg width="20" height="18" viewBox="0 0 20 18" fill="none" xmlns="http://www.w3.org/2000/svg">
<path fill-rule="evenodd" clip-rule="evenodd" d="M10 4.65332C10.2761 4.65332 10.5 4.87718 10.5 5.15332V6.91683C10.5 7.19297 10.2761 7.41683 10 7.41683C9.72386 7.41683 9.5 7.19297 9.5 6.91683V5.15332C9.5 4.87718 9.72386 4.65332 10 4.65332Z" fill="#707070"/>
<path fill-rule="evenodd" clip-rule="evenodd" d="M10.3236 0.285373L10 0.666504L9.6836 0.279358C9.87044 0.126648 10.1397 0.129178 10.3236 0.285373ZM9.99328 1.34788C9.93647 1.40318 9.87469 1.46513 9.80998 1.53282C9.51859 1.83766 9.18829 2.2378 8.97488 2.6564C8.7578 3.08221 8.70216 3.44417 8.81263 3.73309C8.9135 3.9969 9.20622 4.33666 9.99669 4.62372C10.7461 4.33982 11.0255 4.00444 11.1231 3.73898C11.2319 3.44354 11.1757 3.07576 10.9666 2.64956C10.7608 2.23029 10.4428 1.8302 10.1628 1.52587C10.1031 1.46098 10.046 1.40138 9.99328 1.34788ZM9.6836 0.279358C9.68376 0.279228 9.6836 0.279358 10 0.666504C10.3236 0.285373 10.3235 0.28524 10.3236 0.285373L10.3243 0.285959L10.3254 0.286841L10.3285 0.289487L10.3386 0.29826C10.3471 0.305636 10.359 0.316048 10.3739 0.329339C10.4038 0.355908 10.4459 0.394056 10.4974 0.44252C10.6003 0.53928 10.7417 0.678086 10.8988 0.848795C11.2085 1.18549 11.5982 1.66679 11.8643 2.20905C12.127 2.74438 12.3067 3.41826 12.0616 4.08435C11.812 4.76258 11.1795 5.28106 10.1608 5.62707C10.0584 5.66186 9.94746 5.6625 9.84464 5.62889C8.79459 5.2856 8.13887 4.771 7.87858 4.09023C7.6214 3.41763 7.81086 2.73794 8.08397 2.20221C8.36076 1.65929 8.76575 1.17802 9.08711 0.84184C9.25013 0.671298 9.39689 0.53266 9.5036 0.436062C9.55704 0.387677 9.60069 0.349606 9.63162 0.323111C9.64709 0.309857 9.65939 0.299482 9.66817 0.292141L9.67866 0.283421L9.68184 0.2808L9.6836 0.279358Z" fill="#707070"/>
<path fill-rule="evenodd" clip-rule="evenodd" d="M2.81055 11.8091C3.08669 11.8091 3.31055 12.0329 3.31055 12.3091V16.6921C3.31055 16.7263 3.32432 16.7611 3.35208 16.7884C3.38017 16.8159 3.4203 16.8331 3.46414 16.8331H16.536C16.5798 16.8331 16.62 16.8159 16.6481 16.7884C16.6758 16.7611 16.6896 16.7263 16.6896 16.6921V12.3091C16.6896 12.0329 16.9135 11.8091 17.1896 11.8091C17.4657 11.8091 17.6896 12.0329 17.6896 12.3091V16.6921C17.6896 16.9978 17.5657 17.2891 17.3483 17.5023C17.1312 17.7152 16.8389 17.8331 16.536 17.8331H3.46414C3.16129 17.8331 2.86893 17.7152 2.65188 17.5023C2.43449 17.2891 2.31055 16.9978 2.31055 16.6921V12.3091C2.31055 12.0329 2.5344 11.8091 2.81055 11.8091Z" fill="#707070"/>
<path fill-rule="evenodd" clip-rule="evenodd" d="M3.94621 7.47561C2.79996 7.47561 1.87074 8.3492 1.87074 9.42683V9.79348C1.87374 9.80935 1.87806 9.83111 1.88391 9.85806C1.89851 9.92532 1.92248 10.0242 1.95888 10.1439C2.03224 10.3853 2.15319 10.702 2.34287 11.0141C2.71899 11.6329 3.3305 12.1911 4.3786 12.1911C5.53736 12.1911 6.03955 11.8376 6.31221 11.5446C6.43989 11.4075 6.52609 11.2755 6.6171 11.1362C6.63599 11.1073 6.6551 11.078 6.67482 11.0484C6.72445 10.9737 6.79652 10.8679 6.88736 10.7809C6.98416 10.6882 7.15667 10.565 7.40533 10.565C7.63662 10.565 7.80695 10.6731 7.90277 10.7484C8.00221 10.8266 8.08843 10.923 8.15671 11.0041C8.21573 11.0742 8.26755 11.1394 8.31851 11.2035C8.40624 11.3138 8.49145 11.421 8.60655 11.5446C8.93169 11.894 9.34179 12.1911 9.99967 12.1911C10.6576 12.1911 11.0677 11.894 11.3928 11.5446C11.5079 11.421 11.5931 11.3138 11.6808 11.2035C11.7318 11.1394 11.7836 11.0742 11.8426 11.0041C11.9109 10.923 11.9971 10.8266 12.0966 10.7484C12.1924 10.6731 12.3627 10.565 12.594 10.565C12.8427 10.565 13.0152 10.6882 13.112 10.7809C13.2028 10.8679 13.2749 10.9737 13.3245 11.0484C13.3442 11.078 13.3634 11.1073 13.3822 11.1362C13.4733 11.2755 13.5595 11.4075 13.6871 11.5446C13.9598 11.8376 14.462 12.1911 15.6207 12.1911C16.6688 12.1911 17.2804 11.6329 17.6565 11.0141C17.8462 10.702 17.9671 10.3853 18.0405 10.1439C18.0769 10.0242 18.1008 9.92532 18.1154 9.85806C18.1213 9.83111 18.1256 9.80935 18.1286 9.79348V9.42683C18.1286 8.3492 17.1994 7.47561 16.0531 7.47561H3.94621ZM18.6475 9.83333L19.1611 9.90232C19.1646 9.87947 19.1663 9.85642 19.1663 9.83333V9.42683C19.1663 7.81039 17.7725 6.5 16.0531 6.5H3.94621C2.22684 6.5 0.833008 7.81039 0.833008 9.42683V9.83333C0.833008 9.85642 0.83475 9.87947 0.838223 9.90232L1.35188 9.83333C0.838223 9.90232 0.838189 9.9021 0.838223 9.90232L0.838364 9.90324L0.838548 9.90443L0.839046 9.9076L0.840581 9.91701C0.841851 9.92463 0.843625 9.93492 0.845957 9.94771C0.85062 9.97328 0.85753 10.0089 0.867133 10.0531C0.886314 10.1415 0.916396 10.265 0.961069 10.412C1.04985 10.7041 1.19915 11.0988 1.44186 11.4981C1.93051 12.3021 2.83237 13.1667 4.3786 13.1667C5.81418 13.1667 6.60917 12.7071 7.09319 12.1871C7.24167 12.0275 7.35741 11.8646 7.4442 11.7344C7.44633 11.7371 7.44848 11.7398 7.45065 11.7425C7.55207 11.8693 7.68725 12.0384 7.82558 12.1871C8.25712 12.6507 8.928 13.1667 9.99967 13.1667C11.0714 13.1667 11.7422 12.6507 12.1738 12.1871C12.3121 12.0384 12.4473 11.8693 12.5487 11.7425C12.5509 11.7397 12.553 11.7371 12.5552 11.7344C12.6419 11.8646 12.7577 12.0275 12.9062 12.1871C13.3902 12.7071 14.1852 13.1667 15.6207 13.1667C17.167 13.1667 18.0688 12.3021 18.5575 11.4981C18.8002 11.0988 18.9495 10.7041 19.0383 10.412C19.083 10.265 19.113 10.1415 19.1322 10.0531C19.1418 10.0089 19.1487 9.97328 19.1534 9.94771C19.1544 9.94205 19.1553 9.93688 19.1562 9.93221C19.1572 9.92633 19.1581 9.92125 19.1588 9.91701L19.1603 9.9076L19.1608 9.90443L19.161 9.90324L19.1611 9.90232C19.1612 9.9021 19.1611 9.90232 18.6475 9.83333Z" fill="#707070"/>
</svg>
