<svg width="16" height="16" viewBox="0 0 16 16" fill="none" xmlns="http://www.w3.org/2000/svg">
<path fill-rule="evenodd" clip-rule="evenodd" d="M1.77869 3.12356C1.74427 3.15453 1.73359 3.18631 1.73359 3.21193V14.121C1.73359 14.1467 1.74427 14.1784 1.77869 14.2094C1.81378 14.241 1.86958 14.2665 1.93965 14.2665H14.0609C14.1309 14.2665 14.1867 14.241 14.2218 14.2094C14.2562 14.1784 14.2669 14.1467 14.2669 14.121V3.21193C14.2669 3.18631 14.2562 3.15453 14.2218 3.12356C14.1867 3.09197 14.1309 3.06648 14.0609 3.06648H1.93965C1.86958 3.06648 1.81378 3.09197 1.77869 3.12356ZM0.933594 3.21193C0.933594 2.65117 1.42471 2.26648 1.93965 2.26648H14.0609C14.5758 2.26648 15.0669 2.65117 15.0669 3.21193V14.121C15.0669 14.6818 14.5758 15.0665 14.0609 15.0665H1.93965C1.42471 15.0665 0.933594 14.6818 0.933594 14.121V3.21193Z" fill="#138300"/>
<path fill-rule="evenodd" clip-rule="evenodd" d="M11.3336 0.933105C11.5545 0.933105 11.7336 1.11219 11.7336 1.33311L11.7336 3.99977C11.7336 4.22069 11.5545 4.39977 11.3336 4.39977C11.1127 4.39977 10.9336 4.22069 10.9336 3.99977L10.9336 1.33311C10.9336 1.11219 11.1127 0.933105 11.3336 0.933105Z" fill="#138300"/>
<path fill-rule="evenodd" clip-rule="evenodd" d="M4.67344 0.933167C4.89435 0.933672 5.07303 1.11317 5.07252 1.33408L5.06642 4.00075C5.06591 4.22166 4.88642 4.40034 4.6655 4.39983C4.44459 4.39933 4.26591 4.21983 4.26642 3.99892L4.27252 1.33225C4.27303 1.11134 4.45252 0.932661 4.67344 0.933167Z" fill="#138300"/>
<path fill-rule="evenodd" clip-rule="evenodd" d="M0.933594 5.33311C0.933594 5.11219 1.11268 4.93311 1.33359 4.93311H14.6669C14.8878 4.93311 15.0669 5.11219 15.0669 5.33311C15.0669 5.55402 14.8878 5.73311 14.6669 5.73311H1.33359C1.11268 5.73311 0.933594 5.55402 0.933594 5.33311Z" fill="#138300"/>
<path d="M4.66732 7.9998C4.66732 8.36799 4.36884 8.66646 4.00065 8.66646C3.63246 8.66646 3.33398 8.36799 3.33398 7.9998C3.33398 7.63161 3.63246 7.33313 4.00065 7.33313C4.36884 7.33313 4.66732 7.63161 4.66732 7.9998Z" fill="#138300"/>
<path d="M4.66732 11.9998C4.66732 12.368 4.36884 12.6665 4.00065 12.6665C3.63246 12.6665 3.33398 12.368 3.33398 11.9998C3.33398 11.6316 3.63246 11.3331 4.00065 11.3331C4.36884 11.3331 4.66732 11.6316 4.66732 11.9998Z" fill="#138300"/>
<path d="M8.66732 7.9998C8.66732 8.36799 8.36884 8.66646 8.00065 8.66646C7.63246 8.66646 7.33398 8.36799 7.33398 7.9998C7.33398 7.63161 7.63246 7.33313 8.00065 7.33313C8.36884 7.33313 8.66732 7.63161 8.66732 7.9998Z" fill="#138300"/>
<path d="M8.66732 11.9998C8.66732 12.368 8.36884 12.6665 8.00065 12.6665C7.63246 12.6665 7.33398 12.368 7.33398 11.9998C7.33398 11.6316 7.63246 11.3331 8.00065 11.3331C8.36884 11.3331 8.66732 11.6316 8.66732 11.9998Z" fill="#138300"/>
<path d="M12.6673 7.9998C12.6673 8.36799 12.3688 8.66646 12.0007 8.66646C11.6325 8.66646 11.334 8.36799 11.334 7.9998C11.334 7.63161 11.6325 7.33313 12.0007 7.33313C12.3688 7.33313 12.6673 7.63161 12.6673 7.9998Z" fill="#138300"/>
<path d="M12.6673 11.9998C12.6673 12.368 12.3688 12.6665 12.0007 12.6665C11.6325 12.6665 11.334 12.368 11.334 11.9998C11.334 11.6316 11.6325 11.3331 12.0007 11.3331C12.3688 11.3331 12.6673 11.6316 12.6673 11.9998Z" fill="#138300"/>
</svg>
