<svg width="30" height="30" viewBox="0 0 30 30" fill="none" xmlns="http://www.w3.org/2000/svg">
<path fill-rule="evenodd" clip-rule="evenodd" d="M8.55 3H8.5179H8.51788C7.70505 2.99999 7.04944 2.99999 6.51853 3.04336C5.9719 3.08803 5.49175 3.18239 5.04754 3.40873C4.34193 3.76825 3.76825 4.34193 3.40873 5.04754C3.18239 5.49175 3.08803 5.9719 3.04336 6.51853C2.99999 7.04944 2.99999 7.70505 3 8.51788V8.51789V8.55V21.45V21.4821C2.99999 22.2949 2.99999 22.9506 3.04336 23.4815C3.08803 24.0281 3.18239 24.5082 3.40873 24.9525C3.76825 25.6581 4.34193 26.2317 5.04754 26.5913C5.49175 26.8176 5.9719 26.912 6.51853 26.9566C7.04944 27 7.70505 27 8.51788 27H8.55H21.45H21.4821C22.295 27 22.9506 27 23.4815 26.9566C24.0281 26.912 24.5082 26.8176 24.9525 26.5913C25.6581 26.2317 26.2317 25.6581 26.5913 24.9525C26.8176 24.5082 26.912 24.0281 26.9566 23.4815C27 22.9506 27 22.295 27 21.4821V21.45V8.55V8.51788C27 7.70505 27 7.04944 26.9566 6.51853C26.912 5.9719 26.8176 5.49175 26.5913 5.04754C26.2317 4.34193 25.6581 3.76825 24.9525 3.40873C24.5082 3.18239 24.0281 3.08803 23.4815 3.04336C22.9506 2.99999 22.2949 2.99999 21.4821 3H21.45H8.55ZM10 11.75C10.4142 11.75 10.75 12.0858 10.75 12.5V20C10.75 20.4142 10.4142 20.75 10 20.75C9.58581 20.75 9.25003 20.4142 9.25003 20V12.5C9.25003 12.0858 9.58581 11.75 10 11.75ZM15.75 10C15.75 9.58579 15.4142 9.25 15 9.25C14.5858 9.25 14.25 9.58579 14.25 10V20C14.25 20.4142 14.5858 20.75 15 20.75C15.4142 20.75 15.75 20.4142 15.75 20V10ZM20 14.25C20.4142 14.25 20.75 14.5858 20.75 15V20C20.75 20.4142 20.4142 20.75 20 20.75C19.5858 20.75 19.25 20.4142 19.25 20V15C19.25 14.5858 19.5858 14.25 20 14.25Z" fill="url(#paint0_radial_15667_185443)"/>
<defs>
<radialGradient id="paint0_radial_15667_185443" cx="0" cy="0" r="1" gradientUnits="userSpaceOnUse" gradientTransform="translate(21.1538 -1) rotate(107.418) scale(32.8929)">
<stop stop-color="#A68FD7"/>
<stop offset="1" stop-color="#8870BE"/>
</radialGradient>
</defs>
</svg>
