<svg width="37" height="36" viewBox="0 0 37 36" fill="none" xmlns="http://www.w3.org/2000/svg">
<rect x="0.5" width="36" height="36" rx="18" fill="#FFF7E2"/>
<path fill-rule="evenodd" clip-rule="evenodd" d="M9.66699 20.083C9.66699 19.8069 9.89085 19.583 10.167 19.583H12.2503C12.5265 19.583 12.7503 19.8069 12.7503 20.083V26.333C12.7503 26.6092 12.5265 26.833 12.2503 26.833H10.167C9.89085 26.833 9.66699 26.6092 9.66699 26.333V20.083ZM10.667 20.583V25.833H11.7503V20.583H10.667Z" fill="#FF9800"/>
<path fill-rule="evenodd" clip-rule="evenodd" d="M13.834 16.333C13.834 16.0569 14.0578 15.833 14.334 15.833H16.4173C16.6935 15.833 16.9173 16.0569 16.9173 16.333V26.333C16.9173 26.6092 16.6935 26.833 16.4173 26.833H14.334C14.0578 26.833 13.834 26.6092 13.834 26.333V16.333ZM14.834 16.833V25.833H15.9173V16.833H14.834Z" fill="#FF9800"/>
<path fill-rule="evenodd" clip-rule="evenodd" d="M18 13C18 12.7239 18.2239 12.5 18.5 12.5H20.5833C20.8595 12.5 21.0833 12.7239 21.0833 13V18.4167C21.0833 18.6928 20.8595 18.9167 20.5833 18.9167C20.3072 18.9167 20.0833 18.6928 20.0833 18.4167V13.5H19V22.1667C19 22.4428 18.7761 22.6667 18.5 22.6667C18.2239 22.6667 18 22.4428 18 22.1667V13Z" fill="#FF9800"/>
<path fill-rule="evenodd" clip-rule="evenodd" d="M22.167 9.6665C22.167 9.39036 22.3908 9.1665 22.667 9.1665H24.7503C25.0265 9.1665 25.2503 9.39036 25.2503 9.6665V18.4165C25.2503 18.6926 25.0265 18.9165 24.7503 18.9165C24.4742 18.9165 24.2503 18.6926 24.2503 18.4165V10.1665H23.167V17.5832C23.167 17.8593 22.9431 18.0832 22.667 18.0832C22.3908 18.0832 22.167 17.8593 22.167 17.5832V9.6665Z" fill="#FF9800"/>
<path fill-rule="evenodd" clip-rule="evenodd" d="M22.1713 20.0127C21.8911 20.0618 21.6835 20.2484 21.5582 20.437C21.4094 20.661 21.333 20.9416 21.333 21.2264C21.333 21.4883 21.3721 21.7302 21.487 21.9383C21.609 22.1592 21.7838 22.2836 21.9406 22.363L22.9392 22.8623C22.9552 22.8707 22.9632 22.8762 22.9666 22.8787C22.9718 22.8894 22.9955 22.9472 22.9955 23.1073C22.9955 23.2127 22.9683 23.2911 22.9435 23.3335H22.4283C22.4239 23.3282 22.4185 23.3211 22.4123 23.3117C22.373 23.2527 22.333 23.1435 22.333 23.0002C22.333 22.724 22.1092 22.5002 21.833 22.5002C21.5569 22.5002 21.333 22.724 21.333 23.0002C21.333 23.3151 21.418 23.6226 21.5798 23.8657C21.7059 24.0552 21.9055 24.2388 22.1695 24.3063C22.1974 24.556 22.4092 24.7502 22.6663 24.7502C22.9187 24.7502 23.1274 24.5632 23.1615 24.3202C23.4395 24.2699 23.6456 24.0843 23.7703 23.8967C23.9191 23.6727 23.9955 23.3921 23.9955 23.1073C23.9955 22.8451 23.9563 22.6042 23.843 22.3971C23.7226 22.1771 23.5504 22.0525 23.3959 21.9726L22.3912 21.4702C22.3739 21.4614 22.3651 21.4555 22.3613 21.4528C22.3558 21.4411 22.333 21.3833 22.333 21.2264C22.333 21.121 22.3603 21.0426 22.3851 21.0002H22.9013C22.9064 21.0058 22.9131 21.0141 22.9212 21.0261C22.9599 21.0837 22.9997 21.1906 22.9997 21.3335C22.9997 21.6096 23.2235 21.8335 23.4997 21.8335C23.7758 21.8335 23.9997 21.6096 23.9997 21.3335C23.9997 21.0181 23.9145 20.7113 23.7511 20.4682C23.6227 20.2773 23.4235 20.0985 23.1635 20.0298C23.1367 19.7789 22.9243 19.5835 22.6663 19.5835C22.4142 19.5835 22.2057 19.7701 22.1713 20.0127Z" fill="#FF9800"/>
<path fill-rule="evenodd" clip-rule="evenodd" d="M22.6667 18.5C20.6416 18.5 19 20.1416 19 22.1667C19 24.1917 20.6416 25.8333 22.6667 25.8333C24.6917 25.8333 26.3333 24.1917 26.3333 22.1667C26.3333 20.1416 24.6917 18.5 22.6667 18.5ZM18 22.1667C18 19.5893 20.0893 17.5 22.6667 17.5C25.244 17.5 27.3333 19.5893 27.3333 22.1667C27.3333 24.744 25.244 26.8333 22.6667 26.8333C20.0893 26.8333 18 24.744 18 22.1667Z" fill="#FF9800"/>
</svg>
