<svg width="18" height="14" viewBox="0 0 18 14" fill="none" xmlns="http://www.w3.org/2000/svg">
<path fill-rule="evenodd" clip-rule="evenodd" d="M5.66683 4.29169C5.20659 4.29169 4.8335 4.66478 4.8335 5.12502C4.8335 5.58526 5.20659 5.95835 5.66683 5.95835C6.12707 5.95835 6.50016 5.58526 6.50016 5.12502C6.50016 4.66478 6.12707 4.29169 5.66683 4.29169ZM3.5835 5.12502C3.5835 3.97443 4.51624 3.04169 5.66683 3.04169C6.81742 3.04169 7.75016 3.97443 7.75016 5.12502C7.75016 6.27561 6.81742 7.20835 5.66683 7.20835C4.51624 7.20835 3.5835 6.27561 3.5835 5.12502Z" fill="#08979C"/>
<path fill-rule="evenodd" clip-rule="evenodd" d="M3.5184 8.27794C4.10871 7.82393 4.88006 7.625 5.66675 7.625C6.45344 7.625 7.22478 7.82393 7.81509 8.27794C8.42486 8.74691 8.79175 9.4525 8.79175 10.3333C8.79175 10.6785 8.51193 10.9583 8.16675 10.9583C7.82157 10.9583 7.54175 10.6785 7.54175 10.3333C7.54175 9.83202 7.34839 9.49594 7.05304 9.26878C6.73822 9.02666 6.25957 8.875 5.66675 8.875C5.07393 8.875 4.59527 9.02666 4.28046 9.26878C3.9851 9.49594 3.79175 9.83202 3.79175 10.3333C3.79175 10.6785 3.51193 10.9583 3.16675 10.9583C2.82157 10.9583 2.54175 10.6785 2.54175 10.3333C2.54175 9.4525 2.90864 8.74691 3.5184 8.27794Z" fill="#08979C"/>
<path fill-rule="evenodd" clip-rule="evenodd" d="M0.041748 3.66669C0.041748 1.9408 1.44086 0.541687 3.16675 0.541687H14.8334C16.5593 0.541687 17.9584 1.9408 17.9584 3.66669V10.3334C17.9584 12.0592 16.5593 13.4584 14.8334 13.4584H3.16675C1.44086 13.4584 0.041748 12.0592 0.041748 10.3334V3.66669ZM3.16675 1.79169C2.13121 1.79169 1.29175 2.63115 1.29175 3.66669V10.3334C1.29175 11.3689 2.13121 12.2084 3.16675 12.2084H14.8334C15.8689 12.2084 16.7084 11.3689 16.7084 10.3334V3.66669C16.7084 2.63115 15.8689 1.79169 14.8334 1.79169H3.16675Z" fill="#08979C"/>
<path fill-rule="evenodd" clip-rule="evenodd" d="M10.4585 9.08337C10.4585 8.7382 10.7383 8.45837 11.0835 8.45837H15.2502C15.5953 8.45837 15.8752 8.7382 15.8752 9.08337C15.8752 9.42855 15.5953 9.70837 15.2502 9.70837H11.0835C10.7383 9.70837 10.4585 9.42855 10.4585 9.08337Z" fill="#08979C"/>
<path fill-rule="evenodd" clip-rule="evenodd" d="M10.4585 5.75C10.4585 5.40482 10.7383 5.125 11.0835 5.125H15.2502C15.5953 5.125 15.8752 5.40482 15.8752 5.75C15.8752 6.09518 15.5953 6.375 15.2502 6.375H11.0835C10.7383 6.375 10.4585 6.09518 10.4585 5.75Z" fill="#08979C"/>
</svg>
