<svg width="21" height="20" viewBox="0 0 21 20" fill="none" xmlns="http://www.w3.org/2000/svg">
<path d="M10.25 18.9584C5.30833 18.9584 1.29167 14.9417 1.29167 10.0001C1.29167 5.05841 5.30833 1.04175 10.25 1.04175C15.1917 1.04175 19.2083 5.05841 19.2083 10.0001C19.2083 14.9417 15.1917 18.9584 10.25 18.9584ZM10.25 2.29175C6 2.29175 2.54167 5.75008 2.54167 10.0001C2.54167 14.2501 6 17.7084 10.25 17.7084C14.5 17.7084 17.9583 14.2501 17.9583 10.0001C17.9583 5.75008 14.5 2.29175 10.25 2.29175Z" fill="white"/>
<path d="M7.89167 12.9834C7.73334 12.9834 7.575 12.925 7.45 12.8C7.20834 12.5584 7.20834 12.1584 7.45 11.9167L12.1667 7.20005C12.4083 6.95838 12.8083 6.95838 13.05 7.20005C13.2917 7.44172 13.2917 7.84172 13.05 8.08338L8.33334 12.8C8.21667 12.925 8.05 12.9834 7.89167 12.9834Z" fill="white"/>
<path d="M12.6083 12.9834C12.45 12.9834 12.2917 12.925 12.1667 12.8L7.45 8.08338C7.20834 7.84172 7.20834 7.44172 7.45 7.20005C7.69167 6.95838 8.09167 6.95838 8.33334 7.20005L13.05 11.9167C13.2917 12.1584 13.2917 12.5584 13.05 12.8C12.925 12.925 12.7667 12.9834 12.6083 12.9834Z" fill="white"/>
</svg>
