<svg width="16" height="16" viewBox="0 0 16 16" fill="none" xmlns="http://www.w3.org/2000/svg">
<g clip-path="url(#clip0_13288_159576)">
<path fill-rule="evenodd" clip-rule="evenodd" d="M7.66676 2.06666C4.20578 2.06666 1.4001 4.87234 1.4001 8.33333C1.4001 11.7943 4.20578 14.6 7.66676 14.6C10.4721 14.6 12.848 12.7563 13.6466 10.2135C13.7128 10.0027 13.9373 9.88551 14.1481 9.95171C14.3589 10.0179 14.476 10.2424 14.4099 10.4532C13.5095 13.3198 10.8316 15.4 7.66676 15.4C3.76395 15.4 0.600098 12.2361 0.600098 8.33333C0.600098 4.43052 3.76395 1.26666 7.66676 1.26666C7.88768 1.26666 8.06676 1.44575 8.06676 1.66666C8.06676 1.88758 7.88768 2.06666 7.66676 2.06666Z" fill="#707070"/>
<path fill-rule="evenodd" clip-rule="evenodd" d="M9.06003 0.648923C9.15449 0.597331 9.26576 0.585985 9.36869 0.617448C11.1136 1.15081 12.6425 2.2579 13.7286 3.76941C14.8145 5.28068 15.4001 7.11581 15.4001 8.99998C15.4001 9.10606 15.358 9.20781 15.2829 9.28282C15.2079 9.35783 15.1062 9.39998 15.0001 9.39998L9.8001 9.39995C9.57919 9.39995 9.4001 9.22086 9.4001 8.99995C9.4001 8.77903 9.57919 8.59995 9.8001 8.59995L14.5904 8.59997C14.5143 7.02263 13.9889 5.50261 13.0789 4.23623C12.1744 2.97741 10.9353 2.0321 9.5229 1.51302L7.52823 8.59998H8.6001C8.82102 8.59998 9.0001 8.77906 9.0001 8.99998C9.0001 9.22089 8.82102 9.39998 8.6001 9.39998H7.0001C6.87486 9.39998 6.75685 9.34132 6.68124 9.24148C6.60562 9.14165 6.58113 9.01216 6.61506 8.8916L8.86672 0.891604C8.89588 0.787997 8.96557 0.700514 9.06003 0.648923Z" fill="#707070"/>
</g>
<defs>
<clipPath id="clip0_13288_159576">
<rect width="16" height="16" fill="white"/>
</clipPath>
</defs>
</svg>
