<svg width="16" height="16" viewBox="0 0 16 16" fill="none" xmlns="http://www.w3.org/2000/svg">
<g clip-path="url(#clip0_14047_177050)">
<path fill-rule="evenodd" clip-rule="evenodd" d="M10.8334 7C10.8334 6.72386 10.6095 6.5 10.3334 6.5H5.66671C5.39057 6.5 5.16671 6.72386 5.16671 7C5.16671 7.27614 5.39057 7.5 5.66671 7.5H10.3334C10.6095 7.5 10.8334 7.27614 10.8334 7Z" fill="#707070"/>
<path fill-rule="evenodd" clip-rule="evenodd" d="M14.1114 1.94582C13.4233 1.22633 12.4539 0.833008 11.3334 0.833008H4.66675C3.54625 0.833008 2.5769 1.22633 1.88875 1.94582C1.20251 2.66331 0.833414 3.66548 0.833414 4.81814V9.00029C0.833414 10.1529 1.20251 11.1551 1.88875 11.8726C2.47231 12.4827 3.25807 12.8583 4.16675 12.9584V13.9701C4.16675 14.8921 5.1822 15.5186 5.98555 14.9591M5.98555 14.9591L8.82352 12.9854H11.3334C12.4539 12.9854 13.4233 12.5921 14.1114 11.8726C14.7977 11.1551 15.1667 10.1529 15.1667 9.00029V4.81814C15.1667 3.66548 14.7977 2.66331 14.1114 1.94582M13.3887 2.63701C13.8692 3.13932 14.1667 3.87972 14.1667 4.81814V9.00029C14.1667 9.93871 13.8692 10.6791 13.3887 11.1814C12.9102 11.6817 12.2129 11.9854 11.3334 11.9854H8.66675C8.56468 11.9854 8.46506 12.0167 8.38127 12.0749L5.41459 14.1381C5.36332 14.1739 5.31114 14.1742 5.26174 14.1467C5.21113 14.1185 5.16675 14.0611 5.16675 13.9701V12.4854C5.16675 12.2093 4.94289 11.9854 4.66675 11.9854C3.78725 11.9854 3.08993 11.6817 2.61142 11.1814C2.13099 10.6791 1.83341 9.93871 1.83341 9.00029V4.81814C1.83341 3.87972 2.13099 3.13932 2.61142 2.63701C3.08993 2.13671 3.78725 1.83301 4.66675 1.83301H11.3334C12.2129 1.83301 12.9102 2.13671 13.3887 2.63701Z" fill="#707070"/>
</g>
<defs>
<clipPath id="clip0_14047_177050">
<rect width="16" height="16" fill="white"/>
</clipPath>
</defs>
</svg>
