<svg width="34" height="34" viewBox="0 0 34 34" fill="none" xmlns="http://www.w3.org/2000/svg">
<rect width="34" height="34" rx="17" fill="#DAD4FF"/>
<path fill-rule="evenodd" clip-rule="evenodd" d="M6.90039 8.9999C6.90039 7.56396 8.06445 6.3999 9.50039 6.3999H20.5004C21.9363 6.3999 23.1004 7.56396 23.1004 8.9999V15.9C23.1004 16.2314 22.8318 16.5 22.5004 16.5C22.169 16.5 21.9004 16.2314 21.9004 15.9V8.9999C21.9004 8.2267 21.2736 7.5999 20.5004 7.5999H9.50039C8.72719 7.5999 8.10039 8.2267 8.10039 8.9999V24.9999C8.10039 25.7731 8.72719 26.3999 9.50039 26.3999H17.9005C18.2319 26.3999 18.5005 26.6685 18.5005 26.9999C18.5005 27.3313 18.2319 27.5999 17.9005 27.5999H9.50039C8.06445 27.5999 6.90039 26.4358 6.90039 24.9999V8.9999Z" fill="#5C00FF"/>
<path fill-rule="evenodd" clip-rule="evenodd" d="M9.40039 10.9999C9.40039 10.6685 9.66902 10.3999 10.0004 10.3999H20.0004C20.3318 10.3999 20.6004 10.6685 20.6004 10.9999C20.6004 11.3313 20.3318 11.5999 20.0004 11.5999H10.0004C9.66902 11.5999 9.40039 11.3313 9.40039 10.9999Z" fill="#5C00FF"/>
<path fill-rule="evenodd" clip-rule="evenodd" d="M9.40039 14.9999C9.40039 14.6685 9.66902 14.3999 10.0004 14.3999H20.0004C20.3318 14.3999 20.6004 14.6685 20.6004 14.9999C20.6004 15.3313 20.3318 15.5999 20.0004 15.5999H10.0004C9.66902 15.5999 9.40039 15.3313 9.40039 14.9999Z" fill="#5C00FF"/>
<path fill-rule="evenodd" clip-rule="evenodd" d="M9.40039 18.9999C9.40039 18.6685 9.66902 18.3999 10.0004 18.3999H15.5004C15.8318 18.3999 16.1004 18.6685 16.1004 18.9999C16.1004 19.3313 15.8318 19.5999 15.5004 19.5999H10.0004C9.66902 19.5999 9.40039 19.3313 9.40039 18.9999Z" fill="#5C00FF"/>
<path fill-rule="evenodd" clip-rule="evenodd" d="M26.8332 17.5007C27.1089 17.6845 27.1834 18.0571 26.9996 18.3328L21.9996 25.8328C21.8946 25.9903 21.7214 26.089 21.5324 26.0991C21.3434 26.1092 21.1607 26.0295 21.0395 25.8841L18.5395 22.8841C18.3273 22.6295 18.3617 22.2512 18.6163 22.039C18.8709 21.8269 19.2492 21.8613 19.4613 22.1159L21.4469 24.4985L26.0012 17.6671C26.185 17.3914 26.5575 17.3169 26.8332 17.5007Z" fill="#5C00FF"/>
</svg>
