<svg width="20" height="20" viewBox="0 0 20 20" fill="none" xmlns="http://www.w3.org/2000/svg">
<path fill-rule="evenodd" clip-rule="evenodd" d="M7.3738 2.99951C7.26604 2.99951 7.16494 3.0516 7.10238 3.13934L6.07305 4.58307C5.82284 4.93402 5.41841 5.14237 4.9874 5.14237H2.36115C2.07814 5.14237 1.81291 5.24781 1.62235 5.426C1.43291 5.60313 1.33337 5.83591 1.33337 6.07094V16.0709C1.33337 16.306 1.43291 16.5387 1.62235 16.7159C1.81291 16.8941 2.07814 16.9995 2.36115 16.9995H17.6389C17.9219 16.9995 18.1872 16.8941 18.3777 16.7159C18.5672 16.5387 18.6667 16.306 18.6667 16.0709V6.07094C18.6667 5.83591 18.5672 5.60313 18.3777 5.426C18.1872 5.24781 17.9219 5.14237 17.6389 5.14237H15.0127C14.5817 5.14237 14.1772 4.93402 13.927 4.58307L12.8977 3.13934C12.8351 3.0516 12.734 2.99951 12.6263 2.99951H7.3738ZM6.28814 2.55881C6.53835 2.20786 6.94278 1.99951 7.3738 1.99951H12.6263C13.0573 1.99951 13.4617 2.20786 13.7119 2.55881L14.7413 4.00254C14.8038 4.09028 14.9049 4.14237 15.0127 4.14237H17.6389C18.1663 4.14237 18.6783 4.33795 19.0607 4.69558C19.4443 5.05426 19.6667 5.54821 19.6667 6.07094V16.0709C19.6667 16.5937 19.4443 17.0876 19.0607 17.4463C18.6783 17.8039 18.1663 17.9995 17.6389 17.9995H2.36115C1.83378 17.9995 1.32181 17.8039 0.939353 17.4463C0.555757 17.0876 0.333374 16.5937 0.333374 16.0709V6.07094C0.333374 5.54821 0.555757 5.05426 0.939353 4.69558C1.32181 4.33795 1.83378 4.14237 2.36115 4.14237H4.9874C5.09515 4.14237 5.19626 4.09028 5.25881 4.00254L6.28814 2.55881Z" fill="#707070"/>
<path fill-rule="evenodd" clip-rule="evenodd" d="M10.0001 7.99951C8.43527 7.99951 7.16675 9.26804 7.16675 10.8328C7.16675 12.3977 8.43527 13.6662 10.0001 13.6662C11.5649 13.6662 12.8334 12.3977 12.8334 10.8328C12.8334 9.26804 11.5649 7.99951 10.0001 7.99951ZM6.16675 10.8328C6.16675 8.71575 7.88299 6.99951 10.0001 6.99951C12.1172 6.99951 13.8334 8.71575 13.8334 10.8328C13.8334 12.9499 12.1172 14.6662 10.0001 14.6662C7.88299 14.6662 6.16675 12.9499 6.16675 10.8328Z" fill="#707070"/>
</svg>
