<svg width="16" height="16" viewBox="0 0 16 16" fill="none" xmlns="http://www.w3.org/2000/svg">
<path fill-rule="evenodd" clip-rule="evenodd" d="M1.77478 3.1227C1.74037 3.15368 1.72969 3.18545 1.72969 3.21108V14.1202C1.72969 14.1458 1.74037 14.1776 1.77478 14.2085C1.80988 14.2401 1.86567 14.2656 1.93575 14.2656H14.057C14.127 14.2656 14.1828 14.2401 14.2179 14.2085C14.2523 14.1776 14.263 14.1458 14.263 14.1202V3.21108C14.263 3.18545 14.2523 3.15368 14.2179 3.1227C14.1828 3.09112 14.127 3.06563 14.057 3.06563H1.93575C1.86567 3.06563 1.80988 3.09112 1.77478 3.1227ZM0.929688 3.21108C0.929688 2.65032 1.4208 2.26562 1.93575 2.26562H14.057C14.5719 2.26562 15.063 2.65032 15.063 3.21108V14.1202C15.063 14.6809 14.5719 15.0656 14.057 15.0656H1.93575C1.4208 15.0656 0.929688 14.6809 0.929688 14.1202V3.21108Z" fill="#212121"/>
<path fill-rule="evenodd" clip-rule="evenodd" d="M11.3297 0.929688C11.5506 0.929688 11.7297 1.10877 11.7297 1.32969L11.7297 3.99635C11.7297 4.21727 11.5506 4.39635 11.3297 4.39635C11.1088 4.39635 10.9297 4.21727 10.9297 3.99635L10.9297 1.32969C10.9297 1.10877 11.1088 0.929688 11.3297 0.929688Z" fill="#212121"/>
<path fill-rule="evenodd" clip-rule="evenodd" d="M4.67344 0.930603C4.89435 0.931109 5.07303 1.1106 5.07252 1.33152L5.06642 3.99818C5.06591 4.2191 4.88642 4.39777 4.6655 4.39727C4.44459 4.39676 4.26591 4.21727 4.26642 3.99635L4.27252 1.32969C4.27303 1.10877 4.45252 0.930097 4.67344 0.930603Z" fill="#212121"/>
<path fill-rule="evenodd" clip-rule="evenodd" d="M0.929688 5.32969C0.929688 5.10877 1.10877 4.92969 1.32969 4.92969H14.663C14.8839 4.92969 15.063 5.10877 15.063 5.32969C15.063 5.5506 14.8839 5.72969 14.663 5.72969H1.32969C1.10877 5.72969 0.929688 5.5506 0.929688 5.32969Z" fill="#212121"/>
<path d="M4.66146 7.99479C4.66146 8.36298 4.36298 8.66146 3.99479 8.66146C3.6266 8.66146 3.32812 8.36298 3.32812 7.99479C3.32812 7.6266 3.6266 7.32812 3.99479 7.32812C4.36298 7.32812 4.66146 7.6266 4.66146 7.99479Z" fill="#212121"/>
<path d="M4.66146 11.9948C4.66146 12.363 4.36298 12.6615 3.99479 12.6615C3.6266 12.6615 3.32812 12.363 3.32812 11.9948C3.32812 11.6266 3.6266 11.3281 3.99479 11.3281C4.36298 11.3281 4.66146 11.6266 4.66146 11.9948Z" fill="#212121"/>
<path d="M8.66146 7.99479C8.66146 8.36298 8.36298 8.66146 7.99479 8.66146C7.6266 8.66146 7.32812 8.36298 7.32812 7.99479C7.32812 7.6266 7.6266 7.32812 7.99479 7.32812C8.36298 7.32812 8.66146 7.6266 8.66146 7.99479Z" fill="#212121"/>
<path d="M8.66146 11.9948C8.66146 12.363 8.36298 12.6615 7.99479 12.6615C7.6266 12.6615 7.32812 12.363 7.32812 11.9948C7.32812 11.6266 7.6266 11.3281 7.99479 11.3281C8.36298 11.3281 8.66146 11.6266 8.66146 11.9948Z" fill="#212121"/>
<path d="M12.6615 7.99479C12.6615 8.36298 12.363 8.66146 11.9948 8.66146C11.6266 8.66146 11.3281 8.36298 11.3281 7.99479C11.3281 7.6266 11.6266 7.32812 11.9948 7.32812C12.363 7.32812 12.6615 7.6266 12.6615 7.99479Z" fill="#212121"/>
<path d="M12.6615 11.9948C12.6615 12.363 12.363 12.6615 11.9948 12.6615C11.6266 12.6615 11.3281 12.363 11.3281 11.9948C11.3281 11.6266 11.6266 11.3281 11.9948 11.3281C12.363 11.3281 12.6615 11.6266 12.6615 11.9948Z" fill="#212121"/>
</svg>
