<svg width="32" height="32" viewBox="0 0 32 32" fill="none" xmlns="http://www.w3.org/2000/svg">
<rect width="32" height="32" rx="8" fill="#7CB305"/>
<path d="M20.6334 20.9751H11.3667C8.05008 20.9751 7.04175 19.9667 7.04175 16.6501V11.3667C7.04175 8.05008 8.05008 7.04175 11.3667 7.04175H20.6251C23.9417 7.04175 24.9501 8.05008 24.9501 11.3667V16.6417C24.9584 19.9667 23.9501 20.9751 20.6334 20.9751ZM11.3667 8.29175C8.75008 8.29175 8.29175 8.75008 8.29175 11.3667V16.6417C8.29175 19.2584 8.75008 19.7167 11.3667 19.7167H20.6251C23.2417 19.7167 23.7001 19.2584 23.7001 16.6417V11.3667C23.7001 8.75008 23.2417 8.29175 20.6251 8.29175H11.3667Z" fill="white"/>
<path d="M16 24.9584C15.6583 24.9584 15.375 24.6751 15.375 24.3334V20.3501C15.375 20.0084 15.6583 19.7251 16 19.7251C16.3417 19.7251 16.625 20.0084 16.625 20.3501V24.3334C16.625 24.6751 16.3417 24.9584 16 24.9584Z" fill="white"/>
<path d="M24.3334 17.4583H7.66675C7.32508 17.4583 7.04175 17.1749 7.04175 16.8333C7.04175 16.4916 7.32508 16.2083 7.66675 16.2083H24.3334C24.6751 16.2083 24.9584 16.4916 24.9584 16.8333C24.9584 17.1749 24.6751 17.4583 24.3334 17.4583Z" fill="white"/>
<path d="M19.75 24.9583H12.25C11.9083 24.9583 11.625 24.6749 11.625 24.3333C11.625 23.9916 11.9083 23.7083 12.25 23.7083H19.75C20.0917 23.7083 20.375 23.9916 20.375 24.3333C20.375 24.6749 20.0917 24.9583 19.75 24.9583Z" fill="white"/>
</svg>
