<svg width="16" height="16" viewBox="0 0 16 16" fill="none" xmlns="http://www.w3.org/2000/svg">
<path fill-rule="evenodd" clip-rule="evenodd" d="M4.31051 4.31051C4.50577 4.11525 4.82235 4.11525 5.01762 4.31051L11.6843 10.9772C11.8795 11.1724 11.8795 11.489 11.6843 11.6843C11.489 11.8795 11.1724 11.8795 10.9772 11.6843L4.31051 5.01762C4.11525 4.82235 4.11525 4.50577 4.31051 4.31051Z" fill="#707070"/>
<path fill-rule="evenodd" clip-rule="evenodd" d="M11.6843 4.31051C11.8795 4.50577 11.8795 4.82235 11.6843 5.01762L5.01762 11.6843C4.82235 11.8795 4.50577 11.8795 4.31051 11.6843C4.11525 11.489 4.11525 11.1724 4.31051 10.9772L10.9772 4.31051C11.1724 4.11525 11.489 4.11525 11.6843 4.31051Z" fill="#707070"/>
</svg>
