<svg width="34" height="34" viewBox="0 0 34 34" fill="none" xmlns="http://www.w3.org/2000/svg">
<rect width="34" height="34" rx="17" fill="#DBF9FF"/>
<path fill-rule="evenodd" clip-rule="evenodd" d="M16.0004 7.5999C11.3612 7.5999 7.60039 11.3607 7.60039 15.9999C7.60039 20.4823 11.1116 24.145 15.5332 24.3871C15.8641 24.4053 16.1176 24.6882 16.0995 25.0191C16.0814 25.3499 15.7985 25.6035 15.4676 25.5854C10.4132 25.3086 6.40039 21.1231 6.40039 15.9999C6.40039 10.698 10.6985 6.3999 16.0004 6.3999C19.9791 6.3999 23.3911 8.82017 24.8472 12.2664C24.9761 12.5716 24.8332 12.9236 24.528 13.0526C24.2228 13.1816 23.8708 13.0387 23.7418 12.7334C22.4668 9.71575 19.48 7.5999 16.0004 7.5999Z" fill="#448AFF"/>
<path fill-rule="evenodd" clip-rule="evenodd" d="M16.0005 10.3999C16.3318 10.3999 16.6005 10.6685 16.6005 10.9999V15.9999C16.6005 16.2005 16.5002 16.3879 16.3333 16.4991L13.3333 18.4991C13.0576 18.6829 12.685 18.6084 12.5012 18.3327C12.3174 18.057 12.3919 17.6845 12.6676 17.5007L15.4005 15.6788V10.9999C15.4005 10.6685 15.6691 10.3999 16.0005 10.3999Z" fill="#448AFF"/>
<path fill-rule="evenodd" clip-rule="evenodd" d="M17.4004 15.9999C17.4004 15.6685 17.669 15.3999 18.0004 15.3999H21.0004V16.5999H18.6004V26.3999H26.4004V16.5999H24.0004V15.3999H27.0004C27.3318 15.3999 27.6004 15.6685 27.6004 15.9999V26.9999C27.6004 27.3313 27.3318 27.5999 27.0004 27.5999H18.0004C17.669 27.5999 17.4004 27.3313 17.4004 26.9999V15.9999Z" fill="#448AFF"/>
<path fill-rule="evenodd" clip-rule="evenodd" d="M19.9004 14.9999C19.9004 14.6685 20.169 14.3999 20.5004 14.3999H24.5004C24.8318 14.3999 25.1004 14.6685 25.1004 14.9999V16.4999C25.1004 16.8313 24.8318 17.0999 24.5004 17.0999H20.5004C20.169 17.0999 19.9004 16.8313 19.9004 16.4999V14.9999ZM21.1004 15.5999V15.8999H23.9004V15.5999H21.1004Z" fill="#448AFF"/>
<path fill-rule="evenodd" clip-rule="evenodd" d="M21.4004 18.9999C21.4004 18.6685 21.669 18.3999 22.0004 18.3999H25.0004C25.3318 18.3999 25.6004 18.6685 25.6004 18.9999C25.6004 19.3313 25.3318 19.5999 25.0004 19.5999H22.0004C21.669 19.5999 21.4004 19.3313 21.4004 18.9999Z" fill="#448AFF"/>
<path fill-rule="evenodd" clip-rule="evenodd" d="M21.4004 21.4999C21.4004 21.1685 21.669 20.8999 22.0004 20.8999H25.0004C25.3318 20.8999 25.6004 21.1685 25.6004 21.4999C25.6004 21.8313 25.3318 22.0999 25.0004 22.0999H22.0004C21.669 22.0999 21.4004 21.8313 21.4004 21.4999ZM21.4004 23.9999C21.4004 23.6685 21.669 23.3999 22.0004 23.3999H25.0004C25.3318 23.3999 25.6004 23.6685 25.6004 23.9999C25.6004 24.3313 25.3318 24.5999 25.0004 24.5999H22.0004C21.669 24.5999 21.4004 24.3313 21.4004 23.9999Z" fill="#448AFF"/>
<path fill-rule="evenodd" clip-rule="evenodd" d="M19.3008 18.9999C19.3008 18.6685 19.5694 18.3999 19.9008 18.3999H20.0008C20.3322 18.3999 20.6008 18.6685 20.6008 18.9999C20.6008 19.3313 20.3322 19.5999 20.0008 19.5999H19.9008C19.5694 19.5999 19.3008 19.3313 19.3008 18.9999ZM19.3009 21.4999C19.3009 21.1685 19.5695 20.8999 19.9009 20.8999H20.0009C20.3322 20.8999 20.6009 21.1685 20.6009 21.4999C20.6009 21.8313 20.3322 22.0999 20.0009 22.0999H19.9009C19.5695 22.0999 19.3009 21.8313 19.3009 21.4999ZM19.3009 23.9999C19.3009 23.6685 19.5695 23.3999 19.9009 23.3999H20.0009C20.3322 23.3999 20.6009 23.6685 20.6009 23.9999C20.6009 24.3313 20.3322 24.5999 20.0009 24.5999H19.9009C19.5695 24.5999 19.3009 24.3313 19.3009 23.9999Z" fill="#448AFF"/>
</svg>
