<svg width="24" height="24" viewBox="0 0 24 24" fill="none" xmlns="http://www.w3.org/2000/svg">
<path fill-rule="evenodd" clip-rule="evenodd" d="M12.0042 4.00574C12.4018 4.00574 12.7242 4.32809 12.7242 4.72574V12.2867C12.7242 12.6843 12.4018 13.0067 12.0042 13.0067C11.6065 13.0067 11.2842 12.6843 11.2842 12.2867L11.2842 4.72574C11.2842 4.32809 11.6065 4.00574 12.0042 4.00574Z" fill="black" fill-opacity="0.87"/>
<path fill-rule="evenodd" clip-rule="evenodd" d="M12 22.56C17.8321 22.56 22.56 17.8321 22.56 12C22.56 6.16787 17.8321 1.44 12 1.44C6.16787 1.44 1.44 6.16787 1.44 12C1.44 17.8321 6.16787 22.56 12 22.56ZM12 24C18.6274 24 24 18.6274 24 12C24 5.37258 18.6274 0 12 0C5.37258 0 0 5.37258 0 12C0 18.6274 5.37258 24 12 24Z" fill="black" fill-opacity="0.87"/>
<path fill-rule="evenodd" clip-rule="evenodd" d="M12.4736 11.8104C12.7548 12.0915 12.7548 12.5474 12.4736 12.8286L8.87365 16.4286C8.59247 16.7098 8.13659 16.7098 7.85541 16.4286C7.57424 16.1474 7.57424 15.6915 7.85541 15.4104L11.4554 11.8104C11.7366 11.5292 12.1925 11.5292 12.4736 11.8104Z" fill="black" fill-opacity="0.87"/>
</svg>
