<svg width="24" height="24" viewBox="0 0 24 24" fill="none" xmlns="http://www.w3.org/2000/svg">
<path fill-rule="evenodd" clip-rule="evenodd" d="M9.27413 1.07793C6.89387 1.07793 4.93082 3.02255 4.93082 5.4621C4.93082 7.90166 6.89387 9.84627 9.27413 9.84627C11.6544 9.84627 13.6174 7.90166 13.6174 5.4621C13.6174 3.02255 11.6544 1.07793 9.27413 1.07793ZM3.81929 5.4621C3.81929 2.46371 6.24303 0 9.27413 0C12.3052 0 14.729 2.46371 14.729 5.4621C14.729 8.4605 12.3052 10.9242 9.27413 10.9242C6.24303 10.9242 3.81929 8.4605 3.81929 5.4621Z" fill="black" fill-opacity="0.87"/>
<path d="M1.60662 13.4377C0.85224 15.0947 0.754405 17.0614 2.13498 18.3413C2.76532 18.9256 3.73703 19.4108 4.93925 19.753C6.13393 20.0931 7.51885 20.2814 8.93992 20.2992C10.3833 20.3173 12.202 20.0224 13.1449 19.824C14.0877 19.6257 14.0877 20.7182 13.566 20.8578C13.0442 20.9974 10.4833 21.4284 8.92715 21.4089C7.42951 21.3901 5.95348 21.192 4.65947 20.8237C3.37298 20.4574 2.22824 19.912 1.42889 19.171C-0.470922 17.4098 -0.196786 14.8132 0.646266 12.9614C1.07306 12.024 1.67261 11.2038 2.30477 10.6876C2.89517 10.2054 3.73549 9.83184 4.45095 10.3514C6.13789 11.5764 7.52508 12.2047 8.97385 12.2372C10.4243 12.2697 12.027 11.7068 14.1447 10.3418C14.4954 10.0937 14.8987 10.0625 15.2704 10.1477C15.6389 10.2322 16.0019 10.4343 16.3349 10.6934C16.8256 11.0752 17.2183 11.4318 17.7066 12.262C18.1949 13.0921 17.2183 13.3926 16.6966 12.6853C16.1748 11.9781 16.0349 11.8441 15.6994 11.5831C15.4411 11.3821 15.2157 11.2714 15.0423 11.2316C14.8768 11.1936 14.7902 11.2249 14.7386 11.2623L14.7268 11.2709L14.7145 11.2788C12.5137 12.699 10.6992 13.3858 8.95104 13.3467C7.19877 13.3074 5.60406 12.5407 3.8437 11.2623C3.74844 11.1932 3.47768 11.1388 2.95999 11.5615C2.48407 11.9502 1.97855 12.6208 1.60662 13.4377Z" fill="black" fill-opacity="0.87"/>
<path fill-rule="evenodd" clip-rule="evenodd" d="M18.7827 16.8593C17.9002 16.8593 17.1848 17.6082 17.1848 18.5322C17.1848 19.4561 17.9002 20.2051 18.7827 20.2051C19.6653 20.2051 20.3807 19.4561 20.3807 18.5322C20.3807 17.6082 19.6653 16.8593 18.7827 16.8593ZM16.4674 18.5322C16.4674 17.1934 17.504 16.1082 18.7827 16.1082C20.0615 16.1082 21.0981 17.1934 21.0981 18.5322C21.0981 19.8709 20.0615 20.9562 18.7827 20.9562C17.504 20.9562 16.4674 19.8709 16.4674 18.5322Z" fill="black" fill-opacity="0.87"/>
<path d="M19.3453 13.0757C19.4987 13.0757 19.636 13.1756 19.6876 13.3253L20.056 14.3943C20.188 14.4287 20.3012 14.4632 20.3972 14.4992C20.5021 14.5385 20.6372 14.5981 20.8042 14.6795L21.6619 14.2042C21.7319 14.1654 21.8121 14.1514 21.8903 14.1643C21.9686 14.1772 22.0408 14.2163 22.096 14.2758L22.8505 15.0924C22.9506 15.2011 22.9788 15.3601 22.9225 15.4988L22.5202 16.4859C22.587 16.6143 22.6402 16.7241 22.6809 16.8158C22.7247 16.9158 22.779 17.0535 22.8437 17.231L23.7813 17.6516C23.9221 17.7144 24.0093 17.8619 23.9999 18.0198L23.931 19.1532C23.9263 19.2269 23.901 19.2974 23.8584 19.3562C23.8157 19.4149 23.7575 19.4593 23.691 19.4837L22.803 19.8142C22.7774 19.9426 22.7508 20.0524 22.7226 20.1452C22.6772 20.2886 22.6253 20.4297 22.5671 20.568L23.0132 21.6004C23.0447 21.673 23.0532 21.7542 23.0374 21.8321C23.0217 21.91 22.9825 21.9807 22.9256 22.0336L22.0772 22.8268C22.0214 22.8788 21.9516 22.9117 21.8774 22.921C21.8032 22.9304 21.728 22.9158 21.6619 22.8792L20.7875 22.3941C20.6507 22.47 20.5095 22.5369 20.3648 22.5946L19.9829 22.7443L19.6438 23.7275C19.6187 23.7995 19.5733 23.8619 19.5137 23.9064C19.4541 23.951 19.3831 23.9756 19.3099 23.9772L18.3185 24.0006C18.2434 24.0027 18.1695 23.9803 18.107 23.9366C18.0445 23.8929 17.9964 23.8299 17.9695 23.7565L17.5698 22.6492C17.4335 22.6004 17.2985 22.5476 17.165 22.4908C17.0558 22.4413 16.9482 22.388 16.8425 22.3308L15.8512 22.7743C15.7859 22.8035 15.7139 22.8122 15.6439 22.7993C15.574 22.7864 15.5091 22.7525 15.4573 22.7017L14.7237 21.9812C14.6691 21.9278 14.6319 21.8577 14.6174 21.781C14.6029 21.7042 14.6118 21.6246 14.6428 21.5535L15.0691 20.5811C15.0124 20.466 14.9598 20.3486 14.9115 20.2293C14.8551 20.0834 14.8029 19.9356 14.755 19.7863L13.8211 19.4886C13.7452 19.4646 13.6789 19.415 13.6327 19.3476C13.5865 19.2801 13.5628 19.1985 13.5654 19.1155L13.6019 18.0662C13.6045 17.9977 13.625 17.9313 13.661 17.8741C13.6971 17.8169 13.7474 17.7712 13.8065 17.7417L14.7863 17.249C14.8317 17.0748 14.8713 16.9393 14.9063 16.8404C14.9555 16.7084 15.0102 16.5786 15.0701 16.4515L14.6454 15.512C14.6132 15.4406 14.6034 15.3604 14.6175 15.2828C14.6315 15.2053 14.6687 15.1344 14.7237 15.0804L15.4562 14.3561C15.5076 14.3054 15.5718 14.2713 15.6413 14.2579C15.7107 14.2445 15.7823 14.2525 15.8475 14.2807L16.8378 14.709C16.9474 14.6325 17.0465 14.5708 17.1363 14.5211C17.2432 14.4615 17.3862 14.3992 17.5662 14.3321L17.9105 13.3264C17.936 13.2528 17.9825 13.1892 18.0438 13.1444C18.105 13.0995 18.178 13.0755 18.2528 13.0757H19.3453ZM19.0897 13.8279H18.509L18.1933 14.7532C18.1748 14.8072 18.1447 14.856 18.1055 14.896C18.0663 14.9361 18.0189 14.9662 17.9669 14.9843C17.7394 15.0635 17.5751 15.1318 17.479 15.1847C17.3773 15.241 17.2474 15.3268 17.093 15.4415C17.0424 15.4786 16.9837 15.5018 16.9223 15.5089C16.861 15.5159 16.7989 15.5067 16.7418 15.4819L15.787 15.0695L15.415 15.4377L15.8027 16.2953C15.8496 16.3991 15.8486 16.5192 15.7995 16.6214C15.6952 16.8404 15.6248 17.0021 15.5893 17.1015C15.5538 17.2004 15.5063 17.3703 15.4484 17.6052C15.4353 17.6584 15.4112 17.708 15.3779 17.7505C15.3445 17.7929 15.3027 17.8272 15.2554 17.851L14.3214 18.3202L14.3026 18.8555L15.1479 19.1243C15.26 19.1598 15.3487 19.2499 15.3858 19.3657C15.4693 19.6279 15.5361 19.8213 15.5841 19.9426C15.6477 20.0965 15.718 20.2472 15.7948 20.3943C15.8475 20.497 15.8512 20.6194 15.8048 20.7253L15.4129 21.6201L15.7839 21.985L16.7136 21.5687C16.7637 21.5463 16.8179 21.5359 16.8724 21.5382C16.9268 21.5404 16.98 21.5554 17.0283 21.5819C17.2187 21.6867 17.3606 21.7594 17.4504 21.7993C17.5417 21.8391 17.7164 21.9058 17.97 21.9965C18.0204 22.0145 18.0663 22.0439 18.1045 22.0826C18.1428 22.1213 18.1724 22.1684 18.1912 22.2204L18.5606 23.2424L19.0438 23.2315L19.3553 22.328C19.3731 22.2765 19.4014 22.2296 19.4382 22.1906C19.4751 22.1517 19.5196 22.1216 19.5687 22.1024L20.1097 21.8905C20.2464 21.8375 20.4123 21.7539 20.6059 21.6392C20.6595 21.6077 20.7197 21.5908 20.7812 21.59C20.8426 21.5893 20.9033 21.6047 20.9576 21.6348L21.7804 22.091L22.2431 21.6589L21.8383 20.7232C21.8175 20.6751 21.8067 20.623 21.8066 20.5703C21.8065 20.5175 21.8171 20.4654 21.8377 20.4173C21.9327 20.1949 21.9969 20.0272 22.0292 19.9202C22.0611 19.8153 22.0939 19.664 22.1257 19.4695C22.1367 19.4035 22.1643 19.3417 22.2056 19.2905C22.247 19.2393 22.3006 19.2006 22.3611 19.1784L23.2209 18.8588L23.2585 18.2361L22.4132 17.857C22.3682 17.8369 22.3276 17.8075 22.2938 17.7705C22.26 17.7335 22.2337 17.6897 22.2165 17.6418C22.1563 17.4676 22.0905 17.2957 22.0193 17.1261C21.9519 16.9785 21.8788 16.8338 21.8002 16.6924C21.7729 16.6424 21.7571 16.5866 21.7539 16.5291C21.7508 16.4717 21.7603 16.4143 21.7819 16.3614L22.1602 15.4327L21.7616 15.0012L20.9852 15.4317C20.9345 15.4598 20.8782 15.4751 20.8209 15.4763C20.7635 15.4776 20.7067 15.4647 20.6549 15.4388C20.4901 15.353 20.3216 15.2753 20.1499 15.2061C20.0035 15.1546 19.8541 15.1126 19.7027 15.0804C19.6427 15.0671 19.5868 15.038 19.5405 14.9958C19.4941 14.9537 19.4587 14.8999 19.4377 14.8395L19.0897 13.8279Z" fill="black" fill-opacity="0.87"/>
</svg>
