<svg width="24" height="24" viewBox="0 0 24 24" fill="none" xmlns="http://www.w3.org/2000/svg">
<path fill-rule="evenodd" clip-rule="evenodd" d="M1.39999 22.0004C1.39999 21.669 1.66862 21.4004 1.99999 21.4004H20C20.3314 21.4004 20.6 21.669 20.6 22.0004C20.6 22.3318 20.3314 22.6004 20 22.6004H1.99999C1.66862 22.6004 1.39999 22.3318 1.39999 22.0004Z" fill="#138300"/>
<path fill-rule="evenodd" clip-rule="evenodd" d="M20.9 22.0004C20.9 21.669 21.1686 21.4004 21.5 21.4004H22C22.3314 21.4004 22.6 21.669 22.6 22.0004C22.6 22.3318 22.3314 22.6004 22 22.6004H21.5C21.1686 22.6004 20.9 22.3318 20.9 22.0004Z" fill="#138300"/>
<path fill-rule="evenodd" clip-rule="evenodd" d="M1.89999 14.0004C1.89999 13.669 2.16862 13.4004 2.49999 13.4004H4.49999C4.83136 13.4004 5.09999 13.669 5.09999 14.0004V22.0004C5.09999 22.3318 4.83136 22.6004 4.49999 22.6004H2.49999C2.16862 22.6004 1.89999 22.3318 1.89999 22.0004V14.0004ZM3.09999 14.6004V21.4004H3.89999V14.6004H3.09999Z" fill="#138300"/>
<path fill-rule="evenodd" clip-rule="evenodd" d="M6.89999 8.00039C6.89999 7.66902 7.16862 7.40039 7.49999 7.40039H9.49999C9.83136 7.40039 10.1 7.66902 10.1 8.00039V22.0006C10.1 22.3319 9.83136 22.6006 9.49999 22.6006H7.49999C7.16862 22.6006 6.89999 22.3319 6.89999 22.0006V8.00039ZM8.09999 8.60039V21.4006H8.89999V8.60039H8.09999Z" fill="#138300"/>
<path fill-rule="evenodd" clip-rule="evenodd" d="M11.9 12.0004C11.9 11.669 12.1686 11.4004 12.5 11.4004H14.5C14.8314 11.4004 15.1 11.669 15.1 12.0004V22.0002C15.1 22.3316 14.8314 22.6002 14.5 22.6002H12.5C12.1686 22.6002 11.9 22.3316 11.9 22.0002V12.0004ZM13.1 12.6004V21.4002H13.9V12.6004H13.1Z" fill="#138300"/>
<path fill-rule="evenodd" clip-rule="evenodd" d="M16.9 5.50039C16.9 5.16902 17.1686 4.90039 17.5 4.90039H19.5C19.8314 4.90039 20.1 5.16902 20.1 5.50039V22.0001C20.1 22.3315 19.8314 22.6001 19.5 22.6001H17.5C17.1686 22.6001 16.9 22.3315 16.9 22.0001V5.50039ZM18.1 6.10039V21.4001H18.9V6.10039H18.1Z" fill="#138300"/>
<path fill-rule="evenodd" clip-rule="evenodd" d="M17.4019 2.06762C17.648 2.28961 17.6675 2.66901 17.4455 2.91503L12.9455 7.90234C12.7376 8.13275 12.3883 8.1666 12.14 7.9804L8.53977 5.28023L2.40697 10.9413C2.16347 11.166 1.78388 11.1509 1.55911 10.9074C1.33435 10.6639 1.34954 10.2843 1.59303 10.0595L8.09303 4.05951C8.30577 3.86314 8.62839 3.84669 8.86 4.0204L12.4216 6.69161L16.5545 2.11115C16.7765 1.86512 17.1559 1.84564 17.4019 2.06762Z" fill="#138300"/>
<path fill-rule="evenodd" clip-rule="evenodd" d="M15.4 2.00039C15.4 1.66902 15.6686 1.40039 16 1.40039H17.5C17.8314 1.40039 18.1 1.66902 18.1 2.00039V3.53885C18.1 3.87022 17.8314 4.13885 17.5 4.13885C17.1686 4.13885 16.9 3.87022 16.9 3.53885V2.60039H16C15.6686 2.60039 15.4 2.33176 15.4 2.00039Z" fill="#138300"/>
</svg>
