<svg width="49" height="49" viewBox="0 0 49 49" fill="none" xmlns="http://www.w3.org/2000/svg">
    <path fill-rule="evenodd" clip-rule="evenodd" d="M20.0971 3.18078C15.2105 3.18078 11.1804 7.11495 11.1804 12.0504C11.1804 16.9859 15.2105 20.9201 20.0971 20.9201C24.9837 20.9201 29.0138 16.9859 29.0138 12.0504C29.0138 7.11495 24.9837 3.18078 20.0971 3.18078ZM8.89844 12.0504C8.89844 5.98435 13.8743 1 20.0971 1C26.3199 1 31.2958 5.98435 31.2958 12.0504C31.2958 18.1165 26.3199 23.1009 20.0971 23.1009C13.8743 23.1009 8.89844 18.1165 8.89844 12.0504Z" fill="black" fill-opacity="0.87" stroke="#707070" stroke-width="0.2" />
    <path d="M4.29836 28.369C2.74963 31.7213 2.54878 35.7002 5.38307 38.2895C6.67715 39.4717 8.67204 40.4533 11.1402 41.1456C13.5928 41.8337 16.436 42.2145 19.3535 42.2506C22.3166 42.2872 24.0003 41.8614 25.936 41.46C27.8717 41.0587 27.8716 43.2689 26.8005 43.5514C25.7293 43.8338 22.522 44.535 19.3272 44.4955C16.2526 44.4575 13.2224 44.0569 10.5658 43.3116C7.92467 42.5707 5.57453 41.4672 3.93349 39.9681C0.0332068 36.405 0.596002 31.1517 2.32677 27.4054C3.20296 25.5089 4.43383 23.8497 5.73165 22.8052C6.94372 21.8297 8.66887 21.074 10.1377 22.1251C13.601 24.6035 16.4488 25.8746 19.4231 25.9403C22.4009 26.006 25.6912 24.8672 30.0389 22.1057C30.7587 21.6038 31.5868 21.5406 32.3498 21.713C33.1063 21.8839 33.8516 22.2928 34.5352 22.817C35.1327 23.2752 35.0694 23.2357 36.1984 24.3483C37.3275 25.4609 35.9006 27.1846 34.3166 25.6236C34.3166 25.6236 33.6524 24.9404 33.2305 24.617C32.7003 24.2104 32.2376 23.9863 31.8815 23.9058C31.5417 23.8291 31.364 23.8922 31.258 23.968L31.2338 23.9854L31.2086 24.0014C26.6904 26.8745 22.9652 28.2641 19.3763 28.1849C15.7789 28.1055 12.505 26.5543 8.89103 23.9681C8.69547 23.8281 8.1396 23.718 7.0768 24.5734C6.09975 25.3597 5.06191 26.7163 4.29836 28.369Z" fill="black" fill-opacity="0.87" stroke="#707070" stroke-width="0.2" />
    <path fill-rule="evenodd" clip-rule="evenodd" d="M38.4684 34.3172C36.5121 34.3172 34.9263 35.88 34.9263 37.8078C34.9263 39.7356 36.5121 41.2983 38.4684 41.2983C40.4246 41.2983 42.0105 39.7356 42.0105 37.8078C42.0105 35.88 40.4246 34.3172 38.4684 34.3172ZM33.3359 37.8078C33.3359 35.0144 35.6338 32.75 38.4684 32.75C41.303 32.75 43.6008 35.0144 43.6008 37.8078C43.6008 40.6011 41.303 42.8655 38.4684 42.8655C35.6338 42.8655 33.3359 40.6011 33.3359 37.8078Z" fill="#5278FD" />
    <path d="M39.4446 26.8984C39.7595 26.8984 40.0412 27.1007 40.1473 27.4035L40.9035 29.5662C41.1745 29.6358 41.4069 29.7054 41.604 29.7784C41.8193 29.8579 42.0968 29.9784 42.4395 30.1431L44.2005 29.1816C44.3442 29.103 44.5088 29.0747 44.6694 29.1008C44.8301 29.1269 44.9783 29.206 45.0917 29.3264L46.6405 30.9785C46.8462 31.1985 46.904 31.52 46.7883 31.8007L45.9625 33.7977C46.0996 34.0574 46.2089 34.2795 46.2924 34.4652C46.3824 34.6674 46.4938 34.9459 46.6266 35.3051L48.5514 36.156C48.8407 36.2831 49.0195 36.5815 49.0003 36.9009L48.8589 39.194C48.8492 39.343 48.7974 39.4857 48.7098 39.6046C48.6222 39.7234 48.5027 39.8131 48.3661 39.8626L46.5431 40.5312C46.4906 40.7909 46.4359 41.013 46.3781 41.2009C46.2848 41.491 46.1783 41.7765 46.0589 42.0562L46.9747 44.1449C47.0394 44.2917 47.0568 44.4559 47.0244 44.6136C46.992 44.7713 46.9115 44.9142 46.7948 45.0213L45.0531 46.6259C44.9384 46.7311 44.7953 46.7977 44.6429 46.8167C44.4905 46.8356 44.3361 46.8061 44.2005 46.732L42.4052 45.7507C42.1244 45.9041 41.8346 46.0395 41.5376 46.1562L40.7535 46.459L40.0573 48.4482C40.0057 48.5939 39.9126 48.7201 39.7903 48.8102C39.668 48.9004 39.5221 48.9502 39.3718 48.9533L37.3366 49.0008C37.1823 49.005 37.0306 48.9597 36.9022 48.8713C36.7739 48.7828 36.6753 48.6555 36.62 48.5068L35.7995 46.2667C35.5196 46.168 35.2424 46.0612 34.9683 45.9463C34.7441 45.8462 34.5234 45.7382 34.3064 45.6225L32.2712 46.5198C32.1371 46.5788 31.9892 46.5964 31.8457 46.5703C31.7021 46.5442 31.569 46.4756 31.4625 46.3728L29.9565 44.9152C29.8443 44.8071 29.768 44.6654 29.7382 44.5102C29.7084 44.3549 29.7267 44.1939 29.7904 44.0499L30.6655 42.0828C30.5492 41.8498 30.4413 41.6124 30.3421 41.3711C30.2263 41.0757 30.1191 40.7768 30.0207 40.4748L28.1034 39.8725C27.9475 39.8239 27.8116 39.7236 27.7167 39.5871C27.6218 39.4506 27.5732 39.2856 27.5785 39.1177L27.6535 36.9948C27.6588 36.8563 27.7008 36.7219 27.7748 36.6062C27.8488 36.4905 27.952 36.3979 28.0734 36.3384L30.085 35.3415C30.1782 34.989 30.2596 34.7149 30.3313 34.5149C30.4324 34.2477 30.5446 33.9852 30.6677 33.7281L29.7958 31.8273C29.7296 31.6829 29.7095 31.5206 29.7384 31.3638C29.7673 31.2069 29.8436 31.0635 29.9565 30.9542L31.4603 29.4888C31.5658 29.3863 31.6977 29.3173 31.8402 29.2902C31.9827 29.2632 32.1298 29.2792 32.2637 29.3363L34.2967 30.2027C34.5216 30.048 34.7252 29.9231 34.9094 29.8226C35.129 29.7021 35.4225 29.5761 35.792 29.4402L36.499 27.4057C36.5512 27.2568 36.6468 27.1282 36.7725 27.0374C36.8983 26.9466 37.0482 26.8981 37.2016 26.8984H39.4446ZM38.9198 28.4202H37.7276L37.0795 30.2923C37.0414 30.4014 36.9798 30.5002 36.8992 30.5812C36.8187 30.6622 36.7214 30.7232 36.6147 30.7597C36.1476 30.92 35.8102 31.0581 35.6131 31.1653C35.4043 31.2791 35.1376 31.4526 34.8205 31.6847C34.7167 31.7598 34.5962 31.8067 34.4702 31.821C34.3442 31.8353 34.2167 31.8166 34.0996 31.7665L32.1394 30.9321L31.3757 31.677L32.1716 33.412C32.268 33.622 32.2658 33.8651 32.1651 34.0718C31.9509 34.5149 31.8063 34.842 31.7335 35.0432C31.6606 35.2432 31.5632 35.5869 31.4443 36.0621C31.4174 36.1698 31.3679 36.2701 31.2995 36.356C31.231 36.4419 31.1452 36.5113 31.0479 36.5594L29.1306 37.5087L29.092 38.5917L30.8273 39.1354C31.0576 39.2072 31.2397 39.3896 31.3157 39.6239C31.4871 40.1543 31.6242 40.5455 31.7228 40.7909C31.8533 41.1022 31.9977 41.4072 32.1555 41.7048C32.2637 41.9126 32.2712 42.1601 32.1759 42.3745L31.3714 44.1847L32.133 44.9229L34.0418 44.0808C34.1446 44.0355 34.2559 44.0144 34.3676 44.0189C34.4793 44.0235 34.5887 44.0537 34.6877 44.1073C35.0786 44.3195 35.37 44.4665 35.5542 44.5472C35.7417 44.6279 36.1005 44.7627 36.6211 44.9461C36.7244 44.9825 36.8187 45.042 36.8972 45.1203C36.9757 45.1987 37.0365 45.2939 37.0752 45.3992L37.8336 47.4669L38.8255 47.4448L39.465 45.6169C39.5015 45.5126 39.5597 45.4178 39.6353 45.339C39.711 45.2602 39.8023 45.1993 39.9031 45.1605L41.0138 44.7317C41.2945 44.6245 41.6351 44.4555 42.0325 44.2234C42.1425 44.1596 42.2662 44.1254 42.3924 44.1239C42.5185 44.1223 42.643 44.1535 42.7544 44.2145L44.4436 45.1373L45.3937 44.2632L44.5625 42.3701C44.5198 42.2729 44.4977 42.1675 44.4975 42.0608C44.4973 41.9541 44.5191 41.8486 44.5614 41.7512C44.7564 41.3014 44.8881 40.9622 44.9546 40.7456C45.0199 40.5334 45.0874 40.2273 45.1527 39.8338C45.1752 39.7002 45.2318 39.5752 45.3167 39.4716C45.4016 39.3681 45.5118 39.2898 45.6358 39.2448L47.401 38.5983L47.4782 37.3385L45.7429 36.5715C45.6505 36.531 45.5671 36.4714 45.4977 36.3966C45.4283 36.3218 45.3743 36.2331 45.3391 36.1361C45.2153 35.7839 45.0803 35.4359 44.9342 35.0929C44.7959 34.7942 44.6458 34.5015 44.4843 34.2154C44.4284 34.1144 44.3959 34.0013 44.3894 33.8851C44.3829 33.7689 44.4025 33.6528 44.4468 33.5457L45.2234 31.667L44.4051 30.794L42.8112 31.6648C42.7072 31.7218 42.5916 31.7527 42.4738 31.7552C42.3561 31.7577 42.2394 31.7317 42.1332 31.6792C41.7949 31.5056 41.4489 31.3485 41.0963 31.2084C40.7957 31.1042 40.4891 31.0194 40.1783 30.9542C40.055 30.9272 39.9404 30.8684 39.8452 30.7831C39.75 30.6979 39.6774 30.589 39.6342 30.4669L38.9198 28.4202Z" fill="#5278FD" />
</svg>