<svg width="20" height="20" viewBox="0 0 20 20" fill="none" xmlns="http://www.w3.org/2000/svg">
<path d="M13.3334 18.9584H6.66678C2.81677 18.9584 2.10011 17.1667 1.91677 15.425L1.29177 8.75003C1.20011 7.87503 1.17511 6.58336 2.04177 5.61669C2.79177 4.78336 4.03344 4.38336 5.83344 4.38336H14.1668C15.9751 4.38336 17.2168 4.79169 17.9584 5.61669C18.8251 6.58336 18.8001 7.87503 18.7084 8.75836L18.0834 15.4167C17.9001 17.1667 17.1834 18.9584 13.3334 18.9584ZM5.83344 5.62503C4.42511 5.62503 3.45844 5.90003 2.96677 6.45003C2.55844 6.90003 2.42511 7.5917 2.53344 8.62503L3.15844 15.3C3.30011 16.6167 3.65844 17.7084 6.66678 17.7084H13.3334C16.3334 17.7084 16.7001 16.6167 16.8418 15.2917L17.4668 8.63336C17.5751 7.59169 17.4418 6.90003 17.0334 6.45003C16.5418 5.90003 15.5751 5.62503 14.1668 5.62503H5.83344Z" fill="#08979C"/>
<path d="M13.3334 5.62502C12.9917 5.62502 12.7084 5.34169 12.7084 5.00002V4.33335C12.7084 2.85002 12.7084 2.29169 10.6667 2.29169H9.33341C7.29175 2.29169 7.29175 2.85002 7.29175 4.33335V5.00002C7.29175 5.34169 7.00841 5.62502 6.66675 5.62502C6.32508 5.62502 6.04175 5.34169 6.04175 5.00002V4.33335C6.04175 2.86669 6.04175 1.04169 9.33341 1.04169H10.6667C13.9584 1.04169 13.9584 2.86669 13.9584 4.33335V5.00002C13.9584 5.34169 13.6751 5.62502 13.3334 5.62502Z" fill="#08979C"/>
<path d="M9.99992 13.9583C7.70825 13.9583 7.70825 12.5417 7.70825 11.6917V10.8333C7.70825 9.65833 7.99159 9.375 9.16659 9.375H10.8333C12.0083 9.375 12.2916 9.65833 12.2916 10.8333V11.6667C12.2916 12.5333 12.2916 13.9583 9.99992 13.9583ZM8.95825 10.625C8.95825 10.6917 8.95825 10.7667 8.95825 10.8333V11.6917C8.95825 12.55 8.95825 12.7083 9.99992 12.7083C11.0416 12.7083 11.0416 12.575 11.0416 11.6833V10.8333C11.0416 10.7667 11.0416 10.6917 11.0416 10.625C10.9749 10.625 10.8999 10.625 10.8333 10.625H9.16659C9.09992 10.625 9.02492 10.625 8.95825 10.625Z" fill="#08979C"/>
<path d="M11.6667 12.3083C11.3584 12.3083 11.0834 12.075 11.0501 11.7583C11.0084 11.4166 11.2501 11.1 11.5917 11.0583C13.7917 10.7833 15.9001 9.94998 17.6751 8.65831C17.9501 8.44998 18.3417 8.51664 18.5501 8.79998C18.7501 9.07498 18.6917 9.46664 18.4084 9.67498C16.4584 11.0916 14.1584 12 11.7417 12.3083C11.7167 12.3083 11.6917 12.3083 11.6667 12.3083Z" fill="#08979C"/>
<path d="M8.33345 12.3167C8.30845 12.3167 8.28345 12.3167 8.25845 12.3167C5.97511 12.0583 3.75011 11.225 1.82511 9.90833C1.54178 9.71667 1.46678 9.325 1.65845 9.04167C1.85011 8.75833 2.24178 8.68333 2.52511 8.875C4.28345 10.075 6.30845 10.8333 8.39178 11.075C8.73345 11.1167 8.98345 11.425 8.94178 11.7667C8.91678 12.0833 8.65011 12.3167 8.33345 12.3167Z" fill="#08979C"/>
</svg>
