<svg width="16" height="16" viewBox="0 0 16 16" fill="none" xmlns="http://www.w3.org/2000/svg">
<g clip-path="url(#clip0_12551_161926)">
<path fill-rule="evenodd" clip-rule="evenodd" d="M9.59961 1.33311C9.59961 1.11219 9.7787 0.933105 9.99961 0.933105H13.9996C14.5887 0.933105 15.0663 1.41067 15.0663 1.99977V5.99977C15.0663 6.22069 14.8872 6.39977 14.6663 6.39977C14.4454 6.39977 14.2663 6.22069 14.2663 5.99977V1.99977C14.2663 1.8525 14.1469 1.73311 13.9996 1.73311H9.99961C9.7787 1.73311 9.59961 1.55402 9.59961 1.33311Z" fill="#333333"/>
<path fill-rule="evenodd" clip-rule="evenodd" d="M9.59961 14.6664C9.59961 14.8873 9.7787 15.0664 9.99961 15.0664H13.9996C14.5887 15.0664 15.0663 14.5888 15.0663 13.9997V9.99974C15.0663 9.77883 14.8872 9.59974 14.6663 9.59974C14.4454 9.59974 14.2663 9.77883 14.2663 9.99974V13.9997C14.2663 14.147 14.1469 14.2664 13.9996 14.2664H9.99961C9.7787 14.2664 9.59961 14.4455 9.59961 14.6664Z" fill="#333333"/>
<path fill-rule="evenodd" clip-rule="evenodd" d="M6.40039 14.6664C6.40039 14.8873 6.2213 15.0664 6.00039 15.0664H2.00039C1.41129 15.0664 0.933724 14.5888 0.933724 13.9997V9.99974C0.933724 9.77883 1.11281 9.59974 1.33372 9.59974C1.55464 9.59974 1.73372 9.77883 1.73372 9.99974V13.9997C1.73372 14.147 1.85312 14.2664 2.00039 14.2664H6.00039C6.2213 14.2664 6.40039 14.4455 6.40039 14.6664Z" fill="#333333"/>
<path fill-rule="evenodd" clip-rule="evenodd" d="M6.40039 1.33311C6.40039 1.11219 6.2213 0.933105 6.00039 0.933105H2.00039C1.41129 0.933105 0.933724 1.41067 0.933724 1.99977V5.99977C0.933724 6.22069 1.11281 6.39977 1.33372 6.39977C1.55464 6.39977 1.73372 6.22069 1.73372 5.99977V1.99977C1.73372 1.8525 1.85312 1.73311 2.00039 1.73311H6.00039C6.2213 1.73311 6.40039 1.55402 6.40039 1.33311Z" fill="#333333"/>
<path fill-rule="evenodd" clip-rule="evenodd" d="M0.933594 7.99961C0.933594 7.7787 1.11268 7.59961 1.33359 7.59961H14.6669C14.8878 7.59961 15.0669 7.7787 15.0669 7.99961C15.0669 8.22052 14.8878 8.39961 14.6669 8.39961H1.33359C1.11268 8.39961 0.933594 8.22052 0.933594 7.99961Z" fill="#333333"/>
</g>
<defs>
<clipPath id="clip0_12551_161926">
<rect width="16" height="16" fill="white"/>
</clipPath>
</defs>
</svg>
