<svg width="20" height="20" viewBox="0 0 20 20" fill="none" xmlns="http://www.w3.org/2000/svg">
<path fill-rule="evenodd" clip-rule="evenodd" d="M9.9974 3.66406C10.8141 3.66407 11.3307 4.44739 11.3307 5.41406C11.3307 6.29283 11.1152 7.89487 10.9082 9.24006C10.8035 9.92073 10.6989 10.5487 10.6204 11.0063C10.5812 11.2352 10.5485 11.4217 10.5255 11.5511L10.4989 11.7005L10.4893 11.7534C10.4893 11.7534 10.4893 11.7535 9.9974 11.664C9.50546 11.7535 9.50545 11.7534 9.50545 11.7534L9.49591 11.7005L9.46926 11.5511C9.44633 11.4217 9.41362 11.2352 9.37438 11.0063C9.29592 10.5487 9.19126 9.92073 9.08654 9.24005C8.87959 7.89486 8.66406 6.29281 8.66406 5.41404C8.66406 4.44738 9.18073 3.66405 9.9974 3.66406ZM9.9974 11.664L9.50545 11.7534C9.54867 11.9911 9.75575 12.164 9.9974 12.164C10.239 12.164 10.4461 11.9911 10.4893 11.7534L9.9974 11.664ZM9.9974 8.57342C10.1765 7.35723 10.3307 6.10389 10.3307 5.41406C10.3307 5.0774 10.2466 4.87823 10.1703 4.77657C10.0964 4.67804 10.0293 4.66406 9.99739 4.66406C9.96553 4.66406 9.89837 4.67803 9.82448 4.77656C9.74823 4.87822 9.66406 5.07738 9.66406 5.41404C9.66406 6.10388 9.81826 7.35722 9.9974 8.57342Z" fill="#FF4D4D"/>
<path d="M10.8307 14.1615C10.8307 14.6217 10.4576 14.9948 9.9974 14.9948C9.53716 14.9948 9.16406 14.6217 9.16406 14.1615C9.16406 13.7012 9.53716 13.3281 9.9974 13.3281C10.4576 13.3281 10.8307 13.7012 10.8307 14.1615Z" fill="#FF4D4D"/>
<path fill-rule="evenodd" clip-rule="evenodd" d="M9.9974 2.16406C5.67117 2.16406 2.16406 5.67117 2.16406 9.9974C2.16406 14.3236 5.67117 17.8307 9.9974 17.8307C14.3236 17.8307 17.8307 14.3236 17.8307 9.9974C17.8307 5.67117 14.3236 2.16406 9.9974 2.16406ZM1.16406 9.9974C1.16406 5.11888 5.11888 1.16406 9.9974 1.16406C14.8759 1.16406 18.8307 5.11888 18.8307 9.9974C18.8307 14.8759 14.8759 18.8307 9.9974 18.8307C5.11888 18.8307 1.16406 14.8759 1.16406 9.9974Z" fill="#FF4D4D"/>
</svg>
