<svg width="20" height="20" viewBox="0 0 20 20" fill="none" xmlns="http://www.w3.org/2000/svg">
<path fill-rule="evenodd" clip-rule="evenodd" d="M1.16699 5.00016C1.16699 3.80355 2.13704 2.8335 3.33366 2.8335H16.667C17.8636 2.8335 18.8337 3.80355 18.8337 5.00016V15.0002C18.8337 16.1968 17.8636 17.1668 16.667 17.1668H3.33366C2.13704 17.1668 1.16699 16.1968 1.16699 15.0002V5.00016ZM3.33366 3.8335C2.68933 3.8335 2.16699 4.35583 2.16699 5.00016V15.0002C2.16699 15.6445 2.68933 16.1668 3.33366 16.1668H16.667C17.3113 16.1668 17.8337 15.6445 17.8337 15.0002V5.00016C17.8337 4.35583 17.3113 3.8335 16.667 3.8335H3.33366Z" fill="#707070"/>
<path fill-rule="evenodd" clip-rule="evenodd" d="M2.08403 3.8897C2.2372 3.65993 2.54764 3.59784 2.7774 3.75102L9.3529 8.13469C9.74478 8.39594 10.2553 8.39594 10.6472 8.13469L17.2227 3.75102C17.4525 3.59784 17.7629 3.65993 17.9161 3.8897C18.0693 4.11946 18.0072 4.42989 17.7774 4.58307L11.2019 8.96674C10.4741 9.45193 9.52598 9.45193 8.7982 8.96674L2.2227 4.58307C1.99294 4.42989 1.93085 4.11946 2.08403 3.8897Z" fill="#707070"/>
</svg>
