<svg width="20" height="15" viewBox="0 0 20 15" fill="none" xmlns="http://www.w3.org/2000/svg">
<path fill-rule="evenodd" clip-rule="evenodd" d="M0.333008 3.33301C0.333008 1.67615 1.67615 0.333008 3.33301 0.333008H16.6663C18.3232 0.333008 19.6663 1.67615 19.6663 3.33301V11.6663C19.6663 13.3232 18.3232 14.6663 16.6663 14.6663H3.33301C1.67615 14.6663 0.333008 13.3232 0.333008 11.6663V3.33301ZM3.33301 1.33301C2.22844 1.33301 1.33301 2.22844 1.33301 3.33301V11.6663C1.33301 12.7709 2.22844 13.6663 3.33301 13.6663H16.6663C17.7709 13.6663 18.6663 12.7709 18.6663 11.6663V3.33301C18.6663 2.22844 17.7709 1.33301 16.6663 1.33301H3.33301Z" fill="#707070"/>
<path fill-rule="evenodd" clip-rule="evenodd" d="M3.86972 5.69254C3.86972 4.63739 4.7307 3.75 5.83324 3.75C6.93577 3.75 7.79676 4.63739 7.79676 5.69254C7.79676 6.7477 6.93577 7.63509 5.83324 7.63509C4.7307 7.63509 3.86972 6.7477 3.86972 5.69254ZM5.83324 4.70296C5.31346 4.70296 4.86106 5.1293 4.86106 5.69254C4.86106 6.25579 5.31346 6.68213 5.83324 6.68213C6.35301 6.68213 6.80542 6.25579 6.80542 5.69254C6.80542 5.1293 6.35301 4.70296 5.83324 4.70296ZM3.36448 7.60108C3.57376 7.44715 4.02063 7.21703 4.44405 7.49394C4.95996 7.83134 5.33841 7.97327 5.7067 7.9807C6.07729 7.98817 6.52287 7.86102 7.17222 7.48478C7.37622 7.35769 7.60104 7.34925 7.78234 7.38669C7.96087 7.42355 8.11982 7.50737 8.24962 7.59833C8.51068 7.78127 8.74842 8.0594 8.91447 8.36799C9.0809 8.67732 9.1973 9.05851 9.15952 9.45187C9.12015 9.86178 8.91435 10.257 8.49272 10.5524C7.76189 11.0645 6.66367 11.2607 5.68069 11.2496C5.17837 11.2439 4.67841 11.1842 4.23403 11.0702C3.7968 10.9581 3.377 10.7843 3.06871 10.5269C2.29749 9.88301 2.44164 8.95559 2.73868 8.36801C2.89238 8.06396 3.11355 7.78563 3.36448 7.60108ZM3.98578 8.34773L3.98272 8.34997C3.87962 8.4258 3.74773 8.5764 3.64628 8.77708C3.43439 9.19624 3.45656 9.58318 3.73509 9.81572C3.88355 9.93967 4.13992 10.0623 4.4978 10.1541C4.84852 10.244 5.26258 10.2954 5.69274 10.3003C6.57467 10.3102 7.41523 10.125 7.89314 9.79015C8.07595 9.66206 8.14343 9.51725 8.15794 9.36608C8.17407 9.19819 8.12485 8.997 8.01784 8.79811C7.91041 8.59846 7.76675 8.44241 7.65 8.36059C7.63827 8.35237 7.62766 8.3455 7.61823 8.33978C6.92726 8.72983 6.30883 8.94241 5.6852 8.92983C5.07354 8.91749 4.53195 8.69 3.98578 8.34773Z" fill="#707070"/>
<path fill-rule="evenodd" clip-rule="evenodd" d="M10.75 5.83301C10.75 5.55687 10.9739 5.33301 11.25 5.33301H16.6667C16.9428 5.33301 17.1667 5.55687 17.1667 5.83301C17.1667 6.10915 16.9428 6.33301 16.6667 6.33301H11.25C10.9739 6.33301 10.75 6.10915 10.75 5.83301Z" fill="#707070"/>
<path fill-rule="evenodd" clip-rule="evenodd" d="M10.75 9.99951C10.75 9.72337 10.9739 9.49951 11.25 9.49951H16.6667C16.9428 9.49951 17.1667 9.72337 17.1667 9.99951C17.1667 10.2757 16.9428 10.4995 16.6667 10.4995H11.25C10.9739 10.4995 10.75 10.2757 10.75 9.99951Z" fill="#707070"/>
</svg>
