<svg width="36" height="36" viewBox="0 0 36 36" fill="none" xmlns="http://www.w3.org/2000/svg">
<g filter="url(#filter0_dd_6484_95737)">
<path fill-rule="evenodd" clip-rule="evenodd" d="M18.4544 18.1678C18.6379 17.9614 18.9539 17.9428 19.1603 18.1263L22.5781 21.1644L25.9959 18.1263C26.2023 17.9428 26.5184 17.9614 26.7018 18.1678C26.8853 18.3742 26.8667 18.6903 26.6603 18.8737L22.9103 22.207C22.7209 22.3754 22.4354 22.3754 22.2459 22.207L18.4959 18.8737C18.2896 18.6903 18.271 18.3742 18.4544 18.1678Z" fill="#595959"/>
<path fill-rule="evenodd" clip-rule="evenodd" d="M22.5781 12.1641C22.8543 12.1641 23.0781 12.3879 23.0781 12.6641V21.4141C23.0781 21.6902 22.8543 21.9141 22.5781 21.9141C22.302 21.9141 22.0781 21.6902 22.0781 21.4141V12.6641C22.0781 12.3879 22.302 12.1641 22.5781 12.1641Z" fill="#595959"/>
<path fill-rule="evenodd" clip-rule="evenodd" d="M9.16406 15.1641C9.16406 14.8879 9.38792 14.6641 9.66406 14.6641H16.4823C16.7584 14.6641 16.9823 14.8879 16.9823 15.1641C16.9823 15.4402 16.7584 15.6641 16.4823 15.6641H9.66406C9.38792 15.6641 9.16406 15.4402 9.16406 15.1641Z" fill="#595959"/>
<path fill-rule="evenodd" clip-rule="evenodd" d="M9.16406 10.1641C9.16406 9.88792 9.38792 9.66406 9.66406 9.66406H22.5429C22.819 9.66406 23.0429 9.88792 23.0429 10.1641C23.0429 10.4402 22.819 10.6641 22.5429 10.6641H9.66406C9.38792 10.6641 9.16406 10.4402 9.16406 10.1641Z" fill="#595959"/>
<path fill-rule="evenodd" clip-rule="evenodd" d="M9.16406 20.1641C9.16406 19.8879 9.38792 19.6641 9.66406 19.6641H14.9671C15.2433 19.6641 15.4671 19.8879 15.4671 20.1641C15.4671 20.4402 15.2433 20.6641 14.9671 20.6641H9.66406C9.38792 20.6641 9.16406 20.4402 9.16406 20.1641Z" fill="#595959"/>
<rect x="6.25" y="4.25" width="23.5" height="23.5" rx="3.75" stroke="#595959" stroke-width="0.5" shape-rendering="crispEdges"/>
</g>
<defs>
<filter id="filter0_dd_6484_95737" x="0" y="0" width="36" height="36" filterUnits="userSpaceOnUse" color-interpolation-filters="sRGB">
<feFlood flood-opacity="0" result="BackgroundImageFix"/>
<feColorMatrix in="SourceAlpha" type="matrix" values="0 0 0 0 0 0 0 0 0 0 0 0 0 0 0 0 0 0 127 0" result="hardAlpha"/>
<feOffset dy="1"/>
<feGaussianBlur stdDeviation="1.5"/>
<feComposite in2="hardAlpha" operator="out"/>
<feColorMatrix type="matrix" values="0 0 0 0 0 0 0 0 0 0 0 0 0 0 0 0 0 0 0.15 0"/>
<feBlend mode="normal" in2="BackgroundImageFix" result="effect1_dropShadow_6484_95737"/>
<feColorMatrix in="SourceAlpha" type="matrix" values="0 0 0 0 0 0 0 0 0 0 0 0 0 0 0 0 0 0 127 0" result="hardAlpha"/>
<feOffset dy="2"/>
<feGaussianBlur stdDeviation="3"/>
<feComposite in2="hardAlpha" operator="out"/>
<feColorMatrix type="matrix" values="0 0 0 0 0 0 0 0 0 0 0 0 0 0 0 0 0 0 0.05 0"/>
<feBlend mode="normal" in2="effect1_dropShadow_6484_95737" result="effect2_dropShadow_6484_95737"/>
<feBlend mode="normal" in="SourceGraphic" in2="effect2_dropShadow_6484_95737" result="shape"/>
</filter>
</defs>
</svg>
