<svg width="20" height="20" viewBox="0 0 20 20" fill="none" xmlns="http://www.w3.org/2000/svg">
<path fill-rule="evenodd" clip-rule="evenodd" d="M1.51253 3.95147C1.63052 4.0796 2.08333 4.58333 2.08333 4.58333L7.08333 10.1566V18.3333C7.08333 18.5019 7.18485 18.6538 7.34055 18.7183C7.49625 18.7828 7.67546 18.7471 7.79463 18.628L11.128 15.2946C11.2061 15.2165 11.25 15.1105 11.25 15V10.1566L16.25 4.58333C16.25 4.58333 16.7028 4.0796 16.8208 3.95147C16.9671 3.79264 17.0833 3.58423 17.0833 3.33333C17.0833 3.08244 16.9671 2.87402 16.8208 2.7152C16.6766 2.55861 16.484 2.42759 16.2711 2.31574C15.8444 2.09157 15.2544 1.90231 14.5604 1.74808C13.1655 1.43812 11.2588 1.25 9.16667 1.25C7.07455 1.25 5.1678 1.43812 3.77298 1.74808C3.07895 1.90231 2.48892 2.09157 2.06226 2.31574C1.84936 2.42759 1.65672 2.55861 1.51253 2.7152C1.36628 2.87402 1.25 3.08244 1.25 3.33333C1.25 3.58423 1.36628 3.79264 1.51253 3.95147ZM3.39134 3.96464C2.84371 3.75598 2.42185 3.51578 2.15141 3.25355C2.21071 3.1974 2.30633 3.12885 2.44985 3.05345C2.78222 2.87882 3.29055 2.70894 3.95375 2.56157C5.2734 2.26831 7.11665 2.08333 9.16667 2.08333C11.2167 2.08333 13.0599 2.26831 14.3796 2.56157C15.0428 2.70894 15.5511 2.87882 15.8835 3.05345C16.027 3.12885 16.1226 3.1974 16.1819 3.25355C15.9115 3.51577 15.4896 3.75598 14.942 3.96464C14.7693 4.01322 14.5816 4.0602 14.3796 4.1051C13.0599 4.39835 11.2167 4.58333 9.16667 4.58333C7.11665 4.58333 5.2734 4.39835 3.95375 4.1051C3.75171 4.0602 3.56404 4.01321 3.39134 3.96464Z" fill="#138300"/>
<path fill-rule="evenodd" clip-rule="evenodd" d="M15.4167 13.833C15.0024 13.833 14.6667 14.1688 14.6667 14.583C14.6667 14.9972 15.0024 15.333 15.4167 15.333C15.8309 15.333 16.1667 14.9972 16.1667 14.583C16.1667 14.1688 15.8309 13.833 15.4167 13.833ZM13.6667 14.583C13.6667 13.6165 14.4502 12.833 15.4167 12.833C16.3832 12.833 17.1667 13.6165 17.1667 14.583C17.1667 15.5495 16.3832 16.333 15.4167 16.333C14.4502 16.333 13.6667 15.5495 13.6667 14.583Z" fill="#138300"/>
<path fill-rule="evenodd" clip-rule="evenodd" d="M14.4962 11.1838C14.6448 11.1437 14.8037 11.1743 14.9268 11.2667L15.4167 11.6347L15.9066 11.2667C16.0295 11.1744 16.1881 11.1437 16.3365 11.1836C16.6288 11.2621 16.9095 11.3785 17.1715 11.5298C17.3045 11.6066 17.3948 11.7402 17.4165 11.8921L17.5029 12.497L18.1077 12.5834C18.2599 12.6051 18.3936 12.6956 18.4703 12.8289C18.6211 13.0907 18.7373 13.371 18.8161 13.6627C18.8562 13.8113 18.8256 13.9702 18.7331 14.0933L18.3652 14.5832L18.7331 15.0731C18.8255 15.196 18.8561 15.3546 18.8162 15.503C18.7377 15.7953 18.6213 16.076 18.47 16.338C18.3932 16.471 18.2597 16.5613 18.1077 16.583L17.5029 16.6694L17.4165 17.2742C17.3947 17.4264 17.3042 17.5601 17.171 17.6368C16.9091 17.7876 16.6289 17.9038 16.3372 17.9826C16.1885 18.0227 16.0297 17.9921 15.9066 17.8996L15.398 17.5176H15.2452L15.0218 17.806C14.8984 17.9653 14.6914 18.035 14.4968 17.9827C14.2046 17.9042 13.9238 17.7878 13.6618 17.6365C13.5289 17.5597 13.4386 17.4262 13.4169 17.2742L13.3305 16.6694L12.7256 16.583C12.5734 16.5612 12.4397 16.4707 12.363 16.3375C12.2122 16.0756 12.096 15.7954 12.0173 15.5037C11.9772 15.355 12.0078 15.1962 12.1002 15.0731L12.4682 14.5832L12.1002 14.0933C12.0079 13.9704 11.9772 13.8118 12.0171 13.6633C12.0956 13.3711 12.212 13.0903 12.3633 12.8283C12.4401 12.6954 12.5737 12.6051 12.7256 12.5834L13.3305 12.497L13.4169 11.8921C13.4386 11.7399 13.5291 11.6062 13.6624 11.5295C13.9242 11.3787 14.2045 11.2625 14.4962 11.1838ZM13.4818 14.7093C13.4869 14.8251 13.4516 14.939 13.382 15.0316L13.0548 15.4673C13.0753 15.5221 13.0977 15.5762 13.122 15.6294L13.6601 15.7063C13.7719 15.7223 13.875 15.7756 13.9526 15.8577C14.0141 15.9226 14.0772 15.9858 14.1422 16.0472C14.2242 16.1248 14.2776 16.2279 14.2935 16.3397L14.3704 16.8781C14.3965 16.89 14.4227 16.9014 14.4491 16.9124L14.6047 16.7114C14.6994 16.5892 14.8454 16.5176 15 16.5176H15.5648C15.6731 16.5176 15.7785 16.5528 15.8651 16.6178L16.3008 16.9451C16.3556 16.9246 16.4097 16.9021 16.4629 16.8778L16.5398 16.3397C16.5561 16.2256 16.6114 16.1206 16.6963 16.0425C16.7223 16.0185 16.7667 15.9744 16.8101 15.9302C16.8306 15.9094 16.849 15.8905 16.8623 15.8767L16.8778 15.8606L16.8829 15.8554C16.8829 15.8554 16.8829 15.8554 16.8829 15.8554C16.9602 15.7748 17.0626 15.7221 17.1732 15.7063L17.7116 15.6294C17.7359 15.5763 17.7583 15.5223 17.7787 15.4675L17.4513 15.0316C17.3863 14.945 17.3511 14.8396 17.3511 14.7313V14.435C17.3511 14.3267 17.3863 14.2213 17.4513 14.1347L17.7786 13.699C17.7581 13.6442 17.7356 13.5902 17.7113 13.5369L17.1732 13.46C17.0661 13.4447 16.9669 13.3951 16.8904 13.3186L16.6812 13.1095C16.6047 13.033 16.5551 12.9337 16.5398 12.8266L16.4629 12.2882C16.4097 12.264 16.3558 12.2416 16.301 12.2211L15.8651 12.5485C15.7664 12.6227 15.6438 12.6577 15.5208 12.6468C15.4515 12.6407 15.3818 12.6407 15.3126 12.6468C15.1896 12.6577 15.0669 12.6227 14.9682 12.5485L14.5325 12.2213C14.4777 12.2418 14.4236 12.2642 14.3704 12.2885L14.2935 12.8266C14.2776 12.9384 14.2242 13.0415 14.1422 13.1191C14.0772 13.1806 14.0141 13.2437 13.9526 13.3087C13.875 13.3907 13.7719 13.4441 13.6601 13.46L13.1217 13.5369C13.0975 13.5901 13.0751 13.6441 13.0546 13.6988L13.382 14.1347C13.4561 14.2334 13.4912 14.356 13.4803 14.479C13.4785 14.499 13.4778 14.549 13.4789 14.6114C13.4794 14.6389 13.4801 14.6639 13.4807 14.682L13.4815 14.7029L13.4817 14.7081L13.4818 14.7093Z" fill="#138300"/>
</svg>
