<svg width="20" height="20" viewBox="0 0 20 20" fill="none" xmlns="http://www.w3.org/2000/svg">
<path fill-rule="evenodd" clip-rule="evenodd" d="M2.73695 3.4402C1.89699 2.60025 2.49189 1.16406 3.67976 1.16406H16.3227C17.5106 1.16406 18.1055 2.60025 17.2655 3.44021L12.2655 8.44021C12.203 8.50272 12.1679 8.5875 12.1679 8.67591V18.3307C12.1679 18.5201 12.0609 18.6932 11.8915 18.7779C11.7221 18.8626 11.5194 18.8444 11.3679 18.7307L8.36791 16.4807C8.03217 16.2289 7.83458 15.8337 7.83458 15.4141V8.67591C7.83458 8.5875 7.79946 8.50272 7.73695 8.44021L2.73695 3.4402ZM3.67976 2.16406C3.38279 2.16406 3.23407 2.52311 3.44405 2.7331L8.44405 7.7331C8.6941 7.98315 8.83458 8.32229 8.83458 8.67591V15.4141C8.83458 15.519 8.88398 15.6178 8.96791 15.6807L11.1679 17.3307V8.67591C11.1679 8.32229 11.3084 7.98315 11.5584 7.7331L16.5584 2.7331C16.7684 2.52311 16.6197 2.16406 16.3227 2.16406H3.67976Z" fill="#595959"/>
</svg>
