<svg width="24" height="24" viewBox="0 0 24 24" fill="none" xmlns="http://www.w3.org/2000/svg">
<path fill-rule="evenodd" clip-rule="evenodd" d="M14.8311 2.41651C15.6027 1.73734 16.6104 1.37488 17.6451 1.39963C18.6798 1.42437 19.6684 1.83462 20.4052 2.55036C21.1426 3.26661 21.5713 4.23442 21.5972 5.25449C21.6231 6.2746 21.2438 7.26223 20.5431 8.01342C20.5373 8.0196 20.5315 8.02566 20.5254 8.0316L9.81142 18.5856C9.80342 18.5935 9.7952 18.6011 9.78677 18.6085C9.3435 18.9987 8.76605 19.2059 8.17438 19.1917C7.58267 19.1775 7.01595 18.943 6.59246 18.5316C6.16844 18.1197 5.92055 17.5617 5.9056 16.972C5.89065 16.3822 6.11002 15.8125 6.51317 15.3803C6.51876 15.3743 6.52446 15.3684 6.53029 15.3626L15.518 6.48555C15.7537 6.25269 16.1336 6.25504 16.3665 6.4908C16.5993 6.72656 16.597 7.10645 16.3612 7.33931L7.38324 16.2068C7.19614 16.4115 7.09844 16.6742 7.10522 16.9415C7.11208 17.2125 7.22589 17.474 7.42857 17.6708C7.63178 17.8682 7.90876 17.985 8.20307 17.992C8.49222 17.999 8.77046 17.8993 8.9826 17.7176L19.6738 7.18603C20.158 6.66244 20.4153 5.98214 20.3976 5.28489C20.3798 4.58366 20.0852 3.91238 19.5691 3.41112C19.0526 2.90936 18.3537 2.61692 17.6164 2.59928C16.8845 2.58178 16.1764 2.83654 15.636 3.30675L4.93156 13.8513C4.07585 14.6825 3.59844 15.8061 3.59844 16.9738C3.59844 18.1416 4.07584 19.2652 4.93155 20.0964C5.78784 20.9282 6.95285 21.3984 8.17114 21.3984C9.38943 21.3984 10.5544 20.9282 11.4107 20.0964L20.2695 11.5122C20.5074 11.2816 20.8873 11.2876 21.1179 11.5256C21.3485 11.7636 21.3425 12.1434 21.1045 12.374L12.2469 20.9571C11.1631 22.0096 9.69638 22.5984 8.17114 22.5984C6.64566 22.5984 5.17927 22.01 4.09543 20.9571C3.011 19.9038 2.39844 18.4713 2.39844 16.9738C2.39844 15.4771 3.01042 14.0453 4.09389 12.992C4.0944 12.9915 4.09492 12.991 4.09543 12.9905L14.8064 2.43947C14.8144 2.43159 14.8227 2.42393 14.8311 2.41651Z" fill="#707070"/>
</svg>
