<svg width="32" height="32" viewBox="0 0 32 32" fill="none" xmlns="http://www.w3.org/2000/svg">
<path fill-rule="evenodd" clip-rule="evenodd" d="M16.0005 16.1332C14.6014 16.1332 13.4672 17.2674 13.4672 18.6665C13.4672 20.0657 14.6014 21.1999 16.0005 21.1999C17.3996 21.1999 18.5339 20.0657 18.5339 18.6665C18.5339 17.2674 17.3996 16.1332 16.0005 16.1332ZM11.8672 18.6665C11.8672 16.3838 13.7177 14.5332 16.0005 14.5332C18.2833 14.5332 20.1339 16.3838 20.1339 18.6665C20.1339 20.9493 18.2833 22.7999 16.0005 22.7999C13.7177 22.7999 11.8672 20.9493 11.8672 18.6665Z" fill="#3078F1"/>
<path fill-rule="evenodd" clip-rule="evenodd" d="M11.6191 21.8714C11.9564 21.8438 12.2551 21.9406 12.4819 22.0653C12.7497 22.2126 13.305 22.5007 13.9688 22.7501C14.6437 23.0038 15.3712 23.1945 15.9998 23.1945C16.6283 23.1945 17.3559 23.0038 18.0308 22.7501C18.6946 22.5007 19.2498 22.2126 19.5177 22.0653C19.7444 21.9406 20.0431 21.8438 20.3805 21.8714C22.2713 22.0261 23.3383 23.6199 23.4551 25.2064C23.5743 26.8243 22.7492 28.6104 20.7701 29.4048L20.7557 29.411C20.7382 29.4183 20.7149 29.4279 20.6856 29.4394C20.627 29.4624 20.5449 29.493 20.4392 29.5285C20.2277 29.5997 19.922 29.6907 19.5223 29.7803C18.7224 29.9597 17.5479 30.1334 15.9998 30.1334C14.4517 30.1334 13.2772 29.9597 12.4773 29.7803C12.0775 29.6907 11.7719 29.5997 11.5604 29.5285C11.4547 29.493 11.3725 29.4624 11.314 29.4394C11.2847 29.4279 11.2613 29.4183 11.2439 29.411L11.2295 29.4048C9.25032 28.6104 8.42531 26.8243 8.54442 25.2064C8.66123 23.6199 9.72829 22.0261 11.6191 21.8714ZM11.7146 23.4693C10.8371 23.5592 10.2149 24.3074 10.1401 25.3239C10.0668 26.3196 10.5581 27.4146 11.8328 27.9229C11.842 27.9266 11.851 27.9304 11.86 27.9344L11.8634 27.9359L11.8621 27.9353L11.86 27.9344L11.8634 27.9359C11.8692 27.9383 11.8814 27.9433 11.8986 27.95C11.933 27.9635 11.9903 27.9851 12.0706 28.0121C12.2311 28.0661 12.4833 28.1419 12.8274 28.2191C13.5153 28.3734 14.5724 28.5334 15.9998 28.5334C17.4272 28.5334 18.4843 28.3734 19.1721 28.2191C19.5162 28.1419 19.7685 28.0661 19.929 28.0121C20.0092 27.9851 20.0666 27.9635 20.101 27.95C20.1182 27.9433 20.1297 27.9385 20.1355 27.9361L20.1388 27.9347C20.1478 27.9307 20.1576 27.9266 20.1667 27.9229C21.4415 27.4146 21.9328 26.3196 21.8595 25.3239C21.7846 24.3074 21.1625 23.5592 20.285 23.4693C19.9763 23.639 19.3503 23.9635 18.5936 24.2479C17.8449 24.5292 16.9083 24.7945 15.9998 24.7945C15.0913 24.7945 14.1547 24.5292 13.4059 24.2479C12.6492 23.9635 12.0233 23.639 11.7146 23.4693Z" fill="#3078F1"/>
<path fill-rule="evenodd" clip-rule="evenodd" d="M16.0005 3.4667C14.6014 3.4667 13.4672 4.60091 13.4672 6.00003C13.4672 7.39915 14.6014 8.53337 16.0005 8.53337C17.3996 8.53337 18.5339 7.39915 18.5339 6.00003C18.5339 4.60091 17.3996 3.4667 16.0005 3.4667ZM11.8672 6.00003C11.8672 3.71726 13.7177 1.8667 16.0005 1.8667C18.2833 1.8667 20.1339 3.71726 20.1339 6.00003C20.1339 8.28281 18.2833 10.1334 16.0005 10.1334C13.7177 10.1334 11.8672 8.28281 11.8672 6.00003Z" fill="#138300"/>
<path fill-rule="evenodd" clip-rule="evenodd" d="M12.044 9.21094C12.3896 9.17953 12.6883 9.29046 12.9044 9.42254L12.4944 10.0934L12.9044 9.42254C13.1432 9.56848 13.6376 9.85339 14.2274 10.0997C14.83 10.3513 15.4641 10.5333 16.0004 10.5333C16.5377 10.5333 17.1677 10.3535 17.7667 10.1038C18.3535 9.85917 18.8476 9.57449 19.0963 9.42254C19.3124 9.29046 19.6111 9.17953 19.9567 9.21094C20.3967 9.25094 20.721 9.64007 20.681 10.0801C20.6436 10.4911 20.3016 10.8011 19.898 10.8076C19.601 10.9876 19.0469 11.3036 18.3823 11.5806C17.7047 11.8631 16.8464 12.1333 16.0004 12.1333C15.1533 12.1333 14.2897 11.8595 13.6109 11.5761C12.9453 11.2982 12.3919 10.9828 12.1027 10.8076C11.6991 10.8011 11.3571 10.4911 11.3197 10.0801C11.2797 9.64007 11.604 9.25094 12.044 9.21094ZM12.4873 10.1052L12.4858 10.1075L12.1722 10.6208M12.4873 10.1052L12.4858 10.1075L12.4873 10.1052Z" fill="#138300"/>
<path fill-rule="evenodd" clip-rule="evenodd" d="M24.0005 11.4667C22.6014 11.4667 21.4672 12.6009 21.4672 14C21.4672 15.3992 22.6014 16.5334 24.0005 16.5334C25.3996 16.5334 26.5339 15.3992 26.5339 14C26.5339 12.6009 25.3996 11.4667 24.0005 11.4667ZM19.8672 14C19.8672 11.7173 21.7177 9.8667 24.0005 9.8667C26.2833 9.8667 28.1339 11.7173 28.1339 14C28.1339 16.2828 26.2833 18.1334 24.0005 18.1334C21.7177 18.1334 19.8672 16.2828 19.8672 14Z" fill="#FF3434"/>
<path fill-rule="evenodd" clip-rule="evenodd" d="M28.2716 18.8013L28.2433 18.8194C28.2101 18.8403 28.1602 18.8714 28.1022 18.902C27.3941 19.2751 25.6219 20.1279 24.0014 20.1279C23.2197 20.1279 22.4208 19.9318 21.744 19.7018C21.3256 19.5596 21.1018 19.1052 21.2439 18.6869C21.3861 18.2686 21.8405 18.0447 22.2588 18.1869C22.8544 18.3893 23.466 18.5279 24.0014 18.5279C25.1892 18.5279 26.6495 17.8589 27.3563 17.4865C27.3563 17.4865 27.3563 17.4864 27.3563 17.4864C27.3565 17.4863 27.3587 17.4852 27.3635 17.4823L27.3877 17.4673C27.3908 17.4653 27.3955 17.4623 27.4013 17.4586C27.422 17.4454 27.4567 17.4232 27.4855 17.4058C27.5661 17.3569 27.7183 17.2697 27.9185 17.2282C28.1002 17.1905 28.269 17.1957 28.3821 17.2049C30.2729 17.3596 31.34 18.9534 31.4568 20.5399C31.5759 22.1577 30.751 23.9436 28.7721 24.7381L28.7654 24.741C28.7524 24.7466 28.7352 24.7537 28.7139 24.7623C28.6713 24.7794 28.6121 24.8021 28.5364 24.829C28.385 24.8827 28.1676 24.9527 27.884 25.0266C27.3167 25.1746 26.4862 25.3378 25.3929 25.4176C24.9523 25.4497 24.569 25.1185 24.5368 24.6779C24.5047 24.2372 24.8359 23.8539 25.2765 23.8218C26.2699 23.7494 27.0043 23.6025 27.4803 23.4784C27.7184 23.4163 27.8922 23.3598 28.0016 23.321C28.0563 23.3016 28.095 23.2866 28.1176 23.2775L28.1394 23.2685L28.1388 23.2689L28.1381 23.2692M28.1394 23.2685L28.14 23.2683L28.1413 23.2677C28.1417 23.2676 28.1411 23.2679 28.1394 23.2685ZM28.1376 23.2694C28.1478 23.2648 28.158 23.2605 28.1683 23.2564C29.4431 22.7481 29.9344 21.6531 29.8611 20.6574C29.7858 19.6351 29.157 18.8841 28.2716 18.8013" fill="#FF3434"/>
<path fill-rule="evenodd" clip-rule="evenodd" d="M7.99948 11.4667C9.3986 11.4667 10.5328 12.6009 10.5328 14C10.5328 15.3991 9.3986 16.5334 7.99948 16.5334C6.60036 16.5334 5.46615 15.3991 5.46615 14C5.46615 12.6009 6.60036 11.4667 7.99948 11.4667ZM12.1328 14C12.1328 11.7173 10.2823 9.8667 7.99948 9.8667C5.71671 9.8667 3.86615 11.7173 3.86615 14C3.86615 16.2828 5.71671 18.1334 7.99948 18.1334C10.2823 18.1334 12.1328 16.2828 12.1328 14Z" fill="#7130FB"/>
<path fill-rule="evenodd" clip-rule="evenodd" d="M3.71342 18.8028C4.02212 18.9724 4.64805 19.297 5.40477 19.5814C6.15349 19.8627 7.0901 20.1279 7.9986 20.1279C8.78035 20.1279 9.57916 19.9318 10.256 19.7018C10.6744 19.5596 10.8982 19.1053 10.7561 18.6869C10.6139 18.2686 10.1595 18.0447 9.74119 18.1869C9.1456 18.3893 8.53399 18.5279 7.9986 18.5279C7.37004 18.5279 6.64252 18.3373 5.96761 18.0836C5.30377 17.8342 4.74856 17.5461 4.48072 17.3988C4.25397 17.2741 3.95527 17.1773 3.61794 17.2049C1.72712 17.3596 0.660055 18.9534 0.543249 20.5399C0.424142 22.1577 1.24903 23.9436 3.22788 24.7381L3.23462 24.7411C3.24765 24.7466 3.26482 24.7537 3.28612 24.7623C3.32873 24.7794 3.38789 24.8022 3.46358 24.829C3.61497 24.8827 3.83246 24.9527 4.11599 25.0267C4.68327 25.1746 5.51381 25.3378 6.60709 25.4176C7.04775 25.4497 7.43102 25.1185 7.46316 24.6779C7.4953 24.2372 7.16413 23.854 6.72347 23.8218C5.73014 23.7494 4.99573 23.6026 4.5197 23.4784C4.28159 23.4163 4.10783 23.3598 3.9984 23.321C3.94368 23.3016 3.90502 23.2866 3.88242 23.2776L3.86057 23.2686L3.8612 23.2689L3.86195 23.2692M3.86057 23.2686L3.85998 23.2683L3.85891 23.2679C3.85923 23.268 3.85979 23.2682 3.86057 23.2686ZM3.86236 23.2694C3.85222 23.2649 3.84199 23.2605 3.83167 23.2564C2.55689 22.7481 2.06563 21.6531 2.13893 20.6574C2.21377 19.6409 2.83589 18.8927 3.71342 18.8028M3.85867 23.2678C3.8585 23.2677 3.85855 23.2677 3.85881 23.2678L3.85867 23.2678Z" fill="#7130FB"/>
</svg>
