<svg width="14" height="18" viewBox="0 0 14 18" fill="none" xmlns="http://www.w3.org/2000/svg">
<path fill-rule="evenodd" clip-rule="evenodd" d="M1.89519 1.1665C1.82676 1.1665 1.76574 1.19262 1.72442 1.23197C1.68394 1.27053 1.66603 1.31747 1.66603 1.36095V4.4838C1.66637 4.51042 1.673 4.53764 1.68665 4.56364C1.70041 4.58985 1.72143 4.61497 1.74989 4.63576C1.75018 4.63598 1.75048 4.63619 1.75078 4.63641L6.99809 8.38448L12.2479 4.60169C12.2479 4.60175 12.248 4.60162 12.2479 4.60169C12.2767 4.58081 12.2982 4.55532 12.3121 4.52892C12.3257 4.50294 12.3323 4.47574 12.3327 4.44912V1.36095C12.3327 1.31747 12.3148 1.27053 12.2743 1.23197C12.233 1.19262 12.172 1.1665 12.1035 1.1665H1.89519ZM1.03477 0.507833C1.26694 0.286713 1.57686 0.166504 1.89519 0.166504H12.1035C12.4219 0.166504 12.7318 0.286713 12.964 0.507833C13.197 0.729743 13.3327 1.03607 13.3327 1.36095V4.45446C13.3315 4.64287 13.2848 4.82746 13.1975 4.99376C13.1102 5.15992 12.9853 5.3025 12.8341 5.41188L7.29166 9.4055C7.11771 9.53084 6.88321 9.53132 6.70874 9.4067L1.1646 5.44661C1.01343 5.33723 0.888493 5.19465 0.801256 5.02848C0.713952 4.86219 0.667256 4.67759 0.666037 4.48918L0.666016 4.48595L0.666026 1.36095C0.666026 1.03607 0.801762 0.729743 1.03477 0.507833Z" fill="#FF8246"/>
<path fill-rule="evenodd" clip-rule="evenodd" d="M6.70873 8.59313C6.8832 8.46851 7.1177 8.469 7.29165 8.59434L12.8341 12.588C12.9853 12.6973 13.1102 12.8399 13.1975 13.0061C13.2848 13.1724 13.3315 13.357 13.3327 13.5454L13.3327 13.5486L13.3327 16.6389C13.3327 16.9638 13.1969 17.2701 12.9639 17.492C12.7318 17.7131 12.4219 17.8333 12.1035 17.8333H1.89518C1.57685 17.8333 1.26693 17.7131 1.03476 17.492C0.801751 17.2701 0.666016 16.9638 0.666016 16.6389V13.5107C0.667235 13.3222 0.713941 13.1377 0.801245 12.9714C0.888484 12.8052 1.01342 12.6626 1.1646 12.5532L1.16706 12.5515L6.70873 8.59313ZM1.74987 13.3641C1.72142 13.3849 1.7004 13.41 1.68664 13.4362C1.67299 13.4622 1.66636 13.4894 1.66602 13.516V16.6389C1.66602 16.6824 1.68393 16.7293 1.72441 16.7679C1.76573 16.8072 1.82674 16.8333 1.89518 16.8333H12.1035C12.172 16.8333 12.233 16.8072 12.2743 16.7679C12.3148 16.7293 12.3327 16.6824 12.3327 16.6389V13.5507C12.3323 13.5241 12.3257 13.4969 12.3121 13.4709C12.2982 13.4445 12.277 13.4192 12.2482 13.3983C12.2481 13.3983 12.2483 13.3984 12.2482 13.3983L6.99808 9.61536L1.74987 13.3641Z" fill="#FF8246"/>
<path d="M10.3327 16.0832H3.66602L6.99935 13.1665L10.3327 16.0832Z" fill="#FF8246"/>
<path fill-rule="evenodd" clip-rule="evenodd" d="M6.67012 12.7902C6.85863 12.6253 7.14011 12.6253 7.32862 12.7902L10.662 15.7069C10.8187 15.8441 10.874 16.064 10.8008 16.259C10.7275 16.454 10.541 16.5832 10.3327 16.5832H3.66604C3.45773 16.5832 3.27125 16.454 3.19799 16.259C3.12472 16.064 3.18002 15.8441 3.33679 15.7069L6.67012 12.7902ZM4.99676 15.5832H9.00198L6.99937 13.8309L4.99676 15.5832Z" fill="#FF8246"/>
</svg>
