<svg width="36" height="36" viewBox="0 0 36 36" fill="none" xmlns="http://www.w3.org/2000/svg">
<rect width="36" height="36" rx="18" fill="#E3FFE6"/>
<path fill-rule="evenodd" clip-rule="evenodd" d="M14.5821 11.0353C14.6133 10.4635 15.1055 10.0251 15.6814 10.0561L24.957 10.5547C25.533 10.5857 25.9746 11.0744 25.9434 11.6462L25.2169 24.9647C25.1858 25.5365 24.6936 25.9749 24.1176 25.9439L14.842 25.4453C14.266 25.4143 13.8244 24.9256 13.8556 24.3538L14.5821 11.0353ZM15.6391 10.8326C15.4951 10.8248 15.372 10.9344 15.3642 11.0774L14.6377 24.3959C14.63 24.5388 14.7404 24.661 14.8843 24.6687L24.16 25.1674C24.3039 25.1752 24.427 25.0656 24.4348 24.9226L25.1613 11.6041C25.1691 11.4612 25.0587 11.339 24.9147 11.3313L15.6391 10.8326Z" fill="url(#paint0_linear_14047_176132)"/>
<path fill-rule="evenodd" clip-rule="evenodd" d="M22.2103 15.3942C22.3661 15.2837 22.5795 15.3013 22.7149 15.4357L25.4788 18.1796C25.6317 18.3314 25.6317 18.5776 25.4788 18.7294C25.3258 18.8813 25.0778 18.8813 24.9249 18.7294L22.3956 16.2185L19.8174 18.0468L20.8724 19.0942C20.9773 19.1983 21.0139 19.3524 20.967 19.4921L20.5063 20.864C20.4634 20.9919 20.3569 21.0885 20.2248 21.1195C20.0927 21.1505 19.9538 21.1113 19.8578 21.016L16.9366 18.1159L14.908 20.5327C14.7695 20.6976 14.5226 20.7199 14.3564 20.5825C14.1902 20.445 14.1678 20.1998 14.3062 20.0348L16.6094 17.2909C16.6799 17.207 16.7826 17.1564 16.8926 17.1514C17.0025 17.1465 17.1094 17.1877 17.1872 17.2649L19.9636 20.0213L20.1473 19.4741L18.9366 18.2721C18.8552 18.1913 18.8137 18.079 18.8232 17.9651C18.8327 17.8512 18.8922 17.7472 18.9859 17.6808L22.2103 15.3942Z" fill="url(#paint1_linear_14047_176132)"/>
<path d="M19.2124 13.8812C19.2124 14.6389 18.5937 15.2532 17.8305 15.2532C17.0673 15.2532 16.4486 14.6389 16.4486 13.8812C16.4486 13.1235 17.0673 12.5093 17.8305 12.5093C18.5937 12.5093 19.2124 13.1235 19.2124 13.8812Z" fill="url(#paint2_linear_14047_176132)"/>
<path d="M10 11.5946C10 9.76533 12.4567 9.9175 13.6851 10.2224C13.5316 14.338 12.7638 23.4844 12.7638 23.4844C12.7638 24.0018 12.7638 24.8563 13.2245 25.3137C11.7504 25.6795 11.0748 23.7925 10.9213 23.0303C10.4606 19.8291 10 13.4239 10 11.5946Z" fill="url(#paint3_linear_14047_176132)"/>
<path d="M16.9103 18.0016L14.6071 20.7455V24.8613L24.689 25.2652L25.2018 18.9163L22.4379 16.1724L19.6741 18.0016L20.5954 19.8309L20.1347 20.7455L16.9103 18.0016Z" fill="url(#paint4_linear_14047_176132)"/>
<defs>
<linearGradient id="paint0_linear_14047_176132" x1="15.46" y1="24.7689" x2="28.5945" y2="15.1857" gradientUnits="userSpaceOnUse">
<stop stop-color="#45BD62"/>
<stop offset="1" stop-color="#5DC676"/>
</linearGradient>
<linearGradient id="paint1_linear_14047_176132" x1="15.8401" y1="20.8629" x2="19.5269" y2="12.8784" gradientUnits="userSpaceOnUse">
<stop stop-color="#45BD62"/>
<stop offset="1" stop-color="#5DC676"/>
</linearGradient>
<linearGradient id="paint2_linear_14047_176132" x1="16.8433" y1="15.127" x2="19.1182" y2="12.5937" gradientUnits="userSpaceOnUse">
<stop stop-color="#45BD62"/>
<stop offset="1" stop-color="#5DC676"/>
</linearGradient>
<linearGradient id="paint3_linear_14047_176132" x1="10.5262" y1="24.6557" x2="16.8723" y2="22.9685" gradientUnits="userSpaceOnUse">
<stop stop-color="#45BD62"/>
<stop offset="1" stop-color="#5DC676"/>
</linearGradient>
<linearGradient id="paint4_linear_14047_176132" x1="16.1199" y1="24.8472" x2="23.4657" y2="15.3847" gradientUnits="userSpaceOnUse">
<stop stop-color="#45BD62"/>
<stop offset="1" stop-color="#5DC676"/>
</linearGradient>
</defs>
</svg>
