<svg width="30" height="30" viewBox="0 0 30 30" fill="none" xmlns="http://www.w3.org/2000/svg">
<path fill-rule="evenodd" clip-rule="evenodd" d="M9.87305 4.55302C9.91984 3.69531 10.6581 3.03765 11.5221 3.0841L25.4355 3.83212C26.2994 3.87857 26.9619 4.61154 26.9151 5.46925L25.8254 25.447C25.7786 26.3047 25.0403 26.9623 24.1763 26.9159L10.2629 26.1679C9.39898 26.1214 8.73654 25.3885 8.78333 24.5308L9.87305 4.55302ZM11.4585 4.24887C11.2426 4.23726 11.058 4.40167 11.0463 4.6161L9.95656 24.5938C9.94487 24.8083 10.1105 24.9915 10.3265 25.0031L24.2399 25.7511C24.4559 25.7627 24.6404 25.5983 24.6521 25.3839L25.7418 5.40617C25.7535 5.19174 25.5879 5.0085 25.3719 4.99689L11.4585 4.24887Z" fill="url(#paint0_linear_15667_185421)"/>
<path fill-rule="evenodd" clip-rule="evenodd" d="M21.3156 11.0911C21.5493 10.9254 21.8694 10.9517 22.0724 11.1533L26.2182 15.2691C26.4476 15.4969 26.4476 15.8661 26.2182 16.0939C25.9888 16.3217 25.6168 16.3217 25.3874 16.0939L21.5935 12.3274L17.7261 15.07L19.3086 16.641C19.4659 16.7972 19.5209 17.0283 19.4505 17.2379L18.7596 19.2958C18.6952 19.4876 18.5354 19.6326 18.3372 19.679C18.139 19.7254 17.9308 19.6667 17.7868 19.5238L13.405 15.1736L10.362 18.7988C10.1543 19.0462 9.78389 19.0797 9.53464 18.8734C9.28539 18.6672 9.25171 18.2995 9.45942 18.052L12.9142 13.9362C13.0199 13.8103 13.174 13.7343 13.3389 13.7269C13.5038 13.7195 13.6642 13.7813 13.7809 13.8971L17.9455 18.0317L18.221 17.211L16.4049 15.4079C16.2828 15.2867 16.2206 15.1183 16.2348 14.9474C16.2491 14.7766 16.3383 14.6206 16.4789 14.5209L21.3156 11.0911Z" fill="url(#paint1_linear_15667_185421)"/>
<path d="M16.8186 8.82208C16.8186 9.95863 15.8905 10.88 14.7457 10.88C13.6009 10.88 12.6729 9.95863 12.6729 8.82208C12.6729 7.68552 13.6009 6.76416 14.7457 6.76416C15.8905 6.76416 16.8186 7.68552 16.8186 8.82208Z" fill="url(#paint2_linear_15667_185421)"/>
<path d="M3 5.39189C3 2.648 6.68511 2.87625 8.52767 3.33356C8.29735 9.50705 7.14575 23.2266 7.14575 23.2266C7.14575 24.0027 7.14575 25.2845 7.83671 25.9705C5.62564 26.5193 4.61224 23.6888 4.38192 22.5455C3.69096 17.7437 3 8.13578 3 5.39189Z" fill="url(#paint3_linear_15667_185421)"/>
<path d="M13.3654 15.0027L9.91064 19.1185V25.2923L25.0336 25.898L25.8027 16.3746L21.6569 12.2588L17.5112 15.0027L18.8931 17.7466L18.2021 19.1185L13.3654 15.0027Z" fill="url(#paint4_linear_15667_185421)"/>
<defs>
<linearGradient id="paint0_linear_15667_185421" x1="11.1899" y1="25.1534" x2="30.8917" y2="10.7785" gradientUnits="userSpaceOnUse">
<stop stop-color="#45BD62"/>
<stop offset="1" stop-color="#5DC676"/>
</linearGradient>
<linearGradient id="paint1_linear_15667_185421" x1="11.7602" y1="19.2941" x2="17.2904" y2="7.3173" gradientUnits="userSpaceOnUse">
<stop stop-color="#45BD62"/>
<stop offset="1" stop-color="#5DC676"/>
</linearGradient>
<linearGradient id="paint2_linear_15667_185421" x1="13.2648" y1="10.6908" x2="16.6773" y2="6.89076" gradientUnits="userSpaceOnUse">
<stop stop-color="#45BD62"/>
<stop offset="1" stop-color="#5DC676"/>
</linearGradient>
<linearGradient id="paint3_linear_15667_185421" x1="3.78929" y1="24.9836" x2="13.3085" y2="22.4528" gradientUnits="userSpaceOnUse">
<stop stop-color="#45BD62"/>
<stop offset="1" stop-color="#5DC676"/>
</linearGradient>
<linearGradient id="paint4_linear_15667_185421" x1="12.1799" y1="25.271" x2="23.1986" y2="11.0773" gradientUnits="userSpaceOnUse">
<stop stop-color="#45BD62"/>
<stop offset="1" stop-color="#5DC676"/>
</linearGradient>
</defs>
</svg>

