<svg width="23" height="23" viewBox="0 0 23 23" fill="none" xmlns="http://www.w3.org/2000/svg">
<path d="M0 0H23L16 16L0 23V0Z" fill="#138300"/>
<path d="M8.46939 3.35018C8.68236 2.88327 9.31764 2.88327 9.53061 3.35018L10.8945 6.34051C10.9802 6.52842 11.151 6.65821 11.3483 6.68542L14.4882 7.11844C14.9785 7.18605 15.1748 7.81814 14.8162 8.17432L12.5192 10.4555C12.3749 10.5988 12.3096 10.8088 12.3459 11.0135L12.9225 14.2715C13.0126 14.7802 12.4986 15.1708 12.064 14.924L9.28045 13.3435C9.10553 13.2442 8.89447 13.2442 8.71955 13.3435L5.93602 14.924C5.50139 15.1708 4.98744 14.7802 5.07748 14.2715L5.65412 11.0135C5.69036 10.8088 5.62514 10.5988 5.4808 10.4555L3.18383 8.17432C2.82518 7.81814 3.0215 7.18605 3.51177 7.11844L6.65169 6.68542C6.849 6.65821 7.01975 6.52842 7.10546 6.34051L8.46939 3.35018Z" fill="#FFCD29"/>
</svg>
