<svg width="16" height="16" viewBox="0 0 16 16" fill="none" xmlns="http://www.w3.org/2000/svg">
<path fill-rule="evenodd" clip-rule="evenodd" d="M0 6.47674C0 6.22369 0.202736 6.01855 0.452823 6.01855H3.47165C3.72173 6.01855 3.92447 6.22369 3.92447 6.47674V14.8768C3.92447 15.1299 3.72173 15.335 3.47165 15.335H0.452823C0.202736 15.335 0 15.1299 0 14.8768V6.47674ZM0.905647 6.93493V14.4186H3.01882V6.93493H0.905647Z" fill="black"/>
<path fill-rule="evenodd" clip-rule="evenodd" d="M10.1904 1.58398C9.90282 1.56964 9.48498 1.74517 9.21948 2.29812C8.43586 3.93016 7.61405 5.09796 6.89604 5.89793C6.33412 6.524 5.82313 6.93864 5.43299 7.16804V14.0706C5.43299 14.1663 5.45175 14.2244 5.46882 14.2589C5.48597 14.2935 5.50907 14.3197 5.5379 14.3414C5.60394 14.3911 5.69503 14.4119 5.7479 14.4124H13.4106C13.6096 14.4124 13.7185 14.3522 13.7923 14.2797C13.8778 14.1959 13.953 14.0579 14.0083 13.8524C14.1108 13.4712 14.1091 13.0117 14.1077 12.6114C14.1076 12.5655 14.1074 12.5203 14.1074 12.4761C14.1074 12.4067 14.123 12.3382 14.1529 12.2758C14.4891 11.5756 14.4906 11.1048 14.4906 10.4806C14.4906 9.75572 14.7682 9.00366 14.9131 8.69711C15.0851 8.27336 15.1626 7.74642 15.0155 7.39799C14.9507 7.2442 14.8374 7.11095 14.6244 7.02119C14.3981 6.92581 14.0349 6.87042 13.4684 6.94417C12.2195 7.10675 11.3923 7.08018 10.8572 6.95634C10.5899 6.89448 10.368 6.8022 10.2024 6.67283C10.0376 6.54408 9.89217 6.34538 9.89217 6.09064C9.89217 6.06131 9.89495 6.03204 9.90048 6.00324C10.0506 5.22133 10.2033 4.66927 10.3288 4.21549C10.3667 4.07858 10.4021 3.95062 10.4342 3.828C10.5702 3.30843 10.6586 2.84918 10.6586 2.09789C10.6586 1.9094 10.5972 1.79272 10.5263 1.72101C10.4515 1.64548 10.3374 1.59131 10.1904 1.58398ZM11.1662 1.07258C11.4218 1.33084 11.5642 1.68769 11.5642 2.09789C11.5642 2.94483 11.461 3.48422 11.3096 4.06262C11.2737 4.19983 11.2358 4.33704 11.1963 4.47999C11.0829 4.89025 10.9564 5.34778 10.8269 5.98811C10.8757 6.01064 10.9501 6.03782 11.0591 6.06303C11.4437 6.15203 12.1492 6.19198 13.3528 6.03529C14.0126 5.9494 14.5499 5.99711 14.9726 6.17527C15.4087 6.35906 15.693 6.66979 15.8484 7.03814C16.1408 7.73097 15.9527 8.55478 15.7446 9.06038C15.7413 9.06851 15.7377 9.07654 15.7339 9.08447C15.6214 9.3188 15.3962 9.93894 15.3962 10.4806V10.4874C15.3962 11.1139 15.3962 11.7354 15.0134 12.578C15.0135 12.587 15.0135 12.596 15.0136 12.6052C15.016 12.9892 15.0196 13.5817 14.8822 14.0929C14.8033 14.3862 14.6679 14.6972 14.4228 14.9376C14.1661 15.1895 13.8248 15.3288 13.4106 15.3288H5.74657L5.7444 15.3288C5.54167 15.3278 5.25018 15.267 4.99724 15.0766C4.72223 14.8695 4.52734 14.5333 4.52734 14.0706V6.88696C4.52734 6.70128 4.63809 6.53396 4.80778 6.46327C5.04006 6.36651 5.5616 6.02167 6.22561 5.28185C6.88071 4.55197 7.65557 3.45827 8.40489 1.89767C8.80842 1.05723 9.54019 0.634064 10.235 0.668718C10.5792 0.685885 10.9144 0.818136 11.1662 1.07258Z" fill="black"/>
</svg>
