<svg width="16" height="16" viewBox="0 0 16 16" fill="none" xmlns="http://www.w3.org/2000/svg">
<path fill-rule="evenodd" clip-rule="evenodd" d="M1.60156 7.99896C1.60156 7.04166 2.3776 6.26562 3.3349 6.26562H12.6682C13.6255 6.26562 14.4016 7.04167 14.4016 7.99896V13.3323C14.4016 14.2896 13.6255 15.0656 12.6682 15.0656H3.3349C2.3776 15.0656 1.60156 14.2896 1.60156 13.3323V7.99896ZM3.3349 7.06563C2.81943 7.06563 2.40156 7.48349 2.40156 7.99896V13.3323C2.40156 13.8478 2.81943 14.2656 3.3349 14.2656H12.6682C13.1837 14.2656 13.6016 13.8478 13.6016 13.3323V7.99896C13.6016 7.48349 13.1837 7.06563 12.6682 7.06563H3.3349Z" fill="#707070"/>
<path fill-rule="evenodd" clip-rule="evenodd" d="M8.00156 9.59375C8.22248 9.59375 8.40156 9.77284 8.40156 9.99375V11.9937C8.40156 12.2147 8.22248 12.3937 8.00156 12.3937C7.78065 12.3937 7.60156 12.2147 7.60156 11.9937V9.99375C7.60156 9.77284 7.78065 9.59375 8.00156 9.59375Z" fill="#707070"/>
<path fill-rule="evenodd" clip-rule="evenodd" d="M5.06307 2.75311C4.56839 3.36722 4.40156 4.25028 4.40156 5.32969V6.66302C4.40156 6.88393 4.22248 7.06302 4.00156 7.06302C3.78065 7.06302 3.60156 6.88393 3.60156 6.66302V5.32969C3.60156 4.20243 3.76807 3.08549 4.44006 2.25126C5.1271 1.39835 6.26644 0.929688 8.00156 0.929688C9.73669 0.929688 10.876 1.39835 11.5631 2.25126C12.2351 3.08549 12.4016 4.20243 12.4016 5.32969V6.66302C12.4016 6.88393 12.2225 7.06302 12.0016 7.06302C11.7806 7.06302 11.6016 6.88393 11.6016 6.66302V5.32969C11.6016 4.25028 11.4347 3.36722 10.9401 2.75311C10.4604 2.15769 9.59977 1.72969 8.00156 1.72969C6.40336 1.72969 5.54269 2.15769 5.06307 2.75311Z" fill="#707070"/>
<path fill-rule="evenodd" clip-rule="evenodd" d="M8.0026 9.86146C7.92897 9.86146 7.86927 9.92115 7.86927 9.99479C7.86927 10.0684 7.92897 10.1281 8.0026 10.1281C8.07624 10.1281 8.13594 10.0684 8.13594 9.99479C8.13594 9.92115 8.07624 9.86146 8.0026 9.86146ZM8.0026 10.6615C8.37079 10.6615 8.66927 10.363 8.66927 9.99479C8.66927 9.6266 8.37079 9.32812 8.0026 9.32812C7.63441 9.32812 7.33594 9.6266 7.33594 9.99479C7.33594 10.363 7.63441 10.6615 8.0026 10.6615Z" fill="#707070"/>
</svg>
