<svg width="24" height="24" viewBox="0 0 24 24" fill="none" xmlns="http://www.w3.org/2000/svg">
<path fill-rule="evenodd" clip-rule="evenodd" d="M8.66211 13.8948C8.66211 13.546 8.95222 13.2632 9.31009 13.2632H23.3525C23.7103 13.2632 24.0005 13.546 24.0005 13.8948C24.0005 14.2436 23.7103 14.5263 23.3525 14.5263H9.31009C8.95222 14.5263 8.66211 14.2436 8.66211 13.8948Z" fill="#F66767"/>
<path fill-rule="evenodd" clip-rule="evenodd" d="M8.66211 7.39867C8.66211 7.04986 8.95227 6.76709 9.31019 6.76709H23.3524C23.7103 6.76709 24.0005 7.04986 24.0005 7.39867C24.0005 7.74748 23.7103 8.03025 23.3524 8.03025H9.31019C8.95227 8.03025 8.66211 7.74748 8.66211 7.39867Z" fill="#F66767"/>
<path fill-rule="evenodd" clip-rule="evenodd" d="M8.66211 19.8498C8.66211 19.501 8.95229 19.2183 9.31024 19.2183L23.3523 19.2183C23.7103 19.2183 24.0005 19.501 24.0005 19.8498C24.0005 20.1987 23.7103 20.4814 23.3523 20.4814L9.31024 20.4814C8.95229 20.4814 8.66211 20.1987 8.66211 19.8498Z" fill="#F66767"/>
<path fill-rule="evenodd" clip-rule="evenodd" d="M6.48744 3.16634C6.73977 3.41823 6.73977 3.82663 6.48744 4.07853L2.71834 7.84113C2.46601 8.09302 2.05691 8.09302 1.80458 7.84113L0.189248 6.22859C-0.0630825 5.97669 -0.0630825 5.56829 0.189248 5.31639C0.441578 5.0645 0.850685 5.0645 1.10302 5.31639L2.26146 6.47284L5.57368 3.16634C5.82601 2.91444 6.23511 2.91444 6.48744 3.16634Z" fill="#F66767"/>
<path fill-rule="evenodd" clip-rule="evenodd" d="M6.48744 16.1588C6.73977 16.4107 6.73977 16.8191 6.48744 17.071L2.71834 20.8336C2.46601 21.0855 2.05691 21.0855 1.80458 20.8336L0.189248 19.221C-0.0630825 18.9691 -0.0630825 18.5607 0.189248 18.3088C0.441578 18.0569 0.850685 18.0569 1.10302 18.3088L2.26146 19.4653L5.57368 16.1588C5.82601 15.9069 6.23511 15.9069 6.48744 16.1588Z" fill="#F66767"/>
<path fill-rule="evenodd" clip-rule="evenodd" d="M5.18312 10.146C5.45467 10.4176 5.64624 10.6663 5.61101 10.7015L1.58823 14.7243C1.55299 14.7595 1.3043 14.5679 1.03275 14.2964C0.761199 14.0248 0.569629 13.7761 0.604864 13.7409L4.62764 9.71813C4.66288 9.6829 4.91157 9.87447 5.18312 10.146Z" fill="#F66767"/>
<path fill-rule="evenodd" clip-rule="evenodd" d="M1.03273 10.146C1.30428 9.87443 1.55298 9.68286 1.58821 9.7181L5.61099 13.7409C5.64623 13.7761 5.45466 14.0248 5.18311 14.2964C4.91156 14.5679 4.66286 14.7595 4.62763 14.7242L0.60485 10.7015C0.569615 10.6662 0.761184 10.4175 1.03273 10.146Z" fill="#F66767"/>
</svg>
