<svg width="20" height="20" viewBox="0 0 20 20" fill="none" xmlns="http://www.w3.org/2000/svg">
<path fill-rule="evenodd" clip-rule="evenodd" d="M6.41197 3.95105C5.68279 4.91315 5.40341 6.17564 5.5878 7.34524C5.67657 7.90834 6.00121 8.71002 6.47585 9.63178C6.94387 10.5407 7.53383 11.5215 8.1158 12.4294C8.69702 13.3361 9.26623 14.1636 9.69039 14.7649C9.80829 14.932 9.91488 15.0815 10.0073 15.2102C10.0954 15.0949 10.1957 14.9623 10.306 14.8146C10.729 14.2483 11.2967 13.4628 11.8763 12.5852C12.4567 11.7064 13.0446 10.742 13.5109 9.81708C13.9817 8.88319 14.309 8.02704 14.4 7.35567C14.5907 5.94927 14.299 4.6938 13.5851 3.79938C12.8788 2.91447 11.707 2.31717 9.99432 2.31717C8.30843 2.31717 7.13113 3.00217 6.41197 3.95105ZM9.99432 16.0286C9.59826 16.3207 9.59822 16.3206 9.59817 16.3206L9.58462 16.3023L9.54622 16.2503C9.51272 16.2048 9.46375 16.138 9.4014 16.0523C9.27673 15.8808 9.09851 15.6335 8.88351 15.3287C8.45375 14.7196 7.87591 13.8795 7.28464 12.9571C6.69411 12.0359 6.08613 11.0264 5.59845 10.0793C5.1174 9.14511 4.72857 8.22533 4.6138 7.49734C4.39111 6.08476 4.72317 4.54988 5.62487 3.36015C6.53658 2.15722 8.00958 1.33594 9.99432 1.33594C11.9522 1.33594 13.4318 2.02972 14.3571 3.18906C15.2748 4.33886 15.5949 5.88076 15.3771 7.48691C15.2639 8.32182 14.8773 9.29472 14.3921 10.2571C13.9024 11.2285 13.2923 12.2276 12.7002 13.1241C12.1073 14.0218 11.528 14.8232 11.0972 15.4C10.8817 15.6886 10.7029 15.9214 10.5778 16.0824C10.5152 16.163 10.466 16.2256 10.4323 16.2683L10.3936 16.3171L10.3834 16.3299L10.3807 16.3332L10.38 16.3342C10.3799 16.3343 10.3796 16.3346 9.99432 16.0286ZM9.99432 16.0286L10.38 16.3342C10.2845 16.4532 10.1385 16.5218 9.98551 16.5191C9.83248 16.5164 9.6893 16.443 9.59817 16.3206L9.99432 16.0286Z" fill="#1BA103"/>
<path fill-rule="evenodd" clip-rule="evenodd" d="M10 8.14955C10.7695 8.14955 11.4926 7.4832 11.4926 6.53753C11.4926 5.59186 10.7695 4.92551 10 4.92551C9.23047 4.92551 8.50737 5.59186 8.50737 6.53753C8.50737 7.4832 9.23047 8.14955 10 8.14955ZM10 9.13756C11.3807 9.13756 12.5 7.97349 12.5 6.53753C12.5 5.10157 11.3807 3.9375 10 3.9375C8.61929 3.9375 7.5 5.10157 7.5 6.53753C7.5 7.97349 8.61929 9.13756 10 9.13756Z" fill="#1BA103"/>
<path d="M5.92302 14.9987C6.58291 14.7794 7.27823 14.6719 7.55081 14.6719C7.82307 14.6719 8.04377 14.8915 8.04377 15.1625C8.04377 15.4334 7.82307 15.6531 7.55081 15.6531C7.4146 15.6531 6.82785 15.7325 6.23527 15.9294C5.94417 16.0261 5.67904 16.1426 5.47919 16.2741C5.272 16.4104 5.19009 16.5263 5.16643 16.601C5.14267 16.6761 5.14914 16.7185 5.15807 16.7456C5.16858 16.7775 5.19688 16.8298 5.27526 16.8981C5.44375 17.0448 5.76277 17.1959 6.24905 17.3242C7.2064 17.5768 8.58318 17.6844 9.99688 17.6844C11.4104 17.6845 12.7871 17.5769 13.7446 17.3243C14.2309 17.196 14.5502 17.0449 14.719 16.898C14.7975 16.8296 14.826 16.7772 14.8366 16.7451C14.8456 16.7178 14.8521 16.6753 14.8285 16.6004C14.8155 16.5591 14.749 16.4549 14.5325 16.3155C14.3299 16.185 14.0596 16.0646 13.7639 15.9615C13.4714 15.8596 13.1722 15.7809 12.923 15.7279C12.6606 15.6722 12.4913 15.6531 12.4456 15.6531C12.1734 15.6531 11.9526 15.4334 11.9526 15.1625C11.9526 14.8915 12.1734 14.6719 12.4456 14.6719C12.6027 14.6719 12.8589 14.711 13.1288 14.7683C13.412 14.8285 13.752 14.9177 14.0897 15.0354C14.424 15.1519 14.7747 15.3027 15.0682 15.4917C15.3477 15.6717 15.6522 15.9353 15.7692 16.3068C15.8473 16.5546 15.8536 16.8081 15.7733 17.0514C15.6945 17.29 15.5444 17.483 15.368 17.6366C15.0268 17.9335 14.5304 18.1321 13.9972 18.2728C12.9157 18.5582 11.4379 18.6658 9.99688 18.6657C8.55573 18.6657 7.07782 18.5581 5.99639 18.2727C5.46329 18.132 4.9669 17.9335 4.62591 17.6364C4.44955 17.4828 4.2996 17.2896 4.22108 17.0509C4.14099 16.8074 4.14767 16.5539 4.22609 16.3061C4.34763 15.9222 4.64405 15.6473 4.93544 15.4556C5.23417 15.259 5.58788 15.1101 5.92302 14.9987Z" fill="#1BA103"/>
</svg>
