<svg width="20" height="20" viewBox="0 0 20 20" fill="none" xmlns="http://www.w3.org/2000/svg">
<path fill-rule="evenodd" clip-rule="evenodd" d="M6.41781 3.94861C5.68863 4.91071 5.40925 6.1732 5.59364 7.3428C5.68241 7.9059 6.00705 8.70758 6.48169 9.62934C6.94971 10.5382 7.53967 11.5191 8.12164 12.4269C8.70286 13.3336 9.27207 14.1612 9.69623 14.7624C9.81413 14.9295 9.92072 15.079 10.0132 15.2078C10.1012 15.0924 10.2016 14.9598 10.3118 14.8122C10.7348 14.2458 11.3025 13.4603 11.8822 12.5827C12.4625 11.704 13.0504 10.7396 13.5167 9.81464C13.9875 8.88075 14.3148 8.02459 14.4059 7.35323C14.5966 5.94683 14.3048 4.69136 13.591 3.79693C12.8847 2.91203 11.7129 2.31473 10.0002 2.31473C8.31427 2.31473 7.13697 2.99972 6.41781 3.94861ZM10.0002 16.0261C9.6041 16.3183 9.60406 16.3182 9.60401 16.3181L9.59046 16.2999L9.55206 16.2479C9.51856 16.2024 9.46959 16.1356 9.40724 16.0498C9.28257 15.8784 9.10435 15.631 8.88935 15.3263C8.45959 14.7171 7.88175 13.8771 7.29048 12.9547C6.69995 12.0335 6.09197 11.0239 5.60429 10.0769C5.12324 9.14267 4.73441 8.22289 4.61964 7.4949C4.39695 6.08232 4.72901 4.54743 5.63071 3.35771C6.54242 2.15478 8.01542 1.3335 10.0002 1.3335C11.9581 1.3335 13.4376 2.02728 14.3629 3.18661C15.2807 4.33642 15.6007 5.87832 15.3829 7.48447C15.2697 8.31938 14.8831 9.29228 14.3979 10.2547C13.9083 11.226 13.2981 12.2252 12.706 13.1217C12.1131 14.0193 11.5339 14.8208 11.1031 15.3976C10.8875 15.6862 10.7088 15.919 10.5836 16.08C10.5211 16.1605 10.4719 16.2231 10.4382 16.2658L10.3994 16.3147L10.3893 16.3274L10.3866 16.3308L10.3858 16.3317C10.3857 16.3318 10.3855 16.3321 10.0002 16.0261ZM10.0002 16.0261L10.3858 16.3317C10.2903 16.4508 10.1444 16.5194 9.99135 16.5167C9.83832 16.514 9.69514 16.4405 9.60401 16.3181L10.0002 16.0261Z" fill="#333333"/>
<path fill-rule="evenodd" clip-rule="evenodd" d="M10 8.14564C10.7695 8.14564 11.4926 7.4793 11.4926 6.53363C11.4926 5.58795 10.7695 4.92161 10 4.92161C9.23047 4.92161 8.50737 5.58795 8.50737 6.53363C8.50737 7.4793 9.23047 8.14564 10 8.14564ZM10 9.13366C11.3807 9.13366 12.5 7.96958 12.5 6.53363C12.5 5.09767 11.3807 3.93359 10 3.93359C8.61929 3.93359 7.5 5.09767 7.5 6.53363C7.5 7.96958 8.61929 9.13366 10 9.13366Z" fill="#333333"/>
<path d="M5.92562 15.0001C6.58552 14.7809 7.28084 14.6733 7.55342 14.6733C7.82567 14.6733 8.04638 14.893 8.04638 15.164C8.04638 15.4349 7.82567 15.6546 7.55342 15.6546C7.41721 15.6546 6.83046 15.7339 6.23787 15.9309C5.94678 16.0276 5.68165 16.1441 5.4818 16.2756C5.27461 16.4119 5.1927 16.5277 5.16904 16.6025C5.14528 16.6775 5.15175 16.7199 5.16068 16.7471C5.17118 16.779 5.19948 16.8313 5.27786 16.8995C5.44635 17.0463 5.76538 17.1974 6.25166 17.3257C7.209 17.5783 8.58578 17.6859 9.99948 17.6859C11.413 17.686 12.7897 17.5784 13.7472 17.3258C14.2335 17.1975 14.5528 17.0463 14.7216 16.8994C14.8001 16.831 14.8286 16.7787 14.8392 16.7465C14.8482 16.7192 14.8547 16.6768 14.8311 16.6018C14.8181 16.5606 14.7516 16.4564 14.5351 16.3169C14.3325 16.1864 14.0622 16.066 13.7665 15.963C13.474 15.861 13.1748 15.7823 12.9256 15.7294C12.6632 15.6737 12.4939 15.6546 12.4482 15.6546C12.176 15.6546 11.9553 15.4349 11.9553 15.164C11.9553 14.893 12.176 14.6733 12.4482 14.6733C12.6053 14.6733 12.8615 14.7124 13.1314 14.7698C13.4146 14.8299 13.7546 14.9192 14.0923 15.0369C14.4267 15.1534 14.7773 15.3041 15.0708 15.4931C15.3503 15.6732 15.6548 15.9367 15.7719 16.3082C15.8499 16.5561 15.8562 16.8095 15.7759 17.0529C15.6971 17.2914 15.547 17.4845 15.3706 17.638C15.0295 17.935 14.533 18.1336 13.9998 18.2742C12.9183 18.5596 11.4405 18.6672 9.99948 18.6671C8.55834 18.6671 7.08043 18.5595 5.999 18.2742C5.46589 18.1335 4.9695 17.9349 4.62852 17.6379C4.45216 17.4843 4.30221 17.2911 4.22369 17.0523C4.1436 16.8088 4.15027 16.5553 4.2287 16.3076C4.35024 15.9237 4.64665 15.6488 4.93804 15.4571C5.23677 15.2605 5.59048 15.1115 5.92562 15.0001Z" fill="#333333"/>
</svg>
