<svg width="29" height="30" viewBox="0 0 29 30" fill="none" xmlns="http://www.w3.org/2000/svg">
<path fill-rule="evenodd" clip-rule="evenodd" d="M14.4999 7.5332C14.9417 7.5332 15.2999 7.89138 15.2999 8.3332V8.86654H15.3953C16.2265 8.88258 16.8872 9.38607 17.3071 10.0107C17.7302 10.64 17.9665 11.4619 17.9665 12.3332C17.9665 12.775 17.6084 13.1332 17.1665 13.1332C16.7247 13.1332 16.3665 12.775 16.3665 12.3332C16.3665 11.7378 16.2029 11.2359 15.9793 10.9033C15.7553 10.5701 15.5255 10.4717 15.3701 10.4665H13.3799C13.3067 10.4665 13.1392 10.5121 12.9529 10.7926C12.771 11.0664 12.6332 11.4888 12.6332 11.9903C12.6332 12.6141 12.7307 12.9342 12.8269 13.1084C12.9115 13.2617 13.0314 13.3696 13.2595 13.4852L13.261 13.486L16.4671 15.0891C16.8711 15.2978 17.2783 15.5997 17.5633 16.1206C17.8372 16.6211 17.9532 17.2422 17.9532 18.0094C17.9532 18.784 17.7443 19.5235 17.3662 20.0926C16.9925 20.655 16.3867 21.1332 15.6065 21.1332H15.2999V21.6665C15.2999 22.1084 14.9417 22.4665 14.4999 22.4665C14.058 22.4665 13.6999 22.1084 13.6999 21.6665V21.1332H13.6065C12.7659 21.1332 12.1037 20.6163 11.6889 19.9931C11.2692 19.3624 11.0332 18.5372 11.0332 17.6665C11.0332 17.2247 11.3914 16.8665 11.8332 16.8665C12.275 16.8665 12.6332 17.2247 12.6332 17.6665C12.6332 18.2626 12.7973 18.7706 13.0209 19.1066C13.2494 19.4501 13.4739 19.5332 13.6065 19.5332H15.6065C15.6797 19.5332 15.8472 19.4876 16.0335 19.2072C16.2154 18.9334 16.3532 18.5109 16.3532 18.0094C16.3532 17.3861 16.2559 17.0643 16.1597 16.8886C16.0753 16.7344 15.957 16.6271 15.737 16.5129L12.5421 14.9154L12.5387 14.9137C12.1278 14.7058 11.7147 14.4044 11.4262 13.8818C11.1491 13.3798 11.0332 12.7571 11.0332 11.9903C11.0332 11.2157 11.2421 10.4762 11.6202 9.90715C11.9939 9.34475 12.5997 8.86654 13.3799 8.86654H13.6999V8.3332C13.6999 7.89138 14.058 7.5332 14.4999 7.5332Z" fill="#008A5A"/>
<path fill-rule="evenodd" clip-rule="evenodd" d="M14.5005 2.4667C7.57855 2.4667 1.96719 8.07806 1.96719 15C1.96719 21.922 7.57855 27.5334 14.5005 27.5334C21.4225 27.5334 27.0339 21.922 27.0339 15C27.0339 8.07806 21.4225 2.4667 14.5005 2.4667ZM0.367188 15C0.367188 7.19441 6.6949 0.866699 14.5005 0.866699C22.3061 0.866699 28.6339 7.19441 28.6339 15C28.6339 22.8057 22.3061 29.1334 14.5005 29.1334C6.6949 29.1334 0.367188 22.8057 0.367188 15Z" fill="#008A5A"/>
</svg>
