<svg xmlns="http://www.w3.org/2000/svg" width="20" height="20" viewBox="0 0 20 20" fill="none">
  <path d="M14.1667 18.9582H5.83332C2.15832 18.9582 1.04166 17.8415 1.04166 14.1665V5.83317C1.04166 2.15817 2.15832 1.0415 5.83332 1.0415H7.08332C8.54166 1.0415 8.99999 1.5165 9.58332 2.2915L10.8333 3.95817C11.1083 4.32484 11.15 4.37484 11.6667 4.37484H14.1667C17.8417 4.37484 18.9583 5.4915 18.9583 9.1665V14.1665C18.9583 17.8415 17.8417 18.9582 14.1667 18.9582ZM5.83332 2.2915C2.84999 2.2915 2.29166 2.85817 2.29166 5.83317V14.1665C2.29166 17.1415 2.84999 17.7082 5.83332 17.7082H14.1667C17.15 17.7082 17.7083 17.1415 17.7083 14.1665V9.1665C17.7083 6.1915 17.15 5.62484 14.1667 5.62484H11.6667C10.6 5.62484 10.25 5.25817 9.83332 4.70817L8.58332 3.0415C8.14999 2.4665 8.01666 2.2915 7.08332 2.2915H5.83332V2.2915Z" fill="#8A8A8A"/>
  <path d="M16.6667 5.9415C16.325 5.9415 16.0417 5.65817 16.0417 5.3165V4.1665C16.0417 2.84984 15.4833 2.2915 14.1667 2.2915H6.66666C6.32499 2.2915 6.04166 2.00817 6.04166 1.6665C6.04166 1.32484 6.32499 1.0415 6.66666 1.0415H14.1667C16.1833 1.0415 17.2917 2.14984 17.2917 4.1665V5.3165C17.2917 5.65817 17.0083 5.9415 16.6667 5.9415Z" fill="#8A8A8A"/>
</svg>