<svg width="37" height="36" viewBox="0 0 37 36" fill="none" xmlns="http://www.w3.org/2000/svg">
<rect x="0.5" width="36" height="36" rx="18" fill="#E9F6EB"/>
<path fill-rule="evenodd" clip-rule="evenodd" d="M17.9342 9.30327C18.1094 9.21295 18.3044 9.16699 18.5003 9.16699C18.6962 9.16699 18.8912 9.21295 19.0664 9.30327L26.705 13.1639C26.8859 13.2562 27.0433 13.3931 27.1561 13.5662C27.2693 13.7399 27.3324 13.9422 27.3337 14.1522L27.3337 14.1552L27.3337 21.8455L27.3337 21.8485C27.3324 22.0585 27.2693 22.2607 27.1561 22.4344C27.0433 22.6075 26.8859 22.7445 26.705 22.8368L26.7033 22.8377L19.0664 26.6974C18.8912 26.7877 18.6962 26.8337 18.5003 26.8337C18.3035 26.8337 18.1077 26.7873 17.9319 26.6962C17.9318 26.6961 17.932 26.6962 17.9319 26.6962L10.2956 22.7417C10.2951 22.7414 10.2946 22.7411 10.2941 22.7409C10.1139 22.6486 9.95706 22.5119 9.84453 22.3393C9.73132 22.1656 9.66826 21.9633 9.667 21.7533L9.66699 21.7503V14.1522C9.66825 13.9422 9.73131 13.7399 9.84453 13.5662C9.95738 13.3931 10.1147 13.2562 10.2956 13.1639L10.2974 13.163L17.9342 9.30327ZM18.5003 10.167C18.4595 10.167 18.422 10.1768 18.392 10.1923L18.3873 10.1948L10.7501 14.0546C10.7499 14.0547 10.7504 14.0545 10.7501 14.0546C10.7164 14.072 10.6943 14.0939 10.6823 14.1123C10.6707 14.13 10.6672 14.1454 10.667 14.1574V21.7481C10.6672 21.7601 10.6707 21.7755 10.6823 21.7932C10.6944 21.8118 10.716 21.8335 10.7501 21.8509L10.7528 21.8523L18.3917 25.8082C18.4217 25.8237 18.4595 25.8337 18.5003 25.8337C18.5411 25.8337 18.5787 25.8239 18.6086 25.8083L18.6133 25.8059L26.2505 21.9461C26.2508 21.9459 26.2503 21.9462 26.2505 21.9461C26.2842 21.9287 26.3064 21.9068 26.3184 21.8883C26.3299 21.8707 26.3334 21.8553 26.3337 21.8433V14.1574C26.3334 14.1454 26.3299 14.13 26.3184 14.1123C26.3064 14.0939 26.2849 14.0723 26.2512 14.0549C26.251 14.0548 26.2514 14.0551 26.2512 14.0549L18.6086 10.1924C18.5786 10.1768 18.5411 10.167 18.5003 10.167Z" fill="#4BBF6C"/>
<path fill-rule="evenodd" clip-rule="evenodd" d="M9.81574 13.6112C9.9394 13.3643 10.2398 13.2643 10.4867 13.388L18.5766 17.4397L26.5112 13.3897C26.7571 13.2642 27.0583 13.3618 27.1838 13.6078C27.3094 13.8537 27.2118 14.1549 26.9658 14.2804L18.8061 18.4453C18.6645 18.5176 18.497 18.5182 18.3549 18.447L10.0389 14.2821C9.79199 14.1585 9.69208 13.8581 9.81574 13.6112Z" fill="#4BBF6C"/>
<path fill-rule="evenodd" clip-rule="evenodd" d="M18.5828 17.5005C18.8589 17.5031 19.0807 17.729 19.0781 18.0052L19 26.335C18.9974 26.6111 18.7714 26.8329 18.4953 26.8303C18.2192 26.8277 17.9974 26.6018 18 26.3256L18.0781 17.9958C18.0807 17.7197 18.3067 17.4979 18.5828 17.5005Z" fill="#4BBF6C"/>
<path fill-rule="evenodd" clip-rule="evenodd" d="M14.3076 11.5172C14.4363 11.2729 14.7386 11.179 14.983 11.3076L22.8996 15.4743C23.0639 15.5608 23.1668 15.7311 23.1668 15.9168V17.5834C23.1668 17.8596 22.9429 18.0834 22.6668 18.0834C22.3906 18.0834 22.1668 17.8596 22.1668 17.5834V16.2186L14.5172 12.1926C14.2729 12.0639 14.179 11.7616 14.3076 11.5172Z" fill="#4BBF6C"/>
</svg>
