<svg width="16" height="14" viewBox="0 0 16 14" fill="none" xmlns="http://www.w3.org/2000/svg">
<path fill-rule="evenodd" clip-rule="evenodd" d="M0.933594 4.33327C0.933594 3.74416 1.41116 3.2666 2.00026 3.2666H6.00026C6.22117 3.2666 6.40026 3.44569 6.40026 3.6666C6.40026 3.88752 6.22117 4.0666 6.00026 4.0666H2.00026C1.85298 4.0666 1.73359 4.18599 1.73359 4.33327V12.3333C1.73359 12.4805 1.85298 12.5999 2.00026 12.5999H14.0003C14.1475 12.5999 14.2669 12.4805 14.2669 12.3333V4.33327C14.2669 4.18599 14.1475 4.0666 14.0003 4.0666H10.0003C9.77935 4.0666 9.60026 3.88752 9.60026 3.6666C9.60026 3.44569 9.77935 3.2666 10.0003 3.2666H14.0003C14.5894 3.2666 15.0669 3.74416 15.0669 4.33327V12.3333C15.0669 12.9224 14.5894 13.3999 14.0003 13.3999H2.00026C1.41116 13.3999 0.933594 12.9224 0.933594 12.3333V4.33327Z" fill="#138300"/>
<path fill-rule="evenodd" clip-rule="evenodd" d="M6.93359 1.66664C6.93359 1.07754 7.41116 0.599976 8.00026 0.599976C8.58936 0.599976 9.06693 1.07754 9.06693 1.66664V4.33331C9.06693 4.92241 8.58936 5.39998 8.00026 5.39998C7.41116 5.39998 6.93359 4.92241 6.93359 4.33331V1.66664ZM8.00026 1.39998C7.85298 1.39998 7.73359 1.51937 7.73359 1.66664V4.33331C7.73359 4.48058 7.85298 4.59998 8.00026 4.59998C8.14754 4.59998 8.26693 4.48058 8.26693 4.33331V1.66664C8.26693 1.51937 8.14754 1.39998 8.00026 1.39998Z" fill="#138300"/>
<path fill-rule="evenodd" clip-rule="evenodd" d="M2.93359 7.6666C2.93359 7.44569 3.11268 7.2666 3.33359 7.2666H4.00026C4.22117 7.2666 4.40026 7.44569 4.40026 7.6666C4.40026 7.88752 4.22117 8.0666 4.00026 8.0666H3.33359C3.11268 8.0666 2.93359 7.88752 2.93359 7.6666Z" fill="#138300"/>
<path fill-rule="evenodd" clip-rule="evenodd" d="M2.93359 10.3333C2.93359 10.1124 3.11268 9.93335 3.33359 9.93335H4.00026C4.22117 9.93335 4.40026 10.1124 4.40026 10.3333C4.40026 10.5543 4.22117 10.7333 4.00026 10.7333H3.33359C3.11268 10.7333 2.93359 10.5543 2.93359 10.3333Z" fill="#138300"/>
<path fill-rule="evenodd" clip-rule="evenodd" d="M6.26758 7.6666C6.26758 7.44569 6.44666 7.2666 6.66758 7.2666H12.6676C12.8885 7.2666 13.0676 7.44569 13.0676 7.6666C13.0676 7.88752 12.8885 8.0666 12.6676 8.0666H6.66758C6.44666 8.0666 6.26758 7.88752 6.26758 7.6666Z" fill="#138300"/>
<path fill-rule="evenodd" clip-rule="evenodd" d="M6.26758 10.3333C6.26758 10.1124 6.44666 9.93335 6.66758 9.93335H12.6676C12.8885 9.93335 13.0676 10.1124 13.0676 10.3333C13.0676 10.5543 12.8885 10.7333 12.6676 10.7333H6.66758C6.44666 10.7333 6.26758 10.5543 6.26758 10.3333Z" fill="#138300"/>
</svg>
