<svg width="18" height="18" viewBox="0 0 18 18" fill="none" xmlns="http://www.w3.org/2000/svg">
<path fill-rule="evenodd" clip-rule="evenodd" d="M7.54175 2.33333C7.54175 1.52792 8.19467 0.875 9.00008 0.875C9.8055 0.875 10.4584 1.52792 10.4584 2.33333V5.66667C10.4584 6.47208 9.8055 7.125 9.00008 7.125C8.19467 7.125 7.54175 6.47208 7.54175 5.66667V2.33333ZM9.00008 2.125C8.88502 2.125 8.79175 2.21827 8.79175 2.33333V5.66667C8.79175 5.78173 8.88502 5.875 9.00008 5.875C9.11514 5.875 9.20841 5.78173 9.20841 5.66667V2.33333C9.20841 2.21827 9.11514 2.125 9.00008 2.125Z" fill="#08979C"/>
<path fill-rule="evenodd" clip-rule="evenodd" d="M0.041748 7.33331C0.041748 5.60742 1.44086 4.20831 3.16675 4.20831H6.08342C6.42859 4.20831 6.70842 4.48814 6.70842 4.83331C6.70842 5.17849 6.42859 5.45831 6.08342 5.45831H3.16675C2.13121 5.45831 1.29175 6.29778 1.29175 7.33331V14C1.29175 15.0355 2.13121 15.875 3.16675 15.875H14.8334C15.8689 15.875 16.7084 15.0355 16.7084 14V7.33331C16.7084 6.29778 15.8689 5.45831 14.8334 5.45831H11.9167C11.5716 5.45831 11.2917 5.17849 11.2917 4.83331C11.2917 4.48814 11.5716 4.20831 11.9167 4.20831H14.8334C16.5593 4.20831 17.9584 5.60742 17.9584 7.33331V14C17.9584 15.7259 16.5593 17.125 14.8334 17.125H3.16675C1.44086 17.125 0.041748 15.7259 0.041748 14V7.33331Z" fill="#08979C"/>
<path fill-rule="evenodd" clip-rule="evenodd" d="M2.54175 9.83331C2.54175 9.48814 2.82157 9.20831 3.16675 9.20831H4.00008C4.34526 9.20831 4.62508 9.48814 4.62508 9.83331C4.62508 10.1785 4.34526 10.4583 4.00008 10.4583H3.16675C2.82157 10.4583 2.54175 10.1785 2.54175 9.83331Z" fill="#08979C"/>
<path fill-rule="evenodd" clip-rule="evenodd" d="M2.54175 13.1667C2.54175 12.8215 2.82157 12.5417 3.16675 12.5417H4.00008C4.34526 12.5417 4.62508 12.8215 4.62508 13.1667C4.62508 13.5119 4.34526 13.7917 4.00008 13.7917H3.16675C2.82157 13.7917 2.54175 13.5119 2.54175 13.1667Z" fill="#08979C"/>
<path fill-rule="evenodd" clip-rule="evenodd" d="M6.7085 9.83331C6.7085 9.48814 6.98832 9.20831 7.3335 9.20831H14.8335C15.1787 9.20831 15.4585 9.48814 15.4585 9.83331C15.4585 10.1785 15.1787 10.4583 14.8335 10.4583H7.3335C6.98832 10.4583 6.7085 10.1785 6.7085 9.83331Z" fill="#08979C"/>
<path fill-rule="evenodd" clip-rule="evenodd" d="M6.7085 13.1667C6.7085 12.8215 6.98832 12.5417 7.3335 12.5417H14.8335C15.1787 12.5417 15.4585 12.8215 15.4585 13.1667C15.4585 13.5119 15.1787 13.7917 14.8335 13.7917H7.3335C6.98832 13.7917 6.7085 13.5119 6.7085 13.1667Z" fill="#08979C"/>
</svg>
