<svg width="16" height="16" viewBox="0 0 16 16" fill="none" xmlns="http://www.w3.org/2000/svg">
<path fill-rule="evenodd" clip-rule="evenodd" d="M13.7923 0.999698C13.7571 0.993974 13.7211 0.993974 13.6859 0.999698C13.6738 1.00167 13.6326 1.00937 13.5232 1.09747C13.4066 1.19139 13.2644 1.33256 13.0381 1.55887L8.09792 6.4981C7.91774 6.67825 7.89588 6.70596 7.8813 6.73171C7.86673 6.75745 7.8542 6.79045 7.7924 7.03761L7.40308 8.59463L8.96038 8.20537C9.20759 8.14358 9.2406 8.13106 9.26634 8.11649C9.29209 8.10191 9.31981 8.08006 9.49999 7.89991L14.4401 2.96068C14.6665 2.73436 14.8077 2.59224 14.9016 2.47566C14.9898 2.36629 14.9975 2.32509 14.9994 2.31298C15.0052 2.27774 15.0052 2.24181 14.9994 2.20657C14.9975 2.19446 14.9898 2.15326 14.9016 2.04389C14.8077 1.92731 14.6665 1.78519 14.4401 1.55887C14.2138 1.33256 14.0716 1.19139 13.955 1.09747C13.8457 1.00937 13.8044 1.00167 13.7923 0.999698ZM6.98959 8.68982C6.98961 8.6898 6.99025 8.68975 6.99146 8.68972L6.98959 8.68982ZM7.30796 9.00617C7.30793 9.00738 7.30788 9.00802 7.30786 9.00803L7.30796 9.00617ZM13.5263 0.0171716C13.6672 -0.00572387 13.811 -0.00572387 13.952 0.0171716C14.2041 0.0581287 14.4044 0.18115 14.5796 0.322306C14.743 0.453904 14.9231 0.633979 15.1267 0.837567L15.1616 0.872449C15.3652 1.07602 15.5453 1.25607 15.6769 1.41943C15.8181 1.59466 15.9412 1.79484 15.9821 2.04697C16.005 2.18792 16.005 2.33163 15.9821 2.47258C15.9412 2.72471 15.8181 2.92489 15.6769 3.10012C15.5453 3.26347 15.3652 3.44352 15.1616 3.64707L10.204 8.60377C10.1942 8.61356 10.1844 8.62333 10.1747 8.63308C10.0427 8.76549 9.91571 8.89277 9.75687 8.98269C9.59803 9.0726 9.42355 9.11595 9.24205 9.16105C9.22869 9.16437 9.21529 9.1677 9.20185 9.17106L7.51039 9.59384C7.5024 9.59584 7.49432 9.59786 7.48618 9.5999C7.35836 9.63193 7.21378 9.66816 7.09077 9.68019C6.95377 9.69359 6.70551 9.69235 6.50533 9.49221C6.30514 9.29206 6.30391 9.04384 6.31731 8.90687C6.32934 8.78389 6.36558 8.63934 6.39761 8.51154C6.39965 8.5034 6.40167 8.49532 6.40367 8.48733L6.82654 6.79619C6.8299 6.78276 6.83323 6.76936 6.83655 6.756C6.88165 6.57453 6.92501 6.40008 7.01494 6.24127C7.10487 6.08247 7.23218 5.95554 7.36461 5.82351C7.37436 5.81378 7.38414 5.80404 7.39393 5.79424L12.3515 0.837571C12.5551 0.633982 12.7352 0.453905 12.8986 0.322306C13.0739 0.18115 13.2741 0.0581287 13.5263 0.0171716Z" fill="black" fill-opacity="0.6"/>
<path fill-rule="evenodd" clip-rule="evenodd" d="M14.1498 3.999L12.0024 1.85205L12.7064 1.14819L14.8538 3.29514L14.1498 3.999Z" fill="black" fill-opacity="0.6"/>
<path fill-rule="evenodd" clip-rule="evenodd" d="M0 3.47458C0 2.28346 0.965773 1.31787 2.15711 1.31787H9.20922C9.48414 1.31787 9.70701 1.5407 9.70701 1.81557C9.70701 2.09045 9.48414 2.31328 9.20922 2.31328H2.15711C1.51562 2.31328 0.995591 2.83321 0.995591 3.47458V13.8434C0.995591 14.4848 1.51562 15.0047 2.15711 15.0047H12.9427C13.5842 15.0047 14.1042 14.4848 14.1042 13.8434V6.37784C14.1042 6.10297 14.3271 5.88014 14.602 5.88014C14.8769 5.88014 15.0998 6.10297 15.0998 6.37784V13.8434C15.0998 15.0345 14.134 16.0001 12.9427 16.0001H2.15711C0.965773 16.0001 0 15.0345 0 13.8434V3.47458Z" fill="black" fill-opacity="0.6"/>
</svg>
