<svg width="16" height="16" viewBox="0 0 16 16" fill="none" xmlns="http://www.w3.org/2000/svg">
<path fill-rule="evenodd" clip-rule="evenodd" d="M0.933105 5.33333C0.933105 4.74423 1.41067 4.26666 1.99977 4.26666H5.99977C6.22069 4.26666 6.39977 4.44575 6.39977 4.66666C6.39977 4.88758 6.22069 5.06666 5.99977 5.06666H1.99977C1.8525 5.06666 1.73311 5.18605 1.73311 5.33333V13.3333C1.73311 13.4806 1.8525 13.6 1.99977 13.6H13.9998C14.147 13.6 14.2664 13.4806 14.2664 13.3333V5.33333C14.2664 5.18605 14.147 5.06666 13.9998 5.06666H9.99977C9.77886 5.06666 9.59977 4.88758 9.59977 4.66666C9.59977 4.44575 9.77886 4.26666 9.99977 4.26666H13.9998C14.5889 4.26666 15.0664 4.74423 15.0664 5.33333V13.3333C15.0664 13.9224 14.5889 14.4 13.9998 14.4H1.99977C1.41067 14.4 0.933105 13.9224 0.933105 13.3333V5.33333Z" fill="#707070"/>
<path fill-rule="evenodd" clip-rule="evenodd" d="M6.93311 2.66664C6.93311 2.07754 7.41067 1.59998 7.99977 1.59998C8.58888 1.59998 9.06644 2.07754 9.06644 2.66664V5.33331C9.06644 5.92241 8.58888 6.39998 7.99977 6.39998C7.41067 6.39998 6.93311 5.92241 6.93311 5.33331V2.66664ZM7.99977 2.39998C7.8525 2.39998 7.73311 2.51937 7.73311 2.66664V5.33331C7.73311 5.48058 7.8525 5.59998 7.99977 5.59998C8.14705 5.59998 8.26644 5.48058 8.26644 5.33331V2.66664C8.26644 2.51937 8.14705 2.39998 7.99977 2.39998Z" fill="#707070"/>
<path fill-rule="evenodd" clip-rule="evenodd" d="M2.93311 8.66666C2.93311 8.44575 3.11219 8.26666 3.33311 8.26666H3.99977C4.22069 8.26666 4.39977 8.44575 4.39977 8.66666C4.39977 8.88758 4.22069 9.06666 3.99977 9.06666H3.33311C3.11219 9.06666 2.93311 8.88758 2.93311 8.66666Z" fill="#707070"/>
<path fill-rule="evenodd" clip-rule="evenodd" d="M2.93311 11.3333C2.93311 11.1124 3.11219 10.9333 3.33311 10.9333H3.99977C4.22069 10.9333 4.39977 11.1124 4.39977 11.3333C4.39977 11.5542 4.22069 11.7333 3.99977 11.7333H3.33311C3.11219 11.7333 2.93311 11.5542 2.93311 11.3333Z" fill="#707070"/>
<path fill-rule="evenodd" clip-rule="evenodd" d="M6.2666 8.66666C6.2666 8.44575 6.44569 8.26666 6.6666 8.26666H12.6666C12.8875 8.26666 13.0666 8.44575 13.0666 8.66666C13.0666 8.88758 12.8875 9.06666 12.6666 9.06666H6.6666C6.44569 9.06666 6.2666 8.88758 6.2666 8.66666Z" fill="#707070"/>
<path fill-rule="evenodd" clip-rule="evenodd" d="M6.2666 11.3333C6.2666 11.1124 6.44569 10.9333 6.6666 10.9333H12.6666C12.8875 10.9333 13.0666 11.1124 13.0666 11.3333C13.0666 11.5542 12.8875 11.7333 12.6666 11.7333H6.6666C6.44569 11.7333 6.2666 11.5542 6.2666 11.3333Z" fill="#707070"/>
</svg>
