<svg width="25" height="25" viewBox="0 0 32 32" fill="none" xmlns="http://www.w3.org/2000/svg">
<rect x="0.5" y="0.5" width="31" height="31" rx="14.5" fill="#F2F2F2"/>
<path fill-rule="evenodd" clip-rule="evenodd" d="M12.4414 8.1674C12.6944 7.85111 13.0775 7.66699 13.4826 7.66699H18.5148C18.9199 7.66699 19.303 7.85111 19.556 8.1674L20.7223 9.62522C20.7855 9.70429 20.8813 9.75032 20.9826 9.75032H23.4987C24.6953 9.75032 25.6654 10.7204 25.6654 11.917V21.5003C25.6654 22.6969 24.6953 23.667 23.4987 23.667L8.4987 23.667C7.30208 23.667 6.33203 22.6969 6.33203 21.5003L6.33203 11.917C6.33203 10.7204 7.30208 9.75032 8.4987 9.75032H11.0148C11.1161 9.75032 11.2119 9.70429 11.2751 9.62522L12.4414 8.1674ZM15.9987 13.6668C14.4339 13.6668 13.1654 14.9354 13.1654 16.5002C13.1654 18.065 14.4339 19.3335 15.9987 19.3335C17.5635 19.3335 18.832 18.065 18.832 16.5002C18.832 14.9354 17.5635 13.6668 15.9987 13.6668ZM12.1654 16.5002C12.1654 14.3831 13.8816 12.6668 15.9987 12.6668C18.1158 12.6668 19.832 14.3831 19.832 16.5002C19.832 18.6173 18.1158 20.3335 15.9987 20.3335C13.8816 20.3335 12.1654 18.6173 12.1654 16.5002ZM21.7487 14.3335C22.4391 14.3335 22.9987 13.7739 22.9987 13.0835C22.9987 12.3931 22.4391 11.8335 21.7487 11.8335C21.0583 11.8335 20.4987 12.3931 20.4987 13.0835C20.4987 13.7739 21.0583 14.3335 21.7487 14.3335Z" fill="#131313"/>
<rect x="0.5" y="0.5" width="31" height="31" rx="14.5" stroke="white"/>
</svg>
