<svg width="32" height="32" viewBox="0 0 32 32" fill="none" xmlns="http://www.w3.org/2000/svg">
<rect width="32" height="32" rx="8" fill="#7CB305"/>
<path fill-rule="evenodd" clip-rule="evenodd" d="M10.1667 21.8335H21.8334V22.6668C21.8334 23.5873 21.0872 24.3335 20.1667 24.3335H16.0001C16.4603 24.3335 16.8334 23.9604 16.8334 23.5002C16.8334 23.0399 16.4603 22.6668 16.0001 22.6668C15.5398 22.6668 15.1667 23.0399 15.1667 23.5002C15.1667 23.9604 15.5398 24.3335 16.0001 24.3335H11.8334C10.9129 24.3335 10.1667 23.5873 10.1667 22.6668V21.8335Z" fill="white"/>
<path fill-rule="evenodd" clip-rule="evenodd" d="M9.54175 9.33342C9.54175 8.06776 10.5678 7.04175 11.8334 7.04175H20.1667C21.4324 7.04175 22.4584 8.06776 22.4584 9.33341V22.6667C22.4584 23.9324 21.4324 24.9584 20.1667 24.9584H11.8334C10.5678 24.9584 9.54175 23.9324 9.54175 22.6667V9.33342ZM11.8334 8.29175C11.2581 8.29175 10.7917 8.75812 10.7917 9.33342V22.6667C10.7917 23.242 11.2581 23.7084 11.8334 23.7084C11.8334 23.7084 15.5834 24.3334 16.0001 24.3334C16.4167 24.3334 20.1667 23.7084 20.1667 23.7084C20.742 23.7084 21.2084 23.242 21.2084 22.6667V9.33341C21.2084 8.75812 20.742 8.29175 20.1667 8.29175H11.8334Z" fill="white"/>
</svg>
