<svg width="16" height="16" viewBox="0 0 16 16" fill="none" xmlns="http://www.w3.org/2000/svg">
<path fill-rule="evenodd" clip-rule="evenodd" d="M3.38411 4.76342C3.56089 4.97555 3.53223 5.29084 3.32009 5.46762L1 7.40103V15.0002H15V7.40103L12.6799 5.46762C12.4678 5.29084 12.4391 4.97555 12.6159 4.76342C12.7927 4.55128 13.108 4.52262 13.3201 4.6994L15.8201 6.78273C15.9341 6.87773 16 7.01845 16 7.16684V15.5002C16 15.7763 15.7761 16.0002 15.5 16.0002H0.5C0.223858 16.0002 0 15.7763 0 15.5002L0 7.16684C0 7.01845 0.0659115 6.87773 0.179908 6.78273L2.67991 4.6994C2.89205 4.52262 3.20733 4.55128 3.38411 4.76342Z" fill="#008A5A"/>
<path fill-rule="evenodd" clip-rule="evenodd" d="M0.0630124 7.75727C0.197119 7.51588 0.501521 7.42891 0.742913 7.56301L8.00009 11.5948L15.2573 7.56301C15.4987 7.42891 15.8031 7.51588 15.9372 7.75727C16.0713 7.99866 15.9843 8.30306 15.7429 8.43717L8.24291 12.6038C8.0919 12.6877 7.90828 12.6877 7.75727 12.6038L0.25727 8.43717C0.0158778 8.30306 -0.0710941 7.99866 0.0630124 7.75727Z" fill="#008A5A"/>
<path fill-rule="evenodd" clip-rule="evenodd" d="M2.5 0.5C2.5 0.223858 2.72386 0 3 0L13 0C13.2761 0 13.5 0.223858 13.5 0.5V9.38889C13.5 9.57047 13.4016 9.73778 13.2428 9.82597L8.24282 12.6037C8.09181 12.6876 7.90819 12.6876 7.75718 12.6037L2.75718 9.82597C2.59845 9.73778 2.5 9.57047 2.5 9.38889V0.5ZM3.5 1V9.09469L8 11.5947L12.5 9.09469V1H3.5Z" fill="#008A5A"/>
<path fill-rule="evenodd" clip-rule="evenodd" d="M8 1.6665C8.27614 1.6665 8.5 1.89036 8.5 2.1665V2.83317C8.5 3.10931 8.27614 3.33317 8 3.33317C7.72386 3.33317 7.5 3.10931 7.5 2.83317V2.1665C7.5 1.89036 7.72386 1.6665 8 1.6665Z" fill="#008A5A"/>
<path fill-rule="evenodd" clip-rule="evenodd" d="M8 7.3335C8.27614 7.3335 8.5 7.55735 8.5 7.8335V8.8335C8.5 9.10964 8.27614 9.3335 8 9.3335C7.72386 9.3335 7.5 9.10964 7.5 8.8335V7.8335C7.5 7.55735 7.72386 7.3335 8 7.3335Z" fill="#008A5A"/>
<path fill-rule="evenodd" clip-rule="evenodd" d="M6.35914 2.87952C6.63825 2.54458 7.03846 2.3335 7.47982 2.3335H8.41732C8.63383 2.3335 8.84523 2.38484 9.0385 2.48091C9.23131 2.57674 9.40004 2.71397 9.538 2.87952C9.67584 3.04494 9.78145 3.23667 9.85233 3.442C9.92321 3.64736 9.95898 3.86513 9.95898 4.0835C9.95898 4.35964 9.73513 4.5835 9.45898 4.5835C9.18284 4.5835 8.95898 4.35964 8.95898 4.0835C8.95898 3.97356 8.94087 3.86624 8.90706 3.76829C8.87323 3.6703 8.82539 3.58644 8.76978 3.5197C8.71428 3.45311 8.65335 3.40619 8.59339 3.37639C8.5339 3.34681 8.4744 3.3335 8.41732 3.3335H7.47982C7.36864 3.3335 7.23895 3.3858 7.12736 3.5197C7.01356 3.65627 6.93815 3.85809 6.93815 4.0835C6.93815 4.3089 7.01356 4.51072 7.12736 4.64729C7.23895 4.78119 7.36864 4.8335 7.47982 4.8335H8.62565C9.06701 4.8335 9.46722 5.04458 9.74633 5.37952C10.0232 5.7118 10.1673 6.14586 10.1673 6.5835C10.1673 7.02113 10.0232 7.45519 9.74633 7.78747C9.46722 8.12241 9.06701 8.3335 8.62565 8.3335H7.37565C6.9343 8.3335 6.53408 8.12241 6.25497 7.78747C5.97807 7.45519 5.83398 7.02113 5.83398 6.5835C5.83398 6.30735 6.05784 6.0835 6.33398 6.0835C6.61013 6.0835 6.83398 6.30735 6.83398 6.5835C6.83398 6.8089 6.90939 7.01072 7.02319 7.14729C7.13478 7.28119 7.26447 7.3335 7.37565 7.3335H8.62565C8.73683 7.3335 8.86652 7.28119 8.97811 7.14729C9.09191 7.01072 9.16732 6.8089 9.16732 6.5835C9.16732 6.35809 9.09191 6.15627 8.97811 6.01971C8.86652 5.8858 8.73683 5.8335 8.62565 5.8335H7.47982C7.03846 5.8335 6.63825 5.62241 6.35914 5.28747C6.08224 4.95519 5.93815 4.52113 5.93815 4.0835C5.93815 3.64586 6.08224 3.2118 6.35914 2.87952Z" fill="#008A5A"/>
</svg>
