<svg width="20" height="20" viewBox="0 0 20 20" fill="none" xmlns="http://www.w3.org/2000/svg">
<path fill-rule="evenodd" clip-rule="evenodd" d="M4.66315 2.1665C4.19988 2.1665 3.7363 2.35567 3.27771 2.80643L3.27013 2.81387C2.87799 3.18326 2.60429 3.58917 2.43263 4.0248L2.43159 4.02744C2.25654 4.46441 2.16699 4.94252 2.16699 5.44984C2.16699 6.23817 2.34901 7.08016 2.72831 7.97986C3.11175 8.881 3.64238 9.7982 4.30854 10.7231C4.98516 11.6509 5.74396 12.5391 6.58547 13.3877C7.43543 14.228 8.32543 14.9861 9.2638 15.6705C10.1879 16.3423 11.1149 16.8727 12.0363 17.2647C12.9459 17.6517 13.789 17.8332 14.5613 17.8332C15.0822 17.8332 15.5591 17.7369 15.9967 17.5549L15.9994 17.5538C16.4319 17.3768 16.8226 17.0984 17.1875 16.6969C17.3944 16.4688 17.5511 16.2273 17.673 15.9694C17.7838 15.7352 17.8337 15.4997 17.8337 15.2748C17.8337 15.121 17.8023 14.9785 17.7394 14.8193C17.6898 14.7103 17.6062 14.6061 17.4568 14.5028L17.4519 14.4994L14.6937 12.5441C14.5054 12.4165 14.346 12.3285 14.2053 12.271C14.0735 12.2172 13.9707 12.1998 13.8853 12.1998C13.779 12.1998 13.6759 12.2271 13.5525 12.3021L13.5384 12.3107L13.5238 12.3183C13.3931 12.3864 13.2336 12.5072 13.0452 12.6953L13.0428 12.6977L12.4109 13.3203C12.4104 13.3208 12.41 13.3212 12.4095 13.3217C12.2292 13.5011 11.996 13.6082 11.7154 13.6082C11.6016 13.6082 11.4712 13.5954 11.3314 13.5431L11.3206 13.539L11.31 13.5345C11.2771 13.5204 11.2465 13.5064 11.2238 13.496L11.2173 13.493C11.1907 13.4808 11.1787 13.4756 11.1711 13.4725L11.1464 13.4626L11.1229 13.4502C10.7955 13.2772 10.406 13.0026 9.95722 12.6234L9.95658 12.6229C9.50124 12.2369 9.05765 11.8192 8.60296 11.3736L8.59622 11.367C8.15328 10.9162 7.74559 10.4665 7.36493 10.0273L7.3613 10.0231C6.98523 9.57933 6.70171 9.19121 6.52781 8.87287L6.50645 8.83377L6.49234 8.7915C6.49105 8.78763 6.48801 8.77956 6.47598 8.75116C6.47504 8.74894 6.47405 8.74661 6.47301 8.74416C6.46257 8.71957 6.44714 8.68323 6.43176 8.6423L6.42174 8.6156L6.41481 8.58794C6.38989 8.4884 6.3748 8.38894 6.3748 8.27484C6.3748 8.02177 6.46045 7.78409 6.65109 7.59166L7.28927 6.92929C7.4669 6.75192 7.59435 6.58744 7.67487 6.4452L7.67885 6.43815L7.68306 6.43125C7.75702 6.30993 7.78525 6.19903 7.78525 6.09984C7.78525 6.02547 7.76452 5.9182 7.70895 5.78871L7.70567 5.78109C7.64835 5.64117 7.5611 5.48379 7.42902 5.30061L7.42698 5.29779L5.48742 2.56808C5.39224 2.43082 5.27268 2.3364 5.1299 2.2706L5.12304 2.26744C4.98613 2.20183 4.82694 2.1665 4.66315 2.1665ZM2.58054 2.08951C3.18934 1.49264 3.89285 1.1665 4.66315 1.1665C4.96551 1.1665 5.27239 1.23071 5.55186 1.36398C5.84088 1.49783 6.10325 1.70219 6.30747 1.99574L8.24118 4.71717C8.40811 4.94886 8.53694 5.17317 8.62954 5.39818C8.72326 5.61766 8.78525 5.85896 8.78525 6.09984C8.78525 6.39796 8.69822 6.68458 8.54118 6.94474C8.40573 7.18214 8.21874 7.41401 7.99943 7.63348L7.37488 8.2817C7.37515 8.29278 7.37618 8.30393 7.379 8.31884C7.38351 8.32982 7.38851 8.34162 7.3946 8.35598L7.39721 8.36215C7.40393 8.37801 7.41313 8.39971 7.42274 8.42462C7.55256 8.65384 7.78083 8.9712 8.12243 9.37446C8.49141 9.80014 8.88319 10.232 9.30626 10.6627C9.75151 11.099 10.1747 11.4968 10.6028 11.8597C11.0107 12.2044 11.3325 12.4271 11.5708 12.5558C11.5942 12.5658 11.6161 12.5758 11.6328 12.5834C11.6518 12.5921 11.6684 12.5998 11.684 12.6067C11.6879 12.6072 11.6956 12.6079 11.7089 12.6081L12.3386 11.9877C12.339 11.9873 12.3394 11.9869 12.3398 11.9865C12.5639 11.7628 12.7997 11.5706 13.0472 11.4391C13.3037 11.2861 13.5799 11.1998 13.8853 11.1998C14.1171 11.1998 14.3481 11.2491 14.5835 11.3453C14.809 11.4374 15.0323 11.5652 15.2595 11.7195L15.2679 11.7252L18.028 13.682C18.3081 13.8762 18.5237 14.1191 18.6577 14.4232L18.6611 14.431L18.6643 14.4389C18.766 14.693 18.8337 14.9648 18.8337 15.2748C18.8337 15.6499 18.75 16.0312 18.577 16.3969C18.4153 16.739 18.2047 17.064 17.9277 17.3692C17.475 17.8674 16.9646 18.239 16.3793 18.4788C15.8158 18.713 15.2083 18.8332 14.5613 18.8332C13.6311 18.8332 12.6548 18.6146 11.6448 18.1849C10.6468 17.7603 9.65431 17.1908 8.67561 16.4793C7.69522 15.7642 6.76592 14.9725 5.8806 14.097L5.87716 14.0936C5.00045 13.2097 4.2078 12.2822 3.49968 11.3111L3.49798 11.3088C2.796 10.3343 2.22537 9.35214 1.8078 8.37057L1.80718 8.36911C1.38548 7.36908 1.16699 6.39463 1.16699 5.44984C1.16699 4.82431 1.27758 4.21954 1.50278 3.65688C1.73115 3.07788 2.09036 2.55222 2.58054 2.08951Z" fill="#707070"/>
</svg>
