<svg width="16" height="16" viewBox="0 0 16 16" fill="none" xmlns="http://www.w3.org/2000/svg">
<g clip-path="url(#clip0_12572_161654)">
<path fill-rule="evenodd" clip-rule="evenodd" d="M9.59961 1.33335C9.59961 1.11244 9.7787 0.93335 9.99961 0.93335H13.9996C14.5887 0.93335 15.0663 1.41091 15.0663 2.00002V6.00002C15.0663 6.22093 14.8872 6.40002 14.6663 6.40002C14.4454 6.40002 14.2663 6.22093 14.2663 6.00002V2.00002C14.2663 1.85274 14.1469 1.73335 13.9996 1.73335H9.99961C9.7787 1.73335 9.59961 1.55426 9.59961 1.33335Z" fill="#333333"/>
<path fill-rule="evenodd" clip-rule="evenodd" d="M9.59961 14.6667C9.59961 14.8876 9.7787 15.0667 9.99961 15.0667H13.9996C14.5887 15.0667 15.0663 14.5891 15.0663 14V9.99998C15.0663 9.77907 14.8872 9.59998 14.6663 9.59998C14.4454 9.59998 14.2663 9.77907 14.2663 9.99998V14C14.2663 14.1473 14.1469 14.2667 13.9996 14.2667H9.99961C9.7787 14.2667 9.59961 14.4457 9.59961 14.6667Z" fill="#333333"/>
<path fill-rule="evenodd" clip-rule="evenodd" d="M6.40039 14.6667C6.40039 14.8876 6.2213 15.0667 6.00039 15.0667H2.00039C1.41129 15.0667 0.933724 14.5891 0.933724 14V9.99998C0.933724 9.77907 1.11281 9.59998 1.33372 9.59998C1.55464 9.59998 1.73372 9.77907 1.73372 9.99998V14C1.73372 14.1473 1.85312 14.2667 2.00039 14.2667H6.00039C6.2213 14.2667 6.40039 14.4457 6.40039 14.6667Z" fill="#333333"/>
<path fill-rule="evenodd" clip-rule="evenodd" d="M6.40039 1.33335C6.40039 1.11244 6.2213 0.93335 6.00039 0.93335H2.00039C1.41129 0.93335 0.933724 1.41091 0.933724 2.00002V6.00002C0.933724 6.22093 1.11281 6.40002 1.33372 6.40002C1.55464 6.40002 1.73372 6.22093 1.73372 6.00002V2.00002C1.73372 1.85274 1.85312 1.73335 2.00039 1.73335H6.00039C6.2213 1.73335 6.40039 1.55426 6.40039 1.33335Z" fill="#333333"/>
<path fill-rule="evenodd" clip-rule="evenodd" d="M0.933594 8.0001C0.933594 7.77918 1.11268 7.6001 1.33359 7.6001H14.6669C14.8878 7.6001 15.0669 7.77918 15.0669 8.0001C15.0669 8.22101 14.8878 8.4001 14.6669 8.4001H1.33359C1.11268 8.4001 0.933594 8.22101 0.933594 8.0001Z" fill="#333333"/>
</g>
<defs>
<clipPath id="clip0_12572_161654">
<rect width="16" height="16" fill="white"/>
</clipPath>
</defs>
</svg>
