<svg width="48" height="48" viewBox="0 0 48 48" fill="none" xmlns="http://www.w3.org/2000/svg">
<path fill-rule="evenodd" clip-rule="evenodd" d="M1.03125 46.71C1.03125 45.9986 1.58703 45.4219 2.27263 45.4219H42.6175C43.3031 45.4219 43.8588 45.9986 43.8588 46.71C43.8588 47.4215 43.3031 47.9982 42.6175 47.9982H2.27263C1.58703 47.9982 1.03125 47.4215 1.03125 46.71Z" fill="black" fill-opacity="0.87"/>
<path fill-rule="evenodd" clip-rule="evenodd" d="M44.4844 46.71C44.4844 45.9986 45.0402 45.4219 45.7258 45.4219H46.7602C47.4458 45.4219 48.0016 45.9986 48.0016 46.71C48.0016 47.4215 47.4458 47.9982 46.7602 47.9982H45.7258C45.0402 47.9982 44.4844 47.4215 44.4844 46.71Z" fill="black" fill-opacity="0.87"/>
<path fill-rule="evenodd" clip-rule="evenodd" d="M3.31169 29.6797C3.99729 29.6797 4.55307 30.2564 4.55307 30.9678V45.6624C4.55307 46.3738 3.99729 46.9505 3.31169 46.9505C2.6261 46.9505 2.07031 46.3738 2.07031 45.6624V30.9678C2.07031 30.2564 2.6261 29.6797 3.31169 29.6797Z" fill="black" fill-opacity="0.87"/>
<path fill-rule="evenodd" clip-rule="evenodd" d="M14.6867 17.0859C15.3723 17.0859 15.9281 17.6627 15.9281 18.3741V45.6639C15.9281 46.3753 15.3723 46.9521 14.6867 46.9521C14.0011 46.9521 13.4453 46.3753 13.4453 45.6639V18.3741C13.4453 17.6627 14.0011 17.0859 14.6867 17.0859Z" fill="black" fill-opacity="0.87"/>
<path fill-rule="evenodd" clip-rule="evenodd" d="M26.0695 23.3828C26.7551 23.3828 27.3109 23.9595 27.3109 24.671V46.7127C27.3109 47.4242 26.7551 48.0009 26.0695 48.0009C25.3839 48.0009 24.8281 47.4242 24.8281 46.7127V24.671C24.8281 23.9595 25.3839 23.3828 26.0695 23.3828Z" fill="black" fill-opacity="0.87"/>
<path fill-rule="evenodd" clip-rule="evenodd" d="M36.4133 10.7812C37.0989 10.7812 37.6546 11.358 37.6546 12.0694L37.6546 45.6569C37.6546 46.3683 37.0989 46.945 36.4133 46.945C35.7277 46.945 35.1719 46.3683 35.1719 45.6569L35.1719 12.0694C35.1719 11.358 35.7277 10.7812 36.4133 10.7812Z" fill="black" fill-opacity="0.87"/>
<path fill-rule="evenodd" clip-rule="evenodd" d="M2.07031 30.9678C2.07031 30.2564 2.6261 29.6797 3.31169 29.6797H8.48411C9.1697 29.6797 9.72548 30.2564 9.72548 30.9678C9.72548 31.6793 9.1697 32.256 8.48411 32.256H3.31169C2.6261 32.256 2.07031 31.6793 2.07031 30.9678Z" fill="black" fill-opacity="0.87"/>
<path fill-rule="evenodd" clip-rule="evenodd" d="M13.4453 18.3741C13.4453 17.6627 14.0011 17.0859 14.6867 17.0859H19.8591C20.5447 17.0859 21.1005 17.6627 21.1005 18.3741C21.1005 19.0855 20.5447 19.6623 19.8591 19.6623H14.6867C14.0011 19.6623 13.4453 19.0855 13.4453 18.3741Z" fill="black" fill-opacity="0.87"/>
<path fill-rule="evenodd" clip-rule="evenodd" d="M24.8281 24.671C24.8281 23.9595 25.3839 23.3828 26.0695 23.3828H31.2419C31.9275 23.3828 32.4833 23.9595 32.4833 24.671C32.4833 25.3824 31.9275 25.9591 31.2419 25.9591H26.0695C25.3839 25.9591 24.8281 25.3824 24.8281 24.671Z" fill="black" fill-opacity="0.87"/>
<path fill-rule="evenodd" clip-rule="evenodd" d="M35.1719 12.0694C35.1719 11.358 35.7277 10.7812 36.4133 10.7812L41.5857 10.7812C42.2713 10.7812 42.827 11.358 42.827 12.0694C42.827 12.7808 42.2713 13.3576 41.5857 13.3576L36.4133 13.3576C35.7277 13.3576 35.1719 12.7808 35.1719 12.0694Z" fill="black" fill-opacity="0.87"/>
<path fill-rule="evenodd" clip-rule="evenodd" d="M8.48357 29.6797C9.16916 29.6797 9.72495 30.2564 9.72495 30.9678V46.712C9.72495 47.4234 9.16916 48.0001 8.48357 48.0001C7.79797 48.0001 7.24219 47.4234 7.24219 46.712V30.9678C7.24219 30.2564 7.79797 29.6797 8.48357 29.6797Z" fill="black" fill-opacity="0.87"/>
<path fill-rule="evenodd" clip-rule="evenodd" d="M19.8586 17.0859C20.5442 17.0859 21.0999 17.6627 21.0999 18.3741V46.7135C21.0999 47.4249 20.5442 48.0017 19.8586 48.0017C19.173 48.0017 18.6172 47.4249 18.6172 46.7135V18.3741C18.6172 17.6627 19.173 17.0859 19.8586 17.0859Z" fill="black" fill-opacity="0.87"/>
<path fill-rule="evenodd" clip-rule="evenodd" d="M31.2414 23.3828C31.927 23.3828 32.4828 23.9595 32.4828 24.671V45.6631C32.4828 46.3746 31.927 46.9513 31.2414 46.9513C30.5558 46.9513 30 46.3746 30 45.6631V24.671C30 23.9595 30.5558 23.3828 31.2414 23.3828Z" fill="black" fill-opacity="0.87"/>
<path fill-rule="evenodd" clip-rule="evenodd" d="M41.5851 10.8516C42.2707 10.8516 42.8265 11.4283 42.8265 12.1397V19.4151C42.8265 20.1265 42.2707 20.7032 41.5851 20.7032C40.8995 20.7032 40.3438 20.1265 40.3438 19.4151V12.1397C40.3438 11.4283 40.8995 10.8516 41.5851 10.8516Z" fill="black" fill-opacity="0.87"/>
<path fill-rule="evenodd" clip-rule="evenodd" d="M41.5851 26.5312C42.2707 26.5312 42.8265 27.108 42.8265 27.8194V45.6627C42.8265 46.3742 42.2707 46.9509 41.5851 46.9509C40.8995 46.9509 40.3438 46.3742 40.3438 45.6627V27.8194C40.3438 27.108 40.8995 26.5312 41.5851 26.5312Z" fill="black" fill-opacity="0.87"/>
<path fill-rule="evenodd" clip-rule="evenodd" d="M41.5851 21.2812C42.2707 21.2812 42.8265 21.858 42.8265 22.5694V24.6686C42.8265 25.38 42.2707 25.9568 41.5851 25.9568C40.8995 25.9568 40.3438 25.38 40.3438 24.6686V22.5694C40.3438 21.858 40.8995 21.2812 41.5851 21.2812Z" fill="black" fill-opacity="0.87"/>
<path fill-rule="evenodd" clip-rule="evenodd" d="M3.16346 21.6688C3.64277 22.1775 3.63394 22.9931 3.14373 23.4904L2.10925 24.5401C1.61905 25.0374 0.833097 25.0283 0.353785 24.5196C-0.125526 24.0109 -0.116695 23.1953 0.37351 22.698L1.40799 21.6484C1.8982 21.151 2.68415 21.1602 3.16346 21.6688Z" fill="#FFD500"/>
<path fill-rule="evenodd" clip-rule="evenodd" d="M7.2995 17.4735C7.77881 17.9822 7.76998 18.7978 7.27978 19.2951L5.21081 21.3944C4.72061 21.8917 3.93466 21.8826 3.45535 21.3739C2.97604 20.8652 2.98487 20.0496 3.47507 19.5523L5.54404 17.4531C6.03424 16.9557 6.82019 16.9648 7.2995 17.4735Z" fill="#FFD500"/>
<path fill-rule="evenodd" clip-rule="evenodd" d="M16.6125 8.02821C17.0919 8.53688 17.083 9.35245 16.5928 9.84982L9.35144 17.1971C8.86123 17.6944 8.07528 17.6853 7.59597 17.1766C7.11666 16.6679 7.12549 15.8524 7.6157 15.355L14.8571 8.00774C15.3473 7.51037 16.1332 7.51953 16.6125 8.02821Z" fill="#FFD500"/>
<path fill-rule="evenodd" clip-rule="evenodd" d="M14.6719 8.24842C15.0341 7.64438 15.7996 7.45939 16.3817 7.83524L27.7611 15.1825C28.3432 15.5583 28.5214 16.3527 28.1592 16.9567C27.797 17.5608 27.0315 17.7458 26.4494 17.3699L15.0701 10.0227C14.488 9.64682 14.3097 8.85246 14.6719 8.24842Z" fill="#FFD500"/>
<path fill-rule="evenodd" clip-rule="evenodd" d="M38.2508 2.69841C38.7726 3.15988 38.8351 3.97291 38.3904 4.51437L28.0456 17.1097C27.6009 17.6511 26.8174 17.716 26.2956 17.2545C25.7738 16.793 25.7113 15.98 26.156 15.4385L36.5008 2.84324C36.9455 2.30178 37.729 2.23694 38.2508 2.69841Z" fill="#FFD500"/>
<path d="M38.4827 1.28936C38.7686 1.14051 39.1033 1.35967 39.0874 1.68532L38.8932 5.66368C38.8772 5.9916 38.5181 6.1813 38.2481 6.0045L34.9495 3.84466C34.6795 3.66786 34.702 3.25778 34.9899 3.10789L38.4827 1.28936Z" fill="#FFD500"/>
</svg>
