<svg width="37" height="36" viewBox="0 0 37 36" fill="none" xmlns="http://www.w3.org/2000/svg">
<rect x="0.5" width="36" height="36" rx="18" fill="#E7EEFA"/>
<path fill-rule="evenodd" clip-rule="evenodd" d="M11.8337 23.5C11.1893 23.5 10.667 24.0223 10.667 24.6667C10.667 25.311 11.1893 25.8333 11.8337 25.8333H21.0003C21.2765 25.8333 21.5003 26.0572 21.5003 26.3333C21.5003 26.6095 21.2765 26.8333 21.0003 26.8333H11.8337C10.637 26.8333 9.66699 25.8633 9.66699 24.6667C9.66699 23.47 10.637 22.5 11.8337 22.5H21.0003C21.2765 22.5 21.5003 22.7239 21.5003 23C21.5003 23.2761 21.2765 23.5 21.0003 23.5H11.8337Z" fill="#448AFF"/>
<path fill-rule="evenodd" clip-rule="evenodd" d="M13.9167 10.1665C13.2723 10.1665 12.75 10.6888 12.75 11.3332V21.7498C12.75 22.026 12.5261 22.2498 12.25 22.2498C11.9739 22.2498 11.75 22.026 11.75 21.7498V11.3332C11.75 10.1366 12.72 9.1665 13.9167 9.1665H25.1667C26.3633 9.1665 27.3333 10.1366 27.3333 11.3332C27.3333 12.5298 26.3633 13.4998 25.1667 13.4998H24.75C24.4739 13.4998 24.25 13.276 24.25 12.9998C24.25 12.7237 24.4739 12.4998 24.75 12.4998H25.1667C25.811 12.4998 26.3333 11.9775 26.3333 11.3332C26.3333 10.6888 25.811 10.1665 25.1667 10.1665H13.9167Z" fill="#448AFF"/>
<path fill-rule="evenodd" clip-rule="evenodd" d="M24.7507 10.1665C24.1063 10.1665 23.584 10.6888 23.584 11.3332V24.6665C23.584 25.8631 22.6139 26.8332 21.4173 26.8332H21.0007C19.804 26.8332 18.834 25.8631 18.834 24.6665C18.834 23.4699 19.804 22.4998 21.0007 22.4998H21.4173C21.6935 22.4998 21.9173 22.7237 21.9173 22.9998C21.9173 23.276 21.6935 23.4998 21.4173 23.4998H21.0007C20.3563 23.4998 19.834 24.0222 19.834 24.6665C19.834 25.3108 20.3563 25.8332 21.0007 25.8332H21.4173C22.0617 25.8332 22.584 25.3108 22.584 24.6665V11.3332C22.584 10.1366 23.554 9.1665 24.7507 9.1665H25.1673C25.4435 9.1665 25.6673 9.39036 25.6673 9.6665C25.6673 9.94265 25.4435 10.1665 25.1673 10.1665H24.7507Z" fill="#448AFF"/>
<path fill-rule="evenodd" clip-rule="evenodd" d="M13.834 18C13.834 17.7239 14.0578 17.5 14.334 17.5H21.0007C21.2768 17.5 21.5007 17.7239 21.5007 18C21.5007 18.2761 21.2768 18.5 21.0007 18.5H14.334C14.0578 18.5 13.834 18.2761 13.834 18Z" fill="#448AFF"/>
<path fill-rule="evenodd" clip-rule="evenodd" d="M13.834 20.5C13.834 20.2239 14.0578 20 14.334 20H17.6673C17.9435 20 18.1673 20.2239 18.1673 20.5C18.1673 20.7761 17.9435 21 17.6673 21H14.334C14.0578 21 13.834 20.7761 13.834 20.5Z" fill="#448AFF"/>
<path fill-rule="evenodd" clip-rule="evenodd" d="M17.6672 10.833C17.9434 10.833 18.1672 11.0569 18.1672 11.333V11.3655C18.4578 11.4492 18.658 11.6794 18.7733 11.8852C18.9233 12.1529 19.0007 12.4884 19.0007 12.8331C19.0007 13.1093 18.7768 13.3331 18.5007 13.3331C18.2245 13.3331 18.0007 13.1093 18.0007 12.8331C18.0007 12.6278 17.953 12.4669 17.9009 12.3739C17.8908 12.3558 17.8821 12.3426 17.8751 12.3331H17.4122C17.3731 12.4047 17.334 12.5355 17.334 12.7045C17.334 12.9299 17.364 13.0253 17.3799 13.0598C17.3873 13.0761 17.3912 13.084 17.4259 13.1052L18.4308 13.7082C18.5925 13.8084 18.7527 13.9541 18.8603 14.19C18.9598 14.4081 18.9965 14.6654 18.9965 14.9617C18.9965 15.27 18.9278 15.5743 18.7922 15.8191C18.6837 16.0151 18.4788 16.2565 18.1672 16.3183V16.333C18.1672 16.6092 17.9434 16.833 17.6672 16.833C17.3911 16.833 17.1672 16.6092 17.1672 16.333V16.3034C16.8722 16.2212 16.6719 15.9842 16.5597 15.7819C16.4112 15.514 16.334 15.1775 16.334 14.8331C16.334 14.557 16.5578 14.3331 16.834 14.3331C17.1101 14.3331 17.334 14.557 17.334 14.8331C17.334 15.0388 17.3818 15.2023 17.4343 15.2969C17.4428 15.3123 17.4502 15.3241 17.4565 15.3332H17.6543C17.6586 15.3331 17.6629 15.333 17.6672 15.333C17.6715 15.333 17.6758 15.3331 17.6801 15.3332H17.9182C17.9574 15.2616 17.9965 15.1308 17.9965 14.9617C17.9965 14.7366 17.9666 14.6403 17.9504 14.6049C17.9426 14.5877 17.9382 14.5797 17.9064 14.5597L16.9078 13.9605C16.7434 13.8607 16.5806 13.715 16.4714 13.4778C16.3706 13.2588 16.334 13.0007 16.334 12.7045C16.334 12.3963 16.4027 12.092 16.5382 11.8472C16.6472 11.6503 16.8534 11.4077 17.1672 11.3472V11.333C17.1672 11.0569 17.3911 10.833 17.6672 10.833ZM17.8555 12.3117C17.8556 12.3114 17.8574 12.3126 17.8608 12.316C17.8572 12.3136 17.8555 12.3119 17.8555 12.3117ZM17.4784 15.3587C17.4784 15.359 17.4763 15.3576 17.4724 15.3534C17.4766 15.3563 17.4785 15.3584 17.4784 15.3587Z" fill="#448AFF"/>
</svg>
