<svg width="24" height="24" viewBox="0 0 24 24" fill="none" xmlns="http://www.w3.org/2000/svg">
<g clip-path="url(#clip0_458_223662)">
<path d="M10.0553 9.00118C6.55482 8.4987 3.05078 12 5.55527 16.5012" stroke="#138300" stroke-width="1.2" stroke-linecap="round"/>
<path d="M10.0508 12V9" stroke="#138300" stroke-width="1.2" stroke-linecap="round"/>
<path d="M15.5508 6.5L10.0508 12" stroke="#138300" stroke-width="1.2" stroke-linecap="round"/>
<path d="M10.0508 1L15.5508 6.5" stroke="#138300" stroke-width="1.2" stroke-linecap="round"/>
<path d="M10.0508 4V1" stroke="#138300" stroke-width="1.2" stroke-linecap="round"/>
<path d="M5.5569 16.5C3.05231 15.5 0.515625 11 3.05025 7" stroke="#138300" stroke-width="1.2" stroke-linecap="round"/>
<path d="M3.05078 6.99942C4.01562 5.5 6.45078 3.59942 10.0508 3.99942" stroke="#138300" stroke-width="1.2" stroke-linecap="round"/>
<path d="M14.5111 15.4988C18.0116 16.0013 21.5156 12.5 19.0111 7.99883" stroke="#138300" stroke-width="1.2" stroke-linecap="round"/>
<path d="M14.5156 12.5V15.5" stroke="#138300" stroke-width="1.2" stroke-linecap="round"/>
<path d="M9.01562 18L14.5156 12.5" stroke="#138300" stroke-width="1.2" stroke-linecap="round"/>
<path d="M14.5156 23.5L9.01562 18" stroke="#138300" stroke-width="1.2" stroke-linecap="round"/>
<path d="M14.5156 20.5V23.5" stroke="#138300" stroke-width="1.2" stroke-linecap="round"/>
<path d="M19.0095 8C21.5141 9 24.0508 13.5 21.5162 17.5" stroke="#138300" stroke-width="1.2" stroke-linecap="round"/>
<path d="M21.5156 17.5006C20.5508 19 18.1156 20.9006 14.5156 20.5006" stroke="#138300" stroke-width="1.2" stroke-linecap="round"/>
</g>
<defs>
<clipPath id="clip0_458_223662">
<rect width="24" height="24" fill="white"/>
</clipPath>
</defs>
</svg>
