<svg width="40" height="40" viewBox="0 0 40 40" fill="none" xmlns="http://www.w3.org/2000/svg">
<g filter="url(#filter0_dd_6345_99276)">
<rect x="6" y="4" width="28" height="28" rx="4" fill="#DEDEDE" shape-rendering="crispEdges"/>
<path fill-rule="evenodd" clip-rule="evenodd" d="M20.4544 20.1678C20.6379 19.9614 20.9539 19.9428 21.1603 20.1263L24.5781 23.1644L27.9959 20.1263C28.2023 19.9428 28.5184 19.9614 28.7018 20.1678C28.8853 20.3742 28.8667 20.6903 28.6603 20.8737L24.9103 24.207C24.7209 24.3754 24.4354 24.3754 24.2459 24.207L20.4959 20.8737C20.2896 20.6903 20.271 20.3742 20.4544 20.1678Z" fill="black"/>
<path fill-rule="evenodd" clip-rule="evenodd" d="M24.5781 14.1641C24.8543 14.1641 25.0781 14.3879 25.0781 14.6641V23.4141C25.0781 23.6902 24.8543 23.9141 24.5781 23.9141C24.302 23.9141 24.0781 23.6902 24.0781 23.4141V14.6641C24.0781 14.3879 24.302 14.1641 24.5781 14.1641Z" fill="black"/>
<path fill-rule="evenodd" clip-rule="evenodd" d="M11.1641 17.1641C11.1641 16.8879 11.3879 16.6641 11.6641 16.6641H18.4823C18.7584 16.6641 18.9823 16.8879 18.9823 17.1641C18.9823 17.4402 18.7584 17.6641 18.4823 17.6641H11.6641C11.3879 17.6641 11.1641 17.4402 11.1641 17.1641Z" fill="black"/>
<path fill-rule="evenodd" clip-rule="evenodd" d="M11.1641 12.1641C11.1641 11.8879 11.3879 11.6641 11.6641 11.6641H24.5429C24.819 11.6641 25.0429 11.8879 25.0429 12.1641C25.0429 12.4402 24.819 12.6641 24.5429 12.6641H11.6641C11.3879 12.6641 11.1641 12.4402 11.1641 12.1641Z" fill="black"/>
<path fill-rule="evenodd" clip-rule="evenodd" d="M11.1641 22.1641C11.1641 21.8879 11.3879 21.6641 11.6641 21.6641H16.9671C17.2433 21.6641 17.4671 21.8879 17.4671 22.1641C17.4671 22.4402 17.2433 22.6641 16.9671 22.6641H11.6641C11.3879 22.6641 11.1641 22.4402 11.1641 22.1641Z" fill="black"/>
</g>
<defs>
<filter id="filter0_dd_6345_99276" x="0" y="0" width="40" height="40" filterUnits="userSpaceOnUse" color-interpolation-filters="sRGB">
<feFlood flood-opacity="0" result="BackgroundImageFix"/>
<feColorMatrix in="SourceAlpha" type="matrix" values="0 0 0 0 0 0 0 0 0 0 0 0 0 0 0 0 0 0 127 0" result="hardAlpha"/>
<feOffset dy="1"/>
<feGaussianBlur stdDeviation="1.5"/>
<feComposite in2="hardAlpha" operator="out"/>
<feColorMatrix type="matrix" values="0 0 0 0 0 0 0 0 0 0 0 0 0 0 0 0 0 0 0.15 0"/>
<feBlend mode="normal" in2="BackgroundImageFix" result="effect1_dropShadow_6345_99276"/>
<feColorMatrix in="SourceAlpha" type="matrix" values="0 0 0 0 0 0 0 0 0 0 0 0 0 0 0 0 0 0 127 0" result="hardAlpha"/>
<feOffset dy="2"/>
<feGaussianBlur stdDeviation="3"/>
<feComposite in2="hardAlpha" operator="out"/>
<feColorMatrix type="matrix" values="0 0 0 0 0 0 0 0 0 0 0 0 0 0 0 0 0 0 0.05 0"/>
<feBlend mode="normal" in2="effect1_dropShadow_6345_99276" result="effect2_dropShadow_6345_99276"/>
<feBlend mode="normal" in="SourceGraphic" in2="effect2_dropShadow_6345_99276" result="shape"/>
</filter>
</defs>
</svg>
