<svg width="34" height="34" viewBox="0 0 34 34" fill="none" xmlns="http://www.w3.org/2000/svg">
<rect width="34" height="34" rx="17" fill="#FFE4C1"/>
<path fill-rule="evenodd" clip-rule="evenodd" d="M22.0004 17.0999C21.2272 17.0999 20.6004 17.7267 20.6004 18.4999C20.6004 19.2731 21.2272 19.8999 22.0004 19.8999C22.7736 19.8999 23.4004 19.2731 23.4004 18.4999C23.4004 17.7267 22.7736 17.0999 22.0004 17.0999ZM19.4004 18.4999C19.4004 17.064 20.5645 15.8999 22.0004 15.8999C23.4363 15.8999 24.6004 17.064 24.6004 18.4999C24.6004 19.9358 23.4363 21.0999 22.0004 21.0999C20.5645 21.0999 19.4004 19.9358 19.4004 18.4999Z" fill="#D27800"/>
<path fill-rule="evenodd" clip-rule="evenodd" d="M18.9084 21.0253C19.4933 20.7921 20.0102 21.1405 20.2282 21.3029C20.2449 21.3153 20.2609 21.3286 20.2762 21.3427C20.4752 21.526 20.8579 21.658 21.2872 21.7316C21.4861 21.7657 21.6682 21.783 21.8005 21.7916C21.8663 21.7959 21.9188 21.798 21.9537 21.799C21.9711 21.7995 21.9841 21.7998 21.9921 21.7999L22.0002 21.8L22.0069 21.7999C22.014 21.7998 22.0257 21.7996 22.0417 21.7991C22.0736 21.7981 22.1221 21.796 22.1836 21.7918C22.3073 21.7833 22.4797 21.7661 22.6725 21.7321C23.0772 21.6607 23.4897 21.5285 23.7564 21.3153C23.7617 21.3111 23.7671 21.3069 23.7726 21.3029C23.9905 21.1405 24.5074 20.7921 25.0924 21.0253C25.6529 21.2488 26.0846 21.7347 26.3352 22.2808C26.5892 22.8344 26.6862 23.5094 26.5127 24.1727C26.1443 25.5808 24.6927 26.6 22.0004 26.6C19.308 26.6 17.8564 25.5808 17.488 24.1727C17.3145 23.5093 17.4116 22.8344 17.6656 22.2808C17.9162 21.7347 18.3479 21.2488 18.9084 21.0253ZM22.0001 23L21.9973 23L21.9921 23L21.9755 22.9998C21.9617 22.9996 21.9426 22.9992 21.9188 22.9985C21.8711 22.9971 21.8041 22.9944 21.7224 22.9891C21.5598 22.9785 21.3346 22.9573 21.0844 22.9144C20.6246 22.8355 19.9589 22.6647 19.4904 22.2498C19.4567 22.2256 19.4258 22.2053 19.3974 22.1889C19.3644 22.1698 19.3396 22.1588 19.3226 22.1529C19.1234 22.244 18.9045 22.4583 18.7562 22.7813C18.6038 23.1134 18.5536 23.5045 18.649 23.869C18.8184 24.5166 19.5692 25.4 22.0004 25.4C24.4315 25.4 25.1823 24.5166 25.3518 23.869C25.4471 23.5045 25.3969 23.1134 25.2445 22.7813C25.0963 22.4583 24.8774 22.244 24.6781 22.1529C24.6612 22.1588 24.6364 22.1698 24.6034 22.1889C24.5711 22.2075 24.5356 22.2312 24.4965 22.26C23.9939 22.6576 23.3461 22.8318 22.881 22.9139C22.6374 22.9568 22.4217 22.9782 22.2662 22.9889C22.1881 22.9943 22.1244 22.9971 22.0789 22.9985C22.0562 22.9992 22.038 22.9996 22.0247 22.9998L22.0086 23L22.0035 23L22.0017 23L22.0001 23Z" fill="#D27800"/>
<path fill-rule="evenodd" clip-rule="evenodd" d="M16.0004 8.5999C11.9135 8.5999 8.60039 11.913 8.60039 15.9999C8.60039 20.0868 11.9135 23.3999 16.0004 23.3999C16.156 23.3999 16.3104 23.3951 16.4635 23.3857C16.7942 23.3653 17.0789 23.6169 17.0993 23.9476C17.1196 24.2783 16.8681 24.563 16.5373 24.5834C16.3597 24.5943 16.1806 24.5999 16.0004 24.5999C11.2507 24.5999 7.40039 20.7496 7.40039 15.9999C7.40039 11.2503 11.2507 7.3999 16.0004 7.3999C20.3864 7.3999 24.0048 10.6828 24.5339 14.9257C24.5749 15.2545 24.3416 15.5543 24.0127 15.5953C23.6839 15.6363 23.3841 15.403 23.3431 15.0741C22.888 11.4244 19.7736 8.5999 16.0004 8.5999Z" fill="#D27800"/>
<path fill-rule="evenodd" clip-rule="evenodd" d="M16.0004 11.8999C16.3318 11.8999 16.6004 12.1685 16.6004 12.4999V12.6199C16.7542 12.6475 16.9007 12.7027 17.0352 12.7807C17.2323 12.8951 17.3968 13.0539 17.5265 13.2355C17.6563 13.4172 17.7529 13.6236 17.8169 13.8399C17.881 14.0564 17.9129 14.2846 17.9129 14.5124C17.9129 14.8437 17.6443 15.1124 17.3129 15.1124C16.9815 15.1124 16.7129 14.8437 16.7129 14.5124C16.7129 14.3954 16.6963 14.2822 16.6662 14.1803C16.6359 14.0781 16.5944 13.9951 16.5501 13.933C16.5057 13.8709 16.4635 13.8364 16.4332 13.8188C16.4044 13.8021 16.3856 13.7998 16.3754 13.7998H16.0089C16.0061 13.7999 16.0032 13.7999 16.0004 13.7999C15.9975 13.7999 15.9947 13.7999 15.9919 13.7998H15.5316C15.5197 13.7998 15.4477 13.806 15.357 13.933C15.2644 14.0626 15.1941 14.2698 15.1941 14.5124C15.1941 14.7549 15.2644 14.9621 15.357 15.0917C15.4477 15.2187 15.5197 15.2249 15.5316 15.2249H16.5629C17.0483 15.2249 17.4531 15.4953 17.714 15.8606C17.9731 16.2233 18.1004 16.6838 18.1004 17.1374C18.1004 17.591 17.9731 18.0515 17.714 18.4142C17.4599 18.77 17.0691 19.0358 16.6004 19.0494V19.4999C16.6004 19.8313 16.3318 20.0999 16.0004 20.0999C15.669 20.0999 15.4004 19.8313 15.4004 19.4999V19.0494C14.9317 19.0358 14.5409 18.77 14.2867 18.4142C14.0277 18.0515 13.9004 17.591 13.9004 17.1374C13.9004 16.806 14.169 16.5374 14.5004 16.5374C14.8318 16.5374 15.1004 16.806 15.1004 17.1374C15.1004 17.38 15.1707 17.5872 15.2632 17.7167C15.354 17.8438 15.426 17.8499 15.4379 17.8499H16.5629C16.5748 17.8499 16.6468 17.8438 16.7376 17.7167C16.8301 17.5872 16.9004 17.38 16.9004 17.1374C16.9004 16.8948 16.8301 16.6876 16.7376 16.558C16.6468 16.431 16.5748 16.4249 16.5629 16.4249H15.5316C15.0463 16.4249 14.6414 16.1544 14.3805 15.7892C14.1214 15.4265 13.9941 14.966 13.9941 14.5124C13.9941 14.0587 14.1214 13.5983 14.3805 13.2355C14.6175 12.9037 14.9733 12.6502 15.4004 12.6065V12.4999C15.4004 12.1685 15.669 11.8999 16.0004 11.8999Z" fill="#D27800"/>
</svg>
