<svg width="34" height="34" viewBox="0 0 34 34" fill="none" xmlns="http://www.w3.org/2000/svg">
<rect width="34" height="34" rx="17" fill="#E7FFEC"/>
<path fill-rule="evenodd" clip-rule="evenodd" d="M11.5899 8.57732C10.9753 9.18192 10.6004 10.0657 10.6004 11.1806V13.9054C10.6004 14.2368 10.3318 14.5054 10.0004 14.5054C9.66902 14.5054 9.40039 14.2368 9.40039 13.9054V11.1806C9.40039 9.78703 9.8755 8.58049 10.7484 7.72185C11.6204 6.86407 12.842 6.3999 14.2504 6.3999H22.7504C24.1588 6.3999 25.3804 6.86407 26.2524 7.72185C27.1253 8.58049 27.6004 9.78703 27.6004 11.1806V16.1973C27.6004 17.5815 27.133 18.7973 26.2512 19.6549C25.5071 20.3952 24.5003 20.8363 23.3504 20.9491V22.1585C23.3504 23.3135 22.0504 23.9921 21.0973 23.356C20.8217 23.172 20.7474 22.7994 20.9313 22.5238C21.1153 22.2482 21.4879 22.1739 21.7635 22.3579C21.9304 22.4693 22.1504 22.3413 22.1504 22.1585V20.378C22.1504 20.0466 22.419 19.778 22.7504 19.778C23.8899 19.778 24.7978 19.4093 25.4068 18.8022L25.4125 18.7965L25.4125 18.7966C26.0288 18.1984 26.4004 17.3102 26.4004 16.1973V11.1806C26.4004 10.0657 26.0255 9.18192 25.4109 8.57732C24.7954 7.97187 23.892 7.5999 22.7504 7.5999H14.2504C13.1088 7.5999 12.2054 7.97187 11.5899 8.57732Z" fill="#2F9300"/>
<path fill-rule="evenodd" clip-rule="evenodd" d="M10.1405 14.6179C9.33436 14.692 8.70856 15.0051 8.28453 15.467C7.86006 15.9293 7.60039 16.5813 7.60039 17.4V21.4701C7.60039 22.3476 7.89836 23.0357 8.38667 23.5097C8.86534 23.9743 9.58255 24.2702 10.503 24.2702C10.8343 24.2702 11.103 24.5388 11.103 24.8702V26.3203C11.103 26.3377 11.1071 26.3479 11.1124 26.3561C11.1189 26.3663 11.1306 26.3783 11.1483 26.3875C11.1658 26.3967 11.1839 26.4004 11.1995 26.3999C11.2129 26.3994 11.2297 26.3958 11.2511 26.3815L11.259 26.3763L11.259 26.3763L14.3702 24.3662C14.4672 24.3036 14.5802 24.2702 14.6958 24.2702H17.4978C18.9939 24.2702 19.9824 23.4992 20.2857 22.3295C20.2875 22.3224 20.2895 22.3153 20.2916 22.3082C20.3641 22.0659 20.4004 21.7858 20.4004 21.4701V17.4C20.4004 16.5218 20.1019 15.834 19.6193 15.3655C19.135 14.8953 18.4175 14.5999 17.4978 14.5999H10.503C10.3859 14.5999 10.2748 14.6079 10.1405 14.6179ZM10.0542 13.421C10.1838 13.4113 10.3365 13.3999 10.503 13.3999H17.4978C18.6797 13.3999 19.7135 13.7845 20.4551 14.5044C21.1983 15.2259 21.6004 16.2382 21.6004 17.4V21.4701C21.6004 21.8706 21.5552 22.2668 21.4445 22.6413C20.9821 24.4054 19.4592 25.4702 17.4978 25.4702H14.8727L11.9136 27.382C11.0636 27.9457 9.90296 27.3522 9.90296 26.3203V25.4359C8.97237 25.3271 8.16007 24.9621 7.55083 24.3707C6.80294 23.6447 6.40039 22.6327 6.40039 21.4701V17.4C6.40039 16.3187 6.74852 15.3656 7.40058 14.6554C8.05227 13.9456 8.97016 13.5191 10.0367 13.4224L10.0462 13.4215L10.0462 13.4216L10.0542 13.421Z" fill="#2F9300"/>
</svg>
