<svg width="16" height="16" viewBox="0 0 16 16" fill="none" xmlns="http://www.w3.org/2000/svg">
<path fill-rule="evenodd" clip-rule="evenodd" d="M0.0528951 0.291648C0.176388 0.0311301 0.47672 -0.0744658 0.723705 0.0557934L15.7235 7.96661C15.9705 8.09687 16.0706 8.41366 15.9471 8.67417C15.8236 8.93469 15.5233 9.04029 15.2763 8.91003L0.276498 0.999213C0.029513 0.868954 -0.0705976 0.552167 0.0528951 0.291648Z" fill="black" fill-opacity="0.6"/>
<path fill-rule="evenodd" clip-rule="evenodd" d="M0.209417 0.0982757C0.434119 -0.0710206 0.74639 -0.0161239 0.906892 0.220891C1.60707 1.25485 2.6571 2.89386 3.53433 4.45575C3.97254 5.23598 4.37285 6.00618 4.6652 6.67701C4.81135 7.01236 4.93402 7.33079 5.02095 7.61854C5.10578 7.89932 5.16663 8.18284 5.16663 8.43825C5.16663 8.72952 4.94277 8.96564 4.66663 8.96564C4.3905 8.96564 4.16664 8.72952 4.16664 8.43825C4.16664 8.34206 4.14068 8.17877 4.06818 7.9388C3.99778 7.7058 3.89259 7.42955 3.75662 7.11756C3.48475 6.49373 3.10382 5.75867 2.67399 4.99336C1.81513 3.46417 0.781862 1.85096 0.0931707 0.833967C-0.0673314 0.596952 -0.0152863 0.267572 0.209417 0.0982757Z" fill="black" fill-opacity="0.6"/>
<path fill-rule="evenodd" clip-rule="evenodd" d="M0.0432183 15.6867C0.155369 15.9528 0.450845 16.0727 0.703183 15.9544L15.7029 8.92258C15.9553 8.80428 16.0689 8.49261 15.9568 8.22645C15.8446 7.96029 15.5492 7.84041 15.2968 7.95871L0.297051 14.9905C0.0447128 15.1088 -0.068932 15.4205 0.0432183 15.6867Z" fill="black" fill-opacity="0.6"/>
<path fill-rule="evenodd" clip-rule="evenodd" d="M0.186819 15.8837C0.402071 16.0661 0.716788 16.03 0.889758 15.8029C1.59054 14.8831 2.64167 13.4247 3.52019 12.0343C3.95894 11.3399 4.36084 10.6527 4.65501 10.0528C4.80203 9.7529 4.92648 9.46606 5.0152 9.20503C5.10119 8.95205 5.1666 8.68652 5.1666 8.44075C5.1666 8.14949 4.94275 7.91337 4.66661 7.91337C4.39047 7.91337 4.16662 8.14949 4.16662 8.44075C4.16662 8.50751 4.14523 8.63915 4.07388 8.84906C4.00527 9.05092 3.90187 9.29269 3.76677 9.56824C3.49671 10.1191 3.11738 10.7699 2.68808 11.4493C1.83052 12.8066 0.798344 14.239 0.110262 15.1422C-0.0627089 15.3693 -0.0284328 15.7012 0.186819 15.8837Z" fill="black" fill-opacity="0.6"/>
</svg>
