<svg width="16" height="16" viewBox="0 0 16 16" fill="none" xmlns="http://www.w3.org/2000/svg">
<g id="Group 11750">
<path id="Vector 1962 (Stroke)" fill-rule="evenodd" clip-rule="evenodd" d="M4.39988 1.03439C4.55817 0.893681 4.79871 0.900749 4.94847 1.05051L8.61513 4.71717C8.77134 4.87338 8.77134 5.12665 8.61513 5.28286C8.45892 5.43907 8.20566 5.43907 8.04945 5.28286L4.64948 1.88289L2.23897 4.02556L7.02586 9.11164L9.40222 7.03232C9.56848 6.88685 9.82118 6.90369 9.96666 7.06995C10.1121 7.2362 10.0953 7.48891 9.92903 7.63438L7.26236 9.96771C7.10035 10.1095 6.85522 10.0976 6.70768 9.94083L1.37435 4.27416C1.30028 4.19547 1.26121 4.09017 1.26602 3.98221C1.27083 3.87426 1.31911 3.77285 1.39988 3.70105L4.39988 1.03439Z" fill="#333333"/>
<path id="Vector 1959 (Stroke)" fill-rule="evenodd" clip-rule="evenodd" d="M13.4235 9.78539C13.6399 9.94567 13.7581 10.1985 13.7276 10.4771C13.6988 10.7394 13.5456 10.9727 13.3341 11.1594C12.4554 11.935 11.3889 12.7728 10.3704 13.4644C9.36465 14.1474 8.36334 14.7175 7.62584 14.9184C6.33453 15.2702 4.91357 14.9233 3.6567 14.6085L2.66572 14.6087C2.55962 14.6087 2.45785 14.5666 2.38282 14.4916C2.30778 14.4166 2.26562 14.3148 2.26562 14.2087V10.9712C2.26562 10.7937 2.38251 10.6375 2.55273 10.5874L3.5931 10.2813C4.14577 10.1188 4.67848 10.0383 5.22353 10.09C5.76324 10.1411 6.29176 10.3194 6.84571 10.6418C7.09266 10.7423 7.50939 10.7534 7.93091 10.7162C8.13432 10.6983 8.31844 10.6712 8.45184 10.6485C8.51831 10.6373 8.57162 10.6272 8.60777 10.62C8.62583 10.6164 8.63957 10.6136 8.64848 10.6117L8.65814 10.6097L8.66013 10.6093L8.66601 10.608C9.10061 10.5188 9.49448 10.6042 9.76079 10.8361C9.81301 10.8816 9.85997 10.9333 9.90021 10.9896L11.8294 9.90097C12.4042 9.56383 13.0204 9.48682 13.4235 9.78539ZM9.88976 11.9141C9.7861 12.0478 9.64247 12.1531 9.48464 12.2363C9.28081 12.3437 9.02136 12.4313 8.70682 12.4981C8.07767 12.6315 7.17973 12.6914 5.95001 12.6235C5.72943 12.6114 5.56048 12.4227 5.57265 12.2021C5.58482 11.9815 5.7735 11.8126 5.99407 11.8248C7.18443 11.8904 8.00562 11.829 8.54079 11.7155C8.80841 11.6587 8.99241 11.5914 9.11159 11.5286C9.18047 11.4922 9.21908 11.4621 9.23947 11.443C9.2382 11.4419 9.23684 11.4406 9.23537 11.4394C9.19856 11.4073 9.07691 11.3409 8.82888 11.3913L8.8266 11.3918L8.81277 11.3947C8.80102 11.3972 8.78428 11.4006 8.76306 11.4048C8.72063 11.4132 8.66015 11.4246 8.58574 11.4373C8.43738 11.4624 8.23135 11.4928 8.00127 11.5131C7.56658 11.5515 6.95345 11.5641 6.50412 11.3658C6.48994 11.3596 6.47614 11.3525 6.46278 11.3447C5.98465 11.0633 5.56062 10.9255 5.14809 10.8864C4.73352 10.8471 4.3066 10.9053 3.81889 11.0488C3.81889 11.0488 3.81889 11.0488 3.81889 11.0488L3.06563 11.2704V13.8086L3.7059 13.8085C3.73871 13.8084 3.7714 13.8125 3.80323 13.8205C5.12056 14.1506 6.34649 14.4378 7.41556 14.1465C8.01368 13.9836 8.91972 13.4825 9.92094 12.8026C10.9094 12.1314 11.9493 11.3147 12.8046 10.5597C12.8784 10.4946 12.9098 10.4449 12.923 10.4165C12.8952 10.4064 12.8424 10.3949 12.7562 10.4021C12.63 10.4127 12.4512 10.4633 12.2318 10.5924L12.2256 10.596L9.88976 11.9141ZM9.2545 11.4605C9.25432 11.4605 9.25362 11.4595 9.25295 11.4575C9.25435 11.4595 9.25468 11.4605 9.2545 11.4605Z" fill="#333333"/>
<path id="Vector 1960 (Stroke)" fill-rule="evenodd" clip-rule="evenodd" d="M0.933594 10.6476C0.933594 10.4266 1.11268 10.2476 1.33359 10.2476H2.66693C2.88784 10.2476 3.06693 10.4266 3.06693 10.6476V14.5326C3.06693 14.7535 2.88784 14.9326 2.66693 14.9326H1.33359C1.11268 14.9326 0.933594 14.7535 0.933594 14.5326V10.6476ZM1.73359 11.0476V14.1326H2.26693V11.0476H1.73359Z" fill="#333333"/>
<path id="Vector 1961 (Stroke)" fill-rule="evenodd" clip-rule="evenodd" d="M8.02259 2.29244C8.66633 2.19035 9.38998 2.22916 10.1047 2.41619C10.3477 2.47977 10.5791 2.54231 10.8013 2.60235C11.2005 2.71019 11.5697 2.80994 11.9218 2.8931C12.4661 3.02171 12.9295 3.10027 13.3324 3.10027C13.5533 3.10027 13.7324 3.27936 13.7324 3.50027V6.28774C13.7324 6.43162 13.6551 6.56441 13.53 6.6355C13.4527 6.67943 13.3678 6.72858 13.2773 6.78095C12.9923 6.94584 12.652 7.14274 12.3205 7.3097C12.1001 7.42072 11.8731 7.52405 11.6565 7.60031C11.445 7.67478 11.2171 7.73308 11.0022 7.73312C10.4342 7.7332 9.90083 7.58502 9.47193 7.42844C9.25624 7.34969 9.06196 7.26688 8.90104 7.19721C8.88138 7.1887 8.86246 7.18049 8.84422 7.17258C8.70578 7.11253 8.60744 7.06988 8.53404 7.04427C8.20424 6.9292 7.70712 6.76348 7.29036 6.62587C7.08242 6.55721 6.89526 6.4958 6.76007 6.45155L6.56375 6.3874C6.13401 6.29937 5.80745 6.17464 5.58594 6.00734C5.34973 5.82895 5.18974 5.55889 5.26138 5.24592C5.32366 4.97388 5.53608 4.79809 5.7221 4.70606C5.9138 4.61121 6.1517 4.56514 6.38753 4.60356L6.40823 4.60577C6.42958 4.60802 6.4613 4.6113 6.50208 4.61534C6.58367 4.62342 6.70143 4.63454 6.845 4.64654C7.13257 4.67057 7.52162 4.698 7.92997 4.71191C8.34015 4.72589 8.76077 4.72589 9.11439 4.69714C9.29128 4.68276 9.44349 4.66178 9.56518 4.63438C9.693 4.60559 9.75914 4.57573 9.78426 4.55928C9.96907 4.43824 10.217 4.48994 10.338 4.67475C10.4591 4.85955 10.4074 5.10749 10.2226 5.22852C10.08 5.32191 9.90561 5.37775 9.74095 5.41483C9.57016 5.45329 9.37792 5.47836 9.17921 5.49451C8.78162 5.52683 8.32643 5.52588 7.90272 5.51145C7.47718 5.49695 7.07427 5.46849 6.77836 5.44376C6.63018 5.43137 6.50831 5.41987 6.42322 5.41144C6.38066 5.40723 6.34726 5.40378 6.32434 5.40136L6.29796 5.39854L6.29096 5.39778L6.28835 5.39749C6.2883 5.39749 6.28825 5.39748 6.33243 4.99993L6.28835 5.39749C6.27962 5.39652 6.27081 5.39525 6.26216 5.39371C6.22006 5.38619 6.16965 5.39036 6.12274 5.40488C6.22789 5.46619 6.41957 5.54278 6.74419 5.60771C6.75953 5.61077 6.77468 5.61474 6.78956 5.61958L7.00894 5.69124C7.1446 5.73565 7.33245 5.79728 7.5412 5.86621C7.95781 6.00378 8.46073 6.1714 8.79759 6.28893C8.9012 6.32509 9.03068 6.38133 9.1619 6.43833C9.1809 6.44658 9.19992 6.45485 9.21891 6.46307C9.37716 6.53159 9.55368 6.60664 9.74628 6.67695C10.134 6.81848 10.5671 6.93318 11.002 6.93312C11.0849 6.9331 11.2138 6.90807 11.3909 6.84572C11.5629 6.78516 11.7562 6.69819 11.9606 6.59522C12.2693 6.43976 12.5793 6.26042 12.8607 6.09765C12.8848 6.08369 12.9087 6.06986 12.9324 6.05616V3.88145C12.5519 3.84732 12.1522 3.76956 11.7378 3.67167C11.3745 3.58583 10.9831 3.48014 10.5744 3.36977C10.3548 3.31045 10.1301 3.24979 9.90215 3.19013C9.28526 3.02869 8.67342 2.99922 8.14789 3.08256C7.61802 3.16659 7.2045 3.36002 6.94852 3.61589C6.79227 3.77206 6.53901 3.772 6.38283 3.61575C6.22666 3.45951 6.22672 3.20624 6.38297 3.05007C6.79368 2.63955 7.38319 2.39384 8.02259 2.29244Z" fill="#333333"/>
<path id="Vector 1963 (Stroke)" fill-rule="evenodd" clip-rule="evenodd" d="M12.9336 3.0001C12.9336 2.77918 13.1127 2.6001 13.3336 2.6001H14.6669C14.8878 2.6001 15.0669 2.77918 15.0669 3.0001V7.0001C15.0669 7.22101 14.8878 7.4001 14.6669 7.4001H13.3336C13.1127 7.4001 12.9336 7.22101 12.9336 7.0001V3.0001ZM13.7336 3.4001V6.6001H14.2669V3.4001H13.7336Z" fill="#333333"/>
<path id="Vector (Stroke)" fill-rule="evenodd" clip-rule="evenodd" d="M6.57244 4.12078C6.66554 4.21388 6.67922 4.35115 6.60299 4.42737L6.55059 4.47977C6.58799 4.53025 6.6165 4.58515 6.63606 4.64182C6.66453 4.72434 6.67314 4.80771 6.6668 4.8863C6.66046 4.96494 6.63911 5.03995 6.60646 5.10812C6.57376 5.1764 6.52945 5.23844 6.47636 5.29153C6.40014 5.36775 6.26287 5.35407 6.16977 5.26097C6.07667 5.16787 6.06298 5.0306 6.13921 4.95437C6.16745 4.92613 6.19005 4.89401 6.20601 4.86069C6.22202 4.82725 6.23014 4.79518 6.23238 4.7674C6.23462 4.73956 6.23078 4.71924 6.22646 4.70673C6.2224 4.69496 6.218 4.68991 6.21601 4.68792L6.1147 4.58661C6.11333 4.58529 6.11197 4.58396 6.11061 4.5826C6.10926 4.58125 6.10792 4.57989 6.1066 4.57852L5.97895 4.45086C5.97752 4.44943 5.95673 4.42988 5.89948 4.4345C5.84142 4.43918 5.77108 4.46908 5.7125 4.52767C5.65392 4.58625 5.62402 4.65658 5.61934 4.71464C5.61472 4.77189 5.63427 4.79268 5.6357 4.79411L5.92544 5.08385C6.06373 5.22214 6.11292 5.40059 6.10019 5.55827C6.08753 5.71515 6.01542 5.85783 5.90975 5.96349C5.80409 6.06916 5.66141 6.14127 5.50453 6.15393C5.35087 6.16633 5.17749 6.11994 5.04078 5.98959L4.99276 6.0376C4.91654 6.11383 4.77927 6.10015 4.68617 6.00705C4.59307 5.91394 4.57939 5.77668 4.65561 5.70045L4.70362 5.65244C4.57328 5.51572 4.52688 5.34235 4.53928 5.18868C4.55194 5.03181 4.62406 4.88913 4.72972 4.78346C4.80595 4.70724 4.94322 4.72092 5.03632 4.81402C5.12942 4.90712 5.1431 5.04439 5.06687 5.12061C5.00829 5.17919 4.97839 5.24953 4.97371 5.30759C4.96909 5.36484 4.98864 5.38563 4.99007 5.38706L5.30615 5.70314C5.30758 5.70457 5.32838 5.72413 5.38563 5.71951C5.44368 5.71482 5.51402 5.68492 5.5726 5.62634C5.63118 5.56776 5.66108 5.49742 5.66577 5.43937C5.67039 5.38212 5.65083 5.36132 5.6494 5.35989L5.35966 5.07015C5.22138 4.93187 5.17219 4.75342 5.18491 4.59574C5.19757 4.43886 5.26969 4.29618 5.37535 4.19051C5.48102 4.08485 5.6237 4.01273 5.78057 4.00007C5.92401 3.9885 6.08462 4.02816 6.21656 4.1395L6.26584 4.09022C6.34207 4.014 6.47934 4.02768 6.57244 4.12078Z" fill="#333333"/>
</g>
</svg>
