<svg width="20" height="20" viewBox="0 0 20 20" fill="none" xmlns="http://www.w3.org/2000/svg">
<path d="M5.55523 4.27067C5.55523 3.98302 5.80396 3.74984 6.11079 3.74984H7.2219C7.52872 3.74984 7.77745 3.98302 7.77745 4.27067V5.31234C7.77745 5.59999 7.52872 5.83317 7.2219 5.83317H6.11079C5.80396 5.83317 5.55523 5.59999 5.55523 5.31234V4.27067Z" fill="#707070"/>
<path d="M8.88856 4.27067C8.88856 3.98302 9.13729 3.74984 9.44412 3.74984H10.5552C10.8621 3.74984 11.1108 3.98302 11.1108 4.27067V5.31234C11.1108 5.59999 10.8621 5.83317 10.5552 5.83317H9.44412C9.13729 5.83317 8.88856 5.59999 8.88856 5.31234V4.27067Z" fill="#707070"/>
<path d="M12.7775 3.74984C12.4706 3.74984 12.2219 3.98302 12.2219 4.27067V5.31234C12.2219 5.59999 12.4706 5.83317 12.7775 5.83317H13.8886C14.1954 5.83317 14.4441 5.59999 14.4441 5.31234V4.27067C14.4441 3.98302 14.1954 3.74984 13.8886 3.74984H12.7775Z" fill="#707070"/>
<path d="M5.55523 7.39567C5.55523 7.10802 5.80396 6.87484 6.11079 6.87484H7.2219C7.52872 6.87484 7.77745 7.10802 7.77745 7.39567V8.43734C7.77745 8.72499 7.52872 8.95817 7.2219 8.95817H6.11079C5.80396 8.95817 5.55523 8.72499 5.55523 8.43734V7.39567Z" fill="#707070"/>
<path d="M9.44412 6.87484C9.13729 6.87484 8.88856 7.10802 8.88856 7.39567V8.43734C8.88856 8.72499 9.13729 8.95817 9.44412 8.95817H10.5552C10.8621 8.95817 11.1108 8.72499 11.1108 8.43734V7.39567C11.1108 7.10802 10.8621 6.87484 10.5552 6.87484H9.44412Z" fill="#707070"/>
<path d="M12.2219 7.39567C12.2219 7.10802 12.4706 6.87484 12.7775 6.87484H13.8886C14.1954 6.87484 14.4441 7.10802 14.4441 7.39567V8.43734C14.4441 8.72499 14.1954 8.95817 13.8886 8.95817H12.7775C12.4706 8.95817 12.2219 8.72499 12.2219 8.43734V7.39567Z" fill="#707070"/>
<path d="M6.11079 9.99984C5.80396 9.99984 5.55523 10.233 5.55523 10.5207V11.5623C5.55523 11.85 5.80396 12.0832 6.11079 12.0832H7.2219C7.52872 12.0832 7.77745 11.85 7.77745 11.5623V10.5207C7.77745 10.233 7.52872 9.99984 7.2219 9.99984H6.11079Z" fill="#707070"/>
<path d="M8.88856 10.5207C8.88856 10.233 9.13729 9.99984 9.44412 9.99984H10.5552C10.8621 9.99984 11.1108 10.233 11.1108 10.5207V11.5623C11.1108 11.85 10.8621 12.0832 10.5552 12.0832H9.44412C9.13729 12.0832 8.88856 11.85 8.88856 11.5623V10.5207Z" fill="#707070"/>
<path d="M12.7775 9.99984C12.4706 9.99984 12.2219 10.233 12.2219 10.5207V11.5623C12.2219 11.85 12.4706 12.0832 12.7775 12.0832H13.8886C14.1954 12.0832 14.4441 11.85 14.4441 11.5623V10.5207C14.4441 10.233 14.1954 9.99984 13.8886 9.99984H12.7775Z" fill="#707070"/>
<path d="M3.33301 2.70817C3.33301 2.13288 3.83047 1.6665 4.44412 1.6665H15.5552C16.1689 1.6665 16.6663 2.13287 16.6663 2.70817V17.2915C16.6663 17.8668 16.1689 18.3332 15.5552 18.3332H4.44412C3.83047 18.3332 3.33301 17.8668 3.33301 17.2915V2.70817ZM15.5552 2.70817L4.44412 2.70817V17.2915H7.77745V14.6873C7.77745 14.3997 8.02618 14.1665 8.33301 14.1665H11.6663C11.9732 14.1665 12.2219 14.3997 12.2219 14.6873V17.2915H15.5552V2.70817Z" fill="#707070"/>
</svg>
