<svg width="34" height="34" viewBox="0 0 34 34" fill="none" xmlns="http://www.w3.org/2000/svg">
<rect width="34" height="34" rx="17" fill="#FEE7E0"/>
<path fill-rule="evenodd" clip-rule="evenodd" d="M7.89844 8.9999C7.89844 8.11625 8.61478 7.3999 9.49844 7.3999H13.4984C13.8298 7.3999 14.0984 7.66853 14.0984 7.9999C14.0984 8.33127 13.8298 8.5999 13.4984 8.5999H9.49844C9.27752 8.5999 9.09844 8.77899 9.09844 8.9999V25.9999C9.09844 26.2208 9.27752 26.3999 9.49844 26.3999H24.4984C24.7194 26.3999 24.8984 26.2208 24.8984 25.9999V8.9999C24.8984 8.77899 24.7194 8.5999 24.4984 8.5999H20.4984C20.1671 8.5999 19.8984 8.33127 19.8984 7.9999C19.8984 7.66853 20.1671 7.3999 20.4984 7.3999H24.4984C25.3821 7.3999 26.0984 8.11625 26.0984 8.9999V25.9999C26.0984 26.8836 25.3821 27.5999 24.4984 27.5999H9.49844C8.61478 27.5999 7.89844 26.8836 7.89844 25.9999V8.9999Z" fill="#FF3D00"/>
<path fill-rule="evenodd" clip-rule="evenodd" d="M13.3984 6.9999C13.3984 6.66853 13.6671 6.3999 13.9984 6.3999H19.9984C20.3298 6.3999 20.5984 6.66853 20.5984 6.9999V8.9999C20.5984 9.33127 20.3298 9.5999 19.9984 9.5999H13.9984C13.6671 9.5999 13.3984 9.33127 13.3984 8.9999V6.9999ZM14.5984 7.5999V8.3999H19.3984V7.5999H14.5984Z" fill="#FF3D00"/>
<path fill-rule="evenodd" clip-rule="evenodd" d="M10.3984 11.9999C10.3984 11.6685 10.6671 11.3999 10.9984 11.3999H12.9984C13.3298 11.3999 13.5984 11.6685 13.5984 11.9999V13.9999C13.5984 14.3313 13.3298 14.5999 12.9984 14.5999H10.9984C10.6671 14.5999 10.3984 14.3313 10.3984 13.9999V11.9999ZM11.5984 12.5999V13.3999H12.3984V12.5999H11.5984Z" fill="#FF3D00"/>
<path fill-rule="evenodd" clip-rule="evenodd" d="M10.3984 21.9999C10.3984 21.6685 10.6671 21.3999 10.9984 21.3999H12.9984C13.3298 21.3999 13.5984 21.6685 13.5984 21.9999V23.9999C13.5984 24.3313 13.3298 24.5999 12.9984 24.5999H10.9984C10.6671 24.5999 10.3984 24.3313 10.3984 23.9999V21.9999ZM11.5984 22.5999V23.3999H12.3984V22.5999H11.5984Z" fill="#FF3D00"/>
<path fill-rule="evenodd" clip-rule="evenodd" d="M14.8984 12.9999C14.8984 12.6685 15.1671 12.3999 15.4984 12.3999H22.9984C23.3298 12.3999 23.5984 12.6685 23.5984 12.9999C23.5984 13.3313 23.3298 13.5999 22.9984 13.5999H15.4984C15.1671 13.5999 14.8984 13.3313 14.8984 12.9999Z" fill="#FF3D00"/>
<path fill-rule="evenodd" clip-rule="evenodd" d="M14.8984 17.9999C14.8984 17.6685 15.1671 17.3999 15.4984 17.3999H22.9984C23.3298 17.3999 23.5984 17.6685 23.5984 17.9999C23.5984 18.3313 23.3298 18.5999 22.9984 18.5999H15.4984C15.1671 18.5999 14.8984 18.3313 14.8984 17.9999Z" fill="#FF3D00"/>
<path fill-rule="evenodd" clip-rule="evenodd" d="M14.8984 22.9999C14.8984 22.6685 15.1671 22.3999 15.4984 22.3999H22.9984C23.3298 22.3999 23.5984 22.6685 23.5984 22.9999C23.5984 23.3313 23.3298 23.5999 22.9984 23.5999H15.4984C15.1671 23.5999 14.8984 23.3313 14.8984 22.9999Z" fill="#FF3D00"/>
<path fill-rule="evenodd" clip-rule="evenodd" d="M14.3313 15.5007C14.607 15.6845 14.6815 16.0571 14.4977 16.3328L12.4977 19.3328C12.398 19.4824 12.2364 19.5793 12.0576 19.597C11.8787 19.6148 11.7013 19.5513 11.5742 19.4242L10.5742 18.4242C10.3399 18.1899 10.3399 17.81 10.5742 17.5757C10.8085 17.3414 11.1884 17.3414 11.4227 17.5757L11.9052 18.0582L13.4992 15.6671C13.683 15.3914 14.0555 15.3169 14.3313 15.5007Z" fill="#FF3D00"/>
</svg>
