<svg width="20" height="20" viewBox="0 0 20 20" fill="none" xmlns="http://www.w3.org/2000/svg">
<path fill-rule="evenodd" clip-rule="evenodd" d="M2.2707 1.17204C2.5066 1.15068 2.74637 1.19411 2.95941 1.30016L2.96187 1.30139L18.1845 8.98404C18.1849 8.98423 18.1853 8.98442 18.1856 8.98461C18.3728 9.07815 18.5355 9.21842 18.6519 9.39631C18.7689 9.57514 18.8334 9.78378 18.8334 10.0001C18.8334 10.2164 18.7689 10.425 18.6519 10.6039C18.5355 10.7817 18.3729 10.9219 18.1858 11.0155C18.1854 11.0157 18.1849 11.0159 18.1845 11.0161L2.96187 18.6988L2.95941 18.7C2.74636 18.806 2.5066 18.8495 2.2707 18.8281C2.03477 18.8068 1.80616 18.7208 1.61634 18.5753C1.42599 18.4294 1.28134 18.2281 1.21177 17.9933C1.142 17.7579 1.15374 17.5082 1.24405 17.2806M1.24405 17.2806L4.11053 10.0354C4.1133 10.0284 4.11623 10.0215 4.11932 10.0146C4.12219 10.0082 4.12283 10.0035 4.12283 10.0001C4.12283 9.99669 4.12219 9.99195 4.11932 9.98555C4.11623 9.97868 4.1133 9.97173 4.11053 9.96472L1.24434 2.72033C1.24429 2.72019 1.2444 2.72046 1.24434 2.72033C1.15392 2.49258 1.14197 2.24236 1.21177 2.00684C1.28134 1.77204 1.42599 1.57079 1.61634 1.42485C1.80617 1.27931 2.03477 1.1934 2.2707 1.17204M17.9614 9.43155L17.7361 9.87789L2.51377 2.19538C2.51347 2.19523 2.51317 2.19508 2.51287 2.19493C2.46958 2.1736 2.41614 2.16296 2.36087 2.16797C2.30524 2.173 2.25813 2.19288 2.22478 2.21845C2.19196 2.24362 2.17657 2.27066 2.17055 2.29096C2.16479 2.3104 2.16539 2.33024 2.17362 2.35095L5.0369 9.58798C5.15147 9.85192 5.15147 10.1482 5.0369 10.4122L2.17391 17.6485C2.16568 17.6692 2.16479 17.6898 2.17055 17.7092C2.17657 17.7295 2.19196 17.7565 2.22478 17.7817C2.25813 17.8073 2.30524 17.8272 2.36087 17.8322C2.41619 17.8372 2.46968 17.8265 2.51299 17.8052C2.51325 17.805 2.51351 17.8049 2.51377 17.8048L17.7361 10.1223L17.7383 10.1212C17.7761 10.1023 17.8009 10.0781 17.8151 10.0563C17.8289 10.0352 17.8334 10.0159 17.8334 10.0001C17.8334 9.98424 17.8289 9.96497 17.8151 9.94383C17.8009 9.9221 17.7761 9.89784 17.7383 9.87899L17.9614 9.43155Z" fill="#D27800"/>
<path fill-rule="evenodd" clip-rule="evenodd" d="M4.5 10C4.5 9.72386 4.72386 9.5 5 9.5H10.8333C11.1095 9.5 11.3333 9.72386 11.3333 10C11.3333 10.2761 11.1095 10.5 10.8333 10.5H5C4.72386 10.5 4.5 10.2761 4.5 10Z" fill="#D27800"/>
</svg>
