<svg width="20" height="20" viewBox="0 0 20 20" fill="none" xmlns="http://www.w3.org/2000/svg">
<path d="M6.66659 10.0002C6.66659 10.9206 5.92039 11.6668 4.99992 11.6668C4.07944 11.6668 3.33325 10.9206 3.33325 10.0002C3.33325 9.07969 4.07944 8.3335 4.99992 8.3335C5.92039 8.3335 6.66659 9.07969 6.66659 10.0002Z" fill="#707070"/>
<path d="M11.6666 10.0002C11.6666 10.9206 10.9204 11.6668 9.99992 11.6668C9.07944 11.6668 8.33325 10.9206 8.33325 10.0002C8.33325 9.07969 9.07944 8.3335 9.99992 8.3335C10.9204 8.3335 11.6666 9.07969 11.6666 10.0002Z" fill="#707070"/>
<path d="M16.6666 10.0002C16.6666 10.9206 15.9204 11.6668 14.9999 11.6668C14.0794 11.6668 13.3333 10.9206 13.3333 10.0002C13.3333 9.07969 14.0794 8.3335 14.9999 8.3335C15.9204 8.3335 16.6666 9.07969 16.6666 10.0002Z" fill="#707070"/>
</svg>
