<svg width="34" height="34" viewBox="0 0 34 34" fill="none" xmlns="http://www.w3.org/2000/svg">
<rect width="34" height="34" rx="17" fill="#FDF1F8"/>
<path fill-rule="evenodd" clip-rule="evenodd" d="M17.0004 8.5999C12.3612 8.5999 8.60039 12.3607 8.60039 16.9999C8.60039 21.6391 12.3612 25.3999 17.0004 25.3999C21.6396 25.3999 25.4004 21.6391 25.4004 16.9999C25.4004 12.3607 21.6396 8.5999 17.0004 8.5999ZM7.40039 16.9999C7.40039 11.698 11.6985 7.3999 17.0004 7.3999C22.3023 7.3999 26.6004 11.698 26.6004 16.9999C26.6004 22.3018 22.3023 26.5999 17.0004 26.5999C11.6985 26.5999 7.40039 22.3018 7.40039 16.9999Z" fill="#3750B2"/>
<path fill-rule="evenodd" clip-rule="evenodd" d="M17.0004 10.3999C17.3318 10.3999 17.6004 10.6685 17.6004 10.9999V16.9999C17.6004 17.1937 17.5069 17.3755 17.3492 17.4881L13.8492 19.9881C13.5795 20.1807 13.2048 20.1183 13.0122 19.8486C12.8196 19.579 12.882 19.2043 13.1517 19.0117L16.4004 16.6911V10.9999C16.4004 10.6685 16.6691 10.3999 17.0004 10.3999Z" fill="#3750B2"/>
</svg>
