<svg width="16" height="16" viewBox="0 0 16 16" fill="none" xmlns="http://www.w3.org/2000/svg">
<path fill-rule="evenodd" clip-rule="evenodd" d="M3.91882 7.62018C4.27849 7.55322 4.60759 7.67749 4.84858 7.82389C5.47341 8.20347 5.93357 8.44151 6.39585 8.58862C6.85319 8.73416 7.33349 8.79715 8.00221 8.79715C8.67074 8.79715 9.15091 8.73417 9.60812 8.58864C10.0703 8.44155 10.5303 8.20353 11.1549 7.82397C11.396 7.67753 11.7251 7.5532 12.0849 7.62022C13.1088 7.81097 13.8576 8.66179 14.194 9.67248C14.5335 10.6923 14.4819 11.9414 13.8487 13.0438L13.8425 13.0542C13.1932 14.1097 11.9791 14.5972 10.8626 14.8318C9.73679 15.0683 8.60879 15.0683 8.00973 15.0683H7.99469C7.3955 15.0683 6.26725 15.0683 5.14126 14.8318C4.02449 14.5972 2.81009 14.1098 2.16068 13.0542L2.15453 13.0439C1.52115 11.9414 1.46953 10.6923 1.80912 9.67237C2.14566 8.66163 2.89467 7.81085 3.91882 7.62018ZM4.43321 8.50761C4.28216 8.41585 4.15708 8.38957 4.06524 8.40667C3.41284 8.52812 2.84404 9.09649 2.56815 9.9251C2.29584 10.7429 2.33646 11.7509 2.84516 12.64C3.31877 13.405 4.25424 13.828 5.30571 14.0489C6.34553 14.2673 7.40195 14.2683 8.00221 14.2683C8.60234 14.2683 9.6585 14.2673 10.6981 14.0489C11.7493 13.8281 12.6845 13.4051 13.158 12.6401C13.6666 11.7509 13.7072 10.743 13.435 9.92514C13.1592 9.09652 12.5905 8.52817 11.9384 8.40669C11.8465 8.38958 11.7215 8.41585 11.5704 8.50765C10.9297 8.89695 10.4048 9.1746 9.85075 9.35096C9.29174 9.52889 8.72435 9.59715 8.00221 9.59715C7.27989 9.59715 6.71238 9.52889 6.15325 9.35095C5.59905 9.17459 5.07407 8.89693 4.43321 8.50761Z" fill="#212121"/>
<path fill-rule="evenodd" clip-rule="evenodd" d="M7.99902 1.7375C6.37895 1.7375 5.06563 3.05083 5.06563 4.67089C5.06563 6.29096 6.37895 7.60429 7.99902 7.60429C9.61909 7.60429 10.9324 6.29096 10.9324 4.67089C10.9324 3.05083 9.61909 1.7375 7.99902 1.7375ZM4.26562 4.67089C4.26562 2.609 5.93712 0.9375 7.99902 0.9375C10.0609 0.9375 11.7324 2.609 11.7324 4.67089C11.7324 6.73279 10.0609 8.40429 7.99902 8.40429C5.93712 8.40429 4.26562 6.73279 4.26562 4.67089Z" fill="#212121"/>
</svg>
