<svg width="20" height="20" viewBox="0 0 20 20" fill="none" xmlns="http://www.w3.org/2000/svg">
<path fill-rule="evenodd" clip-rule="evenodd" d="M2.83398 2.5C2.83398 2.22386 3.05784 2 3.33398 2H16.6673C16.9435 2 17.1673 2.22386 17.1673 2.5C17.1673 2.77614 16.9435 3 16.6673 3H3.33398C3.05784 3 2.83398 2.77614 2.83398 2.5Z" fill="#707070"/>
<path fill-rule="evenodd" clip-rule="evenodd" d="M10 4.5C10.2761 4.5 10.5 4.72386 10.5 5V17.5C10.5 17.7761 10.2761 18 10 18C9.72386 18 9.5 17.7761 9.5 17.5V5C9.5 4.72386 9.72386 4.5 10 4.5Z" fill="#707070"/>
<path fill-rule="evenodd" clip-rule="evenodd" d="M10 4.5C10.1326 4.5 10.2598 4.55268 10.3536 4.64645L15.3536 9.64645C15.5488 9.84171 15.5488 10.1583 15.3536 10.3536C15.1583 10.5488 14.8417 10.5488 14.6464 10.3536L10 5.70711L5.35355 10.3536C5.15829 10.5488 4.84171 10.5488 4.64645 10.3536C4.45118 10.1583 4.45118 9.84171 4.64645 9.64645L9.64645 4.64645C9.74021 4.55268 9.86739 4.5 10 4.5Z" fill="#707070"/>
</svg>
