<svg width="48" height="48" viewBox="0 0 48 48" fill="none" xmlns="http://www.w3.org/2000/svg">
<path d="M23.0093 34.4757V31.9536C21.594 31.9501 20.2079 31.5694 19.0078 30.8545L19.615 29.1827C20.7371 29.8796 22.0464 30.2532 23.3858 30.2587C25.2439 30.2587 26.5008 29.2348 26.5008 27.8118C26.5008 26.3887 25.4989 25.5905 23.5619 24.8384C20.8902 23.8377 19.2386 22.6923 19.2386 20.5231C19.2386 18.4522 20.7869 16.8787 23.1976 16.5027V13.9922H24.831V16.4102C26.0259 16.4211 27.1982 16.7217 28.2374 17.2837L27.5816 18.9323C26.5837 18.3647 25.4406 18.0704 24.2784 18.0819C22.2625 18.0819 21.5034 19.2389 21.5034 20.2281C21.5034 21.5238 22.475 22.1717 24.752 23.0741C27.448 24.1211 28.8142 25.388 28.8142 27.6382C28.8142 29.6108 27.3691 31.4561 24.6731 31.8784V34.4757H23.0093Z" fill="#FFD500"/>
<path fill-rule="evenodd" clip-rule="evenodd" d="M24 3C12.402 3 3 12.402 3 24C3 35.598 12.402 45 24 45C35.598 45 45 35.598 45 24C45 12.402 35.598 3 24 3ZM0 24C0 10.7452 10.7452 0 24 0C37.2548 0 48 10.7452 48 24C48 37.2548 37.2548 48 24 48C10.7452 48 0 37.2548 0 24Z" fill="#FFD500"/>
</svg>
