<svg width="16" height="16" viewBox="0 0 16 16" fill="none" xmlns="http://www.w3.org/2000/svg">
<g id="Icon s&#225;&#187;&#173;a">
<path id="Vector 1638 (Stroke)" fill-rule="evenodd" clip-rule="evenodd" d="M10.5786 1.52214C10.9952 1.10558 11.6706 1.10558 12.0871 1.52214L14.4776 3.91266C14.8942 4.32922 14.8942 5.0046 14.4776 5.42116L6.40454 13.4943C6.27636 13.6224 6.11763 13.7158 5.94333 13.7656L2.01968 14.8867C1.46649 15.0447 0.955044 14.5333 1.1131 13.9801L2.23414 10.0565C2.28394 9.88216 2.37734 9.72343 2.50552 9.59525L10.5786 1.52214ZM11.5214 2.08782C11.4173 1.98368 11.2485 1.98368 11.1443 2.08782L10.2319 3.00024L12.9995 5.76789L13.912 4.85547C14.0161 4.75133 14.0161 4.58249 13.912 4.47835L11.5214 2.08782ZM12.4339 6.33357L9.66621 3.56593L3.0712 10.1609C3.03916 10.193 3.01581 10.2327 3.00336 10.2762L1.91528 14.0845L5.72355 12.9964C5.76712 12.984 5.80681 12.9606 5.83885 12.9286L12.4339 6.33357Z" fill="#333333"/>
</g>
</svg>
