<svg width="15" height="15" viewBox="0 0 15 15" fill="none" xmlns="http://www.w3.org/2000/svg">
<path fill-rule="evenodd" clip-rule="evenodd" d="M7.76793 13.3233C10.4062 13.3233 12.5538 11.1664 12.5538 8.49496C12.5538 5.82348 10.4062 3.66667 7.76793 3.66667C5.12965 3.66667 2.9821 5.82348 2.9821 8.49496C2.9821 11.1664 5.12965 13.3233 7.76793 13.3233ZM7.76793 13.9899C10.7793 13.9899 13.2204 11.5297 13.2204 8.49496C13.2204 5.46018 10.7793 3 7.76793 3C4.7566 3 2.31543 5.46018 2.31543 8.49496C2.31543 11.5297 4.7566 13.9899 7.76793 13.9899Z" fill="#707070"/>
<path fill-rule="evenodd" clip-rule="evenodd" d="M8.04439 8.30739C8.14705 8.4602 8.10641 8.6673 7.9536 8.76997L5.90891 10.1437C5.7561 10.2464 5.549 10.2057 5.44633 10.0529C5.34366 9.90011 5.38431 9.693 5.53712 9.59034L7.58181 8.21659C7.73462 8.11393 7.94172 8.15458 8.04439 8.30739Z" fill="#707070"/>
<path fill-rule="evenodd" clip-rule="evenodd" d="M7.76725 8.82666C7.58316 8.82666 7.43392 8.67742 7.43392 8.49333V5.05897C7.43392 4.87488 7.58316 4.72564 7.76725 4.72564C7.95135 4.72564 8.10059 4.87488 8.10059 5.05897V8.49333C8.10059 8.67742 7.95135 8.82666 7.76725 8.82666Z" fill="#707070"/>
<path fill-rule="evenodd" clip-rule="evenodd" d="M10.6363 12.6914C10.7836 12.581 10.9925 12.6108 11.1029 12.7581L12.1029 14.0914C12.2134 14.2387 12.1836 14.4477 12.0363 14.5581C11.889 14.6686 11.6801 14.6387 11.5696 14.4914L10.5696 13.1581C10.4592 13.0108 10.489 12.8019 10.6363 12.6914Z" fill="#707070"/>
<path fill-rule="evenodd" clip-rule="evenodd" d="M5.20014 12.7332C5.05287 12.6227 4.84393 12.6526 4.73348 12.7999L3.73348 14.1332C3.62302 14.2805 3.65287 14.4894 3.80014 14.5999C3.94742 14.7103 4.15635 14.6805 4.26681 14.5332L5.26681 13.1999C5.37727 13.0526 5.34742 12.8436 5.20014 12.7332Z" fill="#707070"/>
<path fill-rule="evenodd" clip-rule="evenodd" d="M2.89921 2.73379C2.2932 3.24625 2.21365 4.15736 2.72285 4.76894C2.84065 4.91041 2.82218 5.12146 2.68161 5.24034C2.54104 5.35921 2.33159 5.34089 2.2138 5.19941C1.46955 4.30554 1.58484 2.97221 2.47264 2.22146C3.36044 1.4707 4.68338 1.58781 5.42764 2.48168C5.54543 2.62316 5.52697 2.83421 5.3864 2.95308C5.24582 3.07195 5.03638 3.05363 4.91858 2.91215C4.40938 2.30058 3.50522 2.22132 2.89921 2.73379Z" fill="#707070"/>
<path fill-rule="evenodd" clip-rule="evenodd" d="M12.7668 2.73301C12.1608 2.22055 11.2566 2.29981 10.7474 2.91138C10.6296 3.05285 10.4202 3.07118 10.2796 2.95231C10.139 2.83343 10.1206 2.62238 10.2383 2.4809C10.9826 1.58703 12.3055 1.46993 13.1933 2.22068C14.0811 2.97144 14.1964 4.30476 13.4522 5.19863C13.3344 5.34011 13.1249 5.35843 12.9844 5.23956C12.8438 5.12069 12.8253 4.90964 12.9431 4.76816C13.4523 4.15659 13.3728 3.24547 12.7668 2.73301Z" fill="#707070"/>
</svg>
