<svg width="32" height="16" viewBox="0 0 32 16" fill="none" xmlns="http://www.w3.org/2000/svg">
<path d="M30.2259 15.9548C28.5389 15.8535 27.7141 6.64571 27.6656 6.13505C27.5739 6.66002 26.1386 14.8217 24.1683 14.8217C22.2441 14.8217 20.6336 6.97753 20.5571 6.59068C20.5571 6.88123 20.8661 16.2343 18.2112 15.9548C15.7799 15.6989 16.3775 8.36918 16.4312 7.74021C16.485 7.11124 16.572 6.45256 16.6941 5.75921C16.8162 5.06586 17.804 0.0462232 20.1365 0.0462232C22.1226 0.0462232 24.017 6.11854 24.1233 6.4223C24.2454 6.09213 26.5253 0 28.5348 0C31.0648 0 32.0257 5.17261 31.9994 9.64087C31.979 13.0306 31.4626 16.0296 30.2259 15.9548Z" fill="#FFD500"/>
<path d="M15.2206 2.31984C14.8653 1.98717 14.4571 1.70869 14.0108 1.49442C13.5166 1.24735 9.68111 -0.263167 6.70603 0.0400361C6.40366 0.0509323 6.11568 0.164489 5.89523 0.359748C5.57629 0.617829 5.04121 3.88593 4.84377 6.84477C2.02349 7.08194 0 7.77199 0 8.55064C0 9.32928 2.01064 9.98961 4.81748 10.2356C5.00616 12.932 5.75212 15.9431 7.34276 15.9431C8.21898 15.9431 8.82942 13.874 9.066 10.2813C12.1801 10.0815 14.4787 9.38211 14.4787 8.55064C14.4787 7.71917 12.2286 7.05388 9.14602 6.83322C9.1028 5.08884 8.9515 3.78303 8.9515 3.78303C9.63613 3.97526 10.3819 4.1574 11.1888 4.32945C11.9955 4.50114 14.7398 4.93476 15.4916 3.97893C15.6333 3.77407 15.7015 3.53183 15.6862 3.28778C15.6806 3.10542 15.6365 2.92593 15.5566 2.75975C15.4767 2.59358 15.3625 2.44404 15.2206 2.31984Z" fill="#FFD500"/>
</svg>
