<svg width="36" height="18" viewBox="0 0 36 18" fill="none" xmlns="http://www.w3.org/2000/svg">
<g clip-path="url(#clip0_14061_2425)">
<path d="M27.5049 7.11316C27.6431 6.76442 27.7582 6.47553 27.8734 6.1887C28.516 4.59155 29.2173 3.02328 30.1949 1.5912C30.4817 1.17231 30.8188 0.798815 31.1851 0.443891C31.7692 -0.123574 32.8326 -0.127701 33.4439 0.35516C34.0049 0.798815 34.3545 1.38073 34.6497 2.00597C35.217 3.209 35.4828 4.4925 35.6754 5.79251C36.0857 8.55555 36.0585 11.333 35.8576 14.1105C35.7948 14.9669 35.6043 15.8067 35.3279 16.6218C35.2002 16.9994 35.0349 17.3605 34.7439 17.6474C34.344 18.0436 33.9233 18.0353 33.559 17.602C33.2513 17.2347 33.0608 16.8034 32.908 16.3536C32.4872 15.1154 32.2423 13.834 32.0141 12.5526C31.7022 10.8068 31.5075 9.04667 31.3379 7.2803C31.2542 7.29062 31.273 7.35871 31.2647 7.40617C30.8376 9.64302 30.3792 11.8716 29.5753 14.0156C29.2969 14.7585 29.0017 15.4972 28.4846 16.1224C28.4574 16.1555 28.4344 16.1885 28.4072 16.2194C27.8482 16.8426 27.2705 16.8467 26.7032 16.2297C26.2175 15.7015 25.9056 15.0721 25.6334 14.4221C24.9238 12.7321 24.4339 10.976 24.0194 9.1973C23.9231 8.7846 23.8289 8.3719 23.6803 7.96745C23.6803 8.64015 23.6908 9.31286 23.6803 9.98556C23.651 11.7189 23.5128 13.444 23.1632 15.1464C23.0125 15.8831 22.7948 16.6053 22.3887 17.2512C22.1165 17.6825 21.7628 18.0106 21.1996 17.994C20.6554 17.9775 20.3037 17.6556 20.042 17.2326C19.6212 16.5517 19.4203 15.7902 19.3072 15.0123C19.0121 12.988 18.9911 10.9533 19.1691 8.91873C19.3449 6.91093 19.661 4.92584 20.4209 3.03566C20.7119 2.31343 21.0405 1.60771 21.5388 0.996912C21.8025 0.670877 22.1124 0.398494 22.4996 0.216905C23.0732 -0.0513512 23.607 0.0229352 24.0969 0.408812C24.5888 0.794688 24.951 1.29199 25.265 1.82025C26.1317 3.28122 26.7429 4.84949 27.2809 6.44871C27.3479 6.65093 27.417 6.85109 27.507 7.11522L27.5049 7.11316Z" fill="#FF2C00"/>
<path d="M10.3432 0.0165858C12.0828 -0.0721452 13.7743 0.229127 15.4553 0.623258C15.9807 0.747068 16.4517 0.967864 16.8202 1.36199C17.377 1.95629 17.3624 2.6455 16.8139 3.24598C16.4245 3.67106 15.92 3.87122 15.3841 4.02392C14.5719 4.25504 13.7345 4.28599 12.8993 4.32107C12.131 4.35408 11.3606 4.36647 10.5903 4.38504C10.2469 4.39329 10.2302 4.41599 10.2658 4.76679C10.3349 5.44774 10.3977 6.1287 10.4584 6.80966C10.4814 7.0676 10.5505 7.13363 10.8791 7.14189C11.4402 7.15427 11.997 7.21617 12.5518 7.28427C13.4415 7.39363 14.3186 7.57316 15.1685 7.85999C15.5034 7.97348 15.8174 8.12412 16.1042 8.33047C16.6695 8.73285 16.6904 9.23429 16.1566 9.68207C15.8279 9.95858 15.449 10.1546 15.0471 10.2991C13.7827 10.7551 12.4785 11.0316 11.1408 11.1616C10.5107 11.2214 10.5191 11.2173 10.5023 11.8364C10.4605 13.3634 10.3328 14.8821 9.95596 16.3699C9.84501 16.8115 9.67754 17.2345 9.39703 17.6059C9.07883 18.029 8.67899 18.1156 8.20589 17.8639C7.71185 17.6039 7.32876 17.2325 7.06708 16.7434C6.49978 15.6828 6.16274 14.5458 5.94294 13.3737C5.84036 12.831 5.73988 12.2883 5.68964 11.7373C5.65614 11.3618 5.61218 11.3267 5.23328 11.304C4.43151 11.2545 3.63393 11.1657 2.84891 11.0027C2.1539 10.8583 1.46099 10.6953 0.822508 10.3692C0.613169 10.2619 0.414297 10.1402 0.24892 9.97509C-0.0776491 9.64905 -0.0902094 9.28587 0.219612 8.94127C0.456165 8.67714 0.751333 8.48729 1.07162 8.34079C2.32347 7.76713 3.65696 7.503 5.01138 7.31728C5.08674 7.30697 5.16001 7.29871 5.23537 7.29252C5.43634 7.28014 5.53054 7.18522 5.53682 6.97887C5.57241 5.94092 5.61009 4.90298 5.69592 3.8671C5.75872 3.1036 5.83617 2.33803 5.99527 1.58898C6.13762 0.92453 6.54583 0.466431 7.22409 0.282779C7.86257 0.109444 8.5178 0.0227763 9.18141 0.0207128C9.56659 0.0207128 9.95177 0.0207128 10.337 0.0207128L10.3432 0.0165858Z" fill="#FF2C00"/>
</g>
<defs>
<clipPath id="clip0_14061_2425">
<rect width="36" height="18" fill="white"/>
</clipPath>
</defs>
</svg>