<svg width="204" height="210" viewBox="0 0 204 210" fill="none" xmlns="http://www.w3.org/2000/svg">
<g clip-path="url(#clip0_15232_188692)">
<path d="M179.746 96.4641C164.937 96.7079 170.613 88.3107 170.613 88.3107C176.661 75.9606 162.1 70.7768 162.1 70.7768C153.213 65.8367 154.943 57.7974 154.943 57.7974C157.533 44.2124 154.943 35.4454 154.943 35.4454C133.593 -14.5526 78.558 2.97736 78.558 2.97736C68.194 5.76596 59.8854 11.6539 53.2747 18.7532C54.0656 19.7314 54.4977 20.9513 54.4993 22.2096C54.5009 23.4679 54.0718 24.6888 53.2834 25.6691C52.495 26.6493 51.3949 27.3298 50.1662 27.5971C48.9375 27.8645 47.6544 27.7027 46.5304 27.1386C34.1265 44.9675 30.0626 65.4552 30.0626 65.4552C25.1262 82.1239 16.9827 88.4208 16.9827 88.4208C11.5511 91.7561 7.23173 97.6834 7.23173 97.6834C-9.03953 124.739 35.7379 142.895 35.7379 142.895L187.521 141.412C197.146 138.324 201.587 125.731 201.587 125.731C210.104 94.7335 179.746 96.4641 179.746 96.4641Z" fill="#F1F0F0"/>
<path d="M204 141.329C203.98 141.763 203.789 142.172 203.47 142.466C203.151 142.761 202.728 142.917 202.294 142.902H1.7018C1.26826 142.917 0.846333 142.761 0.527687 142.466C0.209041 142.171 0.0194142 141.763 0 141.329L0 141.251C0.0194142 140.817 0.209041 140.408 0.527687 140.114C0.846333 139.819 1.26826 139.662 1.7018 139.677H202.294C202.728 139.662 203.151 139.819 203.47 140.113C203.789 140.408 203.98 140.816 204 141.251V141.329Z" fill="#B2B3B3"/>
<path d="M134.867 101.982C133.586 97.2153 131.393 89.1563 131.393 89.1563C129.561 82.0098 126.629 61.3019 126.629 61.3019C126.426 59.7572 126.056 58.2393 125.525 56.7748L125.478 56.6529C125.426 56.531 125.375 56.413 125.328 56.295C125.253 56.118 125.179 55.9449 125.1 55.7797L124.935 55.4454C124.857 55.296 124.778 55.1544 124.699 55.0128C124.621 54.8712 124.574 54.7965 124.507 54.6942C124.44 54.5919 124.357 54.4621 124.283 54.352C124.208 54.2419 124.129 54.1318 124.051 54.0295C123.972 53.9272 123.929 53.8761 123.866 53.8014C123.803 53.7266 123.67 53.5614 123.567 53.4553L123.489 53.3766C121.363 51.178 118.678 51.3235 116.607 51.9489C114.602 52.5978 112.103 54.6627 112.103 54.6627C107.937 58.2198 102.54 59.9943 97.0775 59.6027C89.6375 59.4729 83.3451 55.351 80.9241 53.5339C80.252 53.0462 78.8293 52.232 78.6406 52.1219C74.9187 50.6234 72.4544 52.0551 71.3421 53.0147C71.2439 53.1052 71.1535 53.1839 71.0749 53.2625C70.9658 53.3633 70.8634 53.471 70.7683 53.585C70.7471 53.6073 70.7274 53.631 70.7094 53.6558L70.6583 53.7188C68.3905 56.7984 68.3866 64.7827 68.3866 64.7827C68.3866 69.8958 66.7359 75.2252 66.7359 75.2252C65.0891 80.7316 63.4423 90.8004 63.4423 90.8004C61.4261 92.0826 55.3853 96.6647 55.3853 96.6647C42.5687 103.626 35.9777 115.721 35.9777 115.721C26.8202 128.547 26.2699 141.007 26.2699 141.007C26.0891 156.212 36.3432 150.899 36.3432 150.899C39.6367 150.167 41.2835 142.474 41.2835 142.474C43.85 140.09 52.8188 141.373 52.8188 141.373C62.8921 143.756 79.7372 142.655 79.7372 142.655C83.9465 142.289 90.3135 141.982 90.3135 141.982C98.3548 141.011 99.5103 145.585 99.5103 145.585C101.161 153.845 105.512 155.025 105.512 155.025C116.858 160.747 119.873 146.93 119.873 146.93C120.368 144.57 120.49 139.158 120.514 135.917C120.557 133.951 120.883 132.712 121.256 131.941C122.899 129.856 126.645 127.438 126.645 127.438C129.372 129.829 131.707 129.774 133.428 129.038C134.273 128.645 136.773 127.103 137.3 122.053C137.854 113.534 134.867 101.982 134.867 101.982Z" fill="white"/>
<path d="M79.1788 142.804C79.1788 142.804 77.6067 142.907 75.1542 142.981C69.9388 143.135 60.7223 143.154 54.0095 141.801C53.6597 141.731 53.3138 141.656 52.9797 141.577C52.9797 141.577 52.4334 141.499 51.5845 141.42C49.0377 144.665 42.6864 153.766 42.6864 163.839C42.6864 163.839 42.4624 176.881 49.3246 178.655C49.3246 178.655 56.2772 180.338 57.7904 173.243C57.7904 173.243 56.1868 155.858 58.9694 153.908C58.9694 153.908 72.6625 145.593 80.5859 142.702L79.1788 142.804Z" fill="white"/>
<path d="M72.2065 98.8788C72.2065 98.8788 84.0406 88.8257 98.6926 100.185L97.4702 100.877C97.4702 100.877 84.8148 92.6802 73.8062 99.4295L72.2065 98.8788Z" fill="#B3B3B3"/>
<path d="M91.7438 77.8762C91.7438 78.1892 91.6196 78.4893 91.3985 78.7106C91.1774 78.9319 90.8775 79.0562 90.5648 79.0562H84.1781C83.8654 79.0562 83.5655 78.9319 83.3444 78.7106C83.1233 78.4893 82.999 78.1892 82.999 77.8762C82.999 77.5633 83.1233 77.2632 83.3444 77.0419C83.5655 76.8206 83.8654 76.6963 84.1781 76.6963H90.5766C90.8893 76.6963 91.1892 76.8206 91.4103 77.0419C91.6314 77.2632 91.7556 77.5633 91.7556 77.8762H91.7438Z" fill="#B3B3B3"/>
<path d="M115.895 78.2258C115.895 78.5388 115.771 78.8389 115.55 79.0602C115.329 79.2815 115.029 79.4058 114.716 79.4058H108.326C108.013 79.4058 107.713 79.2815 107.492 79.0602C107.271 78.8389 107.146 78.5388 107.146 78.2258C107.146 77.9129 107.271 77.6128 107.492 77.3915C107.713 77.1702 108.013 77.0459 108.326 77.0459H114.724C115.037 77.0459 115.337 77.1702 115.558 77.3915C115.779 77.6128 115.903 77.9129 115.903 78.2258H115.895Z" fill="#B3B3B3"/>
<path d="M99.7973 76.6963C99.7973 76.6963 98.4177 80.83 93.0529 82.1358C93.0529 82.1358 92.2944 83.1702 93.0529 83.5832C93.0529 83.5832 97.5256 84.6137 99.7973 79.5911C99.7973 79.5911 102.203 84.7238 105.917 83.6697C105.917 83.6697 107.225 82.8831 105.917 82.1358C105.917 82.1476 103.366 83.2489 99.7973 76.6963Z" fill="#B3B3B3"/>
<path d="M99.6084 84.6176C98.1464 84.6176 97.2503 83.6697 97.2503 82.2065L96.0083 82.3088C96.0083 83.2643 96.3876 84.1807 97.0628 84.8563C97.7379 85.532 98.6536 85.9116 99.6084 85.9116C100.563 85.9116 101.479 85.532 102.154 84.8563C102.829 84.1807 103.209 83.2643 103.209 82.3088L101.884 82.2065C101.884 83.6697 101.07 84.6176 99.6084 84.6176Z" fill="#B3B3B3"/>
<path d="M52.4178 139.98C52.4178 139.98 42.1991 151.457 42.1991 164.492C42.1991 164.492 41.9672 177.986 49.0299 179.831C49.0299 179.831 56.1869 181.577 57.7433 174.234C57.7433 174.234 56.0926 156.24 58.9224 154.222C58.9224 154.222 77.2688 143.025 84.2372 141.739C84.245 141.727 55.8096 141.723 52.4178 139.98ZM57.645 152.606C53.3807 155.088 55.3537 173.766 55.3537 173.766C55.2594 177.699 51.5924 177.44 51.5924 177.44C43.5197 178.447 44.4354 163.945 44.4354 163.945C44.7145 153.29 54.1589 141.271 54.1589 141.271L78.0549 142.057C73.9281 142.919 57.645 152.606 57.645 152.606Z" fill="#B3B3B3"/>
<path d="M127.175 80.708L127.246 81.0777C127.222 80.9597 127.199 80.8299 127.175 80.708Z" fill="#B3B3B3"/>
<path d="M135.594 124.924C135.605 124.889 135.614 124.854 135.621 124.818C135.613 124.852 135.602 124.887 135.59 124.92L135.594 124.924Z" fill="#B3B3B3"/>
<path d="M123.575 53.27L123.654 53.3487L123.575 53.27Z" fill="#B3B3B3"/>
<path d="M134.973 101.979C133.688 97.2038 131.487 89.1252 131.487 89.1252C129.655 81.9668 126.716 61.2196 126.716 61.2196C126.517 59.6716 126.146 58.1506 125.611 56.6846L125.564 56.5627C125.513 56.4408 125.462 56.3228 125.415 56.2048C125.368 56.0868 125.265 55.8548 125.187 55.6896C125.108 55.5244 125.077 55.4654 125.018 55.3552C124.959 55.2451 124.865 55.0603 124.786 54.9226L124.593 54.6001C124.519 54.4821 124.444 54.368 124.365 54.2579C124.287 54.1478 124.212 54.0376 124.133 53.9354C124.055 53.8331 124.012 53.782 123.949 53.7073C123.886 53.6325 123.752 53.4673 123.65 53.3572L123.571 53.2786C121.441 51.0799 118.749 51.2255 116.674 51.8508C114.669 52.4998 112.162 54.5726 112.162 54.5726C107.992 58.133 102.592 59.9127 97.1248 59.5283C89.6573 59.3946 83.3689 55.2648 80.936 53.4477C80.26 52.96 78.8373 52.1419 78.6447 52.0317C74.9149 50.5293 72.4467 51.9649 71.3344 52.9285L71.0672 53.1724C70.9577 53.2754 70.8541 53.3844 70.7567 53.4988L70.6977 53.5696L70.6466 53.6325C68.3867 56.7082 68.3867 64.7082 68.3867 64.7082C68.3867 69.8489 66.736 75.1743 66.736 75.1743C65.0853 80.6807 63.4346 90.7771 63.4346 90.7771C61.4144 92.0632 55.3618 96.6532 55.3618 96.6532C42.5178 103.631 35.9149 115.745 35.9149 115.745C26.726 128.614 26.1836 141.082 26.1836 141.082C25.9989 156.319 36.2726 150.997 36.2726 150.997C39.574 150.262 41.3008 142.5 41.3008 142.5C43.8712 140.113 52.7836 141.452 52.7836 141.452C62.8726 143.839 79.753 142.734 79.753 142.734C83.9702 142.368 90.3647 142.061 90.3647 142.061C98.4217 141.086 99.5812 145.672 99.5812 145.672C101.232 153.931 105.594 155.147 105.594 155.147C116.945 160.862 119.948 147.017 119.948 147.017C120.447 144.657 120.565 139.229 120.588 136.004C120.632 134.038 120.981 132.795 121.335 132.02C122.978 129.928 126.731 127.509 126.731 127.509C129.483 129.904 131.805 129.849 133.527 129.113C134.376 128.72 136.883 127.17 137.406 122.112C137.952 113.55 134.973 101.979 134.973 101.979ZM133.484 126.982C133.484 126.982 129.031 128.744 127.246 124.193C126.132 121.025 124.804 117.935 123.273 114.946C123.247 114.836 123.185 114.737 123.096 114.666C123.008 114.595 122.899 114.555 122.785 114.553C122.648 114.554 122.518 114.609 122.421 114.706C122.325 114.804 122.271 114.935 122.271 115.072C122.272 115.155 122.295 115.236 122.337 115.308H122.314C123.886 117.558 125.434 125.223 125.434 125.223C123.555 126.683 121.803 128.299 120.195 130.053C117.904 131.749 118.556 142.38 118.556 142.38C118.234 150.046 115.047 152.5 115.047 152.5C110.095 156.63 104.828 152.075 104.828 152.075C102.309 149.459 101.071 143.894 101.071 143.894C99.6244 138.868 89.3861 140.063 89.3861 140.063C81.0618 141.385 56.2579 139.729 56.2579 139.729C50.3861 138.903 43.0483 138.58 43.0483 138.58C38.332 138.305 38.332 144.044 38.332 144.044C37.9665 150.337 33.0576 149.735 33.0576 149.735C29.7562 149.597 28.6557 145.876 28.6557 145.876C27.5553 138.856 30.8567 130.179 30.8567 130.179C32.3698 125.223 40.9024 112.142 40.9024 112.142C44.0466 106.498 63.3285 93.4162 63.3285 93.4162C66.2172 91.7643 65.6866 90.3877 65.6866 90.3877C66.0442 85.5565 67.0149 80.7906 68.5754 76.2048C70.6427 69.1802 70.9335 59.6856 70.9335 59.6856C71.6213 48.9442 80.2875 55.6935 80.2875 55.6935C80.2875 55.6935 89.897 61.8331 98.5672 61.8331C102.517 61.6132 106.399 60.7082 110.04 59.1586C112.245 58.1071 114.242 56.6654 115.935 54.9029C115.935 54.9029 119.044 52.252 121.512 55.1822C121.512 55.1822 123.646 56.9757 124.263 60.8459C124.591 62.4851 124.831 64.1407 124.982 65.8056C125.026 66.1517 126.099 74.7495 127.085 80.1183C127.12 80.311 127.156 80.5116 127.195 80.7082C127.219 80.8302 127.242 80.96 127.266 81.078C128.229 86.0888 129.396 91.7407 130.41 95.3356C130.536 95.7761 130.65 96.1615 130.748 96.4919V96.5312C130.98 97.3179 131.118 97.7545 131.118 97.7545C131.942 99.95 132.637 102.192 133.201 104.468C134.203 108.46 137.984 124.653 133.484 126.982Z" fill="#B3B3B3"/>
<path d="M117.122 54.9892L117.212 54.9302L117.122 54.9892Z" fill="#B3B3B3"/>
<path d="M120.109 29.1051C120.109 30.4528 119.711 31.7704 118.963 32.8913C118.215 34.0121 117.152 34.8859 115.908 35.402C114.664 35.918 113.295 36.0533 111.974 35.7906C110.653 35.5278 109.44 34.879 108.488 33.926C107.536 32.9731 106.887 31.7589 106.625 30.4371C106.362 29.1153 106.497 27.7453 107.013 26.5003C107.529 25.2554 108.402 24.1915 109.522 23.4433C110.642 22.6951 111.959 22.2961 113.305 22.2969C115.109 22.2979 116.839 23.0156 118.115 24.2921C119.39 25.5687 120.108 27.2998 120.109 29.1051Z" fill="white"/>
<path d="M195.082 115.929C195.083 116.908 194.794 117.865 194.251 118.679C193.708 119.493 192.936 120.128 192.032 120.503C191.128 120.878 190.134 120.977 189.174 120.786C188.215 120.595 187.334 120.124 186.642 119.431C185.95 118.739 185.479 117.857 185.289 116.897C185.098 115.937 185.196 114.942 185.571 114.037C185.946 113.133 186.58 112.36 187.394 111.817C188.207 111.274 189.164 110.984 190.142 110.985C191.452 110.985 192.709 111.506 193.635 112.433C194.562 113.36 195.082 114.618 195.082 115.929Z" fill="white"/>
<path d="M79.8114 122.607C81.5858 122.504 83.3524 122.294 85.1015 121.978C91.3703 120.912 101.374 120 109.862 112.464C109.862 112.464 114.659 107.393 116.151 114.092C116.151 114.092 119.46 134.82 138.71 143.984C138.71 143.984 144.696 146.456 141.068 149.537C141.068 149.537 134.554 154.764 126.956 158.956C119.669 162.976 111.386 166.25 106.895 162.639C106.895 162.639 91.8065 151.315 79.4537 129.994C78.6773 128.331 74.0676 122.941 79.8114 122.607Z" fill="white"/>
<path fill-rule="evenodd" clip-rule="evenodd" d="M110.772 113.322L110.771 113.323L110.77 113.324L110.734 113.362L110.694 113.398C102.748 120.453 93.4988 121.912 87.2406 122.899C86.5628 123.005 85.9202 123.107 85.318 123.209C83.5214 123.534 81.7067 123.749 79.8841 123.855C78.5891 123.93 78.3216 124.272 78.2832 124.333C78.2274 124.422 78.1423 124.708 78.3752 125.408C78.5936 126.064 78.999 126.802 79.4448 127.537C79.5525 127.715 79.6697 127.903 79.7878 128.092C80.0848 128.568 80.3876 129.053 80.5616 129.41C86.6702 139.944 93.4521 148.011 98.7068 153.443C101.337 156.162 103.582 158.219 105.165 159.593C105.957 160.279 106.582 160.795 107.007 161.137C107.22 161.308 107.383 161.436 107.491 161.519C107.523 161.545 107.551 161.566 107.573 161.583C107.588 161.595 107.601 161.604 107.611 161.612L107.64 161.634L107.647 161.639L107.663 161.652L107.68 161.665C109.461 163.097 112.154 163.286 115.579 162.445C118.961 161.615 122.739 159.855 126.351 157.862C130.095 155.796 133.581 153.47 136.137 151.656C137.413 150.75 138.453 149.974 139.173 149.426C139.533 149.151 139.813 148.934 140.002 148.787C140.096 148.713 140.168 148.656 140.215 148.618L140.268 148.576L140.271 148.574C140.972 147.974 140.993 147.604 140.982 147.465C140.966 147.247 140.812 146.92 140.381 146.505C139.97 146.11 139.44 145.765 138.981 145.511C138.758 145.387 138.563 145.291 138.427 145.227C138.36 145.195 138.307 145.172 138.273 145.157C138.263 145.152 138.255 145.149 138.248 145.146C138.244 145.144 138.24 145.142 138.237 145.141L138.232 145.139L138.231 145.139L138.23 145.138L138.202 145.126L138.172 145.112C128.226 140.378 122.414 132.661 119.097 126.17C117.438 122.923 116.396 119.97 115.767 117.825C115.453 116.751 115.241 115.878 115.108 115.268C115.041 114.963 114.994 114.723 114.962 114.558C114.947 114.475 114.935 114.41 114.928 114.365C114.925 114.352 114.923 114.341 114.922 114.331C114.579 112.813 114.106 112.237 113.815 112.032C113.576 111.862 113.278 111.817 112.819 111.96C112.336 112.11 111.829 112.429 111.408 112.76C111.205 112.918 111.04 113.065 110.927 113.171C110.871 113.223 110.829 113.265 110.802 113.292C110.789 113.305 110.779 113.315 110.774 113.32L110.772 113.322ZM117.387 113.895L117.388 113.902L117.394 113.938C117.4 113.972 117.409 114.025 117.423 114.097C117.449 114.239 117.492 114.454 117.553 114.733C117.676 115.293 117.873 116.11 118.17 117.123C118.763 119.15 119.752 121.952 121.326 125.033C124.474 131.192 129.934 138.413 139.224 142.844C139.239 142.85 139.258 142.858 139.28 142.868C139.332 142.891 139.405 142.923 139.493 142.965C139.671 143.048 139.916 143.17 140.197 143.326C140.747 143.631 141.486 144.097 142.118 144.705C142.73 145.294 143.393 146.162 143.478 147.274C143.57 148.465 142.979 149.555 141.879 150.49L141.866 150.501L141.852 150.512L141.068 149.537C141.852 150.512 141.852 150.512 141.852 150.512L141.852 150.512L141.846 150.517L141.831 150.529L141.772 150.576C141.72 150.617 141.644 150.677 141.546 150.754C141.349 150.908 141.06 151.132 140.691 151.414C139.952 151.976 138.889 152.769 137.587 153.694C134.986 155.54 131.416 157.924 127.562 160.05C123.887 162.077 119.88 163.964 116.176 164.873C112.521 165.77 108.835 165.792 106.125 163.625L106.091 163.599C106.06 163.575 106.014 163.539 105.954 163.493C105.835 163.401 105.662 163.264 105.437 163.084C104.989 162.724 104.34 162.188 103.524 161.48C101.892 160.064 99.5926 157.957 96.9065 155.18C91.5359 149.628 84.6084 141.387 78.3706 130.62L78.3429 130.572L78.3196 130.522C78.2178 130.304 78.0341 130.01 77.7773 129.599C77.64 129.379 77.4818 129.126 77.3041 128.833C76.8466 128.079 76.313 127.137 75.9999 126.196C75.7013 125.299 75.4922 124.071 76.1633 123.004C76.8517 121.908 78.162 121.451 79.7389 121.359C81.4629 121.259 83.1793 121.055 84.8787 120.748L84.8851 120.747L84.8916 120.746C85.5151 120.64 86.1694 120.536 86.8502 120.427C93.1211 119.43 101.637 118.075 108.996 111.56C109.006 111.55 109.018 111.538 109.031 111.525C109.075 111.481 109.137 111.42 109.215 111.347C109.37 111.202 109.592 111.005 109.862 110.793C110.387 110.382 111.173 109.853 112.076 109.572C113.002 109.285 114.182 109.228 115.262 109.992C116.289 110.718 116.97 112.014 117.372 113.821L117.381 113.858L117.386 113.894L117.387 113.895Z" fill="#B2B3B3"/>
<path d="M113.612 118.489C113.545 118.308 113.396 118.202 113.278 118.245L84.1469 129.258C84.0329 129.302 83.9936 129.482 84.0604 129.652C84.1273 129.829 84.2766 129.939 84.3945 129.895L113.526 118.883C113.64 118.839 113.679 118.658 113.612 118.489Z" fill="#B2B3B3"/>
<path d="M116.127 123.819C116.061 123.638 115.911 123.532 115.793 123.575L86.6622 134.588C86.5443 134.631 86.505 134.812 86.5758 134.981C86.6426 135.158 86.7919 135.268 86.9098 135.225L116.037 124.212C116.155 124.169 116.194 123.988 116.127 123.819Z" fill="#B2B3B3"/>
<path d="M120.046 129.667C119.979 129.486 119.829 129.376 119.711 129.42L90.5843 140.432C90.4664 140.476 90.4271 140.657 90.4939 140.826C90.5607 141.007 90.7101 141.113 90.828 141.07L119.959 130.057C120.073 130.01 120.116 129.829 120.046 129.663V129.667Z" fill="#B2B3B3"/>
</g>
<path d="M14.0234 193.625V205H12.5391V193.625H14.0234ZM17.6797 193.625V194.859H8.89062V193.625H17.6797ZM20.9029 196.547V205H19.4576V196.547H20.9029ZM19.4108 195.312L20.9264 193.016H22.6686L20.5748 195.312H19.4108ZM24.9465 198.352V205H23.5012V196.547H24.8684L24.9465 198.352ZM24.6027 200.453L24.0012 200.43C24.0064 199.852 24.0923 199.318 24.259 198.828C24.4257 198.333 24.66 197.904 24.9621 197.539C25.2642 197.174 25.6236 196.893 26.0402 196.695C26.4621 196.492 26.9283 196.391 27.4387 196.391C27.8554 196.391 28.2304 196.448 28.5637 196.562C28.897 196.672 29.1809 196.849 29.4152 197.094C29.6548 197.339 29.8371 197.656 29.9621 198.047C30.0871 198.432 30.1496 198.904 30.1496 199.461V205H28.6965V199.445C28.6965 199.003 28.6314 198.648 28.5012 198.383C28.371 198.112 28.1809 197.917 27.9309 197.797C27.6809 197.672 27.3736 197.609 27.009 197.609C26.6496 197.609 26.3215 197.685 26.0246 197.836C25.733 197.987 25.4804 198.195 25.2668 198.461C25.0585 198.727 24.8944 199.031 24.7746 199.375C24.66 199.714 24.6027 200.073 24.6027 200.453ZM33.9823 193V205H32.5369V193H33.9823ZM33.6385 200.453L33.0369 200.43C33.0421 199.852 33.1281 199.318 33.2948 198.828C33.4614 198.333 33.6958 197.904 33.9979 197.539C34.3 197.174 34.6593 196.893 35.076 196.695C35.4979 196.492 35.964 196.391 36.4744 196.391C36.8911 196.391 37.2661 196.448 37.5994 196.562C37.9328 196.672 38.2166 196.849 38.451 197.094C38.6906 197.339 38.8729 197.656 38.9979 198.047C39.1229 198.432 39.1854 198.904 39.1854 199.461V205H37.7323V199.445C37.7323 199.003 37.6671 198.648 37.5369 198.383C37.4067 198.112 37.2166 197.917 36.9666 197.797C36.7166 197.672 36.4093 197.609 36.0448 197.609C35.6854 197.609 35.3573 197.685 35.0604 197.836C34.7687 197.987 34.5161 198.195 34.3026 198.461C34.0942 198.727 33.9302 199.031 33.8104 199.375C33.6958 199.714 33.6385 200.073 33.6385 200.453ZM47.1475 198.352V205H45.7022V196.547H47.0694L47.1475 198.352ZM46.8037 200.453L46.2022 200.43C46.2074 199.852 46.2933 199.318 46.46 198.828C46.6267 198.333 46.861 197.904 47.1631 197.539C47.4652 197.174 47.8246 196.893 48.2412 196.695C48.6631 196.492 49.1293 196.391 49.6397 196.391C50.0564 196.391 50.4314 196.448 50.7647 196.562C51.098 196.672 51.3819 196.849 51.6162 197.094C51.8558 197.339 52.0381 197.656 52.1631 198.047C52.2881 198.432 52.3506 198.904 52.3506 199.461V205H50.8975V199.445C50.8975 199.003 50.8324 198.648 50.7022 198.383C50.572 198.112 50.3819 197.917 50.1319 197.797C49.8819 197.672 49.5746 197.609 49.21 197.609C48.8506 197.609 48.5225 197.685 48.2256 197.836C47.934 197.987 47.6814 198.195 47.4678 198.461C47.2595 198.727 47.0954 199.031 46.9756 199.375C46.861 199.714 46.8037 200.073 46.8037 200.453ZM59.7223 203.555V199.203C59.7223 198.87 59.6546 198.581 59.5192 198.336C59.389 198.086 59.1911 197.893 58.9254 197.758C58.6598 197.622 58.3317 197.555 57.9411 197.555C57.5765 197.555 57.2562 197.617 56.9801 197.742C56.7093 197.867 56.4958 198.031 56.3395 198.234C56.1885 198.438 56.1129 198.656 56.1129 198.891H54.6676C54.6676 198.589 54.7458 198.289 54.902 197.992C55.0583 197.695 55.2822 197.427 55.5739 197.188C55.8708 196.943 56.2249 196.75 56.6364 196.609C57.053 196.464 57.5166 196.391 58.027 196.391C58.6416 196.391 59.1833 196.495 59.652 196.703C60.126 196.911 60.4958 197.227 60.7614 197.648C61.0322 198.065 61.1676 198.589 61.1676 199.219V203.156C61.1676 203.438 61.1911 203.737 61.2379 204.055C61.29 204.372 61.3655 204.646 61.4645 204.875V205H59.9567C59.8838 204.833 59.8265 204.612 59.7848 204.336C59.7431 204.055 59.7223 203.794 59.7223 203.555ZM59.9723 199.875L59.9879 200.891H58.527C58.1155 200.891 57.7484 200.924 57.4254 200.992C57.1025 201.055 56.8317 201.151 56.6129 201.281C56.3942 201.411 56.2275 201.576 56.1129 201.773C55.9984 201.966 55.9411 202.193 55.9411 202.453C55.9411 202.719 56.001 202.961 56.1208 203.18C56.2405 203.398 56.4202 203.573 56.6598 203.703C56.9046 203.828 57.2041 203.891 57.5583 203.891C58.001 203.891 58.3916 203.797 58.7301 203.609C59.0687 203.422 59.3369 203.193 59.5348 202.922C59.7379 202.651 59.8473 202.388 59.8629 202.133L60.4801 202.828C60.4437 203.047 60.3447 203.289 60.1833 203.555C60.0218 203.82 59.8056 204.076 59.5348 204.32C59.2692 204.56 58.9515 204.76 58.5817 204.922C58.2171 205.078 57.8056 205.156 57.3473 205.156C56.7744 205.156 56.2718 205.044 55.8395 204.82C55.4124 204.596 55.0791 204.297 54.8395 203.922C54.6051 203.542 54.4879 203.117 54.4879 202.648C54.4879 202.195 54.5765 201.797 54.7536 201.453C54.9306 201.104 55.1859 200.815 55.5192 200.586C55.8525 200.352 56.2536 200.174 56.7223 200.055C57.1911 199.935 57.7145 199.875 58.2926 199.875H59.9723ZM59.3473 193.32H60.5192C60.5192 193.727 60.4254 194.089 60.2379 194.406C60.0504 194.719 59.7822 194.964 59.4333 195.141C59.0843 195.318 58.6702 195.406 58.1911 195.406C57.4671 195.406 56.8942 195.214 56.4723 194.828C56.0556 194.438 55.8473 193.935 55.8473 193.32H57.0192C57.0192 193.628 57.1077 193.898 57.2848 194.133C57.4619 194.367 57.764 194.484 58.1911 194.484C58.6077 194.484 58.9046 194.367 59.0817 194.133C59.2588 193.898 59.3473 193.628 59.3473 193.32ZM65.0784 198.352V205H63.6331V196.547H65.0003L65.0784 198.352ZM64.7346 200.453L64.1331 200.43C64.1383 199.852 64.2242 199.318 64.3909 198.828C64.5575 198.333 64.7919 197.904 65.094 197.539C65.3961 197.174 65.7555 196.893 66.1721 196.695C66.594 196.492 67.0601 196.391 67.5706 196.391C67.9872 196.391 68.3622 196.448 68.6956 196.562C69.0289 196.672 69.3128 196.849 69.5471 197.094C69.7867 197.339 69.969 197.656 70.094 198.047C70.219 198.432 70.2815 198.904 70.2815 199.461V205H68.8284V199.445C68.8284 199.003 68.7633 198.648 68.6331 198.383C68.5029 198.112 68.3128 197.917 68.0628 197.797C67.8128 197.672 67.5055 197.609 67.1409 197.609C66.7815 197.609 66.4534 197.685 66.1565 197.836C65.8648 197.987 65.6122 198.195 65.3987 198.461C65.1904 198.727 65.0263 199.031 64.9065 199.375C64.7919 199.714 64.7346 200.073 64.7346 200.453ZM78.1454 196.547H79.4579V204.82C79.4579 205.565 79.3068 206.201 79.0047 206.727C78.7027 207.253 78.2808 207.651 77.7391 207.922C77.2027 208.198 76.5829 208.336 75.8797 208.336C75.5881 208.336 75.2443 208.289 74.8485 208.195C74.4579 208.107 74.0725 207.953 73.6922 207.734C73.3172 207.521 73.0021 207.232 72.7469 206.867L73.5047 206.008C73.8589 206.435 74.2287 206.732 74.6141 206.898C75.0047 207.065 75.3902 207.148 75.7704 207.148C76.2287 207.148 76.6245 207.062 76.9579 206.891C77.2912 206.719 77.549 206.464 77.7313 206.125C77.9188 205.792 78.0126 205.38 78.0126 204.891V198.406L78.1454 196.547ZM72.3251 200.867V200.703C72.3251 200.057 72.4006 199.471 72.5516 198.945C72.7079 198.414 72.9292 197.958 73.2157 197.578C73.5074 197.198 73.8589 196.906 74.2704 196.703C74.6818 196.495 75.1454 196.391 75.661 196.391C76.1922 196.391 76.6558 196.484 77.0516 196.672C77.4527 196.854 77.7912 197.122 78.0672 197.477C78.3485 197.826 78.5699 198.247 78.7313 198.742C78.8928 199.237 79.0047 199.797 79.0672 200.422V201.141C79.01 201.76 78.898 202.318 78.7313 202.812C78.5699 203.307 78.3485 203.729 78.0672 204.078C77.7912 204.427 77.4527 204.695 77.0516 204.883C76.6506 205.065 76.1818 205.156 75.6454 205.156C75.1402 205.156 74.6818 205.049 74.2704 204.836C73.8641 204.622 73.5152 204.323 73.2235 203.938C72.9318 203.552 72.7079 203.099 72.5516 202.578C72.4006 202.052 72.3251 201.482 72.3251 200.867ZM73.7704 200.703V200.867C73.7704 201.289 73.812 201.685 73.8954 202.055C73.9839 202.424 74.1167 202.75 74.2938 203.031C74.4761 203.312 74.7079 203.534 74.9891 203.695C75.2704 203.852 75.6063 203.93 75.9969 203.93C76.4761 203.93 76.8719 203.828 77.1844 203.625C77.4969 203.422 77.7443 203.154 77.9266 202.82C78.1141 202.487 78.26 202.125 78.3641 201.734V199.852C78.3068 199.565 78.2183 199.289 78.0985 199.023C77.9839 198.753 77.8329 198.513 77.6454 198.305C77.4631 198.091 77.2365 197.922 76.9657 197.797C76.6949 197.672 76.3771 197.609 76.0126 197.609C75.6167 197.609 75.2756 197.693 74.9891 197.859C74.7079 198.021 74.4761 198.245 74.2938 198.531C74.1167 198.812 73.9839 199.141 73.8954 199.516C73.812 199.885 73.7704 200.281 73.7704 200.703ZM91.3341 203.359V193H92.7872V205H91.4591L91.3341 203.359ZM85.6466 200.867V200.703C85.6466 200.057 85.7247 199.471 85.8809 198.945C86.0424 198.414 86.269 197.958 86.5606 197.578C86.8575 197.198 87.2091 196.906 87.6153 196.703C88.0268 196.495 88.4851 196.391 88.9903 196.391C89.5216 196.391 89.9851 196.484 90.3809 196.672C90.782 196.854 91.1205 197.122 91.3966 197.477C91.6778 197.826 91.8992 198.247 92.0606 198.742C92.2221 199.237 92.3341 199.797 92.3966 200.422V201.141C92.3393 201.76 92.2273 202.318 92.0606 202.812C91.8992 203.307 91.6778 203.729 91.3966 204.078C91.1205 204.427 90.782 204.695 90.3809 204.883C89.9799 205.065 89.5111 205.156 88.9747 205.156C88.4799 205.156 88.0268 205.049 87.6153 204.836C87.2091 204.622 86.8575 204.323 86.5606 203.938C86.269 203.552 86.0424 203.099 85.8809 202.578C85.7247 202.052 85.6466 201.482 85.6466 200.867ZM87.0997 200.703V200.867C87.0997 201.289 87.1414 201.685 87.2247 202.055C87.3132 202.424 87.4486 202.75 87.6309 203.031C87.8132 203.312 88.045 203.534 88.3262 203.695C88.6075 203.852 88.9434 203.93 89.3341 203.93C89.8132 203.93 90.2065 203.828 90.5137 203.625C90.8262 203.422 91.0762 203.154 91.2637 202.82C91.4512 202.487 91.5971 202.125 91.7012 201.734V199.852C91.6387 199.565 91.5476 199.289 91.4278 199.023C91.3132 198.753 91.1622 198.513 90.9747 198.305C90.7924 198.091 90.5658 197.922 90.295 197.797C90.0294 197.672 89.7143 197.609 89.3497 197.609C88.9539 197.609 88.6127 197.693 88.3262 197.859C88.045 198.021 87.8132 198.245 87.6309 198.531C87.4486 198.812 87.3132 199.141 87.2247 199.516C87.1414 199.885 87.0997 200.281 87.0997 200.703ZM94.2559 194.18V195.367H89.2794V194.18H94.2559ZM100.745 203.555V199.203C100.745 198.87 100.677 198.581 100.542 198.336C100.411 198.086 100.214 197.893 99.9479 197.758C99.6823 197.622 99.3542 197.555 98.9636 197.555C98.599 197.555 98.2787 197.617 98.0026 197.742C97.7318 197.867 97.5182 198.031 97.362 198.234C97.211 198.438 97.1354 198.656 97.1354 198.891H95.6901C95.6901 198.589 95.7682 198.289 95.9245 197.992C96.0807 197.695 96.3047 197.427 96.5964 197.188C96.8932 196.943 97.2474 196.75 97.6589 196.609C98.0755 196.464 98.5391 196.391 99.0495 196.391C99.6641 196.391 100.206 196.495 100.674 196.703C101.148 196.911 101.518 197.227 101.784 197.648C102.055 198.065 102.19 198.589 102.19 199.219V203.156C102.19 203.438 102.214 203.737 102.26 204.055C102.313 204.372 102.388 204.646 102.487 204.875V205H100.979C100.906 204.833 100.849 204.612 100.807 204.336C100.766 204.055 100.745 203.794 100.745 203.555ZM100.995 199.875L101.01 200.891H99.5495C99.138 200.891 98.7709 200.924 98.4479 200.992C98.125 201.055 97.8542 201.151 97.6354 201.281C97.4167 201.411 97.25 201.576 97.1354 201.773C97.0209 201.966 96.9636 202.193 96.9636 202.453C96.9636 202.719 97.0235 202.961 97.1432 203.18C97.263 203.398 97.4427 203.573 97.6823 203.703C97.9271 203.828 98.2266 203.891 98.5807 203.891C99.0235 203.891 99.4141 203.797 99.7526 203.609C100.091 203.422 100.359 203.193 100.557 202.922C100.76 202.651 100.87 202.388 100.885 202.133L101.503 202.828C101.466 203.047 101.367 203.289 101.206 203.555C101.044 203.82 100.828 204.076 100.557 204.32C100.292 204.56 99.974 204.76 99.6042 204.922C99.2396 205.078 98.8281 205.156 98.3698 205.156C97.7969 205.156 97.2943 205.044 96.862 204.82C96.4349 204.596 96.1016 204.297 95.862 203.922C95.6276 203.542 95.5104 203.117 95.5104 202.648C95.5104 202.195 95.599 201.797 95.7761 201.453C95.9531 201.104 96.2084 200.815 96.5417 200.586C96.875 200.352 97.2761 200.174 97.7448 200.055C98.2136 199.935 98.737 199.875 99.3151 199.875H100.995ZM106.101 198.352V205H104.656V196.547H106.023L106.101 198.352ZM105.757 200.453L105.156 200.43C105.161 199.852 105.247 199.318 105.413 198.828C105.58 198.333 105.814 197.904 106.117 197.539C106.419 197.174 106.778 196.893 107.195 196.695C107.617 196.492 108.083 196.391 108.593 196.391C109.01 196.391 109.385 196.448 109.718 196.562C110.051 196.672 110.335 196.849 110.57 197.094C110.809 197.339 110.992 197.656 111.117 198.047C111.242 198.432 111.304 198.904 111.304 199.461V205H109.851V199.445C109.851 199.003 109.786 198.648 109.656 198.383C109.525 198.112 109.335 197.917 109.085 197.797C108.835 197.672 108.528 197.609 108.163 197.609C107.804 197.609 107.476 197.685 107.179 197.836C106.887 197.987 106.635 198.195 106.421 198.461C106.213 198.727 106.049 199.031 105.929 199.375C105.814 199.714 105.757 200.073 105.757 200.453ZM119.168 196.547H120.48V204.82C120.48 205.565 120.329 206.201 120.027 206.727C119.725 207.253 119.303 207.651 118.762 207.922C118.225 208.198 117.605 208.336 116.902 208.336C116.611 208.336 116.267 208.289 115.871 208.195C115.48 208.107 115.095 207.953 114.715 207.734C114.34 207.521 114.025 207.232 113.769 206.867L114.527 206.008C114.881 206.435 115.251 206.732 115.637 206.898C116.027 207.065 116.413 207.148 116.793 207.148C117.251 207.148 117.647 207.062 117.98 206.891C118.314 206.719 118.572 206.464 118.754 206.125C118.941 205.792 119.035 205.38 119.035 204.891V198.406L119.168 196.547ZM113.348 200.867V200.703C113.348 200.057 113.423 199.471 113.574 198.945C113.73 198.414 113.952 197.958 114.238 197.578C114.53 197.198 114.881 196.906 115.293 196.703C115.704 196.495 116.168 196.391 116.684 196.391C117.215 196.391 117.678 196.484 118.074 196.672C118.475 196.854 118.814 197.122 119.09 197.477C119.371 197.826 119.592 198.247 119.754 198.742C119.915 199.237 120.027 199.797 120.09 200.422V201.141C120.032 201.76 119.92 202.318 119.754 202.812C119.592 203.307 119.371 203.729 119.09 204.078C118.814 204.427 118.475 204.695 118.074 204.883C117.673 205.065 117.204 205.156 116.668 205.156C116.163 205.156 115.704 205.049 115.293 204.836C114.887 204.622 114.538 204.323 114.246 203.938C113.954 203.552 113.73 203.099 113.574 202.578C113.423 202.052 113.348 201.482 113.348 200.867ZM114.793 200.703V200.867C114.793 201.289 114.835 201.685 114.918 202.055C115.006 202.424 115.139 202.75 115.316 203.031C115.499 203.312 115.73 203.534 116.012 203.695C116.293 203.852 116.629 203.93 117.019 203.93C117.499 203.93 117.894 203.828 118.207 203.625C118.519 203.422 118.767 203.154 118.949 202.82C119.137 202.487 119.282 202.125 119.387 201.734V199.852C119.329 199.565 119.241 199.289 119.121 199.023C119.006 198.753 118.855 198.513 118.668 198.305C118.486 198.091 118.259 197.922 117.988 197.797C117.717 197.672 117.4 197.609 117.035 197.609C116.639 197.609 116.298 197.693 116.012 197.859C115.73 198.021 115.499 198.245 115.316 198.531C115.139 198.812 115.006 199.141 114.918 199.516C114.835 199.885 114.793 200.281 114.793 200.703ZM128.474 198.172V208.25H127.021V196.547H128.349L128.474 198.172ZM134.169 200.703V200.867C134.169 201.482 134.096 202.052 133.95 202.578C133.804 203.099 133.591 203.552 133.31 203.938C133.034 204.323 132.692 204.622 132.286 204.836C131.88 205.049 131.414 205.156 130.888 205.156C130.351 205.156 129.877 205.068 129.466 204.891C129.054 204.714 128.706 204.456 128.419 204.117C128.133 203.779 127.903 203.372 127.732 202.898C127.565 202.424 127.45 201.891 127.388 201.297V200.422C127.45 199.797 127.567 199.237 127.739 198.742C127.911 198.247 128.138 197.826 128.419 197.477C128.706 197.122 129.052 196.854 129.458 196.672C129.864 196.484 130.333 196.391 130.864 196.391C131.396 196.391 131.867 196.495 132.278 196.703C132.69 196.906 133.036 197.198 133.317 197.578C133.599 197.958 133.81 198.414 133.95 198.945C134.096 199.471 134.169 200.057 134.169 200.703ZM132.716 200.867V200.703C132.716 200.281 132.672 199.885 132.583 199.516C132.495 199.141 132.357 198.812 132.169 198.531C131.987 198.245 131.752 198.021 131.466 197.859C131.179 197.693 130.838 197.609 130.442 197.609C130.078 197.609 129.76 197.672 129.489 197.797C129.224 197.922 128.997 198.091 128.81 198.305C128.622 198.513 128.469 198.753 128.349 199.023C128.234 199.289 128.148 199.565 128.091 199.852V201.875C128.195 202.24 128.341 202.583 128.528 202.906C128.716 203.224 128.966 203.482 129.278 203.68C129.591 203.872 129.984 203.969 130.458 203.969C130.849 203.969 131.185 203.888 131.466 203.727C131.752 203.56 131.987 203.333 132.169 203.047C132.357 202.76 132.495 202.432 132.583 202.062C132.672 201.688 132.716 201.289 132.716 200.867ZM137.65 193V205H136.205V193H137.65ZM137.306 200.453L136.705 200.43C136.71 199.852 136.796 199.318 136.963 198.828C137.129 198.333 137.364 197.904 137.666 197.539C137.968 197.174 138.327 196.893 138.744 196.695C139.166 196.492 139.632 196.391 140.142 196.391C140.559 196.391 140.934 196.448 141.267 196.562C141.601 196.672 141.884 196.849 142.119 197.094C142.358 197.339 142.541 197.656 142.666 198.047C142.791 198.432 142.853 198.904 142.853 199.461V205H141.4V199.445C141.4 199.003 141.335 198.648 141.205 198.383C141.075 198.112 140.884 197.917 140.634 197.797C140.384 197.672 140.077 197.609 139.713 197.609C139.353 197.609 139.025 197.685 138.728 197.836C138.437 197.987 138.184 198.195 137.97 198.461C137.762 198.727 137.598 199.031 137.478 199.375C137.364 199.714 137.306 200.073 137.306 200.453ZM150.194 203.555V199.203C150.194 198.87 150.126 198.581 149.991 198.336C149.86 198.086 149.662 197.893 149.397 197.758C149.131 197.622 148.803 197.555 148.412 197.555C148.048 197.555 147.728 197.617 147.452 197.742C147.181 197.867 146.967 198.031 146.811 198.234C146.66 198.438 146.584 198.656 146.584 198.891H145.139C145.139 198.589 145.217 198.289 145.373 197.992C145.53 197.695 145.754 197.427 146.045 197.188C146.342 196.943 146.696 196.75 147.108 196.609C147.524 196.464 147.988 196.391 148.498 196.391C149.113 196.391 149.655 196.495 150.123 196.703C150.597 196.911 150.967 197.227 151.233 197.648C151.504 198.065 151.639 198.589 151.639 199.219V203.156C151.639 203.438 151.662 203.737 151.709 204.055C151.761 204.372 151.837 204.646 151.936 204.875V205H150.428C150.355 204.833 150.298 204.612 150.256 204.336C150.215 204.055 150.194 203.794 150.194 203.555ZM150.444 199.875L150.459 200.891H148.998C148.587 200.891 148.22 200.924 147.897 200.992C147.574 201.055 147.303 201.151 147.084 201.281C146.866 201.411 146.699 201.576 146.584 201.773C146.47 201.966 146.412 202.193 146.412 202.453C146.412 202.719 146.472 202.961 146.592 203.18C146.712 203.398 146.892 203.573 147.131 203.703C147.376 203.828 147.675 203.891 148.03 203.891C148.472 203.891 148.863 203.797 149.202 203.609C149.54 203.422 149.808 203.193 150.006 202.922C150.209 202.651 150.319 202.388 150.334 202.133L150.952 202.828C150.915 203.047 150.816 203.289 150.655 203.555C150.493 203.82 150.277 204.076 150.006 204.32C149.741 204.56 149.423 204.76 149.053 204.922C148.688 205.078 148.277 205.156 147.819 205.156C147.246 205.156 146.743 205.044 146.311 204.82C145.884 204.596 145.55 204.297 145.311 203.922C145.077 203.542 144.959 203.117 144.959 202.648C144.959 202.195 145.048 201.797 145.225 201.453C145.402 201.104 145.657 200.815 145.991 200.586C146.324 200.352 146.725 200.174 147.194 200.055C147.662 199.935 148.186 199.875 148.764 199.875H150.444ZM147.858 195.297L149.373 193H151.116L149.022 195.297H147.858ZM157.643 196.547V197.656H153.073V196.547H157.643ZM154.62 194.492H156.065V202.906C156.065 203.193 156.11 203.409 156.198 203.555C156.287 203.701 156.401 203.797 156.542 203.844C156.683 203.891 156.834 203.914 156.995 203.914C157.115 203.914 157.24 203.904 157.37 203.883C157.505 203.857 157.607 203.836 157.675 203.82L157.683 205C157.568 205.036 157.417 205.07 157.229 205.102C157.047 205.138 156.826 205.156 156.565 205.156C156.211 205.156 155.886 205.086 155.589 204.945C155.292 204.805 155.055 204.57 154.878 204.242C154.706 203.909 154.62 203.461 154.62 202.898V194.492ZM167.231 196.547V197.656H162.66V196.547H167.231ZM164.207 194.492H165.652V202.906C165.652 203.193 165.697 203.409 165.785 203.555C165.874 203.701 165.988 203.797 166.129 203.844C166.27 203.891 166.421 203.914 166.582 203.914C166.702 203.914 166.827 203.904 166.957 203.883C167.093 203.857 167.194 203.836 167.262 203.82L167.27 205C167.155 205.036 167.004 205.07 166.817 205.102C166.634 205.138 166.413 205.156 166.152 205.156C165.798 205.156 165.473 205.086 165.176 204.945C164.879 204.805 164.642 204.57 164.465 204.242C164.293 203.909 164.207 203.461 164.207 202.898V194.492ZM170.563 197.875V205H169.118V196.547H170.524L170.563 197.875ZM173.204 196.5L173.196 197.844C173.076 197.818 172.962 197.802 172.852 197.797C172.748 197.786 172.628 197.781 172.493 197.781C172.16 197.781 171.865 197.833 171.61 197.938C171.355 198.042 171.139 198.188 170.962 198.375C170.785 198.562 170.644 198.786 170.54 199.047C170.441 199.302 170.376 199.583 170.344 199.891L169.938 200.125C169.938 199.615 169.988 199.135 170.087 198.688C170.191 198.24 170.35 197.844 170.563 197.5C170.777 197.151 171.048 196.88 171.376 196.688C171.709 196.49 172.105 196.391 172.563 196.391C172.667 196.391 172.787 196.404 172.923 196.43C173.058 196.451 173.152 196.474 173.204 196.5ZM176.302 196.547V205H174.849V196.547H176.302ZM174.74 194.305C174.74 194.07 174.81 193.872 174.951 193.711C175.096 193.549 175.31 193.469 175.591 193.469C175.867 193.469 176.078 193.549 176.224 193.711C176.375 193.872 176.451 194.07 176.451 194.305C176.451 194.529 176.375 194.721 176.224 194.883C176.078 195.039 175.867 195.117 175.591 195.117C175.31 195.117 175.096 195.039 174.951 194.883C174.81 194.721 174.74 194.529 174.74 194.305ZM182.322 205.156C181.734 205.156 181.2 205.057 180.721 204.859C180.247 204.656 179.838 204.372 179.494 204.008C179.156 203.643 178.895 203.211 178.713 202.711C178.531 202.211 178.439 201.664 178.439 201.07V200.742C178.439 200.055 178.541 199.443 178.744 198.906C178.947 198.365 179.223 197.906 179.572 197.531C179.921 197.156 180.317 196.872 180.76 196.68C181.202 196.487 181.661 196.391 182.135 196.391C182.739 196.391 183.26 196.495 183.697 196.703C184.14 196.911 184.502 197.203 184.783 197.578C185.064 197.948 185.273 198.385 185.408 198.891C185.544 199.391 185.611 199.938 185.611 200.531V201.18H179.299V200H184.166V199.891C184.145 199.516 184.067 199.151 183.932 198.797C183.801 198.443 183.593 198.151 183.307 197.922C183.02 197.693 182.63 197.578 182.135 197.578C181.807 197.578 181.505 197.648 181.229 197.789C180.952 197.924 180.715 198.128 180.518 198.398C180.32 198.669 180.166 199 180.057 199.391C179.947 199.781 179.893 200.232 179.893 200.742V201.07C179.893 201.471 179.947 201.849 180.057 202.203C180.171 202.552 180.335 202.859 180.549 203.125C180.768 203.391 181.031 203.599 181.338 203.75C181.65 203.901 182.005 203.977 182.4 203.977C182.911 203.977 183.343 203.872 183.697 203.664C184.051 203.456 184.361 203.177 184.627 202.828L185.502 203.523C185.32 203.799 185.088 204.062 184.807 204.312C184.525 204.562 184.179 204.766 183.768 204.922C183.361 205.078 182.88 205.156 182.322 205.156ZM182.846 193.375L184.986 195.43H183.65L182.111 193.977L180.58 195.43H179.252L181.377 193.375H182.846ZM185.229 194.352H184.33L184.322 193.32C184.551 193.305 184.736 193.281 184.877 193.25C185.018 193.219 185.122 193.172 185.189 193.109C185.257 193.042 185.291 192.951 185.291 192.836C185.291 192.706 185.242 192.604 185.143 192.531C185.044 192.453 184.911 192.398 184.744 192.367C184.577 192.331 184.393 192.312 184.189 192.312L184.236 191.586C184.57 191.586 184.861 191.617 185.111 191.68C185.367 191.737 185.58 191.823 185.752 191.938C185.929 192.047 186.062 192.18 186.15 192.336C186.239 192.487 186.283 192.659 186.283 192.852C186.283 193.19 186.174 193.438 185.955 193.594C185.742 193.745 185.502 193.839 185.236 193.875L185.229 194.352ZM188.936 198.352V205H187.491V196.547H188.858L188.936 198.352ZM188.592 200.453L187.991 200.43C187.996 199.852 188.082 199.318 188.249 198.828C188.415 198.333 188.65 197.904 188.952 197.539C189.254 197.174 189.613 196.893 190.03 196.695C190.452 196.492 190.918 196.391 191.428 196.391C191.845 196.391 192.22 196.448 192.553 196.562C192.887 196.672 193.171 196.849 193.405 197.094C193.644 197.339 193.827 197.656 193.952 198.047C194.077 198.432 194.139 198.904 194.139 199.461V205H192.686V199.445C192.686 199.003 192.621 198.648 192.491 198.383C192.361 198.112 192.171 197.917 191.921 197.797C191.671 197.672 191.363 197.609 190.999 197.609C190.639 197.609 190.311 197.685 190.014 197.836C189.723 197.987 189.47 198.195 189.256 198.461C189.048 198.727 188.884 199.031 188.764 199.375C188.65 199.714 188.592 200.073 188.592 200.453Z" fill="#333333"/>
<defs>
<clipPath id="clip0_15232_188692">
<rect width="204" height="180" fill="white"/>
</clipPath>
</defs>
</svg>
