<svg xmlns="http://www.w3.org/2000/svg" width="29" height="28" viewBox="0 0 29 28" fill="none">
<rect x="0.5" width="28" height="28" rx="14" fill="#E4F9D2"/>
<path d="M14.4993 22.3999C14.2493 22.3999 13.9993 22.3416 13.791 22.2249C12.2327 21.3749 9.49102 20.4749 7.77435 20.2499L7.53268 20.2166C6.44102 20.0833 5.54102 19.0583 5.54102 17.9499V7.88326C5.54102 7.22492 5.79935 6.62493 6.27435 6.19159C6.74935 5.75826 7.36602 5.54993 8.01602 5.60826C9.84935 5.74993 12.616 6.66659 14.1827 7.64993L14.3827 7.76659C14.441 7.79993 14.566 7.79993 14.616 7.77493L14.7493 7.69159C16.316 6.70826 19.0827 5.77493 20.9243 5.61659C20.941 5.61659 21.0077 5.61659 21.0243 5.61659C21.6327 5.55826 22.2577 5.77493 22.7243 6.20826C23.1994 6.64159 23.4577 7.24159 23.4577 7.89992V17.9583C23.4577 19.0749 22.5577 20.0916 21.4577 20.2249L21.1827 20.2583C19.466 20.4833 16.716 21.3916 15.191 22.2333C14.991 22.3499 14.7493 22.3999 14.4993 22.3999ZM7.81602 6.84993C7.54935 6.84993 7.30768 6.94159 7.11602 7.11659C6.90768 7.30826 6.79102 7.58326 6.79102 7.88326V17.9499C6.79102 18.4416 7.21602 18.9166 7.69102 18.9833L7.94102 19.0166C9.81602 19.2666 12.691 20.2083 14.3577 21.1166C14.4327 21.1499 14.541 21.1583 14.5827 21.1416C16.2493 20.2166 19.141 19.2666 21.0243 19.0166L21.3077 18.9833C21.7827 18.9249 22.2077 18.4416 22.2077 17.9499V7.89159C22.2077 7.58326 22.091 7.31659 21.8827 7.11659C21.666 6.92493 21.391 6.83326 21.0827 6.84993C21.066 6.84993 20.9994 6.84993 20.9827 6.84993C19.391 6.99159 16.8243 7.84993 15.4243 8.72493L15.291 8.81659C14.8327 9.09993 14.1827 9.09993 13.741 8.82493L13.541 8.70826C12.116 7.83326 9.54935 6.98326 7.91602 6.84993C7.88268 6.84993 7.84935 6.84993 7.81602 6.84993Z" fill="#389E0D"/>
<path d="M14.5 21.7002C14.1583 21.7002 13.875 21.4169 13.875 21.0752V8.5752C13.875 8.23353 14.1583 7.9502 14.5 7.9502C14.8417 7.9502 15.125 8.23353 15.125 8.5752V21.0752C15.125 21.4252 14.8417 21.7002 14.5 21.7002Z" fill="#389E0D"/>
<path d="M10.959 11.7002H9.08398C8.74232 11.7002 8.45898 11.4169 8.45898 11.0752C8.45898 10.7335 8.74232 10.4502 9.08398 10.4502H10.959C11.3007 10.4502 11.584 10.7335 11.584 11.0752C11.584 11.4169 11.3007 11.7002 10.959 11.7002Z" fill="#389E0D"/>
<path d="M11.584 14.2002H9.08398C8.74232 14.2002 8.45898 13.9169 8.45898 13.5752C8.45898 13.2335 8.74232 12.9502 9.08398 12.9502H11.584C11.9257 12.9502 12.209 13.2335 12.209 13.5752C12.209 13.9169 11.9257 14.2002 11.584 14.2002Z" fill="#389E0D"/>
</svg>