<svg xmlns="http://www.w3.org/2000/svg" width="28" height="28" viewBox="0 0 28 28" fill="none">
<rect width="28" height="28" rx="14" fill="#FEF1D7"/>
<path fill-rule="evenodd" clip-rule="evenodd" d="M5.97859 9.68102C6.71643 8.80381 7.98144 8.375 9.83397 8.375H18.1673C20.0198 8.375 21.2848 8.80381 22.0227 9.68102C22.7534 10.5497 22.8229 11.691 22.7058 12.7551L22.0805 19.4249C21.9887 20.2817 21.7736 21.2209 21.0086 21.9198C20.2494 22.6134 19.073 22.9583 17.334 22.9583H10.6673C8.92826 22.9583 7.75191 22.6134 6.99263 21.9198C6.22768 21.2209 6.01265 20.2817 5.92086 19.4249L5.91998 19.4167L5.29551 12.7551C5.1784 11.691 5.2479 10.5497 5.97859 9.68102ZM6.93519 10.4856C6.54208 10.953 6.43143 11.6552 6.53851 12.6229L6.53966 12.6333L7.16418 19.2958C7.24755 20.0703 7.42015 20.6172 7.83573 20.9969C8.2577 21.3824 9.05635 21.7083 10.6673 21.7083H17.334C18.9449 21.7083 19.7436 21.3824 20.1655 20.9969C20.5811 20.6172 20.7537 20.0703 20.8371 19.2958L21.4627 12.6229C21.5698 11.6552 21.4592 10.953 21.0661 10.4856C20.6789 10.0254 19.8731 9.625 18.1673 9.625H9.83397C8.12817 9.625 7.32235 10.0254 6.93519 10.4856Z" fill="#FA541C"/>
<path fill-rule="evenodd" clip-rule="evenodd" d="M11.3294 7.37515C11.294 7.64631 11.293 7.95446 11.293 8.33317V8.99984C11.293 9.34502 11.0131 9.62484 10.668 9.62484C10.3228 9.62484 10.043 9.34502 10.043 8.99984L10.043 8.31151C10.0429 7.95857 10.0429 7.57308 10.0899 7.21333C10.1386 6.84058 10.2428 6.44484 10.4872 6.09136C11.0011 5.34775 11.9426 5.0415 13.3346 5.0415H14.668C16.06 5.0415 17.0015 5.34775 17.5155 6.09136C17.7598 6.44484 17.864 6.84058 17.9127 7.21333C17.9597 7.57308 17.9597 7.95858 17.9596 8.31152L17.9596 8.99984C17.9596 9.34502 17.6798 9.62484 17.3346 9.62484C16.9895 9.62484 16.7096 9.34502 16.7096 8.99984V8.33317C16.7096 7.95446 16.7086 7.64631 16.6732 7.37515C16.6386 7.10962 16.5762 6.93087 16.4872 6.80206C16.3344 6.58109 15.9426 6.2915 14.668 6.2915H13.3346C12.06 6.2915 11.6682 6.58109 11.5155 6.80206C11.4264 6.93087 11.364 7.10962 11.3294 7.37515Z" fill="#FA541C"/>
<path fill-rule="evenodd" clip-rule="evenodd" d="M12.9597 14.6257C12.959 14.6852 12.959 14.753 12.959 14.8333V15.6917C12.959 15.9263 12.961 16.0988 12.9814 16.2452C13.001 16.386 13.0321 16.4545 13.0585 16.4917C13.0879 16.5332 13.2345 16.7083 14.0007 16.7083C14.7703 16.7083 14.9151 16.5315 14.9439 16.4904C14.9705 16.4526 15.0015 16.383 15.0208 16.2406C15.0408 16.0925 15.0423 15.9191 15.0423 15.6833V14.8333C15.0423 14.753 15.0423 14.6852 15.0417 14.6257C14.9822 14.625 14.9144 14.625 14.834 14.625H13.1673C13.087 14.625 13.0191 14.625 12.9597 14.6257ZM13.14 13.375C13.1491 13.375 13.1582 13.375 13.1673 13.375H14.834C14.8431 13.375 14.8522 13.375 14.8614 13.375C15.0456 13.375 15.2324 13.3749 15.3848 13.3919C15.5401 13.4091 15.7981 13.4553 16.0051 13.6622C16.2121 13.8692 16.2582 14.1272 16.2755 14.2826C16.2924 14.4349 16.2924 14.6217 16.2923 14.806C16.2923 14.8151 16.2923 14.8242 16.2923 14.8333V15.6927C16.2923 15.9091 16.2923 16.1652 16.2595 16.4082C16.2254 16.6603 16.1507 16.9464 15.9678 17.2075C15.5778 17.7643 14.8893 17.9583 14.0007 17.9583C13.1169 17.9583 12.4301 17.7668 12.0387 17.2145C11.8546 16.9549 11.7784 16.6697 11.7433 16.4175C11.709 16.171 11.709 15.9112 11.709 15.6917V14.8333C11.709 14.8242 11.709 14.8151 11.709 14.806C11.7089 14.6217 11.7089 14.4349 11.7258 14.2826C11.7431 14.1272 11.7892 13.8692 11.9962 13.6622C12.2032 13.4553 12.4612 13.4091 12.6165 13.3919C12.7689 13.3749 12.9557 13.375 13.14 13.375Z" fill="#FA541C"/>
<path fill-rule="evenodd" clip-rule="evenodd" d="M22.5485 12.7989C22.7515 13.0781 22.6898 13.469 22.4106 13.672C20.3972 15.1363 18.0968 16.0073 15.7461 16.3033C15.4036 16.3464 15.0911 16.1038 15.0479 15.7613C15.0048 15.4188 15.2475 15.1062 15.5899 15.0631C17.7393 14.7925 19.8389 13.9968 21.6754 12.6611C21.9546 12.4581 22.3455 12.5198 22.5485 12.7989Z" fill="#FA541C"/>
<path fill-rule="evenodd" clip-rule="evenodd" d="M5.66789 13.0387C5.86285 12.7538 6.25182 12.6809 6.53666 12.8759C8.32741 14.1016 10.3468 14.8403 12.4032 15.0705C12.7462 15.109 12.9932 15.4182 12.9548 15.7612C12.9164 16.1042 12.6071 16.3512 12.2641 16.3128C10.0039 16.0597 7.7899 15.2484 5.83064 13.9074C5.5458 13.7125 5.47293 13.3235 5.66789 13.0387Z" fill="#FA541C"/>
</svg>