<svg width="32" height="32" viewBox="0 0 32 32" fill="none" xmlns="http://www.w3.org/2000/svg">
<path fill-rule="evenodd" clip-rule="evenodd" d="M16.0012 9.04541C16.443 9.04541 16.8012 9.40358 16.8012 9.84541V12.667C16.8012 13.1089 16.443 13.467 16.0012 13.467C15.5593 13.467 15.2012 13.1089 15.2012 12.667V9.84541C15.2012 9.40358 15.5593 9.04541 16.0012 9.04541Z" fill="#5C00FF"/>
<path fill-rule="evenodd" clip-rule="evenodd" d="M16.519 2.05689L16.0012 2.6667L15.4949 2.04727C15.7939 1.80293 16.2247 1.80698 16.519 2.05689ZM15.9904 3.7569C15.8995 3.84537 15.8007 3.9445 15.6971 4.05281C15.2309 4.54055 14.7024 5.18077 14.361 5.85054C14.0137 6.53182 13.9246 7.11096 14.1014 7.57324C14.2628 7.99533 14.7311 8.53895 15.9959 8.99824C17.1949 8.544 17.6419 8.0074 17.7982 7.58266C17.9722 7.10995 17.8823 6.52151 17.5477 5.8396C17.2185 5.16876 16.7097 4.52861 16.2617 4.04168C16.1662 3.93786 16.0748 3.84251 15.9904 3.7569ZM15.4949 2.04727C15.4952 2.04706 15.4949 2.04727 16.0012 2.6667C16.519 2.05689 16.5188 2.05668 16.519 2.05689L16.5201 2.05783L16.5218 2.05924L16.5267 2.06347L16.543 2.07751C16.5565 2.08931 16.5756 2.10597 16.5994 2.12723C16.6472 2.16975 16.7146 2.23078 16.797 2.30833C16.9616 2.46314 17.1879 2.68523 17.4392 2.95837C17.9348 3.49707 18.5584 4.26716 18.9841 5.13477C19.4044 5.9913 19.692 7.06952 19.2998 8.13525C18.9004 9.22042 17.8884 10.05 16.2585 10.6036C16.0946 10.6593 15.9171 10.6603 15.7526 10.6065C14.0725 10.0573 13.0234 9.2339 12.6069 8.14467C12.1954 7.0685 12.4985 5.98099 12.9355 5.12383C13.3784 4.25515 14.0264 3.48513 14.5405 2.94724C14.8014 2.67437 15.0362 2.45255 15.2069 2.29799C15.2924 2.22058 15.3623 2.15966 15.4118 2.11727C15.4365 2.09606 15.4562 2.07946 15.4702 2.06772L15.487 2.05377L15.4921 2.04957L15.4949 2.04727Z" fill="#5C00FF"/>
<path fill-rule="evenodd" clip-rule="evenodd" d="M4.49727 20.4951C4.93909 20.4951 5.29727 20.8533 5.29727 21.2951V28.3079C5.29727 28.3626 5.3193 28.4184 5.36372 28.4619C5.40867 28.506 5.47288 28.5335 5.54301 28.5335H26.458C26.5281 28.5335 26.5924 28.506 26.6373 28.4619C26.6817 28.4184 26.7037 28.3626 26.7037 28.3079V21.2951C26.7037 20.8533 27.0619 20.4951 27.5037 20.4951C27.9456 20.4951 28.3038 20.8533 28.3038 21.2951V28.3079C28.3038 28.7971 28.1054 29.2631 27.7576 29.6043C27.4103 29.9449 26.9426 30.1335 26.458 30.1335H5.54301C5.05845 30.1335 4.59068 29.9449 4.24339 29.6043C3.89558 29.2631 3.69727 28.7971 3.69727 28.3079V21.2951C3.69727 20.8533 4.05544 20.4951 4.49727 20.4951Z" fill="#FF3434"/>
<path fill-rule="evenodd" clip-rule="evenodd" d="M6.31512 13.561C4.48111 13.561 2.99436 14.9587 2.99436 16.6829V17.2696C2.99916 17.295 3.00607 17.3298 3.01543 17.3729C3.03879 17.4805 3.07713 17.6387 3.13538 17.8303C3.25276 18.2165 3.44627 18.7232 3.74976 19.2225C4.35156 20.2126 5.32997 21.1057 7.00694 21.1057C8.86096 21.1057 9.66445 20.5401 10.1007 20.0714C10.305 19.8519 10.4429 19.6408 10.5885 19.4179C10.6188 19.3717 10.6493 19.3249 10.6809 19.2774C10.7603 19.158 10.8756 18.9886 11.0209 18.8494C11.1758 18.7012 11.4518 18.5041 11.8497 18.5041C12.2198 18.5041 12.4923 18.677 12.6456 18.7975C12.8047 18.9225 12.9427 19.0769 13.0519 19.2066C13.1463 19.3187 13.2292 19.423 13.3108 19.5256C13.4512 19.7021 13.5875 19.8735 13.7717 20.0714C14.2919 20.6304 14.948 21.1057 16.0007 21.1057C17.0533 21.1057 17.7094 20.6304 18.2296 20.0714C18.4138 19.8735 18.5501 19.7021 18.6905 19.5256C18.7721 19.423 18.855 19.3187 18.9494 19.2066C19.0586 19.0769 19.1966 18.9225 19.3557 18.7975C19.509 18.677 19.7815 18.5041 20.1516 18.5041C20.5495 18.5041 20.8255 18.7012 20.9804 18.8494C21.1257 18.9886 21.241 19.158 21.3204 19.2774C21.352 19.3249 21.3825 19.3717 21.4128 19.4179C21.5584 19.6408 21.6963 19.8519 21.9006 20.0714C22.3368 20.5401 23.1403 21.1057 24.9944 21.1057C26.6713 21.1057 27.6497 20.2126 28.2515 19.2225C28.555 18.7232 28.7485 18.2165 28.8659 17.8303C28.9242 17.6387 28.9625 17.4805 28.9859 17.3729C28.9952 17.3298 29.0021 17.295 29.0069 17.2696V16.6829C29.0069 14.9587 27.5202 13.561 25.6862 13.561H6.31512ZM29.8371 17.3333L30.659 17.4437C30.6645 17.4072 30.6673 17.3703 30.6673 17.3333V16.6829C30.6673 14.0966 28.4372 12 25.6862 12H6.31512C3.56411 12 1.33398 14.0966 1.33398 16.6829V17.3333C1.33398 17.3703 1.33677 17.4072 1.34233 17.4437L2.16417 17.3333C1.34233 17.4437 1.34227 17.4434 1.34233 17.4437L1.34255 17.4452L1.34285 17.4471L1.34365 17.4522L1.3461 17.4672C1.34813 17.4794 1.35097 17.4959 1.3547 17.5163C1.36216 17.5573 1.37322 17.6142 1.38858 17.685C1.41927 17.8264 1.46741 18.0239 1.53888 18.2591C1.68093 18.7265 1.91981 19.3581 2.30815 19.997C3.09 21.2833 4.53297 22.6667 7.00694 22.6667C9.30387 22.6667 10.5758 21.9314 11.3503 21.0993C11.5878 20.8441 11.773 20.5834 11.9119 20.375C11.9153 20.3793 11.9187 20.3836 11.9222 20.3879C12.0845 20.591 12.3008 20.8615 12.5221 21.0993C13.2126 21.8412 14.286 22.6667 16.0007 22.6667C17.7153 22.6667 18.7887 21.8412 19.4792 21.0993C19.7005 20.8615 19.9168 20.591 20.0791 20.3879C20.0826 20.3836 20.086 20.3793 20.0894 20.375C20.2283 20.5834 20.4135 20.8441 20.651 21.0993C21.4255 21.9314 22.6974 22.6667 24.9944 22.6667C27.4683 22.6667 28.9113 21.2833 29.6932 19.997C30.0815 19.3581 30.3204 18.7265 30.4624 18.2591C30.5339 18.0239 30.582 17.8264 30.6127 17.685C30.6281 17.6142 30.6391 17.5573 30.6466 17.5163C30.6482 17.5073 30.6497 17.499 30.651 17.4915C30.6527 17.4821 30.6541 17.474 30.6552 17.4672L30.6577 17.4522L30.6585 17.4471L30.6587 17.4452L30.659 17.4437C30.659 17.4434 30.659 17.4437 29.8371 17.3333Z" fill="#5C00FF"/>
</svg>
