<svg xmlns="http://www.w3.org/2000/svg" width="16" height="16" viewBox="0 0 16 16" fill="none">
<path d="M2.33398 12.5002C2.06065 12.5002 1.83398 12.2735 1.83398 12.0002V4.66683C1.83398 1.72683 2.72732 0.833496 5.66732 0.833496H10.334C13.274 0.833496 14.1673 1.72683 14.1673 4.66683V11.3335C14.1673 11.4402 14.1673 11.5402 14.1607 11.6468C14.1407 11.9202 13.894 12.1335 13.6273 12.1135C13.354 12.0935 13.1407 11.8535 13.1607 11.5802C13.1673 11.5002 13.1673 11.4135 13.1673 11.3335V4.66683C13.1673 2.28683 12.7207 1.8335 10.334 1.8335H5.66732C3.28065 1.8335 2.83398 2.28683 2.83398 4.66683V12.0002C2.83398 12.2735 2.60732 12.5002 2.33398 12.5002Z" fill="#8A8A8A"/>
<path d="M11.334 15.1667H4.66732C3.10732 15.1667 1.83398 13.8933 1.83398 12.3333V11.9C1.83398 10.5733 2.91398 9.5 4.23398 9.5H13.6673C13.9407 9.5 14.1673 9.72667 14.1673 10V12.3333C14.1673 13.8933 12.894 15.1667 11.334 15.1667ZM4.23398 10.5C3.46065 10.5 2.83398 11.1267 2.83398 11.9V12.3333C2.83398 13.3467 3.65398 14.1667 4.66732 14.1667H11.334C12.3473 14.1667 13.1673 13.3467 13.1673 12.3333V10.5H4.23398Z" fill="#8A8A8A"/>
<path d="M10.6673 5.1665H5.33398C5.06065 5.1665 4.83398 4.93984 4.83398 4.6665C4.83398 4.39317 5.06065 4.1665 5.33398 4.1665H10.6673C10.9407 4.1665 11.1673 4.39317 11.1673 4.6665C11.1673 4.93984 10.9407 5.1665 10.6673 5.1665Z" fill="#8A8A8A"/>
<path d="M8.66732 7.5H5.33398C5.06065 7.5 4.83398 7.27333 4.83398 7C4.83398 6.72667 5.06065 6.5 5.33398 6.5H8.66732C8.94065 6.5 9.16732 6.72667 9.16732 7C9.16732 7.27333 8.94065 7.5 8.66732 7.5Z" fill="#8A8A8A"/>
</svg>