<svg width="24" height="24" viewBox="0 0 24 24" fill="none" xmlns="http://www.w3.org/2000/svg">
<path fill-rule="evenodd" clip-rule="evenodd" d="M1.40039 11.6002C1.40039 10.1643 2.56445 9.00024 4.00039 9.00024H17.0004C18.4363 9.00024 19.6004 10.1643 19.6004 11.6002V13.0001C19.6004 13.3315 19.3318 13.6001 19.0004 13.6001C18.669 13.6001 18.4004 13.3315 18.4004 13.0001V11.6002C18.4004 10.827 17.7736 10.2002 17.0004 10.2002H4.00039C3.22719 10.2002 2.60039 10.827 2.60039 11.6002V19.0001C2.60039 19.7733 3.22719 20.4001 4.00039 20.4001L12.0004 20.4001C12.3318 20.4002 12.6004 20.6688 12.6004 21.0002C12.6004 21.3315 12.3318 21.6002 12.0004 21.6001L4.00039 21.6001C2.56445 21.6001 1.40039 20.4361 1.40039 19.0001V11.6002Z" fill="#008A5A"/>
<path fill-rule="evenodd" clip-rule="evenodd" d="M6.97341 3.49569C6.18361 4.25312 5.60039 5.78152 5.60039 9.00015C5.60039 9.33152 5.33176 9.60015 5.00039 9.60015C4.66902 9.60015 4.40039 9.33152 4.40039 9.00015C4.40039 5.71878 4.97747 3.74718 6.14281 2.6296C7.31239 1.50796 8.92365 1.40015 10.5003 1.40015C12.077 1.40015 13.6883 1.50796 14.8579 2.62959C16.0233 3.74717 16.6004 5.71877 16.6004 9.00015C16.6004 9.33152 16.3318 9.60015 16.0004 9.60015C15.669 9.60015 15.4004 9.33152 15.4004 9.00015C15.4004 5.78152 14.8171 4.25312 14.0273 3.4957C13.2417 2.74233 12.103 2.60015 10.5003 2.60015C8.89768 2.60015 7.75897 2.74233 6.97341 3.49569Z" fill="#008A5A"/>
<path d="M11.4766 14.4026C11.4766 14.9549 11.0288 15.4026 10.4766 15.4026C9.92428 15.4026 9.47656 14.9549 9.47656 14.4026C9.47656 13.8503 9.92428 13.4026 10.4766 13.4026C11.0288 13.4026 11.4766 13.8503 11.4766 14.4026Z" fill="#008A5A"/>
<path fill-rule="evenodd" clip-rule="evenodd" d="M10.5004 13.9001C10.8318 13.9001 11.1004 14.1688 11.1004 14.5001V17.5001C11.1004 17.8315 10.8318 18.1001 10.5004 18.1001C10.169 18.1001 9.90039 17.8315 9.90039 17.5001V14.5001C9.90039 14.1688 10.169 13.9001 10.5004 13.9001Z" fill="#008A5A"/>
<path fill-rule="evenodd" clip-rule="evenodd" d="M22.0001 14.865C22.3315 14.865 22.6001 15.1336 22.6001 15.465V17.3743C22.6001 17.7056 22.3315 17.9743 22.0001 17.9743H20.0043C19.6729 17.9743 19.4043 17.7056 19.4043 17.3743C19.4043 17.0429 19.6729 16.7743 20.0043 16.7743H21.4001V15.465C21.4001 15.1336 21.6687 14.865 22.0001 14.865Z" fill="#008A5A"/>
<path fill-rule="evenodd" clip-rule="evenodd" d="M18.0007 15.6001C17.5956 15.6001 17.195 15.6766 16.8221 15.8245C16.4492 15.9724 16.1121 16.1885 15.8295 16.4593C15.5902 16.6885 15.2104 16.6804 14.9812 16.4411C14.752 16.2018 14.7601 15.822 14.9994 15.5928C15.3957 15.2131 15.8649 14.9132 16.3796 14.7091C16.8942 14.5049 17.445 14.4001 18.0007 14.4001C18.5564 14.4001 19.1072 14.5049 19.6218 14.7091C20.1363 14.9131 20.6053 15.2128 21.0015 15.5923C21.0017 15.5924 21.0019 15.5926 21.002 15.5928L22.4148 16.9403C22.6546 17.169 22.6636 17.5488 22.4348 17.7886C22.2061 18.0284 21.8263 18.0373 21.5865 17.8086L20.1728 16.4602L20.1719 16.4593C19.8893 16.1885 19.5522 15.9724 19.1794 15.8245C18.8065 15.6766 18.4059 15.6001 18.0007 15.6001Z" fill="#008A5A"/>
<path fill-rule="evenodd" clip-rule="evenodd" d="M13.4004 19.6259C13.4004 19.2945 13.669 19.0259 14.0004 19.0259H15.9962C16.3276 19.0259 16.5962 19.2945 16.5962 19.6259C16.5962 19.9572 16.3276 20.2259 15.9962 20.2259H14.6004V21.5352C14.6004 21.8665 14.3318 22.1352 14.0004 22.1352C13.669 22.1352 13.4004 21.8665 13.4004 21.5352V19.6259Z" fill="#008A5A"/>
<path fill-rule="evenodd" clip-rule="evenodd" d="M13.5662 19.2118C13.7949 18.972 14.1747 18.963 14.4145 19.1917L15.8292 20.5411C16.1118 20.8118 16.4488 21.0279 16.8217 21.1758C17.1946 21.3237 17.5952 21.4002 18.0004 21.4002C18.4055 21.4002 18.8061 21.3237 19.179 21.1758C19.5519 21.0279 19.8889 20.8118 20.1715 20.5411C20.4108 20.3118 20.7906 20.32 21.0199 20.5592C21.2491 20.7985 21.241 21.1783 21.0017 21.4076C20.6054 21.7872 20.1361 22.0871 19.6215 22.2913C19.1068 22.4954 18.556 22.6002 18.0004 22.6002C17.4447 22.6002 16.8939 22.4954 16.3792 22.2913C15.8648 22.0872 15.3957 21.7875 14.9995 21.408C14.9993 21.4079 14.9997 21.4082 14.9995 21.408L13.5863 20.06C13.3465 19.8313 13.3375 19.4515 13.5662 19.2118Z" fill="#008A5A"/>
</svg>
