<svg width="22" height="22" viewBox="0 0 22 22" fill="none" xmlns="http://www.w3.org/2000/svg">
<path fill-rule="evenodd" clip-rule="evenodd" d="M15.25 9.5C15.25 9.08579 14.9142 8.75 14.5 8.75H7.5C7.08579 8.75 6.75 9.08579 6.75 9.5C6.75 9.91421 7.08579 10.25 7.5 10.25H14.5C14.9142 10.25 15.25 9.91421 15.25 9.5Z" fill="#333333"/>
<path fill-rule="evenodd" clip-rule="evenodd" d="M20.167 1.91922C19.1348 0.83998 17.6808 0.25 16 0.25H6C4.31925 0.25 2.86523 0.83998 1.833 1.91922C0.803642 2.99545 0.25 4.4987 0.25 6.22769V12.5009C0.25 14.2299 0.803642 15.7332 1.833 16.8094C2.70834 17.7246 3.88698 18.288 5.25 18.4381V19.9556C5.25 21.3386 6.77318 22.2784 7.97821 21.4392M7.97821 21.4392L12.2352 18.4786H16C17.6808 18.4786 19.1348 17.8886 20.167 16.8094C21.1964 15.7332 21.75 14.2299 21.75 12.5009V6.22769C21.75 4.4987 21.1964 2.99545 20.167 1.91922M19.083 2.95601C19.8036 3.70947 20.25 4.82007 20.25 6.22769V12.5009C20.25 13.9086 19.8036 15.0191 19.083 15.7726C18.3652 16.5231 17.3192 16.9786 16 16.9786H12C11.8469 16.9786 11.6975 17.0255 11.5718 17.1129L7.12177 20.2077C7.04486 20.2613 6.96658 20.2618 6.89248 20.2205C6.81657 20.1782 6.75 20.0921 6.75 19.9556V17.7286C6.75 17.3144 6.41421 16.9786 6 16.9786C4.68075 16.9786 3.63477 16.5231 2.917 15.7726C2.19636 15.0191 1.75 13.9086 1.75 12.5009V6.22769C1.75 4.82007 2.19636 3.70947 2.917 2.95601C3.63477 2.20556 4.68075 1.75 6 1.75H16C17.3192 1.75 18.3652 2.20556 19.083 2.95601Z" fill="#333333"/>
</svg>
