<svg xmlns="http://www.w3.org/2000/svg" width="16" height="16" viewBox="0 0 16 16" fill="none">
<path d="M5.33398 15.1668C2.85398 15.1668 0.833984 13.1468 0.833984 10.6668C0.833984 8.64009 2.19398 6.85342 4.14732 6.32676C4.39398 6.26009 4.64732 6.38676 4.74065 6.62676C5.14732 7.64676 6.01398 8.42676 7.07398 8.71342C7.66065 8.87342 8.34065 8.87342 8.91398 8.71342C9.16065 8.64676 9.42065 8.77342 9.51398 9.01342C9.72065 9.54009 9.82732 10.1001 9.82732 10.6734C9.82732 11.9534 9.28065 13.1734 8.32732 14.0201C7.51398 14.7534 6.44732 15.1668 5.33398 15.1668ZM4.01398 7.42009C2.71398 7.95342 1.83398 9.23342 1.83398 10.6668C1.83398 12.5934 3.40732 14.1668 5.33398 14.1668C6.20065 14.1668 7.02732 13.8468 7.66732 13.2668C8.41398 12.6068 8.83398 11.6601 8.83398 10.6668C8.83398 10.3601 8.79398 10.0668 8.72065 9.78009C8.09398 9.88009 7.41398 9.84676 6.81398 9.68009C5.60732 9.34676 4.59398 8.52009 4.01398 7.42009Z" fill="#8A8A8A"/>
<path d="M8 9.8335C7.58667 9.8335 7.18667 9.78016 6.81333 9.6735C5.46 9.30016 4.33333 8.30016 3.81333 6.98683C3.60667 6.46683 3.5 5.90683 3.5 5.3335C3.5 2.8535 5.52 0.833496 8 0.833496C10.48 0.833496 12.5 2.8535 12.5 5.3335C12.5 5.90683 12.3933 6.46683 12.1867 6.9935C11.6667 8.30016 10.5467 9.30683 9.18667 9.68016C8.81333 9.78016 8.41333 9.8335 8 9.8335ZM8 1.8335C6.07333 1.8335 4.5 3.40683 4.5 5.3335C4.5 5.78016 4.58 6.2135 4.74667 6.62016C5.15333 7.64016 6.02 8.42016 7.08 8.70683C7.66667 8.86683 8.34667 8.86683 8.92 8.70683C9.98 8.42016 10.8533 7.6335 11.2533 6.62016C11.4133 6.2135 11.5 5.78016 11.5 5.3335C11.5 3.40683 9.92667 1.8335 8 1.8335Z" fill="#8A8A8A"/>
<path d="M10.6667 15.1668C9.55333 15.1668 8.48667 14.7535 7.66667 14.0135C7.56 13.9201 7.5 13.7801 7.5 13.6401C7.5 13.5001 7.56 13.3601 7.66667 13.2668C8.40667 12.6135 8.83333 11.6668 8.83333 10.6668C8.83333 10.2201 8.75333 9.78681 8.58667 9.38015C8.53333 9.24681 8.54 9.10015 8.60667 8.97348C8.67333 8.84681 8.78667 8.75348 8.92 8.71348C9.98 8.42681 10.8467 7.64681 11.2533 6.62681C11.3467 6.38681 11.6067 6.26681 11.8467 6.32681C13.8 6.86015 15.16 8.64015 15.16 10.6668C15.1667 13.1468 13.1467 15.1668 10.6667 15.1668ZM8.74667 13.5935C9.31333 13.9668 9.97333 14.1668 10.6667 14.1668C12.5933 14.1668 14.1667 12.5935 14.1667 10.6668C14.1667 9.23348 13.2867 7.95348 11.9867 7.42015C11.4933 8.36015 10.6667 9.10681 9.68 9.50681C9.78 9.88015 9.83333 10.2735 9.83333 10.6668C9.83333 11.7468 9.44667 12.7868 8.74667 13.5935Z" fill="#8A8A8A"/>
</svg>