<svg width="24" height="24" viewBox="0 0 24 24" fill="none" xmlns="http://www.w3.org/2000/svg">
<path d="M2.25038 14.4952C2.07756 13.7202 1.99366 12.9273 2.00037 12.1325C2.04204 6.5024 6.60474 1.94725 12.105 2.00046C14.4547 2.02578 16.7207 2.89567 18.5054 4.45753C20.29 6.01939 21.4793 8.17344 21.8646 10.5418C22.2499 12.9101 21.8066 15.3414 20.6125 17.4091C19.4184 19.4768 17.5497 21.0489 15.3343 21.8495C14.9574 21.9882 14.5534 22.0319 14.1565 21.977C13.7595 21.9221 13.3814 21.7702 13.0542 21.5341C12.727 21.298 12.4604 20.9847 12.277 20.6209C12.0936 20.2571 11.9989 19.8534 12.0008 19.4442V19.0291C12.0022 18.6933 11.9385 18.3605 11.8133 18.0499C11.6882 17.7394 11.5041 17.4573 11.2716 17.2198C11.0392 16.9823 10.763 16.7942 10.4591 16.6664C10.1551 16.5385 9.82941 16.4734 9.5007 16.4748H4.68799C4.12243 16.4752 3.57345 16.2796 3.13071 15.9201C2.68797 15.5605 2.37764 15.0582 2.25038 14.4952V14.4952Z" stroke="#212121" stroke-width="1.2" stroke-linecap="round" stroke-linejoin="round"/>
<path d="M12.3047 7.63281C11.7524 7.63281 11.3047 7.1851 11.3047 6.63281C11.3047 6.08053 11.7524 5.63281 12.3047 5.63281C12.857 5.63281 13.3047 6.08053 13.3047 6.63281C13.3047 7.1851 12.857 7.63281 12.3047 7.63281Z" fill="#F7C100"/>
<path d="M16.6484 10.3672C16.0962 10.3672 15.6484 9.91947 15.6484 9.36719C15.6484 8.8149 16.0962 8.36719 16.6484 8.36719C17.2007 8.36719 17.6484 8.8149 17.6484 9.36719C17.6484 9.91947 17.2007 10.3672 16.6484 10.3672Z" fill="#0054FC"/>
<path d="M16.6484 15.8203C16.0962 15.8203 15.6484 15.3726 15.6484 14.8203C15.6484 14.268 16.0962 13.8203 16.6484 13.8203C17.2007 13.8203 17.6484 14.268 17.6484 14.8203C17.6484 15.3726 17.2007 15.8203 16.6484 15.8203Z" fill="#AC4E9A"/>
<path d="M7.08594 10.3672C6.53365 10.3672 6.08594 9.91947 6.08594 9.36719C6.08594 8.8149 6.53365 8.36719 7.08594 8.36719C7.63822 8.36719 8.08594 8.8149 8.08594 9.36719C8.08594 9.91947 7.63822 10.3672 7.08594 10.3672Z" fill="#FF6B22"/>
</svg>
