<svg xmlns="http://www.w3.org/2000/svg" width="29" height="28" viewBox="0 0 29 28" fill="none">
<rect x="0.5" width="28" height="28" rx="14" fill="#E7FDFE"/>
<path d="M16.9993 22.9582H11.9993C7.47435 22.9582 5.54102 21.0248 5.54102 16.4998V11.4998C5.54102 6.97484 7.47435 5.0415 11.9993 5.0415H16.166C16.5077 5.0415 16.791 5.32484 16.791 5.6665C16.791 6.00817 16.5077 6.2915 16.166 6.2915H11.9993C8.15768 6.2915 6.79102 7.65817 6.79102 11.4998V16.4998C6.79102 20.3415 8.15768 21.7082 11.9993 21.7082H16.9993C20.841 21.7082 22.2077 20.3415 22.2077 16.4998V12.3332C22.2077 11.9915 22.491 11.7082 22.8327 11.7082C23.1744 11.7082 23.4577 11.9915 23.4577 12.3332V16.4998C23.4577 21.0248 21.5243 22.9582 16.9993 22.9582Z" fill="#08979C"/>
<path d="M22.8327 12.9584H19.4993C16.6493 12.9584 15.541 11.8501 15.541 9.00007V5.66674C15.541 5.41674 15.691 5.18341 15.9243 5.09174C16.1577 4.99174 16.4243 5.05007 16.6077 5.22507L23.2743 11.8917C23.4493 12.0667 23.5077 12.3417 23.4077 12.5751C23.3077 12.8084 23.0827 12.9584 22.8327 12.9584ZM16.791 7.17507V9.00007C16.791 11.1501 17.3493 11.7084 19.4993 11.7084H21.3243L16.791 7.17507Z" fill="#08979C"/>
<path d="M15.334 15.4585H10.334C9.99232 15.4585 9.70898 15.1752 9.70898 14.8335C9.70898 14.4918 9.99232 14.2085 10.334 14.2085H15.334C15.6757 14.2085 15.959 14.4918 15.959 14.8335C15.959 15.1752 15.6757 15.4585 15.334 15.4585Z" fill="#08979C"/>
<path d="M13.6673 18.7915H10.334C9.99232 18.7915 9.70898 18.5082 9.70898 18.1665C9.70898 17.8248 9.99232 17.5415 10.334 17.5415H13.6673C14.009 17.5415 14.2923 17.8248 14.2923 18.1665C14.2923 18.5082 14.009 18.7915 13.6673 18.7915Z" fill="#08979C"/>
</svg>