<svg width="24" height="24" viewBox="0 0 24 24" fill="none" xmlns="http://www.w3.org/2000/svg">
<path fill-rule="evenodd" clip-rule="evenodd" d="M10.0024 8.5999C8.95436 8.5999 8.10039 9.45277 8.10039 10.5123C8.10039 11.8854 8.73369 12.9934 9.55064 13.8294C10.3748 14.6728 11.3485 15.1984 11.915 15.3916L11.9176 15.3924C11.9193 15.3928 11.9252 15.3942 11.9359 15.3957C11.9532 15.3982 11.9756 15.3999 12.0004 15.3999C12.0252 15.3999 12.0476 15.3982 12.0649 15.3957C12.0755 15.3942 12.0814 15.3929 12.0832 15.3924L12.0858 15.3915L12.0858 15.3916C12.6522 15.1984 13.626 14.6728 14.4501 13.8294C15.2671 12.9934 15.9004 11.8854 15.9004 10.5123C15.9004 9.45277 15.0464 8.5999 13.9984 8.5999C13.3818 8.5999 12.8281 8.89897 12.4819 9.36466C12.3687 9.51691 12.1901 9.60664 12.0004 9.60664C11.8107 9.60664 11.6321 9.51691 11.5189 9.36466C11.1723 8.89848 10.6229 8.5999 10.0024 8.5999ZM6.90039 10.5123C6.90039 8.79423 8.28742 7.3999 10.0024 7.3999C10.7657 7.3999 11.4627 7.67704 12.0007 8.1348C12.54 7.67684 13.2388 7.3999 13.9984 7.3999C15.7134 7.3999 17.1004 8.79423 17.1004 10.5123C17.1004 12.2851 16.2757 13.6783 15.3084 14.6681C14.3494 15.6495 13.2141 16.2741 12.4755 16.5265C12.3159 16.5822 12.1435 16.5999 12.0004 16.5999C11.8573 16.5999 11.6849 16.5822 11.5253 16.5265C10.7867 16.2741 9.6514 15.6495 8.69239 14.6681C7.72509 13.6783 6.90039 12.2851 6.90039 10.5123Z" fill="#F85555"/>
<path fill-rule="evenodd" clip-rule="evenodd" d="M12.5883 2.61832C10.303 2.4751 8.04406 3.17096 6.23546 4.57526C4.42687 5.97957 3.19305 7.99573 2.76563 10.2453C2.33821 12.4948 2.74659 14.823 3.91411 16.7928C3.99796 16.9342 4.02007 17.1039 3.97527 17.2621L2.99367 20.7291C2.9824 20.7676 2.98168 20.8084 2.99163 20.8473C3.00158 20.8862 3.02181 20.9217 3.05019 20.9501C3.07858 20.9785 3.11408 20.9987 3.15297 21.0087C3.19186 21.0186 3.23271 21.0179 3.27124 21.0066L3.27621 21.0052L6.73815 20.025C6.89638 19.9802 7.06606 20.0023 7.20753 20.0862C9.1773 21.2537 11.5055 21.6621 13.755 21.2347C16.0046 20.8072 18.0207 19.5734 19.425 17.7648C20.8293 15.9562 21.5252 13.6972 21.382 11.412C21.2388 9.12666 20.2663 6.97222 18.6472 5.35311C17.0281 3.73399 14.8736 2.76154 12.5883 2.61832ZM5.49951 3.62744C7.53899 2.04386 10.0864 1.25917 12.6634 1.42067C15.2404 1.58217 17.6699 2.67876 19.4957 4.50458C21.3215 6.33039 22.4181 8.75986 22.5796 11.3369C22.7411 13.9139 21.9564 16.4613 20.3729 18.5008C18.7893 20.5403 16.5157 21.9316 13.979 22.4136C11.5278 22.8793 8.99367 22.465 6.82149 21.2486L3.6081 22.1584C3.60713 22.1587 3.60616 22.159 3.60519 22.1592C3.3609 22.2301 3.10206 22.2343 2.85559 22.1712C2.60814 22.1079 2.38227 21.9792 2.20166 21.7986C2.02106 21.618 1.89236 21.3922 1.82906 21.1447C1.76601 20.8982 1.77017 20.6394 1.84107 20.395C1.84135 20.3941 1.84162 20.3931 1.8419 20.3922L2.75169 17.1788C1.5353 15.0066 1.12098 12.4725 1.58672 10.0213C2.0687 7.48456 3.46003 5.21101 5.49951 3.62744Z" fill="#F85555"/>
</svg>
