<svg xmlns="http://www.w3.org/2000/svg" width="16" height="16" viewBox="0 0 16 16" fill="none">
<path d="M4.12009 15.1665C4.05342 15.1665 3.98009 15.1598 3.92009 15.1531L2.47342 14.9531C1.78009 14.8598 1.15342 14.2398 1.04676 13.5331L0.846758 12.0731C0.780091 11.6065 0.980091 10.9998 1.31342 10.6598L4.24009 7.73312C3.76676 5.83979 4.31343 3.83979 5.70676 2.45979C7.86676 0.306453 11.3801 0.299786 13.5468 2.45979C14.5934 3.50645 15.1668 4.89979 15.1668 6.37979C15.1668 7.85979 14.5934 9.25312 13.5468 10.2998C12.1468 11.6865 10.1534 12.2331 8.27342 11.7531L5.34009 14.6798C5.06009 14.9731 4.56009 15.1665 4.12009 15.1665ZM9.62009 1.83979C8.45342 1.83979 7.29342 2.27979 6.40676 3.16645C5.20676 4.35979 4.77342 6.10645 5.27342 7.73312C5.32676 7.91312 5.28009 8.09979 5.14676 8.23312L2.01342 11.3665C1.90009 11.4798 1.80676 11.7731 1.82676 11.9265L2.02676 13.3865C2.06676 13.6398 2.34009 13.9265 2.59342 13.9598L4.04676 14.1598C4.20676 14.1865 4.50009 14.0931 4.61342 13.9798L7.76009 10.8398C7.89342 10.7065 8.08676 10.6665 8.26009 10.7198C9.86676 11.2265 11.6201 10.7931 12.8201 9.59312C13.6734 8.73979 14.1468 7.59312 14.1468 6.37979C14.1468 5.15979 13.6734 4.01979 12.8201 3.16645C11.9534 2.28645 10.7868 1.83979 9.62009 1.83979Z" fill="#8A8A8A"/>
<path d="M6.12737 13.6933C6.0007 13.6933 5.87404 13.6466 5.77404 13.5466L4.2407 12.0133C4.04737 11.82 4.04737 11.5 4.2407 11.3066C4.43404 11.1133 4.75404 11.1133 4.94737 11.3066L6.4807 12.84C6.67404 13.0333 6.67404 13.3533 6.4807 13.5466C6.3807 13.6466 6.25404 13.6933 6.12737 13.6933Z" fill="#8A8A8A"/>
<path d="M9.66602 7.8335C8.83935 7.8335 8.16602 7.16016 8.16602 6.3335C8.16602 5.50683 8.83935 4.8335 9.66602 4.8335C10.4927 4.8335 11.166 5.50683 11.166 6.3335C11.166 7.16016 10.4927 7.8335 9.66602 7.8335ZM9.66602 5.8335C9.39268 5.8335 9.16602 6.06016 9.16602 6.3335C9.16602 6.60683 9.39268 6.8335 9.66602 6.8335C9.93935 6.8335 10.166 6.60683 10.166 6.3335C10.166 6.06016 9.93935 5.8335 9.66602 5.8335Z" fill="#8A8A8A"/>
</svg>