<svg width="16" height="16" viewBox="0 0 16 16" fill="none" xmlns="http://www.w3.org/2000/svg">
<path fill-rule="evenodd" clip-rule="evenodd" d="M0.933594 1.54404C0.933594 1.32313 1.11268 1.14404 1.33359 1.14404H10.0003C10.5894 1.14404 11.0669 1.62161 11.0669 2.21071V5.54404C11.0669 5.76496 10.8878 5.94404 10.6669 5.94404C10.446 5.94404 10.2669 5.76496 10.2669 5.54404V2.21071C10.2669 2.06343 10.1475 1.94404 10.0003 1.94404H3.02802L6.47729 3.66868C6.83866 3.84936 7.06693 4.21871 7.06693 4.62273V11.8107H10.0003C10.1475 11.8107 10.2669 11.6913 10.2669 11.544V8.21071C10.2669 7.9898 10.446 7.81071 10.6669 7.81071C10.8878 7.81071 11.0669 7.9898 11.0669 8.21071V11.544C11.0669 12.1331 10.5894 12.6107 10.0003 12.6107H7.06693V13.7987C7.06693 14.5916 6.23246 15.1074 5.52323 14.7527L1.52323 12.7527C1.16186 12.5721 0.933594 12.2027 0.933594 11.7987V1.54404ZM1.73359 2.19126V11.7987C1.73359 11.8997 1.79066 11.992 1.881 12.0372L5.881 14.0372C6.05831 14.1259 6.26693 13.9969 6.26693 13.7987V4.62273C6.26693 4.52173 6.20986 4.42939 6.11952 4.38422L1.73359 2.19126Z" fill="#D91F11"/>
<path fill-rule="evenodd" clip-rule="evenodd" d="M13.1124 4.54476C13.2962 4.42222 13.5445 4.47189 13.6671 4.6557L15.0004 6.6557C15.09 6.79006 15.09 6.9651 15.0004 7.09946L13.6671 9.09946C13.5445 9.28327 13.2962 9.33294 13.1124 9.2104C12.9286 9.08786 12.8789 8.83951 13.0014 8.6557L13.9202 7.27758H8.66758C8.44666 7.27758 8.26758 7.0985 8.26758 6.87758C8.26758 6.65667 8.44666 6.47758 8.66758 6.47758H13.9202L13.0014 5.09946C12.8789 4.91565 12.9286 4.6673 13.1124 4.54476Z" fill="#D91F11"/>
</svg>
