<svg width="24" height="24" viewBox="0 0 24 24" fill="none" xmlns="http://www.w3.org/2000/svg">
<path fill-rule="evenodd" clip-rule="evenodd" d="M23.6016 0.998438C23.6016 0.667067 23.3329 0.398438 23.0016 0.398438H10.0016C9.82237 0.398438 9.65255 0.478531 9.53858 0.616805C9.4246 0.755079 9.37839 0.93706 9.41259 1.11296L12.9126 19.113C12.9674 19.3949 13.2143 19.5984 13.5016 19.5984H21.0016C22.4375 19.5984 23.6016 18.4344 23.6016 16.9984V0.998438ZM22.4016 1.59844V16.9984C22.4016 17.7716 21.7748 18.3984 21.0016 18.3984H13.9961L10.7295 1.59844H22.4016Z" fill="black" fill-opacity="0.87"/>
<path fill-rule="evenodd" clip-rule="evenodd" d="M11.1016 4.49844C11.1016 4.16707 10.8329 3.89844 10.5016 3.89844H3.00156C1.56562 3.89844 0.401556 5.0625 0.401556 6.49844V22.9984C0.401556 23.3298 0.670185 23.5984 1.00156 23.5984H17.0016C17.1863 23.5984 17.3608 23.5133 17.4745 23.3677C17.5882 23.2221 17.6285 23.0322 17.5836 22.8529L16.5836 18.8529C16.5033 18.5314 16.1775 18.336 15.856 18.4164C15.5346 18.4967 15.3391 18.8225 15.4195 19.144L16.2331 22.3984H1.60156V6.49844C1.60156 5.72524 2.22836 5.09844 3.00156 5.09844H10.5016C10.8329 5.09844 11.1016 4.82981 11.1016 4.49844Z" fill="black" fill-opacity="0.87"/>
<path fill-rule="evenodd" clip-rule="evenodd" d="M20.2698 5.46191C19.9734 5.31372 19.613 5.43385 19.4648 5.73024L17.0014 10.6569L14.5381 5.73024C14.3899 5.43385 14.0295 5.31372 13.7331 5.46191C13.4367 5.61011 13.3166 5.97051 13.4648 6.2669L16.4648 12.2669C16.5664 12.4702 16.7742 12.5986 17.0014 12.5986C17.2287 12.5986 17.4365 12.4702 17.5381 12.2669L20.5381 6.2669C20.6863 5.97051 20.5661 5.61011 20.2698 5.46191Z" fill="#FF4D4D"/>
<path fill-rule="evenodd" clip-rule="evenodd" d="M8.10156 10.4984C8.10156 10.1671 7.83293 9.89844 7.50156 9.89844H5.50156C5.17019 9.89844 4.90156 10.1671 4.90156 10.4984C4.90156 10.8298 5.17019 11.0984 5.50156 11.0984H7.50156C7.83293 11.0984 8.10156 10.8298 8.10156 10.4984Z" fill="#3078F1"/>
<path fill-rule="evenodd" clip-rule="evenodd" d="M10.1016 12.4984C10.1016 12.1671 9.83293 11.8984 9.50156 11.8984H3.50156C3.26324 11.8984 3.04751 12.0395 2.95193 12.2578C2.85635 12.4761 2.89903 12.7303 3.06068 12.9054L9.06068 19.4054C9.28544 19.6489 9.66504 19.6641 9.90853 19.4393C10.152 19.2146 10.1672 18.835 9.94244 18.5915L4.87195 13.0984H9.50156C9.83293 13.0984 10.1016 12.8298 10.1016 12.4984Z" fill="#3078F1"/>
<path fill-rule="evenodd" clip-rule="evenodd" d="M7.46248 16.1143C7.25034 15.8598 6.872 15.8254 6.61744 16.0375L3.61744 18.5375C3.36287 18.7497 3.32848 19.128 3.54061 19.3826C3.75275 19.6371 4.13109 19.6715 4.38566 19.4594L7.38566 16.9594C7.64022 16.7472 7.67462 16.3689 7.46248 16.1143Z" fill="#3078F1"/>
</svg>
