<svg xmlns="http://www.w3.org/2000/svg" width="29" height="29" viewBox="0 0 29 29" fill="none">
<rect x="0.5" width="28" height="29" rx="14" fill="#FCE9F4"/>
<path d="M18.666 21.7918H14.4993C14.1577 21.7918 13.8743 21.5085 13.8743 21.1668C13.8743 20.8252 14.1577 20.5418 14.4993 20.5418H18.666C21.0493 20.5418 22.2077 19.3835 22.2077 17.0002V12.0002C22.2077 9.61683 21.0493 8.4585 18.666 8.4585H10.3327C7.94935 8.4585 6.79102 9.61683 6.79102 12.0002V13.6668C6.79102 14.0085 6.50768 14.2918 6.16602 14.2918C5.82435 14.2918 5.54102 14.0085 5.54102 13.6668V12.0002C5.54102 8.9585 7.29102 7.2085 10.3327 7.2085H18.666C21.7077 7.2085 23.4577 8.9585 23.4577 12.0002V17.0002C23.4577 20.0418 21.7077 21.7918 18.666 21.7918Z" fill="#C41D7F"/>
<path d="M14.4993 17.2082C13.0077 17.2082 11.791 15.9915 11.791 14.4998C11.791 13.0082 13.0077 11.7915 14.4993 11.7915C15.991 11.7915 17.2077 13.0082 17.2077 14.4998C17.2077 15.9915 15.991 17.2082 14.4993 17.2082ZM14.4993 13.0415C13.6993 13.0415 13.041 13.6998 13.041 14.4998C13.041 15.2998 13.6993 15.9582 14.4993 15.9582C15.2993 15.9582 15.9577 15.2998 15.9577 14.4998C15.9577 13.6998 15.2993 13.0415 14.4993 13.0415Z" fill="#C41D7F"/>
<path d="M19.916 17.2082C19.5743 17.2082 19.291 16.9248 19.291 16.5832V12.4165C19.291 12.0748 19.5743 11.7915 19.916 11.7915C20.2577 11.7915 20.541 12.0748 20.541 12.4165V16.5832C20.541 16.9248 20.2577 17.2082 19.916 17.2082Z" fill="#C41D7F"/>
<path d="M11.5827 20.0748C11.241 20.0748 10.9577 19.7915 10.9577 19.4498V18.3831C10.9577 18.1998 10.8077 18.0415 10.616 18.0415H6.16602C5.82435 18.0415 5.54102 17.7582 5.54102 17.4165C5.54102 17.0748 5.82435 16.7915 6.16602 16.7915H10.616C11.491 16.7915 12.2077 17.5081 12.2077 18.3831V19.4498C12.2077 19.7915 11.9243 20.0748 11.5827 20.0748Z" fill="#C41D7F"/>
<path d="M7.18255 19.0581C7.02422 19.0581 6.86591 18.9998 6.74091 18.8748L5.72422 17.8581C5.48255 17.6165 5.48255 17.2164 5.72422 16.9747L6.74091 15.9581C6.98258 15.7164 7.38258 15.7164 7.62424 15.9581C7.86591 16.1998 7.86591 16.5998 7.62424 16.8414L7.04924 17.4164L7.62424 17.9914C7.86591 18.2331 7.86591 18.6331 7.62424 18.8748C7.49924 18.9998 7.34089 19.0581 7.18255 19.0581Z" fill="#C41D7F"/>
<path d="M11.5827 22.4415H7.13266C6.25766 22.4415 5.54102 21.7248 5.54102 20.8498V19.7832C5.54102 19.4415 5.82435 19.1582 6.16602 19.1582C6.50768 19.1582 6.79102 19.4415 6.79102 19.7832V20.8498C6.79102 21.0332 6.94099 21.1915 7.13266 21.1915H11.5827C11.9243 21.1915 12.2077 21.4749 12.2077 21.8165C12.2077 22.1582 11.9243 22.4415 11.5827 22.4415Z" fill="#C41D7F"/>
<path d="M10.5663 23.4585C10.408 23.4585 10.2496 23.4002 10.1246 23.2752C9.88294 23.0335 9.88294 22.6334 10.1246 22.3918L10.6996 21.8168L10.1246 21.2418C9.88294 21.0002 9.88294 20.6002 10.1246 20.3585C10.3663 20.1168 10.7663 20.1168 11.0079 20.3585L12.0246 21.3751C12.2663 21.6168 12.2663 22.0168 12.0246 22.2585L11.0079 23.2752C10.8913 23.4002 10.7246 23.4585 10.5663 23.4585Z" fill="#C41D7F"/>
</svg>