<svg width="24" height="24" viewBox="0 0 24 24" fill="none" xmlns="http://www.w3.org/2000/svg">
<path fill-rule="evenodd" clip-rule="evenodd" d="M5.87627 11.4281C6.41578 11.3276 6.90943 11.514 7.27091 11.7336C8.20816 12.303 8.89841 12.6601 9.59182 12.8807C10.2778 13.099 10.9983 13.1935 12.0014 13.1935C13.0042 13.1935 13.7244 13.0991 14.4102 12.8808C15.1034 12.6601 15.7935 12.3031 16.7305 11.7338C17.092 11.5141 17.5857 11.3276 18.1254 11.4281C19.6613 11.7143 20.7845 12.9905 21.2891 14.5065C21.7983 16.0363 21.7209 17.91 20.771 19.5636L20.7618 19.5791C19.7879 21.1624 17.9667 21.8937 16.2919 22.2455C14.6032 22.6003 12.9112 22.6003 12.0126 22.6003H11.9901C11.0913 22.6003 9.39893 22.6003 7.70993 22.2455C6.03478 21.8937 4.21319 21.1624 3.23907 19.5791L3.22984 19.5636C2.27977 17.9099 2.20234 16.0362 2.71172 14.5064C3.21653 12.9902 4.34005 11.7141 5.87627 11.4281ZM6.64787 12.7592C6.42129 12.6216 6.23367 12.5822 6.0959 12.6078C5.11731 12.79 4.26411 13.6425 3.85027 14.8854C3.44181 16.1122 3.50274 17.6242 4.26579 18.9579C4.9762 20.1054 6.37941 20.7399 7.95661 21.0712C9.51634 21.3988 11.101 21.4003 12.0014 21.4003C12.9016 21.4003 14.4858 21.3988 16.0451 21.0712C17.622 20.7399 19.0248 20.1054 19.7351 18.9579C20.4979 17.6242 20.5588 16.1123 20.1505 14.8855C19.7368 13.6426 18.8838 12.7901 17.9056 12.6078C17.7679 12.5822 17.5802 12.6216 17.3536 12.7593C16.3926 13.3432 15.6053 13.7597 14.7742 14.0242C13.9357 14.2911 13.0846 14.3935 12.0014 14.3935C10.9179 14.3935 10.0666 14.2911 9.22792 14.0242C8.39662 13.7597 7.60916 13.3432 6.64787 12.7592Z" fill="#FF8246"/>
<path fill-rule="evenodd" clip-rule="evenodd" d="M12.0005 2.60039C9.57038 2.60039 7.60039 4.57038 7.60039 7.00048C7.60039 9.43058 9.57038 11.4006 12.0005 11.4006C14.4306 11.4006 16.4006 9.43058 16.4006 7.00048C16.4006 4.57038 14.4306 2.60039 12.0005 2.60039ZM6.40039 7.00048C6.40039 3.90764 8.90764 1.40039 12.0005 1.40039C15.0933 1.40039 17.6006 3.90764 17.6006 7.00048C17.6006 10.0933 15.0933 12.6006 12.0005 12.6006C8.90764 12.6006 6.40039 10.0933 6.40039 7.00048Z" fill="#FF8246"/>
</svg>
