<svg width="24" height="24" viewBox="0 0 24 24" fill="none" xmlns="http://www.w3.org/2000/svg">
<path fill-rule="evenodd" clip-rule="evenodd" d="M12.0004 8.10015C9.84648 8.10015 8.10039 9.84624 8.10039 12.0001C8.10039 14.1541 9.84648 15.9001 12.0004 15.9001C14.1543 15.9001 15.9004 14.1541 15.9004 12.0001C15.9004 9.84624 14.1543 8.10015 12.0004 8.10015ZM6.90039 12.0001C6.90039 9.18349 9.18374 6.90015 12.0004 6.90015C14.817 6.90015 17.1004 9.18349 17.1004 12.0001C17.1004 14.8168 14.817 17.1001 12.0004 17.1001C9.18374 17.1001 6.90039 14.8168 6.90039 12.0001Z" fill="#00A7CC"/>
<path fill-rule="evenodd" clip-rule="evenodd" d="M4.48884 12.4572C4.48884 12.4572 4.46195 11.8477 4.48884 11.5429L3.00079 9.56181C3.20809 8.79002 3.51548 8.04867 3.91513 7.35663L6.36235 7.00703C6.57151 6.78592 6.78665 6.57078 7.00776 6.36161L7.35736 3.9144C8.04985 3.51566 8.79108 3.20832 9.56254 3.00006L11.5436 4.48811C11.8478 4.46121 12.1538 4.46121 12.458 4.48811L14.439 3.00006C15.2108 3.20736 15.9522 3.51475 16.6442 3.9144L16.9938 6.36161C17.2209 6.57078 17.436 6.78592 17.6392 7.00703L20.0864 7.35663C20.4852 8.04912 20.7925 8.79035 21.0008 9.56181L19.5127 11.5429C19.5127 11.5429 19.5396 12.1525 19.5127 12.4572L21.0008 14.4383C20.7935 15.2101 20.4861 15.9515 20.0864 16.6435L17.6392 16.9931C17.6392 16.9931 17.2179 17.4323 16.9938 17.6385L16.6442 20.0857C15.9517 20.4845 15.2105 20.7918 14.439 21.0001L12.458 19.512C12.1538 19.5389 11.8478 19.5389 11.5436 19.512L9.56254 21.0001C8.79075 20.7928 8.0494 20.4854 7.35736 20.0857L7.00776 17.6385C6.78665 17.4293 6.57151 17.2142 6.36235 16.9931L3.91513 16.6435C3.51639 15.951 3.20905 15.2098 3.00079 14.4383L4.48884 12.4572ZM5.7864 18.123L3.74543 17.8314C3.38022 17.7793 3.0593 17.562 2.87521 17.2423C2.42475 16.46 2.07754 15.6226 1.84226 14.7511C1.74596 14.3943 1.81938 14.0131 2.04131 13.7176L3.27794 12.0713C3.27735 12.0265 3.27692 11.978 3.27687 11.9274L2.04131 10.2825C1.8197 9.98747 1.74615 9.60689 1.84187 9.25053C2.07632 8.37765 2.42397 7.53919 2.87597 6.75651C3.0602 6.4375 3.38075 6.22079 3.74543 6.16869L5.7864 5.87713C5.81677 5.84653 5.84726 5.81604 5.87786 5.78566L6.16943 3.7447C6.2216 3.37948 6.43886 3.05857 6.75857 2.87448C7.54088 2.42401 8.37826 2.07681 9.24979 1.84153C9.60655 1.74522 9.98778 1.81865 10.2832 2.04058L11.918 3.26847C11.9732 3.26775 12.0284 3.26775 12.0836 3.26847L13.7183 2.04058C14.0134 1.81897 14.394 1.74542 14.7503 1.84113C15.6232 2.07558 16.4617 2.42324 17.2443 2.87524C17.5633 3.05947 17.7801 3.38002 17.8322 3.7447L18.123 5.78059C18.1557 5.81287 18.1881 5.8453 18.2203 5.87786L20.2562 6.16869C20.6214 6.22087 20.9423 6.43813 21.1264 6.75783C21.5768 7.54014 21.924 8.37752 22.1593 9.24906C22.2556 9.60581 22.1822 9.98705 21.9603 10.2825L20.7236 11.9289C20.7242 11.9736 20.7247 12.0221 20.7247 12.0727L21.9603 13.7176C22.1819 14.0126 22.2554 14.3932 22.1597 14.7496C21.9253 15.6225 21.5776 16.4609 21.1256 17.2436C20.9414 17.5626 20.6208 17.7793 20.2562 17.8314L18.2134 18.1232C18.1849 18.1522 18.1548 18.1825 18.1239 18.2135L17.8322 20.2554C17.78 20.6206 17.5627 20.9415 17.243 21.1256C16.4607 21.5761 15.6233 21.9233 14.7518 22.1586C14.395 22.2549 14.0138 22.1815 13.7183 21.9595L12.0836 20.7316C12.0284 20.7324 11.9732 20.7324 11.918 20.7316L10.2832 21.9595C9.98821 22.1811 9.60763 22.2547 9.25127 22.159C8.37838 21.9245 7.53992 21.5769 6.75724 21.1249C6.43823 20.9406 6.22152 20.6201 6.16943 20.2554L5.87786 18.2145C5.84726 18.1841 5.81677 18.1536 5.7864 18.123Z" fill="#00A7CC"/>
</svg>
