<svg xmlns="http://www.w3.org/2000/svg" width="16" height="16" viewBox="0 0 16 16" fill="none">
<path fill-rule="evenodd" clip-rule="evenodd" d="M4.99389 3.39981C4.40993 3.76698 3.93953 4.19258 3.54796 4.6394C3.35603 4.8584 3.02089 4.8821 2.7994 4.69234C2.57791 4.50257 2.55394 4.1712 2.74586 3.9522C3.19574 3.43884 3.7426 2.94297 4.4244 2.5143C7.5316 0.560647 11.6493 1.46681 13.6251 4.53908C15.601 7.61135 14.6845 11.6827 11.5773 13.6363C8.47011 15.59 4.35245 14.6838 2.37659 11.6116C1.64246 10.4701 1.30802 9.1848 1.33555 7.92515C1.34188 7.63544 1.58455 7.40566 1.87755 7.41192C2.17056 7.41818 2.40296 7.65811 2.39662 7.94782C2.37345 9.00825 2.65469 10.0884 3.27217 11.0485C4.93351 13.6317 8.39522 14.3935 11.0078 12.7508C13.6204 11.1082 14.3909 7.68539 12.7295 5.10217C11.0682 2.51896 7.60648 1.75715 4.99389 3.39981Z" fill="#8A8A8A"/>
<path fill-rule="evenodd" clip-rule="evenodd" d="M3.04195 1.33945C3.33174 1.38272 3.53119 1.65007 3.48743 1.9366L3.02243 4.98144C2.97867 5.26797 2.70828 5.46518 2.41849 5.42191C2.1287 5.37864 1.92925 5.11129 1.97301 4.82476L2.43801 1.77992C2.48176 1.49339 2.75216 1.29618 3.04195 1.33945Z" fill="#8A8A8A"/>
<path fill-rule="evenodd" clip-rule="evenodd" d="M1.96823 4.86939C1.98702 4.5802 2.23935 4.36083 2.53182 4.37941L5.47788 4.56657C5.77035 4.58515 5.99221 4.83464 5.97342 5.12382C5.95463 5.41301 5.7023 5.63238 5.40983 5.6138L2.46377 5.42664C2.1713 5.40806 1.94944 5.15857 1.96823 4.86939Z" fill="#8A8A8A"/>
<path fill-rule="evenodd" clip-rule="evenodd" d="M7.32077 4.53137C7.61385 4.53137 7.85143 4.76629 7.85143 5.05607V7.92439C7.85143 8.03181 7.89292 8.18751 7.98516 8.34744C8.07743 8.50741 8.19176 8.62184 8.2847 8.6763L8.28611 8.67712L10.4795 9.97137C10.7312 10.1199 10.8134 10.442 10.6632 10.6908C10.5131 10.9397 10.1873 11.021 9.93562 10.8725L7.74364 9.57908L7.7429 9.57865C7.4541 9.40921 7.222 9.14259 7.06322 8.86729C6.90429 8.59173 6.79011 8.25771 6.79011 7.92439V5.05607C6.79011 4.76629 7.0277 4.53137 7.32077 4.53137Z" fill="#8A8A8A"/>
</svg>