<svg xmlns="http://www.w3.org/2000/svg" width="28" height="28" viewBox="0 0 28 28" fill="none">
<rect width="28" height="28" rx="14" fill="#FDE9E7"/>
<path fill-rule="evenodd" clip-rule="evenodd" d="M14.0007 6.2915C12.0446 6.2915 10.459 7.87716 10.459 9.83317C10.459 11.7892 12.0446 13.3748 14.0007 13.3748C15.9567 13.3748 17.5423 11.7892 17.5423 9.83317C17.5423 7.87716 15.9567 6.2915 14.0007 6.2915ZM9.20898 9.83317C9.20898 7.18681 11.3543 5.0415 14.0007 5.0415C16.647 5.0415 18.7923 7.18681 18.7923 9.83317C18.7923 12.4795 16.647 14.6248 14.0007 14.6248C11.3543 14.6248 9.20898 12.4795 9.20898 9.83317Z" fill="#D91F11"/>
<path fill-rule="evenodd" clip-rule="evenodd" d="M6.2168 22.3333C6.2168 18.6493 9.83107 15.875 14.0001 15.875C18.1692 15.875 21.7835 18.6493 21.7835 22.3333C21.7835 22.6785 21.5036 22.9583 21.1585 22.9583C20.8133 22.9583 20.5335 22.6785 20.5335 22.3333C20.5335 19.5674 17.7311 17.125 14.0001 17.125C10.2692 17.125 7.4668 19.5674 7.4668 22.3333C7.4668 22.6785 7.18697 22.9583 6.8418 22.9583C6.49662 22.9583 6.2168 22.6785 6.2168 22.3333Z" fill="#D91F11"/>
</svg>