<svg xmlns="http://www.w3.org/2000/svg" width="393" height="375" viewBox="0 0 393 375" fill="none">
  <g opacity="0.4">
    <path d="M227.677 254.917C220.644 259.115 212.663 261.481 203.977 261.944C180.577 263.328 154.023 252.225 125.905 240.473C78.4571 220.633 29.3949 200.134 -4.82836 242.823C-19.0777 260.593 -21.3439 291.855 -23.5353 322.084C-23.7873 325.57 -24.0494 329.173 -24.3224 332.646L-24.6423 332.425C-24.3694 328.956 -24.1028 325.35 -23.8538 321.869C-21.656 291.589 -19.3879 260.28 -5.09457 242.447C29.206 199.655 78.3397 220.19 125.855 240.054C181.486 263.307 234.03 285.269 259.589 206.858C262.8 197.007 264.307 183.414 266.051 167.676C269.336 138.036 273.425 101.152 291.793 75.029C313.296 44.4491 349.832 34.3831 403.494 44.2598C407.843 45.0592 412.208 45.8964 416.827 46.7779C477.12 58.3084 552.145 72.6385 569.111 0.0389938L569.419 0.314101C561.855 32.712 542.287 50.7381 509.607 55.4263C481.233 59.512 447.067 52.9681 416.927 47.2028C412.307 46.3214 407.944 45.4868 403.593 44.6847C282.492 22.396 273.164 106.503 266.365 167.907C264.62 183.671 263.11 197.277 259.889 207.156C253.726 226.067 245.882 239.675 235.908 248.759C233.341 251.106 230.592 253.162 227.677 254.917Z" fill="url(#paint0_linear_578_94809)"/>
    <path d="M209.173 252.644C206.126 254.473 202.906 255.976 199.529 257.147C176.102 265.626 148.654 256.879 119.599 247.623C77.3655 234.16 33.7026 220.246 0.0365109 260.339C-13.3686 276.416 -17.1889 303.751 -20.8861 330.191C-21.5137 334.678 -22.1637 339.318 -22.8448 343.757L-23.1555 343.509C-22.4759 339.071 -21.826 334.431 -21.1999 329.945C-17.4964 303.469 -13.6682 276.089 -0.225227 259.968C33.5121 219.782 77.2405 233.721 119.531 247.198C148.553 256.448 175.966 265.183 199.34 256.725C218.917 249.944 233.471 231.743 243.833 201.067C246.933 191.897 248.763 179.406 250.702 166.182C254.13 142.815 258.014 116.327 269.975 95.588C280.177 77.9028 293.874 66.1278 311.843 59.5891C332.985 51.8947 359.485 51.5314 392.86 58.4776C395.948 59.1224 399.082 59.7832 402.261 60.4598C461.827 73.0756 535.952 88.7851 557.018 17.436L557.321 17.7283C551.092 38.8183 540.24 52.3274 526.51 60.5577C493.687 80.2329 444.4 69.7906 402.356 60.8838C399.179 60.2108 396.045 59.55 392.955 58.9017C331.229 46.0549 292.24 57.8206 270.257 95.9363C258.317 116.63 254.439 143.089 251.016 166.432C249.073 179.669 247.239 192.173 244.133 201.372C235.523 226.844 224.029 243.739 209.173 252.644Z" fill="url(#paint1_linear_578_94809)"/>
    <path d="M513.943 75.6261C479.833 96.0726 429.953 84.3311 387.547 74.367C385.787 73.9502 384.042 73.54 382.312 73.1364C322.128 59.0528 282.777 67.0366 258.487 98.2641C244.596 116.107 239.754 141.984 235.488 164.834C233.349 176.305 231.323 187.14 228.364 195.59C217.968 225.288 204.464 244.196 187.062 253.374C165.289 265.571 139.961 260.565 113.146 255.261C76.0609 247.93 37.7114 240.344 4.88221 277.861C-7.66935 292.205 -12.7818 315.796 -17.7258 338.611C-18.8899 344.008 -20.093 349.582 -21.3744 354.873L-21.6804 354.597C-20.4035 349.305 -19.1959 343.728 -18.0259 338.338C-13.0741 315.494 -7.95086 291.868 4.63248 277.486C37.522 239.908 75.9194 247.498 113.06 254.85C139.84 260.145 165.134 265.147 186.856 252.973C204.208 243.803 217.7 224.932 228.07 195.289C231.023 186.86 233.043 176.036 235.185 164.578C239.459 141.695 244.294 115.775 258.218 97.8906C282.559 66.6107 321.958 58.6053 382.218 72.7079L387.454 73.9376C446.291 87.7803 519.53 105.001 544.913 34.8338L545.211 35.1432C538.086 54.8322 527.209 67.6736 513.943 75.6261Z" fill="url(#paint2_linear_578_94809)"/>
    <path d="M501.507 90.6191C465.838 112 415.301 98.7719 372.468 87.5592L371.662 87.349C311.767 71.6676 273.23 75.7423 246.713 100.565C230.845 115.419 224.943 140.876 219.741 163.332C217.49 173.046 215.363 182.222 212.612 189.812C202.36 218.088 189.575 238.208 174.615 249.61C154.407 265.973 131.108 264.92 106.435 263.786C74.5022 262.329 41.4846 260.82 9.76065 295.387C-1.91422 308.09 -8.05728 328.152 -14.0014 347.553C-15.8801 353.683 -17.8204 360.023 -19.8998 365.994L-20.198 365.688C-18.1202 359.722 -16.1799 353.386 -14.3028 347.26C-8.35092 327.833 -2.19713 307.742 9.49753 295.003C41.2713 260.38 74.3264 261.886 106.298 263.351C130.934 264.475 154.201 265.544 174.37 249.208C189.304 237.825 202.068 217.736 212.305 189.493C215.051 181.92 217.177 172.752 219.426 163.047C224.631 140.542 230.545 115.064 246.459 100.176C273.026 75.3084 311.614 71.2211 371.575 86.9205L372.381 87.1334C430.504 102.348 502.842 121.29 532.818 52.2391L533.109 52.5603C525.18 70.8175 514.299 82.9507 501.507 90.6191Z" fill="url(#paint3_linear_578_94809)"/>
    <path d="M489.342 105.45C477.991 112.254 464.711 116.046 449.358 116.918C421.76 118.481 391.819 110.543 361.01 101.556C299.673 83.6628 266.756 93.4402 234.91 102.877C214.719 108.878 208.739 135.576 203.471 159.138C201.419 168.323 199.479 177 196.843 184.022C186.59 211.312 174.914 232.109 162.145 245.83C143.318 267.168 121.821 270.361 99.0568 273.726C73.5563 277.507 44.6485 281.786 14.6136 312.9C3.88703 323.997 -2.99335 340.721 -9.65923 356.886C-12.437 363.627 -15.311 370.595 -18.4311 377.103L-18.7201 376.77C-15.6016 370.27 -12.7306 363.304 -9.95587 356.569C-3.28967 340.367 3.61318 323.64 14.355 312.513C44.4277 281.362 73.3595 277.075 98.8869 273.293C121.62 269.925 143.093 266.746 161.885 245.448C174.641 231.742 186.299 210.969 196.54 183.705C199.172 176.703 201.112 168.041 203.161 158.861C208.437 135.237 214.421 108.471 234.728 102.447C266.59 92.9936 299.539 83.2153 360.936 101.127C413.669 116.51 485.887 137.578 520.72 69.6284L521.006 69.9631C512.87 85.8503 502.374 97.638 489.342 105.45Z" fill="url(#paint4_linear_578_94809)"/>
    <path d="M477.331 120.303C465.38 127.467 451.632 131.379 435.919 132.139C407.779 133.503 377.002 124.404 350.358 115.775C295.915 98.1247 263.353 101.274 228.893 104.628C226.978 104.818 225.057 105.003 223.131 105.182C201.308 107.264 194.021 133.759 187.585 157.145C185.476 164.818 183.483 172.065 181.081 178.236C170.82 204.608 160.255 226.078 149.685 242.053C131.822 270.089 112.475 277.752 90.0707 286.623C69.6587 294.705 46.5244 303.866 19.4713 330.418C9.79767 339.914 2.83067 352.853 -4.54572 366.55C-8.45077 373.802 -12.4867 381.297 -16.9578 388.22L-17.2317 387.868C-12.7681 380.953 -8.73221 373.457 -4.8302 366.211C2.55381 352.498 9.52841 339.548 19.2216 330.033C46.3004 303.462 69.4467 294.293 89.8692 286.205C112.248 277.342 131.578 269.686 149.408 241.699C159.972 225.735 170.525 204.271 180.784 177.922C183.181 171.764 185.173 164.522 187.282 156.857C193.733 133.411 201.041 106.831 222.977 104.753C224.903 104.573 226.824 104.388 228.74 104.199C263.225 100.852 295.8 97.6907 350.296 115.356C410.217 134.777 471.801 148.588 508.62 87.034L508.9 87.3831C500.194 101.931 489.731 112.87 477.331 120.303Z" fill="url(#paint5_linear_578_94809)"/>
    <path d="M465.587 135.068C452.901 142.672 438.604 146.737 422.478 147.387C395.31 148.473 366.644 139.666 339.714 129.988C281.242 108.977 245.339 99.7273 211.378 107.481C188.256 112.761 178.143 139.156 169.22 162.443C167.884 165.929 166.622 169.22 165.319 172.452C154.836 198.448 145.382 220.592 137.219 238.272C119.211 277.702 101.073 290.197 75.9695 307.489C61.394 317.529 44.8741 328.907 24.3319 347.937C15.8629 355.785 8.92582 365.813 1.58387 376.431C-3.73988 384.131 -9.25157 392.095 -15.4905 399.334L-15.7493 398.962C-9.50884 391.725 -4.01219 383.77 1.30852 376.076C8.65802 365.449 15.5982 355.412 24.0822 347.552C44.632 328.514 61.158 317.132 75.7349 307.087C100.818 289.812 118.94 277.33 136.927 237.948C145.088 220.269 154.54 198.13 165.021 172.136C166.323 168.907 167.586 165.616 168.92 162.131C177.859 138.799 187.992 112.36 211.199 107.057C245.208 99.2925 281.146 108.557 339.654 129.575C393.697 148.995 454.845 164.672 496.52 104.435L496.793 104.796C487.675 117.968 477.323 128.033 465.587 135.068Z" fill="url(#paint6_linear_578_94809)"/>
    <path d="M454.212 149.705C440.604 157.862 425.627 162.137 409.039 162.658C381.595 163.518 353.21 153.815 329.054 144.193C326.407 143.147 323.789 142.104 321.199 141.065C274.24 122.331 237.148 107.534 199.587 109.774C172.634 111.374 160.664 140.038 150.102 165.323L149.545 166.655C139.75 190.095 131.169 213.568 124.742 234.479C103.623 300.809 88.3059 314.115 37.5424 358.186L29.1818 365.452C22.212 371.522 15.9001 378.715 9.21021 386.333C2.04999 394.492 -5.35521 402.93 -14.0353 410.441L-14.2774 410.051C-5.60635 402.545 1.7973 394.112 8.9515 385.957C15.6384 378.337 21.9548 371.141 28.9322 365.063L37.2943 357.796C88.0217 313.747 103.337 300.46 124.438 234.191C130.865 213.255 139.445 189.793 149.249 166.344L149.805 165.013C160.388 139.679 172.383 110.965 199.433 109.353C237.043 107.112 274.158 121.917 321.146 140.662L328.999 143.791C379.705 163.965 437.715 180.572 484.408 121.833L484.671 122.203C475.338 133.947 465.229 143.101 454.212 149.705Z" fill="url(#paint7_linear_578_94809)"/>
    <path d="M443.356 164.138C428.56 173.007 412.749 177.56 395.614 177.953C368.126 178.574 341.16 168.429 318.417 158.42C309.73 154.595 301.288 150.738 293.129 147.014C255.832 129.97 223.623 115.253 187.822 112.088C160.009 109.627 145.42 134.088 133.798 160.888C123.952 183.59 116.516 207.737 112.292 230.713L111.245 235.724C95.8014 309.723 90.0213 337.411 34.0541 382.982C29.1808 386.948 24.4527 391.25 19.4498 395.814C9.78369 404.624 -0.212904 413.732 -12.5487 421.557L-12.7697 421.151C-0.445955 413.333 9.5446 404.229 19.2077 395.425C24.2135 390.862 28.9477 386.549 33.8181 382.585C89.7325 337.057 95.5079 309.392 110.937 235.452L111.984 230.445C116.211 207.45 123.655 183.283 133.509 160.562C145.157 133.704 159.782 109.188 187.704 111.659C223.55 114.834 255.78 129.559 293.098 146.609C301.257 150.333 309.699 154.194 318.383 158.016C369.154 180.352 422.963 193.551 472.331 139.242L472.588 139.619C463.261 149.87 453.553 158.026 443.356 164.138Z" fill="url(#paint8_linear_578_94809)"/>
    <path d="M433.238 178.277C416.869 188.089 399.982 193.032 382.185 193.282C354.618 193.675 327.936 182.458 307.774 172.647C296.159 166.991 284.748 160.962 273.705 155.118C241.683 138.186 211.437 122.192 176.049 114.396C151.758 109.045 132.782 122.361 118.039 155.11C108.372 176.585 101.899 202.097 99.8256 226.936C98.0501 241.645 96.8057 254.851 95.6071 267.613C89.9255 328.002 86.5044 364.468 38.9103 400.497C37.6312 401.465 36.3411 402.445 35.0399 403.438C22.2547 413.173 7.7649 424.21 -11.0843 432.659L-11.2903 432.244C7.54094 423.799 22.0247 412.773 34.8024 403.038L38.6742 400.096C86.2005 364.123 89.6227 327.71 95.2947 267.384C96.4948 254.621 97.7301 241.424 99.5074 226.692C101.584 201.819 108.063 176.275 117.744 154.77C124.456 139.863 131.778 129.252 140.127 122.327C150.422 113.805 162.472 110.983 175.949 113.95C211.372 121.753 241.636 137.755 273.681 154.701C284.718 160.539 296.13 166.574 307.74 172.226C354.812 195.145 405.872 209.116 460.226 156.632L460.475 157.018C451.517 165.676 442.459 172.75 433.238 178.277Z" fill="url(#paint9_linear_578_94809)"/>
    <path d="M424.252 191.934C405.703 203.053 387.377 208.553 368.753 208.657C341.406 208.814 316.104 197.082 297.117 186.85C284.407 180.002 272.052 172.492 258.968 164.544C230.066 146.987 200.181 128.835 164.264 116.679C130.926 105.396 112.146 128.202 102.277 149.309C92.6494 169.856 87.3536 196.084 87.3489 223.139C86.3074 245.327 86.5456 266.001 86.7543 284.241C87.1035 314.305 87.4017 340.284 82.0842 362.325C76.3407 386.165 64.1716 403.856 43.7693 418.013C27.0935 429.751 10.13 437.934 -9.61557 443.764L-9.8035 443.342C9.92702 437.517 26.877 429.342 43.5392 417.613C87.6184 387.026 87.1236 343.836 86.437 284.058C86.2269 265.812 85.9917 245.132 87.0318 222.941C87.0339 195.837 92.3494 169.573 101.981 148.984C111.892 127.805 130.732 104.938 164.198 116.262C200.15 128.43 230.051 146.594 258.972 164.161C272.056 172.113 284.404 179.609 297.104 186.455C347.195 213.456 392.042 221.681 448.129 174.042L448.37 174.433C440.266 181.32 432.227 187.154 424.252 191.934Z" fill="url(#paint10_linear_578_94809)"/>
    <path d="M46.3734 436.929C32.6463 445.157 14.7567 451.038 -8.14821 454.868L-8.31664 454.441C39.4003 446.464 65.6897 429.858 76.9211 400.597C87.2423 373.722 83.7644 337.816 79.7447 296.237C77.507 273.085 74.97 246.846 74.5593 219.189C72.201 185.524 78.0513 154.954 90.6116 135.331C97.4146 124.705 105.888 117.745 115.791 114.637C126.621 111.243 138.953 112.567 152.447 118.568C189.704 135.151 220.272 156.215 247.241 174.801C311.023 218.752 357.112 250.51 436.03 191.443L436.263 191.842C399.854 219.091 367.936 228.679 335.818 222.017C306.331 215.904 278.937 197.026 247.217 175.171C220.263 156.597 189.713 135.541 152.484 118.973C97.796 94.6417 70.0801 150.908 74.8693 219.344C75.2801 246.994 77.8142 273.221 80.0535 296.364C84.0787 337.998 87.5592 373.952 77.2119 400.9C71.7701 415.075 62.7847 426.161 49.7412 434.795C48.6469 435.528 47.5243 436.239 46.3734 436.929Z" fill="url(#paint11_linear_578_94809)"/>
  </g>
  <defs>
    <linearGradient id="paint0_linear_578_94809" x1="-59.9613" y1="359.692" x2="393.306" y2="112.935" gradientUnits="userSpaceOnUse">
      <stop stop-color="#ABB9F2"/>
      <stop offset="0.06" stop-color="#8696D7"/>
      <stop offset="0.12" stop-color="#6879BA"/>
      <stop offset="0.18" stop-color="#44579F"/>
      <stop offset="0.24" stop-color="#4054A4"/>
      <stop offset="0.29" stop-color="#3750B2"/>
      <stop offset="0.33" stop-color="#3750B2"/>
      <stop offset="0.39" stop-color="#3750B2"/>
      <stop offset="0.46" stop-color="#7D8CC4"/>
      <stop offset="0.55" stop-color="#BAC5F1"/>
      <stop offset="0.58" stop-color="#CAD2F0"/>
      <stop offset="0.76" stop-color="#9CACED"/>
      <stop offset="0.8" stop-color="#7C8BC9"/>
      <stop offset="1" stop-color="#D1D9F9"/>
    </linearGradient>
    <linearGradient id="paint1_linear_578_94809" x1="-59.9613" y1="359.692" x2="393.306" y2="112.935" gradientUnits="userSpaceOnUse">
      <stop stop-color="#ABB9F2"/>
      <stop offset="0.06" stop-color="#8696D7"/>
      <stop offset="0.12" stop-color="#6879BA"/>
      <stop offset="0.18" stop-color="#44579F"/>
      <stop offset="0.24" stop-color="#4054A4"/>
      <stop offset="0.29" stop-color="#3750B2"/>
      <stop offset="0.33" stop-color="#3750B2"/>
      <stop offset="0.39" stop-color="#3750B2"/>
      <stop offset="0.46" stop-color="#7D8CC4"/>
      <stop offset="0.55" stop-color="#BAC5F1"/>
      <stop offset="0.58" stop-color="#CAD2F0"/>
      <stop offset="0.76" stop-color="#9CACED"/>
      <stop offset="0.8" stop-color="#7C8BC9"/>
      <stop offset="1" stop-color="#D1D9F9"/>
    </linearGradient>
    <linearGradient id="paint2_linear_578_94809" x1="-59.9613" y1="359.692" x2="393.306" y2="112.935" gradientUnits="userSpaceOnUse">
      <stop stop-color="#ABB9F2"/>
      <stop offset="0.06" stop-color="#8696D7"/>
      <stop offset="0.12" stop-color="#6879BA"/>
      <stop offset="0.18" stop-color="#44579F"/>
      <stop offset="0.24" stop-color="#4054A4"/>
      <stop offset="0.29" stop-color="#3750B2"/>
      <stop offset="0.33" stop-color="#3750B2"/>
      <stop offset="0.39" stop-color="#3750B2"/>
      <stop offset="0.46" stop-color="#7D8CC4"/>
      <stop offset="0.55" stop-color="#BAC5F1"/>
      <stop offset="0.58" stop-color="#CAD2F0"/>
      <stop offset="0.76" stop-color="#9CACED"/>
      <stop offset="0.8" stop-color="#7C8BC9"/>
      <stop offset="1" stop-color="#D1D9F9"/>
    </linearGradient>
    <linearGradient id="paint3_linear_578_94809" x1="-59.9613" y1="359.692" x2="393.306" y2="112.935" gradientUnits="userSpaceOnUse">
      <stop stop-color="#ABB9F2"/>
      <stop offset="0.06" stop-color="#8696D7"/>
      <stop offset="0.12" stop-color="#6879BA"/>
      <stop offset="0.18" stop-color="#44579F"/>
      <stop offset="0.24" stop-color="#4054A4"/>
      <stop offset="0.29" stop-color="#3750B2"/>
      <stop offset="0.33" stop-color="#3750B2"/>
      <stop offset="0.39" stop-color="#3750B2"/>
      <stop offset="0.46" stop-color="#7D8CC4"/>
      <stop offset="0.55" stop-color="#BAC5F1"/>
      <stop offset="0.58" stop-color="#CAD2F0"/>
      <stop offset="0.76" stop-color="#9CACED"/>
      <stop offset="0.8" stop-color="#7C8BC9"/>
      <stop offset="1" stop-color="#D1D9F9"/>
    </linearGradient>
    <linearGradient id="paint4_linear_578_94809" x1="-59.9613" y1="359.692" x2="393.306" y2="112.935" gradientUnits="userSpaceOnUse">
      <stop stop-color="#ABB9F2"/>
      <stop offset="0.06" stop-color="#8696D7"/>
      <stop offset="0.12" stop-color="#6879BA"/>
      <stop offset="0.18" stop-color="#44579F"/>
      <stop offset="0.24" stop-color="#4054A4"/>
      <stop offset="0.29" stop-color="#3750B2"/>
      <stop offset="0.33" stop-color="#3750B2"/>
      <stop offset="0.39" stop-color="#3750B2"/>
      <stop offset="0.46" stop-color="#7D8CC4"/>
      <stop offset="0.55" stop-color="#BAC5F1"/>
      <stop offset="0.58" stop-color="#CAD2F0"/>
      <stop offset="0.76" stop-color="#9CACED"/>
      <stop offset="0.8" stop-color="#7C8BC9"/>
      <stop offset="1" stop-color="#D1D9F9"/>
    </linearGradient>
    <linearGradient id="paint5_linear_578_94809" x1="-59.9613" y1="359.692" x2="393.306" y2="112.935" gradientUnits="userSpaceOnUse">
      <stop stop-color="#ABB9F2"/>
      <stop offset="0.06" stop-color="#8696D7"/>
      <stop offset="0.12" stop-color="#6879BA"/>
      <stop offset="0.18" stop-color="#44579F"/>
      <stop offset="0.24" stop-color="#4054A4"/>
      <stop offset="0.29" stop-color="#3750B2"/>
      <stop offset="0.33" stop-color="#3750B2"/>
      <stop offset="0.39" stop-color="#3750B2"/>
      <stop offset="0.46" stop-color="#7D8CC4"/>
      <stop offset="0.55" stop-color="#BAC5F1"/>
      <stop offset="0.58" stop-color="#CAD2F0"/>
      <stop offset="0.76" stop-color="#9CACED"/>
      <stop offset="0.8" stop-color="#7C8BC9"/>
      <stop offset="1" stop-color="#D1D9F9"/>
    </linearGradient>
    <linearGradient id="paint6_linear_578_94809" x1="-59.9613" y1="359.692" x2="393.306" y2="112.935" gradientUnits="userSpaceOnUse">
      <stop stop-color="#ABB9F2"/>
      <stop offset="0.06" stop-color="#8696D7"/>
      <stop offset="0.12" stop-color="#6879BA"/>
      <stop offset="0.18" stop-color="#44579F"/>
      <stop offset="0.24" stop-color="#4054A4"/>
      <stop offset="0.29" stop-color="#3750B2"/>
      <stop offset="0.33" stop-color="#3750B2"/>
      <stop offset="0.39" stop-color="#3750B2"/>
      <stop offset="0.46" stop-color="#7D8CC4"/>
      <stop offset="0.55" stop-color="#BAC5F1"/>
      <stop offset="0.58" stop-color="#CAD2F0"/>
      <stop offset="0.76" stop-color="#9CACED"/>
      <stop offset="0.8" stop-color="#7C8BC9"/>
      <stop offset="1" stop-color="#D1D9F9"/>
    </linearGradient>
    <linearGradient id="paint7_linear_578_94809" x1="-59.9613" y1="359.692" x2="393.306" y2="112.935" gradientUnits="userSpaceOnUse">
      <stop stop-color="#ABB9F2"/>
      <stop offset="0.06" stop-color="#8696D7"/>
      <stop offset="0.12" stop-color="#6879BA"/>
      <stop offset="0.18" stop-color="#44579F"/>
      <stop offset="0.24" stop-color="#4054A4"/>
      <stop offset="0.29" stop-color="#3750B2"/>
      <stop offset="0.33" stop-color="#3750B2"/>
      <stop offset="0.39" stop-color="#3750B2"/>
      <stop offset="0.46" stop-color="#7D8CC4"/>
      <stop offset="0.55" stop-color="#BAC5F1"/>
      <stop offset="0.58" stop-color="#CAD2F0"/>
      <stop offset="0.76" stop-color="#9CACED"/>
      <stop offset="0.8" stop-color="#7C8BC9"/>
      <stop offset="1" stop-color="#D1D9F9"/>
    </linearGradient>
    <linearGradient id="paint8_linear_578_94809" x1="-59.9613" y1="359.692" x2="393.306" y2="112.935" gradientUnits="userSpaceOnUse">
      <stop stop-color="#ABB9F2"/>
      <stop offset="0.06" stop-color="#8696D7"/>
      <stop offset="0.12" stop-color="#6879BA"/>
      <stop offset="0.18" stop-color="#44579F"/>
      <stop offset="0.24" stop-color="#4054A4"/>
      <stop offset="0.29" stop-color="#3750B2"/>
      <stop offset="0.33" stop-color="#3750B2"/>
      <stop offset="0.39" stop-color="#3750B2"/>
      <stop offset="0.46" stop-color="#7D8CC4"/>
      <stop offset="0.55" stop-color="#BAC5F1"/>
      <stop offset="0.58" stop-color="#CAD2F0"/>
      <stop offset="0.76" stop-color="#9CACED"/>
      <stop offset="0.8" stop-color="#7C8BC9"/>
      <stop offset="1" stop-color="#D1D9F9"/>
    </linearGradient>
    <linearGradient id="paint9_linear_578_94809" x1="-59.9613" y1="359.692" x2="393.306" y2="112.935" gradientUnits="userSpaceOnUse">
      <stop stop-color="#ABB9F2"/>
      <stop offset="0.06" stop-color="#8696D7"/>
      <stop offset="0.12" stop-color="#6879BA"/>
      <stop offset="0.18" stop-color="#44579F"/>
      <stop offset="0.24" stop-color="#4054A4"/>
      <stop offset="0.29" stop-color="#3750B2"/>
      <stop offset="0.33" stop-color="#3750B2"/>
      <stop offset="0.39" stop-color="#3750B2"/>
      <stop offset="0.46" stop-color="#7D8CC4"/>
      <stop offset="0.55" stop-color="#BAC5F1"/>
      <stop offset="0.58" stop-color="#CAD2F0"/>
      <stop offset="0.76" stop-color="#9CACED"/>
      <stop offset="0.8" stop-color="#7C8BC9"/>
      <stop offset="1" stop-color="#D1D9F9"/>
    </linearGradient>
    <linearGradient id="paint10_linear_578_94809" x1="-59.9613" y1="359.692" x2="393.306" y2="112.935" gradientUnits="userSpaceOnUse">
      <stop stop-color="#ABB9F2"/>
      <stop offset="0.06" stop-color="#8696D7"/>
      <stop offset="0.12" stop-color="#6879BA"/>
      <stop offset="0.18" stop-color="#44579F"/>
      <stop offset="0.24" stop-color="#4054A4"/>
      <stop offset="0.29" stop-color="#3750B2"/>
      <stop offset="0.33" stop-color="#3750B2"/>
      <stop offset="0.39" stop-color="#3750B2"/>
      <stop offset="0.46" stop-color="#7D8CC4"/>
      <stop offset="0.55" stop-color="#BAC5F1"/>
      <stop offset="0.58" stop-color="#CAD2F0"/>
      <stop offset="0.76" stop-color="#9CACED"/>
      <stop offset="0.8" stop-color="#7C8BC9"/>
      <stop offset="1" stop-color="#D1D9F9"/>
    </linearGradient>
    <linearGradient id="paint11_linear_578_94809" x1="-59.9613" y1="359.692" x2="393.306" y2="112.935" gradientUnits="userSpaceOnUse">
      <stop stop-color="#ABB9F2"/>
      <stop offset="0.06" stop-color="#8696D7"/>
      <stop offset="0.12" stop-color="#6879BA"/>
      <stop offset="0.18" stop-color="#44579F"/>
      <stop offset="0.24" stop-color="#4054A4"/>
      <stop offset="0.29" stop-color="#3750B2"/>
      <stop offset="0.33" stop-color="#3750B2"/>
      <stop offset="0.39" stop-color="#3750B2"/>
      <stop offset="0.46" stop-color="#7D8CC4"/>
      <stop offset="0.55" stop-color="#BAC5F1"/>
      <stop offset="0.58" stop-color="#CAD2F0"/>
      <stop offset="0.76" stop-color="#9CACED"/>
      <stop offset="0.8" stop-color="#7C8BC9"/>
      <stop offset="1" stop-color="#D1D9F9"/>
    </linearGradient>
  </defs>
</svg>