<svg xmlns="http://www.w3.org/2000/svg" width="63" height="59" viewBox="0 0 63 59" fill="none">
  <path d="M30 42L17.5 26H42.5L30 42Z" fill="#3750B2"/>
  <path d="M46 16C46 24.8366 38.8366 32 30 32C21.1634 32 14 24.8366 14 16C14 7.16344 21.1634 0 30 0C38.8366 0 46 7.16344 46 16Z" fill="#3750B2"/>
  <path d="M30.7442 23H24.7907C22.9898 23 22 22.0102 22 20.2093V14.2558C22 12.4549 22.9898 11.4651 24.7907 11.4651H28.5116C28.8167 11.4651 29.0698 11.7181 29.0698 12.0232V20.2093C29.0698 21.3851 29.5684 21.8837 30.7442 21.8837C31.0493 21.8837 31.3023 22.1367 31.3023 22.4418C31.3023 22.7469 31.0493 23 30.7442 23ZM24.7907 12.5814C23.6149 12.5814 23.1163 13.08 23.1163 14.2558V20.2093C23.1163 21.3851 23.6149 21.8837 24.7907 21.8837H28.3628C28.0949 21.4446 27.9535 20.8865 27.9535 20.2093V12.5814H24.7907Z" fill="white"/>
  <path d="M28.5116 12.5814H24.7907C24.4856 12.5814 24.2326 12.3283 24.2326 12.0232V10.5349C24.2326 9.40369 25.1479 8.48834 26.2791 8.48834H28.5935C28.7646 8.48834 28.9284 8.57019 29.0326 8.70414C29.1368 8.84554 29.1739 9.02416 29.1293 9.18788C29.0846 9.3516 29.0698 9.53764 29.0698 9.79067V12.0232C29.0698 12.3283 28.8167 12.5814 28.5116 12.5814ZM25.3488 11.4651H27.9535V9.79067C27.9535 9.72369 27.9535 9.66416 27.9535 9.60462H26.2791C25.7656 9.60462 25.3488 10.0214 25.3488 10.5349V11.4651Z" fill="white"/>
  <path d="M31.4884 16.3023C31.1833 16.3023 30.9302 16.0493 30.9302 15.7442V12.0232C30.9302 11.7181 31.1833 11.4651 31.4884 11.4651C31.7935 11.4651 32.0465 11.7181 32.0465 12.0232V15.7442C32.0465 16.0493 31.7935 16.3023 31.4884 16.3023Z" fill="white"/>
  <path d="M34.4651 16.3023C34.16 16.3023 33.907 16.0493 33.907 15.7442V12.0232C33.907 11.7181 34.16 11.4651 34.4651 11.4651C34.7702 11.4651 35.0233 11.7181 35.0233 12.0232V15.7442C35.0233 16.0493 34.7702 16.3023 34.4651 16.3023Z" fill="white"/>
  <path d="M34.4651 23H31.4884C31.1833 23 30.9302 22.747 30.9302 22.4419V19.4651C30.9302 18.7507 31.5181 18.1628 32.2326 18.1628H33.7209C34.4354 18.1628 35.0233 18.7507 35.0233 19.4651V22.4419C35.0233 22.747 34.7702 23 34.4651 23ZM32.0465 21.8837H33.907V19.4651C33.907 19.3609 33.8251 19.2791 33.7209 19.2791H32.2326C32.1284 19.2791 32.0465 19.3609 32.0465 19.4651V21.8837Z" fill="white"/>
  <path d="M25.5349 19.2791C25.2298 19.2791 24.9767 19.026 24.9767 18.7209V15.7442C24.9767 15.4391 25.2298 15.186 25.5349 15.186C25.84 15.186 26.093 15.4391 26.093 15.7442V18.7209C26.093 19.026 25.84 19.2791 25.5349 19.2791Z" fill="white"/>
  <path d="M35.2093 23H30.7442C28.9432 23 27.9535 22.0102 27.9535 20.2093V9.7907C27.9535 7.98977 28.9432 7 30.7442 7H35.2093C37.0102 7 38 7.98977 38 9.7907V20.2093C38 22.0102 37.0102 23 35.2093 23ZM30.7442 8.11628C29.5684 8.11628 29.0698 8.61488 29.0698 9.7907V20.2093C29.0698 21.3851 29.5684 21.8837 30.7442 21.8837H35.2093C36.3851 21.8837 36.8837 21.3851 36.8837 20.2093V9.7907C36.8837 8.61488 36.3851 8.11628 35.2093 8.11628H30.7442Z" fill="white"/>
  <ellipse cx="31.5" cy="44.5" rx="31.5" ry="14.5" fill="#3750B2" fill-opacity="0.1"/>
</svg>