<svg width="32" height="32" viewBox="0 0 32 32" fill="none" xmlns="http://www.w3.org/2000/svg">
<path fill-rule="evenodd" clip-rule="evenodd" d="M13.4641 6.13125C10.5922 6.13125 8.26406 8.45937 8.26406 11.3313C8.26406 14.2031 10.5922 16.5313 13.4641 16.5313C16.3359 16.5313 18.6641 14.2031 18.6641 11.3313C18.6641 8.45937 16.3359 6.13125 13.4641 6.13125ZM6.66406 11.3313C6.66406 7.57571 9.70853 4.53125 13.4641 4.53125C17.2196 4.53125 20.2641 7.57571 20.2641 11.3313C20.2641 15.0868 17.2196 18.1313 13.4641 18.1313C9.70853 18.1313 6.66406 15.0868 6.66406 11.3313Z" fill="#EA6D51"/>
<path fill-rule="evenodd" clip-rule="evenodd" d="M6.35565 16.5383C6.80571 16.4969 7.20583 16.6425 7.50915 16.8302C7.94924 17.1025 8.85759 17.6327 9.94533 18.0925C11.0461 18.5579 12.2614 18.9212 13.3337 18.9212C14.406 18.9212 15.6213 18.5579 16.722 18.0925C17.8098 17.6327 18.7181 17.1025 19.1582 16.8302C19.4615 16.6425 19.8616 16.4969 20.3117 16.5383C23.0964 16.7946 24.6166 19.3988 24.784 21.9563C24.9545 24.5608 23.7871 27.5143 20.8146 28.8544L20.7891 28.8667C20.7643 28.8784 20.7301 28.8942 20.6864 28.9135C20.5992 28.952 20.4743 29.0044 20.3117 29.0659C19.9866 29.189 19.5111 29.3485 18.8853 29.5064C17.6331 29.8223 15.7821 30.1313 13.3337 30.1313C10.8852 30.1313 9.03424 29.8223 7.78207 29.5064C7.15625 29.3485 6.68075 29.189 6.35564 29.0659C6.1931 29.0044 6.0682 28.952 5.98093 28.9135C5.9373 28.8942 5.90308 28.8784 5.87827 28.8667L5.85274 28.8544C2.88023 27.5143 1.71291 24.5608 1.88336 21.9563C2.05073 19.3988 3.57098 16.7946 6.35565 16.5383ZM6.55239 27.4156L6.55111 27.4149L6.56252 27.4204C6.57491 27.4262 6.59648 27.4362 6.62723 27.4498C6.68874 27.477 6.787 27.5184 6.92201 27.5695C7.192 27.6717 7.60914 27.8126 8.17352 27.955C9.30174 28.2397 11.0213 28.5313 13.3337 28.5313C15.646 28.5313 17.3656 28.2397 18.4938 27.955C19.0582 27.8126 19.4754 27.6717 19.7453 27.5695C19.8804 27.5184 19.9786 27.477 20.0401 27.4498C20.0709 27.4362 20.0924 27.4262 20.1048 27.4204L20.1162 27.4149L20.115 27.4156C20.1257 27.4102 20.1365 27.405 20.1474 27.4001C22.3846 26.3966 23.3249 24.1623 23.1874 22.0608C23.0466 19.9085 21.8392 18.2857 20.1651 18.1316C20.1506 18.1303 20.0949 18.1322 20.0001 18.1908C19.5199 18.4879 18.5352 19.0631 17.3451 19.5662C16.168 20.0639 14.7207 20.5212 13.3337 20.5212C11.9467 20.5212 10.4994 20.0639 9.32229 19.5662C8.1322 19.0631 7.14747 18.4879 6.66727 18.1908C6.5725 18.1322 6.51673 18.1303 6.50229 18.1316C4.82815 18.2857 3.62079 19.9085 3.47994 22.0608C3.34241 24.1623 4.28279 26.3966 6.51993 27.4001C6.53069 27.4049 6.54185 27.4103 6.55239 27.4156Z" fill="#EA6D51"/>
<path fill-rule="evenodd" clip-rule="evenodd" d="M18.8034 3.46719C17.9255 3.46719 17.1007 3.68409 16.3772 4.06655C15.9866 4.27304 15.5025 4.12378 15.296 3.73317C15.0895 3.34257 15.2388 2.85852 15.6294 2.65204C16.5777 2.15071 17.6587 1.86719 18.8034 1.86719C22.559 1.86719 25.6034 4.91165 25.6034 8.66719C25.6034 11.398 23.9937 13.7513 21.6748 14.8328C21.2744 15.0196 20.7984 14.8464 20.6116 14.4459C20.4248 14.0455 20.598 13.5695 20.9985 13.3828C22.7749 12.5542 24.0034 10.7533 24.0034 8.66719C24.0034 5.79531 21.6753 3.46719 18.8034 3.46719Z" fill="#EA6D51"/>
<path fill-rule="evenodd" clip-rule="evenodd" d="M25.4988 15.4675C25.4843 15.4662 25.4286 15.4681 25.3338 15.5267C24.8958 15.7978 24.0403 16.2987 22.9932 16.7656C22.5897 16.9455 22.1167 16.7643 21.9367 16.3608C21.7568 15.9572 21.9381 15.4842 22.3416 15.3043C23.3022 14.876 24.0918 14.4137 24.4919 14.1661L24.9129 14.8464L24.4919 14.1661C24.7952 13.9785 25.1954 13.8329 25.6454 13.8743C28.4301 14.1306 29.9503 16.7348 30.1177 19.2922C30.2884 21.9003 29.1176 24.8584 26.136 26.1959C25.7329 26.3767 25.2595 26.1965 25.0786 25.7934C24.8978 25.3903 25.078 24.9169 25.4811 24.7361C27.7183 23.7325 28.6587 21.4983 28.5211 19.3967C28.3803 17.2445 27.1729 15.6216 25.4988 15.4675Z" fill="#EA6D51"/>
</svg>
