<svg width="32" height="32" viewBox="0 0 32 32" fill="none" xmlns="http://www.w3.org/2000/svg">
<path fill-rule="evenodd" clip-rule="evenodd" d="M12.9497 3.57518C9.9968 3.57518 7.55385 5.97752 7.55385 9.00051C7.55385 12.0235 9.9968 14.4258 12.9497 14.4258C15.9027 14.4258 18.3456 12.0235 18.3456 9.00051C18.3456 5.97752 15.9027 3.57518 12.9497 3.57518ZM5.92188 9.00051C5.92188 5.16089 9.04122 2 12.9497 2C16.8582 2 19.9776 5.16089 19.9776 9.00051C19.9776 12.8401 16.8582 16.001 12.9497 16.001C9.04122 16.001 5.92188 12.8401 5.92188 9.00051Z" fill="#EA6D51"/>
<path fill-rule="evenodd" clip-rule="evenodd" d="M2.93974 19.6151C1.97684 21.7399 1.86873 24.2212 3.5946 25.8285C4.38952 26.5689 5.62383 27.1907 7.16417 27.6312C8.69327 28.0686 10.4683 28.3112 12.2914 28.3342C15.9717 28.3806 19.6771 27.5325 21.9146 25.7836C22.9447 24.9783 23.3879 23.9832 23.4771 22.9462C23.5689 21.8803 23.2875 20.7274 22.7827 19.6808C22.2772 18.6328 21.5821 17.7634 20.9341 17.2569C20.609 17.0027 20.3326 16.8687 20.129 16.8218C19.9372 16.7776 19.8585 16.8178 19.8227 16.8439L19.8051 16.8568L19.7868 16.8686C16.9434 18.7119 14.5844 19.6134 12.3021 19.562C10.0136 19.5105 7.93792 18.504 5.66245 16.8439C5.60282 16.8004 5.31192 16.6862 4.65234 17.2274C4.05508 17.7174 3.41334 18.5701 2.93974 19.6151ZM3.67486 15.9175C4.4429 15.2873 5.58349 14.7601 6.56839 15.4786C8.73432 17.0588 10.5004 17.8579 12.3361 17.8992C14.1744 17.9405 16.2175 17.2247 18.9371 15.464C19.4188 15.1225 19.9699 15.0822 20.4693 15.1973C20.9639 15.3112 21.4456 15.5821 21.8822 15.9234C22.7578 16.6079 23.6008 17.6917 24.1982 18.9301C24.7962 20.17 25.1825 21.637 25.0569 23.0957C24.9289 24.5832 24.2696 26.0172 22.8626 27.1171C20.2257 29.1783 16.1128 30.0457 12.2723 29.9973C10.335 29.9729 8.42406 29.7156 6.74678 29.2359C5.08074 28.7594 3.58828 28.0472 2.54122 27.0721C0.0407208 24.7433 0.411847 21.318 1.50704 18.9013C2.06248 17.6756 2.8445 16.5988 3.67486 15.9175Z" fill="#EA6D51"/>
<path fill-rule="evenodd" clip-rule="evenodd" d="M23.1328 8.37068C23.1328 7.91139 23.4879 7.53906 23.9259 7.53906H30.5352C30.9732 7.53906 31.3283 7.91139 31.3283 8.37068C31.3283 8.82997 30.9732 9.2023 30.5352 9.2023H23.9259C23.4879 9.2023 23.1328 8.82997 23.1328 8.37068Z" fill="#EA6D51"/>
<path fill-rule="evenodd" clip-rule="evenodd" d="M27.2384 4.07812C27.6764 4.07812 28.0315 4.45045 28.0315 4.90975V11.8399C28.0315 12.2992 27.6764 12.6715 27.2384 12.6715C26.8004 12.6715 26.4453 12.2992 26.4453 11.8399V4.90975C26.4453 4.45045 26.8004 4.07812 27.2384 4.07812Z" fill="#EA6D51"/>
</svg>
