<svg width="32" height="32" viewBox="0 0 32 32" fill="none" xmlns="http://www.w3.org/2000/svg">
<path fill-rule="evenodd" clip-rule="evenodd" d="M1.86719 19.3781C1.86719 18.9363 2.22536 18.5781 2.66719 18.5781H6.66719C7.10901 18.5781 7.46719 18.9363 7.46719 19.3781V29.3337C7.46719 29.7755 7.10901 30.1337 6.66719 30.1337H2.66719C2.22536 30.1337 1.86719 29.7755 1.86719 29.3337V19.3781ZM3.46719 20.1781V28.5337H5.86719V20.1781H3.46719Z" fill="#EA6D51"/>
<path fill-rule="evenodd" clip-rule="evenodd" d="M10.1313 21.2039V28.6227C10.1313 29.0646 9.77308 29.4227 9.33125 29.4227C8.88942 29.4227 8.53125 29.0646 8.53125 28.6227V20.8005C8.53125 20.5575 8.64172 20.3276 8.83149 20.1758L9.33125 20.8005C8.83149 20.1758 8.83132 20.176 8.83149 20.1758L8.83318 20.1745L8.83585 20.1724L8.84411 20.1658L8.87211 20.144C8.8958 20.1256 8.92945 20.0999 8.97241 20.0678C9.05828 20.0037 9.18162 19.9141 9.33716 19.8074C9.64756 19.5946 10.0898 19.3115 10.6214 19.028C11.6664 18.4706 13.138 17.8672 14.6646 17.8672C16.127 17.8672 17.5579 18.2543 18.5993 18.6245C19.1251 18.8115 19.5636 18.9985 19.8722 19.1396C20.0267 19.2102 20.1493 19.2696 20.2346 19.3121C20.2773 19.3334 20.3107 19.3504 20.3342 19.3625L20.362 19.377L20.3701 19.3813L20.3727 19.3827L20.3741 19.3834C20.3742 19.3834 20.3744 19.3835 19.9979 20.0894L20.3741 19.3834C21.8454 20.1681 22.4646 21.0992 22.4646 22.045C22.4646 22.4792 22.3293 22.8317 22.2031 23.0672C22.1393 23.1863 22.0747 23.2815 22.0233 23.35C21.9975 23.3844 21.9746 23.4127 21.9561 23.4345C21.9468 23.4454 21.9387 23.4548 21.9317 23.4625L21.9223 23.473L21.9183 23.4773L21.9165 23.4792C21.9161 23.4797 21.9149 23.481 21.3451 22.9469L21.9149 23.481C21.6127 23.8033 21.1064 23.8197 20.7841 23.5175C20.4658 23.2191 20.4459 22.7217 20.7364 22.3989C20.7378 22.3972 20.7401 22.3942 20.7433 22.39C20.7545 22.3751 20.7732 22.348 20.7927 22.3116C20.8332 22.2361 20.8646 22.1441 20.8646 22.045C20.8646 21.9241 20.8168 21.4329 19.622 20.7956C19.6218 20.7955 19.6222 20.7957 19.622 20.7956L19.9713 20.1393C19.6215 20.7953 19.6219 20.7955 19.622 20.7956L19.6184 20.7937L19.6004 20.7843C19.5835 20.7756 19.5571 20.7621 19.5216 20.7445C19.4507 20.7092 19.3441 20.6575 19.207 20.5948C18.9323 20.4692 18.5374 20.3007 18.0632 20.1321C17.1046 19.7912 15.8689 19.4672 14.6646 19.4672C13.5245 19.4672 12.3294 19.9304 11.3744 20.4397C10.906 20.6895 10.5149 20.9398 10.242 21.127C10.2025 21.1541 10.1655 21.1798 10.1313 21.2039ZM9.8303 21.4258C9.83006 21.426 9.83022 21.4258 9.8303 21.4258V21.4258Z" fill="#EA6D51"/>
<path fill-rule="evenodd" clip-rule="evenodd" d="M28.2088 20.0034C28.7358 20.0336 29.1934 20.2658 29.5777 20.6672C30.0104 21.1191 30.1834 21.6797 30.118 22.2637C30.0568 22.8098 29.7946 23.3296 29.4574 23.7953C28.7825 24.7275 27.6362 25.6762 26.2866 26.5329C23.5776 28.2523 19.7699 29.7749 16.4304 30.0873C14.9545 30.2253 13.1172 30.0283 11.6933 29.8111C10.972 29.701 10.339 29.5829 9.88589 29.4923C9.65916 29.4469 9.47699 29.4083 9.35079 29.3809C9.28768 29.3672 9.23853 29.3563 9.20477 29.3487L9.16582 29.3399L9.15533 29.3375L9.15239 29.3368C9.15228 29.3368 9.151 29.3365 9.32312 28.593L9.151 29.3365C8.72056 29.2368 8.45239 28.8071 8.55204 28.3766C8.65168 27.9462 9.08134 27.6781 9.51175 27.7777C9.51178 27.7777 9.51171 27.7776 9.51175 27.7777L9.51375 27.7781L9.52175 27.7799L9.55553 27.7876C9.58578 27.7944 9.63123 27.8045 9.69047 27.8174C9.80899 27.8431 9.98253 27.8799 10.1998 27.9234C10.6348 28.0104 11.243 28.1239 11.9346 28.2294C13.3364 28.4432 15.0113 28.613 16.2814 28.4942C19.3145 28.2105 22.8824 26.7985 25.4291 25.182C26.7073 24.3707 27.6589 23.5511 28.1614 22.857C28.413 22.5095 28.5093 22.2516 28.5279 22.0856C28.5422 21.9577 28.5161 21.872 28.422 21.7737C28.2794 21.6248 28.1883 21.6048 28.117 21.6007C28.0063 21.5944 27.8216 21.6269 27.502 21.7685C27.1849 21.909 26.8236 22.1148 26.3588 22.3796C25.9068 22.6372 25.3797 22.9366 24.7813 23.2251C22.329 24.4073 18.7728 25.3546 13.283 23.4433C12.8658 23.298 12.6453 22.842 12.7906 22.4247C12.9358 22.0074 13.3919 21.7869 13.8091 21.9322C18.856 23.6894 21.973 22.8027 24.0866 21.7838C24.6297 21.522 25.1128 21.248 25.5663 20.9897L25.6155 20.9616C26.0395 20.72 26.4617 20.4794 26.8538 20.3057C27.2585 20.1263 27.7214 19.9754 28.2088 20.0034Z" fill="#EA6D51"/>
<path fill-rule="evenodd" clip-rule="evenodd" d="M22.6641 4.10105C21.2966 4.10105 20.1435 5.22423 20.1435 6.66406C20.1435 8.10389 21.2966 9.22707 22.6641 9.22707C24.0315 9.22707 25.1846 8.10389 25.1846 6.66406C25.1846 5.22423 24.0315 4.10105 22.6641 4.10105ZM18.6641 6.66406C18.6641 4.47924 20.4303 2.66406 22.6641 2.66406C24.8978 2.66406 26.6641 4.47924 26.6641 6.66406C26.6641 8.84888 24.8978 10.6641 22.6641 10.6641C20.4303 10.6641 18.6641 8.84888 18.6641 6.66406Z" fill="#EA6D51"/>
<path fill-rule="evenodd" clip-rule="evenodd" d="M17.7587 13.3257C17.2817 14.33 17.2752 15.3938 18.0283 16.0631C18.395 16.3889 18.9897 16.682 19.7691 16.8947C20.5383 17.1046 21.4381 17.2227 22.3671 17.2338C24.2559 17.2565 26.1109 16.8381 27.2018 16.0244C27.6676 15.677 27.8577 15.2613 27.8969 14.8268C27.9383 14.3676 27.8115 13.8508 27.5659 13.365C27.3197 12.878 26.9853 12.4842 26.6906 12.2644C26.5551 12.1634 26.4557 12.1196 26.4006 12.1042C24.9086 13.023 23.6279 13.4981 22.3627 13.4709C21.1042 13.4439 19.9794 12.9224 18.7938 12.1053C18.7542 12.1189 18.6811 12.1549 18.5655 12.2455C18.2982 12.4547 17.9902 12.8384 17.7587 13.3257ZM18.8309 12.0987C18.8306 12.0997 18.8247 12.101 18.8138 12.0996C18.8258 12.097 18.8312 12.0977 18.8309 12.0987ZM17.6851 11.1198C18.1061 10.7901 18.862 10.4117 19.551 10.8914C20.6597 11.6631 21.5219 12.0232 22.3933 12.0419C23.2675 12.0607 24.2726 11.7382 25.666 10.8781C26.0003 10.6545 26.3749 10.6347 26.6925 10.7045C27.0056 10.7733 27.2957 10.9329 27.5445 11.1185C28.0442 11.4912 28.5119 12.0692 28.8408 12.7199C29.1703 13.3718 29.3916 14.1585 29.3197 14.9553C29.2456 15.7769 28.8609 16.5699 28.0557 17.1704C26.6049 18.2524 24.383 18.6875 22.35 18.6631C21.3181 18.6507 20.2959 18.52 19.3931 18.2737C18.5005 18.0301 17.6733 17.6594 17.0795 17.1317C15.6288 15.8425 15.8722 13.9674 16.4683 12.7122C16.7735 12.0697 17.2079 11.4933 17.6851 11.1198Z" fill="#EA6D51"/>
</svg>
