<svg width="32" height="32" viewBox="0 0 32 32" fill="none" xmlns="http://www.w3.org/2000/svg">
<path fill-rule="evenodd" clip-rule="evenodd" d="M3.55738 6.25322C3.48855 6.31517 3.46719 6.37872 3.46719 6.42997V28.2482C3.46719 28.2994 3.48855 28.363 3.55738 28.4249C3.62757 28.4881 3.73915 28.5391 3.87931 28.5391H28.1217C28.2619 28.5391 28.3735 28.4881 28.4437 28.4249C28.5125 28.363 28.5339 28.2994 28.5339 28.2482V6.42997C28.5339 6.37872 28.5125 6.31517 28.4437 6.25322C28.3735 6.19005 28.2619 6.13906 28.1217 6.13906H3.87931C3.73915 6.13906 3.62757 6.19005 3.55738 6.25322ZM1.86719 6.42997C1.86719 5.30845 2.84941 4.53906 3.87931 4.53906H28.1217C29.1516 4.53906 30.1339 5.30845 30.1339 6.42997V28.2482C30.1339 29.3697 29.1516 30.1391 28.1217 30.1391H3.87931C2.84941 30.1391 1.86719 29.3697 1.86719 28.2482V6.42997Z" fill="#EA6D51"/>
<path fill-rule="evenodd" clip-rule="evenodd" d="M22.6672 1.86719C23.109 1.86719 23.4672 2.22536 23.4672 2.66719L23.4672 8.00052C23.4672 8.44235 23.109 8.80052 22.6672 8.80052C22.2254 8.80052 21.8672 8.44235 21.8672 8.00052L21.8672 2.66719C21.8672 2.22536 22.2254 1.86719 22.6672 1.86719Z" fill="#EA6D51"/>
<path fill-rule="evenodd" clip-rule="evenodd" d="M9.34687 1.86902C9.7887 1.87003 10.1461 2.22902 10.145 2.67085L10.1328 8.00418C10.1318 8.44601 9.77283 8.80336 9.331 8.80235C8.88918 8.80134 8.53183 8.44235 8.53284 8.00052L8.54504 2.66719C8.54606 2.22536 8.90505 1.86801 9.34687 1.86902Z" fill="#EA6D51"/>
<path fill-rule="evenodd" clip-rule="evenodd" d="M1.86719 10.6672C1.86719 10.2254 2.22536 9.86719 2.66719 9.86719H29.3339C29.7757 9.86719 30.1339 10.2254 30.1339 10.6672C30.1339 11.109 29.7757 11.4672 29.3339 11.4672H2.66719C2.22536 11.4672 1.86719 11.109 1.86719 10.6672Z" fill="#EA6D51"/>
<path fill-rule="evenodd" clip-rule="evenodd" d="M23.0938 13.9889C23.4685 14.2231 23.5824 14.7166 23.3482 15.0913L16.6815 25.758C16.5523 25.9647 16.3359 26.1012 16.0937 26.1288C15.8514 26.1564 15.6098 26.072 15.4374 25.8996L11.4374 21.8996C11.125 21.5872 11.125 21.0807 11.4374 20.7683C11.7499 20.4559 12.2564 20.4559 12.5688 20.7683L15.8577 24.0572L21.9914 14.2433C22.2256 13.8686 22.7191 13.7547 23.0938 13.9889Z" fill="#EA6D51"/>
</svg>
