<svg width="32" height="32" viewBox="0 0 32 32" fill="none" xmlns="http://www.w3.org/2000/svg">
<path fill-rule="evenodd" clip-rule="evenodd" d="M0.53125 9.33385C0.53125 7.41927 2.08333 5.86719 3.99792 5.86719H27.9979C29.9125 5.86719 31.4646 7.41927 31.4646 9.33385V24.0005C31.4646 25.9151 29.9125 27.4672 27.9979 27.4672H3.99792C2.08333 27.4672 0.53125 25.9151 0.53125 24.0005V9.33385ZM3.99792 7.46719C2.96699 7.46719 2.13125 8.30292 2.13125 9.33385V24.0005C2.13125 25.0315 2.96698 25.8672 3.99792 25.8672H27.9979C29.0289 25.8672 29.8646 25.0315 29.8646 24.0005V9.33385C29.8646 8.30292 29.0289 7.46719 27.9979 7.46719H3.99792Z" fill="#EA6D51"/>
<path fill-rule="evenodd" clip-rule="evenodd" d="M5.33125 5.86719C5.77308 5.86719 6.13125 6.22536 6.13125 6.66719V26.6672C6.13125 27.109 5.77308 27.4672 5.33125 27.4672C4.88942 27.4672 4.53125 27.109 4.53125 26.6672V6.66719C4.53125 6.22536 4.88942 5.86719 5.33125 5.86719Z" fill="#EA6D51"/>
<path fill-rule="evenodd" clip-rule="evenodd" d="M26.6672 5.86719C27.109 5.86719 27.4672 6.22536 27.4672 6.66719V26.6672C27.4672 27.109 27.109 27.4672 26.6672 27.4672C26.2254 27.4672 25.8672 27.109 25.8672 26.6672V6.66719C25.8672 6.22536 26.2254 5.86719 26.6672 5.86719Z" fill="#EA6D51"/>
<path fill-rule="evenodd" clip-rule="evenodd" d="M4.53125 29.3313C4.53125 28.8894 4.88942 28.5312 5.33125 28.5312H10.6646C11.1064 28.5312 11.4646 28.8894 11.4646 29.3313C11.4646 29.7731 11.1064 30.1313 10.6646 30.1313H5.33125C4.88942 30.1313 4.53125 29.7731 4.53125 29.3313Z" fill="#EA6D51"/>
<path fill-rule="evenodd" clip-rule="evenodd" d="M20.5312 29.3313C20.5312 28.8894 20.8894 28.5312 21.3313 28.5312H26.6646C27.1064 28.5312 27.4646 28.8894 27.4646 29.3313C27.4646 29.7731 27.1064 30.1313 26.6646 30.1313H21.3313C20.8894 30.1313 20.5312 29.7731 20.5312 29.3313Z" fill="#EA6D51"/>
<path fill-rule="evenodd" clip-rule="evenodd" d="M12.0005 3.46719C11.706 3.46719 11.4672 3.70597 11.4672 4.00052V6.66719C11.4672 7.10901 11.109 7.46719 10.6672 7.46719C10.2254 7.46719 9.86719 7.10901 9.86719 6.66719V4.00052C9.86719 2.82231 10.8223 1.86719 12.0005 1.86719H20.0005C21.1787 1.86719 22.1339 2.82231 22.1339 4.00052V6.66719C22.1339 7.10901 21.7757 7.46719 21.3339 7.46719C20.892 7.46719 20.5339 7.10901 20.5339 6.66719V4.00052C20.5339 3.70597 20.2951 3.46719 20.0005 3.46719H12.0005Z" fill="#EA6D51"/>
<path fill-rule="evenodd" clip-rule="evenodd" d="M15.9979 9.86719C16.4397 9.86719 16.7979 10.2254 16.7979 10.6672V10.9339H16.8903C18.427 10.9576 19.4646 12.3794 19.4646 13.8672C19.4646 14.309 19.1064 14.6672 18.6646 14.6672C18.2228 14.6672 17.8646 14.309 17.8646 13.8672C17.8646 13.0115 17.3064 12.544 16.8705 12.5339H14.8779C14.5991 12.5339 14.1313 12.8683 14.1313 13.5929C14.1313 14.0526 14.2199 14.2509 14.283 14.3423C14.344 14.4308 14.448 14.5176 14.6967 14.6184L17.9036 15.9011C18.2876 16.0599 18.7112 16.3014 19.0199 16.7527C19.3265 17.2009 19.4513 17.7551 19.4513 18.4081C19.4513 19.7254 18.5324 21.0672 17.1046 21.0672H16.7979V21.3339C16.7979 21.7757 16.4397 22.1339 15.9979 22.1339C15.5561 22.1339 15.1979 21.7757 15.1979 21.3339V21.0672H15.1046C13.5579 21.0672 12.5312 19.6049 12.5312 18.1339C12.5312 17.692 12.8894 17.3339 13.3313 17.3339C13.7731 17.3339 14.1313 17.692 14.1313 18.1339C14.1313 19.0095 14.7046 19.4672 15.1046 19.4672H17.1046C17.3834 19.4672 17.8513 19.1328 17.8513 18.4081C17.8513 17.9487 17.7627 17.7487 17.6993 17.656C17.6383 17.5668 17.5361 17.4811 17.2963 17.3815L14.1008 16.1033L14.0978 16.1021C13.7074 15.9441 13.2783 15.7035 12.9662 15.2511C12.6559 14.8015 12.5312 14.2456 12.5312 13.5929C12.5312 12.2756 13.4501 10.9339 14.8779 10.9339H15.1979V10.6672C15.1979 10.2254 15.5561 9.86719 15.9979 9.86719Z" fill="#EA6D51"/>
</svg>
