<svg width="32" height="32" viewBox="0 0 32 32" fill="none" xmlns="http://www.w3.org/2000/svg">
<path fill-rule="evenodd" clip-rule="evenodd" d="M9.86719 4.00052C9.86719 2.82231 10.8223 1.86719 12.0005 1.86719H20.0005C21.1787 1.86719 22.1339 2.82231 22.1339 4.00052V9.33385C22.1339 10.5121 21.1787 11.4672 20.0005 11.4672H12.0005C10.8223 11.4672 9.86719 10.5121 9.86719 9.33385V4.00052ZM12.0005 3.46719C11.706 3.46719 11.4672 3.70597 11.4672 4.00052V9.33385C11.4672 9.62841 11.706 9.86719 12.0005 9.86719H20.0005C20.2951 9.86719 20.5339 9.62841 20.5339 9.33385V4.00052C20.5339 3.70597 20.2951 3.46719 20.0005 3.46719H12.0005Z" fill="#EA6D51"/>
<path fill-rule="evenodd" clip-rule="evenodd" d="M0.53125 24.0005C0.53125 22.8223 1.48638 21.8672 2.66458 21.8672H7.99792C9.17612 21.8672 10.1313 22.8223 10.1313 24.0005V28.0005C10.1313 29.1787 9.17612 30.1339 7.99792 30.1339H2.66458C1.48638 30.1339 0.53125 29.1787 0.53125 28.0005V24.0005ZM2.66458 23.4672C2.37003 23.4672 2.13125 23.706 2.13125 24.0005V28.0005C2.13125 28.2951 2.37003 28.5339 2.66458 28.5339H7.99792C8.29247 28.5339 8.53125 28.2951 8.53125 28.0005V24.0005C8.53125 23.706 8.29247 23.4672 7.99792 23.4672H2.66458Z" fill="#EA6D51"/>
<path fill-rule="evenodd" clip-rule="evenodd" d="M11.1953 24.0005C11.1953 22.8223 12.1504 21.8672 13.3286 21.8672H18.662C19.8402 21.8672 20.7953 22.8223 20.7953 24.0005V28.0005C20.7953 29.1787 19.8402 30.1339 18.662 30.1339H13.3286C12.1504 30.1339 11.1953 29.1787 11.1953 28.0005V24.0005ZM13.3286 23.4672C13.0341 23.4672 12.7953 23.706 12.7953 24.0005V28.0005C12.7953 28.2951 13.0341 28.5339 13.3286 28.5339H18.662C18.9565 28.5339 19.1953 28.2951 19.1953 28.0005V24.0005C19.1953 23.706 18.9565 23.4672 18.662 23.4672H13.3286Z" fill="#EA6D51"/>
<path fill-rule="evenodd" clip-rule="evenodd" d="M21.8672 24.0005C21.8672 22.8223 22.8223 21.8672 24.0005 21.8672H29.3339C30.5121 21.8672 31.4672 22.8223 31.4672 24.0005V28.0005C31.4672 29.1787 30.5121 30.1339 29.3339 30.1339H24.0005C22.8223 30.1339 21.8672 29.1787 21.8672 28.0005V24.0005ZM24.0005 23.4672C23.706 23.4672 23.4672 23.706 23.4672 24.0005V28.0005C23.4672 28.2951 23.706 28.5339 24.0005 28.5339H29.3339C29.6284 28.5339 29.8672 28.2951 29.8672 28.0005V24.0005C29.8672 23.706 29.6284 23.4672 29.3339 23.4672H24.0005Z" fill="#EA6D51"/>
<path fill-rule="evenodd" clip-rule="evenodd" d="M15.9953 9.86719C16.4371 9.86719 16.7953 10.2254 16.7953 10.6672V22.6672C16.7953 23.109 16.4371 23.4672 15.9953 23.4672C15.5535 23.4672 15.1953 23.109 15.1953 22.6672V10.6672C15.1953 10.2254 15.5535 9.86719 15.9953 9.86719Z" fill="#EA6D51"/>
<path fill-rule="evenodd" clip-rule="evenodd" d="M6.66458 16.8031C6.37003 16.8031 6.13125 17.0419 6.13125 17.3365V22.6698C6.13125 23.1116 5.77308 23.4698 5.33125 23.4698C4.88942 23.4698 4.53125 23.1116 4.53125 22.6698V17.3365C4.53125 16.1583 5.48638 15.2031 6.66458 15.2031H25.3313C26.5095 15.2031 27.4646 16.1583 27.4646 17.3365V22.6698C27.4646 23.1116 27.1064 23.4698 26.6646 23.4698C26.2228 23.4698 25.8646 23.1116 25.8646 22.6698V17.3365C25.8646 17.0419 25.6258 16.8031 25.3313 16.8031H6.66458Z" fill="#EA6D51"/>
</svg>
