<svg width="32" height="32" viewBox="0 0 32 32" fill="none" xmlns="http://www.w3.org/2000/svg">
<path fill-rule="evenodd" clip-rule="evenodd" d="M0.53125 4.00052C0.53125 2.82231 1.48638 1.86719 2.66458 1.86719H29.3313C30.5095 1.86719 31.4646 2.82231 31.4646 4.00052V28.0005C31.4646 29.1787 30.5095 30.1339 29.3313 30.1339H2.66458C1.48638 30.1339 0.53125 29.1787 0.53125 28.0005V4.00052ZM2.66458 3.46719C2.37003 3.46719 2.13125 3.70597 2.13125 4.00052V28.0005C2.13125 28.2951 2.37003 28.5339 2.66458 28.5339H29.3313C29.6258 28.5339 29.8646 28.2951 29.8646 28.0005V4.00052C29.8646 3.70597 29.6258 3.46719 29.3313 3.46719H2.66458Z" fill="#EA6D51"/>
<path fill-rule="evenodd" clip-rule="evenodd" d="M15.6273 7.29553C15.8609 7.17232 16.1402 7.17232 16.3738 7.29553L25.7071 12.2188C25.9696 12.3572 26.1339 12.6296 26.1339 12.9264C26.1339 13.2231 25.9696 13.4955 25.7071 13.6339L16.3738 18.5572C16.1402 18.6804 15.8609 18.6804 15.6273 18.5572L6.29394 13.6339C6.03146 13.4955 5.86719 13.2231 5.86719 12.9264C5.86719 12.6296 6.03146 12.3572 6.29394 12.2188L15.6273 7.29553ZM8.38187 12.9264L16.0005 16.9451L23.6192 12.9264L16.0005 8.9076L8.38187 12.9264Z" fill="#EA6D51"/>
<path fill-rule="evenodd" clip-rule="evenodd" d="M15.2879 12.5519C15.494 12.1611 15.9779 12.0114 16.3687 12.2176L21.0354 14.6792C21.2979 14.8176 21.4621 15.09 21.4621 15.3868V24.0024C21.4621 24.4442 21.104 24.8024 20.6621 24.8024C20.2203 24.8024 19.8621 24.4442 19.8621 24.0024V15.8693L15.6222 13.6328C15.2314 13.4266 15.0817 12.9427 15.2879 12.5519Z" fill="#EA6D51"/>
<path fill-rule="evenodd" clip-rule="evenodd" d="M8.83907 13.2734C9.2809 13.2734 9.63907 13.6316 9.63907 14.0734V18.2016C10.1473 18.8569 12.1446 21.0506 15.9946 21.0506C19.8447 21.0506 21.842 18.8569 22.3502 18.2016V14.0734C22.3502 13.6316 22.7084 13.2734 23.1502 13.2734C23.592 13.2734 23.9502 13.6316 23.9502 14.0734V18.2736L23.9502 18.277C23.9489 18.5823 23.8474 18.8779 23.6624 19.1195C23.0588 19.9201 20.6411 22.6506 15.9946 22.6506C11.3481 22.6506 8.93032 19.92 8.32677 19.1194C8.14188 18.8779 8.04038 18.5823 8.03908 18.277L8.03906 18.2736H8.03907V14.0734C8.03907 13.6316 8.39724 13.2734 8.83907 13.2734Z" fill="#EA6D51"/>
</svg>
