<svg width="32" height="32" viewBox="0 0 32 32" fill="none" xmlns="http://www.w3.org/2000/svg">
<path fill-rule="evenodd" clip-rule="evenodd" d="M3.86719 13.3313C3.86719 12.8894 4.22536 12.5312 4.66719 12.5312H27.3339C27.7757 12.5312 28.1339 12.8894 28.1339 13.3313V27.9983C28.1339 29.1765 27.1787 30.1317 26.0005 30.1317H6.00052C4.82231 30.1317 3.86719 29.1765 3.86719 27.9983V13.3313ZM5.46719 14.1313V27.9983C5.46719 28.2929 5.70597 28.5317 6.00052 28.5317H26.0005C26.2951 28.5317 26.5339 28.2929 26.5339 27.9983V14.1313H5.46719Z" fill="#EA6D51"/>
<path fill-rule="evenodd" clip-rule="evenodd" d="M1.86719 8.00313C1.86719 7.5613 2.22536 7.20312 2.66719 7.20312H29.3339C29.7757 7.20312 30.1339 7.5613 30.1339 8.00313V13.3365C30.1339 13.7783 29.7757 14.1365 29.3339 14.1365H2.66719C2.22536 14.1365 1.86719 13.7783 1.86719 13.3365V8.00313ZM3.46719 8.80313V12.5365H28.5339V8.80313H3.46719Z" fill="#EA6D51"/>
<path fill-rule="evenodd" clip-rule="evenodd" d="M16.0031 7.20312C16.445 7.20312 16.8031 7.5613 16.8031 8.00313V29.3365C16.8031 29.7783 16.445 30.1365 16.0031 30.1365C15.5613 30.1365 15.2031 29.7783 15.2031 29.3365V8.00313C15.2031 7.5613 15.5613 7.20312 16.0031 7.20312Z" fill="#EA6D51"/>
<path fill-rule="evenodd" clip-rule="evenodd" d="M24.6177 3.46719C23.448 3.46735 21.9515 3.93799 21.0969 4.52937C20.1796 5.16421 19.0898 6.1271 18.1965 6.96723C19.0022 6.86285 19.9458 6.71936 20.8982 6.52793C22.161 6.27412 23.3999 5.94358 24.3468 5.52637C24.8203 5.31775 25.1884 5.10131 25.4444 4.88573C25.7016 4.66914 25.7984 4.49413 25.8278 4.37218C25.8872 4.12532 25.8726 3.97744 25.8504 3.89741C25.8305 3.82614 25.7952 3.77195 25.7302 3.71943C25.569 3.58928 25.2125 3.4671 24.6177 3.46719ZM16.0031 8.00035C15.4268 7.44549 15.4269 7.44545 15.4269 7.44539L15.4356 7.4364L15.4593 7.41189L15.5494 7.3196C15.6274 7.23987 15.7407 7.12498 15.8826 6.98305C16.1663 6.69935 16.5653 6.30669 17.0277 5.87015C17.944 5.00503 19.1401 3.93785 20.1864 3.2137C21.3199 2.42932 23.1366 1.8674 24.6175 1.86719C25.348 1.86709 26.1511 2.00277 26.7354 2.47465C27.0432 2.72314 27.2771 3.05601 27.3918 3.46861C27.5042 3.87245 27.4896 4.30523 27.3834 4.74662C27.247 5.31291 26.8883 5.76161 26.475 6.10959C26.0606 6.45857 25.5435 6.74754 24.9919 6.99055C23.8888 7.47662 22.5185 7.83426 21.2135 8.09656C19.9001 8.36056 18.6129 8.53564 17.6573 8.64469C17.1785 8.69931 16.7809 8.7376 16.5021 8.7623C16.3627 8.77465 16.2528 8.78361 16.1773 8.78952L16.0904 8.79614L16.0673 8.79782L16.0592 8.79839C16.0591 8.7984 16.0584 8.79845 16.0031 8.00035ZM16.0031 8.00035L16.0592 8.79839C15.7291 8.82123 15.4182 8.63857 15.2782 8.33874C15.1382 8.03891 15.1974 7.68376 15.4269 7.44539L16.0031 8.00035Z" fill="#EA6D51"/>
<path fill-rule="evenodd" clip-rule="evenodd" d="M7.38228 3.46719C8.55204 3.46735 10.0485 3.93799 10.9031 4.52937C11.8204 5.16421 12.9102 6.1271 13.8035 6.96723C12.9978 6.86285 12.0542 6.71936 11.1018 6.52793C9.83903 6.27412 8.60009 5.94358 7.65318 5.52637C7.17969 5.31775 6.81157 5.10131 6.55557 4.88573C6.29837 4.66914 6.20157 4.49413 6.17222 4.37218C6.1128 4.12532 6.12738 3.97744 6.14964 3.89741C6.16946 3.82614 6.20476 3.77195 6.2698 3.71943C6.43096 3.58928 6.78748 3.4671 7.38228 3.46719ZM15.9969 8.00035C16.5732 7.44549 16.5731 7.44545 16.5731 7.44539L16.5644 7.4364L16.5407 7.41189L16.4506 7.3196C16.3726 7.23987 16.2593 7.12498 16.1174 6.98305C15.8337 6.69935 15.4347 6.30669 14.9723 5.87015C14.056 5.00503 12.8599 3.93785 11.8136 3.2137C10.6801 2.42932 8.86336 1.8674 7.38251 1.86719C6.65199 1.86709 5.84888 2.00277 5.26455 2.47465C4.95685 2.72314 4.72294 3.05601 4.60817 3.46861C4.49583 3.87245 4.5104 4.30523 4.61665 4.74662C4.75296 5.31291 5.11173 5.76161 5.52495 6.10959C5.93937 6.45857 6.45651 6.74754 7.00806 6.99055C8.11124 7.47662 9.4815 7.83426 10.7865 8.09656C12.0999 8.36056 13.3871 8.53564 14.3427 8.64469C14.8215 8.69931 15.2191 8.7376 15.4979 8.7623C15.6373 8.77465 15.7472 8.78361 15.8227 8.78952L15.9096 8.79614L15.9327 8.79782L15.9408 8.79839C15.9409 8.7984 15.9416 8.79845 15.9969 8.00035ZM15.9969 8.00035L15.9408 8.79839C16.2709 8.82123 16.5818 8.63857 16.7218 8.33874C16.8618 8.03891 16.8026 7.68376 16.5731 7.44539L15.9969 8.00035Z" fill="#EA6D51"/>
<path fill-rule="evenodd" clip-rule="evenodd" d="M15.9974 6.4026C15.8501 6.4026 15.7307 6.52199 15.7307 6.66927C15.7307 6.81655 15.8501 6.93594 15.9974 6.93594C16.1447 6.93594 16.2641 6.81655 16.2641 6.66927C16.2641 6.52199 16.1447 6.4026 15.9974 6.4026ZM15.9974 8.0026C16.7338 8.0026 17.3307 7.40565 17.3307 6.66927C17.3307 5.93289 16.7338 5.33594 15.9974 5.33594C15.261 5.33594 14.6641 5.93289 14.6641 6.66927C14.6641 7.40565 15.261 8.0026 15.9974 8.0026Z" fill="#EA6D51"/>
</svg>
