<svg width="32" height="32" viewBox="0 0 32 32" fill="none" xmlns="http://www.w3.org/2000/svg">
<path fill-rule="evenodd" clip-rule="evenodd" d="M3.87931 3.46719C3.75929 3.46719 3.65067 3.5132 3.57574 3.58501C3.50197 3.65571 3.46719 3.74416 3.46719 3.82883V12.3524C3.46719 18.1794 6.03509 22.0312 8.86681 24.5287C11.719 27.0442 14.8398 28.1815 15.8636 28.5063C15.8722 28.509 15.8808 28.5118 15.8893 28.5149C15.9606 28.5402 16.0404 28.5402 16.1118 28.5149C16.1203 28.5118 16.1288 28.509 16.1374 28.5063C17.1613 28.1815 20.282 27.0442 23.1342 24.5287C25.966 22.0312 28.5339 18.1794 28.5339 12.3524V3.82883C28.5339 3.74416 28.4991 3.65571 28.4253 3.58501C28.3504 3.5132 28.2418 3.46719 28.1217 3.46719H3.87931ZM2.46868 2.42984C2.84838 2.06595 3.35638 1.86719 3.87931 1.86719H28.1217C28.6447 1.86719 29.1527 2.06595 29.5324 2.42984C29.9132 2.79484 30.1339 3.29733 30.1339 3.82883V12.3524C30.1339 18.7226 27.3002 22.9878 24.1926 25.7286C21.1156 28.4423 17.7711 29.6655 16.6325 30.0278C16.2237 30.1692 15.7774 30.1692 15.3686 30.0278C14.2299 29.6655 10.8854 28.4423 7.80848 25.7286C4.7008 22.9878 1.86719 18.7226 1.86719 12.3524V3.82883C1.86719 3.29732 2.08782 2.79484 2.46868 2.42984Z" fill="#EA6D51"/>
<path fill-rule="evenodd" clip-rule="evenodd" d="M9.86719 14.6672C9.86719 14.2254 10.2254 13.8672 10.6672 13.8672L21.3339 13.8672C21.7757 13.8672 22.1339 14.2254 22.1339 14.6672C22.1339 15.109 21.7757 15.4672 21.3339 15.4672L10.6672 15.4672C10.2254 15.4672 9.86719 15.109 9.86719 14.6672Z" fill="#EA6D51"/>
<path fill-rule="evenodd" clip-rule="evenodd" d="M16.0031 8.53122C16.445 8.53121 16.8031 8.88937 16.8032 9.3312L16.8035 19.9979C16.8035 20.4397 16.4454 20.7979 16.0035 20.7979C15.5617 20.7979 15.2035 20.4397 15.2035 19.9979L15.2032 9.33125C15.2031 8.88942 15.5613 8.53124 16.0031 8.53122Z" fill="#EA6D51"/>
</svg>
