<svg width="32" height="32" viewBox="0 0 32 32" fill="none" xmlns="http://www.w3.org/2000/svg">
<path fill-rule="evenodd" clip-rule="evenodd" d="M16.0005 3.46719C9.07855 3.46719 3.46719 9.07855 3.46719 16.0005C3.46719 22.9225 9.07855 28.5339 16.0005 28.5339C22.9225 28.5339 28.5339 22.9225 28.5339 16.0005C28.5339 9.07855 22.9225 3.46719 16.0005 3.46719ZM1.86719 16.0005C1.86719 8.1949 8.1949 1.86719 16.0005 1.86719C23.8061 1.86719 30.1339 8.1949 30.1339 16.0005C30.1339 23.8061 23.8061 30.1339 16.0005 30.1339C8.1949 30.1339 1.86719 23.8061 1.86719 16.0005Z" fill="#EA6D51"/>
<path fill-rule="evenodd" clip-rule="evenodd" d="M16.0031 7.20312C16.445 7.20312 16.8031 7.5613 16.8031 8.00313V16.0031C16.8031 16.2153 16.7188 16.4188 16.5688 16.5688L12.5688 20.5688C12.2564 20.8812 11.7499 20.8812 11.4374 20.5688C11.125 20.2564 11.125 19.7499 11.4374 19.4374L15.2031 15.6718V8.00313C15.2031 7.5613 15.5613 7.20312 16.0031 7.20312Z" fill="#EA6D51"/>
</svg>
