<svg width="32" height="32" viewBox="0 0 32 32" fill="none" xmlns="http://www.w3.org/2000/svg">
<path fill-rule="evenodd" clip-rule="evenodd" d="M15.9979 8.53125C16.4397 8.53125 16.7979 8.88942 16.7979 9.33125V9.86458H16.8934C17.7245 9.88063 18.3853 10.3841 18.8052 11.0087C19.2283 11.6381 19.4646 12.4599 19.4646 13.3313C19.4646 13.7731 19.1064 14.1313 18.6646 14.1313C18.2228 14.1313 17.8646 13.7731 17.8646 13.3313C17.8646 12.7359 17.7009 12.234 17.4773 11.9014C17.2533 11.5682 17.0236 11.4698 16.8681 11.4646H14.8779C14.8048 11.4646 14.6373 11.5102 14.4509 11.7906C14.269 12.0644 14.1313 12.4868 14.1313 12.9884C14.1313 13.6121 14.2287 13.9322 14.3249 14.1065C14.4095 14.2597 14.5294 14.3677 14.7575 14.4833C14.758 14.4835 14.7586 14.4838 14.7591 14.4841L17.9652 16.0871C18.3691 16.2958 18.7763 16.5977 19.0614 17.1187C19.3353 17.6192 19.4513 18.2403 19.4513 19.0074C19.4513 19.7821 19.2423 20.5216 18.8643 21.0906C18.4906 21.653 17.8848 22.1313 17.1046 22.1313H16.7979V22.6646C16.7979 23.1064 16.4397 23.4646 15.9979 23.4646C15.5561 23.4646 15.1979 23.1064 15.1979 22.6646V22.1313H15.1046C14.2639 22.1313 13.6017 21.6144 13.1869 20.9911C12.7672 20.3605 12.5312 19.5352 12.5312 18.6646C12.5312 18.2228 12.8894 17.8646 13.3313 17.8646C13.7731 17.8646 14.1313 18.2228 14.1313 18.6646C14.1313 19.2606 14.2953 19.7687 14.5189 20.1047C14.7475 20.4481 14.9719 20.5312 15.1046 20.5312H17.1046C17.1777 20.5312 17.3452 20.4857 17.5316 20.2052C17.7135 19.9314 17.8513 19.509 17.8513 19.0074C17.8513 18.3841 17.7539 18.0624 17.6578 17.8867C17.5734 17.7325 17.455 17.6252 17.2351 17.5109L14.0401 15.9135L14.0368 15.9118C13.6258 15.7038 13.2128 15.4024 12.9242 14.8798C12.6471 14.3779 12.5312 13.7552 12.5312 12.9884C12.5312 12.2137 12.7402 11.4743 13.1182 10.9052C13.4919 10.3428 14.0977 9.86458 14.8779 9.86458H15.1979V9.33125C15.1979 8.88942 15.5561 8.53125 15.9979 8.53125Z" fill="#EA6D51"/>
<path fill-rule="evenodd" clip-rule="evenodd" d="M16.0005 3.46719C9.07855 3.46719 3.46719 9.07855 3.46719 16.0005C3.46719 22.9225 9.07855 28.5339 16.0005 28.5339C22.9225 28.5339 28.5339 22.9225 28.5339 16.0005C28.5339 9.07855 22.9225 3.46719 16.0005 3.46719ZM1.86719 16.0005C1.86719 8.1949 8.1949 1.86719 16.0005 1.86719C23.8061 1.86719 30.1339 8.1949 30.1339 16.0005C30.1339 23.8061 23.8061 30.1339 16.0005 30.1339C8.1949 30.1339 1.86719 23.8061 1.86719 16.0005Z" fill="#EA6D51"/>
</svg>
