<svg width="32" height="32" viewBox="0 0 32 32" fill="none" xmlns="http://www.w3.org/2000/svg">
<path fill-rule="evenodd" clip-rule="evenodd" d="M16.0002 9.04541C16.442 9.04541 16.8002 9.40358 16.8002 9.84541V12.667C16.8002 13.1089 16.442 13.467 16.0002 13.467C15.5584 13.467 15.2002 13.1089 15.2002 12.667V9.84541C15.2002 9.40358 15.5584 9.04541 16.0002 9.04541Z" fill="#131313"/>
<path fill-rule="evenodd" clip-rule="evenodd" d="M16.518 2.05689L16.0002 2.6667L15.4939 2.04727C15.7929 1.80293 16.2237 1.80698 16.518 2.05689ZM15.9894 3.7569C15.8985 3.84537 15.7997 3.9445 15.6962 4.05281C15.2299 4.54055 14.7015 5.18077 14.36 5.85054C14.0127 6.53182 13.9236 7.11096 14.1004 7.57324C14.2618 7.99533 14.7302 8.53895 15.9949 8.99824C17.194 8.544 17.6409 8.0074 17.7972 7.58266C17.9712 7.10995 17.8813 6.52151 17.5467 5.8396C17.2175 5.16876 16.7087 4.52861 16.2607 4.04168C16.1652 3.93786 16.0739 3.84251 15.9894 3.7569ZM15.4939 2.04727C15.4942 2.04706 15.4939 2.04727 16.0002 2.6667C16.518 2.05689 16.5178 2.05668 16.518 2.05689L16.5191 2.05783L16.5208 2.05924L16.5257 2.06347L16.542 2.07751C16.5556 2.08931 16.5746 2.10597 16.5985 2.12723C16.6462 2.16975 16.7136 2.23078 16.796 2.30833C16.9606 2.46314 17.1869 2.68523 17.4382 2.95837C17.9338 3.49707 18.5574 4.26716 18.9831 5.13477C19.4034 5.9913 19.691 7.06952 19.2988 8.13525C18.8994 9.22042 17.8874 10.05 16.2575 10.6036C16.0936 10.6593 15.9161 10.6603 15.7516 10.6065C14.0715 10.0573 13.0224 9.2339 12.6059 8.14467C12.1944 7.0685 12.4976 5.98099 12.9346 5.12383C13.3774 4.25515 14.0254 3.48513 14.5396 2.94724C14.8004 2.67437 15.0352 2.45255 15.2059 2.29799C15.2915 2.22058 15.3613 2.15966 15.4108 2.11727C15.4355 2.09606 15.4552 2.07946 15.4693 2.06772L15.486 2.05377L15.4911 2.04957L15.4939 2.04727Z" fill="#FF2C00"/>
<path fill-rule="evenodd" clip-rule="evenodd" d="M4.49678 20.4951C4.93861 20.4951 5.29678 20.8533 5.29678 21.2951V28.3079C5.29678 28.3626 5.31882 28.4184 5.36324 28.4619C5.40818 28.506 5.47239 28.5335 5.54253 28.5335H26.4575C26.5277 28.5335 26.5919 28.506 26.6368 28.4619C26.6812 28.4184 26.7033 28.3626 26.7033 28.3079V21.2951C26.7033 20.8533 27.0614 20.4951 27.5033 20.4951C27.9451 20.4951 28.3033 20.8533 28.3033 21.2951V28.3079C28.3033 28.7971 28.1049 29.2631 27.7571 29.6043C27.4098 29.9449 26.9421 30.1335 26.4575 30.1335H5.54253C5.05797 30.1335 4.59019 29.9449 4.24291 29.6043C3.89509 29.2631 3.69678 28.7971 3.69678 28.3079V21.2951C3.69678 20.8533 4.05495 20.4951 4.49678 20.4951Z" fill="#0F798A"/>
<path fill-rule="evenodd" clip-rule="evenodd" d="M6.31463 13.561C4.48063 13.561 2.99387 14.9587 2.99387 16.6829V17.2696C2.99867 17.295 3.00558 17.3298 3.01494 17.3729C3.0383 17.4805 3.07665 17.6387 3.13489 17.8303C3.25227 18.2165 3.44578 18.7232 3.74927 19.2225C4.35107 20.2126 5.32948 21.1057 7.00645 21.1057C8.86047 21.1057 9.66396 20.5401 10.1002 20.0714C10.3045 19.8519 10.4424 19.6408 10.588 19.4179C10.6183 19.3717 10.6488 19.3249 10.6804 19.2774C10.7598 19.158 10.8751 18.9886 11.0205 18.8494C11.1753 18.7012 11.4514 18.5041 11.8492 18.5041C12.2193 18.5041 12.4918 18.677 12.6451 18.7975C12.8042 18.9225 12.9422 19.0769 13.0514 19.2066C13.1459 19.3187 13.2288 19.423 13.3103 19.5256C13.4507 19.7021 13.587 19.8735 13.7712 20.0714C14.2914 20.6304 14.9475 21.1057 16.0002 21.1057C17.0528 21.1057 17.7089 20.6304 18.2292 20.0714C18.4133 19.8735 18.5497 19.7021 18.69 19.5256C18.7716 19.423 18.8545 19.3187 18.9489 19.2066C19.0582 19.0769 19.1961 18.9225 19.3552 18.7975C19.5085 18.677 19.781 18.5041 20.1511 18.5041C20.549 18.5041 20.825 18.7012 20.9799 18.8494C21.1252 18.9886 21.2405 19.158 21.3199 19.2774C21.3515 19.3249 21.382 19.3717 21.4123 19.4179C21.5579 19.6408 21.6958 19.8519 21.9001 20.0714C22.3364 20.5401 23.1399 21.1057 24.9939 21.1057C26.6708 21.1057 27.6493 20.2126 28.2511 19.2225C28.5545 18.7232 28.7481 18.2165 28.8654 17.8303C28.9237 17.6387 28.962 17.4805 28.9854 17.3729C28.9947 17.3298 29.0017 17.295 29.0065 17.2696V16.6829C29.0065 14.9587 27.5197 13.561 25.6857 13.561H6.31463ZM29.8366 17.3333L30.6585 17.4437C30.664 17.4072 30.6668 17.3703 30.6668 17.3333V16.6829C30.6668 14.0966 28.4367 12 25.6857 12H6.31463C3.56362 12 1.3335 14.0966 1.3335 16.6829V17.3333C1.3335 17.3703 1.33628 17.4072 1.34184 17.4437L2.16368 17.3333C1.34184 17.4437 1.34179 17.4434 1.34184 17.4437L1.34207 17.4452L1.34236 17.4471L1.34316 17.4522L1.34561 17.4672C1.34765 17.4794 1.35048 17.4959 1.35422 17.5163C1.36168 17.5573 1.37273 17.6142 1.3881 17.685C1.41879 17.8264 1.46692 18.0239 1.53839 18.2591C1.68044 18.7265 1.91932 19.3581 2.30766 19.997C3.08951 21.2833 4.53248 22.6667 7.00645 22.6667C9.30338 22.6667 10.5754 21.9314 11.3498 21.0993C11.5874 20.8441 11.7725 20.5834 11.9114 20.375C11.9148 20.3793 11.9183 20.3836 11.9217 20.3879C12.084 20.591 12.3003 20.8615 12.5216 21.0993C13.2121 21.8412 14.2855 22.6667 16.0002 22.6667C17.7148 22.6667 18.7882 21.8412 19.4787 21.0993C19.7 20.8615 19.9163 20.591 20.0786 20.3879C20.0821 20.3836 20.0855 20.3793 20.0889 20.375C20.2278 20.5834 20.413 20.8441 20.6505 21.0993C21.425 21.9314 22.6969 22.6667 24.9939 22.6667C27.4678 22.6667 28.9108 21.2833 29.6927 19.997C30.081 19.3581 30.3199 18.7265 30.4619 18.2591C30.5334 18.0239 30.5815 17.8264 30.6122 17.685C30.6276 17.6142 30.6386 17.5573 30.6461 17.5163C30.6478 17.5073 30.6492 17.499 30.6505 17.4915C30.6522 17.4821 30.6536 17.474 30.6547 17.4672L30.6572 17.4522L30.658 17.4471L30.6583 17.4452L30.6585 17.4437C30.6585 17.4434 30.6585 17.4437 29.8366 17.3333Z" fill="#FF7029"/>
</svg>
