<svg width="20" height="22" viewBox="0 0 20 22" fill="none" xmlns="http://www.w3.org/2000/svg">
<path fill-rule="evenodd" clip-rule="evenodd" d="M0 18.3552C0 18.0021 0.312359 17.7158 0.697674 17.7158H19.3023C19.6876 17.7158 20 18.0021 20 18.3552C20 18.7083 19.6876 18.9945 19.3023 18.9945H0.697674C0.312359 18.9945 0 18.7083 0 18.3552Z" fill="#333333"/>
<path fill-rule="evenodd" clip-rule="evenodd" d="M9.97765 3.27873C8.73571 3.27982 7.58715 3.53642 6.90704 3.96517C5.46726 4.87284 4.30233 6.7778 4.30233 9.83207C4.30233 13.0645 3.72339 16.488 1.19143 18.8123C0.919214 19.0622 0.477471 19.0626 0.204775 18.8131C-0.0679218 18.5637 -0.0683071 18.1588 0.203914 17.9089C2.32313 15.9635 2.90698 12.9932 2.90698 9.83207C2.90698 6.49271 4.19036 4.12575 6.11621 2.91165C7.11892 2.27953 8.58665 2.00122 9.97632 2C11.3679 1.99879 12.8464 2.2752 13.8764 2.90679C15.875 4.13238 17.093 6.50268 17.093 9.83207C17.093 12.9931 17.6769 15.9635 19.7961 17.9089C20.0683 18.1588 20.0679 18.5637 19.7952 18.8131C19.5225 19.0626 19.0808 19.0622 18.8086 18.8123C16.2766 16.488 15.6977 13.0644 15.6977 9.83207C15.6977 6.76818 14.5856 4.88029 13.1004 3.96953C12.3861 3.53154 11.2177 3.27765 9.97765 3.27873Z" fill="#333333"/>
<path fill-rule="evenodd" clip-rule="evenodd" d="M7.58783 18.3799C7.58784 18.3799 7.58784 18.3799 7.58784 18.3799C7.58787 18.38 7.58791 18.3802 7.58796 18.3804L7.59052 18.3918C7.59326 18.4035 7.59811 18.4234 7.6054 18.4503C7.62002 18.5041 7.64421 18.5851 7.6805 18.6841C7.75373 18.8838 7.87258 19.1467 8.05403 19.4059C8.4073 19.9106 8.99006 20.4 9.99999 20.4C11.0099 20.4 11.5927 19.9106 11.9459 19.4059C12.1274 19.1467 12.2462 18.8838 12.3195 18.6841C12.3558 18.5851 12.38 18.5041 12.3946 18.4503C12.4019 18.4234 12.4067 18.4035 12.4095 18.3918L12.412 18.3804L12.412 18.3806L12.4118 18.3814L12.4117 18.3818C12.4119 18.3812 12.412 18.3805 12.4121 18.3799C12.4121 18.38 12.4121 18.3802 12.412 18.3804L12.4122 18.3797C12.4122 18.3795 12.4122 18.3795 12.4121 18.3799C12.4782 18.0563 12.7935 17.8468 13.1177 17.9117C13.4426 17.9767 13.6533 18.2928 13.5883 18.6177L13 18.5C13.5883 18.6177 13.5883 18.618 13.5882 18.6183L13.5881 18.6189L13.5878 18.6204L13.5871 18.624L13.5849 18.6339L13.5781 18.6644C13.5723 18.6893 13.5639 18.7231 13.5527 18.7646C13.5302 18.8475 13.4958 18.9618 13.4461 19.0972C13.3475 19.3662 13.1851 19.7283 12.929 20.0941C12.4073 20.8394 11.4901 21.6 9.99999 21.6C8.50991 21.6 7.59268 20.8394 7.07095 20.0941C6.81489 19.7283 6.6525 19.3662 6.55385 19.0972C6.5042 18.9618 6.4698 18.8475 6.44731 18.7646C6.43604 18.7231 6.42771 18.6893 6.42191 18.6644L6.41504 18.6339L6.41292 18.624L6.41218 18.6204L6.41188 18.6189L6.41176 18.6183C6.4117 18.618 6.41164 18.6177 6.99999 18.5L6.41164 18.6177C6.34665 18.2928 6.55738 17.9767 6.88232 17.9117C7.20642 17.8468 7.52173 18.0563 7.58783 18.3799Z" fill="#333333"/>
<path fill-rule="evenodd" clip-rule="evenodd" d="M8.568 2.69326C8.46181 3.00531 8.12342 3.1735 7.81027 3.06911C7.4959 2.96432 7.32601 2.62453 7.43079 2.31017L8 2.4999C7.43079 2.31017 7.43088 2.30991 7.43097 2.30965L7.43115 2.30909L7.43156 2.30788L7.43253 2.30503L7.43507 2.29766L7.44266 2.2765C7.44884 2.25965 7.45732 2.23733 7.46825 2.21033C7.49006 2.15645 7.52187 2.08328 7.56491 1.9972C7.65032 1.82639 7.78364 1.59731 7.97657 1.36579C8.36614 0.898306 9.02135 0.399902 10 0.399902C10.9787 0.399902 11.6339 0.898306 12.0234 1.36579C12.2164 1.59731 12.3497 1.82639 12.4351 1.9972C12.4781 2.08328 12.5099 2.15645 12.5318 2.21033C12.5427 2.23733 12.5512 2.25965 12.5573 2.2765L12.5649 2.29766L12.5675 2.30503L12.5684 2.30788L12.5689 2.30909L12.569 2.30965C12.5691 2.30991 12.5692 2.31017 12 2.4999L12.5692 2.31017C12.674 2.62453 12.5041 2.96432 12.1897 3.06911C11.8766 3.1735 11.5382 3.0053 11.432 2.69325L11.4307 2.68961C11.4288 2.68449 11.4251 2.67458 11.4194 2.66056C11.408 2.63242 11.3891 2.5884 11.3618 2.53386C11.3066 2.42342 11.2211 2.27749 11.1016 2.13401C10.8661 1.8515 10.5213 1.5999 10 1.5999C9.47866 1.5999 9.13387 1.8515 8.89844 2.13401C8.77887 2.27749 8.69344 2.42342 8.63822 2.53386C8.61095 2.5884 8.59198 2.63242 8.58059 2.66056C8.57491 2.67458 8.57119 2.68449 8.56931 2.68961L8.568 2.69326Z" fill="#333333"/>
</svg>
