<svg width="20" height="20" viewBox="0 0 20 20" fill="none" xmlns="http://www.w3.org/2000/svg">
<path d="M2.39395 11.8334C2.39395 11.5021 2.12532 11.2334 1.79395 11.2334C1.46257 11.2334 1.19395 11.5021 1.19395 11.8334H2.39395ZM18.6903 11.426C18.6903 11.0947 18.4217 10.826 18.0903 10.826C17.759 10.826 17.4903 11.0947 17.4903 11.426H18.6903ZM1.19395 11.8334V18.167H2.39395V11.8334H1.19395ZM2.79395 19.767H17.0903V18.567H2.79395V19.767ZM18.6903 18.167V11.426H17.4903V18.167H18.6903ZM17.0903 19.767C17.974 19.767 18.6903 19.0507 18.6903 18.167H17.4903C17.4903 18.3879 17.3112 18.567 17.0903 18.567V19.767ZM1.19395 18.167C1.19395 19.0507 1.91029 19.767 2.79395 19.767V18.567C2.57303 18.567 2.39395 18.3879 2.39395 18.167H1.19395Z" fill="#707070"/>
<path d="M1.79395 14.6953H18.0903" stroke="#707070" stroke-width="1.2" stroke-linecap="round" stroke-linejoin="round"/>
<path d="M1.61686 11.9907C1.93277 12.0908 2.26996 11.9158 2.37 11.5999C2.47004 11.284 2.29504 10.9468 1.97913 10.8467L1.61686 11.9907ZM18.2659 10.8767C17.9666 11.0188 17.8391 11.3767 17.9812 11.6761C18.1233 11.9754 18.4812 12.1029 18.7806 11.9607L18.2659 10.8767ZM18.7689 8.06454L18.2548 8.3739L18.7689 8.06454ZM1.97913 10.8467C1.72114 10.765 1.46863 10.4429 1.43654 9.85147C1.40546 9.27881 1.6099 8.69583 1.96831 8.37348L1.16585 7.48126C0.474856 8.10274 0.192626 9.07476 0.238297 9.91648C0.282948 10.7394 0.670593 11.6911 1.61686 11.9907L1.97913 10.8467ZM2.08824 8.35195H18.1241V7.15195H2.08824V8.35195ZM18.2548 8.3739C18.4747 8.73922 18.5967 9.35497 18.5606 9.944C18.543 10.2313 18.4895 10.4754 18.4163 10.6502C18.3391 10.8344 18.2701 10.8747 18.2659 10.8767L18.7806 11.9607C19.1595 11.7808 19.3882 11.436 19.5232 11.1137C19.662 10.782 19.735 10.398 19.7584 10.0174C19.8041 9.27072 19.6658 8.39132 19.283 7.75519L18.2548 8.3739ZM18.1241 8.35195C18.183 8.35195 18.2247 8.36309 18.2468 8.37306C18.2654 8.38142 18.2609 8.384 18.2548 8.3739L19.283 7.75519C19.0025 7.28902 18.4999 7.15195 18.1241 7.15195V8.35195ZM1.96831 8.37348C1.96596 8.3756 1.97007 8.37058 1.98958 8.36443C2.01035 8.3579 2.04322 8.35195 2.08824 8.35195V7.15195C1.80716 7.15195 1.45286 7.22312 1.16585 7.48126L1.96831 8.37348Z" fill="#707070"/>
<path d="M1.79395 10.826C1.46257 10.826 1.19395 11.0946 1.19395 11.426C1.19395 11.7573 1.46257 12.026 1.79395 12.026V10.826ZM17.5594 11.7054C17.7137 11.9986 18.0765 12.1113 18.3698 11.9569C18.663 11.8026 18.7756 11.4398 18.6213 11.1465L17.5594 11.7054ZM1.79395 11.426C1.79395 12.026 1.79423 12.026 1.79451 12.026C1.79461 12.026 1.7949 12.026 1.7951 12.026C1.7955 12.026 1.79591 12.026 1.79634 12.026C1.7972 12.026 1.79811 12.026 1.79907 12.0259C1.80101 12.0259 1.80316 12.0259 1.80554 12.0259C1.81028 12.0258 1.81591 12.0257 1.82236 12.0255C1.83526 12.0251 1.85155 12.0244 1.87086 12.0231C1.90942 12.0206 1.96055 12.0158 2.02143 12.0069C2.14236 11.9893 2.30672 11.9545 2.48954 11.885C2.85942 11.7444 3.31336 11.457 3.61146 10.8906L2.54955 10.3317C2.41879 10.5801 2.22946 10.7001 2.06327 10.7632C1.97805 10.7956 1.90119 10.8118 1.84789 10.8195C1.82166 10.8234 1.80244 10.825 1.79241 10.8257C1.78744 10.826 1.78487 10.8261 1.785 10.8261C1.78507 10.8261 1.78582 10.826 1.7873 10.826C1.78804 10.826 1.78896 10.826 1.79006 10.826C1.79062 10.826 1.79122 10.826 1.79186 10.826C1.79219 10.826 1.79252 10.826 1.79287 10.826C1.79304 10.826 1.79331 10.826 1.7934 10.826C1.79367 10.826 1.79395 10.826 1.79395 11.426ZM3.61146 10.8906C3.75014 10.6271 3.8936 10.6003 3.93804 10.6003C3.98269 10.6003 4.12634 10.6274 4.26506 10.8908L5.32677 10.3315C5.03663 9.7807 4.537 9.40043 3.93837 9.40027C3.33953 9.4001 2.83972 9.78034 2.54955 10.3317L3.61146 10.8906ZM4.26506 10.8908C4.51714 11.3693 4.81269 11.6903 5.18164 11.8657C5.53527 12.0337 5.88269 12.0258 6.0821 12.026L6.08284 10.826C5.85339 10.8258 5.77196 10.8176 5.69674 10.7818C5.63684 10.7534 5.50354 10.6671 5.32677 10.3315L4.26506 10.8908ZM6.0821 12.026C6.28187 12.0261 6.62941 12.0342 6.98332 11.866C7.35239 11.6906 7.64792 11.3693 7.89994 10.8906L6.83811 10.3316C6.66127 10.6675 6.52795 10.7538 6.46817 10.7822C6.39323 10.8178 6.31192 10.8261 6.08284 10.826L6.0821 12.026ZM7.89994 10.8906C8.03872 10.6271 8.18237 10.6 8.22685 10.6C8.27118 10.6 8.4147 10.6268 8.55344 10.8905L9.61543 10.3318C9.32532 9.78037 8.82556 9.39988 8.22661 9.4C7.62781 9.40012 7.12819 9.78063 6.83811 10.3316L7.89994 10.8906ZM8.55344 10.8905C8.80547 11.3695 9.10107 11.6909 9.47034 11.8662C9.8242 12.0342 10.1719 12.026 10.371 12.026V10.826C10.1412 10.826 10.0601 10.8178 9.98508 10.7822C9.9255 10.7539 9.79225 10.6678 9.61543 10.3318L8.55344 10.8905ZM10.371 12.026C10.5702 12.026 10.9179 12.0341 11.2717 11.8661C11.6409 11.6907 11.9365 11.3694 12.1885 10.8906L11.1266 10.3317C10.9498 10.6676 10.8165 10.7538 10.7568 10.7821C10.6818 10.8178 10.6006 10.826 10.371 10.826V12.026ZM12.1885 10.8906C12.3273 10.6269 12.4708 10.6 12.5153 10.6C12.5597 10.6 12.7032 10.6269 12.842 10.8906L13.9039 10.3317C13.6138 9.7805 13.1141 9.4 12.5153 9.4C11.9164 9.4 11.4167 9.7805 11.1266 10.3317L12.1885 10.8906ZM12.842 10.8906C13.094 11.3694 13.3896 11.6907 13.7588 11.8661C14.1126 12.0341 14.4603 12.026 14.6595 12.026V10.826C14.4299 10.826 14.3487 10.8178 14.2737 10.7821C14.214 10.7538 14.0807 10.6676 13.9039 10.3317L12.842 10.8906ZM14.6595 12.026C14.8588 12.026 15.2064 12.0341 15.5602 11.8661C15.9294 11.6907 16.225 11.3694 16.477 10.8906L15.4151 10.3317C15.2383 10.6676 15.105 10.7538 15.0454 10.7821C14.9703 10.8178 14.8891 10.826 14.6595 10.826V12.026ZM16.477 10.8906C16.6158 10.6269 16.7594 10.6 16.8038 10.6C16.8482 10.6 16.9918 10.6269 17.1305 10.8906L18.1924 10.3317C17.9023 9.7805 17.4026 9.4 16.8038 9.4C16.2049 9.4 15.7052 9.7805 15.4151 10.3317L16.477 10.8906ZM17.1305 10.8906L17.5594 11.7054L18.6213 11.1465L18.1924 10.3317L17.1305 10.8906Z" fill="#707070"/>
<path d="M9.94282 4.09644V7.35579M5.6543 5.31869V7.76321" stroke="#707070" stroke-width="1.2" stroke-linecap="round" stroke-linejoin="round"/>
<path d="M14.2354 5.30444V7.74896" stroke="#707070" stroke-width="1.2" stroke-linecap="round" stroke-linejoin="round"/>
<path fill-rule="evenodd" clip-rule="evenodd" d="M5.81855 2.18279L5.67258 2.32807L5.5266 2.18279C5.55914 2.10993 5.61392 2.06616 5.67258 2.06616C5.73123 2.06616 5.78601 2.10993 5.81855 2.18279ZM5.67258 2.81867C5.64643 2.88316 5.61868 2.95314 5.59098 3.0255C5.53384 3.17478 5.4786 3.32988 5.43815 3.46573C5.41793 3.53366 5.40257 3.59294 5.39252 3.64168C5.38754 3.66586 5.38428 3.68545 5.38233 3.70071C5.38137 3.70822 5.38081 3.71406 5.3805 3.71836L5.38022 3.72322L5.38018 3.7245C5.38018 3.79751 5.40097 3.85282 5.44825 3.89989C5.50074 3.95212 5.58164 3.98685 5.67258 3.98685C5.76351 3.98685 5.84441 3.95212 5.8969 3.89989C5.94418 3.85282 5.96497 3.79795 5.96497 3.72494L5.96493 3.72322L5.96465 3.71836C5.96434 3.71406 5.96378 3.70822 5.96282 3.70071C5.96087 3.68545 5.95761 3.66586 5.95263 3.64168C5.94258 3.59294 5.92722 3.53366 5.907 3.46573C5.86655 3.32988 5.81131 3.17478 5.75417 3.0255C5.72647 2.95314 5.69872 2.88316 5.67258 2.81867ZM5.89401 2.35737C5.93876 2.46314 5.99867 2.60846 6.05882 2.76561C6.11864 2.92189 6.18035 3.09418 6.22763 3.25298C6.27097 3.39854 6.31585 3.57584 6.31585 3.72494C6.31585 4.00115 6.21969 4.20819 6.09153 4.33573C5.96858 4.45811 5.81556 4.51068 5.67258 4.51068C5.52959 4.51068 5.37657 4.45811 5.25362 4.33573C5.12547 4.20819 5.0293 4.00115 5.0293 3.72494C5.0293 3.57584 5.07418 3.39854 5.11752 3.25298C5.1648 3.09418 5.22651 2.92189 5.28633 2.76561C5.34648 2.60847 5.4064 2.46314 5.45114 2.35737C5.47356 2.30437 5.49228 2.26106 5.50545 2.23085C5.51204 2.21575 5.51725 2.2039 5.52085 2.19575L5.52502 2.18635L5.5266 2.18279C5.5266 2.18279 5.5266 2.18279 5.67258 2.32807C5.81855 2.18279 5.81855 2.18279 5.81855 2.18279L5.82013 2.18635L5.8243 2.19575C5.8279 2.2039 5.83311 2.21575 5.8397 2.23085C5.85287 2.26106 5.87159 2.30437 5.89401 2.35737Z" fill="#707070"/>
<path fill-rule="evenodd" clip-rule="evenodd" d="M10.0895 0.949882L9.94357 1.09516L9.7976 0.949882C9.83013 0.877018 9.88491 0.833252 9.94357 0.833252C10.0022 0.833252 10.057 0.877018 10.0895 0.949882ZM9.94357 1.58576C9.91742 1.65025 9.88967 1.72023 9.86198 1.79259C9.80484 1.94187 9.74959 2.09697 9.70915 2.23282C9.68893 2.30075 9.67356 2.36003 9.66352 2.40877C9.65853 2.43295 9.65527 2.45254 9.65333 2.4678C9.65237 2.47531 9.65181 2.48115 9.6515 2.48545L9.65122 2.49031L9.65118 2.49159C9.65118 2.5646 9.67196 2.61991 9.71925 2.66698C9.77173 2.71921 9.85264 2.75394 9.94357 2.75394C10.0345 2.75394 10.1154 2.71921 10.1679 2.66698C10.2152 2.61991 10.236 2.56504 10.236 2.49203L10.2359 2.49031L10.2356 2.48545C10.2353 2.48115 10.2348 2.47531 10.2338 2.4678C10.2319 2.45254 10.2286 2.43295 10.2236 2.40877C10.2136 2.36003 10.1982 2.30075 10.178 2.23282C10.1375 2.09697 10.0823 1.94187 10.0252 1.79259C9.99747 1.72023 9.96972 1.65025 9.94357 1.58576ZM10.165 1.12446C10.2098 1.23023 10.2697 1.37555 10.3298 1.5327C10.3896 1.68898 10.4514 1.86127 10.4986 2.02007C10.542 2.16563 10.5869 2.34293 10.5869 2.49203C10.5869 2.76824 10.4907 2.97528 10.3625 3.10282C10.2396 3.2252 10.0866 3.27777 9.94357 3.27777C9.80059 3.27777 9.64757 3.2252 9.52462 3.10282C9.39646 2.97528 9.30029 2.76824 9.30029 2.49203C9.30029 2.34293 9.34518 2.16563 9.38851 2.02007C9.43579 1.86127 9.49751 1.68898 9.55733 1.5327C9.61748 1.37555 9.67739 1.23023 9.72214 1.12446C9.74456 1.07146 9.76328 1.02815 9.77645 0.997944C9.78304 0.982836 9.78825 0.970993 9.79185 0.962843L9.79601 0.953437L9.7976 0.949882C9.7976 0.949882 9.7976 0.949882 9.94357 1.09516C10.0895 0.949882 10.0895 0.949882 10.0895 0.949882L10.0911 0.953437L10.0953 0.962843C10.0989 0.970993 10.1041 0.982836 10.1107 0.997944C10.1239 1.02815 10.1426 1.07146 10.165 1.12446Z" fill="#707070"/>
<path fill-rule="evenodd" clip-rule="evenodd" d="M14.3703 2.19524L14.2243 2.34053L14.0784 2.19524C14.1109 2.12238 14.1657 2.07861 14.2243 2.07861C14.283 2.07861 14.3378 2.12238 14.3703 2.19524ZM14.2243 2.83112C14.1982 2.89561 14.1704 2.96559 14.1427 3.03795C14.0856 3.18723 14.0304 3.34233 13.9899 3.47818C13.9697 3.54612 13.9543 3.60539 13.9443 3.65413C13.9393 3.67831 13.936 3.6979 13.9341 3.71316C13.9331 3.72067 13.9326 3.72651 13.9323 3.73081L13.932 3.73568L13.9319 3.73695C13.9319 3.80996 13.9527 3.86528 14 3.91234C14.0525 3.96457 14.1334 3.99931 14.2243 3.99931C14.3153 3.99931 14.3962 3.96457 14.4487 3.91234C14.4959 3.86528 14.5167 3.8104 14.5167 3.73739L14.5167 3.73568L14.5164 3.73081C14.5161 3.72651 14.5155 3.72067 14.5146 3.71316C14.5126 3.6979 14.5094 3.67831 14.5044 3.65413C14.4943 3.60539 14.479 3.54612 14.4588 3.47818C14.4183 3.34233 14.3631 3.18723 14.3059 3.03795C14.2782 2.96559 14.2505 2.89561 14.2243 2.83112ZM14.4458 2.36982C14.4905 2.47559 14.5504 2.62092 14.6106 2.77806C14.6704 2.93434 14.7321 3.10663 14.7794 3.26543C14.8227 3.41099 14.8676 3.58829 14.8676 3.73739C14.8676 4.0136 14.7714 4.22064 14.6433 4.34819C14.5203 4.47056 14.3673 4.52313 14.2243 4.52313C14.0813 4.52313 13.9283 4.47056 13.8054 4.34819C13.6772 4.22064 13.5811 4.0136 13.5811 3.73739C13.5811 3.58829 13.6259 3.41099 13.6693 3.26543C13.7166 3.10663 13.7783 2.93434 13.8381 2.77806C13.8982 2.62092 13.9582 2.47559 14.0029 2.36982C14.0253 2.31683 14.044 2.27351 14.0572 2.24331C14.0638 2.2282 14.069 2.21635 14.0726 2.2082L14.0768 2.1988L14.0784 2.19524C14.0784 2.19524 14.0784 2.19524 14.2243 2.34053C14.3703 2.19524 14.3703 2.19524 14.3703 2.19524L14.3719 2.1988L14.3761 2.2082C14.3797 2.21635 14.3849 2.2282 14.3915 2.24331C14.4046 2.27351 14.4233 2.31683 14.4458 2.36982Z" fill="#707070"/>
</svg>
