<svg width="20" height="20" viewBox="0 0 20 20" fill="none" xmlns="http://www.w3.org/2000/svg">
<path fill-rule="evenodd" clip-rule="evenodd" d="M0 4.76451C0 4.45191 0.253422 4.19849 0.566033 4.19849H19.4338C19.7464 4.19849 19.9998 4.45191 19.9998 4.76451C19.9998 5.07712 19.7464 5.33054 19.4338 5.33054H0.566033C0.253422 5.33054 0 5.07712 0 4.76451Z" fill="black" fill-opacity="0.6"/>
<path fill-rule="evenodd" clip-rule="evenodd" d="M0.566033 4.19849C0.878645 4.19849 1.13207 4.45191 1.13207 4.76451V8.95731C1.13207 9.26992 0.878645 9.52334 0.566033 9.52334C0.253422 9.52334 0 9.26992 0 8.95731V4.76451C0 4.45191 0.253422 4.19849 0.566033 4.19849Z" fill="black" fill-opacity="0.6"/>
<path fill-rule="evenodd" clip-rule="evenodd" d="M0.0701712 8.68325C0.220825 8.40933 0.565005 8.30941 0.838921 8.46006C5.94199 11.2667 10.5166 11.2616 13.8137 10.5642C15.4659 10.2147 16.7995 9.6905 17.7174 9.25529C18.176 9.03782 18.53 8.84301 18.7669 8.70414C18.8854 8.63473 18.9745 8.57935 19.0327 8.54218C19.0619 8.5236 19.0833 8.50958 19.0967 8.50064L19.111 8.49111L19.1132 8.4896L19.1136 8.48933C19.3712 8.31256 19.7233 8.37788 19.9003 8.63535C20.0775 8.89296 20.0122 9.24535 19.7546 9.42246L19.4339 8.95603C19.7546 9.42246 19.7543 9.42264 19.754 9.42285L19.7532 9.42338L19.7511 9.42482L19.7446 9.42926L19.7223 9.44414C19.7034 9.45666 19.6765 9.47431 19.6416 9.49654C19.5719 9.54101 19.4706 9.60386 19.3393 9.68083C19.0767 9.83472 18.6936 10.0453 18.2024 10.2782C17.2204 10.7438 15.8024 11.3006 14.048 11.6717C10.5316 12.4155 5.67238 12.4104 0.293356 9.45199C0.0194413 9.30134 -0.0804822 8.95716 0.0701712 8.68325Z" fill="black" fill-opacity="0.6"/>
<path fill-rule="evenodd" clip-rule="evenodd" d="M19.4298 4.19849C19.7424 4.19849 19.9958 4.45191 19.9958 4.76451V8.95731C19.9958 9.26992 19.7424 9.52334 19.4298 9.52334C19.1172 9.52334 18.8638 9.26992 18.8638 8.95731V4.76451C18.8638 4.45191 19.1172 4.19849 19.4298 4.19849Z" fill="black" fill-opacity="0.6"/>
<path fill-rule="evenodd" clip-rule="evenodd" d="M0.566033 10.4824C0.878645 10.4824 1.13207 10.7358 1.13207 11.0484V19.434C1.13207 19.7467 0.878645 20.0001 0.566033 20.0001C0.253422 20.0001 0 19.7467 0 19.434V11.0484C0 10.7358 0.253422 10.4824 0.566033 10.4824Z" fill="black" fill-opacity="0.6"/>
<path fill-rule="evenodd" clip-rule="evenodd" d="M0 19.4315C0 19.1189 0.253422 18.8655 0.566033 18.8655H19.4338C19.7464 18.8655 19.9998 19.1189 19.9998 19.4315C19.9998 19.7441 19.7464 19.9975 19.4338 19.9975H0.566033C0.253422 19.9975 0 19.7441 0 19.4315Z" fill="black" fill-opacity="0.6"/>
<path fill-rule="evenodd" clip-rule="evenodd" d="M19.4298 10.4824C19.7424 10.4824 19.9958 10.7358 19.9958 11.0484V19.434C19.9958 19.7467 19.7424 20.0001 19.4298 20.0001C19.1172 20.0001 18.8638 19.7467 18.8638 19.434V11.0484C18.8638 10.7358 19.1172 10.4824 19.4298 10.4824Z" fill="black" fill-opacity="0.6"/>
<path fill-rule="evenodd" clip-rule="evenodd" d="M0.0701712 10.7758C0.220825 10.5019 0.565005 10.4019 0.838921 10.5526C5.94199 13.3593 10.5166 13.3541 13.8137 12.6567C15.4659 12.3072 16.7995 11.783 17.7174 11.3478C18.176 11.1304 18.53 10.9355 18.7669 10.7967C18.8854 10.7273 18.9745 10.6719 19.0327 10.6347C19.0619 10.6161 19.0833 10.6021 19.0967 10.5932L19.111 10.5836L19.1132 10.5821L19.1136 10.5819C19.3712 10.4051 19.7233 10.4704 19.9003 10.7279C20.0775 10.9855 20.0122 11.3379 19.7546 11.515L19.4339 11.0486C19.7546 11.515 19.7543 11.5152 19.754 11.5154L19.7532 11.5159L19.7511 11.5174L19.7446 11.5218L19.7223 11.5367C19.7034 11.5492 19.6765 11.5668 19.6416 11.5891C19.5719 11.6335 19.4706 11.6964 19.3393 11.7734C19.0767 11.9272 18.6936 12.1378 18.2024 12.3707C17.2204 12.8363 15.8024 13.3931 14.048 13.7642C10.5316 14.5081 5.67238 14.503 0.293356 11.5445C0.0194413 11.3939 -0.0804822 11.0497 0.0701712 10.7758Z" fill="black" fill-opacity="0.6"/>
<path d="M11.0515 15.2446H8.95508L10.0033 17.341L11.0515 15.2446Z" fill="black" fill-opacity="0.6"/>
<path fill-rule="evenodd" clip-rule="evenodd" d="M8.46979 14.9423C8.57293 14.7754 8.75511 14.6738 8.95129 14.6738H11.0477C11.2439 14.6738 11.4261 14.7754 11.5292 14.9423C11.6323 15.1092 11.6417 15.3175 11.554 15.493L10.5058 17.5894C10.4099 17.7812 10.2139 17.9023 9.9995 17.9023C9.7851 17.9023 9.5891 17.7812 9.49322 17.5894L8.44501 15.493C8.35728 15.3175 8.36666 15.1092 8.46979 14.9423ZM9.86715 15.8059L9.9995 16.0706L10.1318 15.8059H9.86715Z" fill="black" fill-opacity="0.6"/>
<path fill-rule="evenodd" clip-rule="evenodd" d="M8.63692 1.13206C7.38648 1.13206 6.37279 2.14573 6.37279 3.39617V3.71063C6.37279 4.02324 6.11937 4.27665 5.80676 4.27665C5.49414 4.27665 5.24072 4.02324 5.24072 3.71063V3.39617C5.24072 1.52051 6.76125 0 8.63692 0H12.4105C14.2861 0 15.8067 1.52052 15.8067 3.39617V3.71063C15.8067 4.02324 15.5533 4.27665 15.2406 4.27665C14.928 4.27665 14.6746 4.02324 14.6746 3.71063V3.39617C14.6746 2.14573 13.6609 1.13206 12.4105 1.13206H8.63692Z" fill="black" fill-opacity="0.6"/>
<path fill-rule="evenodd" clip-rule="evenodd" d="M2.1383 5.76758C2.45091 5.76758 2.70433 6.021 2.70433 6.33361V7.53267L6.03 8.95794C6.31734 9.08109 6.45044 9.41384 6.3273 9.70117C6.20416 9.98851 5.8714 10.1216 5.58406 9.99847L1.91533 8.42617C1.70721 8.33697 1.57227 8.13233 1.57227 7.90591V6.33361C1.57227 6.021 1.82569 5.76758 2.1383 5.76758Z" fill="black" fill-opacity="0.6"/>
</svg>
