<svg width="20" height="20" viewBox="0 0 20 20" fill="none" xmlns="http://www.w3.org/2000/svg">
<path fill-rule="evenodd" clip-rule="evenodd" d="M0.813381 3.34017C0.996579 3.13355 1.31259 3.11456 1.51921 3.29776L10.0016 10.8185L18.484 3.29776C18.6906 3.11456 19.0066 3.13355 19.1898 3.34017C19.373 3.5468 19.354 3.86281 19.1474 4.04601L10.3333 11.8608C10.144 12.0287 9.85919 12.0287 9.6699 11.8608L0.855797 4.04601C0.649173 3.86281 0.630183 3.5468 0.813381 3.34017Z" fill="#707070"/>
<path fill-rule="evenodd" clip-rule="evenodd" d="M0.335938 4.16927C0.335938 3.43289 0.932891 2.83594 1.66927 2.83594H18.3359C19.0723 2.83594 19.6693 3.43289 19.6693 4.16927V15.9285C19.6693 16.2626 19.5323 16.5798 19.2936 16.8113C19.0555 17.0422 18.7357 17.1693 18.4054 17.1693H1.59983C1.2695 17.1693 0.949727 17.0422 0.711603 16.8113C0.472956 16.5798 0.335938 16.2626 0.335938 15.9285V4.16927ZM1.66927 3.83594C1.48518 3.83594 1.33594 3.98518 1.33594 4.16927V15.9285C1.33594 15.9873 1.35988 16.0469 1.40775 16.0934C1.45614 16.1403 1.52496 16.1693 1.59983 16.1693H18.4054C18.4803 16.1693 18.5491 16.1403 18.5975 16.0934C18.6453 16.0469 18.6693 15.9873 18.6693 15.9285V4.16927C18.6693 3.98518 18.52 3.83594 18.3359 3.83594H1.66927Z" fill="#707070"/>
<path fill-rule="evenodd" clip-rule="evenodd" d="M8.7087 9.66773C8.89221 9.87408 8.87369 10.1901 8.66734 10.3736L1.4104 16.8273C1.20405 17.0108 0.888013 16.9923 0.704505 16.786C0.520997 16.5796 0.539512 16.2636 0.74586 16.0801L8.0028 9.62638C8.20915 9.44287 8.52519 9.46139 8.7087 9.66773Z" fill="#707070"/>
<path fill-rule="evenodd" clip-rule="evenodd" d="M11.2983 9.66773C11.4818 9.46139 11.7978 9.44287 12.0042 9.62638L19.2611 16.0801C19.4674 16.2636 19.486 16.5796 19.3025 16.786C19.1189 16.9923 18.8029 17.0108 18.5966 16.8273L11.3396 10.3736C11.1333 10.1901 11.1147 9.87408 11.2983 9.66773Z" fill="#707070"/>
</svg>
