<svg width="20" height="20" viewBox="0 0 20 20" fill="none" xmlns="http://www.w3.org/2000/svg">
<path fill-rule="evenodd" clip-rule="evenodd" d="M1.7251 3.85946C1.7251 3.56884 1.95669 3.33325 2.24238 3.33325H17.3298C17.6155 3.33325 17.847 3.56884 17.847 3.85946C17.847 4.15008 17.6155 4.38567 17.3298 4.38567H2.24238C1.95669 4.38567 1.7251 4.15008 1.7251 3.85946Z" fill="black" fill-opacity="0.6"/>
<path fill-rule="evenodd" clip-rule="evenodd" d="M0.49708 4.0704C0.882012 3.60071 1.47056 3.33325 2.24156 3.33325C2.52724 3.33325 2.75884 3.56874 2.75884 3.85923C2.75884 4.14972 2.52724 4.3852 2.24155 4.3852C1.71935 4.3852 1.44576 4.55605 1.29185 4.74384C1.12412 4.9485 1.03456 5.25231 1.03456 5.61248C1.03456 5.90297 0.802969 6.13846 0.517282 6.13846C0.231595 6.13846 0 5.90297 0 5.61248C0 5.09602 0.125977 4.5232 0.49708 4.0704Z" fill="black" fill-opacity="0.6"/>
<path fill-rule="evenodd" clip-rule="evenodd" d="M16.7642 3.85923C16.7642 3.56874 16.9958 3.33325 17.2814 3.33325C17.816 3.33325 18.4079 3.45746 18.8782 3.82627C19.3705 4.21238 19.6617 4.81372 19.6617 5.61248C19.6617 5.90297 19.4301 6.13846 19.1444 6.13846C18.8587 6.13846 18.6271 5.90297 18.6271 5.61248C18.6271 5.0963 18.4526 4.82101 18.2463 4.65924C18.0179 4.48015 17.6784 4.3852 17.2814 4.3852C16.9958 4.3852 16.7642 4.14972 16.7642 3.85923Z" fill="black" fill-opacity="0.6"/>
<path fill-rule="evenodd" clip-rule="evenodd" d="M0.517282 5.09033C0.802969 5.09033 1.03456 5.32582 1.03456 5.61631V13.5059C1.03456 13.7964 0.802969 14.0319 0.517282 14.0319C0.231595 14.0319 0 13.7964 0 13.5059V5.61631C0 5.32582 0.231595 5.09033 0.517282 5.09033Z" fill="black" fill-opacity="0.6"/>
<path fill-rule="evenodd" clip-rule="evenodd" d="M19.1467 5.09033C19.4324 5.09033 19.664 5.32582 19.664 5.61631V9.99944C19.664 10.2899 19.4324 10.5254 19.1467 10.5254C18.861 10.5254 18.6294 10.2899 18.6294 9.99944V5.61631C18.6294 5.32582 18.861 5.09033 19.1467 5.09033Z" fill="black" fill-opacity="0.6"/>
<path fill-rule="evenodd" clip-rule="evenodd" d="M1.86865 15.2606C1.86865 14.97 2.10025 14.7344 2.38593 14.7344H11.8694C12.1551 14.7344 12.3867 14.97 12.3867 15.2606C12.3867 15.5512 12.1551 15.7868 11.8694 15.7868H2.38593C2.10025 15.7868 1.86865 15.5512 1.86865 15.2606Z" fill="black" fill-opacity="0.6"/>
<path fill-rule="evenodd" clip-rule="evenodd" d="M1.7251 9.98959C1.7251 9.69897 1.95669 9.46338 2.24238 9.46338H6.89978C7.18547 9.46338 7.41706 9.69897 7.41706 9.98959C7.41706 10.2802 7.18547 10.5158 6.89978 10.5158H2.24238C1.95669 10.5158 1.7251 10.2802 1.7251 9.98959Z" fill="black" fill-opacity="0.6"/>
<path fill-rule="evenodd" clip-rule="evenodd" d="M1.7251 12.6317C1.7251 12.3411 1.95669 12.1055 2.24238 12.1055H10.16C10.4456 12.1055 10.6772 12.3411 10.6772 12.6317C10.6772 12.9223 10.4456 13.1579 10.16 13.1579H2.24238C1.95669 13.1579 1.7251 12.9223 1.7251 12.6317Z" fill="black" fill-opacity="0.6"/>
<path fill-rule="evenodd" clip-rule="evenodd" d="M0 6.04598C0 5.75537 0.231595 5.51978 0.517282 5.51978H19.1469C19.4326 5.51978 19.6642 5.75537 19.6642 6.04598C19.6642 6.3366 19.4326 6.57219 19.1469 6.57219H0.517282C0.231595 6.57219 0 6.3366 0 6.04598Z" fill="black" fill-opacity="0.6"/>
<path fill-rule="evenodd" clip-rule="evenodd" d="M0.517282 12.9775C0.802969 12.9775 1.03456 13.213 1.03456 13.5035C1.03456 13.9843 1.2279 14.2672 1.47242 14.447C1.73923 14.6432 2.09257 14.7308 2.38024 14.7308C2.66593 14.7308 2.89752 14.9663 2.89752 15.2568C2.89752 15.5473 2.66593 15.7827 2.38024 15.7827C1.92273 15.7827 1.34459 15.6512 0.866215 15.2995C0.365555 14.9314 0 14.3377 0 13.5035C0 13.213 0.231595 12.9775 0.517282 12.9775Z" fill="black" fill-opacity="0.6"/>
<path fill-rule="evenodd" clip-rule="evenodd" d="M14.1228 13.7274C13.8906 14.2424 13.9107 14.7365 14.2262 15.0318C14.3878 15.1831 14.6633 15.33 15.0442 15.4395C15.4182 15.547 15.8595 15.6084 16.3178 15.6142C17.2565 15.6261 18.1537 15.4055 18.6666 15.0026C19.0254 14.7207 19.0535 14.2603 18.8092 13.7514C18.6918 13.5067 18.5351 13.3159 18.4074 13.2156C18.3936 13.2047 18.3812 13.1958 18.3703 13.1885C17.6347 13.6543 16.9755 13.9089 16.3097 13.8939C15.6564 13.8791 15.0792 13.6065 14.498 13.1977C14.4958 13.1995 14.4936 13.2013 14.4913 13.2032C14.3778 13.2968 14.2337 13.4815 14.1228 13.7274ZM14.5698 13.1506C14.5695 13.1515 14.5637 13.1549 14.5533 13.1579C14.5649 13.1511 14.5701 13.1496 14.5698 13.1506ZM13.8397 12.3862C14.0609 12.2037 14.5365 11.9308 14.9839 12.2588C15.5361 12.6637 15.9405 12.8333 16.3327 12.8422C16.7272 12.8511 17.2029 12.6993 17.897 12.2483C18.111 12.0987 18.3505 12.0872 18.5454 12.1323C18.7353 12.1763 18.9034 12.2759 19.04 12.3832C19.3151 12.5993 19.5649 12.9274 19.739 13.2901C20.0778 13.996 20.2287 15.1047 19.2991 15.835C18.5236 16.4443 17.3542 16.6794 16.3049 16.6661C15.7693 16.6593 15.2363 16.5879 14.7627 16.4518C14.2961 16.3177 13.8508 16.1102 13.5255 15.8058C12.7239 15.0555 12.8706 13.9805 13.1824 13.289C13.3435 12.9316 13.5757 12.6038 13.8397 12.3862Z" fill="black" fill-opacity="0.6"/>
<path fill-rule="evenodd" clip-rule="evenodd" d="M16.4785 9.66279C16.0499 9.66279 15.7025 10.016 15.7025 10.4518C15.7025 10.8875 16.0499 11.2407 16.4785 11.2407C16.907 11.2407 17.2544 10.8875 17.2544 10.4518C17.2544 10.016 16.907 9.66279 16.4785 9.66279ZM14.668 10.4518C14.668 9.43505 15.4786 8.61084 16.4785 8.61084C17.4784 8.61084 18.2889 9.43505 18.2889 10.4518C18.2889 11.4685 17.4784 12.2927 16.4785 12.2927C15.4786 12.2927 14.668 11.4685 14.668 10.4518Z" fill="black" fill-opacity="0.6"/>
</svg>
