<svg width="20" height="20" viewBox="0 0 20 20" fill="none" xmlns="http://www.w3.org/2000/svg">
<path fill-rule="evenodd" clip-rule="evenodd" d="M2.98199 3.00083C3.12163 3.26786 3.00846 3.59258 2.72921 3.72611C1.89659 4.12426 1.51461 4.60245 1.33409 4.94819C1.24183 5.12488 1.19792 5.27534 1.17707 5.37543C1.16664 5.42546 1.16204 5.46262 1.16005 5.48373C1.15911 5.49373 1.15876 5.50006 1.15865 5.50236C1.15836 5.52296 1.15684 5.54354 1.15409 5.56398C1.04866 6.34829 1.29633 7.5497 1.88962 8.97077C2.47495 10.3728 3.36847 11.9217 4.47138 13.3753C5.5748 14.8296 6.87564 16.1724 8.26772 17.1742C9.65554 18.173 11.1015 18.8099 12.5122 18.9168L12.5142 18.9168C12.5305 18.9166 12.5558 18.916 12.589 18.9148C12.6554 18.9125 12.7525 18.9077 12.8707 18.8978C13.1091 18.878 13.4231 18.8385 13.7389 18.7617C14.0597 18.6836 14.3505 18.5744 14.5647 18.4314C14.7713 18.2934 14.8794 18.1443 14.9132 17.973C14.971 17.6796 15.2667 17.4866 15.5735 17.542C15.8803 17.5974 16.0821 17.8801 16.0242 18.1734C15.9211 18.6957 15.5888 19.0663 15.2119 19.3179C14.8425 19.5645 14.4066 19.7148 14.0178 19.8094C13.624 19.9053 13.2454 19.9519 12.9687 19.9749C12.8293 19.9865 12.7133 19.9923 12.6309 19.9953C12.5896 19.9967 12.5566 19.9975 12.5332 19.9978L12.5054 19.9982L12.4971 19.9982L12.4944 19.9982H12.4934C12.4933 19.9982 12.4927 19.9982 12.4933 19.4576L12.4934 19.9982C12.4795 19.9982 12.4649 19.9977 12.451 19.9967C10.7445 19.8744 9.08703 19.117 7.58786 18.0381C6.08531 16.9568 4.7087 15.5292 3.55625 14.0103C2.4033 12.4907 1.46254 10.8638 0.839581 9.37164C0.229732 7.91091 -0.104403 6.51131 0.0292113 5.45282C0.030057 5.43514 0.0315103 5.41298 0.0339843 5.38672C0.0392902 5.3304 0.0493181 5.25494 0.0682232 5.16419C0.106027 4.98273 0.17958 4.739 0.322541 4.46521C0.612461 3.90997 1.17198 3.26194 2.22353 2.7591C2.50278 2.62557 2.84235 2.7338 2.98199 3.00083Z" fill="#707070"/>
<path fill-rule="evenodd" clip-rule="evenodd" d="M2.13815 2.80979C2.38808 2.63085 2.74238 2.67953 2.9295 2.91853L5.50835 6.21221C5.63793 6.3777 5.65745 6.59937 5.55865 6.78326C5.26701 7.32605 4.9479 7.63779 4.53504 7.86831C4.34612 7.9738 4.14571 8.05762 3.95337 8.13637C3.92879 8.14644 3.90417 8.15649 3.87944 8.16658C3.7041 8.23814 3.5236 8.31181 3.31958 8.40674C3.03884 8.53737 2.70051 8.42563 2.56391 8.15716C2.4273 7.8887 2.54415 7.56517 2.82489 7.43454C3.05578 7.32711 3.2625 7.24279 3.43713 7.17156C3.46149 7.16162 3.48523 7.15194 3.50833 7.14248C3.70341 7.0626 3.84393 7.00221 3.96494 6.93465C4.11063 6.8533 4.24134 6.75504 4.3772 6.57145L2.02444 3.56652C1.83732 3.32753 1.88823 2.98873 2.13815 2.80979Z" fill="#707070"/>
<path fill-rule="evenodd" clip-rule="evenodd" d="M15.7849 18.5186C16.0425 18.3499 16.1082 18.0134 15.9318 17.7671L13.9482 14.9983C13.8428 14.8511 13.6683 14.7632 13.4818 14.7632C12.8841 14.7632 12.3834 14.9058 11.9568 15.2233C11.5492 15.5268 11.2557 15.9568 10.9954 16.4412C10.8527 16.7067 10.9622 17.0326 11.2399 17.169C11.5176 17.3055 11.8584 17.2008 12.0011 16.9353C12.2367 16.4967 12.4391 16.2345 12.6513 16.0764C12.7931 15.9709 12.9616 15.8954 13.1969 15.8626L14.999 18.3782C15.1755 18.6245 15.5273 18.6874 15.7849 18.5186Z" fill="#707070"/>
<path fill-rule="evenodd" clip-rule="evenodd" d="M2.8569 7.42354C3.14567 7.31004 3.47599 7.44189 3.59468 7.71803C4.06312 8.80784 5.26793 10.7227 6.7924 12.4818C7.55143 13.3577 8.3782 14.1814 9.21781 14.8383C10.0624 15.499 10.891 15.968 11.6535 16.1708C11.9543 16.2507 12.1303 16.5488 12.0467 16.8364C11.9631 17.1241 11.6514 17.2924 11.3506 17.2124C10.3775 16.9537 9.40846 16.3844 8.50187 15.6751C7.59035 14.962 6.71248 14.084 5.92184 13.1717C4.34696 11.3544 3.0723 9.34663 2.54894 8.12906C2.43025 7.85292 2.56812 7.53705 2.8569 7.42354Z" fill="#707070"/>
<path fill-rule="evenodd" clip-rule="evenodd" d="M9.19656 8.40204C9.45413 8.2333 9.80598 8.29619 9.98243 8.54249L10.9742 9.92692C11.1507 10.1732 11.0849 10.5097 10.8273 10.6784C10.5698 10.8471 10.2179 10.7843 10.0415 10.538L9.04968 9.15353C8.87323 8.90722 8.93899 8.57077 9.19656 8.40204Z" fill="#707070"/>
<path fill-rule="evenodd" clip-rule="evenodd" d="M9.70423 5.16633C9.96554 5.00294 10.3159 5.07304 10.4868 5.32292L13.958 10.3992C14.1289 10.649 14.0556 10.9841 13.7943 11.1475C13.533 11.3109 13.1826 11.2408 13.0118 10.9909L9.54049 5.91463C9.36961 5.66476 9.44292 5.32973 9.70423 5.16633Z" fill="#707070"/>
<path fill-rule="evenodd" clip-rule="evenodd" d="M10.6928 2.85733C10.9528 2.69202 11.3037 2.75956 11.4766 3.00818L16.9314 10.8533C17.1043 11.1019 17.0337 11.4374 16.7737 11.6028C16.5137 11.7681 16.1628 11.7005 15.9899 11.4519L10.5351 3.6068C10.3622 3.35819 10.4328 3.02264 10.6928 2.85733Z" fill="#707070"/>
<path fill-rule="evenodd" clip-rule="evenodd" d="M11.1898 0.0889814C11.4507 -0.0750685 11.8012 -0.00583945 11.9728 0.243609L19.9071 11.7805C20.0786 12.03 20.0063 12.3652 19.7454 12.5292C19.4845 12.6933 19.134 12.624 18.9624 12.3746L11.0281 0.837686C10.8566 0.588238 10.929 0.253031 11.1898 0.0889814Z" fill="#707070"/>
</svg>
