<svg xmlns="http://www.w3.org/2000/svg" width="101" height="39" viewBox="0 0 101 39" fill="none">
  <path d="M53.9603 24.896V24.4243C53.5172 24.9817 53.0516 25.4491 52.5635 25.8264C52.084 26.1992 51.5423 26.4845 50.9635 26.6692C50.3849 26.8533 49.725 26.9454 48.9839 26.9454C48.0887 26.9454 47.2863 26.7613 46.5768 26.393C45.8672 26.0248 45.3182 25.5169 44.9297 24.8693C44.4688 24.0844 44.2383 22.956 44.2383 21.4841V14.1579C44.2383 13.4172 44.4054 12.8642 44.7396 12.4989C45.0738 12.1337 45.5168 11.9509 46.0684 11.9507C46.6282 11.9507 47.0799 12.1359 47.4237 12.5062C47.7674 12.8766 47.9393 13.4271 47.9393 14.1579V20.0775C47.9393 20.9353 48.0116 21.6554 48.1561 22.2381C48.3006 22.8207 48.5607 23.2767 48.9362 23.6062C49.3114 23.9359 49.82 24.1007 50.4622 24.1005C51.0863 24.1005 51.674 23.9153 52.2252 23.545C52.7628 23.1919 53.1832 22.6875 53.4333 22.0955C53.6412 21.572 53.7451 20.4251 53.7451 18.6551V14.1579C53.7451 13.4265 53.9163 12.8756 54.2585 12.5053C54.6008 12.1349 55.0465 11.9498 55.5956 11.9498C56.145 11.9498 56.5863 12.1325 56.9197 12.498C57.2531 12.8635 57.4197 13.416 57.4197 14.1557V24.8611C57.4197 25.5649 57.2598 26.0929 56.94 26.4448C56.6202 26.7967 56.2082 26.9726 55.704 26.9724C55.1998 26.9724 54.7834 26.7905 54.4547 26.4267C54.126 26.0629 53.9612 25.5527 53.9603 24.896Z" fill="white"/>
  <path d="M61.3602 11.9767H61.7735V9.71369C61.7735 9.10675 61.7895 8.63058 61.8215 8.28521C61.8535 7.93983 61.9437 7.64355 62.092 7.39637C62.244 7.13408 62.4635 6.91726 62.7279 6.76847C63.0096 6.60593 63.3301 6.52236 63.6555 6.52658C64.1355 6.52658 64.57 6.70593 64.9589 7.06464C65.2131 7.29633 65.3855 7.60388 65.4504 7.94142C65.5194 8.28616 65.5541 8.77597 65.5543 9.41085V11.9774H66.9378C67.4723 11.9774 67.8803 12.1036 68.1617 12.3561C68.4432 12.6085 68.5839 12.9319 68.5839 13.3262C68.5839 13.8315 68.3833 14.185 67.9821 14.3864C67.5809 14.5879 67.0069 14.6888 66.2601 14.6893H65.5543V21.6378C65.5543 22.2286 65.5755 22.6836 65.6179 23.0027C65.6603 23.3219 65.771 23.5798 65.9501 23.7764C66.1298 23.9749 66.4227 24.074 66.8288 24.0738C67.05 24.0738 67.3497 24.0348 67.7278 23.9567C68.1059 23.8786 68.401 23.8393 68.6132 23.8389C68.9171 23.8389 69.1913 23.9604 69.4359 24.2033C69.6805 24.4463 69.803 24.7465 69.8034 25.1039C69.8034 25.7085 69.4714 26.1711 68.8074 26.4917C68.1434 26.8124 67.1889 26.9726 65.9437 26.9724C64.7622 26.9724 63.8667 26.7744 63.2572 26.3784C62.6476 25.9825 62.2482 25.4344 62.059 24.7341C61.8697 24.0342 61.7752 23.0993 61.7754 21.9292V14.6886H61.2773C60.733 14.6886 60.3179 14.5602 60.032 14.3033C59.7461 14.0463 59.6033 13.7204 59.6035 13.3255C59.6035 12.9313 59.7532 12.6079 60.0527 12.3554C60.3522 12.103 60.788 11.9767 61.3602 11.9767Z" fill="white"/>
  <path d="M71.0984 12.2691H71.9793V11.1581C71.9793 10.0026 72.1262 9.08404 72.4199 8.40239C72.7137 7.72074 73.2107 7.22436 73.9109 6.91327C74.6115 6.60154 75.5716 6.44568 76.7911 6.44568C78.9496 6.44568 80.029 6.97221 80.0292 8.02527C80.0354 8.35097 79.9137 8.66615 79.69 8.90331C79.4643 9.14732 79.1979 9.26932 78.8908 9.26932C78.7461 9.26932 78.4977 9.24234 78.1457 9.18837C77.8501 9.139 77.5513 9.11173 77.2517 9.10679C76.5835 9.10679 76.1545 9.30371 75.9649 9.69755C75.7752 10.0914 75.6798 10.6548 75.6787 11.3879V12.2691H76.5867C77.9952 12.2691 78.6997 12.6924 78.7001 13.5389C78.7001 14.1416 78.5126 14.5239 78.1377 14.6858C77.7628 14.8477 77.2458 14.9288 76.5867 14.929H75.6787V24.7233C75.6787 25.4554 75.5047 26.0132 75.1567 26.3969C74.8088 26.7806 74.3595 26.9724 73.8088 26.9724C73.2847 26.9724 72.8486 26.7806 72.5004 26.3969C72.1522 26.0132 71.9783 25.4554 71.9787 24.7233V14.928H70.9614C70.4104 14.928 69.9857 14.8043 69.6873 14.5569C69.3889 14.3096 69.2405 13.9879 69.2422 13.5919C69.2424 12.7105 69.8612 12.2696 71.0984 12.2691Z" fill="white"/>
  <path d="M82.7055 10.2216C82.1898 10.2216 81.749 10.0636 81.383 9.74765C81.017 9.43169 80.8341 8.98474 80.8343 8.40678C80.8343 7.88343 81.0219 7.45234 81.397 7.11352C81.7721 6.77471 82.2083 6.60541 82.7055 6.60562C83.172 6.60117 83.6245 6.76482 83.9799 7.06654C84.3504 7.3734 84.5357 7.82026 84.5359 8.4071C84.5359 8.97595 84.3551 9.42037 83.9933 9.74035C83.6315 10.0603 83.2022 10.2207 82.7055 10.2216ZM84.5356 14.0474V24.7258C84.5356 25.4665 84.3593 26.0259 84.0066 26.4041C83.654 26.7823 83.2066 26.9717 82.6645 26.9723C82.1221 26.9723 81.6815 26.7784 81.3426 26.3905C81.0037 26.0026 80.8342 25.4477 80.834 24.7258V14.155C80.834 13.4243 81.0035 12.874 81.3426 12.5043C81.6817 12.1346 82.1223 11.9495 82.6645 11.9491C83.2068 11.9491 83.6542 12.1342 84.0066 12.5043C84.3591 12.8745 84.5354 13.3889 84.5356 14.0477V14.0474Z" fill="white"/>
  <path d="M98.252 15.867L91.4782 23.4466H98.7263C99.3134 23.4466 99.7559 23.5841 100.054 23.8592C100.352 24.1344 100.501 24.487 100.501 24.9173C100.501 25.3312 100.355 25.6683 100.061 25.9286C99.7679 26.1889 99.3228 26.3192 98.726 26.3194H88.7013C87.9966 26.3194 87.4704 26.1664 87.1226 25.8604C86.7748 25.5544 86.6011 25.1348 86.6016 24.6017C86.6016 24.2868 86.7234 23.9694 86.9672 23.6494C87.2109 23.3294 87.7167 22.7417 88.4845 21.8863C89.2971 20.9823 90.0352 20.1641 90.699 19.4319C91.3628 18.6996 91.9792 18.0148 92.5482 17.3774C93.1169 16.7402 93.5887 16.2005 93.9638 15.7584C94.339 15.3164 94.6393 14.9367 94.8648 14.6195H89.3651C88.6062 14.6195 88.0328 14.552 87.6449 14.4169C87.2571 14.2819 87.0628 13.9265 87.0622 13.3506C87.0622 12.9274 87.209 12.5901 87.5025 12.3386C87.796 12.0872 88.2137 11.9612 88.7557 11.9606H97.2497C98.0353 11.9606 98.6382 12.0755 99.0582 12.3053C99.4783 12.5351 99.6882 12.9478 99.688 13.5433C99.6856 13.7541 99.6443 13.9627 99.5662 14.1585C99.499 14.343 99.408 14.5179 99.2954 14.6788C99.1958 14.8143 99.0602 14.9788 98.8888 15.1724C98.7173 15.3661 98.5051 15.5976 98.252 15.867Z" fill="white"/>
  <path d="M21.675 5.22729C13.7125 5.22729 7.25781 11.5999 7.25781 19.4611C7.25781 27.3222 13.7112 33.6951 21.675 33.6951C29.6387 33.6951 36.0924 27.3222 36.0924 19.4611C36.0924 11.5999 29.6374 5.22729 21.675 5.22729ZM21.5643 31.3651C14.9866 31.3651 9.65574 26.1007 9.65574 19.6068C9.65574 13.1129 14.9866 7.84841 21.5643 7.84841C28.142 7.84841 33.4745 13.1129 33.4745 19.6068C33.4745 26.1007 28.142 31.3651 21.5643 31.3651Z" fill="#FAAF3A"/>
  <path d="M30.997 22.0333C30.997 22.0292 30.997 22.0251 30.997 22.0216C30.997 21.8562 30.9223 21.7206 30.8164 21.6089C30.7358 21.5242 30.6328 21.4642 30.5193 21.4357C30.4059 21.4072 30.2867 21.4116 30.1756 21.4482C30.0645 21.4847 29.9661 21.5521 29.8918 21.6424C29.8176 21.7327 29.7706 21.8422 29.7562 21.9581C28.8594 25.6753 25.5091 28.4371 21.5137 28.4371C17.5482 28.4371 14.2194 25.7182 13.2912 22.0451C13.2866 22.0083 13.2791 21.9719 13.2689 21.9362C13.2689 21.9333 13.2673 21.9302 13.2664 21.9273C13.23 21.8059 13.162 21.6963 13.0693 21.6099C12.9338 21.4835 12.7554 21.4131 12.57 21.4131C12.3846 21.4131 12.2062 21.4835 12.0707 21.6099C11.9993 21.6762 11.9422 21.7565 11.9032 21.8458C11.8641 21.9351 11.8439 22.0314 11.8438 22.1289C11.8437 22.1773 11.8487 22.2256 11.8587 22.273C11.8646 22.3014 11.8725 22.3294 11.8822 22.3568C11.8879 22.3743 11.8946 22.3911 11.9016 22.4079C13.0778 26.5454 16.886 29.577 21.4069 29.577C26.2129 29.577 30.1132 26.5975 30.9995 22.0574L30.9938 22.0676C30.9938 22.0559 30.996 22.0438 30.997 22.0333Z" fill="#FAAF3A"/>
  <path d="M1.93501 8.33474H0.5V4.05278C0.5 1.81799 2.31967 0 4.5561 0H8.84427V1.43293H4.5561C3.86084 1.43402 3.19441 1.71047 2.70302 2.20163C2.21163 2.69278 1.93543 3.35852 1.93501 4.05278V8.33474Z" fill="white"/>
  <path d="M42.8507 8.33474H41.4157V4.05278C41.415 3.35818 41.1383 2.69225 40.6464 2.2011C40.1546 1.70995 39.4877 1.43369 38.7921 1.43293H34.5039V0H38.7921C39.8681 0.00117634 40.8998 0.428542 41.6607 1.18833C42.4216 1.94812 42.8495 2.97827 42.8507 4.05278V8.33474Z" fill="white"/>
  <path d="M8.84427 38.9221H4.5561C2.31967 38.9221 0.5 37.1042 0.5 34.8694V30.5874H1.93501V34.8694C1.93526 35.5637 2.21139 36.2296 2.70279 36.7209C3.1942 37.2122 3.86073 37.4888 4.5561 37.4899H8.84427V38.9221Z" fill="white"/>
  <path d="M38.7921 38.9221H34.5039V37.4899H38.7921C39.4877 37.4891 40.1546 37.2128 40.6464 36.7217C41.1383 36.2305 41.415 35.5646 41.4157 34.87V30.5874H42.8507V34.8694C42.8495 35.9439 42.4216 36.974 41.6607 37.7338C40.8998 38.4936 39.8681 38.921 38.7921 38.9221V38.9221Z" fill="white"/>
</svg>