<svg width="16" height="16" viewBox="0 0 16 16" fill="none" xmlns="http://www.w3.org/2000/svg">
<path fill-rule="evenodd" clip-rule="evenodd" d="M4.31246 4.31344C4.50772 4.11818 4.82431 4.11818 5.01957 4.31344L11.6862 10.9801C11.8815 11.1754 11.8815 11.492 11.6862 11.6872C11.491 11.8825 11.1744 11.8825 10.9791 11.6872L4.31246 5.02055C4.1172 4.82528 4.1172 4.5087 4.31246 4.31344Z" fill="#333333"/>
<path fill-rule="evenodd" clip-rule="evenodd" d="M11.6862 4.31344C11.8815 4.5087 11.8815 4.82528 11.6862 5.02055L5.01957 11.6872C4.82431 11.8825 4.50772 11.8825 4.31246 11.6872C4.1172 11.492 4.1172 11.1754 4.31246 10.9801L10.9791 4.31344C11.1744 4.11818 11.491 4.11818 11.6862 4.31344Z" fill="#333333"/>
</svg>
