<svg width="24" height="24" viewBox="0 0 24 24" fill="none" xmlns="http://www.w3.org/2000/svg">
    <path fill-rule="evenodd" clip-rule="evenodd"
        d="M1 14.6C1 14.2686 1.26863 14 1.6 14H11.1C11.4314 14 11.7 14.2686 11.7 14.6V21.6C11.7 21.9314 11.4314 22.2 11.1 22.2H1.6C1.26863 22.2 1 21.9314 1 21.6V14.6ZM2.2 15.2V21H10.5V15.2H6.95V16.1C6.95 16.4314 6.68137 16.7 6.35 16.7C6.01863 16.7 5.75 16.4314 5.75 16.1V15.2H2.2Z"
        fill="#9F7C00" />
    <path fill-rule="evenodd" clip-rule="evenodd"
        d="M19.1757 14.1757C19.4101 13.9414 19.7899 13.9414 20.0243 14.1757L22.0243 16.1757C22.2586 16.4101 22.2586 16.7899 22.0243 17.0243L20.0243 19.0243C19.7899 19.2586 19.4101 19.2586 19.1757 19.0243C18.9414 18.7899 18.9414 18.4101 19.1757 18.1757L20.1515 17.2H14.6C14.2686 17.2 14 16.9314 14 16.6C14 16.2686 14.2686 16 14.6 16H20.1515L19.1757 15.0243C18.9414 14.7899 18.9414 14.4101 19.1757 14.1757Z"
        fill="#9F7C00" />
    <path fill-rule="evenodd" clip-rule="evenodd"
        d="M11.1081 1.00005C11.2754 1.00231 11.4341 1.07428 11.546 1.19862L20.546 11.1986C20.7045 11.3747 20.7445 11.6277 20.6481 11.8441C20.5517 12.0606 20.337 12.2 20.1 12.2H18.7V13.1C18.7 13.4314 18.4314 13.7 18.1 13.7C17.7686 13.7 17.5 13.4314 17.5 13.1V11.6C17.5 11.2686 17.7686 11 18.1 11H18.7528L11.0881 2.48368L2.9976 11H3.60001C3.93139 11 4.20001 11.2686 4.20001 11.6V12.6C4.20001 12.9314 3.93139 13.2 3.60001 13.2C3.26864 13.2 3.00001 12.9314 3.00001 12.6V12.2H1.60001C1.36013 12.2 1.14331 12.0571 1.04868 11.8367C0.954044 11.6163 0.999797 11.3607 1.16501 11.1868L10.665 1.18675C10.7802 1.06547 10.9408 0.997801 11.1081 1.00005ZM18.1 19C18.4314 19 18.7 19.2686 18.7 19.6V20.6C18.7 20.9314 18.4314 21.2 18.1 21.2H13.1C12.7686 21.2 12.5 20.9314 12.5 20.6C12.5 20.2686 12.7686 20 13.1 20H17.5V19.6C17.5 19.2686 17.7686 19 18.1 19Z"
        fill="#9F7C00" />
</svg>
    