<svg width="24" height="24" viewBox="0 0 24 24" fill="none" xmlns="http://www.w3.org/2000/svg">
    <path fill-rule="evenodd" clip-rule="evenodd"
        d="M1.40039 14.9999C1.40039 14.6685 1.66902 14.3999 2.00039 14.3999H11.5004C11.8318 14.3999 12.1004 14.6685 12.1004 14.9999V21.9999C12.1004 22.3313 11.8318 22.5999 11.5004 22.5999H2.00039C1.66902 22.5999 1.40039 22.3313 1.40039 21.9999V14.9999ZM2.60039 15.5999V21.3999H10.9004V15.5999H7.35039V16.4999C7.35039 16.8313 7.08176 17.0999 6.75039 17.0999C6.41902 17.0999 6.15039 16.8313 6.15039 16.4999V15.5999H2.60039Z"
        fill="#9F7C00" />
    <path fill-rule="evenodd" clip-rule="evenodd"
        d="M11.5085 1.39996C11.6758 1.40221 11.8345 1.47419 11.9464 1.59852L20.9464 11.5985C21.1049 11.7746 21.1449 12.0276 21.0485 12.244C20.9521 12.4605 20.7374 12.5999 20.5004 12.5999H19.1004V13.4999C19.1004 13.8313 18.8318 14.0999 18.5004 14.0999C18.169 14.0999 17.9004 13.8313 17.9004 13.4999V11.9999C17.9004 11.6685 18.169 11.3999 18.5004 11.3999H19.1532L11.4885 2.88358L3.39799 11.3999H4.0004C4.33178 11.3999 4.6004 11.6685 4.6004 11.9999V12.9999C4.6004 13.3313 4.33178 13.5999 4.0004 13.5999C3.66903 13.5999 3.4004 13.3313 3.4004 12.9999V12.5999H2.0004C1.76052 12.5999 1.5437 12.457 1.44907 12.2366C1.35443 12.0162 1.40019 11.7606 1.56541 11.5867L11.0654 1.58665C11.1806 1.46538 11.3412 1.3977 11.5085 1.39996ZM18.5004 19.3999C18.8318 19.3999 19.1004 19.6685 19.1004 19.9999V20.9999C19.1004 21.3313 18.8318 21.5999 18.5004 21.5999H13.5004C13.169 21.5999 12.9004 21.3313 12.9004 20.9999C12.9004 20.6685 13.169 20.3999 13.5004 20.3999H17.9004V19.9999C17.9004 19.6685 18.169 19.3999 18.5004 19.3999Z"
        fill="#9F7C00" />
    <path fill-rule="evenodd" clip-rule="evenodd"
        d="M17.4239 14.5756C17.1896 14.3413 16.8097 14.3413 16.5753 14.5756L14.5753 16.5756C14.341 16.81 14.341 17.1899 14.5753 17.4242L16.5753 19.4242C16.8097 19.6585 17.1896 19.6585 17.4239 19.4242C17.6582 19.1899 17.6582 18.81 17.4239 18.5756L16.4481 17.5999H21.9996C22.331 17.5999 22.5996 17.3313 22.5996 16.9999C22.5996 16.6685 22.331 16.3999 21.9996 16.3999H16.4481L17.4239 15.4242C17.6582 15.1899 17.6582 14.81 17.4239 14.5756Z"
        fill="#9F7C00" />
</svg>
    