<svg width="24" height="24" viewBox="0 0 24 24" fill="none" xmlns="http://www.w3.org/2000/svg">
    <path fill-rule="evenodd" clip-rule="evenodd"
        d="M11.7321 1.46325C11.901 1.37879 12.0998 1.37879 12.2687 1.46325L22.2687 6.46325C22.472 6.56488 22.6004 6.77264 22.6004 6.9999C22.6004 7.22717 22.472 7.43492 22.2687 7.53656L12.2687 12.5366C12.0998 12.621 11.901 12.621 11.7321 12.5366L1.73206 7.53656C1.52879 7.43492 1.40039 7.22717 1.40039 6.9999C1.40039 6.77264 1.52879 6.56488 1.73206 6.46325L11.7321 1.46325ZM12.0004 2.67072L3.34203 6.9999L12.0004 11.3291L20.6588 6.9999L12.0004 2.67072Z"
        fill="#37AC00" />
    <path fill-rule="evenodd" clip-rule="evenodd"
        d="M1.40039 17V7H2.60039V16.6292L11.4004 21.0292V12H12.6004V21.0292L13.7321 20.4633C14.0285 20.3152 14.3889 20.4353 14.537 20.7317C14.6852 21.0281 14.5651 21.3885 14.2687 21.5367L12.2687 22.5367C12.0998 22.6211 11.901 22.6211 11.7321 22.5367L1.73206 17.5367C1.52879 17.435 1.40039 17.2273 1.40039 17ZM22.6004 7V12.5C22.6004 12.8314 22.3318 13.1 22.0004 13.1C21.669 13.1 21.4004 12.8314 21.4004 12.5V7H22.6004Z"
        fill="#37AC00" />
    <path fill-rule="evenodd" clip-rule="evenodd"
        d="M6.96956 4.22058C7.1239 3.92734 7.48672 3.81474 7.77996 3.96907L17.28 8.96907C17.4771 9.07283 17.6005 9.27726 17.6005 9.50002V11.5C17.6005 11.8314 17.3319 12.1 17.0005 12.1C16.6691 12.1 16.4005 11.8314 16.4005 11.5V9.86226L7.22106 5.03097C6.92783 4.87664 6.81523 4.51381 6.96956 4.22058Z"
        fill="#37AC00" />
    <path fill-rule="evenodd" clip-rule="evenodd"
        d="M20.1035 21.349C19.9108 21.1513 19.9148 20.8348 20.1125 20.642L20.7709 20H16C15.7239 20 15.5 19.7761 15.5 19.5C15.5 19.2239 15.7239 19 16 19H20.7709L20.1125 18.358C19.9148 18.1652 19.9108 17.8487 20.1035 17.6509C20.2963 17.4532 20.6129 17.4492 20.8106 17.642L22.3491 19.142C22.4456 19.2361 22.5 19.3652 22.5 19.5C22.5 19.6348 22.4456 19.7639 22.3491 19.858L20.8106 21.358C20.6129 21.5508 20.2963 21.5468 20.1035 21.349Z"
        fill="#37AC00" />
    <path fill-rule="evenodd" clip-rule="evenodd"
        d="M17.8534 17.8536C18.0487 17.6583 18.0487 17.3417 17.8535 17.1465L17.207 16.5H22C22.2761 16.5 22.5 16.2761 22.5 16C22.5 15.7239 22.2761 15.5 22 15.5H17.207L17.8535 14.8535C18.0487 14.6583 18.0487 14.3417 17.8534 14.1464C17.6582 13.9512 17.3416 13.9512 17.1463 14.1465L15.6464 15.6465C15.4512 15.8417 15.4512 16.1583 15.6464 16.3535L17.1463 17.8535C17.3416 18.0488 17.6582 18.0488 17.8534 17.8536Z"
        fill="#37AC00" />
</svg>
    