<svg width="73" height="72" viewBox="0 0 73 72" fill="none" xmlns="http://www.w3.org/2000/svg">
<path fill-rule="evenodd" clip-rule="evenodd" d="M35.0235 4.20036C35.5253 4.20712 36.0015 4.42305 36.3372 4.79606L63.3372 34.7961C63.8127 35.3244 63.9328 36.0832 63.6436 36.7325C63.3544 37.3819 62.7101 37.8002 61.9993 37.8002H57.7993V40.5002C57.7993 41.4943 56.9934 42.3002 55.9993 42.3002C55.0051 42.3002 54.1993 41.4943 54.1993 40.5002V36.0002C54.1993 35.0061 55.0051 34.2002 55.9993 34.2002H57.9576L34.9635 8.65123L10.692 34.2002H12.4993C13.4934 34.2002 14.2993 35.0061 14.2993 36.0002V61.2002H33.4993C34.4934 61.2002 35.2993 62.0061 35.2993 63.0002C35.2993 63.9943 34.4934 64.8002 33.4993 64.8002H12.4993C11.5051 64.8002 10.6993 63.9943 10.6993 63.0002V37.8002H6.49926C5.77962 37.8002 5.12914 37.3716 4.84524 36.7103C4.56135 36.049 4.69861 35.2822 5.19426 34.7604L33.6943 4.76045C34.0399 4.39662 34.5217 4.1936 35.0235 4.20036Z" fill="#F7C100"/>
<path fill-rule="evenodd" clip-rule="evenodd" d="M36.1992 45.0002C36.1992 44.0061 37.0051 43.2002 37.9992 43.2002H66.4992C67.4933 43.2002 68.2992 44.0061 68.2992 45.0002V66.0002C68.2992 66.9943 67.4933 67.8002 66.4992 67.8002H37.9992C37.0051 67.8002 36.1992 66.9943 36.1992 66.0002V45.0002ZM39.7992 46.8002V64.2002H64.6992V46.8002H54.0492V49.5002C54.0492 50.4943 53.2433 51.3002 52.2492 51.3002C51.2551 51.3002 50.4492 50.4943 50.4492 49.5002V46.8002H39.7992Z" fill="#F7C100"/>
</svg>
