<svg width="24" height="24" viewBox="0 0 24 24" fill="none" xmlns="http://www.w3.org/2000/svg">
    <path fill-rule="evenodd" clip-rule="evenodd"
        d="M11.5085 1.39996C11.6758 1.40221 11.8345 1.47419 11.9464 1.59852L20.9464 11.5985C21.1049 11.7746 21.1449 12.0276 21.0485 12.244C20.9521 12.4605 20.7374 12.5999 20.5004 12.5999H19.1004V13.4999C19.1004 13.8313 18.8318 14.0999 18.5004 14.0999C18.169 14.0999 17.9004 13.8313 17.9004 13.4999V11.9999C17.9004 11.6685 18.169 11.3999 18.5004 11.3999H19.1532L11.4885 2.88358L3.39799 11.3999H4.0004C4.33178 11.3999 4.6004 11.6685 4.6004 11.9999V20.3999H11.0004C11.3318 20.3999 11.6004 20.6685 11.6004 20.9999C11.6004 21.3313 11.3318 21.5999 11.0004 21.5999H4.0004C3.66903 21.5999 3.4004 21.3313 3.4004 20.9999V12.5999H2.0004C1.76052 12.5999 1.5437 12.457 1.44907 12.2366C1.35443 12.0162 1.40019 11.7606 1.56541 11.5867L11.0654 1.58665C11.1806 1.46538 11.3412 1.3977 11.5085 1.39996Z"
        fill="#9F7C00" />
    <path fill-rule="evenodd" clip-rule="evenodd"
        d="M11.9004 14.9999C11.9004 14.6685 12.169 14.3999 12.5004 14.3999H22.0004C22.3318 14.3999 22.6004 14.6685 22.6004 14.9999V21.9999C22.6004 22.3313 22.3318 22.5999 22.0004 22.5999H12.5004C12.169 22.5999 11.9004 22.3313 11.9004 21.9999V14.9999ZM13.1004 15.5999V21.3999H21.4004V15.5999H17.8504V16.4999C17.8504 16.8313 17.5818 17.0999 17.2504 17.0999C16.919 17.0999 16.6504 16.8313 16.6504 16.4999V15.5999H13.1004Z"
        fill="#9F7C00" />
</svg>
    