<svg width="29" height="30" viewBox="0 0 29 30" fill="none" xmlns="http://www.w3.org/2000/svg">
<path fill-rule="evenodd" clip-rule="evenodd" d="M0.367188 18.9997C0.367188 18.5579 0.72536 18.1997 1.16719 18.1997H13.8339C14.2757 18.1997 14.6339 18.5579 14.6339 18.9997V28.333C14.6339 28.7749 14.2757 29.133 13.8339 29.133H1.16719C0.72536 29.133 0.367188 28.7749 0.367188 28.333V18.9997ZM1.96719 19.7997V27.533H13.0339V19.7997H8.30052V20.9997C8.30052 21.4415 7.94235 21.7997 7.50052 21.7997C7.05869 21.7997 6.70052 21.4415 6.70052 20.9997V19.7997H1.96719Z" fill="#138300"/>
<path fill-rule="evenodd" clip-rule="evenodd" d="M13.8447 0.866528C14.0677 0.869533 14.2793 0.965502 14.4285 1.13128L26.4285 14.4646C26.6399 14.6994 26.6932 15.0367 26.5647 15.3253C26.4361 15.6139 26.1498 15.7998 25.8339 15.7998H23.9672V16.9998C23.9672 17.4416 23.609 17.7998 23.1672 17.7998C22.7254 17.7998 22.3672 17.4416 22.3672 16.9998V14.9998C22.3672 14.558 22.7254 14.1998 23.1672 14.1998H24.0376L13.818 2.84469L3.03066 14.1998H3.83387C4.2757 14.1998 4.63387 14.558 4.63387 14.9998V16.3331C4.63387 16.775 4.2757 17.1331 3.83387 17.1331C3.39205 17.1331 3.03387 16.775 3.03387 16.3331V15.7998H1.16721C0.847366 15.7998 0.558263 15.6093 0.432088 15.3154C0.305912 15.0215 0.366917 14.6807 0.587207 14.4488L13.2539 1.11546C13.4075 0.953754 13.6216 0.863523 13.8447 0.866528ZM23.1672 24.8665C23.609 24.8665 23.9672 25.2246 23.9672 25.6665V26.9998C23.9672 27.4416 23.609 27.7998 23.1672 27.7998H16.5005C16.0587 27.7998 15.7005 27.4416 15.7005 26.9998C15.7005 26.558 16.0587 26.1998 16.5005 26.1998H22.3672V25.6665C22.3672 25.2246 22.7254 24.8665 23.1672 24.8665Z" fill="#138300"/>
<path fill-rule="evenodd" clip-rule="evenodd" d="M21.7318 18.434C21.4194 18.1216 20.9129 18.1216 20.6005 18.434L17.9338 21.1007C17.6214 21.4131 17.6214 21.9196 17.9338 22.2321L20.6005 24.8987C20.9129 25.2111 21.4194 25.2111 21.7318 24.8987C22.0443 24.5863 22.0443 24.0798 21.7318 23.7674L20.4308 22.4664H27.8328C28.2746 22.4664 28.6328 22.1082 28.6328 21.6664C28.6328 21.2245 28.2746 20.8664 27.8328 20.8664H20.4308L21.7318 19.5654C22.0443 19.253 22.0443 18.7464 21.7318 18.434Z" fill="#138300"/>
</svg>
