<svg width="32" height="32" viewBox="0 0 32 32" fill="none" xmlns="http://www.w3.org/2000/svg">
<path fill-rule="evenodd" clip-rule="evenodd" d="M8.00052 3.46719C7.70597 3.46719 7.46719 3.70597 7.46719 4.00052V28.0005C7.46719 28.2951 7.70597 28.5339 8.00052 28.5339H24.0005C24.2951 28.5339 24.5339 28.2951 24.5339 28.0005V10.3888C24.5339 10.2874 24.5049 10.188 24.4505 10.1025L20.3852 3.71419C20.2873 3.56035 20.1176 3.46719 19.9353 3.46719H8.00052ZM5.86719 4.00052C5.86719 2.82231 6.82231 1.86719 8.00052 1.86719H19.9353C20.6646 1.86719 21.3435 2.23983 21.7351 2.85519L25.8003 9.24345C26.0182 9.58575 26.1339 9.98306 26.1339 10.3888V28.0005C26.1339 29.1787 25.1787 30.1339 24.0005 30.1339H8.00052C6.82231 30.1339 5.86719 29.1787 5.86719 28.0005V4.00052Z" fill="#82C182"/>
<path fill-rule="evenodd" clip-rule="evenodd" d="M20.0031 1.86719C20.445 1.86719 20.8031 2.22536 20.8031 2.66719V9.20052H25.3365C25.7783 9.20052 26.1365 9.55869 26.1365 10.0005C26.1365 10.4423 25.7783 10.8005 25.3365 10.8005H20.0031C19.5613 10.8005 19.2031 10.4423 19.2031 10.0005V2.66719C19.2031 2.22536 19.5613 1.86719 20.0031 1.86719Z" fill="#82C182"/>
<path fill-rule="evenodd" clip-rule="evenodd" d="M8.53125 13.3313C8.53125 12.8894 8.88942 12.5312 9.33125 12.5312H15.9979C16.4397 12.5312 16.7979 12.8894 16.7979 13.3313C16.7979 13.7731 16.4397 14.1313 15.9979 14.1313H9.33125C8.88942 14.1313 8.53125 13.7731 8.53125 13.3313Z" fill="#82C182"/>
<path fill-rule="evenodd" clip-rule="evenodd" d="M8.53125 18.6672C8.53125 18.2254 8.88942 17.8672 9.33125 17.8672H19.9979C20.4397 17.8672 20.7979 18.2254 20.7979 18.6672C20.7979 19.109 20.4397 19.4672 19.9979 19.4672H9.33125C8.88942 19.4672 8.53125 19.109 8.53125 18.6672Z" fill="#82C182"/>
<path fill-rule="evenodd" clip-rule="evenodd" d="M8.53125 24.0031C8.53125 23.5613 8.88942 23.2031 9.33125 23.2031H22.6646C23.1064 23.2031 23.4646 23.5613 23.4646 24.0031C23.4646 24.445 23.1064 24.8031 22.6646 24.8031H9.33125C8.88942 24.8031 8.53125 24.445 8.53125 24.0031Z" fill="#82C182"/>
</svg>
