<svg width="32" height="32" viewBox="0 0 32 32" fill="none" xmlns="http://www.w3.org/2000/svg">
<path fill-rule="evenodd" clip-rule="evenodd" d="M19.8672 8.00313C19.8672 7.5613 20.2254 7.20312 20.6672 7.20312H22.0005C22.4423 7.20312 22.8005 7.5613 22.8005 8.00313C22.8005 8.44495 22.4423 8.80313 22.0005 8.80313H20.6672C20.2254 8.80313 19.8672 8.44495 19.8672 8.00313Z" fill="#82C182"/>
<path fill-rule="evenodd" clip-rule="evenodd" d="M19.8672 10.6672C19.8672 10.2254 20.2254 9.86719 20.6672 9.86719H22.0005C22.4423 9.86719 22.8005 10.2254 22.8005 10.6672C22.8005 11.109 22.4423 11.4672 22.0005 11.4672H20.6672C20.2254 11.4672 19.8672 11.109 19.8672 10.6672Z" fill="#82C182"/>
<path fill-rule="evenodd" clip-rule="evenodd" d="M1.86719 22.6672C1.86719 22.2254 2.22536 21.8672 2.66719 21.8672H10.6672C11.109 21.8672 11.4672 22.2254 11.4672 22.6672C11.4672 23.109 11.109 23.4672 10.6672 23.4672H3.46719V28.5339H28.5339V23.4672H21.3339C20.892 23.4672 20.5339 23.109 20.5339 22.6672C20.5339 22.2254 20.892 21.8672 21.3339 21.8672H29.3339C29.7757 21.8672 30.1339 22.2254 30.1339 22.6672V29.3339C30.1339 29.7757 29.7757 30.1339 29.3339 30.1339H2.66719C2.22536 30.1339 1.86719 29.7757 1.86719 29.3339V22.6672Z" fill="#82C182"/>
<path fill-rule="evenodd" clip-rule="evenodd" d="M5.86719 5.33125C5.86719 4.88942 6.22536 4.53125 6.66719 4.53125H14.6672C15.109 4.53125 15.4672 4.88942 15.4672 5.33125V15.9979C15.4672 16.4397 15.109 16.7979 14.6672 16.7979H6.66719C6.22536 16.7979 5.86719 16.4397 5.86719 15.9979V5.33125ZM7.46719 6.13125V15.1979H13.8672V6.13125H7.46719Z" fill="#82C182"/>
<path fill-rule="evenodd" clip-rule="evenodd" d="M16.5312 8.00313C16.5312 7.5613 16.8894 7.20312 17.3313 7.20312H18.6646C19.1064 7.20312 19.4646 7.5613 19.4646 8.00313C19.4646 8.44495 19.1064 8.80313 18.6646 8.80313H17.3313C16.8894 8.80313 16.5312 8.44495 16.5312 8.00313Z" fill="#82C182"/>
<path fill-rule="evenodd" clip-rule="evenodd" d="M16.5312 10.6672C16.5312 10.2254 16.8894 9.86719 17.3313 9.86719H18.6646C19.1064 9.86719 19.4646 10.2254 19.4646 10.6672C19.4646 11.109 19.1064 11.4672 18.6646 11.4672H17.3313C16.8894 11.4672 16.5312 11.109 16.5312 10.6672Z" fill="#82C182"/>
<path fill-rule="evenodd" clip-rule="evenodd" d="M11.8672 22.6672C11.8672 22.2254 12.2254 21.8672 12.6672 21.8672H19.3339C19.7757 21.8672 20.1339 22.2254 20.1339 22.6672V24.6672C20.1339 25.109 19.7757 25.4672 19.3339 25.4672H12.6672C12.2254 25.4672 11.8672 25.109 11.8672 24.6672V22.6672ZM13.4672 23.4672V23.8672H18.5339V23.4672H13.4672Z" fill="#82C182"/>
<path fill-rule="evenodd" clip-rule="evenodd" d="M3.20312 2.66719C3.20312 2.22536 3.5613 1.86719 4.00313 1.86719H28.0031C28.445 1.86719 28.8031 2.22536 28.8031 2.66719V18.6672C28.8031 19.109 28.445 19.4672 28.0031 19.4672H4.00313C3.5613 19.4672 3.20312 19.109 3.20312 18.6672V2.66719ZM4.80313 3.46719V17.8672H27.2031V3.46719H4.80313Z" fill="#82C182"/>
<path fill-rule="evenodd" clip-rule="evenodd" d="M23.2031 8.00313C23.2031 7.5613 23.5613 7.20312 24.0031 7.20312H25.3365C25.7783 7.20312 26.1365 7.5613 26.1365 8.00313C26.1365 8.44495 25.7783 8.80313 25.3365 8.80313H24.0031C23.5613 8.80313 23.2031 8.44495 23.2031 8.00313Z" fill="#82C182"/>
<path fill-rule="evenodd" clip-rule="evenodd" d="M23.2031 10.6672C23.2031 10.2254 23.5613 9.86719 24.0031 9.86719H25.3365C25.7783 9.86719 26.1365 10.2254 26.1365 10.6672C26.1365 11.109 25.7783 11.4672 25.3365 11.4672H24.0031C23.5613 11.4672 23.2031 11.109 23.2031 10.6672Z" fill="#82C182"/>
<path fill-rule="evenodd" clip-rule="evenodd" d="M21.2031 13.3313C21.2031 12.8894 21.5613 12.5312 22.0031 12.5312H25.3365C25.7783 12.5312 26.1365 12.8894 26.1365 13.3313C26.1365 13.7731 25.7783 14.1313 25.3365 14.1313H22.0031C21.5613 14.1313 21.2031 13.7731 21.2031 13.3313Z" fill="#82C182"/>
</svg>
