<svg width="32" height="32" viewBox="0 0 32 32" fill="none" xmlns="http://www.w3.org/2000/svg">
<path fill-rule="evenodd" clip-rule="evenodd" d="M8.00313 3.46719C6.23581 3.46719 4.80313 4.89988 4.80313 6.66719C4.80313 8.4345 6.23581 9.86719 8.00313 9.86719C9.77044 9.86719 11.2031 8.4345 11.2031 6.66719C11.2031 4.89988 9.77044 3.46719 8.00313 3.46719ZM3.20312 6.66719C3.20312 4.01622 5.35216 1.86719 8.00313 1.86719C10.6541 1.86719 12.8031 4.01622 12.8031 6.66719C12.8031 9.31815 10.6541 11.4672 8.00313 11.4672C5.35216 11.4672 3.20312 9.31815 3.20312 6.66719Z" fill="#82C182"/>
<path fill-rule="evenodd" clip-rule="evenodd" d="M4.54559 14.3516C3.93333 15.0821 3.46719 16.4011 3.46719 18.6683V28.5346L13.2005 28.535V21.335C13.2005 20.8931 13.5587 20.535 14.0005 20.535C14.4423 20.535 14.8005 20.8931 14.8005 21.335V29.3349C14.8005 29.7768 14.4424 30.1349 14.0005 30.1349L2.66719 30.135C2.45502 30.135 2.25153 30.0507 2.1015 29.9007C1.95147 29.7507 1.86719 29.5472 1.86719 29.335V18.6683C1.86719 16.2307 2.36028 14.4681 3.31932 13.3238C4.30825 12.1439 5.67337 11.7584 7.07374 11.8282C8.4507 11.8968 9.91897 12.4025 11.2814 13.0683C12.6535 13.7388 13.9725 14.5985 15.0647 15.4314C15.2732 15.5904 15.5382 15.5973 15.7285 15.4784L20.2432 12.6566C20.6179 12.4225 21.1114 12.5364 21.3456 12.911C21.5798 13.2857 21.4659 13.7793 21.0912 14.0134L16.5765 16.8351C15.7899 17.3268 14.8021 17.2433 14.0945 16.7037C13.0674 15.9204 11.8377 15.121 10.5789 14.5058C9.31037 13.8859 8.06546 13.4796 6.99412 13.4262C5.94622 13.374 5.12796 13.6567 4.54559 14.3516Z" fill="#82C182"/>
<path fill-rule="evenodd" clip-rule="evenodd" d="M24.6699 12.5312C25.1117 12.5312 25.4699 12.8894 25.4699 13.3313C25.4699 14.5285 25.057 15.4664 24.2182 16.0656C23.4855 16.589 22.5347 16.7733 21.5481 16.7956L17.0714 19.2826C15.9884 19.8843 14.6667 19.8623 13.6043 19.2248L11.5916 18.0172C11.2128 17.7899 11.0899 17.2985 11.3173 16.9197C11.5446 16.5408 12.036 16.4179 12.4148 16.6453L14.4275 17.8528C14.9995 18.1961 15.7113 18.2079 16.2944 17.884L20.9481 15.2986C21.0669 15.2326 21.2006 15.1979 21.3366 15.1979C22.2752 15.1979 22.9066 15.0362 23.2883 14.7636C23.6161 14.5294 23.8699 14.134 23.8699 13.3313C23.8699 12.8894 24.2281 12.5312 24.6699 12.5312Z" fill="#82C182"/>
<path fill-rule="evenodd" clip-rule="evenodd" d="M17.8672 6.66719C17.8672 6.22536 18.2254 5.86719 18.6672 5.86719H29.3339C29.7757 5.86719 30.1339 6.22536 30.1339 6.66719V13.3339C30.1339 13.7757 29.7757 14.1339 29.3339 14.1339H18.6672C18.2254 14.1339 17.8672 13.7757 17.8672 13.3339V6.66719ZM19.4672 7.46719V12.5339H28.5339V7.46719H19.4672Z" fill="#82C182"/>
<path fill-rule="evenodd" clip-rule="evenodd" d="M24.0031 5.86719C24.445 5.86719 24.8031 6.22536 24.8031 6.66719V8.66719C24.8031 9.10901 24.445 9.46719 24.0031 9.46719C23.5613 9.46719 23.2031 9.10901 23.2031 8.66719V6.66719C23.2031 6.22536 23.5613 5.86719 24.0031 5.86719Z" fill="#82C182"/>
</svg>
