<svg width="32" height="32" viewBox="0 0 32 32" fill="none" xmlns="http://www.w3.org/2000/svg">
<path fill-rule="evenodd" clip-rule="evenodd" d="M27.1141 16.9609C26.6722 16.9609 26.3141 17.3191 26.3141 17.7609V28.1246C26.3141 28.2553 26.2658 28.3681 26.1989 28.4412C26.1341 28.5118 26.0619 28.5368 26.003 28.5368H6.00295C5.94401 28.5368 5.87179 28.5118 5.807 28.4412C5.74007 28.3681 5.69184 28.2553 5.69184 28.1246V17.7609C5.69184 17.3191 5.33367 16.9609 4.89184 16.9609C4.45001 16.9609 4.09184 17.3191 4.09184 17.7609V28.1246C4.09184 28.6369 4.27773 29.1407 4.62755 29.5223C4.9795 29.9063 5.47252 30.1368 6.00295 30.1368H26.003C26.5334 30.1368 27.0264 29.9063 27.3784 29.5223C27.7282 29.1407 27.9141 28.6369 27.9141 28.1246V17.7609C27.9141 17.3191 27.5559 16.9609 27.1141 16.9609Z" fill="#82C182"/>
<path fill-rule="evenodd" clip-rule="evenodd" d="M26.2773 1.86719H5.71451C5.2841 1.87105 4.87478 2.02603 4.54619 2.29604C4.21887 2.56501 3.98989 2.93223 3.88018 3.33642L3.87817 3.34385L1.89209 10.95C1.82948 11.1897 1.88153 11.445 2.03301 11.6411C2.1845 11.8372 2.41832 11.9521 2.66614 11.9521H29.3328C29.5806 11.9521 29.8144 11.8372 29.9659 11.6411C30.1174 11.445 30.1695 11.1897 30.1069 10.95L28.1188 3.33641C28.0091 2.93222 27.7801 2.565 27.4528 2.29604C27.1242 2.02603 26.7148 1.87109 26.2844 1.86722L26.2773 1.86719ZM26.2724 3.46719C26.3235 3.46816 26.3813 3.48649 26.437 3.53222C26.4942 3.57923 26.5465 3.65401 26.5738 3.75269L28.2971 10.3521H3.70186L5.42432 3.75554C5.42457 3.75462 5.42482 3.75371 5.42507 3.7528C5.45245 3.65406 5.50476 3.57925 5.56199 3.53222C5.61764 3.48649 5.67547 3.46816 5.72658 3.46719H26.2724Z" fill="#82C182"/>
<path fill-rule="evenodd" clip-rule="evenodd" d="M29.3328 10.3516C28.891 10.3516 28.5328 10.7097 28.5328 11.1516V13.5758C28.5328 14.6709 28.1334 15.7087 27.4413 16.4637C26.7514 17.2163 25.8314 17.6243 24.8884 17.6243C23.9454 17.6243 23.0253 17.2163 22.3354 16.4637C21.6433 15.7087 21.2439 14.6709 21.2439 13.5758V11.1516C21.2439 10.7097 20.8858 10.3516 20.4439 10.3516C20.0021 10.3516 19.6439 10.7097 19.6439 11.1516V13.5758C19.6439 15.0525 20.181 16.4812 21.1559 17.5448C22.133 18.6107 23.4739 19.2243 24.8884 19.2243C26.3029 19.2243 27.6437 18.6107 28.6208 17.5448C29.5957 16.4812 30.1328 15.0525 30.1328 13.5758V11.1516C30.1328 10.7097 29.7746 10.3516 29.3328 10.3516Z" fill="#82C182"/>
<path fill-rule="evenodd" clip-rule="evenodd" d="M20.4422 10.3516C20.0004 10.3516 19.6422 10.7097 19.6422 11.1516V13.5758C19.6422 14.6709 19.2428 15.7087 18.5507 16.4637C17.8608 17.2163 16.9407 17.6243 15.9977 17.6243C15.0548 17.6243 14.1347 17.2163 13.4448 16.4637C12.7527 15.7087 12.3533 14.6709 12.3533 13.5758V11.1516C12.3533 10.7097 11.9951 10.3516 11.5533 10.3516C11.1115 10.3516 10.7533 10.7097 10.7533 11.1516V13.5758C10.7533 15.0525 11.2904 16.4812 12.2653 17.5448C13.2424 18.6107 14.5833 19.2243 15.9977 19.2243C17.4122 19.2243 18.7531 18.6107 19.7302 17.5448C20.7051 16.4812 21.2422 15.0525 21.2422 13.5758V11.1516C21.2422 10.7097 20.884 10.3516 20.4422 10.3516Z" fill="#82C182"/>
<path fill-rule="evenodd" clip-rule="evenodd" d="M11.5594 10.3516C11.1175 10.3516 10.7594 10.7097 10.7594 11.1516V13.5758C10.7594 14.6709 10.36 15.7087 9.6679 16.4637C8.97798 17.2163 8.05792 17.6243 7.11493 17.6243C6.17194 17.6243 5.25188 17.2163 4.56196 16.4637C3.86991 15.7087 3.47049 14.6709 3.47049 13.5758V11.1516C3.47049 10.7097 3.11231 10.3516 2.67049 10.3516C2.22866 10.3516 1.87049 10.7097 1.87049 11.1516V13.5758C1.87049 15.0525 2.40757 16.4812 3.38251 17.5448C4.35958 18.6107 5.70044 19.2243 7.11493 19.2243C8.52942 19.2243 9.87028 18.6107 10.8474 17.5448C11.8223 16.4812 12.3594 15.0525 12.3594 13.5758V11.1516C12.3594 10.7097 12.0012 10.3516 11.5594 10.3516Z" fill="#82C182"/>
<path fill-rule="evenodd" clip-rule="evenodd" d="M19.4688 22.6672C19.4688 22.2254 19.1106 21.8672 18.6687 21.8672H13.3354C12.8936 21.8672 12.5354 22.2254 12.5354 22.6672V29.3339C12.5354 29.7757 12.8936 30.1339 13.3354 30.1339H18.6687C19.1106 30.1339 19.4688 29.7757 19.4688 29.3339V22.6672ZM17.8687 23.4672V28.5339H14.1354V23.4672H17.8687Z" fill="#82C182"/>
</svg>
