<svg width="32" height="32" viewBox="0 0 32 32" fill="none" xmlns="http://www.w3.org/2000/svg">
<path fill-rule="evenodd" clip-rule="evenodd" d="M15.3447 1.86726C15.5677 1.87027 15.7793 1.96623 15.9285 2.13202L27.9285 15.4654C28.1399 15.7002 28.1932 16.0374 28.0647 16.326C27.9361 16.6146 27.6498 16.8005 27.3339 16.8005H25.4672V18.0005C25.4672 18.4424 25.109 18.8005 24.6672 18.8005C24.2254 18.8005 23.8672 18.4424 23.8672 18.0005V16.0005C23.8672 15.5587 24.2254 15.2005 24.6672 15.2005H25.5376L15.318 3.84542L4.53066 15.2005H5.33387C5.7757 15.2005 6.13387 15.5587 6.13387 16.0005V27.2005H14.6672C15.109 27.2005 15.4672 27.5587 15.4672 28.0005C15.4672 28.4424 15.109 28.8005 14.6672 28.8005H5.33387C4.89205 28.8005 4.53387 28.4424 4.53387 28.0005V16.8005H2.66721C2.34737 16.8005 2.05826 16.61 1.93209 16.3161C1.80591 16.0222 1.86692 15.6814 2.08721 15.4495L14.7539 2.11619C14.9075 1.95449 15.1216 1.86426 15.3447 1.86726Z" fill="#82C182"/>
<path fill-rule="evenodd" clip-rule="evenodd" d="M15.8672 20.0031C15.8672 19.5613 16.2254 19.2031 16.6672 19.2031H29.3339C29.7757 19.2031 30.1339 19.5613 30.1339 20.0031V29.3365C30.1339 29.7783 29.7757 30.1365 29.3339 30.1365H16.6672C16.2254 30.1365 15.8672 29.7783 15.8672 29.3365V20.0031ZM17.4672 20.8031V28.5365H28.5339V20.8031H23.8005V22.0031C23.8005 22.445 23.4423 22.8031 23.0005 22.8031C22.5587 22.8031 22.2005 22.445 22.2005 22.0031V20.8031H17.4672Z" fill="#82C182"/>
</svg>
