<svg width="32" height="32" viewBox="0 0 32 32" fill="none" xmlns="http://www.w3.org/2000/svg">
<path fill-rule="evenodd" clip-rule="evenodd" d="M16.0031 13.2031C16.445 13.2031 16.8031 13.5613 16.8031 14.0031V14.2769C17.4728 14.3388 17.9778 14.7844 18.2874 15.2756C18.6219 15.8063 18.8031 16.4886 18.8031 17.2031C18.8031 17.645 18.445 18.0031 18.0031 18.0031C17.5613 18.0031 17.2031 17.645 17.2031 17.2031C17.2031 16.7443 17.0844 16.3676 16.9338 16.1287C16.786 15.8942 16.6692 15.8717 16.6492 15.8698H15.177C15.1583 15.8781 15.1009 15.9131 15.0222 16.0394C14.9025 16.2315 14.8031 16.5449 14.8031 16.9288C14.8031 17.4193 14.8756 17.6528 14.9336 17.7649C14.9789 17.8524 15.0385 17.9142 15.1815 17.9916L17.5893 19.2758C17.9196 19.4578 18.2546 19.7238 18.4862 20.1751C18.7054 20.6025 18.7931 21.1217 18.7931 21.7441C18.7931 22.3811 18.6325 22.9972 18.3322 23.4794C18.0397 23.949 17.5313 24.4031 16.8331 24.4031H16.8031V24.6698C16.8031 25.1116 16.445 25.4698 16.0031 25.4698C15.5613 25.4698 15.2031 25.1116 15.2031 24.6698V24.3981C14.5251 24.3456 14.0197 23.8873 13.7156 23.3999C13.384 22.8684 13.2031 22.1837 13.2031 21.4698C13.2031 21.028 13.5613 20.6698 14.0031 20.6698C14.445 20.6698 14.8031 21.028 14.8031 21.4698C14.8031 21.9292 14.9222 22.3111 15.0731 22.553C15.1476 22.6724 15.2186 22.7401 15.268 22.7738C15.2917 22.79 15.3085 22.797 15.3177 22.8001C15.3262 22.8029 15.3307 22.8031 15.3331 22.8031H16.8192C16.8379 22.7948 16.8954 22.7599 16.9741 22.6335C17.0937 22.4414 17.1931 22.128 17.1931 21.7441C17.1931 21.2541 17.1208 21.019 17.0626 20.9054C17.0171 20.8167 16.9579 20.7554 16.8213 20.6795L14.4267 19.4023L14.4232 19.4005C14.0873 19.2192 13.7472 18.9536 13.5127 18.5004C13.2907 18.0715 13.2031 17.5508 13.2031 16.9288C13.2031 16.2918 13.3637 15.6757 13.6641 15.1935C13.9566 14.7239 14.4649 14.2698 15.1631 14.2698H15.2031V14.0031C15.2031 13.5613 15.5613 13.2031 16.0031 13.2031Z" fill="#B159A0"/>
<path fill-rule="evenodd" clip-rule="evenodd" d="M16.0026 2.35856C17.1295 2.03699 18.6034 1.82439 19.9728 1.87449C20.7087 1.90142 21.4476 2.00524 22.1003 2.22939C22.7494 2.45229 23.3728 2.81537 23.7881 3.40074C23.9944 3.69161 23.9833 4.08396 23.7609 4.3627L20.0448 9.01842C21.6964 10.1172 23.3731 11.7374 24.8032 13.5724C26.4648 15.7045 27.8434 18.1905 28.4579 20.5893C29.0707 22.9813 28.9515 25.4257 27.3914 27.2736C25.8433 29.1072 23.0575 30.1338 18.8558 30.1338H13.1494C8.9477 30.1338 6.16187 29.1072 4.61378 27.2736C3.05371 25.4257 2.9345 22.9813 3.54731 20.5893C4.16185 18.1905 5.54038 15.7045 7.20203 13.5724C8.63212 11.7374 10.3088 10.1172 11.9604 9.01842L8.24436 4.3627C8.02188 4.08396 8.01078 3.69161 8.21714 3.40074C8.63243 2.81537 9.25575 2.45229 9.90487 2.22939C10.5576 2.00524 11.2965 1.90142 12.0324 1.87449C13.4018 1.82439 14.8756 2.03699 16.0026 2.35856ZM13.3636 10.0256C11.7454 10.9817 9.97948 12.6114 8.46405 14.5559C6.89357 16.5711 5.64181 18.8608 5.09725 20.9864C4.55096 23.1187 4.74381 24.9473 5.83634 26.2414C6.94083 27.5496 9.1481 28.5338 13.1494 28.5338H18.8558C22.8571 28.5338 25.0644 27.5496 26.1689 26.2414C27.2614 24.9473 27.4543 23.1187 26.908 20.9864C26.3634 18.8608 25.1116 16.5711 23.5412 14.5559C22.0257 12.6114 20.2598 10.9817 18.6416 10.0256H13.3636ZM18.4708 8.42561L22.0442 3.94857C21.9147 3.87397 21.7611 3.80461 21.5807 3.74265C21.1233 3.5856 20.5515 3.49674 19.9143 3.47342C18.6366 3.42667 17.2293 3.64754 16.2417 3.9569C16.086 4.00567 15.9191 4.00567 15.7634 3.9569C14.7758 3.64754 13.3685 3.42667 12.0909 3.47342C11.4536 3.49674 10.8819 3.5856 10.4245 3.74265C10.2441 3.8046 10.0905 3.87396 9.96098 3.94857L13.5344 8.42561H18.4708Z" fill="#B159A0"/>
</svg>
