<svg width="32" height="32" viewBox="0 0 32 32" fill="none" xmlns="http://www.w3.org/2000/svg">
<path fill-rule="evenodd" clip-rule="evenodd" d="M4.28906 7.51875C4.28906 7.07692 4.64723 6.71875 5.08906 6.71875H13.5739C14.0157 6.71875 14.3739 7.07692 14.3739 7.51875C14.3739 7.96058 14.0157 8.31875 13.5739 8.31875H5.08906C4.64723 8.31875 4.28906 7.96058 4.28906 7.51875Z" fill="#B159A0"/>
<path fill-rule="evenodd" clip-rule="evenodd" d="M4.28906 12.3625C4.28906 11.9207 4.64723 11.5625 5.08906 11.5625H17.2103C17.6521 11.5625 18.0103 11.9207 18.0103 12.3625C18.0103 12.8043 17.6521 13.1625 17.2103 13.1625H5.08906C4.64723 13.1625 4.28906 12.8043 4.28906 12.3625Z" fill="#B159A0"/>
<path fill-rule="evenodd" clip-rule="evenodd" d="M4.28906 17.2141C4.28906 16.7722 4.64723 16.4141 5.08906 16.4141H13.5739C14.0157 16.4141 14.3739 16.7722 14.3739 17.2141C14.3739 17.6559 14.0157 18.0141 13.5739 18.0141H5.08906C4.64723 18.0141 4.28906 17.6559 4.28906 17.2141Z" fill="#B159A0"/>
<path fill-rule="evenodd" clip-rule="evenodd" d="M27.0091 13.2965C26.8308 13.1178 26.5425 13.1178 26.3642 13.2965L25.9315 13.7301L27.9858 15.7888L28.4123 15.3328C28.5818 15.1517 28.5772 14.8679 28.4021 14.6924L27.0091 13.2965ZM26.8921 16.9579L24.8013 14.8627L17.9726 21.7059L17.1106 24.7291L20.0103 24.314L26.8921 16.9579ZM24.2347 13.1654L16.6937 20.7223C16.5978 20.8185 16.5279 20.9374 16.4907 21.0681L15.2338 25.4765C15.1595 25.7371 15.2222 26.0177 15.4004 26.2219C15.5787 26.4261 15.8482 26.5262 16.1165 26.4878L20.5156 25.858C20.6959 25.8322 20.862 25.7456 20.9864 25.6126L29.5807 16.4259C30.3392 15.6152 30.3189 14.3481 29.5346 13.5622L28.1417 12.1663C27.3383 11.3612 26.035 11.3612 25.2316 12.1663L24.2363 13.1638L24.2347 13.1654Z" fill="#B159A0"/>
<path fill-rule="evenodd" clip-rule="evenodd" d="M6.77654 26.5632C6.444 26.6207 6.12492 26.5397 5.85628 26.3606C5.48868 26.1155 5.38937 25.6188 5.63447 25.2512C5.83206 24.9548 6.19317 24.8328 6.51833 24.9251C6.61988 24.8106 6.75611 24.6086 6.91718 24.3011C7.21545 23.7317 7.49031 23.0227 7.74666 22.3614C7.82671 22.1549 7.90496 21.9531 7.98154 21.7616C8.12369 21.4062 8.28924 21.0096 8.46096 20.7632C8.50773 20.6961 8.58324 20.5976 8.69066 20.5106C8.79007 20.43 9.0191 20.2774 9.34045 20.3089C9.68455 20.3427 9.88908 20.5604 9.98157 20.6962C10.0712 20.8277 10.1157 20.9633 10.1401 21.0525C10.2306 21.3845 10.2533 21.922 10.2487 22.6176C10.2467 22.928 10.2386 23.2893 10.2242 23.7062C10.5941 23.3598 10.9101 23.0799 11.1778 22.8648C11.4563 22.6411 11.7291 22.4488 11.9861 22.3336C12.2018 22.2369 12.6959 22.0676 13.1438 22.4036C13.5325 22.6952 13.5752 23.1573 13.5856 23.3493C13.5994 23.6024 13.5714 23.894 13.5322 24.1833C13.5247 24.2387 13.5164 24.2964 13.5074 24.3562C13.9123 24.1127 14.3111 23.9372 14.6872 23.8536C15.1566 23.7493 15.7393 23.7604 16.2051 24.1596C16.6592 24.5487 16.7971 25.1338 16.7971 25.695C16.7971 26.1368 16.4389 26.495 15.9971 26.495C15.5552 26.495 15.1971 26.1368 15.1971 25.695C15.1971 25.5345 15.178 25.4436 15.1631 25.397C15.1354 25.3979 15.0937 25.4023 15.0342 25.4155C14.5803 25.5164 13.8052 25.988 12.9263 26.8667C12.6804 27.1126 12.3038 27.1714 11.9946 27.0123C11.6854 26.8531 11.5144 26.5125 11.5716 26.1694C11.637 25.7769 11.6997 25.4268 11.7559 25.1124C11.8057 24.8341 11.8505 24.5839 11.8877 24.3572C11.412 24.7704 10.7657 25.3907 9.89602 26.2602C9.66149 26.4947 9.30658 26.5601 9.00382 26.4248C8.70105 26.2894 8.51322 25.9812 8.53162 25.6501C8.55439 25.2402 8.57366 24.864 8.5896 24.5195C8.50637 24.7017 8.42112 24.8782 8.3345 25.0435C8.11759 25.4577 7.84353 25.9015 7.50304 26.1985C7.3268 26.3522 7.08377 26.5102 6.77654 26.5632ZM9.77368 21.6779C9.77578 21.6749 9.77551 21.6756 9.7728 21.6792L9.77368 21.6779ZM8.59705 21.4758C8.59547 21.4708 8.59542 21.4698 8.59647 21.4736L8.59705 21.4758ZM12.6644 23.7842C12.6642 23.7845 12.6597 23.7864 12.6514 23.789C12.6604 23.7852 12.6646 23.7839 12.6644 23.7842ZM11.986 23.409C11.9821 23.3938 11.9812 23.3847 11.9817 23.3839C11.9822 23.3832 11.9842 23.3908 11.986 23.409ZM15.2089 25.4007C15.2088 25.4009 15.2063 25.4005 15.2019 25.3988C15.2069 25.3996 15.2091 25.4005 15.2089 25.4007ZM6.42628 25.0123C6.42628 25.0122 6.42696 25.0118 6.42831 25.011L6.42628 25.0123Z" fill="#B159A0"/>
<path fill-rule="evenodd" clip-rule="evenodd" d="M4.00052 3.46719C3.70597 3.46719 3.46719 3.70597 3.46719 4.00052V28.0005C3.46719 28.2951 3.70597 28.5339 4.00052 28.5339H20.7278C21.0223 28.5339 21.2611 28.2951 21.2611 28.0005V23.2733C21.2611 22.8314 21.6193 22.4732 22.0611 22.4732C22.503 22.4732 22.8611 22.8314 22.8611 23.2733V28.0005C22.8611 29.1787 21.906 30.1339 20.7278 30.1339H4.00052C2.82231 30.1339 1.86719 29.1787 1.86719 28.0005V4.00052C1.86719 2.82231 2.82231 1.86719 4.00052 1.86719H16.6604C17.2262 1.86719 17.7688 2.09195 18.1689 2.49203L22.2363 6.55946C22.6364 6.95954 22.8611 7.50216 22.8611 8.06796V16.0005C22.8611 16.4424 22.503 16.8005 22.0611 16.8005C21.6193 16.8005 21.2611 16.4424 21.2611 16.0005V8.06796C21.2611 7.92651 21.2049 7.79085 21.1049 7.69083L17.0375 3.6234C16.9375 3.52338 16.8018 3.46719 16.6604 3.46719H4.00052Z" fill="#B159A0"/>
<path fill-rule="evenodd" clip-rule="evenodd" d="M17.2141 2.47656C17.6559 2.47656 18.0141 2.83473 18.0141 3.27656V6.71888L21.4565 6.71899C21.8983 6.719 22.2565 7.07718 22.2565 7.51901C22.2565 7.96084 21.8983 8.319 21.4565 8.31899L17.214 8.31885C16.7722 8.31884 16.4141 7.96067 16.4141 7.51885V3.27656C16.4141 2.83473 16.7722 2.47656 17.2141 2.47656Z" fill="#B159A0"/>
</svg>
