<svg width="32" height="32" viewBox="0 0 32 32" fill="none" xmlns="http://www.w3.org/2000/svg">
<path fill-rule="evenodd" clip-rule="evenodd" d="M6.65691 9.64985C7.10449 8.19553 8.44847 7.20312 9.97042 7.20312H22.0319C23.5539 7.20312 24.8978 8.19553 25.3454 9.64985L29.9818 24.7148C30.0835 25.045 30.1351 25.3886 30.1351 25.7341V26.6663C30.1351 28.5805 28.583 30.1323 26.6683 30.1323H5.33401C3.41934 30.1323 1.86719 28.5805 1.86719 26.6663V25.7341C1.86719 25.3886 1.91886 25.045 2.02049 24.7148L6.65691 9.64985ZM9.97042 8.80284C9.15091 8.80284 8.42723 9.33721 8.18622 10.1203L3.54981 25.1852C3.49508 25.3631 3.46726 25.5481 3.46726 25.7341V26.6663C3.46726 27.697 4.30303 28.5326 5.33401 28.5326H26.6683C27.6993 28.5326 28.5351 27.697 28.5351 26.6663V25.7341C28.5351 25.5481 28.5072 25.3631 28.4525 25.1852L23.8161 10.1203C23.5751 9.33721 22.8514 8.80284 22.0319 8.80284H9.97042Z" fill="#B159A0"/>
<path fill-rule="evenodd" clip-rule="evenodd" d="M14.1249 7.90063L14.124 7.89281L14.1201 7.85666C14.1166 7.82342 14.1117 7.77242 14.1064 7.70623C14.0957 7.57362 14.0836 7.38132 14.0788 7.14958C14.069 6.68137 14.0894 6.0742 14.2007 5.48064C14.314 4.87657 14.5085 4.35802 14.7957 4.00461C15.0555 3.68497 15.4138 3.4669 15.9978 3.4669C16.5818 3.4669 16.9401 3.68497 17.1999 4.00461C17.4871 4.35802 17.6816 4.87657 17.7949 5.48064C17.9063 6.0742 17.9266 6.68137 17.9168 7.14958C17.912 7.38132 17.8999 7.57362 17.8893 7.70623C17.884 7.77242 17.879 7.82342 17.8755 7.85666L17.8716 7.89281L17.8707 7.90021M17.8707 7.90021C17.8164 8.33823 18.1272 8.73834 18.5654 8.7931C19.0038 8.84789 19.4037 8.53697 19.4585 8.09863L18.6764 8.00089C19.4585 8.09863 19.4584 8.09891 19.4585 8.09863L19.4588 8.09573L19.4594 8.09088L19.4612 8.07544L19.467 8.0224C19.4717 7.97754 19.4778 7.91398 19.4842 7.83436C19.497 7.67535 19.511 7.45106 19.5166 7.1829C19.5276 6.65128 19.5063 5.92535 19.3676 5.18583C19.2309 4.4568 18.9671 3.64225 18.4417 2.99584C17.889 2.31566 17.0806 1.86719 15.9978 1.86719C14.9151 1.86719 14.1067 2.31566 13.5539 2.99584C13.0286 3.64225 12.7648 4.4568 12.628 5.18583C12.4893 5.92535 12.468 6.65128 12.4791 7.1829C12.4847 7.45106 12.4986 7.67535 12.5114 7.83436C12.5178 7.91398 12.5239 7.97754 12.5286 8.0224L12.5344 8.07544L12.5362 8.09088L12.5368 8.09573L12.537 8.09743C12.5371 8.09771 12.5372 8.09863 13.331 7.99942L12.537 8.09743C12.5918 8.53577 12.9918 8.84789 13.4303 8.7931C13.8686 8.73832 14.1795 8.3388 14.1249 7.90063" fill="#B159A0"/>
<path fill-rule="evenodd" clip-rule="evenodd" d="M15.9981 11.1953C16.4399 11.1953 16.7981 11.5534 16.7981 11.9952V12.5284H16.8936C17.7248 12.5444 18.3855 13.0478 18.8055 13.6723C19.2286 14.3016 19.4649 15.1233 19.4649 15.9945C19.4649 16.4362 19.1067 16.7943 18.6649 16.7943C18.223 16.7943 17.8648 16.4362 17.8648 15.9945C17.8648 15.3992 17.7011 14.8974 17.4776 14.5649C17.2535 14.2317 17.0238 14.1333 16.8683 14.1281H14.878C14.8049 14.1281 14.6374 14.1737 14.451 14.4541C14.2691 14.7279 14.1313 15.1502 14.1313 15.6517C14.1313 16.2753 14.2288 16.5953 14.325 16.7695C14.4096 16.9227 14.5295 17.0307 14.7576 17.1463C14.7581 17.1465 14.7587 17.1468 14.7592 17.1471L17.9654 18.7498C18.3694 18.9585 18.7766 19.2603 19.0617 19.7812C19.3356 20.2816 19.4516 20.9026 19.4516 21.6696C19.4516 22.4441 19.2426 23.1835 18.8645 23.7524C18.4909 24.3147 17.885 24.7929 17.1048 24.7929H16.7981V25.3261C16.7981 25.7679 16.4399 26.126 15.9981 26.126C15.5562 26.126 15.198 25.7679 15.198 25.3261V24.7929H15.1047C14.264 24.7929 13.6018 24.2761 13.187 23.653C12.7672 23.0224 12.5312 22.1973 12.5312 21.3268C12.5312 20.8851 12.8894 20.527 13.3313 20.527C13.7731 20.527 14.1313 20.8851 14.1313 21.3268C14.1313 21.9228 14.2954 22.4307 14.519 22.7667C14.7476 23.11 14.972 23.1932 15.1047 23.1932H17.1048C17.178 23.1932 17.3455 23.1476 17.5318 22.8672C17.7137 22.5934 17.8515 22.1711 17.8515 21.6696C17.8515 21.0464 17.7542 20.7247 17.658 20.5491C17.5736 20.3949 17.4552 20.2876 17.2353 20.1734L14.0402 18.5762L14.0368 18.5745C13.6259 18.3666 13.2128 18.0653 12.9243 17.5427C12.6471 17.0409 12.5312 16.4183 12.5312 15.6517C12.5312 14.8771 12.7402 14.1378 13.1183 13.5688C13.492 13.0065 14.0978 12.5284 14.878 12.5284H15.198V11.9952C15.198 11.5534 15.5562 11.1953 15.9981 11.1953Z" fill="#B159A0"/>
</svg>
