<svg width="32" height="32" viewBox="0 0 32 32" fill="none" xmlns="http://www.w3.org/2000/svg">
<path d="M4.85846 7.63703C4.65944 7.90197 4.71288 8.27809 4.97782 8.47712C5.24277 8.67615 5.61889 8.62271 5.81791 8.35776L4.85846 7.63703ZM27.1512 24.3578C27.3503 24.0928 27.2968 23.7167 27.0319 23.5177C26.7669 23.3186 26.3908 23.3721 26.1918 23.637L27.1512 24.3578ZM5.74111 23.535C5.54474 23.2681 5.16917 23.2109 4.90225 23.4073C4.63534 23.6037 4.57814 23.9792 4.77451 24.2461L5.74111 23.535ZM26.1928 8.35774C26.3918 8.6227 26.7679 8.67615 27.0328 8.47714C27.2978 8.27812 27.3512 7.902 27.1522 7.63705L26.1928 8.35774ZM5.81791 8.35776C8.14208 5.26381 11.8396 3.26406 16.0049 3.26406V2.06406C11.4461 2.06406 7.39944 4.25446 4.85846 7.63703L5.81791 8.35776ZM26.1918 23.637C23.8676 26.731 20.1701 28.7307 16.0049 28.7307V29.9307C20.5636 29.9307 24.6103 27.7403 27.1512 24.3578L26.1918 23.637ZM16.0049 28.7307C11.7938 28.7307 8.06009 26.6872 5.74111 23.535L4.77451 24.2461C7.3099 27.6924 11.396 29.9307 16.0049 29.9307V28.7307ZM16.0049 3.26406C20.1703 3.26406 23.8687 5.2636 26.1928 8.35774L27.1522 7.63705C24.6112 4.25414 20.5637 2.06406 16.0049 2.06406V3.26406Z" fill="#B159A0"/>
<path d="M26.6667 26.6667V24H24" stroke="#B159A0" stroke-width="1.2" stroke-linecap="round" stroke-linejoin="round"/>
<path d="M26.0026 17.7452C26.9691 17.7452 27.7526 16.9617 27.7526 15.9952C27.7526 15.0287 26.9691 14.2452 26.0026 14.2452C25.0362 14.2452 24.2526 15.0287 24.2526 15.9952C24.2526 16.9617 25.0362 17.7452 26.0026 17.7452Z" stroke="#B159A0" stroke-width="1.2" stroke-linecap="round" stroke-linejoin="round"/>
<path d="M28.5916 13.0712C28.7093 13.1796 28.8209 13.2912 28.9262 13.4058L30.1952 13.5871C30.4019 13.9462 30.5613 14.3305 30.6693 14.7305L29.8977 15.7577C29.8977 15.7577 29.9116 16.0738 29.8977 16.2318L30.6693 17.2591C30.5618 17.6593 30.4024 18.0437 30.1952 18.4025L28.9262 18.5838C28.9262 18.5838 28.7078 18.8115 28.5916 18.9184L28.4103 20.1874C28.0512 20.3941 27.6669 20.5535 27.2669 20.6615L26.2397 19.8899C26.0819 19.9038 25.9233 19.9038 25.7656 19.8899L24.7383 20.6615C24.3381 20.554 23.9537 20.3946 23.5949 20.1874L23.4136 18.9184C23.299 18.81 23.1874 18.6984 23.079 18.5838L21.81 18.4025C21.6033 18.0434 21.4439 17.6591 21.3359 17.2591L22.1075 16.2318C22.1075 16.2318 22.0936 15.9158 22.1075 15.7577L21.3359 14.7305C21.4434 14.3303 21.6028 13.9459 21.81 13.5871L23.079 13.4058C23.1874 13.2912 23.299 13.1796 23.4136 13.0712L23.5949 11.8022C23.954 11.5955 24.3383 11.4361 24.7383 11.3281L25.7656 12.0997C25.9233 12.0858 26.0819 12.0858 26.2397 12.0997L27.2669 11.3281C27.6671 11.4356 28.0515 11.595 28.4103 11.8022L28.5916 13.0712Z" stroke="#B159A0" stroke-width="1.2" stroke-linecap="round" stroke-linejoin="round"/>
<path d="M7.7526 14.8281L5.22306 17.1615L4.2526 15.9948M10.6693 15.9948C10.6693 18.5721 8.57993 20.6615 6.0026 20.6615C3.42528 20.6615 1.33594 18.5721 1.33594 15.9948C1.33594 13.4175 3.42528 11.3281 6.0026 11.3281C8.57993 11.3281 10.6693 13.4175 10.6693 15.9948Z" stroke="#B159A0" stroke-width="1.2" stroke-linecap="round" stroke-linejoin="round"/>
<path d="M18 16C18 17.1046 17.1046 18 16 18C14.8954 18 14 17.1046 14 16C14 14.8954 14.8954 14 16 14C17.1046 14 18 14.8954 18 16Z" fill="#B159A0"/>
<path d="M5.33594 5.32812V7.99479H8.0026" stroke="#B159A0" stroke-width="1.2" stroke-linecap="round" stroke-linejoin="round"/>
</svg>
