<svg width="32" height="32" viewBox="0 0 32 32" fill="none" xmlns="http://www.w3.org/2000/svg">
<path fill-rule="evenodd" clip-rule="evenodd" d="M5.33646 4.80313C5.04191 4.80313 4.80313 5.04191 4.80313 5.33646V28.0031C4.80313 28.2977 5.04191 28.5365 5.33646 28.5365H26.6698C26.9643 28.5365 27.2031 28.2977 27.2031 28.0031V5.33646C27.2031 5.04191 26.9643 4.80313 26.6698 4.80313H20.2384C19.7966 4.80313 19.4384 4.44495 19.4384 4.00313C19.4384 3.5613 19.7966 3.20312 20.2384 3.20312H26.6698C27.848 3.20312 28.8031 4.15825 28.8031 5.33646V28.0031C28.8031 29.1813 27.848 30.1365 26.6698 30.1365H5.33646C4.15825 30.1365 3.20312 29.1813 3.20312 28.0031V5.33646C3.20312 4.15825 4.15825 3.20312 5.33646 3.20312H11.7678C12.2097 3.20312 12.5678 3.5613 12.5678 4.00313C12.5678 4.44495 12.2097 4.80313 11.7678 4.80313H5.33646Z" fill="#B159A0"/>
<path fill-rule="evenodd" clip-rule="evenodd" d="M11.2031 2.66719C11.2031 2.22536 11.5613 1.86719 12.0031 1.86719H20.0031C20.445 1.86719 20.8031 2.22536 20.8031 2.66719V5.33385C20.8031 5.77568 20.445 6.13385 20.0031 6.13385H12.0031C11.5613 6.13385 11.2031 5.77568 11.2031 5.33385V2.66719ZM12.8031 3.46719V4.53385H19.2031V3.46719H12.8031Z" fill="#B159A0"/>
<path fill-rule="evenodd" clip-rule="evenodd" d="M8.53906 17.3313C8.53906 16.8894 8.89723 16.5312 9.33906 16.5312H22.6724C23.1142 16.5312 23.4724 16.8894 23.4724 17.3313C23.4724 17.7731 23.1142 18.1313 22.6724 18.1313H9.33906C8.89723 18.1313 8.53906 17.7731 8.53906 17.3313Z" fill="#B159A0"/>
<path fill-rule="evenodd" clip-rule="evenodd" d="M8.53906 25.3313C8.53906 24.8894 8.89723 24.5312 9.33906 24.5312H22.6724C23.1142 24.5312 23.4724 24.8894 23.4724 25.3313C23.4724 25.7731 23.1142 26.1313 22.6724 26.1313H9.33906C8.89723 26.1313 8.53906 25.7731 8.53906 25.3313Z" fill="#B159A0"/>
<path fill-rule="evenodd" clip-rule="evenodd" d="M8.53906 21.3313C8.53906 20.8894 8.89723 20.5312 9.33906 20.5312H16.0057C16.4476 20.5312 16.8057 20.8894 16.8057 21.3313C16.8057 21.7731 16.4476 22.1313 16.0057 22.1313H9.33906C8.89723 22.1313 8.53906 21.7731 8.53906 21.3313Z" fill="#B159A0"/>
<path fill-rule="evenodd" clip-rule="evenodd" d="M15.2085 7.88981C14.7602 7.96849 14.428 8.26699 14.2275 8.56874C13.9894 8.92709 13.8672 9.3761 13.8672 9.8317C13.8672 10.2508 13.9297 10.6378 14.1135 10.9707C14.3087 11.3243 14.5884 11.5233 14.8394 11.6503L16.4371 12.4492C16.4627 12.4626 16.4755 12.4714 16.4809 12.4755C16.4892 12.4926 16.5272 12.585 16.5272 12.8412C16.5272 13.0098 16.4836 13.1353 16.4439 13.2031H15.6197C15.6127 13.1947 15.6041 13.1833 15.594 13.1682C15.5312 13.0739 15.4672 12.8992 15.4672 12.6698C15.4672 12.228 15.109 11.8698 14.6672 11.8698C14.2254 11.8698 13.8672 12.228 13.8672 12.6698C13.8672 13.1738 14.0031 13.6657 14.262 14.0547C14.4638 14.3578 14.7832 14.6516 15.2055 14.7597C15.2502 15.1592 15.5891 15.4698 16.0005 15.4698C16.4043 15.4698 16.7382 15.1706 16.7927 14.7819C17.2376 14.7014 17.5674 14.4044 17.7669 14.1042C18.0049 13.7458 18.1272 13.2968 18.1272 12.8412C18.1272 12.4217 18.0645 12.0363 17.8832 11.7048C17.6906 11.3529 17.415 11.1535 17.1678 11.0257L15.5603 10.2219C15.5326 10.2078 15.5185 10.1984 15.5125 10.194C15.5037 10.1753 15.4672 10.0827 15.4672 9.8317C15.4672 9.66311 15.5108 9.53767 15.5505 9.46979H16.3764C16.3846 9.47876 16.3953 9.49208 16.4083 9.51137C16.4702 9.60346 16.5339 9.77443 16.5339 10.0031C16.5339 10.445 16.892 10.8031 17.3339 10.8031C17.7757 10.8031 18.1339 10.445 18.1339 10.0031C18.1339 9.49849 17.9975 9.00755 17.7361 8.61869C17.5307 8.31315 17.2119 8.02709 16.796 7.91715C16.7531 7.51575 16.4133 7.20312 16.0005 7.20312C15.5972 7.20312 15.2635 7.50165 15.2085 7.88981Z" fill="#B159A0"/>
</svg>
