<svg width="32" height="32" viewBox="0 0 32 32" fill="none" xmlns="http://www.w3.org/2000/svg">
<path fill-rule="evenodd" clip-rule="evenodd" d="M15.9979 8.53125C16.4397 8.53125 16.7979 8.88942 16.7979 9.33125V9.86458H16.8934C17.7245 9.88063 18.3853 10.3841 18.8052 11.0087C19.2283 11.6381 19.4646 12.4599 19.4646 13.3313C19.4646 13.7731 19.1064 14.1313 18.6646 14.1313C18.2228 14.1313 17.8646 13.7731 17.8646 13.3313C17.8646 12.7359 17.7009 12.234 17.4773 11.9014C17.2533 11.5682 17.0236 11.4698 16.8681 11.4646H14.8779C14.8048 11.4646 14.6373 11.5102 14.4509 11.7906C14.269 12.0644 14.1313 12.4868 14.1313 12.9884C14.1313 13.6121 14.2287 13.9322 14.3249 14.1065C14.4095 14.2597 14.5294 14.3677 14.7575 14.4833C14.758 14.4835 14.7586 14.4838 14.7591 14.4841L17.9652 16.0871C18.3691 16.2958 18.7763 16.5977 19.0614 17.1187C19.3353 17.6192 19.4513 18.2403 19.4513 19.0074C19.4513 19.7821 19.2423 20.5216 18.8643 21.0906C18.4906 21.653 17.8848 22.1313 17.1046 22.1313H16.7979V22.6646C16.7979 23.1064 16.4397 23.4646 15.9979 23.4646C15.5561 23.4646 15.1979 23.1064 15.1979 22.6646V22.1313H15.1046C14.2639 22.1313 13.6017 21.6144 13.1869 20.9911C12.7672 20.3605 12.5312 19.5352 12.5312 18.6646C12.5312 18.2228 12.8894 17.8646 13.3313 17.8646C13.7731 17.8646 14.1313 18.2228 14.1313 18.6646C14.1313 19.2606 14.2953 19.7687 14.5189 20.1047C14.7475 20.4481 14.9719 20.5312 15.1046 20.5312H17.1046C17.1777 20.5312 17.3452 20.4857 17.5316 20.2052C17.7135 19.9314 17.8513 19.509 17.8513 19.0074C17.8513 18.3841 17.7539 18.0624 17.6578 17.8867C17.5734 17.7325 17.455 17.6252 17.2351 17.5109L14.0401 15.9135L14.0368 15.9118C13.6258 15.7038 13.2128 15.4024 12.9242 14.8798C12.6471 14.3779 12.5312 13.7552 12.5312 12.9884C12.5312 12.2137 12.7402 11.4743 13.1182 10.9052C13.4919 10.3428 14.0977 9.86458 14.8779 9.86458H15.1979V9.33125C15.1979 8.88942 15.5561 8.53125 15.9979 8.53125Z" fill="#B159A0"/>
<path fill-rule="evenodd" clip-rule="evenodd" d="M16.0005 3.46719C15.141 3.46719 14.3025 3.55359 13.493 3.71791C13.06 3.80581 12.6377 3.52605 12.5498 3.09305C12.462 2.66005 12.7417 2.23779 13.1747 2.14989C14.0884 1.96442 15.0335 1.86719 16.0005 1.86719C23.8061 1.86719 30.1339 8.1949 30.1339 16.0005C30.1339 18.2104 29.6261 20.304 28.7201 22.1689C28.527 22.5663 28.0484 22.732 27.6509 22.5389C27.2535 22.3459 27.0879 21.8672 27.2809 21.4698C28.0834 19.818 28.5339 17.963 28.5339 16.0005C28.5339 9.07855 22.9225 3.46719 16.0005 3.46719ZM5.24274 8.08156C5.61338 8.32205 5.71889 8.81747 5.4784 9.18811C4.20614 11.1489 3.46719 13.4872 3.46719 16.0005C3.46719 22.9225 9.07855 28.5339 16.0005 28.5339C17.0837 28.5339 18.1336 28.3966 19.1344 28.139C19.5623 28.0289 19.9985 28.2865 20.1086 28.7144C20.2187 29.1423 19.9611 29.5784 19.5333 29.6885C18.4033 29.9794 17.2194 30.1339 16.0005 30.1339C8.1949 30.1339 1.86719 23.8061 1.86719 16.0005C1.86719 13.1689 2.70077 10.5294 4.13619 8.31721C4.37668 7.94657 4.8721 7.84106 5.24274 8.08156Z" fill="#B159A0"/>
<path fill-rule="evenodd" clip-rule="evenodd" d="M7.43223 2.1015C7.74465 1.78908 8.25118 1.78908 8.5636 2.1015L11.2303 4.76817C11.5427 5.08059 11.5427 5.58712 11.2303 5.89954L8.5636 8.56621C8.25118 8.87863 7.74465 8.87863 7.43223 8.56621C7.11981 8.25379 7.11981 7.74725 7.43223 7.43483L8.73321 6.13385H1.33125C0.889422 6.13385 0.53125 5.77568 0.53125 5.33385C0.53125 4.89203 0.889422 4.53385 1.33125 4.53385H8.73321L7.43223 3.23287C7.11981 2.92045 7.11981 2.41392 7.43223 2.1015Z" fill="#B159A0"/>
<path fill-rule="evenodd" clip-rule="evenodd" d="M27.4322 23.4374C27.7447 23.125 28.2512 23.125 28.5636 23.4374L31.2303 26.1041C31.5427 26.4165 31.5427 26.9231 31.2303 27.2355L28.5636 29.9021C28.2512 30.2146 27.7447 30.2146 27.4322 29.9021C27.1198 29.5897 27.1198 29.0832 27.4322 28.7708L28.7332 27.4698H21.3313C20.8894 27.4698 20.5312 27.1116 20.5312 26.6698C20.5312 26.228 20.8894 25.8698 21.3313 25.8698H28.7332L27.4322 24.5688C27.1198 24.2564 27.1198 23.7499 27.4322 23.4374Z" fill="#B159A0"/>
</svg>
