<svg width="33" height="32" viewBox="0 0 33 32" fill="none" xmlns="http://www.w3.org/2000/svg">
<path fill-rule="evenodd" clip-rule="evenodd" d="M16.7498 7.4667C14.3491 7.4667 12.3646 9.47494 12.3646 12C12.3646 14.5251 14.3491 16.5333 16.7498 16.5333C19.1506 16.5333 21.135 14.5251 21.135 12C21.135 9.47494 19.1506 7.4667 16.7498 7.4667ZM10.7646 12C10.7646 8.63406 13.4232 5.8667 16.7498 5.8667C20.0765 5.8667 22.735 8.63406 22.735 12C22.735 15.3659 20.0765 18.1333 16.7498 18.1333C13.4232 18.1333 10.7646 15.3659 10.7646 12Z" fill="#D27800"/>
<path fill-rule="evenodd" clip-rule="evenodd" d="M10.2935 16.6172C11.0082 16.4538 11.6075 16.8116 11.9533 17.0983C12.8674 17.8561 14.0493 18.2577 15.0506 18.4642C15.544 18.5659 15.9764 18.6168 16.2835 18.6421C16.4367 18.6547 16.5577 18.6609 16.6384 18.6639C16.6787 18.6654 16.7088 18.6661 16.7277 18.6665L16.7475 18.6667L16.7498 18.6668C16.7496 18.6668 16.7499 18.6668 16.7498 18.6668M16.7498 18.6668C17.1914 18.667 17.5498 19.0251 17.5498 19.4668C17.5498 19.9086 17.1916 20.2668 16.7498 20.2668V19.5161C16.7498 20.2668 16.75 20.2668 16.7498 20.2668L16.7475 20.2668L16.744 20.2667L16.7335 20.2667L16.6991 20.2662C16.6702 20.2657 16.6297 20.2647 16.5785 20.2628C16.4763 20.259 16.3313 20.2514 16.1521 20.2367C15.7946 20.2072 15.2966 20.1485 14.7275 20.0312C13.6037 19.7995 12.1321 19.3248 10.9322 18.3301C10.8412 18.2546 10.7639 18.2107 10.7081 18.1902C10.6821 18.1806 10.6656 18.1778 10.6578 18.1771C10.654 18.1768 10.6519 18.1768 10.6512 18.1769C9.97747 18.3309 9.27411 18.9062 8.78544 19.8069C8.30367 20.6949 8.08642 21.8044 8.29683 22.8745C8.50335 23.9249 9.12897 24.9801 10.4168 25.79C11.721 26.6101 13.7427 27.2 16.7498 27.2C17.1916 27.2 17.5498 27.5582 17.5498 28C17.5498 28.4419 17.1916 28.8 16.7498 28.8C13.551 28.8 11.2035 28.1747 9.56507 27.1444C7.91031 26.1038 7.01991 24.6735 6.72689 23.1832C6.43778 21.7128 6.73749 20.2265 7.37908 19.0439C8.01378 17.874 9.04117 16.9036 10.2935 16.6172" fill="#D27800"/>
<path fill-rule="evenodd" clip-rule="evenodd" d="M23.2062 16.6172C22.4916 16.4538 21.8922 16.8116 21.5464 17.0983C20.6324 17.8561 19.4504 18.2577 18.4492 18.4642C17.9558 18.5659 17.5234 18.6168 17.2162 18.6421C17.063 18.6547 16.942 18.6609 16.8614 18.6639C16.8211 18.6654 16.791 18.6661 16.772 18.6665L16.7522 18.6667L16.75 18.6668C16.7501 18.6668 16.7499 18.6668 16.75 18.6668M16.75 18.6668C16.3083 18.667 15.95 19.0251 15.95 19.4668C15.95 19.9086 16.3082 20.2668 16.75 20.2668V19.5161C16.75 20.2668 16.7498 20.2668 16.75 20.2668L16.7523 20.2668L16.7558 20.2667L16.7662 20.2667L16.8007 20.2662C16.8296 20.2657 16.8701 20.2647 16.9212 20.2628C17.0235 20.259 17.1684 20.2514 17.3476 20.2367C17.7052 20.2072 18.2032 20.1485 18.7723 20.0312C19.896 19.7995 21.3676 19.3248 22.5676 18.3301C22.6586 18.2546 22.7358 18.2107 22.7916 18.1902C22.8177 18.1806 22.8341 18.1778 22.842 18.1771C22.8458 18.1768 22.8479 18.1768 22.8486 18.1769C23.5223 18.3309 24.2256 18.9062 24.7143 19.8069C25.1961 20.6949 25.4133 21.8044 25.2029 22.8745C24.9964 23.9249 24.3708 24.9801 23.0829 25.79C21.7788 26.6101 19.757 27.2 16.75 27.2C16.3082 27.2 15.95 27.5582 15.95 28C15.95 28.4419 16.3082 28.8 16.75 28.8C19.9488 28.8 22.2962 28.1747 23.9347 27.1444C25.5894 26.1038 26.4798 24.6735 26.7729 23.1832C27.062 21.7127 26.7623 20.2265 26.1207 19.0439C25.486 17.874 24.4586 16.9036 23.2062 16.6172" fill="#D27800"/>
<path fill-rule="evenodd" clip-rule="evenodd" d="M21.1351 4.79971C20.5161 4.79971 19.9356 4.97492 19.4325 5.28426C19.0561 5.51568 18.5634 5.39817 18.332 5.0218C18.1006 4.64543 18.2181 4.15271 18.5945 3.92129C19.3387 3.46367 20.2077 3.19971 21.1351 3.19971C23.9556 3.19971 26.1654 5.60654 26.1654 8.4782C26.1654 9.74129 25.7416 10.907 25.0293 11.8201C24.7575 12.1685 24.2548 12.2306 23.9064 11.9589C23.5581 11.6871 23.496 11.1844 23.7677 10.836C24.2634 10.2006 24.5654 9.38041 24.5654 8.4782C24.5654 6.40305 22.9872 4.79971 21.1351 4.79971Z" fill="#D27800"/>
<path fill-rule="evenodd" clip-rule="evenodd" d="M26.5931 12.2715C25.8416 12.051 25.2064 12.4569 24.8768 12.725C24.4579 13.0657 23.969 13.317 23.4714 13.5002C23.0568 13.6529 22.8444 14.1127 22.9971 14.5273C23.1497 14.942 23.6096 15.1543 24.0242 15.0016C24.6416 14.7743 25.2973 14.4454 25.8864 13.9663C25.9871 13.8843 26.0677 13.8389 26.1223 13.8192C26.1376 13.8136 26.1477 13.8111 26.1535 13.81C26.7862 14.0016 27.4739 14.7314 27.789 15.8032C28.0953 16.8453 27.9916 18.0423 27.2471 19.0172C26.9789 19.3684 27.0462 19.8704 27.3973 20.1386C27.7485 20.4067 28.2505 20.3394 28.5187 19.9883C29.6263 18.5379 29.7471 16.7912 29.324 15.3519C28.9114 13.9484 27.9215 12.6612 26.5931 12.2715ZM26.1598 13.8093C26.1598 13.8092 26.1591 13.8092 26.1576 13.8094C26.159 13.8094 26.1598 13.8093 26.1598 13.8093Z" fill="#D27800"/>
<path fill-rule="evenodd" clip-rule="evenodd" d="M12.3646 4.79971C13.0167 4.79971 13.6266 4.99427 14.1482 5.33571C14.5179 5.5777 15.0137 5.47421 15.2557 5.10454C15.4977 4.73488 15.3942 4.23903 15.0246 3.99704C14.2547 3.49307 13.3423 3.19971 12.3646 3.19971C9.544 3.19971 7.33415 5.60652 7.33415 8.47818C7.33415 9.74127 7.75793 10.9069 8.4703 11.8201C8.74205 12.1685 9.24476 12.2306 9.59313 11.9588C9.9415 11.6871 10.0036 11.1844 9.73185 10.836C9.23615 10.2006 8.93415 9.38038 8.93415 8.47818C8.93415 6.40305 10.5123 4.79971 12.3646 4.79971Z" fill="#D27800"/>
<path fill-rule="evenodd" clip-rule="evenodd" d="M6.9067 12.2717C7.65818 12.0513 8.29339 12.4572 8.62296 12.7252C9.04189 13.0659 9.53077 13.3172 10.0284 13.5004C10.4431 13.6531 10.6554 14.113 10.5028 14.5276C10.3501 14.9422 9.89023 15.1545 9.47561 15.0019C8.85822 14.7746 8.20254 14.4456 7.6134 13.9665C7.51264 13.8845 7.43206 13.8392 7.37749 13.8194C7.36217 13.8138 7.35207 13.8113 7.34625 13.8103C6.71229 14.0022 6.02333 14.7345 5.70913 15.8091C5.4037 16.8537 5.51024 18.053 6.26103 19.0283C6.53055 19.3784 6.46522 19.8807 6.11512 20.1502C5.76501 20.4197 5.26271 20.3544 4.9932 20.0043C3.87643 18.5536 3.75149 16.8031 4.17342 15.3601C4.58477 13.9532 5.57589 12.6621 6.9067 12.2717ZM7.33997 13.8095C7.33995 13.8095 7.34064 13.8094 7.34214 13.8096C7.34075 13.8096 7.34 13.8096 7.33997 13.8095Z" fill="#D27800"/>
</svg>
