<svg width="33" height="32" viewBox="0 0 33 32" fill="none" xmlns="http://www.w3.org/2000/svg">
<path fill-rule="evenodd" clip-rule="evenodd" d="M27.8611 16.957C27.4193 16.957 27.0611 17.3152 27.0611 17.757V28.1207C27.0611 28.2514 27.0129 28.3642 26.946 28.4373C26.8812 28.5079 26.809 28.5329 26.75 28.5329H6.75002C6.69108 28.5329 6.61886 28.5079 6.55407 28.4373C6.48714 28.3642 6.43891 28.2514 6.43891 28.1207V17.757C6.43891 17.3152 6.08074 16.957 5.63891 16.957C5.19708 16.957 4.83891 17.3152 4.83891 17.757V28.1207C4.83891 28.633 5.0248 29.1368 5.37462 29.5184C5.72657 29.9024 6.21959 30.1329 6.75002 30.1329H26.75C27.2805 30.1329 27.7735 29.9024 28.1254 29.5184C28.4752 29.1368 28.6611 28.633 28.6611 28.1207V17.757C28.6611 17.3152 28.303 16.957 27.8611 16.957Z" fill="#D27800"/>
<path fill-rule="evenodd" clip-rule="evenodd" d="M27.0275 1.86597H6.46476C6.03435 1.86983 5.62502 2.02481 5.29643 2.29482C4.96911 2.56379 4.74014 2.93101 4.63043 3.3352L4.62841 3.34263L2.64234 10.9487C2.57973 11.1885 2.63177 11.4438 2.78326 11.6399C2.93475 11.836 3.16857 11.9509 3.41638 11.9509H30.083C30.3309 11.9509 30.5647 11.836 30.7162 11.6399C30.8677 11.4438 30.9197 11.1885 30.8571 10.9487L28.869 3.33519C28.7593 2.931 28.5303 2.56378 28.203 2.29482C27.8744 2.02481 27.4651 1.86986 27.0347 1.866L27.0275 1.86597ZM27.0226 3.46597C27.0737 3.46694 27.1315 3.48527 27.1872 3.531C27.2444 3.57801 27.2967 3.65279 27.3241 3.75146L29.0473 10.3509H4.4521L6.17456 3.75432C6.17481 3.7534 6.17506 3.75249 6.17531 3.75158C6.20269 3.65284 6.25501 3.57803 6.31223 3.531C6.36788 3.48527 6.42571 3.46694 6.47683 3.46597H27.0226Z" fill="#D27800"/>
<path fill-rule="evenodd" clip-rule="evenodd" d="M30.0833 10.3503C29.6415 10.3503 29.2833 10.7085 29.2833 11.1503V13.5746C29.2833 14.6697 28.8839 15.7075 28.1918 16.4624C27.5019 17.2151 26.5818 17.6231 25.6389 17.6231C24.6959 17.6231 23.7758 17.2151 23.0859 16.4624C22.3938 15.7075 21.9944 14.6697 21.9944 13.5746V11.1503C21.9944 10.7085 21.6362 10.3503 21.1944 10.3503C20.7526 10.3503 20.3944 10.7085 20.3944 11.1503V13.5746C20.3944 15.0513 20.9315 16.48 21.9064 17.5436C22.8835 18.6095 24.2244 19.2231 25.6389 19.2231C27.0533 19.2231 28.3942 18.6095 29.3713 17.5436C30.3462 16.48 30.8833 15.0513 30.8833 13.5746V11.1503C30.8833 10.7085 30.5251 10.3503 30.0833 10.3503Z" fill="#D27800"/>
<path fill-rule="evenodd" clip-rule="evenodd" d="M21.1946 10.3503C20.7528 10.3503 20.3946 10.7085 20.3946 11.1503V13.5746C20.3946 14.6697 19.9952 15.7075 19.3032 16.4624C18.6132 17.2151 17.6932 17.6231 16.7502 17.6231C15.8072 17.6231 14.8871 17.2151 14.1972 16.4624C13.5052 15.7075 13.1057 14.6697 13.1057 13.5746V11.1503C13.1057 10.7085 12.7476 10.3503 12.3057 10.3503C11.8639 10.3503 11.5057 10.7085 11.5057 11.1503V13.5746C11.5057 15.0513 12.0428 16.48 13.0178 17.5436C13.9948 18.6095 15.3357 19.2231 16.7502 19.2231C18.1647 19.2231 19.5055 18.6095 20.4826 17.5436C21.4575 16.48 21.9946 15.0513 21.9946 13.5746V11.1503C21.9946 10.7085 21.6365 10.3503 21.1946 10.3503Z" fill="#D27800"/>
<path fill-rule="evenodd" clip-rule="evenodd" d="M12.3055 10.3503C11.8636 10.3503 11.5055 10.7085 11.5055 11.1503V13.5746C11.5055 14.6697 11.106 15.7075 10.414 16.4624C9.72408 17.2151 8.80402 17.6231 7.86102 17.6231C6.91803 17.6231 5.99797 17.2151 5.30805 16.4624C4.616 15.7075 4.21658 14.6697 4.21658 13.5746V11.1503C4.21658 10.7085 3.85841 10.3503 3.41658 10.3503C2.97475 10.3503 2.61658 10.7085 2.61658 11.1503V13.5746C2.61658 15.0513 3.15367 16.48 4.1286 17.5436C5.10568 18.6095 6.44654 19.2231 7.86102 19.2231C9.27551 19.2231 10.6164 18.6095 11.5934 17.5436C12.5684 16.48 13.1055 15.0513 13.1055 13.5746V11.1503C13.1055 10.7085 12.7473 10.3503 12.3055 10.3503Z" fill="#D27800"/>
<path fill-rule="evenodd" clip-rule="evenodd" d="M20.2166 22.666C20.2166 22.2241 19.8584 21.866 19.4166 21.866H14.0832C13.6414 21.866 13.2832 22.2241 13.2832 22.666V29.3326C13.2832 29.7745 13.6414 30.1326 14.0832 30.1326H19.4166C19.8584 30.1326 20.2166 29.7745 20.2166 29.3326V22.666ZM18.6166 23.466V28.5326H14.8832V23.466H18.6166Z" fill="#D27800"/>
</svg>
