<svg width="33" height="32" viewBox="0 0 33 32" fill="none" xmlns="http://www.w3.org/2000/svg">
<path fill-rule="evenodd" clip-rule="evenodd" d="M2.1167 17.3334C2.1167 16.8916 2.47487 16.5334 2.9167 16.5334H14.9167C15.3585 16.5334 15.7167 16.8916 15.7167 17.3334V29.3334C15.7167 29.7753 15.3585 30.1334 14.9167 30.1334H2.9167C2.47487 30.1334 2.1167 29.7753 2.1167 29.3334V17.3334ZM3.7167 18.1334V28.5334H14.1167V18.1334H3.7167Z" fill="#008A5A"/>
<path fill-rule="evenodd" clip-rule="evenodd" d="M16.1167 20C16.1167 19.5581 16.4749 19.2 16.9167 19.2H29.5834C30.0252 19.2 30.3834 19.5581 30.3834 20V29.3333C30.3834 29.7751 30.0252 30.1333 29.5834 30.1333H16.9167C16.4749 30.1333 16.1167 29.7751 16.1167 29.3333C16.1167 28.8915 16.4749 28.5333 16.9167 28.5333H28.7834V20.8H16.9167C16.4749 20.8 16.1167 20.4418 16.1167 20Z" fill="#008A5A"/>
<path fill-rule="evenodd" clip-rule="evenodd" d="M8.91707 16.5334C9.3589 16.5334 9.71707 16.8916 9.71707 17.3334V20.0001C9.71707 20.4419 9.3589 20.8001 8.91707 20.8001C8.47525 20.8001 8.11707 20.4419 8.11707 20.0001V17.3334C8.11707 16.8916 8.47525 16.5334 8.91707 16.5334Z" fill="#008A5A"/>
<path fill-rule="evenodd" clip-rule="evenodd" d="M22.9167 19.2C23.3585 19.2 23.7167 19.5581 23.7167 20V22.6666C23.7167 23.1084 23.3585 23.4666 22.9167 23.4666C22.4749 23.4666 22.1167 23.1084 22.1167 22.6666V20C22.1167 19.5581 22.4749 19.2 22.9167 19.2Z" fill="#008A5A"/>
<path fill-rule="evenodd" clip-rule="evenodd" d="M11.45 10.6667C11.45 10.2249 11.8081 9.8667 12.25 9.8667H25.5833C26.0251 9.8667 26.3833 10.2249 26.3833 10.6667V18C26.3833 18.4419 26.0251 18.8 25.5833 18.8C25.1415 18.8 24.7833 18.4419 24.7833 18V11.4667H13.05V15.3334C13.05 15.7752 12.6918 16.1334 12.25 16.1334C11.8081 16.1334 11.45 15.7752 11.45 15.3334V10.6667Z" fill="#008A5A"/>
<path fill-rule="evenodd" clip-rule="evenodd" d="M18.9167 9.8667C19.3585 9.8667 19.7167 10.2249 19.7167 10.6667V13.3334C19.7167 13.7752 19.3585 14.1334 18.9167 14.1334C18.4749 14.1334 18.1167 13.7752 18.1167 13.3334V10.6667C18.1167 10.2249 18.4749 9.8667 18.9167 9.8667Z" fill="#008A5A"/>
<path fill-rule="evenodd" clip-rule="evenodd" d="M4.78345 2.6667C4.78345 2.22487 5.14162 1.8667 5.58345 1.8667H20.2501C20.6919 1.8667 21.0501 2.22487 21.0501 2.6667V8.6667C21.0501 9.10853 20.6919 9.4667 20.2501 9.4667C19.8083 9.4667 19.4501 9.10853 19.4501 8.6667V3.4667H6.38345V15.3334C6.38345 15.7752 6.02528 16.1334 5.58345 16.1334C5.14162 16.1334 4.78345 15.7752 4.78345 15.3334V2.6667Z" fill="#008A5A"/>
<path fill-rule="evenodd" clip-rule="evenodd" d="M12.9167 1.8667C13.3585 1.8667 13.7167 2.22487 13.7167 2.6667V4.6667C13.7167 5.10853 13.3585 5.4667 12.9167 5.4667C12.4749 5.4667 12.1167 5.10853 12.1167 4.6667V2.6667C12.1167 2.22487 12.4749 1.8667 12.9167 1.8667Z" fill="#008A5A"/>
</svg>
