<svg width="33" height="32" viewBox="0 0 33 32" fill="none" xmlns="http://www.w3.org/2000/svg">
<path fill-rule="evenodd" clip-rule="evenodd" d="M16.1844 2.10101C16.4968 1.78859 17.0033 1.78859 17.3157 2.10101L30.6491 15.4343C30.8779 15.6631 30.9463 16.0072 30.8225 16.3062C30.6987 16.6051 30.407 16.8 30.0834 16.8H28.2167V29.3334C28.2167 29.7752 27.8586 30.1334 27.4167 30.1334H6.08339C5.64156 30.1334 5.28339 29.7752 5.28339 29.3334V16.8H3.41672C3.09315 16.8 2.80144 16.6051 2.67762 16.3062C2.55379 16.0072 2.62224 15.6631 2.85104 15.4343L16.1844 2.10101ZM5.34809 15.2H6.08339C6.52522 15.2 6.88339 15.5582 6.88339 16V28.5334H26.6167V16C26.6167 15.5582 26.9749 15.2 27.4167 15.2H28.152L16.7501 3.79807L5.34809 15.2Z" fill="#0E49B5"/>
<path fill-rule="evenodd" clip-rule="evenodd" d="M9.0835 21.0208L10.109 20.2516L11.0835 20.9013V26.8333C11.0835 27.1094 10.8596 27.3333 10.5835 27.3333H9.5835C9.30735 27.3333 9.0835 27.1094 9.0835 26.8333V21.0208ZM18.4846 18.843C18.5165 18.8366 18.5496 18.8333 18.5835 18.8333H18.896L18.8078 18.9508L18.4846 18.843ZM20.0835 19.7499V26.8333C20.0835 27.1094 19.8596 27.3333 19.5835 27.3333H18.5835C18.3074 27.3333 18.0835 27.1094 18.0835 26.8333V20.2905L18.8463 20.5448C19.1526 20.6468 19.4898 20.5415 19.6835 20.2833L20.0835 19.7499ZM17.0835 19.9572V26.8333C17.0835 27.1094 16.8596 27.3333 16.5835 27.3333H15.5835C15.3074 27.3333 15.0835 27.1094 15.0835 26.8333V20.6429L16.2427 19.6769L17.0835 19.9572ZM14.0835 21.4762V26.8333C14.0835 27.1094 13.8596 27.3333 13.5835 27.3333H12.5835C12.3074 27.3333 12.0835 27.1094 12.0835 26.8333V21.568L12.6675 21.9573C12.9438 22.1415 13.3085 22.1221 13.5636 21.9094L14.0835 21.4762Z" fill="#0E49B5"/>
<path fill-rule="evenodd" clip-rule="evenodd" d="M18.5835 17.8333C18.5835 17.5571 18.8074 17.3333 19.0835 17.3333H20.5835C20.7987 17.3333 20.9898 17.471 21.0579 17.6751L21.5579 19.1751C21.6452 19.4371 21.5036 19.7203 21.2416 19.8076C20.9797 19.8949 20.6965 19.7533 20.6092 19.4914L20.411 18.8967L19.4835 20.1333C19.3544 20.3054 19.1296 20.3757 18.9254 20.3076L16.1896 19.3957L13.4036 21.7174C13.2335 21.8591 12.9904 21.8721 12.8062 21.7493L10.1005 19.9455L8.38353 21.2333C8.16261 21.3989 7.84921 21.3542 7.68353 21.1333C7.51784 20.9123 7.56261 20.5989 7.78353 20.4333L9.78353 18.9333C9.95312 18.8061 10.1845 18.7996 10.3609 18.9172L13.0502 20.7101L15.7634 18.4491C15.8965 18.3383 16.0774 18.3042 16.2416 18.3589L18.8998 19.2449L19.5835 18.3333H19.0835C18.8074 18.3333 18.5835 18.1094 18.5835 17.8333Z" fill="#0E49B5"/>
</svg>
