<svg width="29" height="30" viewBox="0 0 29 30" fill="none" xmlns="http://www.w3.org/2000/svg">
<path fill-rule="evenodd" clip-rule="evenodd" d="M13.3443 1.08523C13.6246 0.940716 13.9366 0.867188 14.25 0.867188C14.5635 0.867188 14.8755 0.940716 15.1558 1.08523L27.3775 7.26216C27.667 7.40986 27.9187 7.62902 28.0993 7.90599C28.2804 8.18387 28.3813 8.50749 28.3834 8.84352L28.3834 8.84831L28.3834 21.1527L28.3834 21.1575C28.3813 21.4936 28.2804 21.8172 28.0993 22.0951C27.9187 22.372 27.667 22.5912 27.3775 22.7389L27.3748 22.7403L15.1557 28.9159C14.8754 29.0603 14.5635 29.1339 14.25 29.1339C13.9352 29.1339 13.6218 29.0597 13.3405 28.9138C13.3403 28.9138 13.3406 28.9139 13.3405 28.9138L1.12255 22.5867C1.12173 22.5862 1.12091 22.5858 1.1201 22.5854C0.831675 22.4377 0.580807 22.219 0.400761 21.9428C0.219616 21.665 0.118722 21.3413 0.116714 21.0053L0.116699 21.0005V8.84352C0.118708 8.50749 0.219615 8.18387 0.400761 7.90599C0.581316 7.62902 0.833094 7.40986 1.12255 7.26217L1.12529 7.26077L13.3443 1.08523ZM14.25 2.46719C14.1848 2.46719 14.1247 2.48286 14.0767 2.50773L14.0692 2.51163L1.84974 8.68737C1.8494 8.68754 1.85008 8.68719 1.84974 8.68737C1.79575 8.71512 1.76039 8.75017 1.74112 8.77975C1.7227 8.80799 1.71704 8.83261 1.7167 8.85187V20.997C1.71704 21.0162 1.7227 21.0408 1.74112 21.0691C1.76051 21.0988 1.79517 21.1336 1.84974 21.1615L1.85403 21.1637L14.0763 27.4931C14.1242 27.5179 14.1848 27.5339 14.25 27.5339C14.3153 27.5339 14.3754 27.5182 14.4233 27.4933L14.4308 27.4894L26.6503 21.3137C26.6499 21.3139 26.6507 21.3135 26.6503 21.3137C26.7042 21.2859 26.7397 21.2508 26.7589 21.2213C26.7773 21.1931 26.783 21.1685 26.7834 21.1492V8.85182C26.783 8.83257 26.7773 8.80797 26.7589 8.77975C26.7397 8.75019 26.7054 8.71567 26.6514 8.68792C26.651 8.68773 26.6518 8.6881 26.6514 8.68792L14.4233 2.50777C14.3753 2.4829 14.3153 2.46719 14.25 2.46719Z" fill="#5C00FF"/>
<path fill-rule="evenodd" clip-rule="evenodd" d="M0.353915 7.9783C0.551769 7.58325 1.03241 7.42339 1.42747 7.62125L14.3714 14.104L27.0666 7.62401C27.4602 7.42314 27.942 7.57932 28.1429 7.97285C28.3437 8.36638 28.1876 8.84823 27.794 9.0491L14.7385 15.713C14.5119 15.8286 14.2439 15.8296 14.0165 15.7157L0.71097 9.05186C0.315919 8.854 0.15606 8.37336 0.353915 7.9783Z" fill="#5C00FF"/>
<path fill-rule="evenodd" clip-rule="evenodd" d="M14.3825 14.2005C14.8243 14.2046 15.1791 14.5661 15.1749 15.0079L15.0499 28.3357C15.0458 28.7775 14.6843 29.1323 14.2424 29.1281C13.8006 29.124 13.4458 28.7625 13.45 28.3207L13.575 14.9929C13.5791 14.5511 13.9406 14.1963 14.3825 14.2005Z" fill="#5C00FF"/>
<path fill-rule="evenodd" clip-rule="evenodd" d="M7.54218 4.628C7.74796 4.23702 8.23173 4.08689 8.62271 4.29267L21.2894 10.9593C21.5522 11.0977 21.7168 11.3702 21.7168 11.6673V14.3339C21.7168 14.7758 21.3586 15.1339 20.9168 15.1339C20.475 15.1339 20.1168 14.7758 20.1168 14.3339V12.1503L7.87752 5.70854C7.48653 5.50276 7.3364 5.01899 7.54218 4.628Z" fill="#5C00FF"/>
</svg>


