<svg width="33" height="32" viewBox="0 0 33 32" fill="none" xmlns="http://www.w3.org/2000/svg">
<path fill-rule="evenodd" clip-rule="evenodd" d="M14.8279 6.56576C9.61919 7.10109 5.55634 11.5023 5.55634 16.8525C5.55634 22.5638 10.1863 27.1938 15.8977 27.1938C21.2479 27.1938 25.6491 23.131 26.1844 17.9223H15.8977C15.3069 17.9223 14.8279 17.4433 14.8279 16.8525V6.56576ZM3.41675 16.8525C3.41675 9.95942 9.00466 4.37151 15.8977 4.37151C16.4885 4.37151 16.9675 4.85047 16.9675 5.44131V15.7827H27.3089C27.8997 15.7827 28.3787 16.2616 28.3787 16.8525C28.3787 23.7455 22.7907 29.3334 15.8977 29.3334C9.00466 29.3334 3.41675 23.7455 3.41675 16.8525Z" fill="#0E49B5"/>
<path fill-rule="evenodd" clip-rule="evenodd" d="M20.8901 4.97579V11.8601H27.7744C26.9713 8.45898 24.2912 5.77889 20.8901 4.97579ZM20.1741 2.67645C25.3381 3.31908 29.4311 7.41211 30.0737 12.5761C30.171 13.3579 29.523 13.9997 28.7353 13.9997H19.4637C19.0698 13.9997 18.7505 13.6804 18.7505 13.2865V4.01491C18.7505 3.22713 19.3923 2.57916 20.1741 2.67645Z" fill="#0E49B5"/>
</svg>
