<svg width="33" height="32" viewBox="0 0 33 32" fill="none" xmlns="http://www.w3.org/2000/svg">
<path fill-rule="evenodd" clip-rule="evenodd" d="M27.3611 16.957C26.9193 16.957 26.5611 17.3152 26.5611 17.757V28.1207C26.5611 28.2514 26.5129 28.3642 26.446 28.4373C26.3812 28.5079 26.309 28.5329 26.25 28.5329H6.25002C6.19108 28.5329 6.11886 28.5079 6.05407 28.4373C5.98714 28.3642 5.93891 28.2514 5.93891 28.1207V17.757C5.93891 17.3152 5.58074 16.957 5.13891 16.957C4.69708 16.957 4.33891 17.3152 4.33891 17.757V28.1207C4.33891 28.633 4.5248 29.1368 4.87462 29.5184C5.22657 29.9024 5.71959 30.1329 6.25002 30.1329H26.25C26.7805 30.1329 27.2735 29.9024 27.6254 29.5184C27.9752 29.1368 28.1611 28.633 28.1611 28.1207V17.757C28.1611 17.3152 27.803 16.957 27.3611 16.957Z" fill="#008A5A"/>
<path fill-rule="evenodd" clip-rule="evenodd" d="M26.5275 1.86597H5.96476C5.53435 1.86983 5.12502 2.02481 4.79643 2.29482C4.46911 2.56379 4.24014 2.93101 4.13043 3.3352L4.12841 3.34263L2.14234 10.9487C2.07973 11.1885 2.13177 11.4438 2.28326 11.6399C2.43475 11.836 2.66857 11.9509 2.91638 11.9509H29.583C29.8309 11.9509 30.0647 11.836 30.2162 11.6399C30.3677 11.4438 30.4197 11.1885 30.3571 10.9487L28.369 3.33519C28.2593 2.931 28.0303 2.56378 27.703 2.29482C27.3744 2.02481 26.9651 1.86986 26.5347 1.866L26.5275 1.86597ZM26.5226 3.46597C26.5737 3.46694 26.6315 3.48527 26.6872 3.531C26.7444 3.57801 26.7967 3.65279 26.8241 3.75146L28.5473 10.3509H3.9521L5.67456 3.75432C5.67481 3.7534 5.67506 3.75249 5.67531 3.75158C5.70269 3.65284 5.75501 3.57803 5.81223 3.531C5.86788 3.48527 5.92571 3.46694 5.97683 3.46597H26.5226Z" fill="#008A5A"/>
<path fill-rule="evenodd" clip-rule="evenodd" d="M29.5833 10.3503C29.1415 10.3503 28.7833 10.7085 28.7833 11.1503V13.5746C28.7833 14.6697 28.3839 15.7075 27.6918 16.4624C27.0019 17.2151 26.0818 17.6231 25.1389 17.6231C24.1959 17.6231 23.2758 17.2151 22.5859 16.4624C21.8938 15.7075 21.4944 14.6697 21.4944 13.5746V11.1503C21.4944 10.7085 21.1362 10.3503 20.6944 10.3503C20.2526 10.3503 19.8944 10.7085 19.8944 11.1503V13.5746C19.8944 15.0513 20.4315 16.48 21.4064 17.5436C22.3835 18.6095 23.7244 19.2231 25.1389 19.2231C26.5533 19.2231 27.8942 18.6095 28.8713 17.5436C29.8462 16.48 30.3833 15.0513 30.3833 13.5746V11.1503C30.3833 10.7085 30.0251 10.3503 29.5833 10.3503Z" fill="#008A5A"/>
<path fill-rule="evenodd" clip-rule="evenodd" d="M20.6946 10.3503C20.2528 10.3503 19.8946 10.7085 19.8946 11.1503V13.5746C19.8946 14.6697 19.4952 15.7075 18.8032 16.4624C18.1132 17.2151 17.1932 17.6231 16.2502 17.6231C15.3072 17.6231 14.3871 17.2151 13.6972 16.4624C13.0052 15.7075 12.6057 14.6697 12.6057 13.5746V11.1503C12.6057 10.7085 12.2476 10.3503 11.8057 10.3503C11.3639 10.3503 11.0057 10.7085 11.0057 11.1503V13.5746C11.0057 15.0513 11.5428 16.48 12.5178 17.5436C13.4948 18.6095 14.8357 19.2231 16.2502 19.2231C17.6647 19.2231 19.0055 18.6095 19.9826 17.5436C20.9575 16.48 21.4946 15.0513 21.4946 13.5746V11.1503C21.4946 10.7085 21.1365 10.3503 20.6946 10.3503Z" fill="#008A5A"/>
<path fill-rule="evenodd" clip-rule="evenodd" d="M11.8055 10.3503C11.3636 10.3503 11.0055 10.7085 11.0055 11.1503V13.5746C11.0055 14.6697 10.606 15.7075 9.914 16.4624C9.22408 17.2151 8.30402 17.6231 7.36102 17.6231C6.41803 17.6231 5.49797 17.2151 4.80805 16.4624C4.116 15.7075 3.71658 14.6697 3.71658 13.5746V11.1503C3.71658 10.7085 3.35841 10.3503 2.91658 10.3503C2.47475 10.3503 2.11658 10.7085 2.11658 11.1503V13.5746C2.11658 15.0513 2.65367 16.48 3.6286 17.5436C4.60568 18.6095 5.94654 19.2231 7.36102 19.2231C8.77551 19.2231 10.1164 18.6095 11.0934 17.5436C12.0684 16.48 12.6055 15.0513 12.6055 13.5746V11.1503C12.6055 10.7085 12.2473 10.3503 11.8055 10.3503Z" fill="#008A5A"/>
<path fill-rule="evenodd" clip-rule="evenodd" d="M19.7166 22.666C19.7166 22.2241 19.3584 21.866 18.9166 21.866H13.5832C13.1414 21.866 12.7832 22.2241 12.7832 22.666V29.3326C12.7832 29.7745 13.1414 30.1326 13.5832 30.1326H18.9166C19.3584 30.1326 19.7166 29.7745 19.7166 29.3326V22.666ZM18.1166 23.466V28.5326H14.3832V23.466H18.1166Z" fill="#008A5A"/>
</svg>
