<svg width="33" height="32" viewBox="0 0 33 32" fill="none" xmlns="http://www.w3.org/2000/svg">
<path fill-rule="evenodd" clip-rule="evenodd" d="M16.6269 3.90855C16.4186 3.70027 16.0809 3.70027 15.8727 3.90855L5.71645 14.0648V27.7334C5.71645 28.0279 5.95524 28.2667 6.24979 28.2667H26.2498C26.5443 28.2667 26.7831 28.0279 26.7831 27.7334V14.0648L16.6269 3.90855ZM28.3831 15.6648L29.0174 16.2991C29.3299 16.6115 29.8364 16.6115 30.1488 16.2991C30.4612 15.9867 30.4612 15.4801 30.1488 15.1677L17.7583 2.77718C16.9252 1.94406 15.5744 1.94406 14.7413 2.77718L2.35077 15.1677C2.03835 15.4801 2.03835 15.9867 2.35077 16.2991C2.66319 16.6115 3.16972 16.6115 3.48214 16.2991L4.11645 15.6648V27.7334C4.11645 28.9116 5.07158 29.8667 6.24979 29.8667H26.2498C27.428 29.8667 28.3831 28.9116 28.3831 27.7334V15.6648Z" fill="#5C00FF"/>
<path fill-rule="evenodd" clip-rule="evenodd" d="M11.5226 12.5332C11.5226 12.0913 11.8754 11.7332 12.3105 11.7332H20.1893C20.6244 11.7332 20.9772 12.0913 20.9772 12.5332V19.7332H24.1287C24.5638 19.7332 24.9166 20.0913 24.9166 20.5332V28.5332C24.9166 28.975 24.5638 29.3332 24.1287 29.3332C23.6936 29.3332 23.3408 28.975 23.3408 28.5332V21.3332H22.2903V23.1998C22.2903 23.6417 21.9376 23.9998 21.5024 23.9998H18.8762C18.441 23.9998 18.0883 23.6417 18.0883 23.1998V21.3332H17.0378V28.5332C17.0378 28.975 16.6851 29.3332 16.2499 29.3332C15.8148 29.3332 15.462 28.975 15.462 28.5332V21.3332H14.4115V23.1998C14.4115 23.6417 14.0588 23.9998 13.6237 23.9998H10.9974C10.5623 23.9998 10.2095 23.6417 10.2095 23.1998V21.3332H9.15901V28.5332C9.15901 28.975 8.80626 29.3332 8.37113 29.3332C7.936 29.3332 7.58325 28.975 7.58325 28.5332V20.5332C7.58325 20.0913 7.936 19.7332 8.37113 19.7332H11.5226V12.5332ZM11.7853 21.3332H12.8358V22.3998H11.7853V21.3332ZM13.0984 19.7332V13.3332H14.1489V15.1998C14.1489 15.6416 14.5017 15.9998 14.9368 15.9998H17.563C17.9982 15.9998 18.3509 15.6416 18.3509 15.1998V13.3332H19.4014V19.7332H13.0984ZM19.6641 21.3332V22.3998H20.7146V21.3332H19.6641ZM16.7752 13.3332H15.7247V14.3998H16.7752V13.3332Z" fill="#5C00FF"/>
</svg>
