<svg width="20" height="20" viewBox="0 0 20 20" fill="none" xmlns="http://www.w3.org/2000/svg">
<path fill-rule="evenodd" clip-rule="evenodd" d="M9.89119 1.03458C7.66888 1.03458 5.83611 2.90099 5.83611 5.24244C5.83611 7.58388 7.66888 9.45029 9.89119 9.45029C12.1135 9.45029 13.9463 7.58388 13.9463 5.24244C13.9463 2.90099 12.1135 1.03458 9.89119 1.03458ZM4.79834 5.24244C4.79834 2.36463 7.06123 0 9.89119 0C12.7211 0 14.984 2.36463 14.984 5.24244C14.984 8.12025 12.7211 10.4849 9.89119 10.4849C7.06123 10.4849 4.79834 8.12025 4.79834 5.24244Z" fill="#707070"/>
<path fill-rule="evenodd" clip-rule="evenodd" d="M2.4016 12.5674C1.66531 14.1121 1.56982 15.9457 2.9173 17.1389C3.53253 17.6836 4.48094 18.136 5.65433 18.455C6.82038 18.7721 8.1721 18.9476 9.55911 18.9642C12.3554 18.9977 15.1836 18.3859 16.8993 17.1109C17.6991 16.5164 18.046 15.7781 18.1156 15.009C18.1869 14.2221 17.9683 13.3762 17.5811 12.6129C17.1934 11.8487 16.6591 11.212 16.1565 10.8384C15.9045 10.651 15.6845 10.5478 15.5152 10.5107C15.3536 10.4753 15.2691 10.5044 15.2188 10.5394L15.2072 10.5474L15.1953 10.5547C13.0472 11.8787 11.2762 12.519 9.56995 12.4825C7.85969 12.4459 6.30321 11.7311 4.58505 10.5394C4.49208 10.4749 4.22781 10.4242 3.72253 10.8183C3.25802 11.1806 2.76461 11.8058 2.4016 12.5674ZM3.08302 10.0035C3.65926 9.554 4.47943 9.20574 5.17775 9.69011C6.82424 10.8322 8.17818 11.4179 9.59222 11.4482C11.0079 11.4785 12.5722 10.9537 14.6392 9.68115C14.9814 9.44987 15.3751 9.42075 15.7378 9.5002C16.0975 9.57897 16.4518 9.76739 16.7768 10.0089C17.4284 10.4932 18.0593 11.2633 18.5071 12.1459C18.9554 13.0295 19.2426 14.0707 19.1492 15.1021C19.0542 16.1513 18.566 17.1626 17.5195 17.9403C15.5425 19.4096 12.4478 20.0335 9.54663 19.9987C8.0849 19.9812 6.64425 19.7966 5.38126 19.4531C4.12562 19.1117 3.00832 18.6032 2.22814 17.9124C0.373863 16.2705 0.641427 13.8497 1.46427 12.1234C1.88083 11.2494 2.46601 10.4848 3.08302 10.0035Z" fill="#707070"/>
</svg>
