<svg width="20" height="21" viewBox="0 0 20 21" fill="none" xmlns="http://www.w3.org/2000/svg">
<path fill-rule="evenodd" clip-rule="evenodd" d="M4.2251 0.551856C4.2251 0.247074 4.49107 0 4.81916 0H11.8186C12.1467 0 12.4127 0.247074 12.4127 0.551856C12.4127 0.856638 12.1467 1.10371 11.8186 1.10371H4.81916C4.49107 1.10371 4.2251 0.856638 4.2251 0.551856Z" fill="#707070"/>
<path fill-rule="evenodd" clip-rule="evenodd" d="M4.75843 0.000103345C4.77891 0.000151259 4.79881 0.000197803 4.81805 0.000197803C5.14614 0.000197803 5.41211 0.247272 5.41211 0.552054C5.41211 0.856836 5.14614 1.10391 4.81805 1.10391C4.32887 1.10391 4.0987 1.1226 3.952 1.21647C3.86512 1.27206 3.66224 1.4586 3.66224 2.23158C3.66224 2.53636 3.39627 2.78344 3.06818 2.78344C2.74009 2.78344 2.47412 2.53636 2.47412 2.23158C2.47412 1.32504 2.70871 0.67181 3.27803 0.307519C3.76211 -0.00222736 4.3683 -0.000809277 4.75843 0.000103345Z" fill="#707070"/>
<path fill-rule="evenodd" clip-rule="evenodd" d="M3.06818 1.68042C3.39627 1.68042 3.66224 1.92749 3.66224 2.23228V17.7637C3.66224 18.0684 3.39627 18.3155 3.06818 18.3155C2.74009 18.3155 2.47412 18.0684 2.47412 17.7637V2.23228C2.47412 1.92749 2.74009 1.68042 3.06818 1.68042Z" fill="#707070"/>
<path fill-rule="evenodd" clip-rule="evenodd" d="M3.06837 17.218C3.39646 17.218 3.66243 17.4651 3.66243 17.7699C3.66243 18.2369 3.68103 18.4738 3.78627 18.6253C3.84472 18.7095 4.02866 18.8975 4.81824 18.8975C5.14633 18.8975 5.4123 19.1446 5.4123 19.4494C5.4123 19.7542 5.14633 20.0013 4.81824 20.0013C3.85795 20.0013 3.16696 19.7694 2.78794 19.2237C2.47198 18.7689 2.47333 18.2013 2.47422 17.8263C2.47427 17.8069 2.47431 17.7881 2.47431 17.7699C2.47431 17.4651 2.74028 17.218 3.06837 17.218Z" fill="#707070"/>
<path fill-rule="evenodd" clip-rule="evenodd" d="M4.2251 19.4432C4.2251 19.1384 4.49107 18.8914 4.81916 18.8914H15.3184C15.6465 18.8914 15.9124 19.1384 15.9124 19.4432C15.9124 19.748 15.6465 19.9951 15.3184 19.9951H4.81916C4.49107 19.9951 4.2251 19.748 4.2251 19.4432Z" fill="#707070"/>
<path fill-rule="evenodd" clip-rule="evenodd" d="M17.0671 17.218C17.3952 17.218 17.6611 17.4651 17.6611 17.7699C17.6611 17.7778 17.6611 17.7858 17.6611 17.7937C17.6612 18.0891 17.6612 18.3791 17.6297 18.628C17.5971 18.8869 17.5233 19.1736 17.3181 19.4199C17.1043 19.6764 16.8075 19.8192 16.4774 19.8984C16.1584 19.975 15.7709 20.0013 15.3172 20.0013C14.9891 20.0013 14.7231 19.7542 14.7231 19.4494C14.7231 19.1446 14.9891 18.8975 15.3172 18.8975C15.7384 18.8975 16.0072 18.8713 16.1803 18.8298C16.3394 18.7916 16.3725 18.7516 16.3783 18.7445C16.3784 18.7444 16.3785 18.7443 16.3786 18.7441C16.3921 18.728 16.4277 18.6736 16.4497 18.4994C16.4721 18.322 16.473 18.096 16.473 17.7699C16.473 17.4651 16.739 17.218 17.0671 17.218Z" fill="#707070"/>
<path fill-rule="evenodd" clip-rule="evenodd" d="M17.0687 16.7961C17.3968 16.7961 17.6627 17.0432 17.6627 17.348V18.1878C17.6627 18.4925 17.3968 18.7396 17.0687 18.7396C16.7406 18.7396 16.4746 18.4925 16.4746 18.1878V17.348C16.4746 17.0432 16.7406 16.7961 17.0687 16.7961Z" fill="#707070"/>
<path fill-rule="evenodd" clip-rule="evenodd" d="M11.4927 0.088254C11.7683 -0.077023 12.136 -0.00341497 12.314 0.252662L17.5636 7.80847C17.7415 8.06454 17.6623 8.40612 17.3866 8.57139C17.1109 8.73667 16.7432 8.66306 16.5653 8.40699L11.3157 0.851183C11.1378 0.595106 11.217 0.253531 11.4927 0.088254Z" fill="#707070"/>
<path fill-rule="evenodd" clip-rule="evenodd" d="M17.0703 7.56533C17.3984 7.56533 17.6643 7.8124 17.6643 8.11719L17.6643 17.6094C17.6643 17.9142 17.3984 18.1613 17.0703 18.1613C16.7422 18.1613 16.4762 17.9142 16.4762 17.6094L16.4762 8.11719C16.4762 7.8124 16.7422 7.56533 17.0703 7.56533Z" fill="#707070"/>
<path fill-rule="evenodd" clip-rule="evenodd" d="M5.4458 9.33359C5.4458 9.02881 5.71177 8.78174 6.03986 8.78174H9.95277C10.2809 8.78174 10.5468 9.02881 10.5468 9.33359C10.5468 9.63838 10.2809 9.88545 9.95277 9.88545H6.03986C5.71177 9.88545 5.4458 9.63838 5.4458 9.33359Z" fill="#707070"/>
<path fill-rule="evenodd" clip-rule="evenodd" d="M5.4458 13.0123C5.4458 12.7075 5.71177 12.4604 6.03986 12.4604H12.1887C12.5168 12.4604 12.7828 12.7075 12.7828 13.0123C12.7828 13.3171 12.5168 13.5642 12.1887 13.5642H6.03986C5.71177 13.5642 5.4458 13.3171 5.4458 13.0123Z" fill="#707070"/>
<path fill-rule="evenodd" clip-rule="evenodd" d="M5.4458 16.691C5.4458 16.3862 5.71177 16.1392 6.03986 16.1392H13.9297C14.2578 16.1392 14.5238 16.3862 14.5238 16.691C14.5238 16.9958 14.2578 17.2429 13.9297 17.2429H6.03986C5.71177 17.2429 5.4458 16.9958 5.4458 16.691Z" fill="#707070"/>
<path fill-rule="evenodd" clip-rule="evenodd" d="M0 4.73553C0 3.92278 0.709253 3.26392 1.58416 3.26392H3.06931C3.39741 3.26392 3.66338 3.51099 3.66338 3.81577C3.66338 4.12055 3.39741 4.36763 3.06931 4.36763H1.58416C1.36544 4.36763 1.18812 4.53234 1.18812 4.73553V16.6924C1.18812 16.8956 1.36544 17.0603 1.58416 17.0603H3.06931C3.39741 17.0603 3.66338 17.3074 3.66338 17.6122C3.66338 17.917 3.39741 18.164 3.06931 18.164H1.58416C0.709254 18.164 0 17.5052 0 16.6924V4.73553Z" fill="#707070"/>
<path fill-rule="evenodd" clip-rule="evenodd" d="M11.4862 0.0415039C11.8142 0.0415039 12.0802 0.288578 12.0802 0.59336V7.03168C12.0802 7.23487 12.2575 7.39959 12.4763 7.39959H16.4367C16.7647 7.39959 17.0307 7.64666 17.0307 7.95144C17.0307 8.25623 16.7647 8.5033 16.4367 8.5033H12.4763C11.6013 8.5033 10.8921 7.84443 10.8921 7.03168V0.59336C10.8921 0.288578 11.1581 0.0415039 11.4862 0.0415039Z" fill="#707070"/>
<path fill-rule="evenodd" clip-rule="evenodd" d="M16.8325 8.87046C16.8325 8.56568 17.0985 8.3186 17.4266 8.3186H18.4167C19.2916 8.3186 20.0008 8.97747 20.0008 9.79022V16.2285C20.0008 17.0413 19.2916 17.7002 18.4167 17.7002H17.4266C17.0985 17.7002 16.8325 17.4531 16.8325 17.1483C16.8325 16.8435 17.0985 16.5964 17.4266 16.5964H18.4167C18.6354 16.5964 18.8127 16.4317 18.8127 16.2285V9.79022C18.8127 9.58703 18.6354 9.42232 18.4167 9.42232H17.4266C17.0985 9.42232 16.8325 9.17524 16.8325 8.87046Z" fill="#707070"/>
</svg>
