<svg width="24" height="24" viewBox="0 0 24 24" fill="none" xmlns="http://www.w3.org/2000/svg">
    <path fill-rule="evenodd" clip-rule="evenodd" d="M9.41399 5.03788C10.1108 4.67196 10.8861 4.39844 11.665 4.39844C13.1235 4.39844 14.6585 5.12436 15.7713 5.78733C16.3401 6.12614 16.8239 6.46416 17.1657 6.71746C17.3233 6.83421 17.4513 6.93345 17.5443 7.00713H19.3074V6.56366C19.3074 6.23228 19.5761 5.96365 19.9074 5.96365H22.9984C23.3297 5.96365 23.5984 6.23228 23.5984 6.56366V16.9984C23.5984 17.3298 23.3297 17.5984 22.9984 17.5984H19.9074C19.5761 17.5984 19.3074 17.3298 19.3074 16.9984V16.555H17.8468C17.7052 16.555 17.5681 16.5048 17.4598 16.4135C15.8792 15.0795 14.6956 13.2401 13.754 11.7769C13.7264 11.7341 13.6991 11.6915 13.6719 11.6494C13.1826 10.8894 12.7708 10.2585 12.3919 9.81458C12.0737 9.44173 11.8652 9.30729 11.7454 9.26627C11.7097 9.28075 11.6681 9.29746 11.6212 9.31612C11.4479 9.3851 11.2011 9.4809 10.9052 9.58911C10.3156 9.80475 9.52167 10.0731 8.72138 10.2757C7.72571 10.5278 6.90458 10.1831 6.36685 9.81357C6.09774 9.62863 5.88853 9.43087 5.74639 9.27971C5.67482 9.20361 5.61891 9.13788 5.57959 9.08938C5.5599 9.06509 5.54426 9.045 5.53281 9.02996L5.51875 9.01122L5.51408 9.00485L5.51234 9.00245L5.51161 9.00145C5.51146 9.00124 5.51099 9.00058 5.99835 8.65061C5.54036 8.263 5.54045 8.2629 5.54055 8.26278L5.54155 8.2616L5.54387 8.25887L5.55187 8.24952L5.58099 8.21582C5.60613 8.18692 5.64259 8.14542 5.68949 8.09312C5.78325 7.98856 5.91896 7.84056 6.08956 7.66357C6.43001 7.31035 6.91298 6.83791 7.48147 6.36376C8.04815 5.89111 8.71185 5.40661 9.41399 5.03788ZM5.99835 8.65061L5.54055 8.26278C5.36279 8.47282 5.35049 8.77707 5.51099 9.00058L5.99835 8.65061ZM6.8135 8.64342C6.88226 8.70341 6.96025 8.76532 7.04652 8.82461C7.41031 9.07462 7.87705 9.25165 8.42684 9.11244C9.17201 8.92377 9.92355 8.67039 10.493 8.46212C10.7767 8.35837 11.0129 8.26667 11.1776 8.20114C11.2599 8.16838 11.3242 8.14221 11.3676 8.12439L11.4166 8.10416L11.4285 8.09917L11.4312 8.09803C11.505 8.06689 11.5849 8.05061 11.665 8.05061C12.3459 8.05061 12.8911 8.55108 13.3046 9.03555C13.7467 9.55354 14.2043 10.2596 14.6808 10.9997C14.6964 11.0238 14.712 11.048 14.7276 11.0723C15.6565 12.5151 16.7093 14.1503 18.0702 15.355H19.3074V8.20713H17.3317C17.1901 8.20713 17.0531 8.15708 16.9449 8.06583C16.9449 8.06582 16.9449 8.06583 16.9449 8.06583L16.9439 8.06502L16.9388 8.0607L16.9156 8.04153C16.8945 8.02421 16.8623 7.99807 16.82 7.96435C16.7353 7.89688 16.6101 7.79927 16.4512 7.68158C16.133 7.44576 15.6832 7.1316 15.1572 6.81824C14.0806 6.17687 12.7823 5.59844 11.665 5.59844C11.1561 5.59844 10.5791 5.78144 9.97192 6.1003C9.37008 6.41635 8.7781 6.84489 8.25008 7.28529C7.72387 7.72418 7.27313 8.16479 6.95355 8.49635C6.90349 8.54829 6.85673 8.59746 6.8135 8.64342ZM20.5074 16.3984H22.3984V7.16366H20.5074V16.3984Z" fill="#808080" />
    <path fill-rule="evenodd" clip-rule="evenodd" d="M9.46188 4.99598C10.2679 4.65827 11.134 4.39844 11.9984 4.39844C12.3298 4.39844 12.5984 4.66707 12.5984 4.99844C12.5984 5.32981 12.3298 5.59844 11.9984 5.59844C11.3628 5.59844 10.6665 5.79231 9.92562 6.10275C9.23098 6.39381 8.53933 6.7684 7.85543 7.1388C7.81074 7.163 7.76608 7.18719 7.72146 7.21133C7.01385 7.59419 6.29387 7.97868 5.64835 8.1929C5.31898 8.3022 4.95733 8.3849 4.59844 8.37683V15.2873H5.49844C5.75297 15.2873 6.01165 15.3791 6.22248 15.4718C6.44913 15.5715 6.69638 15.7076 6.94857 15.8594C7.44916 16.1609 8.02422 16.5584 8.57855 16.9417L8.58965 16.9493C9.1569 17.3415 9.7025 17.7184 10.1673 17.9983C10.3995 18.1381 10.5976 18.2451 10.7576 18.3156C10.914 18.3844 10.9862 18.3963 10.9972 18.3981C10.9985 18.3984 10.9989 18.3984 10.9984 18.3984C11.1919 18.3984 11.2978 18.3706 11.3561 18.3466C11.409 18.3249 11.4493 18.2957 11.4968 18.2447C11.5467 18.191 11.5882 18.1333 11.6572 18.0372C11.6725 18.0159 11.6891 17.9927 11.7074 17.9673C11.7991 17.8405 11.9209 17.6785 12.0908 17.5211C12.5022 17.1402 12.9469 17.1299 13.1945 17.1241C13.2075 17.1238 13.2199 17.1235 13.2318 17.1232C13.4542 17.117 13.4909 17.1049 13.5665 17.0264C13.6318 16.9587 13.6904 16.8636 13.7916 16.6887C13.7953 16.6822 13.7992 16.6756 13.8031 16.6689C13.8892 16.5197 14.0148 16.3023 14.1915 16.119C14.395 15.908 14.6677 15.7372 15.0355 15.6827C15.3838 15.6311 15.7678 15.6913 16.1945 15.8388C16.2188 15.8472 16.2425 15.8571 16.2655 15.8686C16.2669 15.8692 16.2695 15.8703 16.2733 15.8719C16.2852 15.8769 16.3083 15.8858 16.3408 15.8954C16.4063 15.9148 16.5046 15.9355 16.6234 15.9355C16.8431 15.9355 17.1847 15.8668 17.5665 15.4708C17.7965 15.2323 18.1764 15.2254 18.4149 15.4554C18.6535 15.6854 18.6604 16.0653 18.4303 16.3038C17.8121 16.9449 17.1538 17.1355 16.6234 17.1355C16.3673 17.1355 16.153 17.0913 15.9999 17.0459C15.9229 17.0231 15.8601 16.9996 15.8135 16.9803C15.7986 16.9741 15.7853 16.9684 15.7737 16.9631C15.4684 16.8609 15.2979 16.8569 15.2114 16.8697C15.1417 16.8801 15.1019 16.9037 15.0553 16.952C14.9901 17.0196 14.9315 17.1148 14.8303 17.2897C14.8265 17.2961 14.8227 17.3027 14.8188 17.3095C14.7327 17.4586 14.6071 17.6761 14.4303 17.8594C14.006 18.2994 13.5426 18.315 13.2651 18.3227C13.0033 18.33 12.9732 18.3395 12.9061 18.4017C12.826 18.4758 12.7603 18.5592 12.6801 18.6702C12.6695 18.6849 12.658 18.7009 12.6458 18.7181C12.5766 18.815 12.4826 18.9469 12.3751 19.0624C12.2351 19.2128 12.0567 19.356 11.8126 19.4564C11.5741 19.5545 11.305 19.5984 10.9984 19.5984C10.7439 19.5984 10.4852 19.5067 10.2744 19.414C10.0477 19.3142 9.8005 19.1782 9.5483 19.0263C9.04772 18.7249 8.47266 18.3273 7.91832 17.9441L7.90723 17.9364C7.33998 17.5442 6.79438 17.1673 6.32955 16.8874C6.09737 16.7476 5.89931 16.6406 5.73924 16.5702C5.58287 16.5014 5.51063 16.4894 5.49971 16.4876C5.49834 16.4874 5.49793 16.4873 5.49844 16.4873H4.59844V16.9244C4.59844 17.2557 4.32981 17.5244 3.99844 17.5244H0.998438C0.667067 17.5244 0.398438 17.2557 0.398438 16.9244V6.55399C0.398438 6.22262 0.667067 5.95399 0.998438 5.95399H3.99844C4.32981 5.95399 4.59844 6.22262 4.59844 6.55399V7.17579C4.75095 7.18503 4.96532 7.15521 5.2704 7.05397C5.79675 6.8793 6.42052 6.55083 7.15041 6.15591C7.19843 6.12993 7.24684 6.10371 7.29561 6.07728C7.96796 5.713 8.70961 5.31118 9.46188 4.99598ZM3.39844 7.15399H1.59844V16.3244H3.39844V7.59861C3.39836 7.59321 3.39836 7.5878 3.39844 7.58239V7.15399Z" fill="#808080" />
</svg>