<svg width="24" height="24" viewBox="0 0 24 24" fill="none" xmlns="http://www.w3.org/2000/svg">
<path fill-rule="evenodd" clip-rule="evenodd" d="M1.39844 21.9984C1.39844 21.6671 1.66707 21.3984 1.99844 21.3984H19.9984C20.3298 21.3984 20.5984 21.6671 20.5984 21.9984C20.5984 22.3298 20.3298 22.5984 19.9984 22.5984H1.99844C1.66707 22.5984 1.39844 22.3298 1.39844 21.9984Z" fill="#595959"/>
<path fill-rule="evenodd" clip-rule="evenodd" d="M20.8984 21.9984C20.8984 21.6671 21.1671 21.3984 21.4984 21.3984H21.9984C22.3298 21.3984 22.5984 21.6671 22.5984 21.9984C22.5984 22.3298 22.3298 22.5984 21.9984 22.5984H21.4984C21.1671 22.5984 20.8984 22.3298 20.8984 21.9984Z" fill="#595959"/>
<path fill-rule="evenodd" clip-rule="evenodd" d="M1.89844 13.9984C1.89844 13.6671 2.16707 13.3984 2.49844 13.3984H4.49844C4.82981 13.3984 5.09844 13.6671 5.09844 13.9984V21.9985C5.09844 22.3299 4.82981 22.5985 4.49844 22.5985H2.49844C2.16707 22.5985 1.89844 22.3299 1.89844 21.9985V13.9984ZM3.09844 14.5984V21.3985H3.89844V14.5984H3.09844Z" fill="#595959"/>
<path fill-rule="evenodd" clip-rule="evenodd" d="M6.89844 7.99844C6.89844 7.66707 7.16707 7.39844 7.49844 7.39844H9.49844C9.82981 7.39844 10.0984 7.66707 10.0984 7.99844V21.9986C10.0984 22.33 9.82981 22.5986 9.49844 22.5986H7.49844C7.16707 22.5986 6.89844 22.33 6.89844 21.9986V7.99844ZM8.09844 8.59844V21.3986H8.89844V8.59844H8.09844Z" fill="#595959"/>
<path fill-rule="evenodd" clip-rule="evenodd" d="M11.8984 11.9984C11.8984 11.6671 12.1671 11.3984 12.4984 11.3984H14.4984C14.8298 11.3984 15.0984 11.6671 15.0984 11.9984V21.9982C15.0984 22.3296 14.8298 22.5982 14.4984 22.5982H12.4984C12.1671 22.5982 11.8984 22.3296 11.8984 21.9982V11.9984ZM13.0984 12.5984V21.3982H13.8984V12.5984H13.0984Z" fill="#595959"/>
<path fill-rule="evenodd" clip-rule="evenodd" d="M16.8984 5.49844C16.8984 5.16707 17.1671 4.89844 17.4984 4.89844H19.4984C19.8298 4.89844 20.0984 5.16707 20.0984 5.49844V21.9982C20.0984 22.3296 19.8298 22.5982 19.4984 22.5982H17.4984C17.1671 22.5982 16.8984 22.3296 16.8984 21.9982V5.49844ZM18.0984 6.09844V21.3982H18.8984V6.09844H18.0984Z" fill="#595959"/>
<path fill-rule="evenodd" clip-rule="evenodd" d="M17.4004 2.0686C17.6464 2.29059 17.6659 2.66998 17.4439 2.91601L12.9439 7.90331C12.736 8.13373 12.3867 8.16758 12.1384 7.98137L8.53821 5.2812L2.40541 10.9423C2.16192 11.167 1.78232 11.1518 1.55756 10.9083C1.3328 10.6648 1.34798 10.2853 1.59147 10.0605L8.09147 4.06049C8.30421 3.86412 8.62683 3.84766 8.85844 4.02137L12.4201 6.69259L16.553 2.11213C16.775 1.8661 17.1544 1.84661 17.4004 2.0686Z" fill="#595959"/>
<path fill-rule="evenodd" clip-rule="evenodd" d="M15.3984 1.99844C15.3984 1.66707 15.6671 1.39844 15.9984 1.39844H17.4984C17.8298 1.39844 18.0984 1.66707 18.0984 1.99844V3.5369C18.0984 3.86827 17.8298 4.1369 17.4984 4.1369C17.1671 4.1369 16.8984 3.86827 16.8984 3.5369V2.59844H15.9984C15.6671 2.59844 15.3984 2.32981 15.3984 1.99844Z" fill="#595959"/>
</svg>
