<svg width="25" height="24" viewBox="0 0 25 24" fill="none" xmlns="http://www.w3.org/2000/svg">
    <path fill-rule="evenodd" clip-rule="evenodd" d="M10.5019 8.5999C9.45387 8.5999 8.5999 9.45277 8.5999 10.5123C8.5999 11.8854 9.23321 12.9934 10.0502 13.8294C10.8743 14.6728 11.8481 15.1984 12.4145 15.3916L12.4171 15.3924C12.4188 15.3928 12.4247 15.3942 12.4354 15.3957C12.4527 15.3982 12.4751 15.3999 12.4999 15.3999C12.5247 15.3999 12.5471 15.3982 12.5644 15.3957C12.575 15.3942 12.5809 15.3929 12.5827 15.3924L12.5853 15.3915L12.5853 15.3916C13.1517 15.1984 14.1255 14.6728 14.9497 13.8294C15.7666 12.9934 16.3999 11.8854 16.3999 10.5123C16.3999 9.45277 15.5459 8.5999 14.4979 8.5999C13.8813 8.5999 13.3277 8.89897 12.9814 9.36466C12.8682 9.51691 12.6896 9.60664 12.4999 9.60664C12.3102 9.60664 12.1316 9.51691 12.0184 9.36466C11.6718 8.89848 11.1224 8.5999 10.5019 8.5999ZM7.3999 10.5123C7.3999 8.79423 8.78694 7.3999 10.5019 7.3999C11.2652 7.3999 11.9622 7.67704 12.5002 8.1348C13.0395 7.67684 13.7383 7.3999 14.4979 7.3999C16.2129 7.3999 17.5999 8.79423 17.5999 10.5123C17.5999 12.2851 16.7752 13.6783 15.8079 14.6681C14.8489 15.6495 13.7136 16.2741 12.975 16.5265C12.8154 16.5822 12.643 16.5999 12.4999 16.5999C12.3568 16.5999 12.1844 16.5822 12.0248 16.5265C11.2862 16.2741 10.1509 15.6495 9.1919 14.6681C8.2246 13.6783 7.3999 12.2851 7.3999 10.5123Z" fill="#F7C100"/>
    <path fill-rule="evenodd" clip-rule="evenodd" d="M13.0879 2.61832C10.8026 2.4751 8.54357 3.17096 6.73497 4.57526C4.92638 5.97957 3.69256 7.99573 3.26514 10.2453C2.83772 12.4948 3.24611 14.823 4.41362 16.7928C4.49747 16.9342 4.51958 17.1039 4.47478 17.2621L3.49318 20.7291C3.48191 20.7676 3.4812 20.8084 3.49114 20.8473C3.50109 20.8862 3.52132 20.9217 3.5497 20.9501C3.57809 20.9785 3.61359 20.9987 3.65248 21.0087C3.69137 21.0186 3.73222 21.0179 3.77075 21.0066L3.77572 21.0052L7.23766 20.025C7.39589 19.9802 7.56558 20.0023 7.70704 20.0862C9.67681 21.2537 12.005 21.6621 14.2545 21.2347C16.5041 20.8072 18.5202 19.5734 19.9245 17.7648C21.3288 15.9562 22.0247 13.6972 21.8815 11.412C21.7383 9.12666 20.7658 6.97222 19.1467 5.35311C17.5276 3.73399 15.3731 2.76154 13.0879 2.61832ZM5.99902 3.62744C8.0385 2.04386 10.5859 1.25917 13.1629 1.42067C15.7399 1.58217 18.1694 2.67876 19.9952 4.50458C21.821 6.33039 22.9176 8.75986 23.0791 11.3369C23.2406 13.9139 22.4559 16.4613 20.8724 18.5008C19.2888 20.5403 17.0152 21.9316 14.4785 22.4136C12.0273 22.8793 9.49318 22.465 7.321 21.2486L4.10761 22.1584C4.10664 22.1587 4.10567 22.159 4.10471 22.1592C3.86041 22.2301 3.60157 22.2343 3.3551 22.1712C3.10765 22.1079 2.88178 21.9792 2.70118 21.7986C2.52057 21.618 2.39187 21.3922 2.32858 21.1447C2.26552 20.8982 2.26968 20.6394 2.34058 20.395C2.34086 20.3941 2.34113 20.3931 2.34141 20.3922L3.2512 17.1788C2.03481 15.0066 1.62049 12.4725 2.08623 10.0213C2.56821 7.48456 3.95954 5.21101 5.99902 3.62744Z" fill="#F7C100"/>
    </svg>
    