<svg xmlns="http://www.w3.org/2000/svg" width="25" height="24" viewBox="0 0 25 24" fill="none">
  <path d="M17.915 22.75H6.335C3.595 22.75 1.375 20.52 1.375 17.78V10.37C1.375 9.00997 2.215 7.29997 3.295 6.45997L8.685 2.25997C10.305 0.999974 12.895 0.939974 14.575 2.11997L20.755 6.44997C21.945 7.27997 22.875 9.05997 22.875 10.51V17.79C22.875 20.52 20.655 22.75 17.915 22.75ZM9.605 3.43997L4.215 7.63997C3.505 8.19997 2.875 9.46997 2.875 10.37V17.78C2.875 19.69 4.425 21.25 6.335 21.25H17.915C19.825 21.25 21.375 19.7 21.375 17.79V10.51C21.375 9.54997 20.685 8.21997 19.895 7.67997L13.715 3.34997C12.575 2.54997 10.695 2.58997 9.605 3.43997Z" fill="#3750B2"/>
  <path d="M12.125 18.75C11.715 18.75 11.375 18.41 11.375 18V15C11.375 14.59 11.715 14.25 12.125 14.25C12.535 14.25 12.875 14.59 12.875 15V18C12.875 18.41 12.535 18.75 12.125 18.75Z" fill="#3750B2"/>
</svg>