<svg width="20" height="20" viewBox="0 0 20 20" fill="none" xmlns="http://www.w3.org/2000/svg">
<path fill-rule="evenodd" clip-rule="evenodd" d="M7.96386 2.93394C6.09144 2.93394 4.56617 4.4833 4.56617 6.40377C4.56617 8.32424 6.09144 9.87359 7.96386 9.87359C9.83628 9.87359 11.3616 8.32424 11.3616 6.40377C11.3616 4.4833 9.83628 2.93394 7.96386 2.93394ZM3.43408 6.40377C3.43408 3.85873 5.45806 1.78809 7.96386 1.78809C10.4697 1.78809 12.4936 3.85873 12.4936 6.40377C12.4936 8.9488 10.4697 11.0194 7.96386 11.0194C5.45806 11.0194 3.43408 8.9488 3.43408 6.40377Z" fill="#707070"/>
<path fill-rule="evenodd" clip-rule="evenodd" d="M11.3176 1.97911C11.0042 1.97911 10.7016 2.02229 10.4147 2.10282C10.1135 2.18737 9.80153 2.00874 9.71799 1.70382C9.63445 1.39891 9.81094 1.08319 10.1122 0.998629C10.4966 0.890723 10.901 0.833252 11.3176 0.833252C13.8234 0.833252 15.8474 2.9039 15.8474 5.44893C15.8474 7.23408 14.8524 8.78363 13.3959 9.55112C13.1186 9.69724 12.7768 9.58816 12.6324 9.3075C12.488 9.02684 12.5958 8.68086 12.8731 8.53475C13.967 7.95835 14.7153 6.7935 14.7153 5.44893C14.7153 3.52847 13.1901 1.97911 11.3176 1.97911Z" fill="#707070"/>
<path fill-rule="evenodd" clip-rule="evenodd" d="M1.57752 12.7373C0.952226 14.0325 0.890712 15.5203 1.99337 16.4843C2.5078 16.934 3.31147 17.3154 4.32066 17.5863C5.32149 17.855 6.48416 18.0042 7.67891 18.0184C10.0929 18.0469 12.5166 17.5242 13.9751 16.454C14.6402 15.966 14.9203 15.3689 14.9769 14.7516C15.0355 14.1131 14.856 13.4166 14.5285 12.7792C14.2007 12.1413 13.75 11.6126 13.3315 11.3054C13.1215 11.1514 12.9451 11.0717 12.8174 11.044C12.6968 11.018 12.6548 11.0435 12.6427 11.0518L12.6301 11.0604L12.6171 11.0683C10.7468 12.2065 9.1915 12.7652 7.68493 12.7334C6.17397 12.7015 4.80446 12.0774 3.30685 11.0518C3.28769 11.0387 3.11323 10.9572 2.68545 11.2866C2.30057 11.583 1.88472 12.101 1.57752 12.7373ZM1.99993 10.3747C2.50938 9.98236 3.27469 9.64627 3.94125 10.1027C5.3594 11.0739 6.51203 11.5626 7.70855 11.5878C8.90701 11.6131 10.2415 11.1754 12.0228 10.0929C12.35 9.87555 12.721 9.85151 13.0539 9.92348C13.3846 9.99498 13.7058 10.1648 13.996 10.3777C14.5776 10.8046 15.1366 11.4794 15.5329 12.2505C15.9294 13.0222 16.1883 13.9403 16.1041 14.8575C16.0181 15.796 15.5745 16.6957 14.6396 17.3818C12.898 18.6596 10.189 19.194 7.66567 19.1641C6.39174 19.1491 5.13458 18.9903 4.03043 18.6938C2.93465 18.3997 1.9482 17.9589 1.25338 17.3515C-0.418561 15.8898 -0.165457 13.7377 0.560376 12.2342C0.928738 11.4712 1.44759 10.8001 1.99993 10.3747Z" fill="#707070"/>
<path fill-rule="evenodd" clip-rule="evenodd" d="M16.6973 9.62842C16.5767 9.60234 16.5348 9.62782 16.5226 9.63616L16.5101 9.64475L16.4971 9.65266C15.924 10.0014 15.3818 10.2949 14.8628 10.5336C14.5782 10.6644 14.2426 10.537 14.1133 10.2489C13.984 9.96085 14.1099 9.62121 14.3945 9.49032C14.8632 9.2748 15.3631 9.00526 15.9028 8.67729C16.2299 8.45992 16.601 8.43587 16.9338 8.50784C17.2645 8.57935 17.5857 8.74917 17.8759 8.9621C18.4575 9.38892 19.0166 10.0638 19.4128 10.8349C19.8093 11.6065 20.0682 12.5246 19.9841 13.4419C19.898 14.3803 19.4544 15.2801 18.5195 15.9661C18.0054 16.3433 17.4113 16.6527 16.7712 16.9013C16.4793 17.0147 16.1519 16.8671 16.0399 16.5717C15.9279 16.2763 16.0737 15.9449 16.3656 15.8315C16.9338 15.6108 17.4365 15.3455 17.855 15.0384C18.5201 14.5504 18.8002 13.9532 18.8568 13.3359C18.9154 12.6974 18.736 12.001 18.4084 11.3636C18.0806 10.7257 17.6299 10.1969 17.2114 9.8898C17.0015 9.73576 16.825 9.65602 16.6973 9.62842Z" fill="#707070"/>
</svg>
