<svg width="24" height="24" viewBox="0 0 24 24" fill="none" xmlns="http://www.w3.org/2000/svg">
    <path fill-rule="evenodd" clip-rule="evenodd" d="M8.59523 8.38C8.59523 6.51328 10.1196 5 12 5C13.8804 5 15.4048 6.51328 15.4048 8.38C15.4048 10.2467 13.8804 11.76 12 11.76C10.1196 11.76 8.59523 10.2467 8.59523 8.38ZM12 6.18856C10.7808 6.18856 9.7925 7.1697 9.7925 8.38C9.7925 9.5903 10.7808 10.5714 12 10.5714C13.2192 10.5714 14.2075 9.5903 14.2075 8.38C14.2075 7.1697 13.2192 6.18856 12 6.18856ZM8.60921 11.2602C8.9941 11.187 9.33196 11.325 9.55823 11.4653C10.0645 11.7793 10.4196 11.9648 10.7673 12.0778C11.1075 12.1883 11.4713 12.2392 12.0006 12.2392C12.5296 12.2392 12.8933 12.1883 13.2334 12.0778C13.581 11.9648 13.936 11.7794 14.4421 11.4654C14.6684 11.325 15.0064 11.187 15.3913 11.2602C16.3543 11.4434 17.0239 12.2501 17.3175 13.1506C17.616 14.0663 17.5708 15.1857 17.0143 16.1749L17.0123 16.1784L17.0073 16.187L17.0058 16.1895C16.4177 17.1658 15.3332 17.5956 14.397 17.7965C13.4482 18 12.5024 18 12.0115 18H11.9896C11.4986 18 10.5526 18 9.60368 17.7965C8.66729 17.5956 7.58298 17.1665 6.99474 16.1903L6.99267 16.1868L6.9858 16.175C6.42917 15.1857 6.38399 14.0662 6.68259 13.1505C6.97626 12.25 7.6461 11.4433 8.60921 11.2602ZM8.82446 12.4288C8.41535 12.5081 8.00879 12.8883 7.80218 13.5219C7.60036 14.1408 7.6301 14.906 8.0064 15.5803C8.33816 16.1239 9.01286 16.4546 9.8489 16.6339C10.6694 16.8099 11.5082 16.8114 12.0006 16.8114C12.4928 16.8114 13.3314 16.8099 14.1517 16.6339C14.9875 16.4546 15.662 16.124 15.9937 15.5804C16.3699 14.906 16.3996 14.1408 16.1979 13.5219C15.9913 12.8882 15.5849 12.5081 15.176 12.4288C15.176 12.4288 15.1374 12.4295 15.0598 12.4777C14.5302 12.8063 14.0791 13.0517 13.595 13.2091C13.1034 13.3688 12.6097 13.4277 12.0006 13.4277C11.3913 13.4277 10.8975 13.3688 10.4058 13.2091C9.92159 13.0517 9.47044 12.8063 8.9407 12.4777C8.86299 12.4295 8.82446 12.4288 8.82446 12.4288Z" fill="#F7C100" />
    <path fill-rule="evenodd" clip-rule="evenodd" d="M4.26712 12.4706C4.26712 12.4706 4.23943 11.8431 4.26712 11.5294L2.7353 9.49004C2.9487 8.69555 3.26513 7.9324 3.67654 7.22001L6.19572 6.86012C6.41104 6.63251 6.63251 6.41104 6.86012 6.19572L7.22001 3.67654C7.93286 3.26607 8.69589 2.94969 9.49004 2.7353L11.5294 4.26712C11.8425 4.23943 12.1575 4.23943 12.4706 4.26712L14.51 2.7353C15.3045 2.9487 16.0676 3.26513 16.78 3.67654L17.1399 6.19572C17.3736 6.41104 17.5951 6.63251 17.8043 6.86012L20.3235 7.22001C20.7339 7.93286 21.0503 8.69589 21.2647 9.49004L19.7329 11.5294C19.7329 11.5294 19.7606 12.1569 19.7329 12.4706L21.2647 14.51C21.0513 15.3045 20.7349 16.0676 20.3235 16.78L17.8043 17.1399C17.8043 17.1399 17.3706 17.592 17.1399 17.8043L16.78 20.3235C16.0671 20.7339 15.3041 21.0503 14.51 21.2647L12.4706 19.7329C12.1575 19.7606 11.8425 19.7606 11.5294 19.7329L9.49004 21.2647C8.69555 21.0513 7.9324 20.7349 7.22001 20.3235L6.86012 17.8043C6.63251 17.589 6.41104 17.3675 6.19572 17.1399L3.67654 16.78C3.26607 16.0671 2.94969 15.3041 2.7353 14.51L4.26712 12.4706ZM5.60284 18.303L3.50184 18.0029C3.12589 17.9492 2.79553 17.7255 2.60603 17.3964C2.14232 16.5911 1.7849 15.7291 1.5427 14.8319C1.44356 14.4647 1.51915 14.0722 1.74761 13.7681L3.02061 12.0733C3.01999 12.0272 3.01955 11.9773 3.0195 11.9252L1.74761 10.2319C1.51948 9.92823 1.44376 9.53645 1.54229 9.16961C1.78364 8.27105 2.14152 7.40793 2.60682 6.60223C2.79646 6.27384 3.12643 6.05076 3.50184 5.99713L5.60284 5.69699C5.63411 5.66549 5.66549 5.63411 5.69699 5.60284L5.99713 3.50184C6.05084 3.12589 6.27449 2.79553 6.6036 2.60603C7.40892 2.14232 8.27093 1.7849 9.16809 1.5427C9.53534 1.44356 9.92778 1.51915 10.2319 1.74761L11.9147 3.01161C11.9716 3.01087 12.0284 3.01087 12.0853 3.01161L13.7681 1.74761C14.0718 1.51948 14.4636 1.44376 14.8304 1.54229C15.7289 1.78364 16.5921 2.14152 17.3978 2.60682C17.7262 2.79646 17.9492 3.12643 18.0029 3.50184L18.3023 5.59761C18.3359 5.63085 18.3693 5.66422 18.4024 5.69774L20.4982 5.99713C20.8741 6.05084 21.2045 6.27449 21.394 6.6036C21.8577 7.40892 22.2151 8.27093 22.4573 9.16809C22.5564 9.53534 22.4809 9.92778 22.2524 10.2319L20.9794 11.9267C20.98 11.9728 20.9804 12.0227 20.9805 12.0748L22.2524 13.7681C22.4805 14.0718 22.5562 14.4636 22.4577 14.8304C22.2164 15.7289 21.8585 16.5921 21.3932 17.3978C21.2035 17.7262 20.8736 17.9492 20.4982 18.0029L18.3954 18.3033C18.366 18.333 18.335 18.3643 18.3032 18.3962L18.0029 20.4982C17.9492 20.8741 17.7255 21.2045 17.3964 21.394C16.5911 21.8577 15.7291 22.2151 14.8319 22.4573C14.4647 22.5564 14.0722 22.4809 13.7681 22.2524L12.0853 20.9884C12.0284 20.9891 11.9716 20.9891 11.9147 20.9884L10.2319 22.2524C9.92823 22.4805 9.53645 22.5562 9.16961 22.4577C8.27105 22.2164 7.40793 21.8585 6.60223 21.3932C6.27384 21.2035 6.05076 20.8736 5.99713 20.4982L5.69699 18.3972C5.66549 18.3659 5.63411 18.3345 5.60284 18.303Z" fill="#F7C100" />
</svg>