<svg xmlns="http://www.w3.org/2000/svg" width="25" height="24" viewBox="0 0 25 24" fill="none">
  <path d="M17.525 19.0098C17.215 19.0098 16.905 18.9197 16.635 18.7397L15.675 18.1097C15.405 17.9297 15.275 17.5898 15.365 17.2798C15.435 17.0498 15.465 16.7797 15.465 16.4797V12.4097C15.465 10.7797 14.445 9.75977 12.815 9.75977H6.02499C5.90499 9.75977 5.795 9.76978 5.685 9.77979C5.475 9.78979 5.27501 9.71977 5.11501 9.57977C4.95501 9.43977 4.875 9.23979 4.875 9.02979V6.25977C4.875 3.31977 6.935 1.25977 9.875 1.25977H18.375C21.315 1.25977 23.375 3.31977 23.375 6.25977V11.3597C23.375 12.8097 22.885 14.0897 21.985 14.9697C21.265 15.6997 20.265 16.1698 19.125 16.3098V17.4197C19.125 18.0197 18.795 18.5598 18.275 18.8398C18.035 18.9498 17.775 19.0098 17.525 19.0098ZM16.925 17.1298L17.575 17.4998C17.635 17.4698 17.635 17.4197 17.635 17.4097V15.5997C17.635 15.1897 17.975 14.8497 18.385 14.8497C19.435 14.8497 20.325 14.5198 20.935 13.8998C21.565 13.2798 21.885 12.3997 21.885 11.3497V6.24976C21.885 4.11976 20.515 2.74976 18.385 2.74976H9.88499C7.75499 2.74976 6.38499 4.11976 6.38499 6.24976V8.24976H12.825C15.265 8.24976 16.975 9.95978 16.975 12.3998V16.4697C16.965 16.6997 16.955 16.9198 16.925 17.1298Z" fill="#3750B2"/>
  <path d="M6.69501 22.75C6.47501 22.75 6.245 22.7 6.035 22.59C5.565 22.34 5.27499 21.86 5.27499 21.32V20.56C4.39499 20.42 3.615 20.05 3.035 19.47C2.275 18.71 1.875 17.67 1.875 16.47V12.4C1.875 10.14 3.35499 8.48002 5.55499 8.27002C5.71499 8.26002 5.86499 8.25 6.02499 8.25H12.815C15.255 8.25 16.965 9.96002 16.965 12.4V16.47C16.965 16.91 16.915 17.32 16.805 17.69C16.355 19.49 14.825 20.62 12.815 20.62H10.325L7.495 22.5C7.255 22.67 6.97501 22.75 6.69501 22.75ZM6.02499 9.75C5.90499 9.75 5.795 9.76002 5.685 9.77002C4.245 9.90002 3.375 10.89 3.375 12.4V16.47C3.375 17.27 3.625 17.94 4.095 18.41C4.555 18.87 5.22499 19.12 6.02499 19.12C6.43499 19.12 6.77499 19.46 6.77499 19.87V21.18L9.675 19.25C9.795 19.17 9.945 19.12 10.095 19.12H12.815C14.135 19.12 15.065 18.46 15.355 17.3C15.425 17.05 15.465 16.77 15.465 16.47V12.4C15.465 10.77 14.445 9.75 12.815 9.75H6.02499Z" fill="#3750B2"/>
</svg>
