<svg width="24" height="24" viewBox="0 0 24 24" fill="none" xmlns="http://www.w3.org/2000/svg">
    <path fill-rule="evenodd" clip-rule="evenodd" d="M11.9984 9.89844C12.3298 9.89844 12.5984 10.1671 12.5984 10.4984V10.7038C13.1007 10.7502 13.4795 11.0844 13.7117 11.4528C13.9625 11.8508 14.0984 12.3625 14.0984 12.8984C14.0984 13.2298 13.8298 13.4984 13.4984 13.4984C13.1671 13.4984 12.8984 13.2298 12.8984 12.8984C12.8984 12.5543 12.8094 12.2718 12.6965 12.0926C12.5856 11.9168 12.498 11.8999 12.483 11.8984H11.3789C11.3648 11.9046 11.3217 11.9309 11.2627 12.0257C11.173 12.1697 11.0984 12.4048 11.0984 12.6927C11.0984 13.0605 11.1528 13.2357 11.1963 13.3198C11.2302 13.3854 11.275 13.4318 11.3822 13.4898L13.1881 14.4529C13.4358 14.5895 13.6871 14.7889 13.8607 15.1274C14.0252 15.448 14.0909 15.8374 14.0909 16.3042C14.0909 16.7819 13.9705 17.244 13.7452 17.6057C13.5258 17.9579 13.1446 18.2984 12.6209 18.2984H12.5984V18.4984C12.5984 18.8298 12.3298 19.0984 11.9984 19.0984C11.6671 19.0984 11.3984 18.8298 11.3984 18.4984V18.2947C10.8899 18.2553 10.5109 17.9116 10.2828 17.546C10.0341 17.1474 9.89844 16.6339 9.89844 16.0984C9.89844 15.7671 10.1671 15.4984 10.4984 15.4984C10.8298 15.4984 11.0984 15.7671 11.0984 16.0984C11.0984 16.443 11.1877 16.7294 11.3009 16.9108C11.3568 17.0004 11.41 17.0512 11.4471 17.0764C11.4649 17.0886 11.4775 17.0939 11.4843 17.0961C11.4908 17.0983 11.4941 17.0984 11.4959 17.0984H12.6105C12.6245 17.0922 12.6676 17.066 12.7267 16.9712C12.8164 16.8272 12.8909 16.5921 12.8909 16.3042C12.8909 15.9366 12.8367 15.7603 12.793 15.6752C12.7589 15.6086 12.7145 15.5626 12.6121 15.5057L10.8161 14.5478L10.8135 14.5465C10.5616 14.4105 10.3065 14.2113 10.1306 13.8714C9.96411 13.5498 9.89844 13.1592 9.89844 12.6927C9.89844 12.2149 10.0189 11.7529 10.2442 11.3912C10.4635 11.039 10.8448 10.6984 11.3684 10.6984H11.3984V10.4984C11.3984 10.1671 11.6671 9.89844 11.9984 9.89844Z" fill="#808080" />
    <path fill-rule="evenodd" clip-rule="evenodd" d="M11.998 1.76697C12.8433 1.52579 13.9486 1.36634 14.9757 1.40392C15.5276 1.42411 16.0818 1.50198 16.5713 1.67009C17.0582 1.83727 17.5257 2.10957 17.8371 2.5486C17.9919 2.76676 17.9836 3.06102 17.8167 3.27007L15.0297 6.76187C16.2684 7.58596 17.5259 8.80107 18.5985 10.1773C19.8447 11.7765 20.8786 13.6409 21.3395 15.44C21.7991 17.234 21.7097 19.0673 20.5397 20.4532C19.3786 21.8285 17.2892 22.5984 14.138 22.5984H9.85813C6.70687 22.5984 4.6175 21.8285 3.45643 20.4532C2.28638 19.0673 2.19697 17.234 2.65657 15.44C3.11748 13.6409 4.15138 11.7765 5.39762 10.1773C6.47019 8.80107 7.72768 7.58596 8.96638 6.76187L6.17936 3.27007C6.0125 3.06102 6.00418 2.76676 6.15895 2.5486C6.47042 2.10958 6.93791 1.83727 7.42475 1.67009C7.91429 1.50198 8.46847 1.42411 9.02037 1.40392C10.0474 1.36634 11.1528 1.52579 11.998 1.76697ZM10.0188 7.51725C8.80515 8.23435 7.4807 9.45658 6.34413 10.915C5.16627 12.4264 4.22745 14.1437 3.81903 15.7378C3.40931 17.3371 3.55395 18.7086 4.37335 19.6791C5.20172 20.6603 6.85717 21.3984 9.85813 21.3984H14.138C17.1389 21.3984 18.7944 20.6603 19.6227 19.6791C20.4421 18.7086 20.5868 17.3371 20.1771 15.7378C19.7686 14.1437 18.8298 12.4264 17.652 10.915C16.5154 9.45658 15.1909 8.23435 13.9773 7.51725H10.0188ZM13.8492 6.31725L16.5293 2.95948C16.4321 2.90352 16.3169 2.8515 16.1816 2.80503C15.8386 2.68724 15.4097 2.6206 14.9318 2.60312C13.9735 2.56805 12.9181 2.7337 12.1774 2.96572C12.0606 3.0023 11.9354 3.0023 11.8187 2.96572C11.0779 2.7337 10.0225 2.56805 9.06425 2.60312C8.58633 2.6206 8.1575 2.68724 7.81449 2.80503C7.67918 2.8515 7.56395 2.90352 7.46683 2.95947L10.1469 6.31725H13.8492Z" fill="#808080" />
</svg>