<svg width="20" height="18" viewBox="0 0 20 18" fill="none" xmlns="http://www.w3.org/2000/svg">
<path fill-rule="evenodd" clip-rule="evenodd" d="M15.358 3.12391C15.508 3.40334 15.4293 3.76739 15.1821 3.93705L2.96347 12.3223C2.71626 12.4919 2.39418 12.403 2.24409 12.1235C2.09399 11.8441 2.17272 11.48 2.41994 11.3104L14.6386 2.92515C14.8858 2.7555 15.2079 2.84449 15.358 3.12391Z" fill="#808080"/>
<path fill-rule="evenodd" clip-rule="evenodd" d="M0.429733 12.5575C0.192398 11.728 0.594856 10.8382 1.32865 10.5699C2.06244 10.3017 2.84969 10.7566 3.08703 11.586L3.78413 14.0222C4.02146 14.8516 3.61901 15.7414 2.88521 16.0097C2.15142 16.278 1.36417 15.8231 1.12683 14.9936L0.429733 12.5575ZM1.65095 11.6963C1.4675 11.7633 1.36689 11.9858 1.42622 12.1932L2.12332 14.6293C2.18265 14.8367 2.37947 14.9504 2.56291 14.8833C2.74636 14.8163 2.84698 14.5938 2.78764 14.3865L2.09054 11.9503C2.03121 11.7429 1.8344 11.6292 1.65095 11.6963Z" fill="#808080"/>
<path fill-rule="evenodd" clip-rule="evenodd" d="M2.85791 14.2723C2.85791 13.9454 3.09236 13.6804 3.38157 13.6804H17.09C17.3792 13.6804 17.6137 13.9454 17.6137 14.2723C17.6137 14.5992 17.3792 14.8642 17.09 14.8642H3.38157C3.09236 14.8642 2.85791 14.5992 2.85791 14.2723Z" fill="#808080"/>
<path fill-rule="evenodd" clip-rule="evenodd" d="M14.5099 2.91734C14.3364 2.06796 14.805 1.22043 15.5564 1.02433C16.3079 0.828236 17.0577 1.35783 17.2312 2.20721L19.6853 14.2224C19.8588 15.0718 19.3902 15.9193 18.6388 16.1154C17.8873 16.3115 17.1375 15.7819 16.964 14.9325L14.5099 2.91734ZM15.792 2.17779C15.6042 2.22681 15.487 2.4387 15.5304 2.65104L17.9845 14.6662C18.0279 14.8786 18.2153 15.011 18.4032 14.962C18.591 14.9129 18.7082 14.7011 18.6648 14.4887L16.2107 2.47351C16.1673 2.26117 15.9799 2.12877 15.792 2.17779Z" fill="#808080"/>
<path fill-rule="evenodd" clip-rule="evenodd" d="M12.3029 7.56041C12.4517 7.84072 12.3713 8.2043 12.1233 8.37249L7.75946 11.332C7.51147 11.5002 7.18981 11.4093 7.04101 11.129C6.89222 10.8487 6.97263 10.4851 7.22062 10.3169L11.5844 7.35739C11.8324 7.1892 12.1541 7.2801 12.3029 7.56041Z" fill="#808080"/>
<path fill-rule="evenodd" clip-rule="evenodd" d="M8.01362 14.77C8.01362 15.4164 8.64096 16.1511 9.67186 16.1511C10.7028 16.1511 11.3301 15.4164 11.3301 14.77H12.3774C12.3774 16.303 11.051 17.3349 9.67186 17.3349C8.29271 17.3349 6.96631 16.303 6.96631 14.77H8.01362Z" fill="#808080"/>
</svg>
