<svg width="20" height="20" viewBox="0 0 20 20" fill="none" xmlns="http://www.w3.org/2000/svg">
<path fill-rule="evenodd" clip-rule="evenodd" d="M1.66406 16.5194C1.66406 16.211 1.92436 15.9609 2.24546 15.9609H17.7493C18.0704 15.9609 18.3307 16.211 18.3307 16.5194C18.3307 16.8278 18.0704 17.0778 17.7493 17.0778H2.24546C1.92436 17.0778 1.66406 16.8278 1.66406 16.5194Z" fill="#808080"/>
<path fill-rule="evenodd" clip-rule="evenodd" d="M9.97877 3.35126C8.94382 3.3522 7.98669 3.57633 7.41993 3.95082C6.22012 4.7436 5.24933 6.40745 5.24933 9.07514C5.24933 11.8985 4.76688 14.8886 2.65692 16.9188C2.43007 17.137 2.06195 17.1374 1.83471 16.9195C1.60746 16.7016 1.60714 16.348 1.83399 16.1297C3.6 14.4305 4.08654 11.8362 4.08654 9.07514C4.08654 6.15844 5.15603 4.09107 6.76091 3.03064C7.5965 2.47852 8.8196 2.23544 9.97766 2.23438C11.1373 2.23332 12.3694 2.47475 13.2277 3.02639C14.8932 4.09686 15.9082 6.16715 15.9082 9.07514C15.9082 11.836 16.3948 14.4305 18.1608 16.1297C18.3877 16.348 18.3873 16.7016 18.1601 16.9195C17.9328 17.1374 17.5647 17.137 17.3379 16.9188C15.2279 14.8886 14.7455 11.8983 14.7455 9.07514C14.7455 6.39904 13.8187 4.75011 12.581 3.95462C11.9858 3.57207 11.0121 3.35031 9.97877 3.35126Z" fill="#808080"/>
<path fill-rule="evenodd" clip-rule="evenodd" d="M12.6103 16.2163C12.9149 16.3138 13.0795 16.6301 12.978 16.9227C12.8006 17.4338 12.5187 17.9947 12.039 18.4312C11.5443 18.8814 10.8751 19.166 10.004 19.166C8.23634 19.166 7.21113 18.0085 7.008 16.8379C6.95521 16.5337 7.16918 16.246 7.48591 16.1952C7.80263 16.1445 8.10218 16.3501 8.15497 16.6543C8.27484 17.3451 8.86461 18.0491 10.004 18.0491C10.5863 18.0491 10.9668 17.8684 11.2393 17.6204C11.5267 17.3589 11.7293 16.9891 11.8749 16.5695C11.9764 16.2769 12.3057 16.1188 12.6103 16.2163Z" fill="#808080"/>
<path fill-rule="evenodd" clip-rule="evenodd" d="M9.48521 2.22662C9.30799 2.42197 9.17624 2.688 9.11432 2.92591C9.03644 3.22512 8.72078 3.40704 8.40927 3.33224C8.09777 3.25744 7.90837 2.95424 7.98625 2.65503C8.08582 2.27245 8.29323 1.84044 8.60857 1.49286C8.92617 1.14279 9.39656 0.835938 10.0038 0.835938C10.611 0.835938 11.0814 1.14279 11.399 1.49286C11.7143 1.84044 11.9217 2.27245 12.0213 2.65503C12.0992 2.95424 11.9098 3.25744 11.5983 3.33224C11.2868 3.40704 10.9711 3.22512 10.8932 2.92591C10.8313 2.688 10.6996 2.42197 10.5223 2.22662C10.3474 2.03377 10.1718 1.95281 10.0038 1.95281C9.83579 1.95281 9.66018 2.03377 9.48521 2.22662Z" fill="#808080"/>
<path fill-rule="evenodd" clip-rule="evenodd" d="M9.89844 4.65008C9.89965 4.34167 10.1609 4.09259 10.482 4.09375C11.05 4.09581 11.594 4.20451 12.1092 4.57386C12.6025 4.92748 13.0154 5.48228 13.4223 6.26391C13.7103 6.81711 13.8709 7.56453 13.9781 8.3297C14.0824 9.07356 14.1434 9.89582 14.2012 10.6742C14.2038 10.709 14.2064 10.7438 14.209 10.7785C14.27 11.599 14.3291 12.3587 14.4303 12.9701C14.4809 13.2751 14.5391 13.5248 14.606 13.7162C14.6762 13.917 14.7391 14.0033 14.7669 14.03C14.994 14.2481 14.994 14.6017 14.7669 14.8197C14.5399 15.0378 14.1717 15.0378 13.9447 14.8197C13.7302 14.6137 13.5963 14.3364 13.5038 14.0719C13.4079 13.7979 13.3375 13.4805 13.282 13.1456C13.1713 12.4772 13.1092 11.6664 13.0491 10.8581C13.0469 10.8279 13.0447 10.7977 13.0424 10.7676C12.9837 9.9776 12.925 9.18689 12.8258 8.4787C12.721 7.73143 12.5788 7.14092 12.3823 6.76339C12.0079 6.04412 11.6941 5.66994 11.4137 5.46893C11.1553 5.28365 10.8786 5.21208 10.4776 5.21062C10.1565 5.20946 9.89723 4.9585 9.89844 4.65008Z" fill="#808080"/>
</svg>
