<svg xmlns="http://www.w3.org/2000/svg" width="25" height="24" viewBox="0 0 25 24" fill="none">
  <path d="M12.3949 20.5299C10.0649 20.5299 7.73487 20.1599 5.52487 19.4199C4.68487 19.1299 4.04487 18.5399 3.76487 17.7699C3.47487 16.9999 3.57487 16.1499 4.03487 15.3899L5.18487 13.4799C5.42487 13.0799 5.64487 12.2799 5.64487 11.8099V8.91992C5.64487 5.19992 8.67487 2.16992 12.3949 2.16992C16.1149 2.16992 19.1449 5.19992 19.1449 8.91992V11.8099C19.1449 12.2699 19.3649 13.0799 19.6049 13.4899L20.7449 15.3899C21.1749 16.1099 21.2549 16.9799 20.9649 17.7699C20.6749 18.5599 20.0449 19.1599 19.2549 19.4199C17.0549 20.1599 14.7249 20.5299 12.3949 20.5299ZM12.3949 3.66992C9.50487 3.66992 7.14487 6.01992 7.14487 8.91992V11.8099C7.14487 12.5399 6.84487 13.6199 6.47487 14.2499L5.32487 16.1599C5.10487 16.5299 5.04487 16.9199 5.17487 17.2499C5.29487 17.5899 5.59487 17.8499 6.00487 17.9899C10.1849 19.3899 14.6149 19.3899 18.7949 17.9899C19.1549 17.8699 19.4349 17.5999 19.5649 17.2399C19.6949 16.8799 19.6649 16.4899 19.4649 16.1599L18.3149 14.2499C17.9349 13.5999 17.6449 12.5299 17.6449 11.7999V8.91992C17.6449 6.01992 15.2949 3.66992 12.3949 3.66992Z" fill="#3750B2"/>
  <path d="M14.2546 3.93969C14.1846 3.93969 14.1146 3.92969 14.0446 3.90969C13.7546 3.82969 13.4746 3.76969 13.2046 3.72969C12.3546 3.61969 11.5346 3.67969 10.7646 3.90969C10.4846 3.99969 10.1846 3.90969 9.99463 3.69969C9.80463 3.48969 9.74463 3.18969 9.85463 2.91969C10.2646 1.86969 11.2646 1.17969 12.4046 1.17969C13.5446 1.17969 14.5446 1.85969 14.9546 2.91969C15.0546 3.18969 15.0046 3.48969 14.8146 3.69969C14.6646 3.85969 14.4546 3.93969 14.2546 3.93969Z" fill="#3750B2"/>
  <path d="M12.3945 22.8096C11.4045 22.8096 10.4445 22.4096 9.74453 21.7096C9.04453 21.0096 8.64453 20.0496 8.64453 19.0596H10.1445C10.1445 19.6496 10.3845 20.2296 10.8045 20.6496C11.2245 21.0696 11.8045 21.3096 12.3945 21.3096C13.6345 21.3096 14.6445 20.2996 14.6445 19.0596H16.1445C16.1445 21.1296 14.4645 22.8096 12.3945 22.8096Z" fill="#3750B2"/>
</svg>