<svg width="24" height="24" viewBox="0 0 24 24" fill="none" xmlns="http://www.w3.org/2000/svg">
    <path fill-rule="evenodd" clip-rule="evenodd" d="M0.398438 1.70156C0.398438 1.37019 0.667067 1.10156 0.998438 1.10156H2.73206C3.45552 1.10156 4.08896 1.58702 4.27704 2.2856L7.37857 13.8056C7.42559 13.9802 7.58395 14.1016 7.76482 14.1016H18.3345C18.4954 14.1016 18.6407 14.0051 18.7031 13.8568L22.4455 4.96873C22.574 4.66333 22.9259 4.51999 23.2313 4.64858C23.5367 4.77717 23.68 5.12899 23.5514 5.4344L19.8091 14.3225C19.5593 14.9158 18.9782 15.3016 18.3345 15.3016H7.76482C7.04136 15.3016 6.40791 14.8161 6.21983 14.1175L3.11831 2.59757C3.07129 2.42293 2.91292 2.30156 2.73206 2.30156H0.998438C0.667067 2.30156 0.398438 2.03293 0.398438 1.70156Z" fill="#F7C100" />
    <path fill-rule="evenodd" clip-rule="evenodd" d="M7.5358 14.4334C7.68399 14.7298 7.56386 15.0902 7.26747 15.2384L6.05632 15.8439C5.67879 16.0327 5.81312 16.6017 6.23521 16.6017H19.9991C20.3305 16.6017 20.5991 16.8703 20.5991 17.2017C20.5991 17.5331 20.3305 17.8017 19.9991 17.8017H6.23521C4.54685 17.8017 4.00955 15.5257 5.51967 14.7706L6.73081 14.165C7.0272 14.0168 7.3876 14.137 7.5358 14.4334Z" fill="#F7C100" />
    <path fill-rule="evenodd" clip-rule="evenodd" d="M9.19688 20.7C9.19688 21.915 8.2119 22.9 6.99688 22.9C5.78185 22.9 4.79688 21.915 4.79688 20.7C4.79688 19.485 5.78185 18.5 6.99688 18.5C8.2119 18.5 9.19688 19.485 9.19688 20.7ZM6.99688 21.7C7.54916 21.7 7.99688 21.2523 7.99688 20.7C7.99688 20.1477 7.54916 19.7 6.99688 19.7C6.44459 19.7 5.99688 20.1477 5.99688 20.7C5.99688 21.2523 6.44459 21.7 6.99688 21.7Z" fill="#F7C100" />
    <path fill-rule="evenodd" clip-rule="evenodd" d="M20.1969 20.7C20.1969 21.915 19.2119 22.9 17.9969 22.9C16.7818 22.9 15.7969 21.915 15.7969 20.7C15.7969 19.485 16.7818 18.5 17.9969 18.5C19.2119 18.5 20.1969 19.485 20.1969 20.7ZM17.9969 21.7C18.5492 21.7 18.9969 21.2523 18.9969 20.7C18.9969 20.1477 18.5492 19.7 17.9969 19.7C17.4446 19.7 16.9969 20.1477 16.9969 20.7C16.9969 21.2523 17.4446 21.7 17.9969 21.7Z" fill="#F7C100" />
    <path fill-rule="evenodd" clip-rule="evenodd" d="M17 2.30313C17 1.97175 17.2686 1.70312 17.6 1.70312H19.6C19.9314 1.70312 20.2 1.97175 20.2 2.30313V4.30312C20.2 4.6345 19.9314 4.90312 19.6 4.90312C19.2686 4.90312 19 4.6345 19 4.30312V2.90313H17.6C17.2686 2.90313 17 2.6345 17 2.30313Z" fill="#F7C100" />
    <path fill-rule="evenodd" clip-rule="evenodd" d="M19.5015 2.35715C19.7478 2.57883 19.7678 2.9582 19.5461 3.20451L15.0461 8.20451C14.9148 8.35039 14.7205 8.42284 14.5257 8.3985L10.9469 7.95115L9.13679 11.5715C8.98859 11.8678 8.62819 11.988 8.3318 11.8398C8.03542 11.6916 7.91528 11.3312 8.06348 11.0348L10.0635 7.0348C10.1772 6.80727 10.4221 6.67621 10.6746 6.70776L14.3637 7.16891L18.6542 2.40175C18.8758 2.15545 19.2552 2.13548 19.5015 2.35715Z" fill="#F7C100" />
</svg>