<svg xmlns="http://www.w3.org/2000/svg" width="25" height="25" viewBox="0 0 25 25" fill="none">
<path d="M18.5003 7.92638C18.4703 7.92638 18.4503 7.92638 18.4203 7.92638H18.3703C16.4803 7.86638 15.0703 6.40637 15.0703 4.60637C15.0703 2.76637 16.5703 1.27637 18.4003 1.27637C20.2303 1.27637 21.7303 2.77637 21.7303 4.60637C21.7203 6.41637 20.3103 7.87637 18.5103 7.93637C18.5103 7.92637 18.5103 7.92638 18.5003 7.92638ZM18.4003 2.76637C17.3903 2.76637 16.5703 3.58637 16.5703 4.59637C16.5703 5.58637 17.3403 6.38638 18.3303 6.42638C18.3403 6.41638 18.4203 6.41638 18.5103 6.42638C19.4803 6.37638 20.2303 5.57637 20.2403 4.59637C20.2403 3.58637 19.4203 2.76637 18.4003 2.76637Z" fill="#8A8A8A"/>
<path d="M18.5085 15.2963C18.1185 15.2963 17.7285 15.2663 17.3385 15.1963C16.9285 15.1263 16.6585 14.7363 16.7285 14.3263C16.7985 13.9163 17.1885 13.6463 17.5985 13.7163C18.8285 13.9263 20.1285 13.6963 20.9985 13.1163C21.4685 12.8063 21.7185 12.4163 21.7185 12.0263C21.7185 11.6363 21.4585 11.2563 20.9985 10.9463C20.1285 10.3663 18.8085 10.1363 17.5685 10.3563C17.1585 10.4363 16.7685 10.1563 16.6985 9.74626C16.6285 9.33626 16.8985 8.94626 17.3085 8.87626C18.9385 8.58626 20.6285 8.89626 21.8285 9.69626C22.7085 10.2863 23.2185 11.1263 23.2185 12.0263C23.2185 12.9163 22.7185 13.7663 21.8285 14.3663C20.9185 14.9663 19.7385 15.2963 18.5085 15.2963Z" fill="#8A8A8A"/>
<path d="M6.47047 7.92661C6.46047 7.92661 6.45047 7.92661 6.45047 7.92661C4.65047 7.86661 3.24047 6.4066 3.23047 4.6066C3.23047 2.7666 4.73047 1.2666 6.56047 1.2666C8.39047 1.2666 9.89047 2.7666 9.89047 4.5966C9.89047 6.4066 8.48047 7.86661 6.68047 7.92661L6.47047 7.17661L6.54047 7.92661C6.52047 7.92661 6.49047 7.92661 6.47047 7.92661ZM6.57047 6.42661C6.63047 6.42661 6.68047 6.4266 6.74047 6.4366C7.63047 6.3966 8.41047 5.5966 8.41047 4.6066C8.41047 3.5966 7.59047 2.7766 6.58047 2.7766C5.57047 2.7766 4.75047 3.5966 4.75047 4.6066C4.75047 5.5866 5.51047 6.3766 6.48047 6.4366C6.49047 6.4266 6.53047 6.42661 6.57047 6.42661Z" fill="#8A8A8A"/>
<path d="M6.46 15.2963C5.23 15.2963 4.05 14.9663 3.14 14.3663C2.26 13.7763 1.75 12.9263 1.75 12.0263C1.75 11.1363 2.26 10.2863 3.14 9.69626C4.34 8.89626 6.03 8.58626 7.66 8.87626C8.07 8.94626 8.34 9.33626 8.27 9.74626C8.2 10.1563 7.81 10.4363 7.4 10.3563C6.16 10.1363 4.85 10.3663 3.97 10.9463C3.5 11.2563 3.25 11.6363 3.25 12.0263C3.25 12.4163 3.51 12.8063 3.97 13.1163C4.84 13.6963 6.14 13.9263 7.37 13.7163C7.78 13.6463 8.17 13.9263 8.24 14.3263C8.31 14.7363 8.04 15.1263 7.63 15.1963C7.24 15.2663 6.85 15.2963 6.46 15.2963Z" fill="#8A8A8A"/>
<path d="M12.5003 15.3961C12.4703 15.3961 12.4503 15.3961 12.4203 15.3961H12.3703C10.4803 15.3361 9.07031 13.8761 9.07031 12.0761C9.07031 10.2361 10.5703 8.74609 12.4003 8.74609C14.2303 8.74609 15.7303 10.2461 15.7303 12.0761C15.7203 13.8861 14.3103 15.3461 12.5103 15.4061C12.5103 15.3961 12.5103 15.3961 12.5003 15.3961ZM12.4003 10.2361C11.3903 10.2361 10.5703 11.0561 10.5703 12.0661C10.5703 13.0561 11.3403 13.8561 12.3303 13.8961C12.3403 13.8861 12.4203 13.8861 12.5103 13.8961C13.4803 13.8461 14.2303 13.0461 14.2403 12.0661C14.2403 11.0661 13.4203 10.2361 12.4003 10.2361Z" fill="#8A8A8A"/>
<path d="M12.5013 22.7763C11.3013 22.7763 10.1012 22.4663 9.17125 21.8363C8.29125 21.2463 7.78125 20.4063 7.78125 19.5063C7.78125 18.6163 8.28125 17.7563 9.17125 17.1663C11.0412 15.9263 13.9713 15.9263 15.8313 17.1663C16.7113 17.7563 17.2213 18.5963 17.2213 19.4963C17.2213 20.3863 16.7213 21.2463 15.8313 21.8363C14.9013 22.4563 13.7013 22.7763 12.5013 22.7763ZM10.0013 18.4263C9.53125 18.7363 9.28125 19.1263 9.28125 19.5163C9.28125 19.9063 9.54125 20.2863 10.0013 20.5963C11.3513 21.5063 13.6413 21.5063 14.9913 20.5963C15.4613 20.2863 15.7113 19.8963 15.7113 19.5063C15.7113 19.1163 15.4513 18.7363 14.9913 18.4263C13.6513 17.5163 11.3613 17.5263 10.0013 18.4263Z" fill="#8A8A8A"/>
</svg>