<svg width="24" height="24" viewBox="0 0 24 24" fill="none" xmlns="http://www.w3.org/2000/svg">
    <path fill-rule="evenodd" clip-rule="evenodd" d="M11.0908 7.14531C8.91175 7.14531 7.14531 8.91175 7.14531 11.0908C7.14531 12.2473 7.64216 13.2869 8.43591 14.0094C8.68097 14.2325 8.6988 14.612 8.47574 14.857C8.25269 15.1021 7.87321 15.1199 7.62815 14.8969C6.59509 13.9565 5.94531 12.5991 5.94531 11.0908C5.94531 8.24901 8.24901 5.94531 11.0908 5.94531C12.7743 5.94531 14.2691 6.75451 15.2068 8.00265C15.4059 8.26758 15.3525 8.6437 15.0875 8.84275C14.8226 9.04179 14.4465 8.98838 14.2474 8.72346C13.5266 7.76401 12.381 7.14531 11.0908 7.14531Z" fill="#F7C100" />
    <path fill-rule="evenodd" clip-rule="evenodd" d="M12.6609 9.88307C12.9635 9.85698 13.2702 9.8764 13.5705 9.94233C14.1876 10.0778 14.7469 10.4029 15.17 10.872C15.5932 11.3411 15.8591 11.9309 15.9304 12.5586C16.0017 13.1864 15.875 13.8207 15.5679 14.3728C15.4324 14.6164 15.4825 14.9212 15.6888 15.1086L21.1861 20.1015C21.3242 20.2442 21.4016 20.435 21.4016 20.6339C21.4016 20.8368 21.3209 21.0315 21.1774 21.175C21.0339 21.3185 20.8393 21.3991 20.6363 21.3991C20.4374 21.3991 20.2466 21.3218 20.104 21.1837L15.111 15.6865C14.9236 15.4801 14.6188 15.43 14.3752 15.5655C13.8231 15.8726 13.1887 15.9994 12.561 15.928C11.9332 15.8567 11.3435 15.5908 10.8744 15.1677C10.4052 14.7445 10.0802 14.1852 9.94471 13.5681C9.87878 13.2678 9.85935 12.9611 9.88544 12.6585L11.5219 14.2989C11.664 14.4413 11.868 14.503 12.0652 14.4633L13.6723 14.1396C13.9092 14.0919 14.0943 13.9068 14.142 13.6699L14.4657 12.0628C14.5054 11.8656 14.4437 11.6616 14.3013 11.5196L12.6609 9.88307ZM13.8278 8.77025C12.9662 8.58109 12.0671 8.6661 11.2562 9.01338C11.073 9.09182 10.9408 9.25607 10.9032 9.45174C10.8656 9.64741 10.9276 9.84897 11.0687 9.98969L13.2257 12.1416L13.0444 13.042L12.144 13.2233L9.99207 11.0663C9.85135 10.9252 9.64978 10.8632 9.45411 10.9008C9.25844 10.9384 9.09419 11.0707 9.01575 11.2538C8.66848 12.0647 8.58346 12.9639 8.77262 13.8254C8.96178 14.687 9.41563 15.4679 10.0706 16.0587C10.7257 16.6495 11.549 17.0207 12.4255 17.1203C13.1412 17.2017 13.8631 17.0986 14.5236 16.8245L19.2267 22.0027C19.2332 22.0098 19.2398 22.0167 19.2466 22.0235C19.6152 22.3921 20.1151 22.5991 20.6363 22.5991C21.1575 22.5991 21.6574 22.3921 22.0259 22.0235C22.3945 21.655 22.6016 21.1551 22.6016 20.6339C22.6016 20.1126 22.3945 19.6128 22.0259 19.2442C22.0192 19.2374 22.0122 19.2308 22.0051 19.2243L16.8269 14.5212C17.101 13.8607 17.2041 13.1389 17.1227 12.4231C17.0231 11.5467 16.6519 10.7233 16.0611 10.0683C15.4703 9.41326 14.6894 8.9594 13.8278 8.77025Z" fill="#F7C100" />
    <path d="M3.68806 10.7428C3.66117 11.0476 3.68806 11.6572 3.68806 11.6572L2.20001 13.6383C2.40827 14.4097 2.71561 15.151 3.11435 15.8434L5.56156 16.193C5.77073 16.4142 5.98587 16.6293 6.20698 16.8385L6.55658 19.2857C7.24862 19.6853 7.98997 19.9927 8.76176 20.2L10.7428 18.712C11.047 18.7389 11.353 18.7389 11.6572 18.712L13.6383 20.2C14.1046 20.0741 15 19.7154 15 19.7154C16 19.5 16 20.5 15.5 20.8064C15.5 20.8064 14.4816 21.2153 13.951 21.3585C13.5943 21.4548 13.213 21.3814 12.9176 21.1595L11.2828 19.9316C11.2276 19.9323 11.1724 19.9323 11.1172 19.9316L9.48246 21.1595C9.18743 21.3811 8.80685 21.4546 8.45049 21.3589C7.5776 21.1245 6.73914 20.7768 5.95646 20.3248C5.63745 20.1406 5.42074 19.8201 5.36864 19.4554L5.07708 17.4144C5.04648 17.384 5.01599 17.3535 4.98562 17.3229L2.94465 17.0314C2.57944 16.9792 2.25852 16.7619 2.07443 16.4422C1.62397 15.6599 1.27676 14.8225 1.04148 13.951C0.945174 13.5943 1.0186 13.213 1.24053 12.9176L2.47716 11.2712C2.47657 11.2264 2.47614 11.178 2.47608 11.1274L1.24053 9.48246C1.01892 9.18743 0.94537 8.80685 1.04109 8.45049C1.27554 7.5776 1.62319 6.73914 2.07519 5.95646C2.25942 5.63745 2.57997 5.42074 2.94465 5.36864L4.98562 5.07708C5.01599 5.04648 5.04648 5.01599 5.07708 4.98562L5.36864 2.94465C5.42082 2.57944 5.63808 2.25852 5.95778 2.07443C6.7401 1.62397 7.57748 1.27676 8.44901 1.04148C8.80577 0.945174 9.187 1.0186 9.48246 1.24053L11.1172 2.46842C11.1724 2.46771 11.2276 2.46771 11.2828 2.46842L12.9176 1.24053C13.2126 1.01892 13.5932 0.94537 13.9495 1.04109C14.8224 1.27554 15.6609 1.62319 16.4436 2.07519C16.7626 2.25942 16.9793 2.57997 17.0314 2.94465L17.3222 4.98054C17.3549 5.01282 17.3873 5.04525 17.4195 5.07781L19.4554 5.36864C19.8206 5.42082 20.1415 5.63808 20.3256 5.95778C20.7761 6.7401 21.1233 7.57748 21.3585 8.44901C21.4548 8.80577 21.3814 9.187 21.1595 9.48246L19.9229 11.1288C19.9235 11.1736 19.9239 11.2221 19.9239 11.2726L21.1595 12.9176C21.3811 13.2126 21.4546 13.5932 21.3589 13.9495C21.2163 14.4807 20.8072 15.5 20.8072 15.5C20.5 16 19.5 16 19.7162 15C19.7162 15 20.0747 14.1047 20.2 13.6383L18.712 11.6572C18.7389 11.3524 18.712 10.7428 18.712 10.7428L20.2 8.76176C19.9917 7.9903 19.6844 7.24907 19.2857 6.55658L16.8385 6.20698C16.6353 5.98587 16.4201 5.77073 16.193 5.56156L15.8434 3.11435C15.1514 2.7147 14.4101 2.40731 13.6383 2.20001L11.6572 3.68806C11.353 3.66116 11.047 3.66116 10.7428 3.68806L8.76176 2.20001C7.9903 2.40827 7.24907 2.71561 6.55658 3.11435L6.20698 5.56156C5.98587 5.77073 5.77073 5.98587 5.56156 6.20698L3.11435 6.55658C2.7147 7.24862 2.40731 7.98997 2.20001 8.76176L3.68806 10.7428Z" fill="#F7C100" />
</svg>