<svg width="28" height="28" viewBox="0 0 28 28" fill="none" xmlns="http://www.w3.org/2000/svg">
<path fill-rule="evenodd" clip-rule="evenodd" d="M13.9995 3.03281C7.94276 3.03281 3.03281 7.94276 3.03281 13.9995C3.03281 15.5605 3.35876 17.0435 3.94549 18.3858C4.10033 18.74 3.93868 19.1527 3.58444 19.3076C3.2302 19.4624 2.81752 19.3007 2.66268 18.9465C2.00015 17.4308 1.63281 15.7572 1.63281 13.9995C1.63281 7.16956 7.16956 1.63281 13.9995 1.63281C20.8294 1.63281 26.3661 7.16956 26.3661 13.9995C26.3661 20.8294 20.8294 26.3661 13.9995 26.3661C9.95321 26.3661 6.36144 24.4217 4.10647 21.4199C3.87427 21.1108 3.93662 20.672 4.24572 20.4398C4.55482 20.2076 4.99363 20.2699 5.22582 20.579C7.22786 23.2442 10.4123 24.9661 13.9995 24.9661C20.0562 24.9661 24.9661 20.0562 24.9661 13.9995C24.9661 7.94276 20.0562 3.03281 13.9995 3.03281Z" fill="#808080"/>
<path fill-rule="evenodd" clip-rule="evenodd" d="M13.9989 5.13281C14.3855 5.13281 14.6989 5.44621 14.6989 5.83281V13.9995C14.6989 14.2454 14.5699 14.4732 14.3591 14.5997L9.10908 17.7497C8.77757 17.9486 8.34759 17.8411 8.14869 17.5096C7.94979 17.1781 8.05728 16.7481 8.38879 16.5492L13.2989 13.6031V5.83281C13.2989 5.44621 13.6123 5.13281 13.9989 5.13281Z" fill="#808080"/>
</svg>
