<svg width="28" height="28" viewBox="0 0 28 28" fill="none" xmlns="http://www.w3.org/2000/svg">
<path fill-rule="evenodd" clip-rule="evenodd" d="M19.8328 1.63281C20.2194 1.63281 20.5328 1.94621 20.5328 2.33281L20.5328 6.99948C20.5328 7.38608 20.2194 7.69948 19.8328 7.69948C19.4462 7.69948 19.1328 7.38608 19.1328 6.99948L19.1328 2.33281C19.1328 1.94621 19.4462 1.63281 19.8328 1.63281Z" fill="#F7C100"/>
<path fill-rule="evenodd" clip-rule="evenodd" d="M8.17851 1.63246C8.56511 1.63335 8.87779 1.94746 8.87691 2.33406L8.86623 7.00073C8.86534 7.38733 8.55123 7.70001 8.16463 7.69912C7.77803 7.69824 7.46535 7.38412 7.46623 6.99752L7.47691 2.33086C7.4778 1.94426 7.79192 1.63158 8.17851 1.63246Z" fill="#F7C100"/>
<path fill-rule="evenodd" clip-rule="evenodd" d="M1.63281 9.33281C1.63281 8.94621 1.94621 8.63281 2.33281 8.63281H25.6661C26.0527 8.63281 26.3661 8.94621 26.3661 9.33281C26.3661 9.71941 26.0527 10.0328 25.6661 10.0328H2.33281C1.94621 10.0328 1.63281 9.71941 1.63281 9.33281Z" fill="#F7C100"/>
<path fill-rule="evenodd" clip-rule="evenodd" d="M1.63281 5.83346C1.63281 4.80253 2.46855 3.9668 3.49948 3.9668H24.4995C25.5304 3.9668 26.3661 4.80253 26.3661 5.83346V13.4168C26.3661 13.8034 26.0527 14.1168 25.6661 14.1168C25.2795 14.1168 24.9661 13.8034 24.9661 13.4168V5.83346C24.9661 5.57573 24.7572 5.3668 24.4995 5.3668H3.49948C3.24175 5.3668 3.03281 5.57573 3.03281 5.83346V24.5001C3.03281 24.7579 3.24175 24.9668 3.49948 24.9668H12.8328C13.2194 24.9668 13.5328 25.2802 13.5328 25.6668C13.5328 26.0534 13.2194 26.3668 12.8328 26.3668H3.49948C2.46855 26.3668 1.63281 25.5311 1.63281 24.5001V5.83346Z" fill="#F7C100"/>
<path fill-rule="evenodd" clip-rule="evenodd" d="M19.8322 14.6988C16.9971 14.6988 14.6988 16.9971 14.6988 19.8322C14.6988 20.4387 14.8038 21.0191 14.9959 21.5573C15.1259 21.9214 14.9361 22.322 14.572 22.4519C14.2079 22.5819 13.8073 22.3921 13.6774 22.028C13.4321 21.3408 13.2988 20.6013 13.2988 19.8322C13.2988 16.2239 16.2239 13.2988 19.8322 13.2988C23.4404 13.2988 26.3655 16.2239 26.3655 19.8322C26.3655 23.4404 23.4404 26.3655 19.8322 26.3655C17.8466 26.3655 16.0676 25.4787 14.8705 24.0823C14.6189 23.7888 14.6529 23.3469 14.9464 23.0953C15.2399 22.8437 15.6818 22.8776 15.9334 23.1711C16.876 24.2706 18.2725 24.9655 19.8322 24.9655C22.6672 24.9655 24.9655 22.6672 24.9655 19.8322C24.9655 16.9971 22.6672 14.6988 19.8322 14.6988Z" fill="#F7C100"/>
<path fill-rule="evenodd" clip-rule="evenodd" d="M19.8329 15.6328C20.2195 15.6328 20.5329 15.9462 20.5329 16.3328V19.8328C20.5329 20.0669 20.4159 20.2854 20.2212 20.4152L18.4712 21.5819C18.1495 21.7964 17.7149 21.7094 17.5005 21.3878C17.286 21.0661 17.3729 20.6315 17.6946 20.417L19.1329 19.4582V16.3328C19.1329 15.9462 19.4463 15.6328 19.8329 15.6328Z" fill="#F7C100"/>
</svg>
