<svg width="25" height="24" viewBox="0 0 25 24" fill="none" xmlns="http://www.w3.org/2000/svg">
<path fill-rule="evenodd" clip-rule="evenodd" d="M6.57744 11.4281C7.11695 11.3276 7.6106 11.514 7.97208 11.7336C8.90933 12.303 9.59958 12.6601 10.293 12.8807C10.979 13.099 11.6995 13.1935 12.7025 13.1935C13.7053 13.1935 14.4256 13.0991 15.1114 12.8808C15.8046 12.6601 16.4946 12.3031 17.4316 11.7338C17.7931 11.5141 18.2869 11.3276 18.8265 11.4281C20.3624 11.7143 21.4856 12.9905 21.9903 14.5065C22.4995 16.0363 22.422 17.91 21.4722 19.5636L21.463 19.5791C20.4891 21.1624 18.6679 21.8937 16.993 22.2455C15.3044 22.6003 13.6124 22.6003 12.7138 22.6003H12.6913C11.7925 22.6003 10.1001 22.6003 8.4111 22.2455C6.73596 21.8937 4.91436 21.1624 3.94024 19.5791L3.93102 19.5636C2.98094 17.9099 2.90351 16.0362 3.4129 14.5064C3.9177 12.9902 5.04122 11.7141 6.57744 11.4281ZM7.34904 12.7592C7.12246 12.6216 6.93484 12.5822 6.79707 12.6078C5.81848 12.79 4.96529 13.6425 4.55144 14.8854C4.14299 16.1122 4.20391 17.6242 4.96696 18.9579C5.67737 20.1054 7.08058 20.7399 8.65779 21.0712C10.2175 21.3988 11.8021 21.4003 12.7025 21.4003C13.6027 21.4003 15.187 21.3988 16.7463 21.0712C18.3231 20.7399 19.726 20.1054 20.4362 18.9579C21.1991 17.6242 21.26 16.1123 20.8517 14.8855C20.4379 13.6426 19.585 12.7901 18.6068 12.6078C18.469 12.5822 18.2814 12.6216 18.0548 12.7593C17.0937 13.3432 16.3065 13.7597 15.4753 14.0242C14.6368 14.2911 13.7858 14.3935 12.7025 14.3935C11.6191 14.3935 10.7678 14.2911 9.9291 14.0242C9.09779 13.7597 8.31033 13.3432 7.34904 12.7592Z" fill="#E9B704"/>
<path fill-rule="evenodd" clip-rule="evenodd" d="M12.7017 2.60039C10.2716 2.60039 8.30156 4.57038 8.30156 7.00048C8.30156 9.43058 10.2716 11.4006 12.7017 11.4006C15.1318 11.4006 17.1017 9.43058 17.1017 7.00048C17.1017 4.57038 15.1318 2.60039 12.7017 2.60039ZM7.10156 7.00048C7.10156 3.90764 9.60881 1.40039 12.7017 1.40039C15.7945 1.40039 18.3017 3.90764 18.3017 7.00048C18.3017 10.0933 15.7945 12.6006 12.7017 12.6006C9.60881 12.6006 7.10156 10.0933 7.10156 7.00048Z" fill="#E9B704"/>
</svg>
