<svg width="25" height="24" viewBox="0 0 25 24" fill="none" xmlns="http://www.w3.org/2000/svg">
<path fill-rule="evenodd" clip-rule="evenodd" d="M3.50039 10.5999C3.27948 10.5999 3.10039 10.779 3.10039 10.9999V12.9999C3.10039 13.2208 3.27948 13.3999 3.50039 13.3999H4.50039V14.5999H3.50039C2.61674 14.5999 1.90039 13.8836 1.90039 12.9999V10.9999C1.90039 10.1162 2.61674 9.3999 3.50039 9.3999H4.50039V10.5999H3.50039Z" fill="#8B8B8B"/>
<path fill-rule="evenodd" clip-rule="evenodd" d="M19.6017 4.20572C20.3228 3.9253 21.1004 4.45723 21.1004 5.23093V18.7691C21.1004 19.5428 20.3228 20.0747 19.6017 19.7943L11.3878 16.6H6.50039C5.06445 16.6 3.90039 15.4359 3.90039 14V10C3.90039 8.56407 5.06445 7.40001 6.50039 7.40001H11.3878L19.6017 4.20572ZM10.9004 8.60001H6.50039C5.72719 8.60001 5.10039 9.22681 5.10039 10V14C5.10039 14.7732 5.72719 15.4 6.50039 15.4H10.9004V8.60001ZM12.1004 15.5896L19.9004 18.6229V5.37711L12.1004 8.41045V15.5896Z" fill="#8B8B8B"/>
<path fill-rule="evenodd" clip-rule="evenodd" d="M21.9 11.9999C21.9 11.2267 21.2732 10.5999 20.5 10.5999V9.3999C21.9359 9.3999 23.1 10.564 23.1 11.9999C23.1 13.4358 21.9359 14.5999 20.5 14.5999V13.3999C21.2732 13.3999 21.9 12.7731 21.9 11.9999Z" fill="#8B8B8B"/>
<path fill-rule="evenodd" clip-rule="evenodd" d="M17.9004 19V5H19.1004V19H17.9004Z" fill="#8B8B8B"/>
<path fill-rule="evenodd" clip-rule="evenodd" d="M5.90039 18V16H7.10039V18C7.10039 18.2209 7.27948 18.4 7.50039 18.4H8.50039C8.7213 18.4 8.90039 18.2209 8.90039 18V16H10.1004V18C10.1004 18.8837 9.38405 19.6 8.50039 19.6H7.50039C6.61674 19.6 5.90039 18.8837 5.90039 18Z" fill="#8B8B8B"/>
</svg>
