<svg width="32" height="32" viewBox="0 0 32 32" fill="none" xmlns="http://www.w3.org/2000/svg">
<path fill-rule="evenodd" clip-rule="evenodd" d="M10.4354 6.42813C9.40449 6.42813 8.56875 7.26386 8.56875 8.29479V25.1837C8.56875 26.2146 9.40448 27.0503 10.4354 27.0503H22.6707C23.7016 27.0503 24.5373 26.2146 24.5373 25.1837V8.29479C24.5373 7.26386 23.7016 6.42813 22.6707 6.42813H10.4354ZM6.96875 8.29479C6.96875 6.3802 8.52083 4.82812 10.4354 4.82812H22.6707C24.5852 4.82812 26.1373 6.3802 26.1373 8.29479V25.1837C26.1373 27.0983 24.5852 28.6503 22.6707 28.6503H10.4354C8.52083 28.6503 6.96875 27.0983 6.96875 25.1837V8.29479Z" fill="white"/>
<path fill-rule="evenodd" clip-rule="evenodd" d="M14.9536 3.46719C14.6591 3.46719 14.4203 3.70597 14.4203 4.00052V5.63015C14.4203 6.07198 14.0621 6.43015 13.6203 6.43015C13.1785 6.43015 12.8203 6.07198 12.8203 5.63015V4.00052C12.8203 2.82231 13.7754 1.86719 14.9536 1.86719H18.1432C19.3214 1.86719 20.2765 2.82231 20.2765 4.00052V5.63015C20.2765 6.07198 19.9183 6.43015 19.4765 6.43015C19.0347 6.43015 18.6765 6.07198 18.6765 5.63015V4.00052C18.6765 3.70597 18.4377 3.46719 18.1432 3.46719H14.9536Z" fill="white"/>
<path fill-rule="evenodd" clip-rule="evenodd" d="M12.1594 27.0547C12.6012 27.0547 12.9594 27.4129 12.9594 27.8547V29.3362C12.9594 29.778 12.6012 30.1362 12.1594 30.1362C11.7175 30.1362 11.3594 29.778 11.3594 29.3362V27.8547C11.3594 27.4129 11.7175 27.0547 12.1594 27.0547Z" fill="white"/>
<path fill-rule="evenodd" clip-rule="evenodd" d="M20.9406 27.0547C21.3825 27.0547 21.7406 27.4129 21.7406 27.8547V29.3362C21.7406 29.778 21.3825 30.1362 20.9406 30.1362C20.4988 30.1362 20.1406 29.778 20.1406 29.3362V27.8547C20.1406 27.4129 20.4988 27.0547 20.9406 27.0547Z" fill="white"/>
<path fill-rule="evenodd" clip-rule="evenodd" d="M13.6203 10.7578C14.0621 10.7578 14.4203 11.116 14.4203 11.5578V21.9282C14.4203 22.37 14.0621 22.7282 13.6203 22.7282C13.1785 22.7282 12.8203 22.37 12.8203 21.9282V11.5578C12.8203 11.116 13.1785 10.7578 13.6203 10.7578Z" fill="white"/>
<path fill-rule="evenodd" clip-rule="evenodd" d="M19.4797 10.7578C19.9215 10.7578 20.2797 11.116 20.2797 11.5578V21.9282C20.2797 22.37 19.9215 22.7282 19.4797 22.7282C19.0379 22.7282 18.6797 22.37 18.6797 21.9282V11.5578C18.6797 11.116 19.0379 10.7578 19.4797 10.7578Z" fill="white"/>
<path fill-rule="evenodd" clip-rule="evenodd" d="M5.86719 10.0031C5.86719 9.5613 6.22536 9.20312 6.66719 9.20312H7.32601C7.76784 9.20312 8.12601 9.5613 8.12601 10.0031V12.0031C8.12601 12.445 7.76784 12.8031 7.32601 12.8031H6.66719C6.22536 12.8031 5.86719 12.445 5.86719 12.0031V10.0031Z" fill="white"/>
<path fill-rule="evenodd" clip-rule="evenodd" d="M5.86719 20.0031C5.86719 19.5613 6.22536 19.2031 6.66719 19.2031H7.32601C7.76784 19.2031 8.12601 19.5613 8.12601 20.0031V22.0031C8.12601 22.445 7.76784 22.8031 7.32601 22.8031H6.66719C6.22536 22.8031 5.86719 22.445 5.86719 22.0031V20.0031Z" fill="white"/>
</svg>
