<svg width="33" height="32" viewBox="0 0 33 32" fill="none" xmlns="http://www.w3.org/2000/svg">
<path fill-rule="evenodd" clip-rule="evenodd" d="M4.36856 5.70922C3.98911 6.54319 3.81488 7.74338 4.13152 9.46202C4.21158 9.89654 3.92423 10.3137 3.48971 10.3937C3.0552 10.4738 2.63806 10.1864 2.55801 9.75192C2.19913 7.80405 2.36273 6.25428 2.91222 5.0466C3.46491 3.83186 4.37278 3.04111 5.35533 2.55628C6.32725 2.07669 7.37582 1.8928 8.26413 1.86972C9.12408 1.84737 9.94942 1.97364 10.4545 2.22294C10.8507 2.41849 11.0133 2.8982 10.8178 3.29439C10.6222 3.69059 10.1425 3.85324 9.74632 3.65768C9.57591 3.57357 9.05017 3.44983 8.30569 3.46918C7.58957 3.48779 6.78034 3.6373 6.06334 3.9911C5.35698 4.33965 4.74481 4.88228 4.36856 5.70922Z" fill="#F7C100"/>
<path fill-rule="evenodd" clip-rule="evenodd" d="M28.6316 5.70694C29.0109 6.53984 29.1851 7.73859 28.8685 9.45541C28.7884 9.88991 29.0757 10.3071 29.5102 10.3872C29.9447 10.4673 30.3618 10.1801 30.442 9.74557C30.8009 7.79929 30.6373 6.25066 30.0877 5.0438C29.5349 3.82995 28.6269 3.03992 27.6444 2.55558C26.6725 2.07647 25.6241 1.89278 24.7359 1.86972C23.876 1.84739 23.0508 1.97353 22.5458 2.22255C22.1495 2.41796 21.9867 2.89761 22.1821 3.29387C22.3775 3.69014 22.8572 3.85297 23.2534 3.65756C23.4239 3.57347 23.9498 3.44985 24.6943 3.46918C25.4105 3.48777 26.2199 3.63717 26.9369 3.99067C27.6434 4.33894 28.2554 4.88103 28.6316 5.70694Z" fill="#F7C100"/>
<path fill-rule="evenodd" clip-rule="evenodd" d="M16.4992 6.1332C10.3136 6.1332 5.29922 11.1476 5.29922 17.3332C5.29922 23.5188 10.3136 28.5332 16.4992 28.5332C22.6848 28.5332 27.6992 23.5188 27.6992 17.3332C27.6992 11.1476 22.6848 6.1332 16.4992 6.1332ZM3.69922 17.3332C3.69922 10.264 9.42997 4.5332 16.4992 4.5332C23.5685 4.5332 29.2992 10.264 29.2992 17.3332C29.2992 24.4024 23.5685 30.1332 16.4992 30.1332C9.42997 30.1332 3.69922 24.4024 3.69922 17.3332Z" fill="#F7C100"/>
<path fill-rule="evenodd" clip-rule="evenodd" d="M24.6015 25.4355C24.9139 25.1231 25.4205 25.1231 25.7329 25.4355L29.0662 28.7688C29.3786 29.0812 29.3786 29.5878 29.0662 29.9002C28.7538 30.2126 28.2473 30.2126 27.9348 29.9002L24.6015 26.5669C24.2891 26.2544 24.2891 25.7479 24.6015 25.4355Z" fill="#F7C100"/>
<path fill-rule="evenodd" clip-rule="evenodd" d="M8.39824 25.4355C8.71066 25.7479 8.71066 26.2544 8.39824 26.5669L5.0649 29.9002C4.75248 30.2126 4.24595 30.2126 3.93353 29.9002C3.62111 29.5878 3.62111 29.0812 3.93353 28.7688L7.26687 25.4355C7.57929 25.1231 8.08582 25.1231 8.39824 25.4355Z" fill="#F7C100"/>
<path fill-rule="evenodd" clip-rule="evenodd" d="M16.4992 8.5332C16.9411 8.5332 17.2992 8.89138 17.2992 9.3332V17.3332C17.2992 17.5706 17.1938 17.7958 17.0114 17.9478L13.0114 21.2811C12.672 21.564 12.1675 21.5181 11.8847 21.1787C11.6018 20.8393 11.6477 20.3348 11.9871 20.052L15.6992 16.9585V9.3332C15.6992 8.89138 16.0574 8.5332 16.4992 8.5332Z" fill="#F7C100"/>
</svg>
