<svg width="33" height="32" viewBox="0 0 33 32" fill="none" xmlns="http://www.w3.org/2000/svg">
<path fill-rule="evenodd" clip-rule="evenodd" d="M4.05738 6.24736C3.98855 6.30931 3.96719 6.37286 3.96719 6.42411V28.2423C3.96719 28.2935 3.98855 28.3571 4.05738 28.419C4.12757 28.4822 4.23915 28.5332 4.37931 28.5332H28.6217C28.7619 28.5332 28.8735 28.4822 28.9437 28.419C29.0125 28.3571 29.0339 28.2935 29.0339 28.2423V6.42411C29.0339 6.37286 29.0125 6.30931 28.9437 6.24736C28.8735 6.18419 28.7619 6.1332 28.6217 6.1332H4.37931C4.23915 6.1332 4.12757 6.18419 4.05738 6.24736ZM2.36719 6.42411C2.36719 5.30259 3.34941 4.5332 4.37931 4.5332H28.6217C29.6516 4.5332 30.6339 5.30259 30.6339 6.42411V28.2423C30.6339 29.3638 29.6516 30.1332 28.6217 30.1332H4.37931C3.34941 30.1332 2.36719 29.3638 2.36719 28.2423V6.42411Z" fill="#F7C100"/>
<path fill-rule="evenodd" clip-rule="evenodd" d="M23.1672 1.86719C23.609 1.86719 23.9672 2.22536 23.9672 2.66719L23.9672 8.00052C23.9672 8.44235 23.609 8.80052 23.1672 8.80052C22.7254 8.80052 22.3672 8.44235 22.3672 8.00052L22.3672 2.66719C22.3672 2.22536 22.7254 1.86719 23.1672 1.86719Z" fill="#F7C100"/>
<path fill-rule="evenodd" clip-rule="evenodd" d="M9.84687 1.86707C10.2887 1.86808 10.6461 2.22707 10.645 2.66889L10.6328 8.00223C10.6318 8.44405 10.2728 8.80141 9.831 8.80039C9.38918 8.79938 9.03183 8.44039 9.03284 7.99857L9.04504 2.66523C9.04606 2.22341 9.40505 1.86605 9.84687 1.86707Z" fill="#F7C100"/>
<path fill-rule="evenodd" clip-rule="evenodd" d="M2.36719 10.6672C2.36719 10.2254 2.72536 9.86719 3.16719 9.86719H29.8339C30.2757 9.86719 30.6339 10.2254 30.6339 10.6672C30.6339 11.109 30.2757 11.4672 29.8339 11.4672H3.16719C2.72536 11.4672 2.36719 11.109 2.36719 10.6672Z" fill="#F7C100"/>
<path d="M9.83464 16.0013C9.83464 16.7377 9.23768 17.3346 8.5013 17.3346C7.76492 17.3346 7.16797 16.7377 7.16797 16.0013C7.16797 15.2649 7.76492 14.668 8.5013 14.668C9.23768 14.668 9.83464 15.2649 9.83464 16.0013Z" fill="#F7C100"/>
<path d="M9.83464 24.0013C9.83464 24.7377 9.23768 25.3346 8.5013 25.3346C7.76492 25.3346 7.16797 24.7377 7.16797 24.0013C7.16797 23.2649 7.76492 22.668 8.5013 22.668C9.23768 22.668 9.83464 23.2649 9.83464 24.0013Z" fill="#F7C100"/>
<path d="M17.8346 16.0013C17.8346 16.7377 17.2377 17.3346 16.5013 17.3346C15.7649 17.3346 15.168 16.7377 15.168 16.0013C15.168 15.2649 15.7649 14.668 16.5013 14.668C17.2377 14.668 17.8346 15.2649 17.8346 16.0013Z" fill="#F7C100"/>
<path d="M17.8346 24.0013C17.8346 24.7377 17.2377 25.3346 16.5013 25.3346C15.7649 25.3346 15.168 24.7377 15.168 24.0013C15.168 23.2649 15.7649 22.668 16.5013 22.668C17.2377 22.668 17.8346 23.2649 17.8346 24.0013Z" fill="#F7C100"/>
<path d="M25.8346 16.0013C25.8346 16.7377 25.2377 17.3346 24.5013 17.3346C23.7649 17.3346 23.168 16.7377 23.168 16.0013C23.168 15.2649 23.7649 14.668 24.5013 14.668C25.2377 14.668 25.8346 15.2649 25.8346 16.0013Z" fill="#F7C100"/>
<path d="M25.8346 24.0013C25.8346 24.7377 25.2377 25.3346 24.5013 25.3346C23.7649 25.3346 23.168 24.7377 23.168 24.0013C23.168 23.2649 23.7649 22.668 24.5013 22.668C25.2377 22.668 25.8346 23.2649 25.8346 24.0013Z" fill="#F7C100"/>
</svg>
