<svg width="16" height="16" viewBox="0 0 16 16" fill="none" xmlns="http://www.w3.org/2000/svg">
<g clip-path="url(#clip0_13290_27757)">
<path fill-rule="evenodd" clip-rule="evenodd" d="M1.93428 2.85461C1.74456 3.2716 1.65744 3.87169 1.81576 4.73101C1.85579 4.94827 1.71211 5.15684 1.49486 5.19687C1.2776 5.23689 1.06903 5.09322 1.029 4.87596C0.849567 3.90202 0.931366 3.12714 1.20611 2.5233C1.48245 1.91593 1.93639 1.52056 2.42767 1.27814C2.91363 1.03834 3.43791 0.946402 3.88206 0.93486C4.31204 0.923685 4.72471 0.986819 4.97725 1.11147C5.17534 1.20925 5.25667 1.4491 5.15889 1.6472C5.06111 1.84529 4.82126 1.92662 4.62316 1.82884C4.53795 1.78678 4.27508 1.72492 3.90285 1.73459C3.54478 1.7439 3.14017 1.81865 2.78167 1.99555C2.42849 2.16983 2.1224 2.44114 1.93428 2.85461Z" fill="#707070"/>
<path fill-rule="evenodd" clip-rule="evenodd" d="M14.0658 2.85347C14.2554 3.26992 14.3426 3.86929 14.1843 4.7277C14.1442 4.94495 14.2878 5.15355 14.5051 5.19361C14.7223 5.23367 14.9309 5.09003 14.971 4.87278C15.1504 3.89965 15.0686 3.12533 14.7938 2.5219C14.5174 1.91498 14.0634 1.51996 13.5722 1.27779C13.0863 1.03824 12.562 0.946389 12.1179 0.934858C11.688 0.923695 11.2754 0.986766 11.0229 1.11127C10.8248 1.20898 10.7433 1.4488 10.841 1.64694C10.9388 1.84507 11.1786 1.92648 11.3767 1.82878C11.462 1.78674 11.7249 1.72492 12.0972 1.73459C12.4553 1.74389 12.8599 1.81858 13.2185 1.99533C13.5717 2.16947 13.8777 2.44052 14.0658 2.85347Z" fill="#707070"/>
<path fill-rule="evenodd" clip-rule="evenodd" d="M8.00059 3.0666C4.90779 3.0666 2.40059 5.57381 2.40059 8.6666C2.40059 11.7594 4.90779 14.2666 8.00059 14.2666C11.0934 14.2666 13.6006 11.7594 13.6006 8.6666C13.6006 5.57381 11.0934 3.0666 8.00059 3.0666ZM1.60059 8.6666C1.60059 5.13198 4.46596 2.2666 8.00059 2.2666C11.5352 2.2666 14.4006 5.13198 14.4006 8.6666C14.4006 12.2012 11.5352 15.0666 8.00059 15.0666C4.46596 15.0666 1.60059 12.2012 1.60059 8.6666Z" fill="#707070"/>
<path fill-rule="evenodd" clip-rule="evenodd" d="M12.0508 12.7177C12.207 12.5615 12.4602 12.5615 12.6164 12.7177L14.2831 14.3844C14.4393 14.5406 14.4393 14.7939 14.2831 14.9501C14.1269 15.1063 13.8736 15.1063 13.7174 14.9501L12.0508 13.2834C11.8945 13.1272 11.8945 12.874 12.0508 12.7177Z" fill="#707070"/>
<path fill-rule="evenodd" clip-rule="evenodd" d="M3.9501 12.7177C4.10631 12.874 4.10631 13.1272 3.9501 13.2834L2.28343 14.9501C2.12722 15.1063 1.87395 15.1063 1.71774 14.9501C1.56153 14.7939 1.56153 14.5406 1.71774 14.3844L3.38441 12.7177C3.54062 12.5615 3.79389 12.5615 3.9501 12.7177Z" fill="#707070"/>
<path fill-rule="evenodd" clip-rule="evenodd" d="M8.0006 4.2666C8.22151 4.2666 8.4006 4.44569 8.4006 4.6666V8.6666C8.4006 8.78531 8.34787 8.89789 8.25667 8.97389L6.25667 10.6406C6.08696 10.782 5.83473 10.7591 5.69331 10.5893C5.55188 10.4196 5.57481 10.1674 5.74452 10.026L7.6006 8.47925V4.6666C7.6006 4.44569 7.77968 4.2666 8.0006 4.2666Z" fill="#707070"/>
</g>
<defs>
<clipPath id="clip0_13290_27757">
<rect width="16" height="16" fill="white"/>
</clipPath>
</defs>
</svg>
