<svg width="17" height="18" viewBox="0 0 17 18" fill="none" xmlns="http://www.w3.org/2000/svg">
<path d="M16.4667 7.95002L15.3417 6.63336C15.1334 6.38336 14.9584 5.91669 14.9584 5.58336V4.16669C14.9584 3.28336 14.2334 2.55836 13.3501 2.55836H11.9334C11.6001 2.55836 11.1251 2.38336 10.8751 2.17502L9.5584 1.05002C8.9834 0.558358 8.04173 0.558358 7.46673 1.05002L6.1334 2.17502C5.8834 2.38336 5.41673 2.55836 5.0834 2.55836H3.64173C2.7584 2.55836 2.0334 3.28336 2.0334 4.16669V5.58336C2.0334 5.90836 1.86673 6.37502 1.6584 6.62502L0.533398 7.95002C0.0500651 8.53336 0.0500651 9.46669 0.533398 10.0334L1.6584 11.3584C1.86673 11.6 2.0334 12.075 2.0334 12.4V13.825C2.0334 14.7084 2.7584 15.4334 3.64173 15.4334H5.09173C5.41673 15.4334 5.89173 15.6084 6.14173 15.8167L7.4584 16.9417C8.0334 17.4334 8.97507 17.4334 9.55007 16.9417L10.8667 15.8167C11.1167 15.6084 11.5834 15.4334 11.9167 15.4334H13.3334C14.2167 15.4334 14.9417 14.7084 14.9417 13.825V12.4084C14.9417 12.075 15.1167 11.6084 15.3251 11.3584L16.4501 10.0417C16.9584 9.47503 16.9584 8.53336 16.4667 7.95002ZM7.87506 5.77502C7.87506 5.43336 8.1584 5.15002 8.50006 5.15002C8.84173 5.15002 9.12506 5.43336 9.12506 5.77502V9.80002C9.12506 10.1417 8.84173 10.425 8.50006 10.425C8.1584 10.425 7.87506 10.1417 7.87506 9.80002V5.77502ZM8.50006 13.0584C8.04173 13.0584 7.66673 12.6834 7.66673 12.225C7.66673 11.7667 8.0334 11.3917 8.50006 11.3917C8.9584 11.3917 9.3334 11.7667 9.3334 12.225C9.3334 12.6834 8.96673 13.0584 8.50006 13.0584Z" fill="#D91F11"/>
</svg>
