<svg width="16" height="16" viewBox="0 0 16 16" fill="none" xmlns="http://www.w3.org/2000/svg">
<g clip-path="url(#clip0_13822_79578)">
<path fill-rule="evenodd" clip-rule="evenodd" d="M0.26709 14.6666C0.26709 14.4457 0.446176 14.2666 0.66709 14.2666H15.3338C15.5547 14.2666 15.7338 14.4457 15.7338 14.6666C15.7338 14.8875 15.5547 15.0666 15.3338 15.0666H0.66709C0.446176 15.0666 0.26709 14.8875 0.26709 14.6666Z" fill="#707070"/>
<path fill-rule="evenodd" clip-rule="evenodd" d="M1.0725 12.2666H14.9281C14.9534 11.2779 14.9942 9.22995 14.3168 7.29902C13.925 6.18221 13.2999 5.13019 12.3109 4.35668C11.326 3.5864 9.94762 3.0666 8.00028 3.0666C6.05293 3.0666 4.67454 3.5864 3.68967 4.35668C2.70067 5.13019 2.07558 6.18221 1.68378 7.29902C1.00637 9.22995 1.04711 11.2779 1.0725 12.2666ZM3.19682 3.72652C4.34292 2.83014 5.90221 2.2666 8.00028 2.2666C10.0983 2.2666 11.6576 2.83014 12.8037 3.72652C13.9457 4.61968 14.6449 5.81766 15.0717 7.03418C15.8158 9.15518 15.7529 11.4106 15.7266 12.354C15.723 12.4846 15.72 12.5901 15.72 12.6666C15.72 12.8875 15.5409 13.0666 15.32 13.0666H0.680529C0.459617 13.0666 0.280532 12.8875 0.280529 12.6666C0.280527 12.5901 0.277588 12.4847 0.273948 12.354C0.247653 11.4106 0.184795 9.15518 0.928888 7.03418C1.35567 5.81766 2.05485 4.61968 3.19682 3.72652Z" fill="#707070"/>
<path fill-rule="evenodd" clip-rule="evenodd" d="M7.73359 2.33384C7.73359 2.33423 7.73359 2.33462 7.73359 2.33501C7.73283 2.55527 7.55404 2.73359 7.33359 2.73359C7.11268 2.73359 6.93359 2.55451 6.93359 2.33359H7.33359C6.93359 2.33359 6.93359 2.33373 6.93359 2.33359L6.9336 2.33236L6.9336 2.33075L6.93364 2.32642L6.93386 2.31348C6.93409 2.30301 6.93453 2.28887 6.93535 2.2716C6.93699 2.23715 6.94019 2.1896 6.94646 2.13317C6.95877 2.02234 6.98397 1.86755 7.03745 1.7071C7.13821 1.40484 7.40122 0.933594 8.00026 0.933594C8.5993 0.933594 8.86231 1.40484 8.96307 1.7071C9.01655 1.86755 9.04175 2.02234 9.05406 2.13317C9.06033 2.1896 9.06353 2.23715 9.06517 2.2716C9.06599 2.28887 9.06643 2.30301 9.06667 2.31348L9.06688 2.32642L9.06692 2.33075L9.06693 2.33236L9.06693 2.33332C9.06693 2.33346 9.06693 2.33359 8.66693 2.33359L9.06693 2.33332C9.06693 2.55424 8.88784 2.73359 8.66693 2.73359C8.44648 2.73359 8.26769 2.55527 8.26693 2.33501M8.26693 2.33501L8.26686 2.33125C8.26677 2.32707 8.26656 2.31972 8.26608 2.30965C8.26511 2.28941 8.2631 2.25883 8.25896 2.22152C8.25044 2.14485 8.23397 2.04964 8.20412 1.96008C8.13821 1.76234 8.06789 1.73359 8.00026 1.73359C7.93263 1.73359 7.86231 1.76234 7.7964 1.96008C7.76655 2.04964 7.75008 2.14485 7.74156 2.22152C7.73742 2.25883 7.73541 2.28941 7.73444 2.30965C7.73396 2.31972 7.73375 2.32707 7.73366 2.33125L7.73359 2.33501C7.73359 2.33521 7.73359 2.33524 7.73359 2.33501C7.73359 2.33462 7.73359 2.33423 7.73359 2.33384" fill="#707070"/>
<path fill-rule="evenodd" clip-rule="evenodd" d="M5.69137 4.4878C5.79016 4.6854 5.71007 4.92566 5.51248 5.02446C4.61685 5.47228 3.92119 6.30643 3.44678 7.33431C2.97299 8.36086 2.73359 9.55305 2.73359 10.6667C2.73359 10.8876 2.55451 11.0667 2.33359 11.0667C2.11268 11.0667 1.93359 10.8876 1.93359 10.6667C1.93359 9.44699 2.1942 8.13918 2.72041 6.99907C3.246 5.86029 4.05034 4.8611 5.15471 4.30892C5.3523 4.21012 5.59257 4.29021 5.69137 4.4878Z" fill="#707070"/>
</g>
<defs>
<clipPath id="clip0_13822_79578">
<rect width="16" height="16" fill="white"/>
</clipPath>
</defs>
</svg>
