<svg width="20" height="20" viewBox="0 0 20 20" fill="none" xmlns="http://www.w3.org/2000/svg">
<path fill-rule="evenodd" clip-rule="evenodd" d="M0.332031 5.83398C0.332031 4.17713 1.67518 2.83398 3.33203 2.83398H16.6654C18.3222 2.83398 19.6654 4.17713 19.6654 5.83398V14.1673C19.6654 15.8242 18.3222 17.1673 16.6654 17.1673H3.33203C1.67518 17.1673 0.332031 15.8242 0.332031 14.1673V5.83398ZM3.33203 3.83398C2.22746 3.83398 1.33203 4.72941 1.33203 5.83398V14.1673C1.33203 15.2719 2.22746 16.1673 3.33203 16.1673H16.6654C17.7699 16.1673 18.6654 15.2719 18.6654 14.1673V5.83398C18.6654 4.72941 17.7699 3.83398 16.6654 3.83398H3.33203Z" fill="#707070"/>
<path fill-rule="evenodd" clip-rule="evenodd" d="M11.6641 8.33398C11.6641 8.05784 11.8879 7.83398 12.1641 7.83398H16.6641C16.9402 7.83398 17.1641 8.05784 17.1641 8.33398C17.1641 8.61013 16.9402 8.83398 16.6641 8.83398H12.1641C11.8879 8.83398 11.6641 8.61013 11.6641 8.33398Z" fill="#707070"/>
<path fill-rule="evenodd" clip-rule="evenodd" d="M11.6641 12.5C11.6641 12.2239 11.8879 12 12.1641 12H16.664C16.9402 12 17.164 12.2239 17.164 12.5C17.164 12.7761 16.9402 13 16.664 13H12.1641C11.8879 13 11.6641 12.7761 11.6641 12.5Z" fill="#707070"/>
<path fill-rule="evenodd" clip-rule="evenodd" d="M6.33333 7.25C4.76853 7.25 3.5 8.51853 3.5 10.0833C3.5 11.6481 4.76853 12.9167 6.33333 12.9167C7.89814 12.9167 9.16667 11.6481 9.16667 10.0833C9.16667 8.51853 7.89814 7.25 6.33333 7.25ZM2.5 10.0833C2.5 7.96624 4.21624 6.25 6.33333 6.25C8.45042 6.25 10.1667 7.96624 10.1667 10.0833C10.1667 12.2004 8.45042 13.9167 6.33333 13.9167C4.21624 13.9167 2.5 12.2004 2.5 10.0833Z" fill="#707070"/>
<path fill-rule="evenodd" clip-rule="evenodd" d="M6.33333 7.91667C6.60948 7.91667 6.83333 8.14052 6.83333 8.41667V10.0833C6.83333 10.2159 6.78065 10.3431 6.68689 10.4369L5.85355 11.2702C5.65829 11.4655 5.34171 11.4655 5.14645 11.2702C4.95118 11.075 4.95118 10.7584 5.14645 10.5631L5.83333 9.87623V8.41667C5.83333 8.14052 6.05719 7.91667 6.33333 7.91667Z" fill="#707070"/>
</svg>
