<svg width="20" height="20" viewBox="0 0 20 20" fill="none" xmlns="http://www.w3.org/2000/svg">
<path fill-rule="evenodd" clip-rule="evenodd" d="M0.332031 5.83398C0.332031 4.17713 1.67518 2.83398 3.33203 2.83398H16.6654C18.3222 2.83398 19.6654 4.17713 19.6654 5.83398V14.1673C19.6654 15.8242 18.3222 17.1673 16.6654 17.1673H3.33203C1.67518 17.1673 0.332031 15.8242 0.332031 14.1673V5.83398ZM3.33203 3.83398C2.22746 3.83398 1.33203 4.72941 1.33203 5.83398V14.1673C1.33203 15.2719 2.22746 16.1673 3.33203 16.1673H16.6654C17.7699 16.1673 18.6654 15.2719 18.6654 14.1673V5.83398C18.6654 4.72941 17.7699 3.83398 16.6654 3.83398H3.33203Z" fill="#595959"/>
<path fill-rule="evenodd" clip-rule="evenodd" d="M3.86972 8.19254C3.86972 7.13739 4.7307 6.25 5.83324 6.25C6.93577 6.25 7.79676 7.13739 7.79676 8.19254C7.79676 9.2477 6.93577 10.1351 5.83324 10.1351C4.7307 10.1351 3.86972 9.2477 3.86972 8.19254ZM5.83324 7.20296C5.31346 7.20296 4.86106 7.6293 4.86106 8.19254C4.86106 8.75579 5.31346 9.18213 5.83324 9.18213C6.35301 9.18213 6.80542 8.75579 6.80542 8.19254C6.80542 7.6293 6.35301 7.20296 5.83324 7.20296ZM3.36448 10.1011C3.57376 9.94715 4.02063 9.71703 4.44405 9.99394C4.95996 10.3313 5.33841 10.4733 5.7067 10.4807C6.07729 10.4882 6.52287 10.361 7.17222 9.98478C7.37622 9.85769 7.60104 9.84925 7.78234 9.88669C7.96087 9.92355 8.11982 10.0074 8.24962 10.0983C8.51068 10.2813 8.74842 10.5594 8.91447 10.868C9.0809 11.1773 9.1973 11.5585 9.15952 11.9519C9.12015 12.3618 8.91435 12.757 8.49272 13.0524C7.76189 13.5645 6.66367 13.7607 5.68069 13.7496C5.17837 13.7439 4.67841 13.6842 4.23403 13.5702C3.7968 13.4581 3.377 13.2843 3.06871 13.0269C2.29749 12.383 2.44164 11.4556 2.73868 10.868C2.89238 10.564 3.11355 10.2856 3.36448 10.1011ZM3.98578 10.8477L3.98272 10.85C3.87962 10.9258 3.74773 11.0764 3.64628 11.2771C3.43439 11.6962 3.45656 12.0832 3.73509 12.3157C3.88355 12.4397 4.13992 12.5623 4.4978 12.6541C4.84852 12.744 5.26258 12.7954 5.69274 12.8003C6.57467 12.8102 7.41523 12.625 7.89314 12.2902C8.07595 12.1621 8.14343 12.0173 8.15794 11.8661C8.17407 11.6982 8.12485 11.497 8.01784 11.2981C7.91041 11.0985 7.76675 10.9424 7.65 10.8606C7.63827 10.8524 7.62766 10.8455 7.61823 10.8398C6.92726 11.2298 6.30883 11.4424 5.6852 11.4298C5.07354 11.4175 4.53195 11.19 3.98578 10.8477Z" fill="#595959"/>
<path fill-rule="evenodd" clip-rule="evenodd" d="M10.75 8.33398C10.75 8.05784 10.9739 7.83398 11.25 7.83398H16.6667C16.9428 7.83398 17.1667 8.05784 17.1667 8.33398C17.1667 8.61013 16.9428 8.83398 16.6667 8.83398H11.25C10.9739 8.83398 10.75 8.61013 10.75 8.33398Z" fill="#595959"/>
<path fill-rule="evenodd" clip-rule="evenodd" d="M10.75 12.5C10.75 12.2239 10.9739 12 11.25 12H16.6667C16.9428 12 17.1667 12.2239 17.1667 12.5C17.1667 12.7761 16.9428 13 16.6667 13H11.25C10.9739 13 10.75 12.7761 10.75 12.5Z" fill="#595959"/>
</svg>
