<svg width="20" height="20" viewBox="0 0 20 20" fill="none" xmlns="http://www.w3.org/2000/svg">
<path fill-rule="evenodd" clip-rule="evenodd" d="M4.58333 5.35649C4.09022 5.35649 3.69048 5.75624 3.69048 6.24935C3.69048 6.74246 4.09022 7.14221 4.58333 7.14221C5.07644 7.14221 5.47619 6.74246 5.47619 6.24935C5.47619 5.75624 5.07644 5.35649 4.58333 5.35649ZM2.5 6.24935C2.5 5.09876 3.43274 4.16602 4.58333 4.16602C5.73393 4.16602 6.66667 5.09876 6.66667 6.24935C6.66667 7.39994 5.73393 8.33268 4.58333 8.33268C3.43274 8.33268 2.5 7.39994 2.5 6.24935Z" fill="#707070"/>
<path fill-rule="evenodd" clip-rule="evenodd" d="M9.25378 9.00436C9.46014 9.2722 9.44493 9.68836 9.21981 9.93388L3.69027 15.9646C3.46516 16.2101 3.11538 16.192 2.90902 15.9242C2.70266 15.6563 2.71787 15.2402 2.94298 14.9946L8.47253 8.96394C8.69764 8.71842 9.04742 8.73652 9.25378 9.00436Z" fill="#707070"/>
<path fill-rule="evenodd" clip-rule="evenodd" d="M8.45688 8.98371C8.67282 8.72678 9.02293 8.72678 9.23887 8.98371L11.5428 11.7249C11.7588 11.9819 11.7588 12.3984 11.5428 12.6553C11.3269 12.9123 10.9768 12.9123 10.7609 12.6553L8.45688 9.91411C8.24094 9.65719 8.24094 9.24063 8.45688 8.98371Z" fill="#707070"/>
<path fill-rule="evenodd" clip-rule="evenodd" d="M14.7176 6.73822C14.9587 6.9613 15.0021 7.37464 14.8146 7.66144L11.5891 12.5957C11.4016 12.8825 11.0542 12.9341 10.8131 12.7111C10.572 12.488 10.5286 12.0746 10.7161 11.7878L13.9417 6.85363C14.1292 6.56682 14.4766 6.51515 14.7176 6.73822Z" fill="#707070"/>
<path fill-rule="evenodd" clip-rule="evenodd" d="M14.0435 6.73123C14.2878 6.51322 14.6344 6.57213 14.8176 6.86281L17.5824 11.2488C17.7656 11.5394 17.7161 11.9518 17.4718 12.1698C17.2275 12.3878 16.8809 12.3289 16.6977 12.0382L13.9329 7.65228C13.7497 7.3616 13.7992 6.94923 14.0435 6.73123Z" fill="#707070"/>
<path fill-rule="evenodd" clip-rule="evenodd" d="M2.39613 2.98181C1.68356 2.98181 1.10591 3.66909 1.10591 4.51689V15.4818C1.10591 16.3296 1.68356 17.0169 2.39613 17.0169H17.6039C18.3165 17.0169 18.8942 16.3295 18.8941 15.4816L18.8928 4.51669C18.8927 3.66896 18.3151 2.98181 17.6026 2.98181H2.39613ZM0 4.51689C0 2.9424 1.07279 1.66602 2.39613 1.66602H17.6026C18.9258 1.66602 19.9986 2.94216 19.9988 4.51651L20 15.4814C20.0002 17.0561 18.9273 18.3327 17.6039 18.3327H2.39613C1.07279 18.3327 0 17.0563 0 15.4818V4.51689Z" fill="#707070"/>
</svg>
