<svg width="24" height="24" viewBox="0 0 24 24" fill="none" xmlns="http://www.w3.org/2000/svg">
<path fill-rule="evenodd" clip-rule="evenodd" d="M2.66804 4.68601C2.61641 4.73247 2.60039 4.78013 2.60039 4.81857V21.1822C2.60039 21.2206 2.61641 21.2683 2.66804 21.3148C2.72068 21.3622 2.80437 21.4004 2.90948 21.4004H21.0913C21.1964 21.4004 21.2801 21.3622 21.3327 21.3148C21.3844 21.2683 21.4004 21.2206 21.4004 21.1822V4.81857C21.4004 4.78013 21.3844 4.73247 21.3327 4.68601C21.2801 4.63863 21.1964 4.60039 21.0913 4.60039H2.90948C2.80437 4.60039 2.72068 4.63863 2.66804 4.68601ZM1.40039 4.81857C1.40039 3.97743 2.13706 3.40039 2.90948 3.40039H21.0913C21.8637 3.40039 22.6004 3.97743 22.6004 4.81857V21.1822C22.6004 22.0233 21.8637 22.6004 21.0913 22.6004H2.90948C2.13706 22.6004 1.40039 22.0233 1.40039 21.1822V4.81857Z" fill="#FFCD29"/>
<path fill-rule="evenodd" clip-rule="evenodd" d="M17.0004 1.40039C17.3318 1.40039 17.6004 1.66902 17.6004 2.00039L17.6004 6.00039C17.6004 6.33176 17.3318 6.60039 17.0004 6.60039C16.669 6.60039 16.4004 6.33176 16.4004 6.00039L16.4004 2.00039C16.4004 1.66902 16.669 1.40039 17.0004 1.40039Z" fill="#FFCD29"/>
<path fill-rule="evenodd" clip-rule="evenodd" d="M7.01113 1.39981C7.3425 1.40057 7.61051 1.66981 7.60976 2.00118L7.6006 6.00118C7.59984 6.33255 7.3306 6.60057 6.99923 6.59981C6.66786 6.59905 6.39985 6.32981 6.4006 5.99844L6.40976 1.99844C6.41052 1.66707 6.67976 1.39905 7.01113 1.39981Z" fill="#FFCD29"/>
<path fill-rule="evenodd" clip-rule="evenodd" d="M1.40039 8.00039C1.40039 7.66902 1.66902 7.40039 2.00039 7.40039H22.0004C22.3318 7.40039 22.6004 7.66902 22.6004 8.00039C22.6004 8.33176 22.3318 8.60039 22.0004 8.60039H2.00039C1.66902 8.60039 1.40039 8.33176 1.40039 8.00039Z" fill="#FFCD29"/>
<path fill-rule="evenodd" clip-rule="evenodd" d="M14.4004 15.0004C14.4004 14.669 14.669 14.4004 15.0004 14.4004H19.0004C19.3318 14.4004 19.6004 14.669 19.6004 15.0004V19.0004C19.6004 19.3318 19.3318 19.6004 19.0004 19.6004H15.0004C14.669 19.6004 14.4004 19.3318 14.4004 19.0004V15.0004ZM15.6004 15.6004V18.4004H18.4004V15.6004H15.6004Z" fill="#FFCD29"/>
</svg>
