<svg width="16" height="16" viewBox="0 0 16 16" fill="none" xmlns="http://www.w3.org/2000/svg">
<path fill-rule="evenodd" clip-rule="evenodd" d="M8 0.833252C4.41015 0.833252 1.5 3.7434 1.5 7.33325C1.5 9.54609 2.96252 11.5042 4.40732 12.864C5.14046 13.554 5.89527 14.1151 6.51425 14.506C6.8234 14.7012 7.10463 14.8578 7.33734 14.9677C7.45331 15.0224 7.56371 15.0687 7.66372 15.1022C7.7523 15.1319 7.87487 15.1666 8 15.1666C8.12513 15.1666 8.2477 15.1319 8.33628 15.1022C8.43629 15.0687 8.54669 15.0224 8.66266 14.9677C8.89537 14.8578 9.1766 14.7012 9.48575 14.506C10.1047 14.1151 10.8595 13.554 11.5927 12.864C13.0375 11.5042 14.5 9.54609 14.5 7.33325C14.5 3.7434 11.5899 0.833252 8 0.833252ZM10.0799 6.87321C10.0799 8.02197 9.14867 8.95321 7.99992 8.95321C6.85117 8.95321 5.91992 8.02197 5.91992 6.87321C5.91992 5.72446 6.85117 4.79321 7.99992 4.79321C9.14867 4.79321 10.0799 5.72446 10.0799 6.87321Z" fill="#545454"/>
</svg>
