<svg width="32" height="32" viewBox="0 0 32 32" fill="none" xmlns="http://www.w3.org/2000/svg">
<path fill-rule="evenodd" clip-rule="evenodd" d="M15.3828 3.85829C15.2163 4.19112 15.1339 4.70805 15.1339 5.33385C15.1339 6.12137 14.7368 6.84688 14.356 7.37083C13.9613 7.91405 13.4927 8.36465 13.167 8.62522C12.822 8.90122 12.3185 8.84529 12.0425 8.50028C11.7665 8.15527 11.8225 7.65183 12.1675 7.37583C12.3973 7.19195 12.7621 6.84255 13.0617 6.43021C13.3754 5.99861 13.5339 5.61301 13.5339 5.33385C13.5339 4.62633 13.6181 3.80992 13.9517 3.14275C14.1241 2.79785 14.3745 2.47027 14.7339 2.23071C15.0982 1.98782 15.5272 1.86719 16.0006 1.86719C16.4739 1.86719 16.9029 1.98782 17.2672 2.23071C17.6266 2.47027 17.877 2.79785 18.0494 3.14275C18.383 3.80992 18.4672 4.62633 18.4672 5.33385C18.4672 5.61301 18.6257 5.99861 18.9394 6.43021C19.239 6.84255 19.6038 7.19195 19.8336 7.37583C20.1787 7.65183 20.2346 8.15527 19.9586 8.50028C19.6826 8.84529 19.1791 8.90122 18.8341 8.62522C18.5084 8.36465 18.0398 7.91405 17.6451 7.37083C17.2643 6.84688 16.8672 6.12137 16.8672 5.33385C16.8672 4.70805 16.7848 4.19112 16.6183 3.85829C16.5408 3.7032 16.4579 3.6141 16.3797 3.56199C16.3066 3.51323 16.1939 3.46719 16.0006 3.46719C15.8072 3.46719 15.6945 3.51323 15.6214 3.56199C15.5432 3.6141 15.4603 3.7032 15.3828 3.85829Z" fill="#FFFEFA"/>
<path fill-rule="evenodd" clip-rule="evenodd" d="M10.3391 12.1312C10.2286 12.1312 10.1391 12.2208 10.1391 12.3312C10.1391 12.4417 10.2286 12.5312 10.3391 12.5312H21.6724C21.7829 12.5312 21.8724 12.4417 21.8724 12.3312C21.8724 12.2208 21.7829 12.1312 21.6724 12.1312H10.3391ZM8.53906 12.3312C8.53906 11.3371 9.34495 10.5312 10.3391 10.5312H21.6724C22.6665 10.5312 23.4724 11.3371 23.4724 12.3312C23.4724 13.3254 22.6665 14.1312 21.6724 14.1312H10.3391C9.34495 14.1312 8.53906 13.3254 8.53906 12.3312Z" fill="#FFFEFA"/>
<path fill-rule="evenodd" clip-rule="evenodd" d="M11.4938 14.1312C11.0761 14.1312 10.6641 14.2285 10.2905 14.4153C9.37894 14.8711 8.80312 15.8028 8.80312 16.822V27.9979C8.80312 28.2925 9.04191 28.5312 9.33646 28.5312H22.6698C22.9643 28.5312 23.2031 28.2925 23.2031 27.9979V16.822C23.2031 15.8028 22.6273 14.8711 21.7157 14.4153C21.3421 14.2285 20.9301 14.1312 20.5124 14.1312H11.4938ZM9.57497 12.9842C10.1708 12.6863 10.8277 12.5312 11.4938 12.5312H20.5124C21.1785 12.5312 21.8355 12.6863 22.4313 12.9842C23.8849 13.711 24.8031 15.1968 24.8031 16.822V27.9979C24.8031 29.1761 23.848 30.1312 22.6698 30.1312H9.33646C8.15825 30.1312 7.20312 29.1761 7.20312 27.9979V16.822C7.20312 15.1968 8.12135 13.711 9.57497 12.9842Z" fill="#FFFEFA"/>
<path fill-rule="evenodd" clip-rule="evenodd" d="M17.3391 15.2031C17.7809 15.2031 18.1391 15.5613 18.1391 16.0031V26.6698C18.1391 27.1116 17.7809 27.4698 17.3391 27.4698C16.8972 27.4698 16.5391 27.1116 16.5391 26.6698V16.0031C16.5391 15.5613 16.8972 15.2031 17.3391 15.2031Z" fill="#FFFEFA"/>
<path fill-rule="evenodd" clip-rule="evenodd" d="M14 17.3307C14 16.9625 14.2985 16.6641 14.6667 16.6641H17.3333C17.7015 16.6641 18 16.9625 18 17.3307C18 17.6989 17.7015 17.9974 17.3333 17.9974H14.6667C14.2985 17.9974 14 17.6989 14 17.3307Z" fill="#FFFEFA"/>
<path fill-rule="evenodd" clip-rule="evenodd" d="M15.3359 20.0026C15.3359 19.6344 15.6344 19.3359 16.0026 19.3359H17.3359C17.7041 19.3359 18.0026 19.6344 18.0026 20.0026C18.0026 20.3708 17.7041 20.6693 17.3359 20.6693H16.0026C15.6344 20.6693 15.3359 20.3708 15.3359 20.0026Z" fill="#FFFEFA"/>
<path fill-rule="evenodd" clip-rule="evenodd" d="M14 22.6667C14 22.2985 14.2985 22 14.6667 22H17.3333C17.7015 22 18 22.2985 18 22.6667C18 23.0349 17.7015 23.3333 17.3333 23.3333H14.6667C14.2985 23.3333 14 23.0349 14 22.6667Z" fill="#FFFEFA"/>
<path fill-rule="evenodd" clip-rule="evenodd" d="M15.3359 25.3307C15.3359 24.9625 15.6344 24.6641 16.0026 24.6641H17.3359C17.7041 24.6641 18.0026 24.9625 18.0026 25.3307C18.0026 25.6989 17.7041 25.9974 17.3359 25.9974H16.0026C15.6344 25.9974 15.3359 25.6989 15.3359 25.3307Z" fill="#FFFEFA"/>
<path fill-rule="evenodd" clip-rule="evenodd" d="M12.6724 8.80313C12.3778 8.80313 12.1391 9.04191 12.1391 9.33646V10.6698C12.1391 11.1116 11.7809 11.4698 11.3391 11.4698C10.8972 11.4698 10.5391 11.1116 10.5391 10.6698V9.33646C10.5391 8.15825 11.4942 7.20312 12.6724 7.20312H19.3391C20.5173 7.20312 21.4724 8.15825 21.4724 9.33646V10.6698C21.4724 11.1116 21.1142 11.4698 20.6724 11.4698C20.2306 11.4698 19.8724 11.1116 19.8724 10.6698V9.33646C19.8724 9.04191 19.6336 8.80313 19.3391 8.80313H12.6724Z" fill="#FFFEFA"/>
</svg>
