<svg width="16" height="16" viewBox="0 0 16 16" fill="none" xmlns="http://www.w3.org/2000/svg">
<path fill-rule="evenodd" clip-rule="evenodd" d="M5.13368 3.1585C4.55033 3.92818 4.32683 4.93817 4.47434 5.87385C4.54536 6.32433 4.80507 6.96567 5.18478 7.70308C5.5592 8.43019 6.03117 9.21488 6.49674 9.94116C6.96172 10.6665 7.41708 11.3286 7.75642 11.8096C7.85073 11.9432 7.93601 12.0628 8.00996 12.1658C8.0804 12.0736 8.16067 11.9675 8.24888 11.8494C8.5873 11.3963 9.04145 10.7679 9.50515 10.0658C9.96946 9.36278 10.4398 8.59129 10.8128 7.85132C11.1894 7.10421 11.4513 6.41929 11.5241 5.88219C11.6767 4.75707 11.4433 3.7527 10.8722 3.03716C10.3072 2.32924 9.36973 1.85139 7.99956 1.85139C6.65085 1.85139 5.70901 2.39939 5.13368 3.1585ZM7.99956 12.8205C7.68271 13.0542 7.68268 13.0542 7.68264 13.0541L7.6718 13.0395L7.64108 12.9979C7.61427 12.9615 7.5751 12.9081 7.52522 12.8395C7.42549 12.7023 7.28291 12.5044 7.11091 12.2606C6.7671 11.7733 6.30483 11.1013 5.83181 10.3634C5.35939 9.6264 4.87301 8.81875 4.48286 8.0611C4.09802 7.31375 3.78696 6.57792 3.69514 5.99553C3.51699 4.86546 3.78264 3.63756 4.504 2.68578C5.23337 1.72343 6.41177 1.06641 7.99956 1.06641C9.56588 1.06641 10.7495 1.62144 11.4898 2.5489C12.224 3.46875 12.48 4.70226 12.3058 5.98718C12.2152 6.65511 11.9059 7.43343 11.5178 8.20335C11.126 8.98042 10.6379 9.77976 10.1642 10.497C9.68995 11.2151 9.22652 11.8562 8.88188 12.3177C8.70944 12.5485 8.56645 12.7348 8.46634 12.8636C8.41628 12.928 8.37693 12.9781 8.34995 13.0123L8.31897 13.0513L8.31084 13.0615L8.30867 13.0642L8.30808 13.065C8.30802 13.0651 8.30781 13.0653 7.99956 12.8205ZM7.99956 12.8205L8.30808 13.065C8.23171 13.1602 8.11494 13.2151 7.99251 13.213C7.87008 13.2108 7.75554 13.152 7.68264 13.0541L7.99956 12.8205Z" fill="#707070"/>
<path fill-rule="evenodd" clip-rule="evenodd" d="M8 6.51613C8.61562 6.51613 9.19411 5.98305 9.19411 5.22651C9.19411 4.46997 8.61562 3.93689 8 3.93689C7.38438 3.93689 6.80589 4.46997 6.80589 5.22651C6.80589 5.98305 7.38438 6.51613 8 6.51613ZM8 7.30653C9.10457 7.30653 10 6.37528 10 5.22651C10 4.07774 9.10457 3.14648 8 3.14648C6.89543 3.14648 6 4.07774 6 5.22651C6 6.37528 6.89543 7.30653 8 7.30653Z" fill="#707070"/>
<path d="M4.74017 11.9997C5.26809 11.8243 5.82434 11.7383 6.04241 11.7383C6.26021 11.7383 6.43677 11.914 6.43677 12.1308C6.43677 12.3475 6.26021 12.5233 6.04241 12.5233C5.93344 12.5233 5.46404 12.5868 4.98997 12.7443C4.75709 12.8217 4.54499 12.9149 4.38511 13.0201C4.21936 13.1291 4.15383 13.2218 4.1349 13.2816C4.1159 13.3416 4.12107 13.3755 4.12822 13.3973C4.13662 13.4228 4.15926 13.4646 4.22196 13.5192C4.35676 13.6367 4.61198 13.7575 5.001 13.8602C5.76687 14.0623 6.8683 14.1483 7.99926 14.1483C9.13009 14.1484 10.2314 14.0623 10.9974 13.8602C11.3865 13.7576 11.6419 13.6367 11.7769 13.5191C11.8398 13.4644 11.8626 13.4225 11.8711 13.3968C11.8783 13.375 11.8835 13.3411 11.8646 13.2811C11.8542 13.2481 11.801 13.1647 11.6278 13.0531C11.4657 12.9488 11.2494 12.8524 11.0128 12.77C10.7789 12.6884 10.5395 12.6255 10.3402 12.5831C10.1303 12.5385 9.9948 12.5233 9.95824 12.5233C9.74044 12.5233 9.56388 12.3475 9.56388 12.1308C9.56388 11.914 9.74044 11.7383 9.95824 11.7383C10.0839 11.7383 10.2888 11.7696 10.5048 11.8154C10.7314 11.8636 11.0034 11.935 11.2735 12.0291C11.541 12.1223 11.8215 12.2429 12.0563 12.3941C12.2799 12.5382 12.5235 12.749 12.6172 13.0462C12.6796 13.2445 12.6846 13.4472 12.6204 13.6419C12.5573 13.8328 12.4373 13.9872 12.2962 14.11C12.0232 14.3476 11.6261 14.5065 11.1995 14.619C10.3343 14.8473 9.1521 14.9334 7.99926 14.9333C6.84634 14.9333 5.66401 14.8472 4.79887 14.6189C4.37239 14.5064 3.97528 14.3475 3.70249 14.1099C3.5614 13.987 3.44144 13.8325 3.37862 13.6415C3.31455 13.4467 3.31989 13.2439 3.38263 13.0457C3.47986 12.7386 3.717 12.5187 3.95011 12.3653C4.18909 12.208 4.47206 12.0888 4.74017 11.9997Z" fill="#707070"/>
</svg>
