<svg width="16" height="16" viewBox="0 0 16 16" fill="none" xmlns="http://www.w3.org/2000/svg">
<g clip-path="url(#clip0_13822_79586)">
<path fill-rule="evenodd" clip-rule="evenodd" d="M11.3331 0.932617C11.554 0.932617 11.7331 1.1117 11.7331 1.33262L11.7331 3.99928C11.7331 4.2202 11.554 4.39928 11.3331 4.39928C11.1122 4.39928 10.9331 4.2202 10.9331 3.99928L10.9331 1.33262C10.9331 1.1117 11.1122 0.932617 11.3331 0.932617Z" fill="#707070"/>
<path fill-rule="evenodd" clip-rule="evenodd" d="M4.67344 0.932556C4.89435 0.933062 5.07303 1.11256 5.07252 1.33347L5.06642 4.00014C5.06591 4.22105 4.88642 4.39973 4.6655 4.39922C4.44459 4.39872 4.26591 4.21922 4.26642 3.99831L4.27252 1.33164C4.27303 1.11073 4.45252 0.932051 4.67344 0.932556Z" fill="#707070"/>
<path fill-rule="evenodd" clip-rule="evenodd" d="M0.933105 5.33262C0.933105 5.1117 1.11219 4.93262 1.33311 4.93262H14.6664C14.8874 4.93262 15.0664 5.1117 15.0664 5.33262C15.0664 5.55353 14.8874 5.73262 14.6664 5.73262H1.33311C1.11219 5.73262 0.933105 5.55353 0.933105 5.33262Z" fill="#707070"/>
<path fill-rule="evenodd" clip-rule="evenodd" d="M0.933105 3.33327C0.933105 2.74417 1.41067 2.2666 1.99977 2.2666H13.9998C14.5889 2.2666 15.0664 2.74416 15.0664 3.33327V7.6666C15.0664 7.88752 14.8874 8.0666 14.6664 8.0666C14.4455 8.0666 14.2664 7.88752 14.2664 7.6666V3.33327C14.2664 3.18599 14.147 3.0666 13.9998 3.0666H1.99977C1.8525 3.0666 1.73311 3.18599 1.73311 3.33327V13.9999C1.73311 14.1472 1.8525 14.2666 1.99977 14.2666H7.33311C7.55402 14.2666 7.73311 14.4457 7.73311 14.6666C7.73311 14.8875 7.55402 15.0666 7.33311 15.0666H1.99977C1.41067 15.0666 0.933105 14.589 0.933105 13.9999V3.33327Z" fill="#707070"/>
<path fill-rule="evenodd" clip-rule="evenodd" d="M11.3329 8.39961C11.1315 8.39961 10.9352 8.41985 10.7458 8.45829C10.5294 8.50224 10.3182 8.36236 10.2743 8.14586C10.2303 7.92936 10.3702 7.71823 10.5867 7.67428C10.8282 7.62527 11.0778 7.59961 11.3329 7.59961C13.3948 7.59961 15.0663 9.27108 15.0663 11.3329C15.0663 13.3948 13.3948 15.0663 11.3329 15.0663C9.27108 15.0663 7.59961 13.3948 7.59961 11.3329C7.59961 10.1114 8.18667 9.02693 9.09235 8.34648C9.26897 8.21378 9.51972 8.24939 9.65241 8.42601C9.78511 8.60263 9.74951 8.85338 9.57289 8.98607C8.85967 9.52193 8.39961 10.3736 8.39961 11.3329C8.39961 12.953 9.71291 14.2663 11.3329 14.2663C12.953 14.2663 14.2663 12.953 14.2663 11.3329C14.2663 9.71291 12.953 8.39961 11.3329 8.39961Z" fill="#707070"/>
<path fill-rule="evenodd" clip-rule="evenodd" d="M7.59961 8.6666C7.59961 8.44569 7.7787 8.2666 7.99961 8.2666H9.33294C9.55386 8.2666 9.73294 8.44569 9.73294 8.6666V9.99993C9.73294 10.2208 9.55386 10.3999 9.33294 10.3999C9.11203 10.3999 8.93294 10.2208 8.93294 9.99993V9.0666H7.99961C7.7787 9.0666 7.59961 8.88752 7.59961 8.6666Z" fill="#707070"/>
<path fill-rule="evenodd" clip-rule="evenodd" d="M11.3331 8.93359C11.554 8.93359 11.7331 9.11268 11.7331 9.33359V11.3336C11.7331 11.4397 11.691 11.5414 11.6159 11.6164L10.6159 12.6164C10.4597 12.7726 10.2065 12.7726 10.0503 12.6164C9.89405 12.4602 9.89405 12.207 10.0503 12.0508L10.9331 11.1679V9.33359C10.9331 9.11268 11.1122 8.93359 11.3331 8.93359Z" fill="#707070"/>
</g>
<defs>
<clipPath id="clip0_13822_79586">
<rect width="16" height="16" fill="white"/>
</clipPath>
</defs>
</svg>
