<svg width="16" height="16" viewBox="0 0 16 16" fill="none" xmlns="http://www.w3.org/2000/svg">
<g clip-path="url(#clip0_13822_79597)">
<path fill-rule="evenodd" clip-rule="evenodd" d="M1.7782 3.12368C1.74379 3.15465 1.73311 3.18643 1.73311 3.21206V14.1211C1.73311 14.1468 1.74379 14.1785 1.7782 14.2095C1.8133 14.2411 1.86909 14.2666 1.93917 14.2666H14.0604C14.1305 14.2666 14.1863 14.2411 14.2213 14.2095C14.2558 14.1785 14.2664 14.1468 14.2664 14.1211V3.21206C14.2664 3.18643 14.2558 3.15465 14.2213 3.12368C14.1863 3.0921 14.1305 3.0666 14.0604 3.0666H1.93917C1.86909 3.0666 1.8133 3.0921 1.7782 3.12368ZM0.933105 3.21206C0.933105 2.6513 1.42422 2.2666 1.93917 2.2666H14.0604C14.5753 2.2666 15.0664 2.6513 15.0664 3.21206V14.1211C15.0664 14.6819 14.5753 15.0666 14.0604 15.0666H1.93917C1.42422 15.0666 0.933105 14.6819 0.933105 14.1211V3.21206Z" fill="#707070"/>
<path fill-rule="evenodd" clip-rule="evenodd" d="M11.3331 0.933594C11.554 0.933594 11.7331 1.11268 11.7331 1.33359L11.7331 4.00026C11.7331 4.22117 11.554 4.40026 11.3331 4.40026C11.1122 4.40026 10.9331 4.22117 10.9331 4.00026L10.9331 1.33359C10.9331 1.11268 11.1122 0.933594 11.3331 0.933594Z" fill="#707070"/>
<path fill-rule="evenodd" clip-rule="evenodd" d="M4.67344 0.933533C4.89435 0.934038 5.07303 1.11353 5.07252 1.33445L5.06642 4.00111C5.06591 4.22203 4.88642 4.4007 4.6655 4.4002C4.44459 4.39969 4.26591 4.2202 4.26642 3.99928L4.27252 1.33262C4.27303 1.1117 4.45252 0.933027 4.67344 0.933533Z" fill="#707070"/>
<path fill-rule="evenodd" clip-rule="evenodd" d="M0.933105 5.33359C0.933105 5.11268 1.11219 4.93359 1.33311 4.93359H14.6664C14.8874 4.93359 15.0664 5.11268 15.0664 5.33359C15.0664 5.55451 14.8874 5.73359 14.6664 5.73359H1.33311C1.11219 5.73359 0.933105 5.55451 0.933105 5.33359Z" fill="#707070"/>
<path fill-rule="evenodd" clip-rule="evenodd" d="M7.74991 7.68824C7.896 7.57137 8.10358 7.57137 8.24967 7.68824L9.91633 9.02157C10.0888 9.15958 10.1168 9.41129 9.9788 9.5838C9.8408 9.7563 9.58908 9.78427 9.41658 9.64627L8.39979 8.83284V12.0006C8.39979 12.2215 8.2207 12.4006 7.99979 12.4006C7.77887 12.4006 7.59979 12.2215 7.59979 12.0006V8.83284L6.583 9.64627C6.41049 9.78427 6.15878 9.7563 6.02077 9.5838C5.88277 9.41129 5.91074 9.15958 6.08324 9.02157L7.74991 7.68824Z" fill="#707070"/>
</g>
<defs>
<clipPath id="clip0_13822_79597">
<rect width="16" height="16" fill="white"/>
</clipPath>
</defs>
</svg>
