<svg width="20" height="20" viewBox="0 0 20 20" fill="none" xmlns="http://www.w3.org/2000/svg">
<path fill-rule="evenodd" clip-rule="evenodd" d="M16.9135 5.23139C16.8041 5.12172 16.627 5.12172 16.5176 5.23139L16.252 5.49755L17.513 6.76123L17.7748 6.48137C17.8788 6.37017 17.876 6.19595 17.7685 6.08823L16.9135 5.23139ZM16.8416 7.47887L15.5583 6.19277L11.3665 10.3934L10.8374 12.2492L12.6173 11.9944L16.8416 7.47887ZM15.2104 5.15091L10.5815 9.78964C10.5226 9.84866 10.4797 9.9217 10.4569 10.0019L9.68533 12.7079C9.63971 12.8679 9.67821 13.0402 9.78762 13.1655C9.89704 13.2909 10.0625 13.3523 10.2272 13.3287L12.9275 12.9421C13.0382 12.9263 13.1401 12.8731 13.2165 12.7915L18.492 7.15234C18.9576 6.65467 18.9451 5.87691 18.4637 5.39448L17.6087 4.53765C17.1155 4.04344 16.3155 4.04344 15.8224 4.53765L15.2114 5.14994L15.2104 5.15091Z" fill="#E9B704"/>
<path fill-rule="evenodd" clip-rule="evenodd" d="M3.33317 15.5C2.68884 15.5 2.1665 16.0223 2.1665 16.6667C2.1665 17.311 2.68884 17.8333 3.33317 17.8333H12.4998C12.776 17.8333 12.9998 18.0572 12.9998 18.3333C12.9998 18.6095 12.776 18.8333 12.4998 18.8333H3.33317C2.13655 18.8333 1.1665 17.8633 1.1665 16.6667C1.1665 15.47 2.13655 14.5 3.33317 14.5H12.4998C12.776 14.5 12.9998 14.7239 12.9998 15C12.9998 15.2761 12.776 15.5 12.4998 15.5H3.33317Z" fill="#E9B704"/>
<path d="M5.41667 2.16699C4.77233 2.16699 4.25 2.68933 4.25 3.33366V13.7503C4.25 14.0265 4.02614 14.2503 3.75 14.2503C3.47386 14.2503 3.25 14.0265 3.25 13.7503V3.33366C3.25 2.13704 4.22005 1.16699 5.41667 1.16699H16.6667C17.8633 1.16699 18.8333 2.13704 18.8333 3.33366H17.8333C17.8333 2.68933 17.311 2.16699 16.6667 2.16699H5.41667Z" fill="#E9B704"/>
<path d="M14.1665 1.66699H16.3332C17.4377 1.66699 18.3332 2.56242 18.3332 3.66699V3.75033" stroke="#E9B704" stroke-width="1.2" stroke-linecap="round"/>
<path d="M16.2497 2.16699C15.6053 2.16699 15.083 2.68933 15.083 3.33366V4.58374C15.083 5.41707 14.083 5.41707 14.083 4.58374V3.33366C14.083 2.13704 15.0531 1.16699 16.2497 1.16699H16.6663C16.9425 1.16699 17.1663 1.39085 17.1663 1.66699C17.1663 1.94313 16.9425 2.16699 16.6663 2.16699H16.2497Z" fill="#E9B704"/>
<path d="M15.083 16.667C15.083 17.8636 14.113 18.8337 12.9163 18.8337H12.4997C11.3031 18.8337 10.333 17.8636 10.333 16.667C10.333 15.4704 11.3031 14.5003 12.4997 14.5003H12.9163C13.1925 14.5003 13.4163 14.7242 13.4163 15.0003C13.4163 15.2765 13.1925 15.5003 12.9163 15.5003H12.4997C11.8553 15.5003 11.333 16.0227 11.333 16.667C11.333 17.3113 11.8553 17.8337 12.4997 17.8337H12.9163C13.5607 17.8337 14.083 17.3113 14.083 16.667V14.1671C14.083 13.3337 15.083 13.3337 15.083 14.1671V16.667Z" fill="#E9B704"/>
<path fill-rule="evenodd" clip-rule="evenodd" d="M5.83301 4.16699C5.83301 3.89085 6.05687 3.66699 6.33301 3.66699H11.333C11.6091 3.66699 11.833 3.89085 11.833 4.16699C11.833 4.44313 11.6091 4.66699 11.333 4.66699H6.33301C6.05687 4.66699 5.83301 4.44313 5.83301 4.16699Z" fill="#E9B704"/>
<path fill-rule="evenodd" clip-rule="evenodd" d="M5.83301 7.5C5.83301 7.22386 6.05687 7 6.33301 7H11.1663C11.4425 7 11.6663 7.22386 11.6663 7.5C11.6663 7.77614 11.4425 8 11.1663 8H6.33301C6.05687 8 5.83301 7.77614 5.83301 7.5Z" fill="#E9B704"/>
<path fill-rule="evenodd" clip-rule="evenodd" d="M5.83301 10.834C5.83301 10.5578 6.05687 10.334 6.33301 10.334H8.66634C8.94248 10.334 9.16634 10.5578 9.16634 10.834C9.16634 11.1101 8.94248 11.334 8.66634 11.334H6.33301C6.05687 11.334 5.83301 11.1101 5.83301 10.834Z" fill="#E9B704"/>
</svg>
