<svg width="32" height="32" viewBox="0 0 32 32" fill="none" xmlns="http://www.w3.org/2000/svg">
<path fill-rule="evenodd" clip-rule="evenodd" d="M18.1069 20.771C19.1557 19.7222 20.8562 19.7222 21.905 20.771C22.9537 21.8198 22.9538 23.5202 21.905 24.569L17.905 28.569C16.8562 29.6178 15.1557 29.6178 14.1069 28.569C13.0581 27.5202 13.0581 25.8198 14.1069 24.771L18.1069 20.771ZM20.7736 21.9023C20.3496 21.4784 19.6622 21.4784 19.2383 21.9023L17.804 23.3367L19.3393 24.872L20.7736 23.4376C21.1975 23.0137 21.1975 22.3263 20.7736 21.9023ZM18.2079 26.0033L16.6726 24.468L15.2383 25.9023C14.8143 26.3263 14.8143 27.0137 15.2383 27.4376C15.6622 27.8616 16.3496 27.8616 16.7736 27.4376L18.2079 26.0033Z" fill="#FFFEFA"/>
<path fill-rule="evenodd" clip-rule="evenodd" d="M20.3339 26.8031C19.8552 26.8031 19.4672 27.1911 19.4672 27.6698C19.4672 28.1484 19.8552 28.5365 20.3339 28.5365H22.5339V26.8031H20.3339ZM24.1339 26.8031V28.5365H26.3339C26.8125 28.5365 27.2005 28.1484 27.2005 27.6698C27.2005 27.1911 26.8125 26.8031 26.3339 26.8031H24.1339ZM17.8672 27.6698C17.8672 26.3075 18.9716 25.2031 20.3339 25.2031H26.3339C27.6962 25.2031 28.8005 26.3075 28.8005 27.6698C28.8005 29.0321 27.6962 30.1365 26.3339 30.1365H20.3339C18.9716 30.1365 17.8672 29.0321 17.8672 27.6698Z" fill="#FFFEFA"/>
<path fill-rule="evenodd" clip-rule="evenodd" d="M6.66979 11.4672C5.63886 11.4672 4.80313 12.3029 4.80313 13.3339V26.6672C4.80313 27.6981 5.63886 28.5339 6.66979 28.5339H12.6698C13.1116 28.5339 13.4698 28.892 13.4698 29.3339C13.4698 29.7757 13.1116 30.1339 12.6698 30.1339H6.66979C4.7552 30.1339 3.20312 28.5818 3.20312 26.6672V13.3339C3.20312 11.4193 4.7552 9.86719 6.66979 9.86719H20.0031C21.9177 9.86719 23.4698 11.4193 23.4698 13.3339V18.5646C23.4698 19.0065 23.1116 19.3646 22.6698 19.3646C22.228 19.3646 21.8698 19.0065 21.8698 18.5646V13.3339C21.8698 12.3029 21.0341 11.4672 20.0031 11.4672H6.66979Z" fill="#FFFEFA"/>
<path fill-rule="evenodd" clip-rule="evenodd" d="M8.53906 6.66719C8.53906 6.22536 8.89723 5.86719 9.33906 5.86719H17.3391C17.7809 5.86719 18.1391 6.22536 18.1391 6.66719V10.6672C18.1391 11.109 17.7809 11.4672 17.3391 11.4672H9.33906C8.89723 11.4672 8.53906 11.109 8.53906 10.6672V6.66719ZM10.1391 7.46719V9.86719H16.5391V7.46719H10.1391Z" fill="#FFFEFA"/>
<path fill-rule="evenodd" clip-rule="evenodd" d="M4.53906 4.00052C4.53906 2.82231 5.49419 1.86719 6.6724 1.86719H20.0057C21.1839 1.86719 22.1391 2.82231 22.1391 4.00052V6.66719C22.1391 7.10901 21.7809 7.46719 21.3391 7.46719H5.33906C4.89723 7.46719 4.53906 7.10901 4.53906 6.66719V4.00052ZM6.6724 3.46719C6.37784 3.46719 6.13906 3.70597 6.13906 4.00052V5.86719H20.5391V4.00052C20.5391 3.70597 20.3003 3.46719 20.0057 3.46719H6.6724Z" fill="#FFFEFA"/>
<path fill-rule="evenodd" clip-rule="evenodd" d="M8.00052 14.1313C7.70597 14.1313 7.46719 14.37 7.46719 14.6646V17.3313C7.46719 17.7731 7.10902 18.1313 6.66719 18.1313C6.22536 18.1313 5.86719 17.7731 5.86719 17.3313V14.6646C5.86719 13.4864 6.82231 12.5312 8.00052 12.5312H10.6672C11.109 12.5312 11.4672 12.8894 11.4672 13.3313C11.4672 13.7731 11.109 14.1313 10.6672 14.1313H8.00052Z" fill="#FFFEFA"/>
</svg>
