<svg width="20" height="20" viewBox="0 0 20 20" fill="none" xmlns="http://www.w3.org/2000/svg">
<path fill-rule="evenodd" clip-rule="evenodd" d="M9.99935 2.16602C5.67312 2.16602 2.16602 5.67312 2.16602 9.99935C2.16602 14.3256 5.67312 17.8327 9.99935 17.8327C14.3256 17.8327 17.8327 14.3256 17.8327 9.99935C17.8327 5.67312 14.3256 2.16602 9.99935 2.16602ZM1.16602 9.99935C1.16602 5.12083 5.12083 1.16602 9.99935 1.16602C14.8779 1.16602 18.8327 5.12083 18.8327 9.99935C18.8327 14.8779 14.8779 18.8327 9.99935 18.8327C5.12083 18.8327 1.16602 14.8779 1.16602 9.99935Z" fill="#707070"/>
<path fill-rule="evenodd" clip-rule="evenodd" d="M10 4.5C10.2761 4.5 10.5 4.72386 10.5 5V10C10.5 10.1326 10.4473 10.2598 10.3536 10.3536L7.85355 12.8536C7.65829 13.0488 7.34171 13.0488 7.14645 12.8536C6.95118 12.6583 6.95118 12.3417 7.14645 12.1464L9.5 9.79289V5C9.5 4.72386 9.72386 4.5 10 4.5Z" fill="#707070"/>
</svg>
