<svg width="16" height="16" viewBox="0 0 16 16" fill="none" xmlns="http://www.w3.org/2000/svg">
<g clip-path="url(#clip0_13230_160452)">
<path d="M1.93428 2.85382C1.74456 3.2708 1.65744 3.8709 1.81576 4.73022C1.85579 4.94748 1.71211 5.15605 1.49486 5.19608C1.2776 5.2361 1.06903 5.09243 1.029 4.87517C0.849567 3.90123 0.931366 3.12635 1.20611 2.52251C1.48245 1.91514 1.93639 1.51977 2.42767 1.27735C2.64757 1.16884 2.87532 1.09061 3.09994 1.0364L3.5593 1.7624C3.29843 1.79925 3.02907 1.87268 2.78167 1.99476C2.42849 2.16904 2.1224 2.44035 1.93428 2.85382Z" fill="#707070"/>
<path d="M4.97725 1.11068C5.17534 1.20846 5.25667 1.44831 5.15889 1.64641C5.0959 1.77402 4.97395 1.85318 4.84218 1.86721L4.27975 0.945312C4.55671 0.968906 4.80446 1.02539 4.97725 1.11068Z" fill="#707070"/>
<path fill-rule="evenodd" clip-rule="evenodd" d="M14.0658 2.85347C14.2554 3.26992 14.3426 3.86929 14.1843 4.7277C14.1442 4.94495 14.2878 5.15355 14.5051 5.19361C14.7223 5.23367 14.9309 5.09003 14.971 4.87278C15.1504 3.89965 15.0686 3.12533 14.7938 2.5219C14.5174 1.91498 14.0634 1.51996 13.5722 1.27779C13.0863 1.03824 12.562 0.946389 12.1179 0.934858C11.688 0.923695 11.2754 0.986766 11.0229 1.11127C10.8248 1.20898 10.7433 1.4488 10.841 1.64694C10.9388 1.84507 11.1786 1.92648 11.3767 1.82878C11.462 1.78674 11.7249 1.72492 12.0972 1.73459C12.4553 1.74389 12.8599 1.81858 13.2185 1.99533C13.5717 2.16947 13.8777 2.44052 14.0658 2.85347Z" fill="#707070"/>
<path d="M2.40059 8.66563C2.40059 11.7584 4.90779 14.2656 8.00059 14.2656C9.0945 14.2656 10.1151 13.952 10.9775 13.4097L11.4062 14.0852C10.42 14.7063 9.25223 15.0656 8.00059 15.0656C4.46596 15.0656 1.60059 12.2002 1.60059 8.66563C1.60059 6.4082 2.76934 4.42374 4.53476 3.28437L4.96309 3.96019C3.42109 4.95765 2.40059 6.69246 2.40059 8.66563Z" fill="#707070"/>
<path d="M13.6006 8.66563C13.6006 5.57283 11.0934 3.06563 8.00059 3.06563C7.23384 3.06563 6.50309 3.21972 5.8376 3.49863L5.40613 2.81334C6.19914 2.46125 7.07702 2.26562 8.00059 2.26562C11.5352 2.26562 14.4006 5.131 14.4006 8.66563C14.4006 10.6085 13.5349 12.3491 12.1682 13.5228L11.7344 12.8393C12.8798 11.8139 13.6006 10.3239 13.6006 8.66563Z" fill="#707070"/>
<path fill-rule="evenodd" clip-rule="evenodd" d="M12.0508 12.7148C12.207 12.5586 12.4602 12.5586 12.6164 12.7148L14.2831 14.3815C14.4393 14.5377 14.4393 14.791 14.2831 14.9472C14.1269 15.1034 13.8736 15.1034 13.7174 14.9472L12.0508 13.2805C11.8945 13.1243 11.8945 12.871 12.0508 12.7148Z" fill="#707070"/>
<path fill-rule="evenodd" clip-rule="evenodd" d="M3.9501 12.7148C4.1063 12.871 4.1063 13.1243 3.9501 13.2805L2.28343 14.9472C2.12722 15.1034 1.87395 15.1034 1.71774 14.9472C1.56153 14.791 1.56153 14.5377 1.71774 14.3815L3.38441 12.7148C3.54062 12.5586 3.79389 12.5586 3.9501 12.7148Z" fill="#707070"/>
<path d="M8.0006 4.26562C8.22151 4.26562 8.4006 4.44471 8.4006 4.66563V7.55693L7.6006 6.33236V4.66563C7.6006 4.44471 7.77968 4.26562 8.0006 4.26562Z" fill="#707070"/>
<path d="M6.25667 10.6396C6.08696 10.781 5.83473 10.7581 5.69331 10.5884C5.55188 10.4187 5.57481 10.1664 5.74452 10.025L7.6006 8.47828V8.09177L8.19067 9.02791L6.25667 10.6396Z" fill="#707070"/>
<path fill-rule="evenodd" clip-rule="evenodd" d="M3.11889 0.328211C3.30527 0.209608 3.55251 0.264549 3.67111 0.450925L13.0044 15.1176C13.123 15.304 13.0681 15.5512 12.8817 15.6698C12.6954 15.7884 12.4481 15.7335 12.3295 15.5471L2.99618 0.880426C2.87758 0.694049 2.93252 0.446814 3.11889 0.328211Z" fill="#707070"/>
</g>
<defs>
<clipPath id="clip0_13230_160452">
<rect width="16" height="16" fill="white"/>
</clipPath>
</defs>
</svg>
