<svg width="32" height="32" viewBox="0 0 32 32" fill="none" xmlns="http://www.w3.org/2000/svg">
<path fill-rule="evenodd" clip-rule="evenodd" d="M22.6672 1.86719C23.109 1.86719 23.4672 2.22536 23.4672 2.66719L23.4672 8.00052C23.4672 8.44235 23.109 8.80052 22.6672 8.80052C22.2254 8.80052 21.8672 8.44235 21.8672 8.00052L21.8672 2.66719C21.8672 2.22536 22.2254 1.86719 22.6672 1.86719Z" fill="#FFFEFA"/>
<path fill-rule="evenodd" clip-rule="evenodd" d="M9.34687 1.86902C9.7887 1.87003 10.1461 2.22902 10.145 2.67085L10.1328 8.00418C10.1318 8.44601 9.77283 8.80336 9.331 8.80235C8.88918 8.80134 8.53183 8.44235 8.53284 8.00052L8.54504 2.66719C8.54606 2.22536 8.90505 1.86801 9.34687 1.86902Z" fill="#FFFEFA"/>
<path fill-rule="evenodd" clip-rule="evenodd" d="M1.86719 10.6672C1.86719 10.2254 2.22536 9.86719 2.66719 9.86719H29.3339C29.7757 9.86719 30.1339 10.2254 30.1339 10.6672C30.1339 11.109 29.7757 11.4672 29.3339 11.4672H2.66719C2.22536 11.4672 1.86719 11.109 1.86719 10.6672Z" fill="#FFFEFA"/>
<path fill-rule="evenodd" clip-rule="evenodd" d="M6.1015 14.1015C6.41392 13.7891 6.92045 13.7891 7.23287 14.1015L9.89954 16.7682C10.212 17.0806 10.212 17.5871 9.89954 17.8995C9.58712 18.212 9.08059 18.212 8.76817 17.8995L6.1015 15.2329C5.78908 14.9205 5.78908 14.4139 6.1015 14.1015Z" fill="#FFFEFA"/>
<path fill-rule="evenodd" clip-rule="evenodd" d="M9.8985 14.1015C9.58608 13.7891 9.07955 13.7891 8.76713 14.1015L6.10046 16.7682C5.78804 17.0806 5.78804 17.5871 6.10046 17.8995C6.41288 18.212 6.91941 18.212 7.23183 17.8995L9.8985 15.2329C10.2109 14.9205 10.2109 14.4139 9.8985 14.1015Z" fill="#FFFEFA"/>
<path fill-rule="evenodd" clip-rule="evenodd" d="M24.0005 19.4672C21.4968 19.4672 19.4672 21.4968 19.4672 24.0005C19.4672 24.49 19.5445 24.9599 19.6869 25.3995C19.8231 25.8198 19.5928 26.2709 19.1725 26.4071C18.7522 26.5433 18.301 26.313 18.1648 25.8927C17.9714 25.2957 17.8672 24.6595 17.8672 24.0005C17.8672 20.6132 20.6132 17.8672 24.0005 17.8672C24.8124 17.8672 25.5893 18.0254 26.3007 18.3133C26.7102 18.4791 26.9079 18.9455 26.7421 19.355C26.5763 19.7646 26.1099 19.9622 25.7003 19.7964C25.1765 19.5844 24.6032 19.4672 24.0005 19.4672ZM28.646 21.259C29.0556 21.0932 29.5219 21.2908 29.6877 21.7003C29.9757 22.4117 30.1339 23.1886 30.1339 24.0005C30.1339 27.3879 27.3879 30.1339 24.0005 30.1339C23.1886 30.1339 22.4117 29.9757 21.7003 29.6877C21.2908 29.5219 21.0932 29.0556 21.259 28.646C21.4248 28.2365 21.8911 28.0388 22.3007 28.2046C22.8246 28.4167 23.3979 28.5339 24.0005 28.5339C26.5042 28.5339 28.5339 26.5042 28.5339 24.0005C28.5339 23.3979 28.4167 22.8246 28.2046 22.3007C28.0388 21.8911 28.2365 21.4248 28.646 21.259Z" fill="#FFFEFA"/>
<path fill-rule="evenodd" clip-rule="evenodd" d="M23.9995 20.7969C24.294 20.7969 24.5328 21.0357 24.5328 21.3302V21.6133C24.6566 21.6336 24.7765 21.6728 24.8891 21.7287C25.0611 21.8142 25.2104 21.936 25.3318 22.0817C25.453 22.2272 25.5452 22.3949 25.6069 22.5735C25.6685 22.7521 25.6995 22.9411 25.6995 23.1302C25.6995 23.4248 25.4607 23.6635 25.1661 23.6635C24.8716 23.6635 24.6328 23.4248 24.6328 23.1302C24.6328 23.0567 24.6207 22.9856 24.5986 22.9215C24.5765 22.8575 24.5459 22.8048 24.5124 22.7645C24.4789 22.7245 24.4446 22.699 24.4143 22.6839C24.3846 22.6691 24.3572 22.6635 24.3328 22.6635H23.5828C23.5379 22.6635 23.4702 22.6842 23.4033 22.7645C23.334 22.8477 23.2828 22.9782 23.2828 23.1302C23.2828 23.2822 23.334 23.4127 23.4033 23.4959C23.4702 23.5762 23.5379 23.5969 23.5828 23.5969H24.4995C24.8966 23.5969 25.2528 23.7869 25.4985 24.0817C25.7417 24.3736 25.8661 24.7518 25.8661 25.1302C25.8661 25.5086 25.7417 25.8868 25.4985 26.1787C25.2597 26.4652 24.9165 26.6528 24.5328 26.6631C24.5328 26.9576 24.294 27.1969 23.9995 27.1969C23.7049 27.1969 23.4661 26.9581 23.4661 26.6635C23.0825 26.6532 22.7392 26.4652 22.5005 26.1787C22.2572 25.8868 22.1328 25.5086 22.1328 25.1302C22.1328 24.8357 22.3716 24.5969 22.6661 24.5969C22.9607 24.5969 23.1995 24.8357 23.1995 25.1302C23.1995 25.2822 23.2506 25.4127 23.3199 25.4959C23.3869 25.5762 23.4546 25.5969 23.4995 25.5969H24.4995C24.5444 25.5969 24.6121 25.5762 24.679 25.4959C24.7483 25.4127 24.7995 25.2822 24.7995 25.1302C24.7995 24.9782 24.7483 24.8477 24.679 24.7645C24.6121 24.6842 24.5444 24.6635 24.4995 24.6635H23.5828C23.1857 24.6635 22.8295 24.4735 22.5838 24.1787C22.3406 23.8868 22.2161 23.5086 22.2161 23.1302C22.2161 22.7518 22.3406 22.3736 22.5838 22.0817C22.8052 21.8161 23.1163 21.6355 23.4661 21.6024V21.3302C23.4661 21.0357 23.7049 20.7969 23.9995 20.7969Z" fill="#FFFEFA"/>
<path fill-rule="evenodd" clip-rule="evenodd" d="M4.00052 6.13125C3.70597 6.13125 3.46719 6.37003 3.46719 6.66458V27.9979C3.46719 28.2925 3.70597 28.5312 4.00052 28.5312H16.0005C16.4424 28.5312 16.8005 28.8894 16.8005 29.3313C16.8005 29.7731 16.4424 30.1313 16.0005 30.1313H4.00052C2.82231 30.1313 1.86719 29.1761 1.86719 27.9979V6.66458C1.86719 5.48638 2.82231 4.53125 4.00052 4.53125H28.0005C29.1787 4.53125 30.1339 5.48638 30.1339 6.66458V17.3313C30.1339 17.7731 29.7757 18.1313 29.3339 18.1313C28.892 18.1313 28.5339 17.7731 28.5339 17.3313V6.66458C28.5339 6.37003 28.2951 6.13125 28.0005 6.13125H4.00052Z" fill="#FFFEFA"/>
<path d="M17.3307 15.9974C17.3307 16.7338 16.7338 17.3307 15.9974 17.3307C15.261 17.3307 14.6641 16.7338 14.6641 15.9974C14.6641 15.261 15.261 14.6641 15.9974 14.6641C16.7338 14.6641 17.3307 15.261 17.3307 15.9974Z" fill="#FFFEFA"/>
<path d="M9.33073 23.9974C9.33073 24.7338 8.73378 25.3307 7.9974 25.3307C7.26102 25.3307 6.66406 24.7338 6.66406 23.9974C6.66406 23.261 7.26102 22.6641 7.9974 22.6641C8.73378 22.6641 9.33073 23.261 9.33073 23.9974Z" fill="#FFFEFA"/>
<path fill-rule="evenodd" clip-rule="evenodd" d="M29.9359 18.8045C30.2269 19.137 30.1932 19.6424 29.8607 19.9333L19.194 29.2667C18.8615 29.5576 18.3561 29.5239 18.0651 29.1914C17.7742 28.8589 17.8079 28.3535 18.1404 28.0625L28.8071 18.7292C29.1396 18.4383 29.645 18.4719 29.9359 18.8045Z" fill="#FFFEFA"/>
</svg>
