<svg width="20" height="20" viewBox="0 0 20 20" fill="none" xmlns="http://www.w3.org/2000/svg">
<path d="M10.4368 1.42506C10.3489 1.26528 10.181 1.16602 9.9987 1.16602C9.81635 1.16602 9.64847 1.26528 9.56059 1.42506L0.393923 18.0917C0.30873 18.2466 0.311662 18.435 0.401636 18.5872C0.49161 18.7393 0.655251 18.8327 0.832031 18.8327H19.1654C19.3421 18.8327 19.5058 18.7393 19.5958 18.5872C19.6857 18.435 19.6887 18.2466 19.6035 18.0917L10.4368 1.42506Z" fill="#FF4D4D"/>
<path fill-rule="evenodd" clip-rule="evenodd" d="M11.3327 7.91601C11.3327 6.94935 10.816 6.16602 9.99935 6.16602C9.18269 6.16601 8.66602 6.94933 8.66602 7.916C8.66602 8.79477 8.88154 10.3968 9.0885 11.742C9.19322 12.4227 9.29788 13.0506 9.37633 13.5083C9.41557 13.7372 9.44828 13.9236 9.47121 14.053L9.49787 14.2025L9.5074 14.2553C9.55063 14.4931 9.75771 14.666 9.99935 14.666C10.241 14.666 10.4481 14.4931 10.4913 14.2553L10.5008 14.2025L10.5275 14.053C10.5504 13.9236 10.5831 13.7372 10.6224 13.5083C10.7008 13.0506 10.8055 12.4227 10.9102 11.742C11.1172 10.3968 11.3327 8.79478 11.3327 7.91601ZM9.99935 14.166C9.50741 14.2554 9.5074 14.2553 9.5074 14.2553L9.99935 14.166ZM10.4913 14.2553C10.4913 14.2553 10.4913 14.2554 9.99935 14.166L10.4913 14.2553Z" fill="white"/>
<path d="M10.8327 15.8333C10.8327 16.2936 10.4596 16.6667 9.99935 16.6667C9.53911 16.6667 9.16602 16.2936 9.16602 15.8333C9.16602 15.3731 9.53911 15 9.99935 15C10.4596 15 10.8327 15.3731 10.8327 15.8333Z" fill="white"/>
</svg>
