<svg width="16" height="16" viewBox="0 0 16 16" fill="none" xmlns="http://www.w3.org/2000/svg">
<path fill-rule="evenodd" clip-rule="evenodd" d="M11.3336 0.933594C11.5545 0.933594 11.7336 1.11268 11.7336 1.33359L11.7336 4.00026C11.7336 4.22117 11.5545 4.40026 11.3336 4.40026C11.1127 4.40026 10.9336 4.22117 10.9336 4.00026L10.9336 1.33359C10.9336 1.11268 11.1127 0.933594 11.3336 0.933594Z" fill="#333333"/>
<path fill-rule="evenodd" clip-rule="evenodd" d="M4.67344 0.932556C4.89435 0.933062 5.07303 1.11256 5.07252 1.33347L5.06642 4.00014C5.06591 4.22105 4.88642 4.39973 4.6655 4.39922C4.44459 4.39872 4.26591 4.21922 4.26642 3.99831L4.27252 1.33164C4.27303 1.11073 4.45252 0.932051 4.67344 0.932556Z" fill="#333333"/>
<path fill-rule="evenodd" clip-rule="evenodd" d="M0.933594 5.33359C0.933594 5.11268 1.11268 4.93359 1.33359 4.93359H14.6669C14.8878 4.93359 15.0669 5.11268 15.0669 5.33359C15.0669 5.55451 14.8878 5.73359 14.6669 5.73359H1.33359C1.11268 5.73359 0.933594 5.55451 0.933594 5.33359Z" fill="#333333"/>
<path fill-rule="evenodd" clip-rule="evenodd" d="M0.933594 3.33229C0.933594 2.74319 1.41116 2.26562 2.00026 2.26562H14.0003C14.5894 2.26562 15.0669 2.74319 15.0669 3.33229V7.66563C15.0669 7.88654 14.8878 8.06563 14.6669 8.06563C14.446 8.06563 14.2669 7.88654 14.2669 7.66563V3.33229C14.2669 3.18502 14.1475 3.06563 14.0003 3.06563H2.00026C1.85298 3.06563 1.73359 3.18502 1.73359 3.33229V13.999C1.73359 14.1462 1.85298 14.2656 2.00026 14.2656H7.33359C7.55451 14.2656 7.73359 14.4447 7.73359 14.6656C7.73359 14.8865 7.55451 15.0656 7.33359 15.0656H2.00026C1.41116 15.0656 0.933594 14.5881 0.933594 13.999V3.33229Z" fill="#333333"/>
<path fill-rule="evenodd" clip-rule="evenodd" d="M11.3329 8.39961C11.1315 8.39961 10.9352 8.41985 10.7458 8.45829C10.5294 8.50224 10.3182 8.36236 10.2743 8.14586C10.2303 7.92936 10.3702 7.71823 10.5867 7.67428C10.8282 7.62527 11.0778 7.59961 11.3329 7.59961C13.3948 7.59961 15.0663 9.27108 15.0663 11.3329C15.0663 13.3948 13.3948 15.0663 11.3329 15.0663C9.27108 15.0663 7.59961 13.3948 7.59961 11.3329C7.59961 10.1114 8.18667 9.02693 9.09235 8.34648C9.26897 8.21378 9.51972 8.24939 9.65241 8.42601C9.78511 8.60263 9.74951 8.85338 9.57289 8.98607C8.85967 9.52193 8.39961 10.3736 8.39961 11.3329C8.39961 12.953 9.71291 14.2663 11.3329 14.2663C12.953 14.2663 14.2663 12.953 14.2663 11.3329C14.2663 9.71291 12.953 8.39961 11.3329 8.39961Z" fill="#333333"/>
<path fill-rule="evenodd" clip-rule="evenodd" d="M7.59961 8.66563C7.59961 8.44471 7.7787 8.26562 7.99961 8.26562H9.33294C9.55386 8.26562 9.73294 8.44471 9.73294 8.66563V9.99896C9.73294 10.2199 9.55386 10.399 9.33294 10.399C9.11203 10.399 8.93294 10.2199 8.93294 9.99896V9.06563H7.99961C7.7787 9.06563 7.59961 8.88654 7.59961 8.66563Z" fill="#333333"/>
<path fill-rule="evenodd" clip-rule="evenodd" d="M11.3336 8.93359C11.5545 8.93359 11.7336 9.11268 11.7336 9.33359V11.3336C11.7336 11.4397 11.6915 11.5414 11.6164 11.6164L10.6164 12.6164C10.4602 12.7726 10.207 12.7726 10.0508 12.6164C9.89454 12.4602 9.89454 12.207 10.0508 12.0508L10.9336 11.1679V9.33359C10.9336 9.11268 11.1127 8.93359 11.3336 8.93359Z" fill="#333333"/>
</svg>
