<svg width="22" height="22" viewBox="0 0 22 22" fill="none" xmlns="http://www.w3.org/2000/svg">
<path fill-rule="evenodd" clip-rule="evenodd" d="M16.0004 0.400391C16.3318 0.400391 16.6004 0.66902 16.6004 1.00039L16.6004 5.00039C16.6004 5.33176 16.3318 5.60039 16.0004 5.60039C15.669 5.60039 15.4004 5.33176 15.4004 5.00039L15.4004 1.00039C15.4004 0.66902 15.669 0.400391 16.0004 0.400391Z" fill="#FF7029"/>
<path fill-rule="evenodd" clip-rule="evenodd" d="M6.01015 0.399811C6.34152 0.400569 6.60954 0.669813 6.60878 1.00118L6.59962 5.00118C6.59887 5.33255 6.32962 5.60057 5.99825 5.59981C5.66688 5.59905 5.39887 5.32981 5.39963 4.99844L5.40878 0.998436C5.40954 0.667066 5.67878 0.399052 6.01015 0.399811Z" fill="#FF7029"/>
<path fill-rule="evenodd" clip-rule="evenodd" d="M0.400391 7.00039C0.400391 6.66902 0.66902 6.40039 1.00039 6.40039H21.0004C21.3318 6.40039 21.6004 6.66902 21.6004 7.00039C21.6004 7.33176 21.3318 7.60039 21.0004 7.60039H1.00039C0.66902 7.60039 0.400391 7.33176 0.400391 7.00039Z" fill="#FF7029"/>
<path fill-rule="evenodd" clip-rule="evenodd" d="M0.400391 4.00039C0.400391 3.11674 1.11673 2.40039 2.00039 2.40039H20.0004C20.884 2.40039 21.6004 3.11673 21.6004 4.00039V10.5004C21.6004 10.8318 21.3318 11.1004 21.0004 11.1004C20.669 11.1004 20.4004 10.8318 20.4004 10.5004V4.00039C20.4004 3.77948 20.2213 3.60039 20.0004 3.60039H2.00039C1.77948 3.60039 1.60039 3.77948 1.60039 4.00039V20.0004C1.60039 20.2213 1.77948 20.4004 2.00039 20.4004H10.0004C10.3318 20.4004 10.6004 20.669 10.6004 21.0004C10.6004 21.3318 10.3318 21.6004 10.0004 21.6004H2.00039C1.11673 21.6004 0.400391 20.884 0.400391 20.0004V4.00039Z" fill="#FF7029"/>
<path fill-rule="evenodd" clip-rule="evenodd" d="M16.0004 11.6004C15.6982 11.6004 15.4038 11.6308 15.1198 11.6884C14.795 11.7543 14.4783 11.5445 14.4124 11.2198C14.3465 10.895 14.5563 10.5783 14.881 10.5124C15.2432 10.4389 15.6176 10.4004 16.0004 10.4004C19.0932 10.4004 21.6004 12.9076 21.6004 16.0004C21.6004 19.0932 19.0932 21.6004 16.0004 21.6004C12.9076 21.6004 10.4004 19.0932 10.4004 16.0004C10.4004 14.1681 11.281 12.5414 12.6395 11.5207C12.9044 11.3216 13.2806 11.3751 13.4796 11.64C13.6786 11.9049 13.6252 12.281 13.3603 12.4801C12.2905 13.2839 11.6004 14.5615 11.6004 16.0004C11.6004 18.4304 13.5703 20.4004 16.0004 20.4004C18.4304 20.4004 20.4004 18.4304 20.4004 16.0004C20.4004 13.5703 18.4304 11.6004 16.0004 11.6004Z" fill="#FF7029"/>
<path fill-rule="evenodd" clip-rule="evenodd" d="M10.4004 12.0004C10.4004 11.669 10.669 11.4004 11.0004 11.4004H13.0004C13.3318 11.4004 13.6004 11.669 13.6004 12.0004V14.0004C13.6004 14.3318 13.3318 14.6004 13.0004 14.6004C12.669 14.6004 12.4004 14.3318 12.4004 14.0004V12.6004H11.0004C10.669 12.6004 10.4004 12.3318 10.4004 12.0004Z" fill="#FF7029"/>
<path fill-rule="evenodd" clip-rule="evenodd" d="M16.0004 12.4004C16.3318 12.4004 16.6004 12.669 16.6004 13.0004V16.0004C16.6004 16.1595 16.5372 16.3121 16.4247 16.4247L14.9247 17.9247C14.6903 18.159 14.3104 18.159 14.0761 17.9247C13.8418 17.6903 13.8418 17.3104 14.0761 17.0761L15.4004 15.7519V13.0004C15.4004 12.669 15.669 12.4004 16.0004 12.4004Z" fill="#FF7029"/>
<path d="M6 11C6 11.5523 5.55228 12 5 12C4.44772 12 4 11.5523 4 11C4 10.4477 4.44772 10 5 10C5.55228 10 6 10.4477 6 11Z" fill="#FF7029"/>
<path d="M6 17C6 17.5523 5.55228 18 5 18C4.44772 18 4 17.5523 4 17C4 16.4477 4.44772 16 5 16C5.55228 16 6 16.4477 6 17Z" fill="#FF7029"/>
</svg>
