<svg width="10" height="10" viewBox="0 0 10 10" fill="none" xmlns="http://www.w3.org/2000/svg">
<path fill-rule="evenodd" clip-rule="evenodd" d="M0.734835 0.734835C0.881282 0.588388 1.11872 0.588388 1.26517 0.734835L9.26517 8.73483C9.41161 8.88128 9.41161 9.11872 9.26517 9.26517C9.11872 9.41161 8.88128 9.41161 8.73483 9.26517L0.734835 1.26517C0.588388 1.11872 0.588388 0.881282 0.734835 0.734835Z" fill="white"/>
<path fill-rule="evenodd" clip-rule="evenodd" d="M9.26517 0.734835C9.41161 0.881282 9.41161 1.11872 9.26517 1.26517L1.26517 9.26517C1.11872 9.41161 0.881282 9.41161 0.734835 9.26517C0.588388 9.11872 0.588388 8.88128 0.734835 8.73483L8.73483 0.734835C8.88128 0.588388 9.11872 0.588388 9.26517 0.734835Z" fill="white"/>
</svg>
