<svg xmlns="http://www.w3.org/2000/svg" width="21" height="20" viewBox="0 0 21 20" fill="none">
  <path d="M7.16666 4.79199C6.82499 4.79199 6.54166 4.50866 6.54166 4.16699V1.66699C6.54166 1.32533 6.82499 1.04199 7.16666 1.04199C7.50832 1.04199 7.79166 1.32533 7.79166 1.66699V4.16699C7.79166 4.50866 7.50832 4.79199 7.16666 4.79199Z" fill="#8A8A8A"/>
  <path d="M13.8333 4.79199C13.4917 4.79199 13.2083 4.50866 13.2083 4.16699V1.66699C13.2083 1.32533 13.4917 1.04199 13.8333 1.04199C14.175 1.04199 14.4583 1.32533 14.4583 1.66699V4.16699C14.4583 4.50866 14.175 4.79199 13.8333 4.79199Z" fill="#8A8A8A"/>
  <path d="M7.58333 12.0829C7.475 12.0829 7.36667 12.058 7.26667 12.0163C7.15833 11.9746 7.075 11.9163 6.99167 11.8413C6.84167 11.6829 6.75 11.4746 6.75 11.2496C6.75 11.1413 6.775 11.0329 6.81667 10.9329C6.85833 10.8329 6.91667 10.7413 6.99167 10.6579C7.075 10.5829 7.15833 10.5246 7.26667 10.4829C7.56667 10.3579 7.94167 10.4246 8.175 10.6579C8.325 10.8163 8.41667 11.0329 8.41667 11.2496C8.41667 11.2996 8.40833 11.358 8.4 11.4163C8.39167 11.4663 8.375 11.5163 8.35 11.5663C8.33333 11.6163 8.30833 11.6663 8.275 11.7163C8.25 11.7579 8.20833 11.7996 8.175 11.8413C8.01667 11.9913 7.8 12.0829 7.58333 12.0829Z" fill="#8A8A8A"/>
  <path d="M10.5 12.0837C10.3917 12.0837 10.2833 12.0587 10.1833 12.0171C10.075 11.9754 9.99166 11.917 9.90832 11.842C9.75832 11.6837 9.66666 11.4754 9.66666 11.2504C9.66666 11.142 9.69166 11.0337 9.73332 10.9337C9.77499 10.8337 9.83332 10.7421 9.90832 10.6587C9.99166 10.5837 10.075 10.5254 10.1833 10.4837C10.4833 10.3504 10.8583 10.4254 11.0917 10.6587C11.2417 10.8171 11.3333 11.0337 11.3333 11.2504C11.3333 11.3004 11.325 11.3587 11.3167 11.4171C11.3083 11.4671 11.2917 11.5171 11.2667 11.5671C11.25 11.6171 11.225 11.667 11.1917 11.717C11.1667 11.7587 11.125 11.8004 11.0917 11.842C10.9333 11.992 10.7167 12.0837 10.5 12.0837Z" fill="#8A8A8A"/>
  <path d="M13.4167 12.0837C13.3083 12.0837 13.2 12.0587 13.1 12.0171C12.9917 11.9754 12.9083 11.917 12.825 11.842C12.7917 11.8004 12.7583 11.7587 12.725 11.717C12.6917 11.667 12.6667 11.6171 12.65 11.5671C12.625 11.5171 12.6083 11.4671 12.6 11.4171C12.5917 11.3587 12.5833 11.3004 12.5833 11.2504C12.5833 11.0337 12.675 10.8171 12.825 10.6587C12.9083 10.5837 12.9917 10.5254 13.1 10.4837C13.4083 10.3504 13.775 10.4254 14.0083 10.6587C14.1583 10.8171 14.25 11.0337 14.25 11.2504C14.25 11.3004 14.2417 11.3587 14.2333 11.4171C14.225 11.4671 14.2083 11.5171 14.1833 11.5671C14.1667 11.6171 14.1417 11.667 14.1083 11.717C14.0833 11.7587 14.0417 11.8004 14.0083 11.842C13.85 11.992 13.6333 12.0837 13.4167 12.0837Z" fill="#8A8A8A"/>
  <path d="M7.58333 15C7.475 15 7.36667 14.975 7.26667 14.9333C7.16667 14.8917 7.075 14.8333 6.99167 14.7583C6.84167 14.6 6.75 14.3833 6.75 14.1667C6.75 14.0583 6.775 13.95 6.81667 13.85C6.85833 13.7417 6.91667 13.65 6.99167 13.575C7.3 13.2667 7.86667 13.2667 8.175 13.575C8.325 13.7333 8.41667 13.95 8.41667 14.1667C8.41667 14.3833 8.325 14.6 8.175 14.7583C8.01667 14.9083 7.8 15 7.58333 15Z" fill="#8A8A8A"/>
  <path d="M10.5 15C10.2833 15 10.0667 14.9083 9.90832 14.7583C9.75832 14.6 9.66666 14.3833 9.66666 14.1667C9.66666 14.0583 9.69166 13.95 9.73332 13.85C9.77499 13.7417 9.83332 13.65 9.90832 13.575C10.2167 13.2667 10.7833 13.2667 11.0917 13.575C11.1667 13.65 11.225 13.7417 11.2667 13.85C11.3083 13.95 11.3333 14.0583 11.3333 14.1667C11.3333 14.3833 11.2417 14.6 11.0917 14.7583C10.9333 14.9083 10.7167 15 10.5 15Z" fill="#8A8A8A"/>
  <path d="M13.4167 15.0004C13.2 15.0004 12.9833 14.9087 12.825 14.7587C12.75 14.6837 12.6917 14.5921 12.65 14.4838C12.6083 14.3838 12.5833 14.2754 12.5833 14.1671C12.5833 14.0587 12.6083 13.9504 12.65 13.8504C12.6917 13.7421 12.75 13.6504 12.825 13.5754C13.0167 13.3838 13.3083 13.2921 13.575 13.3504C13.6333 13.3587 13.6833 13.3754 13.7333 13.4004C13.7833 13.4171 13.8333 13.4421 13.8833 13.4754C13.925 13.5004 13.9667 13.5421 14.0083 13.5754C14.1583 13.7338 14.25 13.9504 14.25 14.1671C14.25 14.3837 14.1583 14.6004 14.0083 14.7587C13.85 14.9087 13.6333 15.0004 13.4167 15.0004Z" fill="#8A8A8A"/>
  <path d="M17.5833 8.20019H3.41666C3.07499 8.20019 2.79166 7.91686 2.79166 7.5752C2.79166 7.23353 3.07499 6.9502 3.41666 6.9502H17.5833C17.925 6.9502 18.2083 7.23353 18.2083 7.5752C18.2083 7.91686 17.925 8.20019 17.5833 8.20019Z" fill="#8A8A8A"/>
  <path d="M13.8333 18.9587H7.16667C4.125 18.9587 2.375 17.2087 2.375 14.167V7.08366C2.375 4.04199 4.125 2.29199 7.16667 2.29199H13.8333C16.875 2.29199 18.625 4.04199 18.625 7.08366V14.167C18.625 17.2087 16.875 18.9587 13.8333 18.9587ZM7.16667 3.54199C4.78333 3.54199 3.625 4.70033 3.625 7.08366V14.167C3.625 16.5503 4.78333 17.7087 7.16667 17.7087H13.8333C16.2167 17.7087 17.375 16.5503 17.375 14.167V7.08366C17.375 4.70033 16.2167 3.54199 13.8333 3.54199H7.16667Z" fill="#8A8A8A"/>
</svg>