<svg width="20" height="20" viewBox="0 0 20 20" fill="none" xmlns="http://www.w3.org/2000/svg">
<path fill-rule="evenodd" clip-rule="evenodd" d="M9.99935 2.16797C5.67312 2.16797 2.16602 5.67507 2.16602 10.0013C2.16602 11.1163 2.39883 12.1756 2.81793 13.1344C2.92852 13.3874 2.81306 13.6822 2.56004 13.7928C2.30701 13.9034 2.01223 13.7879 1.90163 13.5349C1.4284 12.4522 1.16602 11.2568 1.16602 10.0013C1.16602 5.12279 5.12083 1.16797 9.99935 1.16797C14.8779 1.16797 18.8327 5.12279 18.8327 10.0013C18.8327 14.8798 14.8779 18.8346 9.99935 18.8346C7.10916 18.8346 4.5436 17.4458 2.93291 15.3016C2.76706 15.0808 2.81159 14.7674 3.03238 14.6015C3.25316 14.4357 3.5666 14.4802 3.73245 14.701C5.16247 16.6047 7.43708 17.8346 9.99935 17.8346C14.3256 17.8346 17.8327 14.3275 17.8327 10.0013C17.8327 5.67507 14.3256 2.16797 9.99935 2.16797Z" fill="currentColor"/>
<path fill-rule="evenodd" clip-rule="evenodd" d="M10.0001 3.66797C10.2762 3.66797 10.5001 3.89183 10.5001 4.16797V10.0013C10.5001 10.1769 10.4079 10.3397 10.2573 10.43L6.50732 12.68C6.27053 12.8221 5.9634 12.7453 5.82133 12.5085C5.67926 12.2718 5.75604 11.9646 5.99283 11.8226L9.50008 9.71821V4.16797C9.50008 3.89183 9.72393 3.66797 10.0001 3.66797Z" fill="currentColor"/>
</svg>
