<svg width="22" height="22" viewBox="0 0 22 22" fill="none" xmlns="http://www.w3.org/2000/svg">
<path fill-rule="evenodd" clip-rule="evenodd" d="M1.66804 3.68601C1.61641 3.73247 1.60039 3.78013 1.60039 3.81857V20.1822C1.60039 20.2206 1.61641 20.2683 1.66804 20.3148C1.72068 20.3622 1.80437 20.4004 1.90948 20.4004H20.0913C20.1964 20.4004 20.2801 20.3622 20.3327 20.3148C20.3844 20.2683 20.4004 20.2206 20.4004 20.1822V3.81857C20.4004 3.78013 20.3844 3.73247 20.3327 3.68601C20.2801 3.63863 20.1964 3.60039 20.0913 3.60039H1.90948C1.80437 3.60039 1.72068 3.63863 1.66804 3.68601ZM0.400391 3.81857C0.400391 2.97743 1.13706 2.40039 1.90948 2.40039H20.0913C20.8637 2.40039 21.6004 2.97743 21.6004 3.81857V20.1822C21.6004 21.0233 20.8637 21.6004 20.0913 21.6004H1.90948C1.13706 21.6004 0.400391 21.0233 0.400391 20.1822V3.81857Z" fill="#F75708"/>
<path fill-rule="evenodd" clip-rule="evenodd" d="M16.0004 0.400391C16.3318 0.400391 16.6004 0.66902 16.6004 1.00039L16.6004 5.00039C16.6004 5.33176 16.3318 5.60039 16.0004 5.60039C15.669 5.60039 15.4004 5.33176 15.4004 5.00039L15.4004 1.00039C15.4004 0.66902 15.669 0.400391 16.0004 0.400391Z" fill="#F75708"/>
<path fill-rule="evenodd" clip-rule="evenodd" d="M6.01015 0.399811C6.34152 0.400569 6.60954 0.669813 6.60878 1.00118L6.59962 5.00118C6.59887 5.33255 6.32962 5.60057 5.99825 5.59981C5.66688 5.59905 5.39887 5.32981 5.39963 4.99844L5.40878 0.998436C5.40954 0.667066 5.67878 0.399052 6.01015 0.399811Z" fill="#F75708"/>
<path fill-rule="evenodd" clip-rule="evenodd" d="M0.400391 7.00039C0.400391 6.66902 0.66902 6.40039 1.00039 6.40039H21.0004C21.3318 6.40039 21.6004 6.66902 21.6004 7.00039C21.6004 7.33176 21.3318 7.60039 21.0004 7.60039H1.00039C0.66902 7.60039 0.400391 7.33176 0.400391 7.00039Z" fill="#F75708"/>
<path fill-rule="evenodd" clip-rule="evenodd" d="M15.3184 9.48972C15.5994 9.66535 15.6848 10.0355 15.5092 10.3165L10.5092 18.3165C10.4123 18.4716 10.25 18.574 10.0683 18.5947C9.88661 18.6154 9.70542 18.5521 9.57613 18.4228L6.57613 15.4228C6.34181 15.1885 6.34181 14.8086 6.57613 14.5743C6.81044 14.3399 7.19034 14.3399 7.42465 14.5743L9.89133 17.0409L14.4916 9.68052C14.6672 9.39952 15.0374 9.31409 15.3184 9.48972Z" fill="#F75708"/>
</svg>
