<svg xmlns="http://www.w3.org/2000/svg" width="13" height="16" viewBox="0 0 13 16" fill="none">
  <path d="M12.5 4.48681C12.4867 4.48681 12.4667 4.48681 12.4467 4.48681C8.92001 4.13348 5.4 4.00015 1.91334 4.35348L0.553338 4.48681C0.273338 4.51348 0.0266714 4.31348 4.74951e-06 4.03348C-0.0266619 3.75348 0.173338 3.51348 0.446671 3.48681L1.80667 3.35348C5.35334 2.99348 8.94667 3.13348 12.5467 3.48681C12.82 3.51348 13.02 3.76015 12.9933 4.03348C12.9733 4.29348 12.7533 4.48681 12.5 4.48681Z" fill="#D91F11"/>
  <path d="M4.16668 3.8135C4.14001 3.8135 4.11334 3.8135 4.08001 3.80683C3.81334 3.76016 3.62668 3.50016 3.67334 3.2335L3.82001 2.36016C3.92668 1.72016 4.07334 0.833496 5.62668 0.833496H7.37335C8.93335 0.833496 9.08001 1.7535 9.18001 2.36683L9.32668 3.2335C9.37334 3.50683 9.18668 3.76683 8.92001 3.80683C8.64668 3.8535 8.38668 3.66683 8.34668 3.40016L8.20001 2.5335C8.10668 1.9535 8.08668 1.84016 7.38001 1.84016H5.63334C4.92668 1.84016 4.91334 1.9335 4.81334 2.52683L4.66001 3.3935C4.62001 3.64016 4.40668 3.8135 4.16668 3.8135Z" fill="#D91F11"/>
  <path d="M8.64 15.1667H4.36C2.03334 15.1667 1.94 13.8801 1.86667 12.8401L1.43334 6.12672C1.41334 5.85338 1.62667 5.61338 1.9 5.59338C2.18 5.58005 2.41334 5.78672 2.43334 6.06005L2.86667 12.7734C2.94 13.7867 2.96667 14.1667 4.36 14.1667H8.64C10.04 14.1667 10.0667 13.7867 10.1333 12.7734L10.5667 6.06005C10.5867 5.78672 10.8267 5.58005 11.1 5.59338C11.3733 5.61338 11.5867 5.84672 11.5667 6.12672L11.1333 12.8401C11.06 13.8801 10.9667 15.1667 8.64 15.1667Z" fill="#D91F11"/>
  <path d="M7.60667 11.5H5.38667C5.11334 11.5 4.88667 11.2733 4.88667 11C4.88667 10.7267 5.11334 10.5 5.38667 10.5H7.60667C7.88001 10.5 8.10667 10.7267 8.10667 11C8.10667 11.2733 7.88001 11.5 7.60667 11.5Z" fill="#D91F11"/>
  <path d="M8.16668 8.8335H4.83334C4.56001 8.8335 4.33334 8.60683 4.33334 8.3335C4.33334 8.06016 4.56001 7.8335 4.83334 7.8335H8.16668C8.44001 7.8335 8.66668 8.06016 8.66668 8.3335C8.66668 8.60683 8.44001 8.8335 8.16668 8.8335Z" fill="#D91F11"/>
</svg>