<svg xmlns="http://www.w3.org/2000/svg" width="25" height="24" viewBox="0 0 25 24" fill="none">
  <path d="M11.29 21.94C11.06 21.94 10.84 21.84 10.69 21.64L9.68002 20.29C9.47002 20.01 9.19005 19.85 8.89005 19.83C8.58005 19.81 8.29002 19.95 8.05002 20.2C6.60002 21.75 5.50003 21.62 4.97003 21.42C4.43003 21.21 3.52002 20.52 3.52002 18.3V7.04001C3.52002 2.60001 4.80002 1.25 8.99002 1.25H16.54C20.73 1.25 22.01 2.60001 22.01 7.04001V11.3C22.01 11.71 21.67 12.05 21.26 12.05C20.85 12.05 20.51 11.71 20.51 11.3V7.04001C20.51 3.43001 19.88 2.75 16.54 2.75H8.99002C5.65002 2.75 5.02002 3.43001 5.02002 7.04001V18.3C5.02002 19.35 5.28002 19.93 5.52002 20.02C5.70002 20.09 6.19004 19.99 6.95004 19.18C7.50004 18.6 8.22003 18.29 8.97003 18.33C9.71003 18.37 10.41 18.76 10.88 19.39L11.9 20.74C12.15 21.07 12.08 21.54 11.75 21.79C11.6 21.9 11.44 21.94 11.29 21.94Z" fill="#727272"/>
  <path d="M16.75 7.75H8.75C8.34 7.75 8 7.41 8 7C8 6.59 8.34 6.25 8.75 6.25H16.75C17.16 6.25 17.5 6.59 17.5 7C17.5 7.41 17.16 7.75 16.75 7.75Z" fill="#727272"/>
  <path d="M15.75 11.75H9.75C9.34 11.75 9 11.41 9 11C9 10.59 9.34 10.25 9.75 10.25H15.75C16.16 10.25 16.5 10.59 16.5 11C16.5 11.41 16.16 11.75 15.75 11.75Z" fill="#8A8A8A"/>
  <path d="M15.5701 21.78C15.1901 21.78 14.8301 21.64 14.5701 21.38C14.2601 21.07 14.1201 20.62 14.1901 20.15L14.3801 18.8C14.4301 18.45 14.6401 18.03 14.8901 17.78L18.43 14.24C18.91 13.76 19.3801 13.51 19.8901 13.46C20.5101 13.4 21.13 13.66 21.71 14.24C22.29 14.82 22.55 15.43 22.49 16.06C22.44 16.56 22.18 17.04 21.71 17.52L18.1701 21.06C17.9201 21.31 17.5 21.52 17.15 21.57L15.8 21.76C15.72 21.77 15.6501 21.78 15.5701 21.78ZM20.06 14.95C20.05 14.95 20.04 14.95 20.03 14.95C19.89 14.96 19.7 15.09 19.49 15.3L15.9501 18.84C15.9201 18.87 15.87 18.97 15.87 19.01L15.6901 20.26L16.9401 20.08C16.9801 20.07 17.08 20.02 17.11 19.99L20.65 16.45C20.86 16.23 20.99 16.05 21.0001 15.91C21.0201 15.71 20.82 15.47 20.65 15.3C20.49 15.14 20.26 14.95 20.06 14.95Z" fill="#8A8A8A"/>
  <path d="M20.6701 18.2499C20.6001 18.2499 20.5301 18.2399 20.4701 18.2199C19.1501 17.8499 18.1001 16.7999 17.7301 15.4799C17.6201 15.0799 17.8501 14.6699 18.2501 14.5499C18.6501 14.4399 19.0601 14.6699 19.1701 15.0699C19.4001 15.8899 20.0501 16.5399 20.8701 16.7699C21.2701 16.8799 21.5001 17.2999 21.3901 17.6999C21.3001 18.0299 21.0001 18.2499 20.6701 18.2499Z" fill="#8A8A8A"/>
</svg>