<svg width="22" height="22" viewBox="0 0 22 22" fill="none" xmlns="http://www.w3.org/2000/svg">
<path fill-rule="evenodd" clip-rule="evenodd" d="M1.66804 3.68601C1.61641 3.73247 1.60039 3.78013 1.60039 3.81857V20.1822C1.60039 20.2206 1.61641 20.2683 1.66804 20.3148C1.72068 20.3622 1.80437 20.4004 1.90948 20.4004H20.0913C20.1964 20.4004 20.2801 20.3622 20.3327 20.3148C20.3844 20.2683 20.4004 20.2206 20.4004 20.1822V3.81857C20.4004 3.78013 20.3844 3.73247 20.3327 3.68601C20.2801 3.63863 20.1964 3.60039 20.0913 3.60039H1.90948C1.80437 3.60039 1.72068 3.63863 1.66804 3.68601ZM0.400391 3.81857C0.400391 2.97743 1.13706 2.40039 1.90948 2.40039H20.0913C20.8637 2.40039 21.6004 2.97743 21.6004 3.81857V20.1822C21.6004 21.0233 20.8637 21.6004 20.0913 21.6004H1.90948C1.13706 21.6004 0.400391 21.0233 0.400391 20.1822V3.81857Z" fill="#0054E1"/>
<path fill-rule="evenodd" clip-rule="evenodd" d="M16.0004 0.400391C16.3318 0.400391 16.6004 0.66902 16.6004 1.00039L16.6004 5.00039C16.6004 5.33176 16.3318 5.60039 16.0004 5.60039C15.669 5.60039 15.4004 5.33176 15.4004 5.00039L15.4004 1.00039C15.4004 0.66902 15.669 0.400391 16.0004 0.400391Z" fill="#0054E1"/>
<path fill-rule="evenodd" clip-rule="evenodd" d="M6.01015 0.399811C6.34152 0.400569 6.60954 0.669813 6.60878 1.00118L6.59962 5.00118C6.59887 5.33255 6.32962 5.60057 5.99825 5.59981C5.66688 5.59905 5.39887 5.32981 5.39963 4.99844L5.40878 0.998436C5.40954 0.667066 5.67878 0.399052 6.01015 0.399811Z" fill="#0054E1"/>
<path fill-rule="evenodd" clip-rule="evenodd" d="M0.400391 7.00039C0.400391 6.66902 0.66902 6.40039 1.00039 6.40039H21.0004C21.3318 6.40039 21.6004 6.66902 21.6004 7.00039C21.6004 7.33176 21.3318 7.60039 21.0004 7.60039H1.00039C0.66902 7.60039 0.400391 7.33176 0.400391 7.00039Z" fill="#0054E1"/>
<path fill-rule="evenodd" clip-rule="evenodd" d="M7.40039 14.0004C7.40039 13.669 7.66902 13.4004 8.00039 13.4004H14.0004C14.3318 13.4004 14.6004 13.669 14.6004 14.0004C14.6004 14.3318 14.3318 14.6004 14.0004 14.6004H8.00039C7.66902 14.6004 7.40039 14.3318 7.40039 14.0004Z" fill="#0054E1"/>
<path fill-rule="evenodd" clip-rule="evenodd" d="M11.0004 10.4004C11.3318 10.4004 11.6004 10.669 11.6004 11.0004V17.0004C11.6004 17.3318 11.3318 17.6004 11.0004 17.6004C10.669 17.6004 10.4004 17.3318 10.4004 17.0004V11.0004C10.4004 10.669 10.669 10.4004 11.0004 10.4004Z" fill="#0054E1"/>
</svg>
