<svg xmlns="http://www.w3.org/2000/svg" width="25" height="24" viewBox="0 0 25 24" fill="none">
  <path d="M19.67 11.75H16.25C15.84 11.75 15.5 11.41 15.5 11V4.01C15.5 3.27 15.79 2.58 16.31 2.06C16.83 1.54 17.52 1.25 18.26 1.25H18.27C19.52 1.26 20.7 1.75 21.6 2.64C22.5 3.55 22.99 4.75 22.99 6V8.42C23 10.41 21.66 11.75 19.67 11.75ZM17 10.25H19.67C20.83 10.25 21.5 9.58 21.5 8.42V6C21.5 5.14 21.16 4.32 20.55 3.7C19.94 3.1 19.13 2.76 18.27 2.75C18.27 2.75 18.27 2.75 18.26 2.75C17.93 2.75 17.61 2.88 17.37 3.12C17.13 3.36 17 3.67 17 4.01V10.25Z" fill="#3750B2"/>
  <path d="M9.24976 23.33C8.77976 23.33 8.33977 23.15 8.00977 22.81L6.34973 21.14C6.25973 21.05 6.11978 21.04 6.01978 21.12L4.30975 22.4C3.77975 22.8 3.07974 22.87 2.47974 22.57C1.87974 22.27 1.50977 21.67 1.50977 21V6C1.50977 2.98 3.23977 1.25 6.25977 1.25H18.2598C18.6698 1.25 19.0098 1.59 19.0098 2C19.0098 2.41 18.6698 2.75 18.2598 2.75C17.5698 2.75 17.0098 3.31 17.0098 4V21C17.0098 21.67 16.6397 22.27 16.0397 22.57C15.4497 22.87 14.7398 22.8 14.2098 22.4L12.4998 21.12C12.3998 21.04 12.2597 21.06 12.1797 21.14L10.4998 22.82C10.1598 23.15 9.71976 23.33 9.24976 23.33ZM6.15973 19.57C6.61973 19.57 7.06973 19.74 7.40973 20.09L9.06976 21.76C9.12976 21.82 9.20976 21.83 9.24976 21.83C9.28976 21.83 9.36975 21.82 9.42975 21.76L11.1097 20.08C11.7297 19.46 12.7098 19.4 13.3998 19.93L15.0997 21.2C15.2097 21.28 15.3097 21.25 15.3597 21.22C15.4097 21.19 15.4998 21.13 15.4998 21V4C15.4998 3.55 15.6097 3.12 15.7997 2.75H6.24976C4.02976 2.75 2.99976 3.78 2.99976 6V21C2.99976 21.14 3.08977 21.2 3.13977 21.23C3.19977 21.26 3.29978 21.28 3.39978 21.2L5.10974 19.92C5.41974 19.69 5.78973 19.57 6.15973 19.57Z" fill="#3750B2"/>
  <path d="M12.25 9.75H6.25C5.84 9.75 5.5 9.41 5.5 9C5.5 8.59 5.84 8.25 6.25 8.25H12.25C12.66 8.25 13 8.59 13 9C13 9.41 12.66 9.75 12.25 9.75Z" fill="#3750B2"/>
  <path d="M11.5 13.75H7C6.59 13.75 6.25 13.41 6.25 13C6.25 12.59 6.59 12.25 7 12.25H11.5C11.91 12.25 12.25 12.59 12.25 13C12.25 13.41 11.91 13.75 11.5 13.75Z" fill="#3750B2"/>
</svg>