<svg width="12" height="12" viewBox="0 0 12 12" fill="none" xmlns="http://www.w3.org/2000/svg">
    <path fill-rule="evenodd" clip-rule="evenodd" d="M0.785156 3.95264C0.785156 3.74553 0.953049 3.57764 1.16016 3.57764H7.92532C9.79253 3.57764 11.3754 4.95262 11.3754 6.7262C11.3754 8.49978 9.79253 9.87476 7.92532 9.87476H5.50037C5.29326 9.87476 5.12537 9.70687 5.12537 9.49976C5.12537 9.29266 5.29326 9.12476 5.50037 9.12476H7.92532C9.453 9.12476 10.6254 8.01463 10.6254 6.7262C10.6254 5.43777 9.453 4.32764 7.92532 4.32764H1.16016C0.953049 4.32764 0.785156 4.15974 0.785156 3.95264Z" fill="#333333"/>
    <path fill-rule="evenodd" clip-rule="evenodd" d="M2.8529 2.24884C2.99162 2.40263 2.97939 2.63976 2.8256 2.77847L1.5599 3.92007L2.8256 5.06167C2.97939 5.20038 2.99162 5.4375 2.8529 5.5913C2.71419 5.74509 2.47707 5.75731 2.32328 5.6186L0.748838 4.19853C0.670002 4.12743 0.625 4.02623 0.625 3.92007C0.625 3.8139 0.670002 3.71271 0.748838 3.6416L2.32328 2.22154C2.47707 2.08283 2.71419 2.09505 2.8529 2.24884Z" fill="#333333"/>
    </svg>
    