<svg width="20" height="20" viewBox="0 0 20 20" fill="none" xmlns="http://www.w3.org/2000/svg">
    <path fill-rule="evenodd" clip-rule="evenodd" d="M8.03394 2.6099C5.03806 2.6099 2.60941 5.03854 2.60941 8.03443C2.60941 11.0303 5.03806 13.459 8.03394 13.459C11.0298 13.459 13.4585 11.0303 13.4585 8.03443C13.4585 5.03854 11.0298 2.6099 8.03394 2.6099ZM1.66602 8.03443C1.66602 4.51752 4.51703 1.6665 8.03394 1.6665C11.5508 1.6665 14.4019 4.51752 14.4019 8.03443C14.4019 11.5513 11.5508 14.4024 8.03394 14.4024C4.51703 14.4024 1.66602 11.5513 1.66602 8.03443Z" fill="#707070"/>
    <path fill-rule="evenodd" clip-rule="evenodd" d="M12.0249 12.0244C12.2091 11.8402 12.5077 11.8402 12.692 12.0244L18.1951 17.5275C18.3793 17.7117 18.3793 18.0104 18.1951 18.1946C18.0109 18.3788 17.7122 18.3788 17.528 18.1946L12.0249 12.6915C11.8407 12.5073 11.8407 12.2086 12.0249 12.0244Z" fill="#707070"/>
    </svg>
    