<svg width="16" height="16" viewBox="0 0 16 16" fill="none" xmlns="http://www.w3.org/2000/svg">
<path fill-rule="evenodd" clip-rule="evenodd" d="M1.77869 3.1227C1.74427 3.15368 1.73359 3.18545 1.73359 3.21108V14.1202C1.73359 14.1458 1.74427 14.1776 1.77869 14.2085C1.81378 14.2401 1.86958 14.2656 1.93965 14.2656H14.0609C14.1309 14.2656 14.1867 14.2401 14.2218 14.2085C14.2562 14.1776 14.2669 14.1458 14.2669 14.1202V3.21108C14.2669 3.18545 14.2562 3.15368 14.2218 3.1227C14.1867 3.09112 14.1309 3.06563 14.0609 3.06563H1.93965C1.86958 3.06563 1.81378 3.09112 1.77869 3.1227ZM0.933594 3.21108C0.933594 2.65032 1.42471 2.26562 1.93965 2.26562H14.0609C14.5758 2.26562 15.0669 2.65032 15.0669 3.21108V14.1202C15.0669 14.6809 14.5758 15.0656 14.0609 15.0656H1.93965C1.42471 15.0656 0.933594 14.6809 0.933594 14.1202V3.21108Z" fill="#333333"/>
<path fill-rule="evenodd" clip-rule="evenodd" d="M11.3336 0.931641C11.5545 0.931641 11.7336 1.11073 11.7336 1.33164L11.7336 3.99831C11.7336 4.21922 11.5545 4.39831 11.3336 4.39831C11.1127 4.39831 10.9336 4.21922 10.9336 3.99831L10.9336 1.33164C10.9336 1.11073 11.1127 0.931641 11.3336 0.931641Z" fill="#333333"/>
<path fill-rule="evenodd" clip-rule="evenodd" d="M4.67344 0.932556C4.89435 0.933062 5.07303 1.11256 5.07252 1.33347L5.06642 4.00014C5.06591 4.22105 4.88642 4.39973 4.6655 4.39922C4.44459 4.39871 4.26591 4.21922 4.26642 3.99831L4.27252 1.33164C4.27303 1.11073 4.45252 0.932051 4.67344 0.932556Z" fill="#333333"/>
<path fill-rule="evenodd" clip-rule="evenodd" d="M0.933594 5.33164C0.933594 5.11073 1.11268 4.93164 1.33359 4.93164H14.6669C14.8878 4.93164 15.0669 5.11073 15.0669 5.33164C15.0669 5.55255 14.8878 5.73164 14.6669 5.73164H1.33359C1.11268 5.73164 0.933594 5.55255 0.933594 5.33164Z" fill="#333333"/>
<path fill-rule="evenodd" clip-rule="evenodd" d="M7.7504 7.68726C7.89648 7.57039 8.10407 7.57039 8.25015 7.68726L9.91682 9.02059C10.0893 9.1586 10.1173 9.41032 9.97929 9.58282C9.84129 9.75533 9.58957 9.78329 9.41706 9.64529L8.40028 8.83186V11.9996C8.40028 12.2205 8.22119 12.3996 8.00028 12.3996C7.77936 12.3996 7.60028 12.2205 7.60028 11.9996V8.83186L6.58349 9.64529C6.41098 9.78329 6.15926 9.75533 6.02126 9.58282C5.88326 9.41032 5.91123 9.1586 6.08373 9.02059L7.7504 7.68726Z" fill="#333333"/>
</svg>
