<svg width="16" height="16" viewBox="0 0 16 16" fill="none" xmlns="http://www.w3.org/2000/svg">
<path d="M13.9997 13.5H7.33301C7.05967 13.5 6.83301 13.2733 6.83301 13C6.83301 12.7267 7.05967 12.5 7.33301 12.5H13.9997C14.273 12.5 14.4997 12.7267 14.4997 13C14.4997 13.2733 14.273 13.5 13.9997 13.5Z" fill="#8A8A8A"/>
<path d="M13.9997 8.83331H7.33301C7.05967 8.83331 6.83301 8.60665 6.83301 8.33331C6.83301 8.05998 7.05967 7.83331 7.33301 7.83331H13.9997C14.273 7.83331 14.4997 8.05998 14.4997 8.33331C14.4997 8.60665 14.273 8.83331 13.9997 8.83331Z" fill="#8A8A8A"/>
<path d="M13.9997 4.16669H7.33301C7.05967 4.16669 6.83301 3.94002 6.83301 3.66669C6.83301 3.39335 7.05967 3.16669 7.33301 3.16669H13.9997C14.273 3.16669 14.4997 3.39335 14.4997 3.66669C14.4997 3.94002 14.273 4.16669 13.9997 4.16669Z" fill="#8A8A8A"/>
<path d="M2.66695 4.83336C2.54029 4.83336 2.41362 4.78669 2.31362 4.68669L1.64695 4.02002C1.45362 3.82669 1.45362 3.50669 1.64695 3.31336C1.84029 3.12002 2.16029 3.12002 2.35362 3.31336L2.66695 3.62669L4.31362 1.98002C4.50695 1.78669 4.82695 1.78669 5.02029 1.98002C5.21362 2.17336 5.21362 2.49336 5.02029 2.68669L3.02029 4.68669C2.92029 4.78669 2.79362 4.83336 2.66695 4.83336Z" fill="#8A8A8A"/>
<path d="M2.66695 9.49998C2.54029 9.49998 2.41362 9.45331 2.31362 9.35331L1.64695 8.68665C1.45362 8.49331 1.45362 8.17331 1.64695 7.97998C1.84029 7.78665 2.16029 7.78665 2.35362 7.97998L2.66695 8.29331L4.31362 6.64665C4.50695 6.45331 4.82695 6.45331 5.02029 6.64665C5.21362 6.83998 5.21362 7.15998 5.02029 7.35331L3.02029 9.35331C2.92029 9.45331 2.79362 9.49998 2.66695 9.49998Z" fill="#8A8A8A"/>
<path d="M2.66695 14.1667C2.54029 14.1667 2.41362 14.12 2.31362 14.02L1.64695 13.3533C1.45362 13.16 1.45362 12.84 1.64695 12.6467C1.84029 12.4533 2.16029 12.4533 2.35362 12.6467L2.66695 12.96L4.31362 11.3133C4.50695 11.12 4.82695 11.12 5.02029 11.3133C5.21362 11.5067 5.21362 11.8267 5.02029 12.02L3.02029 14.02C2.92029 14.12 2.79362 14.1667 2.66695 14.1667Z" fill="#8A8A8A"/>
</svg>
