<svg xmlns="http://www.w3.org/2000/svg" width="18" height="18" viewBox="0 0 18 18" fill="none">
  <path fill-rule="evenodd" clip-rule="evenodd" d="M6.49999 4.625C5.9247 4.625 5.45833 5.09137 5.45833 5.66667C5.45833 6.24196 5.9247 6.70833 6.49999 6.70833C7.07529 6.70833 7.54166 6.24196 7.54166 5.66667C7.54166 5.09137 7.07529 4.625 6.49999 4.625ZM4.20833 5.66667C4.20833 4.40101 5.23434 3.375 6.49999 3.375C7.76565 3.375 8.79166 4.40101 8.79166 5.66667C8.79166 6.93232 7.76565 7.95833 6.49999 7.95833C5.23434 7.95833 4.20833 6.93232 4.20833 5.66667Z" fill="#8A8A8A"/>
  <path fill-rule="evenodd" clip-rule="evenodd" d="M1.57889 1.57873C2.69095 0.466672 4.35502 0.0415039 6.5 0.0415039H9.83333C10.1785 0.0415039 10.4583 0.321326 10.4583 0.666504C10.4583 1.01168 10.1785 1.2915 9.83333 1.2915H6.5C4.47831 1.2915 3.22572 1.69967 2.46277 2.46261C1.69983 3.22556 1.29166 4.47815 1.29166 6.49984V11.4998C1.29166 13.5215 1.69983 14.7741 2.46277 15.5371C3.22572 16.3 4.47831 16.7082 6.5 16.7082H11.5C13.5217 16.7082 14.7743 16.3 15.5372 15.5371C16.3002 14.7741 16.7083 13.5215 16.7083 11.4998V7.33317C16.7083 6.98799 16.9882 6.70817 17.3333 6.70817C17.6785 6.70817 17.9583 6.98799 17.9583 7.33317V11.4998C17.9583 13.6448 17.5332 15.3089 16.4211 16.4209C15.309 17.533 13.645 17.9582 11.5 17.9582H6.5C4.35502 17.9582 2.69095 17.533 1.57889 16.4209C0.466832 15.3089 0.0416641 13.6448 0.0416641 11.4998V6.49984C0.0416641 4.35486 0.466832 2.69079 1.57889 1.57873Z" fill="#8A8A8A"/>
  <path fill-rule="evenodd" clip-rule="evenodd" d="M13.7608 0.0890975C13.9944 -0.00764067 14.2632 0.0458317 14.4419 0.22458L16.1086 1.89125C16.3527 2.13532 16.3527 2.53105 16.1086 2.77513C15.8645 3.01921 15.4688 3.01921 15.2247 2.77513L14.625 2.17541V5.66652C14.625 6.0117 14.3452 6.29152 14 6.29152C13.6548 6.29152 13.375 6.0117 13.375 5.66652V0.666522C13.375 0.413733 13.5273 0.185836 13.7608 0.0890975Z" fill="#8A8A8A"/>
  <path fill-rule="evenodd" clip-rule="evenodd" d="M14.4419 0.224562C14.686 0.46864 14.686 0.864368 14.4419 1.10845L12.7753 2.77511C12.5312 3.01919 12.1355 3.01919 11.8914 2.77511C11.6473 2.53103 11.6473 2.13531 11.8914 1.89123L13.5581 0.224562C13.8021 -0.0195155 14.1979 -0.0195155 14.4419 0.224562Z" fill="#8A8A8A"/>
  <path fill-rule="evenodd" clip-rule="evenodd" d="M15.5678 9.89081C15.152 9.53367 14.448 9.53367 14.0322 9.89081L10.5656 12.8658C10.5655 12.8659 10.5656 12.8657 10.5656 12.8658C9.68134 13.6251 8.28523 13.6253 7.40108 12.8658L7.39573 12.8612L7.1237 12.6221C6.75 12.3032 6.11139 12.264 5.68153 12.5524L1.57338 15.3106C1.2868 15.503 0.898508 15.4267 0.706099 15.1401C0.513691 14.8535 0.59003 14.4652 0.876608 14.2728L4.98494 11.5145C5.87085 10.9201 7.13065 10.9801 7.94062 11.676L7.94592 11.6805L8.21791 11.9196C8.63398 12.2747 9.33608 12.2741 9.75108 11.9176L13.2177 8.9426C13.2177 8.94266 13.2178 8.94253 13.2177 8.9426C14.102 8.18327 15.4981 8.18313 16.3822 8.94258C16.3822 8.94257 16.3822 8.94258 16.3822 8.94258L17.7406 10.1092C18.0024 10.3341 18.0324 10.7287 17.8075 10.9906C17.5825 11.2524 17.188 11.2824 16.9261 11.0575L15.5678 9.89081Z" fill="#8A8A8A"/>
</svg>