<svg width="16" height="16" viewBox="0 0 16 16" fill="none" xmlns="http://www.w3.org/2000/svg">
    <path fill-rule="evenodd" clip-rule="evenodd" d="M2.31246 2.31295C2.50772 2.11769 2.82431 2.11769 3.01957 2.31295L13.6862 12.9796C13.8815 13.1749 13.8815 13.4915 13.6862 13.6867C13.491 13.882 13.1744 13.882 12.9791 13.6867L2.31246 3.02006C2.1172 2.8248 2.1172 2.50821 2.31246 2.31295Z" fill="#FF3434"/>
    <path fill-rule="evenodd" clip-rule="evenodd" d="M13.6862 2.31295C13.8815 2.50821 13.8815 2.8248 13.6862 3.02006L3.01957 13.6867C2.82431 13.882 2.50772 13.882 2.31246 13.6867C2.1172 13.4915 2.1172 13.1749 2.31246 12.9796L12.9791 2.31295C13.1744 2.11769 13.491 2.11769 13.6862 2.31295Z" fill="#FF3434"/>
    </svg>
    