<svg width="59" height="54" viewBox="0 0 59 54" fill="none" xmlns="http://www.w3.org/2000/svg">
<g id="Group 11241">
<path id="Union" d="M31.3124 1.27615C31.0487 0.796823 30.5451 0.499023 29.998 0.499023C29.451 0.499023 28.9474 0.796823 28.6837 1.27615L1.18372 51.2761C0.928142 51.7408 0.93694 52.306 1.20686 52.7625C1.47678 53.219 1.96771 53.499 2.49805 53.499H57.498C58.0284 53.499 58.5193 53.219 58.7892 52.7625C59.0592 52.306 59.068 51.7408 58.8124 51.2761L31.3124 1.27615Z" fill="#FF2C00"/>
<path id="Union_2" fill-rule="evenodd" clip-rule="evenodd" d="M33.998 20.749C33.998 17.849 32.448 15.499 29.9981 15.499C27.5481 15.499 25.998 17.849 25.998 20.749C25.998 23.3853 26.6446 28.1914 27.2655 32.227C27.5797 34.269 27.8936 36.1528 28.129 37.5258C28.2467 38.2124 28.3449 38.7719 28.4136 39.16L28.4936 39.6084L28.5222 39.7669C28.6519 40.4802 29.2731 40.9989 29.998 40.9989C30.723 40.9989 31.3442 40.4802 31.4739 39.7669L31.5025 39.6084L31.5825 39.16C31.6512 38.7719 31.7494 38.2125 31.8671 37.5258C32.1025 36.1528 32.4164 34.269 32.7306 32.227C33.3515 28.1914 33.998 23.3853 33.998 20.749ZM29.998 39.4989C28.5222 39.7672 28.5222 39.7669 28.5222 39.7669L29.998 39.4989ZM31.4739 39.7669C31.4739 39.7669 31.4739 39.7672 29.998 39.4989L31.4739 39.7669Z" fill="white"/>
<path id="Ellipse 1516" d="M32.5 44.5C32.5 45.8807 31.3807 47 30 47C28.6193 47 27.5 45.8807 27.5 44.5C27.5 43.1193 28.6193 42 30 42C31.3807 42 32.5 43.1193 32.5 44.5Z" fill="white"/>
</g>
</svg>
