<svg xmlns="http://www.w3.org/2000/svg" width="20" height="20" viewBox="0 0 20 20" fill="none">
<path fill-rule="evenodd" clip-rule="evenodd" d="M10 20C15.5 20 20 15.5 20 10C20 4.5 15.5 0 10 0C4.5 0 0 4.5 0 10C0 15.5 4.5 20 10 20ZM10 8.75C10.4142 8.75 10.75 9.08579 10.75 9.5V14.5C10.75 14.9142 10.4142 15.25 10 15.25C9.58579 15.25 9.25 14.9142 9.25 14.5V9.5C9.25 9.08579 9.58579 8.75 10 8.75ZM9.99063 5.5C9.43835 5.5 8.99063 5.94772 8.99063 6.5C8.99063 7.05228 9.43835 7.5 9.99063 7.5H9.99961C10.5519 7.5 10.9996 7.05228 10.9996 6.5C10.9996 5.94772 10.5519 5.5 9.99961 5.5H9.99063Z" fill="#186ADE"/>
</svg>