<svg width="33" height="32" viewBox="0 0 33 32" fill="none" xmlns="http://www.w3.org/2000/svg">
    <path fill-rule="evenodd" clip-rule="evenodd" d="M16.5 3.4667C9.57806 3.4667 3.9667 9.07806 3.9667 16C3.9667 22.922 9.57806 28.5334 16.5 28.5334C23.422 28.5334 29.0334 22.922 29.0334 16C29.0334 9.07806 23.422 3.4667 16.5 3.4667ZM2.3667 16C2.3667 8.19441 8.69441 1.8667 16.5 1.8667C24.3057 1.8667 30.6334 8.19441 30.6334 16C30.6334 23.8057 24.3057 30.1334 16.5 30.1334C8.69441 30.1334 2.3667 23.8057 2.3667 16Z" fill="currentColor"/>
    <path d="M12.5002 12.0001C12.5002 12.7365 11.9032 13.3334 11.1668 13.3334C10.4304 13.3334 9.8335 12.7365 9.8335 12.0001C9.8335 11.2637 10.4304 10.6667 11.1668 10.6667C11.9032 10.6667 12.5002 11.2637 12.5002 12.0001Z" fill="currentColor"/>
    <path d="M23.1667 12.0001C23.1667 12.7365 22.5697 13.3334 21.8333 13.3334C21.097 13.3334 20.5 12.7365 20.5 12.0001C20.5 11.2637 21.097 10.6667 21.8333 10.6667C22.5697 10.6667 23.1667 11.2637 23.1667 12.0001Z" fill="currentColor"/>
    <path fill-rule="evenodd" clip-rule="evenodd" d="M10.3667 21.3332C10.3667 20.8914 10.7249 20.5332 11.1667 20.5332L21.8334 20.5332C22.2752 20.5332 22.6334 20.8914 22.6334 21.3332C22.6334 21.775 22.2752 22.1332 21.8334 22.1332L11.1667 22.1332C10.7249 22.1332 10.3667 21.775 10.3667 21.3332Z" fill="currentColor"/>
    </svg>
    