<svg width="20" height="20" viewBox="0 0 20 20" fill="none" xmlns="http://www.w3.org/2000/svg">
    <path fill-rule="evenodd" clip-rule="evenodd" d="M4.66267 2.16675C4.1994 2.16675 3.73582 2.35592 3.27722 2.80667L3.26964 2.81412C2.8775 3.18351 2.6038 3.58942 2.43214 4.02505L2.4311 4.02769C2.25605 4.46465 2.1665 4.94277 2.1665 5.45008C2.1665 6.23842 2.34852 7.08041 2.72782 7.98011C3.11126 8.88125 3.64189 9.79844 4.30805 10.7233C4.98467 11.6511 5.74348 12.5394 6.58498 13.3879C7.43495 14.2283 8.32494 14.9864 9.26332 15.6708C10.1874 16.3426 11.1144 16.873 12.0358 17.265C12.9455 17.652 13.7885 17.8334 14.5608 17.8334C15.0817 17.8334 15.5587 17.7372 15.9962 17.5551L15.9989 17.554C16.4314 17.377 16.8221 17.0986 17.187 16.6971C17.3939 16.4691 17.5506 16.2275 17.6725 15.9696C17.7833 15.7354 17.8332 15.5 17.8332 15.2751C17.8332 15.1212 17.8018 14.9787 17.7389 14.8196C17.6893 14.7105 17.6057 14.6063 17.4563 14.503L17.4514 14.4997L14.6932 12.5443C14.5049 12.4168 14.3455 12.3287 14.2049 12.2713C14.073 12.2174 13.9702 12.2001 13.8848 12.2001C13.7786 12.2001 13.6754 12.2273 13.552 12.3024L13.5379 12.3109L13.5233 12.3185C13.3926 12.3866 13.2331 12.5074 13.0447 12.6956L13.0423 12.6979L12.4104 13.3206C12.4099 13.321 12.4095 13.3215 12.409 13.3219C12.2287 13.5013 11.9955 13.6084 11.7149 13.6084C11.6011 13.6084 11.4707 13.5957 11.3309 13.5433L11.3201 13.5393L11.3096 13.5348C11.2766 13.5207 11.246 13.5067 11.2233 13.4962L11.2168 13.4933C11.1902 13.4811 11.1782 13.4758 11.1706 13.4727L11.1459 13.4629L11.1224 13.4505C10.795 13.2774 10.4055 13.0029 9.95673 12.6237L9.95609 12.6231C9.50076 12.2371 9.05717 11.8195 8.60247 11.3739L8.59573 11.3672C8.15279 10.9165 7.7451 10.4668 7.36444 10.0276L7.36081 10.0234C6.98474 9.57958 6.70122 9.19145 6.52732 8.87312L6.50596 8.83401L6.49185 8.79174C6.49056 8.78787 6.48752 8.77981 6.47549 8.7514C6.47455 8.74919 6.47356 8.74685 6.47252 8.7444C6.46208 8.71981 6.44665 8.68348 6.43128 8.64254L6.42125 8.61585L6.41433 8.58819C6.3894 8.48865 6.37432 8.38919 6.37432 8.27508C6.37432 8.02201 6.45996 7.78433 6.6506 7.59191L7.28878 6.92953C7.46641 6.75216 7.59386 6.58769 7.67438 6.44544L7.67836 6.4384L7.68258 6.43149C7.75653 6.31017 7.78477 6.19927 7.78477 6.10008C7.78477 6.02571 7.76404 5.91845 7.70846 5.78896L7.70519 5.78133C7.64786 5.64141 7.56062 5.48403 7.42853 5.30086L7.42649 5.29803L5.48693 2.56833C5.39176 2.43106 5.27219 2.33665 5.12941 2.27085L5.12255 2.26769C4.98564 2.20207 4.82645 2.16675 4.66267 2.16675ZM2.58005 2.08975C3.18885 1.49288 3.89236 1.16675 4.66267 1.16675C4.96502 1.16675 5.2719 1.23095 5.55137 1.36423C5.84039 1.49808 6.10276 1.70244 6.30699 1.99599L8.24069 4.71742C8.40762 4.9491 8.53646 5.17341 8.62905 5.39843C8.72277 5.6179 8.78477 5.85921 8.78477 6.10008C8.78477 6.3982 8.69773 6.68483 8.54069 6.94498C8.40524 7.18238 8.21825 7.41426 7.99894 7.63372L7.37439 8.28194C7.37466 8.29302 7.37569 8.30417 7.37852 8.31908C7.38302 8.33006 7.38803 8.34187 7.39411 8.35623L7.39673 8.3624C7.40344 8.37825 7.41264 8.39996 7.42225 8.42486C7.55207 8.65408 7.78034 8.97144 8.12194 9.37471C8.49092 9.80038 8.8827 10.2322 9.30578 10.663C9.75102 11.0992 10.1742 11.497 10.6023 11.8599C11.0102 12.2046 11.332 12.4274 11.5703 12.556C11.5938 12.566 11.6156 12.576 11.6323 12.5837C11.6513 12.5924 11.6679 12.6 11.6836 12.6069C11.6874 12.6074 11.6951 12.6082 11.7084 12.6084L12.3381 11.9879C12.3385 11.9875 12.3389 11.9871 12.3393 11.9867C12.5634 11.7631 12.7992 11.5709 13.0467 11.4393C13.3032 11.2863 13.5794 11.2001 13.8848 11.2001C14.1166 11.2001 14.3476 11.2494 14.583 11.3455C14.8086 11.4377 15.0318 11.5655 15.259 11.7198L15.2674 11.7254L18.0275 13.6823C18.3076 13.8764 18.5232 14.1194 18.6572 14.4235L18.6606 14.4312L18.6638 14.4391C18.7656 14.6932 18.8332 14.965 18.8332 15.2751C18.8332 15.6502 18.7495 16.0314 18.5765 16.3972C18.4148 16.7392 18.2042 17.0643 17.9273 17.3695C17.4745 17.8676 16.9641 18.2393 16.3789 18.479C15.8153 18.7132 15.2079 18.8334 14.5608 18.8334C13.6306 18.8334 12.6543 18.6148 11.6444 18.1852C10.6463 17.7606 9.65382 17.191 8.67512 16.4795C7.69474 15.7645 6.76543 14.9728 5.88011 14.0973L5.87668 14.0939C4.99996 13.21 4.20731 12.2825 3.49919 11.3113L3.49749 11.309C2.79551 10.3345 2.22489 9.35239 1.80731 8.37082L1.80669 8.36936C1.38499 7.36932 1.1665 6.39487 1.1665 5.45008C1.1665 4.82455 1.27709 4.21978 1.50229 3.65712C1.73067 3.07812 2.08987 2.55246 2.58005 2.08975Z" fill="#707070"/>
    </svg>
    