<svg width="33" height="32" viewBox="0 0 33 32" fill="none" xmlns="http://www.w3.org/2000/svg">
    <path fill-rule="evenodd" clip-rule="evenodd" d="M16.5 3.4667C9.57806 3.4667 3.9667 9.07806 3.9667 16C3.9667 22.922 9.57806 28.5334 16.5 28.5334C23.422 28.5334 29.0334 22.922 29.0334 16C29.0334 9.07806 23.422 3.4667 16.5 3.4667ZM2.3667 16C2.3667 8.19441 8.69441 1.8667 16.5 1.8667C24.3057 1.8667 30.6334 8.19441 30.6334 16C30.6334 23.8057 24.3057 30.1334 16.5 30.1334C8.69441 30.1334 2.3667 23.8057 2.3667 16Z" fill="currentColor"/>
    <path d="M12.5002 12.0001C12.5002 12.7365 11.9032 13.3334 11.1668 13.3334C10.4304 13.3334 9.8335 12.7365 9.8335 12.0001C9.8335 11.2637 10.4304 10.6667 11.1668 10.6667C11.9032 10.6667 12.5002 11.2637 12.5002 12.0001Z" fill="currentColor"/>
    <path d="M23.1667 12.0001C23.1667 12.7365 22.5697 13.3334 21.8333 13.3334C21.097 13.3334 20.5 12.7365 20.5 12.0001C20.5 11.2637 21.097 10.6667 21.8333 10.6667C22.5697 10.6667 23.1667 11.2637 23.1667 12.0001Z" fill="currentColor"/>
    <path fill-rule="evenodd" clip-rule="evenodd" d="M10.601 19.4343C10.9134 19.1218 11.42 19.1218 11.7324 19.4343C12.8817 20.5836 14.6588 21.2 16.5 21.2C18.3412 21.2 20.1183 20.5836 21.2677 19.4343C21.5801 19.1218 22.0866 19.1218 22.3991 19.4343C22.7115 19.7467 22.7115 20.2532 22.3991 20.5656C20.8817 22.0829 18.6588 22.8 16.5 22.8C14.3412 22.8 12.1183 22.0829 10.601 20.5656C10.2886 20.2532 10.2886 19.7467 10.601 19.4343Z" fill="currentColor"/>
    </svg>
    