<svg width="20" height="20" viewBox="0 0 20 20" fill="none" xmlns="http://www.w3.org/2000/svg">
    <path fill-rule="evenodd" clip-rule="evenodd" d="M0.333496 4.16675C0.333496 2.50989 1.67664 1.16675 3.3335 1.16675H12.9168C13.193 1.16675 13.4168 1.39061 13.4168 1.66675C13.4168 1.94289 13.193 2.16675 12.9168 2.16675H3.3335C2.22893 2.16675 1.3335 3.06218 1.3335 4.16675V15.8334C1.3335 16.938 2.22893 17.8334 3.3335 17.8334H15.0002C16.1047 17.8334 17.0002 16.938 17.0002 15.8334V9.16675C17.0002 8.89061 17.224 8.66675 17.5002 8.66675C17.7763 8.66675 18.0002 8.89061 18.0002 9.16675V15.8334C18.0002 17.4903 16.657 18.8334 15.0002 18.8334H3.3335C1.67664 18.8334 0.333496 17.4903 0.333496 15.8334V4.16675Z" fill="#707070"/>
    <path fill-rule="evenodd" clip-rule="evenodd" d="M15.7242 1.90249C16.2449 1.38179 17.0891 1.38179 17.6098 1.90249L18.9313 3.22398C19.452 3.74468 19.452 4.5889 18.9313 5.10959L13.0206 11.0203C12.9605 11.0804 12.8861 11.1242 12.8044 11.1475L9.30436 12.1475C9.12977 12.1974 8.94185 12.1487 8.81345 12.0203C8.68505 11.8919 8.63636 11.704 8.68624 11.5294L9.68624 8.02942C9.70959 7.94772 9.75337 7.87332 9.81345 7.81323L15.7242 1.90249ZM16.9027 2.60959C16.7725 2.47942 16.5615 2.47942 16.4313 2.60959L16.1241 2.91678L17.917 4.70968L18.2242 4.40249C18.3544 4.27231 18.3544 4.06126 18.2242 3.93108L16.9027 2.60959ZM17.2099 5.41679L15.417 3.62389L10.6122 8.42872L9.89502 10.9388L12.4051 10.2216L17.2099 5.41679Z" fill="#707070"/>
    </svg>
    