<svg width="16" height="16" viewBox="0 0 16 16" fill="none" xmlns="http://www.w3.org/2000/svg">
<path fill-rule="evenodd" clip-rule="evenodd" d="M0.266724 1.33323C0.266724 1.11231 0.44581 0.933228 0.666724 0.933228H4.66672C4.88764 0.933228 5.06672 1.11231 5.06672 1.33323C5.06672 1.55414 4.88764 1.73323 4.66672 1.73323H1.06672V3.99989C1.06672 4.22081 0.887637 4.39989 0.666724 4.39989C0.44581 4.39989 0.266724 4.22081 0.266724 3.99989V1.33323Z" fill="#212121"/>
<path fill-rule="evenodd" clip-rule="evenodd" d="M15.7334 1.33323C15.7334 1.11231 15.5543 0.933228 15.3334 0.933228H11.3334C11.1125 0.933228 10.9334 1.11231 10.9334 1.33323C10.9334 1.55414 11.1125 1.73323 11.3334 1.73323H14.9334V3.99989C14.9334 4.22081 15.1125 4.39989 15.3334 4.39989C15.5543 4.39989 15.7334 4.22081 15.7334 3.99989V1.33323Z" fill="#212121"/>
<path fill-rule="evenodd" clip-rule="evenodd" d="M15.7334 14.6665C15.7334 14.8874 15.5543 15.0665 15.3334 15.0665H12.0001C11.7792 15.0665 11.6001 14.8874 11.6001 14.6665C11.6001 14.4456 11.7792 14.2665 12.0001 14.2665H14.9334V11.9999C14.9334 11.7789 15.1125 11.5999 15.3334 11.5999C15.5543 11.5999 15.7334 11.7789 15.7334 11.9999V14.6665Z" fill="#212121"/>
<path fill-rule="evenodd" clip-rule="evenodd" d="M0.266724 14.6665C0.266724 14.8874 0.44581 15.0665 0.666724 15.0665H4.66672C4.88764 15.0665 5.06672 14.8874 5.06672 14.6665C5.06672 14.4456 4.88764 14.2665 4.66672 14.2665H1.06672V11.9999C1.06672 11.7789 0.887637 11.5999 0.666724 11.5999C0.44581 11.5999 0.266724 11.7789 0.266724 11.9999V14.6665Z" fill="#212121"/>
<path fill-rule="evenodd" clip-rule="evenodd" d="M2.33341 2.6665V13.3332H1.66675V2.6665H2.33341Z" fill="#212121"/>
<path fill-rule="evenodd" clip-rule="evenodd" d="M7.33341 2.6665V13.3332H6.66675V2.6665H7.33341Z" fill="#212121"/>
<path fill-rule="evenodd" clip-rule="evenodd" d="M10.6667 2.6665V13.3332H10V2.6665H10.6667Z" fill="#212121"/>
<path fill-rule="evenodd" clip-rule="evenodd" d="M11.6667 2.6665V13.3332H11V2.6665H11.6667Z" fill="#212121"/>
<path fill-rule="evenodd" clip-rule="evenodd" d="M14.3334 2.6665V13.3332H13.6667V2.6665H14.3334Z" fill="#212121"/>
<path fill-rule="evenodd" clip-rule="evenodd" d="M4.00008 2.6665V13.3332H2.66675V2.6665H4.00008Z" fill="#212121"/>
<path fill-rule="evenodd" clip-rule="evenodd" d="M13.3333 2.6665V13.3332H12V2.6665H13.3333Z" fill="#212121"/>
<path fill-rule="evenodd" clip-rule="evenodd" d="M6.33337 2.6665V13.3332H4.33337V2.6665H6.33337Z" fill="#212121"/>
<path fill-rule="evenodd" clip-rule="evenodd" d="M9.66675 2.6665V13.3332H7.66675V2.6665H9.66675Z" fill="#212121"/>
</svg>
