<svg width="16" height="16" viewBox="0 0 16 16" fill="none" xmlns="http://www.w3.org/2000/svg">
<path fill-rule="evenodd" clip-rule="evenodd" d="M0.933594 7.99977C0.933594 4.09696 4.09745 0.933105 8.00026 0.933105C9.63811 0.933105 11.1468 1.49079 12.3453 2.42637C12.5194 2.56231 12.5504 2.81368 12.4144 2.98781C12.2785 3.16195 12.0271 3.19292 11.853 3.05698C10.7902 2.22727 9.45348 1.73311 8.00026 1.73311C4.53928 1.73311 1.73359 4.53879 1.73359 7.99977C1.73359 11.45 4.52191 14.249 7.9681 14.2664C7.97009 14.2424 7.97116 14.2087 7.96916 14.1631C7.96367 14.0379 7.93877 13.8803 7.90236 13.6851C7.89285 13.6341 7.88251 13.5803 7.8718 13.5247C7.84361 13.3781 7.81289 13.2183 7.78825 13.0621C7.72277 12.6469 7.67294 12.1177 7.878 11.6832C7.98784 11.4505 8.16602 11.2538 8.42394 11.1208C8.67445 10.9917 8.97927 10.9331 9.33359 10.9331C10.981 10.9331 12.2277 10.7164 13.0515 10.2447C13.4559 10.0131 13.7538 9.72273 13.9533 9.3663C14.1534 9.00873 14.2669 8.56197 14.2669 7.99977C14.2669 6.92048 13.9944 5.90602 13.5148 5.02027C13.4096 4.82601 13.4818 4.58325 13.676 4.47805C13.8703 4.37286 14.113 4.44506 14.2182 4.63932C14.7597 5.63915 15.0669 6.78417 15.0669 7.99977C15.0669 8.67137 14.9305 9.25819 14.6514 9.75695C14.3717 10.2569 13.9613 10.6456 13.449 10.9389C12.4395 11.517 11.0196 11.7331 9.33359 11.7331C9.06197 11.7331 8.89361 11.7787 8.79055 11.8319C8.69491 11.8812 8.63912 11.9449 8.60147 12.0247C8.51153 12.2152 8.51254 12.5193 8.57848 12.9375C8.6009 13.0796 8.6276 13.2184 8.65485 13.3601C8.66616 13.4189 8.67757 13.4782 8.6888 13.5384C8.72525 13.7338 8.76019 13.9408 8.76839 14.1281C8.77609 14.3037 8.76523 14.5354 8.64448 14.7323C8.49918 14.9693 8.25598 15.0664 8.00026 15.0664C4.09745 15.0664 0.933594 11.9026 0.933594 7.99977Z" fill="#131313"/>
<path fill-rule="evenodd" clip-rule="evenodd" d="M4.33398 7.33333C4.51808 7.33333 4.66732 7.1841 4.66732 7C4.66732 6.81591 4.51808 6.66667 4.33398 6.66667C4.14989 6.66667 4.00065 6.81591 4.00065 7C4.00065 7.1841 4.14989 7.33333 4.33398 7.33333ZM5.33398 7C5.33398 7.55228 4.88627 8 4.33398 8C3.7817 8 3.33398 7.55228 3.33398 7C3.33398 6.44772 3.7817 6 4.33398 6C4.88627 6 5.33398 6.44772 5.33398 7Z" fill="#131313"/>
<path fill-rule="evenodd" clip-rule="evenodd" d="M6.33398 4.66683C6.51808 4.66683 6.66732 4.51759 6.66732 4.3335C6.66732 4.1494 6.51808 4.00016 6.33398 4.00016C6.14989 4.00016 6.00065 4.1494 6.00065 4.3335C6.00065 4.51759 6.14989 4.66683 6.33398 4.66683ZM7.33398 4.3335C7.33398 4.88578 6.88627 5.3335 6.33398 5.3335C5.7817 5.3335 5.33398 4.88578 5.33398 4.3335C5.33398 3.78121 5.7817 3.3335 6.33398 3.3335C6.88627 3.3335 7.33398 3.78121 7.33398 4.3335Z" fill="#131313"/>
<path fill-rule="evenodd" clip-rule="evenodd" d="M9.66602 4.66683C9.85011 4.66683 9.99935 4.51759 9.99935 4.3335C9.99935 4.1494 9.85011 4.00016 9.66602 4.00016C9.48192 4.00016 9.33268 4.1494 9.33268 4.3335C9.33268 4.51759 9.48192 4.66683 9.66602 4.66683ZM10.666 4.3335C10.666 4.88578 10.2183 5.3335 9.66602 5.3335C9.11373 5.3335 8.66602 4.88578 8.66602 4.3335C8.66602 3.78121 9.11373 3.3335 9.66602 3.3335C10.2183 3.3335 10.666 3.78121 10.666 4.3335Z" fill="#131313"/>
<path fill-rule="evenodd" clip-rule="evenodd" d="M4.33398 10.6668C4.51808 10.6668 4.66732 10.5176 4.66732 10.3335C4.66732 10.1494 4.51808 10.0002 4.33398 10.0002C4.14989 10.0002 4.00065 10.1494 4.00065 10.3335C4.00065 10.5176 4.14989 10.6668 4.33398 10.6668ZM5.33398 10.3335C5.33398 10.8858 4.88627 11.3335 4.33398 11.3335C3.7817 11.3335 3.33398 10.8858 3.33398 10.3335C3.33398 9.78121 3.7817 9.3335 4.33398 9.3335C4.88627 9.3335 5.33398 9.78121 5.33398 10.3335Z" fill="#131313"/>
<path fill-rule="evenodd" clip-rule="evenodd" d="M14.94 0.999657C15.0791 1.10388 15.1148 1.29753 15.0219 1.44449L10.6925 8.29691C10.6951 9.02058 10.4501 9.49691 10.0474 9.79933C9.67757 10.0771 9.20823 10.1755 8.85839 10.2489C8.8416 10.2524 8.82508 10.2558 8.80886 10.2593C8.2757 10.3718 7.93549 10.76 7.67953 11.1246C7.59599 11.2436 7.44493 11.2948 7.30627 11.251C7.16761 11.2071 7.07336 11.0785 7.07337 10.9331C7.07337 10.8614 7.07198 10.7786 7.07045 10.6868C7.06198 10.1815 7.04898 9.4053 7.23877 8.72527C7.35308 8.31565 7.54807 7.90858 7.88676 7.6032C8.20175 7.31919 8.61617 7.14562 9.14059 7.11738L14.49 1.04608C14.605 0.915648 14.8008 0.895437 14.94 0.999657ZM9.19148 7.7823C8.79255 7.80077 8.52367 7.92658 8.33319 8.09833C8.12014 8.29042 7.97495 8.56747 7.8809 8.90447C7.77656 9.27834 7.74395 9.68622 7.73597 10.0663C7.98186 9.86276 8.28855 9.68772 8.6712 9.60696C9.06392 9.52409 9.40038 9.45153 9.64706 9.26626C9.83993 9.12141 10.0114 8.87861 10.025 8.37597L9.19148 7.7823ZM10.2637 7.72748L12.2205 4.63026L9.78927 7.3896L10.2637 7.72748Z" fill="#131313"/>
</svg>
