<svg width="24" height="24" viewBox="0 0 24 24" fill="none" xmlns="http://www.w3.org/2000/svg">
<path fill-rule="evenodd" clip-rule="evenodd" d="M11.3211 1.56392C11.5313 1.45554 11.7653 1.40039 12.0004 1.40039C12.2355 1.40039 12.4695 1.45554 12.6797 1.56392L21.846 6.19662C22.0631 6.30739 22.2519 6.47176 22.3873 6.67949C22.5232 6.8879 22.5989 7.13062 22.6004 7.38264L22.6004 7.38623L22.6004 16.6146L22.6004 16.6181C22.5989 16.8702 22.5232 17.1129 22.3873 17.3213C22.2519 17.529 22.0631 17.6934 21.846 17.8042L21.8439 17.8052L12.6796 22.4369C12.4694 22.5453 12.2355 22.6004 12.0004 22.6004C11.7642 22.6004 11.5292 22.5447 11.3182 22.4354C11.3181 22.4353 11.3184 22.4354 11.3182 22.4354L2.15478 17.69C2.15416 17.6897 2.15355 17.6894 2.15294 17.6891C1.93662 17.5783 1.74847 17.4143 1.61344 17.2071C1.47758 16.9987 1.40191 16.756 1.4004 16.504L1.40039 16.5004V7.38264C1.4019 7.13062 1.47758 6.8879 1.61344 6.67949C1.74885 6.47176 1.93769 6.30739 2.15478 6.19663L2.15683 6.19558L11.3211 1.56392ZM12.0004 2.60039C11.9514 2.60039 11.9064 2.61214 11.8704 2.6308L11.8648 2.63372L2.70017 7.26552C2.69992 7.26565 2.70043 7.26539 2.70017 7.26552C2.65968 7.28634 2.63316 7.31263 2.6187 7.33481C2.60489 7.356 2.60064 7.37446 2.60039 7.3889V16.4977C2.60064 16.5122 2.60489 16.5306 2.6187 16.5518C2.63325 16.5741 2.65924 16.6002 2.70017 16.6211L2.70339 16.6227L11.8701 21.3698C11.906 21.3884 11.9514 21.4004 12.0004 21.4004C12.0493 21.4004 12.0944 21.3886 12.1304 21.37L12.136 21.3671L21.3006 16.7353C21.3009 16.7351 21.3003 16.7354 21.3006 16.7353C21.341 16.7144 21.3676 16.6881 21.3821 16.666C21.3959 16.6448 21.4001 16.6264 21.4004 16.6119V7.38886C21.4001 7.37443 21.3959 7.35598 21.3821 7.33481C21.3676 7.31264 21.3419 7.28675 21.3014 7.26594C21.3011 7.2658 21.3017 7.26607 21.3014 7.26594L12.1303 2.63083C12.0944 2.61217 12.0493 2.60039 12.0004 2.60039Z" fill="#CCAA00"/>
<path fill-rule="evenodd" clip-rule="evenodd" d="M1.5783 6.73379C1.72669 6.4375 2.08718 6.31761 2.38347 6.466L12.0914 11.328L21.6128 6.46807C21.908 6.31742 22.2694 6.43455 22.42 6.7297C22.5707 7.02485 22.4535 7.38624 22.1584 7.53688L12.3667 12.5348C12.1968 12.6215 11.9958 12.6223 11.8253 12.5368L1.84609 7.53895C1.54981 7.39056 1.42991 7.03008 1.5783 6.73379Z" fill="#CCAA00"/>
<path fill-rule="evenodd" clip-rule="evenodd" d="M12.0998 11.4004C12.4311 11.4035 12.6972 11.6747 12.6941 12.006L12.6004 22.0018C12.5973 22.3332 12.3261 22.5993 11.9948 22.5962C11.6634 22.593 11.3973 22.3219 11.4004 21.9906L11.4942 11.9948C11.4973 11.6634 11.7684 11.3973 12.0998 11.4004Z" fill="#CCAA00"/>
<path fill-rule="evenodd" clip-rule="evenodd" d="M6.96956 4.22106C7.1239 3.92783 7.48672 3.81523 7.77996 3.96956L17.28 8.96956C17.4771 9.07331 17.6005 9.27774 17.6005 9.50051V11.5005C17.6005 11.8319 17.3319 12.1005 17.0005 12.1005C16.6691 12.1005 16.4005 11.8319 16.4005 11.5005V9.86275L7.22106 5.03146C6.92783 4.87713 6.81523 4.5143 6.96956 4.22106Z" fill="#CCAA00"/>
</svg>
