<svg width="20" height="20" viewBox="0 0 20 20" fill="none" xmlns="http://www.w3.org/2000/svg">
<path fill-rule="evenodd" clip-rule="evenodd" d="M9.43399 1.30327C9.60919 1.21295 9.80417 1.16699 10.0001 1.16699C10.196 1.16699 10.391 1.21295 10.5662 1.30327L18.2048 5.16385C18.3857 5.25616 18.543 5.39314 18.6559 5.56624C18.7691 5.73992 18.8322 5.94218 18.8334 6.1522L18.8334 6.15519L18.8334 13.8455L18.8334 13.8484C18.8322 14.0585 18.7691 14.2607 18.6559 14.4344C18.543 14.6075 18.3857 14.7445 18.2048 14.8368L18.203 14.8377L10.5661 18.6974C10.3909 18.7877 10.196 18.8337 10.0001 18.8337C9.80329 18.8337 9.60742 18.7873 9.43161 18.6962C9.43151 18.6961 9.43172 18.6962 9.43161 18.6962L1.7954 14.7417C1.79489 14.7414 1.79438 14.7411 1.79387 14.7409C1.61361 14.6486 1.45682 14.5119 1.34429 14.3393C1.23107 14.1656 1.16801 13.9633 1.16676 13.7533L1.16675 13.7503V6.1522C1.168 5.94218 1.23107 5.73992 1.34429 5.56624C1.45713 5.39314 1.61449 5.25616 1.7954 5.16385L1.79711 5.16298L9.43399 1.30327ZM10.0001 2.16699C9.95929 2.16699 9.92175 2.17679 9.89178 2.19233L9.88709 2.19477L2.2499 6.0546C2.24969 6.05471 2.25011 6.05449 2.2499 6.0546C2.21616 6.07195 2.19406 6.09386 2.18201 6.11234C2.1705 6.13 2.16696 6.14538 2.16675 6.15742V13.7481C2.16696 13.7601 2.1705 13.7755 2.18201 13.7932C2.19413 13.8118 2.21579 13.8335 2.2499 13.8509L2.25258 13.8523L9.89147 17.8082C9.92144 17.8237 9.95929 17.8337 10.0001 17.8337C10.0409 17.8337 10.0784 17.8239 10.1084 17.8083L10.1131 17.8059L17.7503 13.946C17.7505 13.9459 17.75 13.9462 17.7503 13.946C17.784 13.9287 17.8061 13.9068 17.8182 13.8883C17.8297 13.8707 17.8332 13.8553 17.8334 13.8433V6.15739C17.8332 6.14536 17.8297 6.12998 17.8182 6.11234C17.8061 6.09387 17.7847 6.07229 17.7509 6.05495C17.7507 6.05483 17.7512 6.05506 17.7509 6.05495L10.1084 2.19236C10.0784 2.17681 10.0409 2.16699 10.0001 2.16699Z" fill="#66B366"/>
<path fill-rule="evenodd" clip-rule="evenodd" d="M1.31501 5.61141C1.43867 5.3645 1.73907 5.26459 1.98598 5.38825L10.0759 9.43995L18.0105 5.38997C18.2564 5.26443 18.5576 5.36205 18.6831 5.608C18.8087 5.85396 18.711 6.15511 18.4651 6.28066L10.3054 10.4456C10.1638 10.5178 9.99627 10.5185 9.85414 10.4473L1.53817 6.28238C1.29126 6.15872 1.19135 5.85832 1.31501 5.61141Z" fill="#66B366"/>
<path fill-rule="evenodd" clip-rule="evenodd" d="M10.0828 9.50039C10.3589 9.50298 10.5807 9.72893 10.5781 10.0051L10.5 18.3349C10.4974 18.611 10.2714 18.8328 9.99531 18.8302C9.71918 18.8276 9.49743 18.6016 9.50002 18.3255L9.57815 9.99568C9.58074 9.71955 9.80668 9.4978 10.0828 9.50039Z" fill="#66B366"/>
<path fill-rule="evenodd" clip-rule="evenodd" d="M5.80764 3.51747C5.93625 3.27311 6.23861 3.17927 6.48297 3.30789L14.3996 7.47455C14.5639 7.56101 14.6668 7.73137 14.6668 7.91701V9.58368C14.6668 9.85982 14.4429 10.0837 14.1668 10.0837C13.8906 10.0837 13.6668 9.85982 13.6668 9.58368V8.21888L6.01723 4.1928C5.77286 4.06419 5.67903 3.76184 5.80764 3.51747Z" fill="#66B366"/>
</svg>
