<svg width="16" height="16" viewBox="0 0 16 16" fill="none" xmlns="http://www.w3.org/2000/svg">
<path fill-rule="evenodd" clip-rule="evenodd" d="M1.97805 10.4836C1.93396 10.5277 1.93396 10.5992 1.97805 10.6433L5.35592 14.0212C5.40002 14.0653 5.4715 14.0653 5.51559 14.0212L14.0203 5.51643C14.0644 5.47234 14.0644 5.40085 14.0203 5.35676L10.6425 1.97889C10.5984 1.9348 10.5269 1.9348 10.4828 1.97889L1.97805 10.4836ZM1.41236 11.209C1.05585 10.8525 1.05585 10.2745 1.41236 9.91796L9.91712 1.4132C10.2736 1.05669 10.8516 1.05669 11.2082 1.4132L14.586 4.79108C14.9425 5.14759 14.9425 5.7256 14.586 6.08211L6.08128 14.5869C5.72477 14.9434 5.14675 14.9434 4.79024 14.5869L1.41236 11.209Z" fill="#212121"/>
<path fill-rule="evenodd" clip-rule="evenodd" d="M7.9736 3.35959C8.12981 3.20338 8.38308 3.20338 8.53929 3.35959L10.5909 5.41119C10.7471 5.5674 10.7471 5.82067 10.5909 5.97688C10.4347 6.13309 10.1814 6.13309 10.0252 5.97688L7.9736 3.92527C7.81739 3.76906 7.81739 3.5158 7.9736 3.35959Z" fill="#212121"/>
<path fill-rule="evenodd" clip-rule="evenodd" d="M5.66562 5.66757C5.82183 5.51136 6.07509 5.51136 6.2313 5.66757L8.28291 7.71918C8.43912 7.87539 8.43912 8.12865 8.28291 8.28486C8.1267 8.44107 7.87343 8.44107 7.71722 8.28486L5.66562 6.23326C5.50941 6.07705 5.50941 5.82378 5.66562 5.66757Z" fill="#212121"/>
<path fill-rule="evenodd" clip-rule="evenodd" d="M3.35751 7.97556C3.51372 7.81935 3.76699 7.81935 3.9232 7.97556L5.9748 10.0272C6.13101 10.1834 6.13101 10.4366 5.9748 10.5928C5.8186 10.7491 5.56533 10.7491 5.40912 10.5928L3.35751 8.54124C3.2013 8.38503 3.2013 8.13177 3.35751 7.97556Z" fill="#212121"/>
</svg>
