<svg width="32" height="32" viewBox="0 0 32 32" fill="none" xmlns="http://www.w3.org/2000/svg">
<path fill-rule="evenodd" clip-rule="evenodd" d="M16.0031 8.53125C16.445 8.53125 16.8031 8.88942 16.8031 9.33125V17.3312C16.8031 17.7731 16.445 18.1312 16.0031 18.1312C15.5613 18.1312 15.2031 17.7731 15.2031 17.3312V9.33125C15.2031 8.88942 15.5613 8.53125 16.0031 8.53125Z" fill="#7E99CA"/>
<path d="M15.9974 22.6667C16.7338 22.6667 17.3307 22.0697 17.3307 21.3333C17.3307 20.597 16.7338 20 15.9974 20C15.261 20 14.6641 20.597 14.6641 21.3333C14.6641 22.0697 15.261 22.6667 15.9974 22.6667Z" fill="#7E99CA"/>
<path fill-rule="evenodd" clip-rule="evenodd" d="M16.7845 3.49174C13.7374 3.30079 10.7254 4.2286 8.31395 6.101C5.90249 7.97341 4.2574 10.6616 3.68751 13.661C3.11762 16.6604 3.66213 19.7646 5.21881 22.391C5.33061 22.5796 5.36009 22.8059 5.30036 23.0168L3.99156 27.6394C3.97654 27.6908 3.97558 27.7452 3.98884 27.7971C4.00211 27.8489 4.02908 27.8963 4.06692 27.9341C4.10477 27.972 4.1521 27.9989 4.20396 28.0122C4.25581 28.0255 4.31028 28.0245 4.36165 28.0095L4.36828 28.0076L8.9842 26.7007C9.19517 26.641 9.42142 26.6704 9.61004 26.7822C12.2364 28.3389 15.3407 28.8834 18.34 28.3135C21.3394 27.7436 24.0276 26.0986 25.9 23.6871C27.7724 21.2756 28.7003 18.2636 28.5093 15.2166C28.3183 12.1695 27.0217 9.29695 24.8629 7.13813C22.7041 4.9793 19.8315 3.6827 16.7845 3.49174ZM7.33268 4.83723C10.052 2.7258 13.4485 1.67954 16.8845 1.89488C20.3206 2.11021 23.5599 3.57234 25.9943 6.00675C28.4287 8.44117 29.8908 11.6805 30.1062 15.1165C30.3215 18.5526 29.2752 21.9491 27.1638 24.6684C25.0524 27.3877 22.021 29.2428 18.6387 29.8854C15.3703 30.5064 11.9916 29.954 9.09532 28.3321L4.8108 29.5452C4.80951 29.5456 4.80822 29.5459 4.80693 29.5463C4.4812 29.6408 4.13608 29.6464 3.80745 29.5623C3.47752 29.4779 3.17636 29.3063 2.93555 29.0655C2.69474 28.8247 2.52315 28.5235 2.43875 28.1936C2.35468 27.8649 2.36022 27.5198 2.45476 27.194C2.45513 27.1928 2.4555 27.1915 2.45587 27.1902L3.66892 22.9057C2.04707 20.0095 1.49463 16.6307 2.11563 13.3623C2.75827 9.98007 4.61338 6.94867 7.33268 4.83723Z" fill="#7E99CA"/>
</svg>
