<svg width="32" height="32" viewBox="0 0 32 32" fill="none" xmlns="http://www.w3.org/2000/svg">
<path fill-rule="evenodd" clip-rule="evenodd" d="M3.99792 3.46719C2.96699 3.46719 2.13125 4.30292 2.13125 5.33385V23.83C2.20473 23.7273 2.28034 23.624 2.35792 23.5205C2.87846 22.8265 3.50803 22.1013 4.20649 21.5425C4.89383 20.9926 5.73549 20.5339 6.66458 20.5339H22.6686C23.698 20.5339 24.5312 19.6997 24.5312 18.6672V5.33385C24.5312 4.30292 23.6955 3.46719 22.6646 3.46719H3.99792ZM2.04668 27.0252C1.8807 27.3569 1.50847 27.531 1.14745 27.4458C0.786351 27.3605 0.53125 27.0382 0.53125 26.6672V5.33385C0.53125 3.41927 2.08333 1.86719 3.99792 1.86719H22.6646C24.5792 1.86719 26.1313 3.41927 26.1313 5.33385V18.6672C26.1313 20.5802 24.5847 22.1339 22.6686 22.1339H6.66458C6.26034 22.1339 5.76867 22.3418 5.20601 22.7919C4.65447 23.2331 4.11737 23.8412 3.63792 24.4805C3.16193 25.1152 2.76224 25.7542 2.48061 26.237C2.34028 26.4775 2.23041 26.6773 2.15623 26.8158C2.11915 26.885 2.09106 26.9388 2.07259 26.9745L2.05221 27.0143L2.0476 27.0234L2.04668 27.0252Z" fill="#7E99CA"/>
<path fill-rule="evenodd" clip-rule="evenodd" d="M7.19531 7.33125C7.19531 6.88942 7.55348 6.53125 7.99531 6.53125H21.3286C21.7705 6.53125 22.1286 6.88942 22.1286 7.33125C22.1286 7.77308 21.7705 8.13125 21.3286 8.13125H7.99531C7.55348 8.13125 7.19531 7.77308 7.19531 7.33125Z" fill="#7E99CA"/>
<path fill-rule="evenodd" clip-rule="evenodd" d="M9.86719 12.0031C9.86719 11.5613 10.2254 11.2031 10.6672 11.2031L21.3339 11.2031C21.7757 11.2031 22.1339 11.5613 22.1339 12.0031C22.1339 12.445 21.7757 12.8031 21.3339 12.8031L10.6672 12.8031C10.2254 12.8031 9.86719 12.445 9.86719 12.0031Z" fill="#7E99CA"/>
<path fill-rule="evenodd" clip-rule="evenodd" d="M12.5312 16.6672C12.5312 16.2254 12.8894 15.8672 13.3313 15.8672L21.3313 15.8672C21.7731 15.8672 22.1313 16.2254 22.1313 16.6672C22.1313 17.109 21.7731 17.4672 21.3313 17.4672L13.3313 17.4672C12.8894 17.4672 12.5312 17.109 12.5312 16.6672Z" fill="#7E99CA"/>
<path fill-rule="evenodd" clip-rule="evenodd" d="M26.5339 12.6672C26.5339 12.2254 26.892 11.8672 27.3339 11.8672H28.0005C29.9151 11.8672 31.4672 13.4193 31.4672 15.3339V29.3339C31.4672 29.6856 31.2374 29.9961 30.9011 30.0989C30.5657 30.2014 30.2028 30.0736 30.0057 29.7839C30.0056 29.7836 30.0054 29.7834 30.0053 29.7831C30.0049 29.7827 30.0046 29.7822 30.0043 29.7817C30.0043 29.7817 30.0043 29.7817 30.0043 29.7817L30.0046 29.7822L30.0052 29.7831L29.9965 29.7708C29.9873 29.7579 29.9714 29.7363 29.9489 29.707C29.9038 29.6484 29.8324 29.5597 29.7349 29.4508C29.5395 29.2325 29.2427 28.9371 28.847 28.6412C28.0575 28.0508 26.8881 27.4672 25.3339 27.4672H13.3331C11.4182 27.4672 9.86719 25.9148 9.86719 24.0005V23.3339C9.86719 22.892 10.2254 22.5339 10.6672 22.5339C11.109 22.5339 11.4672 22.892 11.4672 23.3339V24.0005C11.4672 25.0317 12.3025 25.8672 13.3331 25.8672H25.3339C27.3145 25.8672 28.8118 26.6169 29.8052 27.3599C29.8261 27.3755 29.8467 27.3911 29.8672 27.4067V15.3339C29.8672 14.3029 29.0315 13.4672 28.0005 13.4672H27.3339C26.892 13.4672 26.5339 13.109 26.5339 12.6672Z" fill="#7E99CA"/>
</svg>
