<svg width="32" height="32" viewBox="0 0 32 32" fill="none" xmlns="http://www.w3.org/2000/svg">
<path fill-rule="evenodd" clip-rule="evenodd" d="M27.5859 5.14468C27.5859 3.77467 28.574 2.66406 29.7928 2.66406C31.0117 2.66406 31.9997 3.77467 31.9997 5.14468V26.8501C31.9997 28.2201 31.0117 29.3307 29.7928 29.3307C28.574 29.3307 27.5859 28.2201 27.5859 26.8501V5.14468ZM29.7928 4.52453C29.4881 4.52453 29.2411 4.80218 29.2411 5.14468V26.8501C29.2411 27.1926 29.4881 27.4703 29.7928 27.4703C30.0975 27.4703 30.3446 27.1926 30.3446 26.8501V5.14468C30.3446 4.80218 30.0975 4.52453 29.7928 4.52453Z" fill="#7E99CA"/>
<path fill-rule="evenodd" clip-rule="evenodd" d="M0 12.8947C0 11.5247 0.988061 10.4141 2.2069 10.4141C3.42573 10.4141 4.41379 11.5247 4.41379 12.8947V19.0962C4.41379 20.4662 3.42573 21.5769 2.2069 21.5769C0.988061 21.5769 0 20.4662 0 19.0962V12.8947ZM2.2069 12.2745C1.90219 12.2745 1.65517 12.5522 1.65517 12.8947V19.0962C1.65517 19.4387 1.90219 19.7164 2.2069 19.7164C2.51161 19.7164 2.75862 19.4387 2.75862 19.0962V12.8947C2.75862 12.5522 2.51161 12.2745 2.2069 12.2745Z" fill="#7E99CA"/>
<path fill-rule="evenodd" clip-rule="evenodd" d="M29.2106 4.90025C29.3329 5.39526 29.0751 5.90801 28.6347 6.04551L3.80711 13.7975C3.36672 13.935 2.91054 13.6451 2.78821 13.1501C2.66588 12.6551 2.92372 12.1424 3.36411 12.0049L28.1917 4.25292C28.6321 4.11542 29.0883 4.40524 29.2106 4.90025Z" fill="#7E99CA"/>
<path fill-rule="evenodd" clip-rule="evenodd" d="M2.78821 18.8456C2.91054 18.3505 3.36672 18.0607 3.80711 18.1982L28.6347 25.9502C29.0751 26.0877 29.3329 26.6004 29.2106 27.0954C29.0883 27.5904 28.6321 27.8803 28.1917 27.7428L3.36411 19.9908C2.92372 19.8533 2.66588 19.3406 2.78821 18.8456Z" fill="#7E99CA"/>
<path fill-rule="evenodd" clip-rule="evenodd" d="M6.89844 23.7492V20.6484H8.55361V23.0787L13.1053 24.7842V22.1988H14.7605V26.0748C14.7605 26.3738 14.6326 26.6546 14.4168 26.8294C14.201 27.0043 13.9236 27.0518 13.6712 26.9573L7.46432 24.6317C7.12638 24.5051 6.89844 24.1496 6.89844 23.7492Z" fill="#7E99CA"/>
</svg>
