<svg width="32" height="32" viewBox="0 0 32 32" fill="none" xmlns="http://www.w3.org/2000/svg">
<path fill-rule="evenodd" clip-rule="evenodd" d="M14.7975 2.05577C15.145 1.80278 15.5636 1.66406 15.9965 1.66406C16.4294 1.66406 16.848 1.80278 17.1955 2.05577C17.5379 2.3051 17.7935 2.65209 17.9349 3.04646L20.7509 10.419L20.7586 10.4398C20.7673 10.4642 20.7806 10.4796 20.7912 10.4878C20.8013 10.4956 20.809 10.4971 20.8129 10.4973L20.8194 10.4977L28.3829 11.0042C29.3659 11.0705 30.0141 11.771 30.236 12.5163C30.4562 13.256 30.3036 14.1767 29.586 14.7971C29.5857 14.7974 29.5853 14.7977 29.585 14.798L23.7889 19.8241C23.7706 19.8397 23.7525 19.8646 23.7417 19.8986C23.731 19.9323 23.7294 19.9695 23.7375 20.0048C23.7376 20.0054 23.7378 20.0059 23.7379 20.0065L25.6082 27.6512C25.8275 28.5512 25.4733 29.398 24.8517 29.8874C24.2209 30.3839 23.2872 30.525 22.4732 29.9912L22.4707 29.9895L16.0097 25.7246C16.0026 25.72 15.9978 25.7194 15.9965 25.7194C15.9952 25.7194 15.9909 25.7196 15.9839 25.7242L9.97184 29.6824C9.97162 29.6826 9.97206 29.6823 9.97184 29.6824C9.07743 30.2737 8.05082 30.1157 7.35782 29.568C6.67303 29.0268 6.2805 28.0912 6.52575 27.0915C6.52585 27.0911 6.52566 27.0919 6.52575 27.0915L8.25509 20.0065C8.25521 20.006 8.25532 20.0055 8.25543 20.005C8.26359 19.9697 8.262 19.9323 8.2513 19.8986C8.24053 19.8646 8.22236 19.8397 8.20412 19.8241L8.20087 19.8213L2.40803 14.798C2.40776 14.7978 2.40831 14.7983 2.40803 14.798C1.69021 14.1776 1.53678 13.256 1.75701 12.5163C1.9789 11.771 2.62658 11.0706 3.60955 11.0042L11.1801 10.4973C11.184 10.4971 11.1917 10.4956 11.2018 10.4878C11.2124 10.4796 11.2257 10.4642 11.2344 10.4398L11.2421 10.419L14.0581 3.04646C14.1995 2.6521 14.4551 2.3051 14.7975 2.05577ZM17.112 24.0558C17.1122 24.056 17.1118 24.0557 17.112 24.0558L23.57 28.3187C23.5702 28.3189 23.5698 28.3186 23.57 28.3187C23.5781 28.324 23.5848 28.3275 23.5882 28.329C23.5891 28.3294 23.5899 28.3297 23.5905 28.33C23.5948 28.3285 23.6031 28.3249 23.6145 28.3159C23.6343 28.3003 23.6529 28.2762 23.6635 28.2467C23.6725 28.2215 23.6793 28.1833 23.6654 28.1258C23.6653 28.1257 23.6654 28.1258 23.6654 28.1258L21.7925 20.4707C21.6998 20.0824 21.7145 19.6751 21.8352 19.2943C21.9557 18.914 22.1786 18.5715 22.4833 18.309C22.4839 18.3085 22.4845 18.3079 22.4851 18.3074L28.2763 13.2856L28.2779 13.2842C28.3038 13.2619 28.3167 13.239 28.3238 13.2107C28.3323 13.1771 28.3327 13.1324 28.3191 13.087C28.3056 13.0414 28.2848 13.0167 28.2749 13.008C28.2714 13.0049 28.2671 13.001 28.249 12.9997C28.2489 12.9997 28.2491 12.9997 28.249 12.9997L20.6922 12.4937C20.6909 12.4936 20.6897 12.4935 20.6885 12.4934C20.281 12.468 19.8932 12.3203 19.572 12.0732C19.2536 11.8283 19.015 11.4975 18.8792 11.1239L16.0623 3.74895C16.0589 3.74014 16.0556 3.73128 16.0525 3.72238C16.0434 3.69637 16.0292 3.68052 16.0183 3.67259C16.0079 3.66508 16.0004 3.66406 15.9965 3.66406C15.9926 3.66406 15.985 3.66508 15.9747 3.67259C15.9638 3.68052 15.9496 3.69636 15.9405 3.72238C15.9374 3.73128 15.9341 3.74014 15.9307 3.74895L13.1138 11.1239C12.978 11.4975 12.7394 11.8283 12.421 12.0732C12.0998 12.3203 11.712 12.468 11.3045 12.4934L3.74426 12.9997C3.74417 12.9997 3.74435 12.9997 3.74426 12.9997C3.72617 13.0009 3.72237 13.0041 3.71885 13.0073C3.71859 13.0076 3.71913 13.0071 3.71885 13.0073C3.70905 13.0159 3.68743 13.0414 3.67387 13.087C3.66034 13.1324 3.66065 13.1771 3.66917 13.2107C3.67634 13.239 3.6892 13.2619 3.7151 13.2842L3.71671 13.2856L9.50789 18.3074C9.5085 18.3079 9.5091 18.3085 9.5097 18.309C9.81444 18.5715 10.0373 18.914 10.1578 19.2943C10.2785 19.6751 10.2931 20.0824 10.2005 20.4707L10.1993 20.4757L8.46861 27.5662L8.46823 27.5677C8.41922 27.7671 8.49457 27.9172 8.59791 27.9989C8.65018 28.0402 8.69934 28.0553 8.73411 28.0578C8.76156 28.0598 8.80435 28.0567 8.8683 28.0144L14.881 24.0558C14.8814 24.0555 14.8819 24.0552 14.8823 24.0549C15.2122 23.8372 15.5987 23.7194 15.9965 23.7194C16.3946 23.7194 16.782 23.8378 17.112 24.0558Z" fill="#7E99CA"/>
</svg>
