<svg width="32" height="32" viewBox="0 0 32 32" fill="none" xmlns="http://www.w3.org/2000/svg">
<path fill-rule="evenodd" clip-rule="evenodd" d="M7.83763 15.2404C8.55698 15.1064 9.21517 15.355 9.69715 15.6478C10.9468 16.4069 11.8671 16.883 12.7917 17.1772C13.7064 17.4683 14.667 17.5943 16.0044 17.5943C17.3415 17.5943 18.3018 17.4683 19.2162 17.1773C20.1405 16.8831 21.0606 16.4071 22.3099 15.6479C22.7919 15.3551 23.4503 15.1064 24.1698 15.2404C26.2176 15.6219 27.7152 17.3236 28.3881 19.345C29.067 21.3847 28.9638 23.8829 27.6973 26.0877L27.685 26.1083C26.3865 28.2195 23.9582 29.1945 21.7251 29.6636C19.4736 30.1367 17.2176 30.1367 16.0195 30.1367H15.9894C14.791 30.1367 12.5345 30.1367 10.2825 29.6636C8.04898 29.1945 5.62019 28.2195 4.32136 26.1084L4.30906 26.0877C3.0423 23.8829 2.93906 21.3845 3.61824 19.3447C4.29131 17.3233 5.78934 15.6217 7.83763 15.2404ZM8.86643 17.0152C8.56433 16.8317 8.31416 16.7791 8.13047 16.8133C6.82569 17.0562 5.68809 18.193 5.1363 19.8502C4.59169 21.4858 4.67292 23.5018 5.69032 25.2801C6.63753 26.8101 8.50849 27.6561 10.6114 28.0978C12.6911 28.5347 14.8039 28.5367 16.0044 28.5367C17.2047 28.5367 19.317 28.5347 21.3961 28.0978C23.4985 27.6561 25.369 26.8101 26.316 25.2801C27.3331 23.5019 27.4144 21.4859 26.8699 19.8503C26.3183 18.193 25.181 17.0563 23.8767 16.8134C23.6931 16.7792 23.4429 16.8317 23.1407 17.0153C21.8594 17.7939 20.8097 18.3492 19.7015 18.7019C18.5835 19.0578 17.4487 19.1943 16.0044 19.1943C14.5598 19.1943 13.4248 19.0578 12.3065 18.7019C11.1981 18.3492 10.1481 17.7939 8.86643 17.0152Z" fill="#7E99CA"/>
<path fill-rule="evenodd" clip-rule="evenodd" d="M16.0058 3.46719C12.7657 3.46719 10.1391 6.09384 10.1391 9.33398C10.1391 12.5741 12.7657 15.2008 16.0058 15.2008C19.246 15.2008 21.8726 12.5741 21.8726 9.33398C21.8726 6.09384 19.246 3.46719 16.0058 3.46719ZM8.53906 9.33398C8.53906 5.21018 11.8821 1.86719 16.0058 1.86719C20.1296 1.86719 23.4726 5.21018 23.4726 9.33398C23.4726 13.4578 20.1296 16.8008 16.0058 16.8008C11.8821 16.8008 8.53906 13.4578 8.53906 9.33398Z" fill="#7E99CA"/>
</svg>
