<svg width="32" height="32" viewBox="0 0 32 32" fill="none" xmlns="http://www.w3.org/2000/svg">
<path fill-rule="evenodd" clip-rule="evenodd" d="M2.8026 8.1574V12.818C2.80543 12.8217 2.80867 12.8257 2.81237 12.8301C2.8717 12.9008 2.98804 12.9955 3.14745 13.073L2.51565 14.4207C1.90648 14.1246 1.33594 13.5736 1.33594 12.8863V7.90851C1.33594 7.22122 1.88315 6.66406 2.55816 6.66406H29.447C30.1221 6.66406 30.6693 7.22122 30.6693 7.90851V12.9332C30.6693 13.6019 30.1314 14.1455 29.5379 14.4318C28.8981 14.7405 28.2248 15.3637 28.2248 16.6196C28.2248 17.8756 28.8981 18.4987 29.5379 18.8074C30.1314 19.0937 30.6693 19.6373 30.6693 20.306V24.0863C30.6693 24.7736 30.1221 25.3307 29.447 25.3307H2.55816C1.88315 25.3307 1.33594 24.7736 1.33594 24.0863V20.353C1.33594 19.6657 1.90648 19.1146 2.51565 18.8185C3.1406 18.5148 3.78038 17.8929 3.78038 16.6196C3.78038 15.3463 3.1406 14.7244 2.51565 14.4207L3.14745 13.073C3.63358 13.3093 4.17441 13.6936 4.591 14.3106C5.01501 14.9386 5.24705 15.7147 5.24705 16.6196C5.24705 17.5245 5.01501 18.3006 4.591 18.9286C4.17441 19.5457 3.63358 19.93 3.14745 20.1662C2.98804 20.2437 2.8717 20.3385 2.81237 20.4092C2.80867 20.4136 2.80543 20.4176 2.8026 20.4212V23.8374H29.2026V20.3733C29.2014 20.3718 29.2001 20.3702 29.1988 20.3686C29.1769 20.3417 29.1409 20.3054 29.0882 20.2654C29.0358 20.2256 28.9749 20.1883 28.9099 20.1569C28.4297 19.9253 27.8803 19.5486 27.4509 18.9409C27.0102 18.3172 26.7582 17.5374 26.7582 16.6196C26.7582 15.7019 27.0102 14.922 27.4509 14.2983C27.8803 13.6906 28.4297 13.314 28.9099 13.0823C28.9749 13.051 29.0358 13.0137 29.0882 12.9739C29.1409 12.9339 29.1769 12.8975 29.1988 12.8707C29.2001 12.869 29.2014 12.8675 29.2026 12.866V8.1574H2.8026Z" fill="#7E99CA"/>
<path fill-rule="evenodd" clip-rule="evenodd" d="M8.67083 7.16406C9.07584 7.16406 9.40417 7.49836 9.40417 7.91073V9.15517C9.40417 9.56755 9.07584 9.90184 8.67083 9.90184C8.26582 9.90184 7.9375 9.56755 7.9375 9.15517V7.91073C7.9375 7.49836 8.26582 7.16406 8.67083 7.16406Z" fill="#7E99CA"/>
<path fill-rule="evenodd" clip-rule="evenodd" d="M8.67083 11.5156C9.07584 11.5156 9.40417 11.8499 9.40417 12.2623V13.5067C9.40417 13.9191 9.07584 14.2534 8.67083 14.2534C8.26582 14.2534 7.9375 13.9191 7.9375 13.5067V12.2623C7.9375 11.8499 8.26582 11.5156 8.67083 11.5156Z" fill="#7E99CA"/>
<path fill-rule="evenodd" clip-rule="evenodd" d="M8.67083 17.1094C9.07584 17.1094 9.40417 17.4437 9.40417 17.856V19.1005C9.40417 19.5129 9.07584 19.8472 8.67083 19.8472C8.26582 19.8472 7.9375 19.5129 7.9375 19.1005V17.856C7.9375 17.4437 8.26582 17.1094 8.67083 17.1094Z" fill="#7E99CA"/>
<path fill-rule="evenodd" clip-rule="evenodd" d="M8.67083 22.0938C9.07584 22.0938 9.40417 22.428 9.40417 22.8404V24.0849C9.40417 24.4972 9.07584 24.8315 8.67083 24.8315C8.26582 24.8315 7.9375 24.4972 7.9375 24.0849V22.8404C7.9375 22.428 8.26582 22.0938 8.67083 22.0938Z" fill="#7E99CA"/>
<path d="M14.6719 13.3557V12.8074C14.6719 12.4134 14.7576 12.055 14.9291 11.7322C15.1007 11.4094 15.346 11.1506 15.6652 10.956C15.9844 10.7614 16.3632 10.6641 16.8015 10.6641C17.2494 10.6641 17.6305 10.7614 17.945 10.956C18.2642 11.1506 18.5095 11.4094 18.6811 11.7322C18.8526 12.055 18.9383 12.4134 18.9383 12.8074V13.3557C18.9383 13.7402 18.8526 14.0938 18.6811 14.4166C18.5143 14.7394 18.2713 14.9981 17.9521 15.1928C17.6377 15.3874 17.2589 15.4847 16.8158 15.4847C16.3727 15.4847 15.9892 15.3874 15.6652 15.1928C15.346 14.9981 15.1007 14.7394 14.9291 14.4166C14.7576 14.0938 14.6719 13.7402 14.6719 13.3557ZM15.6652 12.8074V13.3557C15.6652 13.574 15.7057 13.7805 15.7867 13.9751C15.8725 14.1698 16.0011 14.3288 16.1726 14.4522C16.3442 14.5709 16.5586 14.6302 16.8158 14.6302C17.0731 14.6302 17.2851 14.5709 17.4519 14.4522C17.6186 14.3288 17.7425 14.1698 17.8235 13.9751C17.9045 13.7805 17.945 13.574 17.945 13.3557V12.8074C17.945 12.5843 17.9021 12.3754 17.8163 12.1808C17.7353 11.9814 17.6091 11.8223 17.4376 11.7037C17.2708 11.5802 17.0588 11.5185 16.8015 11.5185C16.549 11.5185 16.337 11.5802 16.1655 11.7037C15.9987 11.8223 15.8725 11.9814 15.7867 12.1808C15.7057 12.3754 15.6652 12.5843 15.6652 12.8074ZM19.7387 19.1945V18.6391C19.7387 18.2499 19.8245 17.8939 19.996 17.571C20.1675 17.2482 20.4129 16.9895 20.7321 16.7949C21.0513 16.6003 21.4301 16.503 21.8684 16.503C22.3163 16.503 22.6974 16.6003 23.0118 16.7949C23.3311 16.9895 23.5764 17.2482 23.7479 17.571C23.9194 17.8939 24.0052 18.2499 24.0052 18.6391V19.1945C24.0052 19.5838 23.9194 19.9398 23.7479 20.2626C23.5812 20.5854 23.3382 20.8442 23.019 21.0388C22.7045 21.2334 22.3258 21.3307 21.8827 21.3307C21.4396 21.3307 21.0585 21.2334 20.7393 21.0388C20.42 20.8442 20.1723 20.5854 19.996 20.2626C19.8245 19.9398 19.7387 19.5838 19.7387 19.1945ZM20.7321 18.6391V19.1945C20.7321 19.4129 20.7726 19.6218 20.8536 19.8212C20.9394 20.0158 21.068 20.1748 21.2395 20.2982C21.411 20.4169 21.6254 20.4763 21.8827 20.4763C22.14 20.4763 22.352 20.4169 22.5187 20.2982C22.6903 20.1748 22.8165 20.0158 22.8975 19.8212C22.9785 19.6265 23.019 19.4177 23.019 19.1945V18.6391C23.019 18.416 22.9761 18.2072 22.8904 18.0125C22.8094 17.8179 22.6831 17.6612 22.5116 17.5426C22.3448 17.4191 22.1304 17.3574 21.8684 17.3574C21.6159 17.3574 21.4039 17.4191 21.2324 17.5426C21.0656 17.6612 20.9394 17.8179 20.8536 18.0125C20.7726 18.2072 20.7321 18.416 20.7321 18.6391ZM22.1971 12.2876L17.116 20.3908L16.3727 19.9208L21.4539 11.8176L22.1971 12.2876Z" fill="#7E99CA"/>
</svg>
