<svg width="32" height="32" viewBox="0 0 32 32" fill="none" xmlns="http://www.w3.org/2000/svg">
<path fill-rule="evenodd" clip-rule="evenodd" d="M19.4688 20.0047C19.4688 20.4465 19.1106 20.8047 18.6688 20.8047L4.66875 20.8047C3.14574 20.8047 1.86875 19.6012 1.86875 18.0653L1.86875 4.61014C1.86875 3.07419 3.14574 1.87075 4.66875 1.87075L24.6688 1.87075C26.1918 1.87075 27.4687 3.07419 27.4687 4.61014L27.4688 12.0047C27.4688 12.4465 27.1106 12.8047 26.6688 12.8047C26.2269 12.8047 25.8688 12.4465 25.8688 12.0047L25.8688 4.61014C25.8688 4.0039 25.3549 3.47075 24.6688 3.47075L4.66875 3.47075C3.98263 3.47075 3.46875 4.0039 3.46875 4.61014L3.46875 18.0653C3.46875 18.6715 3.98263 19.2047 4.66875 19.2047L18.6688 19.2047C19.1106 19.2047 19.4688 19.5629 19.4688 20.0047Z" fill="#EE828A"/>
<path fill-rule="evenodd" clip-rule="evenodd" d="M9.33125 23.2031L18.6646 23.2031C19.1064 23.2031 19.4646 23.5613 19.4646 24.0031C19.4646 24.445 19.1064 24.8031 18.6646 24.8031L9.33125 24.8031C8.88942 24.8031 8.53125 24.445 8.53125 24.0031C8.53125 23.5613 8.88942 23.2031 9.33125 23.2031Z" fill="#EE828A"/>
<path fill-rule="evenodd" clip-rule="evenodd" d="M1.86719 15.3313C1.86719 14.8894 2.22536 14.5312 2.66719 14.5312H18.6672C19.109 14.5312 19.4672 14.8894 19.4672 15.3313C19.4672 15.7731 19.109 16.1313 18.6672 16.1313H2.66719C2.22536 16.1313 1.86719 15.7731 1.86719 15.3313Z" fill="#EE828A"/>
<path fill-rule="evenodd" clip-rule="evenodd" d="M14.6672 19.3203C15.109 19.3203 15.4672 19.6785 15.4672 20.1203V23.9991C15.4672 24.4409 15.109 24.7991 14.6672 24.7991C14.2254 24.7991 13.8672 24.4409 13.8672 23.9991V20.1203C13.8672 19.6785 14.2254 19.3203 14.6672 19.3203Z" fill="#EE828A"/>
<path fill-rule="evenodd" clip-rule="evenodd" d="M17.8672 13.3365C17.8672 12.1583 18.8223 11.2031 20.0005 11.2031H28.0005C29.1787 11.2031 30.1339 12.1583 30.1339 13.3365V28.0031C30.1339 29.1813 29.1787 30.1365 28.0005 30.1365H20.0005C18.8223 30.1365 17.8672 29.1813 17.8672 28.0031V13.3365ZM26.7895 12.8031H28.0005C28.2951 12.8031 28.5339 13.0419 28.5339 13.3365V28.0031C28.5339 28.2977 28.2951 28.5365 28.0005 28.5365H20.0005C19.706 28.5365 19.4672 28.2977 19.4672 28.0031V13.3365C19.4672 13.0419 19.706 12.8031 20.0005 12.8031H21.2116C21.2751 13.1815 21.6041 13.4698 22.0005 13.4698H26.0005C26.3969 13.4698 26.726 13.1815 26.7895 12.8031Z" fill="#EE828A"/>
</svg>
