<svg width="32" height="32" viewBox="0 0 32 32" fill="none" xmlns="http://www.w3.org/2000/svg">
<path fill-rule="evenodd" clip-rule="evenodd" d="M2.48277 3.46719C2.4464 3.46719 2.37073 3.48364 2.287 3.5857C2.19962 3.69219 2.13125 3.86504 2.13125 4.0707V29.3339C2.13125 29.7757 1.77308 30.1339 1.33125 30.1339C0.889422 30.1339 0.53125 29.7757 0.53125 29.3339V4.0707C0.53125 3.53188 0.705518 2.99076 1.05004 2.57083C1.39821 2.14647 1.90833 1.86719 2.48277 1.86719H10.1587C10.622 1.86951 11.0501 2.05353 11.3829 2.35512L11.3847 2.35677L15.3844 6.00424C15.3846 6.00447 15.3841 6.00402 15.3844 6.00424C15.4502 6.06358 15.5063 6.07727 15.5409 6.07771H25.5131C26.0875 6.07771 26.5976 6.357 26.9458 6.78136C27.2903 7.20128 27.4646 7.74241 27.4646 8.28122V10.6672C27.4646 11.109 27.1064 11.4672 26.6646 11.4672C26.2228 11.4672 25.8646 11.109 25.8646 10.6672V8.28122C25.8646 8.07557 25.7962 7.90272 25.7088 7.79622C25.6251 7.69417 25.5494 7.67771 25.5131 7.67771H15.5341C15.0708 7.67539 14.6427 7.49137 14.3099 7.18978L14.3081 7.18813L10.3084 3.54066C10.3082 3.54047 10.3086 3.54085 10.3084 3.54066C10.2426 3.48122 10.1865 3.46763 10.1519 3.46719H2.48277Z" fill="#EE828A"/>
<path fill-rule="evenodd" clip-rule="evenodd" d="M17.7086 9.86719H29.5191C29.5192 9.86719 29.5191 9.86719 29.5191 9.86719C29.877 9.86717 30.2126 9.98342 30.496 10.18C30.7766 10.3745 30.9961 10.6399 31.1531 10.9344C31.3103 11.2295 31.4075 11.5581 31.4458 11.8925C31.4841 12.2273 31.4639 12.5705 31.3848 12.8972L31.3842 12.8995L27.3042 29.5245C27.2164 29.8823 26.8956 30.1339 26.5272 30.1339H1.33126C1.07908 30.1339 0.841672 30.015 0.690632 29.813C0.539591 29.6111 0.492604 29.3498 0.563843 29.1079L4.85779 14.5273C4.85794 14.5268 4.85809 14.5263 4.85824 14.5258C4.9759 14.1217 5.19025 13.74 5.50393 13.4522C5.82132 13.1609 6.23332 12.9754 6.68836 12.9783C6.68973 12.9783 6.6911 12.9783 6.69248 12.9783L6.6854 13.7783V12.9783H6.68836H13.5767C13.5757 12.9783 13.5749 12.9784 13.5741 12.9784L13.5857 13.7783V12.9783H13.5767C13.5925 12.9775 13.631 12.971 13.6878 12.9242L13.6771 12.9338L14.2156 13.5255L13.6943 12.9187C13.6921 12.9205 13.6899 12.9224 13.6878 12.9242L16.5403 10.3283L16.5575 10.3131C16.8709 10.0439 17.265 9.87353 17.697 9.86727L17.7086 9.86719ZM17.7176 11.4672C17.7017 11.468 17.6632 11.4745 17.6065 11.5213L14.754 14.1172L14.7368 14.1324C14.4234 14.4016 14.0292 14.572 13.5972 14.5782L13.5857 14.5784L6.67832 14.5783C6.67526 14.5783 6.66796 14.5786 6.65459 14.584C6.64058 14.5898 6.61649 14.6028 6.58578 14.631C6.52172 14.6898 6.44421 14.8018 6.39426 14.9737L6.39344 14.9765L2.40083 28.5339H25.8998L29.8297 12.5205C29.8298 12.5201 29.8299 12.5196 29.8301 12.5191C29.8638 12.3789 29.8734 12.2254 29.8562 12.0746C29.8388 11.923 29.7962 11.7904 29.7411 11.6869C29.6857 11.583 29.6263 11.5239 29.5842 11.4947C29.5451 11.4676 29.5236 11.4672 29.5193 11.4672H17.7176Z" fill="#EE828A"/>
</svg>
