<svg width="32" height="32" viewBox="0 0 32 32" fill="none" xmlns="http://www.w3.org/2000/svg">
<path fill-rule="evenodd" clip-rule="evenodd" d="M16.3084 10.136C13.4251 10.136 11.0878 12.3739 11.0878 15.1345C11.0878 15.966 11.4901 17.0247 11.9365 17.7949L11.9756 17.8625L11.999 17.9365C12.1574 18.4383 12.042 18.9079 11.8634 19.278C11.851 19.3038 11.8381 19.3294 11.8248 19.3548C11.8995 19.3217 11.9705 19.2899 12.0367 19.2602C12.1816 19.195 12.3022 19.1398 12.3864 19.101L12.4837 19.056L12.5088 19.0442L12.5164 19.0407C12.8352 18.8911 13.2107 18.9761 13.4283 19.226C13.4464 19.2404 13.464 19.2557 13.481 19.2719C13.7929 19.5706 14.298 19.7957 14.877 19.9425C15.444 20.0862 15.9949 20.1329 16.3084 20.1329C19.1916 20.1329 21.529 17.895 21.529 15.1345C21.529 12.3739 19.1916 10.136 16.3084 10.136ZM12.7183 20.5505C13.2589 20.9521 13.9136 21.1934 14.4907 21.3397C15.1934 21.5178 15.8749 21.5783 16.3084 21.5783C20.0254 21.5783 23.0385 18.6933 23.0385 15.1345C23.0385 11.5756 20.0254 8.69062 16.3084 8.69062C12.5914 8.69062 9.57823 11.5756 9.57823 15.1345C9.57823 16.2728 10.0743 17.5323 10.5632 18.4028C10.5677 18.4587 10.5553 18.5428 10.493 18.6718C10.4068 18.8505 10.2544 19.0516 10.0531 19.272C9.91925 19.4186 9.79566 19.541 9.6701 19.6654C9.59718 19.7377 9.52359 19.8106 9.44694 19.8892C9.35603 19.9826 9.25377 20.0918 9.17152 20.2022C9.11642 20.2761 8.94924 20.5008 8.94924 20.7964C8.94924 20.9368 8.98907 21.0976 9.0975 21.2439C9.20222 21.3852 9.33549 21.4653 9.44183 21.5089C9.63003 21.5862 9.80783 21.5806 9.88532 21.5761C10.0655 21.5655 10.2598 21.516 10.4165 21.4701C10.7524 21.3716 11.1766 21.2087 11.574 21.0454C11.9779 20.8796 12.3794 20.7029 12.6785 20.5684C12.6919 20.5623 12.7052 20.5563 12.7183 20.5505ZM10.3878 21.0608C10.3878 21.0608 10.3904 21.0552 10.3995 21.0428C10.393 21.0544 10.3878 21.0608 10.3878 21.0608Z" fill="#EE828A"/>
<path fill-rule="evenodd" clip-rule="evenodd" d="M15.9986 4.10941C9.46784 4.10941 4.17363 9.17838 4.17363 15.4313C4.17363 15.8304 3.8357 16.1539 3.41885 16.1539C3.00199 16.1539 2.66406 15.8304 2.66406 15.4313C2.66406 8.38014 8.63413 2.66406 15.9986 2.66406C23.363 2.66406 29.3331 8.38014 29.3331 15.4313C29.3331 22.4824 23.363 28.1985 15.9986 28.1985C15.5817 28.1985 15.2438 27.8749 15.2438 27.4758C15.2438 27.0767 15.5817 26.7531 15.9986 26.7531C22.5293 26.7531 27.8235 21.6842 27.8235 15.4313C27.8235 9.17838 22.5293 4.10941 15.9986 4.10941Z" fill="#EE828A"/>
<path fill-rule="evenodd" clip-rule="evenodd" d="M3.29305 13.0202C3.29305 12.6211 3.63098 12.2976 4.04783 12.2976H4.67682C5.78843 12.2976 6.68958 13.1604 6.68958 14.2247V17.9259C6.68958 18.9417 5.82952 19.7652 4.76859 19.7652C4.05116 19.7652 3.31096 19.3628 3.07968 18.5945C2.88384 17.944 2.66406 16.8883 2.66406 15.4291C2.66406 15.03 3.00199 14.7065 3.41885 14.7065C3.8357 14.7065 4.17363 15.03 4.17363 15.4291C4.17363 16.7474 4.37192 17.6685 4.5302 18.1942C4.53986 18.2263 4.55839 18.2517 4.59216 18.2737C4.62948 18.2981 4.68973 18.3198 4.76859 18.3198C4.99581 18.3198 5.18001 18.1435 5.18001 17.9259V14.2247C5.18001 13.9586 4.95472 13.7429 4.67682 13.7429H4.04783C3.63098 13.7429 3.29305 13.4193 3.29305 13.0202Z" fill="#EE828A"/>
<path fill-rule="evenodd" clip-rule="evenodd" d="M28.7041 13.0202C28.7041 12.6211 28.3662 12.2976 27.9493 12.2976H27.3203C26.2087 12.2976 25.3076 13.1604 25.3076 14.2247V17.9259C25.3076 18.9417 26.1676 19.7652 27.2286 19.7652C27.946 19.7652 28.6862 19.3628 28.9175 18.5945C29.1133 17.944 29.3331 16.8883 29.3331 15.4291C29.3331 15.03 28.9952 14.7065 28.5783 14.7065C28.1615 14.7065 27.8235 15.03 27.8235 15.4291C27.8235 16.7474 27.6252 17.6685 27.467 18.1942C27.4573 18.2263 27.4388 18.2517 27.405 18.2737C27.3677 18.2981 27.3074 18.3198 27.2286 18.3198C27.0014 18.3198 26.8172 18.1435 26.8172 17.9259V14.2247C26.8172 13.9586 27.0424 13.7429 27.3203 13.7429H27.9493C28.3662 13.7429 28.7041 13.4193 28.7041 13.0202Z" fill="#EE828A"/>
<path d="M17.3331 27.3795C17.3331 28.4571 16.4376 29.3307 15.3331 29.3307C14.2285 29.3307 13.3331 28.4571 13.3331 27.3795C13.3331 26.3018 14.2285 25.4282 15.3331 25.4282C16.4376 25.4282 17.3331 26.3018 17.3331 27.3795Z" fill="#EE828A"/>
<path fill-rule="evenodd" clip-rule="evenodd" d="M11.9125 19.1698C12.0614 18.8183 12.1423 18.3906 11.999 17.9365L11.9756 17.8625L11.9365 17.7949C11.4901 17.0247 11.0878 15.966 11.0878 15.1345C11.0878 12.3739 13.4251 10.136 16.3084 10.136C19.1916 10.136 21.529 12.3739 21.529 15.1345C21.529 17.895 19.1916 20.1329 16.3084 20.1329C15.9949 20.1329 15.444 20.0862 14.877 19.9425C14.298 19.7957 13.7929 19.5706 13.481 19.2719C13.464 19.2557 13.4464 19.2404 13.4283 19.226C13.2107 18.9761 12.8352 18.8911 12.5164 19.0407L12.5088 19.0442L12.4837 19.056L12.3864 19.101C12.3022 19.1398 12.1816 19.195 12.0367 19.2602C12.0292 19.2635 12.0216 19.2669 12.014 19.2703C11.9861 19.2829 11.9572 19.2958 11.9277 19.309C11.8943 19.3239 11.86 19.3392 11.8248 19.3548C11.8381 19.3294 11.851 19.3038 11.8634 19.278C11.8804 19.2428 11.8968 19.2067 11.9125 19.1698ZM11.8529 17.9167L11.8719 17.9766C12.0165 18.435 11.913 18.8683 11.7433 19.22C11.7315 19.2445 11.7193 19.2688 11.7066 19.293L11.5295 19.6316L11.8788 19.4767C11.9538 19.4434 12.025 19.4116 12.0913 19.3818C12.2367 19.3164 12.3577 19.261 12.4422 19.2221L12.5397 19.1769L12.5652 19.1651L12.573 19.1614C12.8379 19.0371 13.1494 19.1087 13.3278 19.3136L13.3359 19.3228L13.3454 19.3304C13.3603 19.3422 13.3748 19.3548 13.3887 19.3682C13.725 19.6901 14.256 19.9226 14.8442 20.0717C15.4228 20.2183 15.9848 20.2663 16.3084 20.2663C19.2598 20.2663 21.6623 17.9741 21.6623 15.1345C21.6623 12.2948 19.2598 10.0026 16.3084 10.0026C13.357 10.0026 10.9545 12.2948 10.9545 15.1345C10.9545 15.9996 11.3693 17.0822 11.8211 17.8618L11.8529 17.9167ZM12.7349 20.3967L12.7978 20.4434C13.3189 20.8306 13.9551 21.0664 14.5234 21.2104C15.2146 21.3856 15.8851 21.445 16.3084 21.445C19.9572 21.445 22.9052 18.6142 22.9052 15.1345C22.9052 11.6547 19.9572 8.82396 16.3084 8.82396C12.6595 8.82396 9.71157 11.6547 9.71157 15.1345C9.71157 16.2401 10.1957 17.4762 10.6794 18.3375L10.6938 18.363L10.6961 18.3921C10.7031 18.4792 10.6818 18.5875 10.6131 18.7297C10.5185 18.9258 10.3559 19.1383 10.1516 19.3619C10.0154 19.511 9.88987 19.6354 9.76474 19.7593C9.69172 19.8317 9.61815 19.9046 9.54244 19.9823C9.45221 20.0749 9.35513 20.179 9.27843 20.2819C9.22409 20.3548 9.08258 20.5483 9.08258 20.7964C9.08258 20.9119 9.11528 21.044 9.20462 21.1645C9.29121 21.2813 9.40214 21.3485 9.49248 21.3856C9.65257 21.4513 9.80608 21.4472 9.87752 21.443C10.0418 21.4333 10.2241 21.3876 10.379 21.3421C10.7078 21.2457 11.1267 21.085 11.5234 20.9221C11.9254 20.757 12.3255 20.5809 12.6238 20.4468L12.7349 20.3967ZM10.267 21.0043L10.3878 21.0608L10.4908 21.1454L10.267 21.0043ZM10.3995 21.0428C10.393 21.0544 10.3878 21.0608 10.3878 21.0608C10.3878 21.0608 10.3904 21.0552 10.3995 21.0428ZM10.4858 21.1067L10.5062 21.1219L10.5069 21.1206L10.5077 21.1191L10.5083 21.1178L10.4858 21.1067ZM10.2923 20.9635L10.5156 21.1084C10.51 21.1183 10.5048 21.1264 10.5005 21.1325L10.4947 21.1404L10.4925 21.1433L10.4908 21.1454L10.3878 21.0608L10.267 21.0043L10.2679 21.0024L10.2689 21.0004L10.271 20.9963L10.2764 20.9869C10.2805 20.9803 10.2857 20.9725 10.2923 20.9635ZM10.2836 20.9775L10.2921 20.9822L10.2847 20.9762L10.2836 20.9775ZM4.28425 13.8762C4.29064 13.8317 4.2973 13.7873 4.30422 13.7429H4.43928M3.1853 14.6032L2.66407 15.4336L2.66406 15.4271C2.66411 15.2721 2.66705 15.1178 2.67282 14.9642C2.92955 8.12941 8.79745 2.66406 15.9986 2.66406C23.1997 2.66406 29.0676 8.12941 29.3243 14.9642C29.3301 15.1182 29.3331 15.273 29.3331 15.4285L29.3331 15.4576C29.3304 16.8302 29.1332 17.8432 28.9466 18.4952C28.938 18.5287 28.9293 18.5621 28.9204 18.5954C28.8649 18.8038 28.8041 19.0101 28.738 19.2143C27.1797 24.0305 22.724 27.627 17.3215 28.1364C17.2715 28.1412 17.2214 28.1456 17.1712 28.1498C17.1503 28.1972 17.1275 28.2437 17.1029 28.2891C16.7678 28.9085 16.101 29.3307 15.3331 29.3307C14.2285 29.3307 13.3331 28.4571 13.3331 27.3795C13.3331 26.3018 14.2285 25.4282 15.3331 25.4282C16.1401 25.4282 16.8355 25.8946 17.1515 26.5661C17.1714 26.6082 17.1897 26.6511 17.2065 26.6948C17.2523 26.6903 17.298 26.6856 17.3437 26.6807C21.6439 26.2145 25.245 23.54 26.8801 19.8702C26.8988 19.8282 26.9172 19.7861 26.9354 19.7439C26.8899 19.7372 26.8449 19.729 26.8005 19.7193C25.9456 19.5331 25.3076 18.8008 25.3076 17.9259V14.2247C25.3076 13.1907 26.1581 12.3469 27.2259 12.2996C27.2572 12.2983 27.2887 12.2976 27.3203 12.2976H27.3647C27.3514 12.253 27.3377 12.2085 27.3238 12.1642C25.8593 7.50407 21.343 4.10941 15.9986 4.10941C10.6542 4.10941 6.13783 7.50407 4.67339 12.1642C4.65946 12.2085 4.64581 12.253 4.63243 12.2976L4.38379 12.6937C4.40631 12.6057 4.4299 12.5181 4.45453 12.4309H4.04783C3.69909 12.4309 3.42638 12.7001 3.42638 13.0202C3.42638 13.2702 3.59276 13.4892 3.8318 13.5731L3.68769 13.8027C3.37854 13.6703 3.15972 13.3725 3.15972 13.0202C3.15972 12.5421 3.56286 12.1642 4.04783 12.1642H4.53352C6.00219 7.42672 10.583 3.97607 15.9986 3.97607C21.4142 3.97607 25.995 7.42672 27.4636 12.1642H27.9493C28.4343 12.1642 28.8374 12.5421 28.8374 13.0202C28.8374 13.4984 28.4343 13.8762 27.9493 13.8762H27.8477C27.8923 14.1913 27.9235 14.5104 27.9408 14.8331C28.1031 14.6722 28.33 14.5731 28.5783 14.5731C28.8107 14.5731 29.0243 14.6599 29.1837 14.8028C28.8416 8.12211 23.0744 2.7974 15.9986 2.7974C8.92277 2.7974 3.1556 8.12211 2.81345 14.8028C2.9176 14.7095 3.04483 14.6401 3.1853 14.6032ZM27.2984 18.3138C27.3436 18.3056 27.3796 18.2903 27.405 18.2737C27.4388 18.2517 27.4573 18.2263 27.467 18.1942L27.4826 18.1416C27.7054 17.2732 27.8235 16.3655 27.8235 15.4313V15.4291C27.8235 15.2825 27.8206 15.1366 27.8148 14.9913C27.7997 14.6146 27.7655 14.2426 27.7129 13.8762C27.7065 13.8317 27.6999 13.7873 27.6929 13.7429H27.3203C27.0424 13.7429 26.8172 13.9586 26.8172 14.2247V17.9259C26.8172 18.1435 27.0014 18.3198 27.2286 18.3198C27.2538 18.3198 27.2771 18.3176 27.2984 18.3138ZM27.8066 13.6096H27.9493C28.2981 13.6096 28.5708 13.3403 28.5708 13.0202C28.5708 12.7001 28.2981 12.4309 27.9493 12.4309H27.5426C27.6514 12.8161 27.7398 13.2093 27.8066 13.6096ZM27.2651 12.4317C27.3767 12.8164 27.4674 13.2094 27.5359 13.6096L27.2651 12.4317ZM27.2651 12.4317C26.2475 12.4596 25.4409 13.2568 25.4409 14.2247V17.9259C25.4409 18.7413 26.0431 19.4296 26.8538 19.5944C27.0095 19.2231 27.1449 18.842 27.2589 18.4523M12.7183 20.5505C13.2589 20.9521 13.9136 21.1934 14.4907 21.3397C15.1934 21.5178 15.8749 21.5783 16.3084 21.5783C20.0254 21.5783 23.0385 18.6933 23.0385 15.1345C23.0385 11.5756 20.0254 8.69062 16.3084 8.69062C12.5914 8.69062 9.57823 11.5756 9.57823 15.1345C9.57823 16.2728 10.0743 17.5323 10.5632 18.4028C10.5677 18.4587 10.5553 18.5428 10.493 18.6718C10.4068 18.8505 10.2544 19.0516 10.0531 19.272C9.91925 19.4186 9.79566 19.541 9.6701 19.6654C9.59718 19.7377 9.52359 19.8106 9.44694 19.8892C9.35603 19.9826 9.25377 20.0918 9.17152 20.2022C9.11642 20.2761 8.94924 20.5008 8.94924 20.7964C8.94924 20.9368 8.98907 21.0976 9.0975 21.2439C9.20222 21.3852 9.33549 21.4653 9.44183 21.5089C9.63003 21.5862 9.80783 21.5806 9.88532 21.5761C10.0655 21.5655 10.2598 21.516 10.4165 21.4701C10.7524 21.3716 11.1766 21.2087 11.574 21.0454C11.9779 20.8796 12.3794 20.7029 12.6785 20.5684L12.7183 20.5505Z" fill="#EE828A"/>
</svg>
