<svg width="32" height="32" viewBox="0 0 32 32" fill="none" xmlns="http://www.w3.org/2000/svg">
<path fill-rule="evenodd" clip-rule="evenodd" d="M1.86719 29.3313C1.86719 28.8894 2.22536 28.5312 2.66719 28.5312H26.6672C27.109 28.5312 27.4672 28.8894 27.4672 29.3313C27.4672 29.7731 27.109 30.1313 26.6672 30.1313H2.66719C2.22536 30.1313 1.86719 29.7731 1.86719 29.3313Z" fill="#EE828A"/>
<path fill-rule="evenodd" clip-rule="evenodd" d="M27.8672 29.3313C27.8672 28.8894 28.2254 28.5312 28.6672 28.5312H29.3339C29.7757 28.5312 30.1339 28.8894 30.1339 29.3313C30.1339 29.7731 29.7757 30.1313 29.3339 30.1313H28.6672C28.2254 30.1313 27.8672 29.7731 27.8672 29.3313Z" fill="#EE828A"/>
<path fill-rule="evenodd" clip-rule="evenodd" d="M2.53125 18.6672C2.53125 18.2254 2.88942 17.8672 3.33125 17.8672H5.99792C6.43974 17.8672 6.79792 18.2254 6.79792 18.6672V29.3339C6.79792 29.7758 6.43974 30.1339 5.99792 30.1339H3.33125C2.88942 30.1339 2.53125 29.7758 2.53125 29.3339V18.6672ZM4.13125 19.4672V28.5339H5.19792V19.4672H4.13125Z" fill="#EE828A"/>
<path fill-rule="evenodd" clip-rule="evenodd" d="M9.20312 10.6672C9.20312 10.2254 9.5613 9.86719 10.0031 9.86719H12.6698C13.1116 9.86719 13.4698 10.2254 13.4698 10.6672V29.3341C13.4698 29.7759 13.1116 30.1341 12.6698 30.1341H10.0031C9.5613 30.1341 9.20312 29.7759 9.20312 29.3341V10.6672ZM10.8031 11.4672V28.5341H11.8698V11.4672H10.8031Z" fill="#EE828A"/>
<path fill-rule="evenodd" clip-rule="evenodd" d="M15.8672 16.0031C15.8672 15.5613 16.2254 15.2031 16.6672 15.2031H19.3339C19.7757 15.2031 20.1339 15.5613 20.1339 16.0031V29.3362C20.1339 29.778 19.7757 30.1362 19.3339 30.1362H16.6672C16.2254 30.1362 15.8672 29.778 15.8672 29.3362V16.0031ZM17.4672 16.8031V28.5362H18.5339V16.8031H17.4672Z" fill="#EE828A"/>
<path fill-rule="evenodd" clip-rule="evenodd" d="M22.5312 7.33125C22.5312 6.88942 22.8894 6.53125 23.3313 6.53125H25.9979C26.4397 6.53125 26.7979 6.88942 26.7979 7.33125V29.3309C26.7979 29.7727 26.4397 30.1309 25.9979 30.1309H23.3313C22.8894 30.1309 22.5312 29.7727 22.5312 29.3309V7.33125ZM24.1313 8.13125V28.5309H25.1979V8.13125H24.1313Z" fill="#EE828A"/>
<path fill-rule="evenodd" clip-rule="evenodd" d="M23.2031 2.76074C23.5312 3.05672 23.5571 3.56258 23.2611 3.89062L17.2612 10.5404C16.984 10.8476 16.5182 10.8927 16.1872 10.6444L11.3869 7.04421L3.20982 14.5923C2.88516 14.892 2.37903 14.8717 2.07935 14.5471C1.77967 14.2224 1.79991 13.7163 2.12457 13.4166L10.7912 5.41659C11.0749 5.15476 11.505 5.13282 11.8139 5.36443L16.5627 8.92606L22.0732 2.81877C22.3692 2.49074 22.8751 2.46475 23.2031 2.76074Z" fill="#EE828A"/>
<path fill-rule="evenodd" clip-rule="evenodd" d="M20.5312 2.66719C20.5312 2.22536 20.8894 1.86719 21.3313 1.86719H23.3313C23.7731 1.86719 24.1313 2.22536 24.1313 2.66719V4.71847C24.1313 5.1603 23.7731 5.51847 23.3313 5.51847C22.8894 5.51847 22.5313 5.1603 22.5313 4.71847V3.46719H21.3313C20.8894 3.46719 20.5312 3.10902 20.5312 2.66719Z" fill="#EE828A"/>
</svg>
