<svg width="32" height="32" viewBox="0 0 32 32" fill="none" xmlns="http://www.w3.org/2000/svg">
<path fill-rule="evenodd" clip-rule="evenodd" d="M15.9953 10.7953C13.1234 10.7953 10.7953 13.1234 10.7953 15.9953C10.7953 18.8672 13.1234 21.1953 15.9953 21.1953C18.8672 21.1953 21.1953 18.8672 21.1953 15.9953C21.1953 13.1234 18.8672 10.7953 15.9953 10.7953ZM9.19531 15.9953C9.19531 12.2398 12.2398 9.19531 15.9953 9.19531C19.7508 9.19531 22.7953 12.2398 22.7953 15.9953C22.7953 19.7508 19.7508 22.7953 15.9953 22.7953C12.2398 22.7953 9.19531 19.7508 9.19531 15.9953Z" fill="#EE828A"/>
<path fill-rule="evenodd" clip-rule="evenodd" d="M5.98251 16.608C5.98251 16.608 5.94666 15.7953 5.98251 15.3889L3.99845 12.7475C4.27485 11.7184 4.6847 10.7299 5.21757 9.80722L8.48052 9.34108C8.75941 9.04626 9.04626 8.75941 9.34108 8.48052L9.80722 5.21757C10.7305 4.68592 11.7188 4.27613 12.7475 3.99845L15.3889 5.98251C15.7945 5.94665 16.2024 5.94665 16.608 5.98251L19.2494 3.99845C20.2785 4.27485 21.267 4.6847 22.1897 5.21757L22.6558 8.48052C22.9586 8.75941 23.2455 9.04626 23.5164 9.34108L26.7793 9.80722C27.311 10.7305 27.7208 11.7188 27.9985 12.7475L26.0144 15.3889C26.0144 15.3889 26.0502 16.2016 26.0144 16.608L27.9985 19.2494C27.7221 20.2785 27.3122 21.267 26.7793 22.1897L23.5164 22.6558C23.5164 22.6558 22.9546 23.2415 22.6558 23.5164L22.1897 26.7793C21.2664 27.311 20.2781 27.7208 19.2494 27.9985L16.608 26.0144C16.2024 26.0503 15.7945 26.0503 15.3889 26.0144L12.7475 27.9985C11.7184 27.7221 10.7299 27.3122 9.80722 26.7793L9.34108 23.5164C9.04626 23.2375 8.75941 22.9506 8.48052 22.6558L5.21757 22.1897C4.68592 21.2664 4.27613 20.2781 3.99845 19.2494L5.98251 16.608ZM7.71259 24.1624L4.9913 23.7736C4.50435 23.704 4.07646 23.4144 3.83101 22.9881C3.23039 21.945 2.76745 20.8285 2.45375 19.6665C2.32534 19.1908 2.42324 18.6825 2.71915 18.2885L4.36799 16.0934C4.36719 16.0337 4.36662 15.9691 4.36655 15.9016L2.71915 13.7084C2.42367 13.315 2.3256 12.8076 2.45322 12.3324C2.76582 11.1686 3.22936 10.0506 3.83203 9.00705C4.07767 8.58171 4.50506 8.29276 4.9913 8.2233L7.71259 7.83454C7.75309 7.79374 7.79374 7.75309 7.83454 7.71259L8.2233 4.9913C8.29286 4.50435 8.58254 4.07646 9.00882 3.83101C10.0519 3.23039 11.1684 2.76745 12.3305 2.45375C12.8061 2.32534 13.3144 2.42324 13.7084 2.71915L15.888 4.35633C15.9616 4.35538 16.0353 4.35538 16.1089 4.35633L18.2885 2.71915C18.6819 2.42367 19.1893 2.3256 19.6645 2.45322C20.8283 2.76582 21.9463 3.22936 22.9899 3.83203C23.4152 4.07767 23.7041 4.50506 23.7736 4.9913L24.1614 7.70583C24.205 7.74887 24.2482 7.7921 24.2912 7.83552L27.0056 8.2233C27.4925 8.29286 27.9204 8.58254 28.1659 9.00882C28.7665 10.0519 29.2295 11.1684 29.5432 12.3305C29.6716 12.8061 29.5737 13.3144 29.2778 13.7084L27.6289 15.9035C27.6297 15.9632 27.6303 16.0278 27.6304 16.0953L29.2778 18.2885C29.5732 18.6819 29.6713 19.1893 29.5437 19.6645C29.2311 20.8283 28.7675 21.9463 28.1649 22.9899C27.9192 23.4152 27.4918 23.7041 27.0056 23.7736L24.282 24.1627C24.2439 24.2012 24.2038 24.2417 24.1625 24.283L23.7736 27.0056C23.704 27.4925 23.4144 27.9204 22.9881 28.1659C21.945 28.7665 20.8285 29.2295 19.6665 29.5432C19.1908 29.6716 18.6825 29.5737 18.2885 29.2778L16.1089 27.6406C16.0353 27.6415 15.9616 27.6415 15.888 27.6406L13.7084 29.2778C13.315 29.5732 12.8076 29.6713 12.3324 29.5437C11.1686 29.2311 10.0506 28.7675 9.00705 28.1649C8.58171 27.9192 8.29276 27.4918 8.2233 27.0056L7.83454 24.2843C7.79374 24.2438 7.75309 24.2032 7.71259 24.1624Z" fill="#EE828A"/>
</svg>
