<svg width="32" height="32" viewBox="0 0 32 32" fill="none" xmlns="http://www.w3.org/2000/svg">
<path fill-rule="evenodd" clip-rule="evenodd" d="M15.9979 1.86719C16.2897 1.86719 16.5583 2.02601 16.6989 2.28165L31.3656 28.9483C31.5019 29.1962 31.4972 29.4976 31.3532 29.741C31.2093 29.9845 30.9474 30.1339 30.6646 30.1339H1.33125C1.0484 30.1339 0.786577 29.9845 0.642618 29.741C0.498659 29.4976 0.493967 29.1962 0.630277 28.9483L15.2969 2.28165C15.4375 2.02601 15.7062 1.86719 15.9979 1.86719ZM2.68427 28.5339H29.3116L15.9979 4.32722L2.68427 28.5339Z" fill="#EE828A"/>
<path fill-rule="evenodd" clip-rule="evenodd" d="M16.0005 9.86719C17.3072 9.8672 18.1339 11.1205 18.1339 12.6672C18.1339 14.0732 17.789 16.6365 17.4579 18.7888C17.2903 19.8779 17.1229 20.8826 16.9974 21.6148C16.9346 21.981 16.8822 22.2794 16.8455 22.4864L16.8029 22.7255L16.7876 22.8101C16.7876 22.8102 16.7876 22.8102 16.0005 22.6671C15.2134 22.8102 15.2134 22.8102 15.2134 22.8101L15.1982 22.7255L15.1555 22.4864C15.1188 22.2794 15.0665 21.981 15.0037 21.6148C14.8782 20.8826 14.7107 19.8779 14.5432 18.7888C14.212 16.6365 13.8672 14.0732 13.8672 12.6672C13.8672 11.1205 14.6939 9.86717 16.0005 9.86719ZM16.0005 22.6671L15.2134 22.8101C15.2826 23.1905 15.6139 23.4671 16.0005 23.4671C16.3871 23.4671 16.7185 23.1905 16.7876 22.8101L16.0005 22.6671ZM16.0005 17.7222C16.2871 15.7763 16.5339 13.7709 16.5339 12.6672C16.5339 12.1285 16.3992 11.8099 16.2772 11.6472C16.159 11.4895 16.0515 11.4672 16.0005 11.4672C15.9495 11.4672 15.8421 11.4895 15.7239 11.6472C15.6019 11.8098 15.4672 12.1285 15.4672 12.6672C15.4672 13.7709 15.7139 15.7762 16.0005 17.7222Z" fill="#EE828A"/>
<path d="M17.3307 25.3333C17.3307 26.0697 16.7338 26.6667 15.9974 26.6667C15.261 26.6667 14.6641 26.0697 14.6641 25.3333C14.6641 24.597 15.261 24 15.9974 24C16.7338 24 17.3307 24.597 17.3307 25.3333Z" fill="#EE828A"/>
</svg>
