<svg width="32" height="32" viewBox="0 0 32 32" fill="none" xmlns="http://www.w3.org/2000/svg">
<path fill-rule="evenodd" clip-rule="evenodd" d="M6.47838 5.18414C5.5578 5.18414 4.81153 5.90467 4.81153 6.7935C4.81153 7.68232 5.5578 8.40285 6.47838 8.40285C7.39895 8.40285 8.14522 7.68232 8.14522 6.7935C8.14522 5.90467 7.39895 5.18414 6.47838 5.18414ZM3.38281 6.7935C3.38281 5.14282 4.76874 3.80469 6.47838 3.80469C8.18801 3.80469 9.57394 5.14282 9.57394 6.7935C9.57394 8.44417 8.18801 9.7823 6.47838 9.7823C4.76874 9.7823 3.38281 8.44417 3.38281 6.7935Z" fill="#EE828A"/>
<path fill-rule="evenodd" clip-rule="evenodd" d="M24.9299 4.04351C24.3382 4.04351 23.8584 4.50671 23.8584 5.0781C23.8584 5.64949 24.3382 6.11269 24.9299 6.11269C25.5217 6.11269 26.0015 5.64949 26.0015 5.0781C26.0015 4.50671 25.5217 4.04351 24.9299 4.04351ZM22.4297 5.0781C22.4297 3.74486 23.5491 2.66406 24.9299 2.66406C26.3108 2.66406 27.4302 3.74486 27.4302 5.0781C27.4302 6.41133 26.3108 7.49214 24.9299 7.49214C23.5491 7.49214 22.4297 6.41133 22.4297 5.0781Z" fill="#EE828A"/>
<path fill-rule="evenodd" clip-rule="evenodd" d="M14.8065 24.731C13.8859 24.731 13.1397 25.4515 13.1397 26.3404C13.1397 27.2292 13.8859 27.9497 14.8065 27.9497C15.7271 27.9497 16.4733 27.2292 16.4733 26.3404C16.4733 25.4515 15.7271 24.731 14.8065 24.731ZM11.7109 26.3404C11.7109 24.6897 13.0969 23.3516 14.8065 23.3516C16.5161 23.3516 17.9021 24.6897 17.9021 26.3404C17.9021 27.991 16.5161 29.3292 14.8065 29.3292C13.0969 29.3292 11.7109 27.991 11.7109 26.3404Z" fill="#EE828A"/>
<path fill-rule="evenodd" clip-rule="evenodd" d="M7.90271 20.5915C7.90271 21.9882 6.73 23.1205 5.28338 23.1205C3.83677 23.1205 2.66406 21.9882 2.66406 20.5915C2.66406 19.1948 3.83677 18.0625 5.28338 18.0625C6.73 18.0625 7.90271 19.1948 7.90271 20.5915ZM5.28338 21.741C5.94094 21.741 6.47399 21.2264 6.47399 20.5915C6.47399 19.9566 5.94094 19.442 5.28338 19.442C4.62583 19.442 4.09278 19.9566 4.09278 20.5915C4.09278 21.2264 4.62583 21.741 5.28338 21.741Z" fill="#EE828A"/>
<path fill-rule="evenodd" clip-rule="evenodd" d="M29.3277 17.7131C29.3277 19.4273 27.8884 20.8169 26.1131 20.8169C24.3377 20.8169 22.8984 19.4273 22.8984 17.7131C22.8984 15.999 24.3377 14.6094 26.1131 14.6094C27.8884 14.6094 29.3277 15.999 29.3277 17.7131ZM26.1131 19.4374C27.0994 19.4374 27.899 18.6654 27.899 17.7131C27.899 16.7608 27.0994 15.9888 26.1131 15.9888C25.1267 15.9888 24.3272 16.7608 24.3272 17.7131C24.3272 18.6654 25.1267 19.4374 26.1131 19.4374Z" fill="#EE828A"/>
<path fill-rule="evenodd" clip-rule="evenodd" d="M14.0952 9.1116C14.0952 8.73068 14.4151 8.42188 14.8096 8.42188C15.5192 8.42188 16.5677 8.62174 17.4594 9.24159C18.3875 9.88676 19.0958 10.956 19.0958 12.5602C19.0958 14.1645 18.3875 15.2337 17.4594 15.8789C16.5677 16.4987 15.5192 16.6986 14.8096 16.6986C14.1 16.6986 13.0515 16.4987 12.1598 15.8789C11.2317 15.2337 10.5234 14.1645 10.5234 12.5602C10.5234 12.1793 10.8433 11.8705 11.2378 11.8705C11.6323 11.8705 11.9522 12.1793 11.9522 12.5602C11.9522 13.7149 12.4344 14.37 12.9946 14.7594C13.5912 15.1741 14.3286 15.3191 14.8096 15.3191C15.2906 15.3191 16.028 15.1741 16.6246 14.7594C17.1848 14.37 17.667 13.7149 17.667 12.5602C17.667 11.4056 17.1848 10.7505 16.6246 10.3611C16.028 9.94632 15.2906 9.80132 14.8096 9.80132C14.4151 9.80132 14.0952 9.49252 14.0952 9.1116Z" fill="#EE828A"/>
<path fill-rule="evenodd" clip-rule="evenodd" d="M5.89874 6.40607C6.12806 6.0961 6.57421 6.02431 6.89525 6.24571L15.2295 11.9934C15.5505 12.2148 15.6249 12.6456 15.3955 12.9556C15.1662 13.2655 14.7201 13.3373 14.399 13.1159L6.06483 7.36822C5.74378 7.14681 5.66943 6.71604 5.89874 6.40607Z" fill="#EE828A"/>
<path fill-rule="evenodd" clip-rule="evenodd" d="M12.9954 15.0007C13.2376 15.3014 13.1815 15.7347 12.87 15.9686L7.51234 19.992C7.20092 20.2258 6.7521 20.1717 6.50989 19.871C6.26767 19.5703 6.32377 19.137 6.63519 18.9031L11.9929 14.8797C12.3043 14.6458 12.7531 14.7 12.9954 15.0007Z" fill="#EE828A"/>
<path fill-rule="evenodd" clip-rule="evenodd" d="M23.7063 5.80537C23.9485 6.10605 23.8924 6.53939 23.581 6.77325L18.2233 10.7966C17.9119 11.0305 17.463 10.9763 17.2208 10.6757C16.9786 10.375 17.0347 9.94164 17.3461 9.70778L22.7038 5.68438C23.0153 5.45052 23.4641 5.50469 23.7063 5.80537Z" fill="#EE828A"/>
<path fill-rule="evenodd" clip-rule="evenodd" d="M14.8081 15.3125C15.2026 15.3125 15.5225 15.6213 15.5225 16.0022V24.049C15.5225 24.4299 15.2026 24.7387 14.8081 24.7387C14.4136 24.7387 14.0938 24.4299 14.0938 24.049V16.0022C14.0938 15.6213 14.4136 15.3125 14.8081 15.3125Z" fill="#EE828A"/>
<path fill-rule="evenodd" clip-rule="evenodd" d="M17.7615 13.3579C17.9603 13.0289 18.3977 12.9178 18.7385 13.1097L25.8821 17.1331C26.2229 17.325 26.338 17.7474 26.1392 18.0764C25.9404 18.4054 25.503 18.5166 25.1622 18.3246L18.0186 14.3012C17.6778 14.1093 17.5627 13.687 17.7615 13.3579Z" fill="#EE828A"/>
</svg>
