<svg width="40" height="40" viewBox="0 0 40 40" fill="none" xmlns="http://www.w3.org/2000/svg">
<rect width="40" height="40" rx="20" fill="#1BB800"/>
<path fill-rule="evenodd" clip-rule="evenodd" d="M9.39844 22.5297C9.39844 22.1983 9.66707 21.9297 9.99844 21.9297H12.9984C13.3298 21.9297 13.5984 22.1983 13.5984 22.5297V29.9964C13.5984 30.3277 13.3298 30.5964 12.9984 30.5964H9.99844C9.66707 30.5964 9.39844 30.3277 9.39844 29.9964V22.5297ZM10.5984 23.1297V29.3964H12.3984V23.1297H10.5984Z" fill="white"/>
<path fill-rule="evenodd" clip-rule="evenodd" d="M15.5984 23.901V29.4651C15.5984 29.7965 15.3298 30.0651 14.9984 30.0651C14.6671 30.0651 14.3984 29.7965 14.3984 29.4651V23.5984C14.3984 23.4162 14.4813 23.2438 14.6236 23.1299L14.9984 23.5984C14.6236 23.1299 14.6235 23.13 14.6236 23.1299L14.6249 23.1289L14.6269 23.1273L14.6331 23.1224L14.6541 23.106C14.6718 23.0923 14.6971 23.073 14.7293 23.0489C14.7937 23.0008 14.8862 22.9336 15.0029 22.8536C15.2357 22.694 15.5674 22.4817 15.9661 22.269C16.7498 21.851 17.8535 21.3984 18.9984 21.3984C20.0952 21.3984 21.1685 21.6888 21.9494 21.9664C22.3438 22.1067 22.6727 22.2469 22.9041 22.3528C23.02 22.4057 23.112 22.4503 23.176 22.4821C23.208 22.4981 23.233 22.5109 23.2507 22.52L23.2715 22.5308L23.2776 22.534L23.2796 22.535L23.2806 22.5356C23.2807 22.5356 23.2808 22.5357 22.9984 23.0651L23.2806 22.5356C24.3841 23.1241 24.8484 23.8224 24.8484 24.5318C24.8484 24.8574 24.747 25.1218 24.6523 25.2984C24.6045 25.3878 24.556 25.4592 24.5175 25.5105C24.4981 25.5363 24.4809 25.5576 24.4671 25.5739C24.4601 25.5821 24.454 25.5891 24.4488 25.595L24.4417 25.6028L24.4388 25.606L24.4374 25.6075C24.4371 25.6078 24.4362 25.6088 24.0088 25.2082L24.4362 25.6088C24.2095 25.8505 23.8298 25.8628 23.5881 25.6362C23.3494 25.4124 23.3344 25.0393 23.5523 24.7973C23.5533 24.796 23.5551 24.7937 23.5575 24.7905C23.5659 24.7793 23.5799 24.7591 23.5946 24.7318C23.6249 24.6751 23.6484 24.6061 23.6484 24.5318C23.6484 24.4411 23.6126 24.0727 22.7165 23.5947C22.7164 23.5947 22.7166 23.5948 22.7165 23.5947L22.9785 23.1025C22.7161 23.5945 22.7164 23.5947 22.7165 23.5947L22.7138 23.5933L22.7003 23.5863C22.6877 23.5798 22.6678 23.5696 22.6412 23.5564C22.588 23.5299 22.5081 23.4911 22.4052 23.4441C22.1992 23.3499 21.903 23.2235 21.5474 23.0971C20.8284 22.8414 19.9016 22.5984 18.9984 22.5984C18.1434 22.5984 17.247 22.9458 16.5308 23.3278C16.1795 23.5152 15.8862 23.7029 15.6815 23.8433C15.6519 23.8636 15.6241 23.8829 15.5984 23.901ZM15.3727 24.0674C15.3725 24.0675 15.3727 24.0674 15.3727 24.0674V24.0674Z" fill="white"/>
<path fill-rule="evenodd" clip-rule="evenodd" d="M29.1566 23.0025C29.5518 23.0252 29.895 23.1994 30.1833 23.5004C30.5078 23.8393 30.6375 24.2598 30.5885 24.6978C30.5426 25.1073 30.3459 25.4972 30.0931 25.8465C29.5869 26.5457 28.7272 27.2572 27.7149 27.8997C25.6832 29.1892 22.8274 30.3312 20.3228 30.5654C19.2159 30.669 17.8379 30.5212 16.77 30.3583C16.229 30.2758 15.7542 30.1872 15.4144 30.1192C15.2444 30.0852 15.1077 30.0562 15.0131 30.0357C14.9658 30.0254 14.9289 30.0172 14.9036 30.0115L14.8744 30.0049L14.8665 30.0031L14.8643 30.0026C14.8642 30.0026 14.8633 30.0023 14.9923 29.4447L14.8633 30.0023C14.5404 29.9276 14.3393 29.6053 14.414 29.2825C14.4888 28.9597 14.811 28.7586 15.1338 28.8332C15.1338 28.8332 15.1338 28.8332 15.1338 28.8332L15.1353 28.8336L15.1413 28.835L15.1666 28.8407C15.1893 28.8458 15.2234 28.8534 15.2679 28.863C15.3567 28.8823 15.4869 28.9099 15.6499 28.9425C15.9761 29.0078 16.4322 29.0929 16.9509 29.172C18.0023 29.3324 19.2585 29.4597 20.211 29.3707C22.4859 29.1579 25.1618 28.0989 27.0719 26.8865C28.0305 26.2781 28.7442 25.6634 29.121 25.1428C29.3097 24.8821 29.382 24.6887 29.3959 24.5642C29.4067 24.4683 29.3871 24.404 29.3165 24.3303C29.2096 24.2186 29.1412 24.2036 29.0878 24.2005C29.0047 24.1958 28.8662 24.2201 28.6265 24.3264C28.3887 24.4317 28.1177 24.5861 27.7691 24.7847C27.4301 24.9779 27.0348 25.2025 26.586 25.4188C24.7468 26.3054 22.0796 27.016 17.9623 25.5824C17.6493 25.4735 17.484 25.1315 17.5929 24.8185C17.7019 24.5056 18.0439 24.3402 18.3569 24.4492C22.142 25.767 24.4798 25.102 26.0649 24.3379C26.4722 24.1415 26.8346 23.936 27.1747 23.7423L27.2116 23.7212C27.5296 23.54 27.8463 23.3595 28.1403 23.2292C28.4439 23.0947 28.791 22.9815 29.1566 23.0025Z" fill="white"/>
<path fill-rule="evenodd" clip-rule="evenodd" d="M23.5015 9.5291C23.6532 9.44332 23.8245 9.39844 23.9984 9.39844C24.1724 9.39844 24.3436 9.44331 24.4954 9.52908L29.0786 12.0771C29.2345 12.1646 29.3652 12.2917 29.4568 12.4463C29.5484 12.6009 29.5974 12.7772 29.5984 12.9574L29.5984 12.9606L29.5984 18.0362H28.9984L29.5984 18.0395C29.5974 18.2197 29.5484 18.396 29.4568 18.5506C29.3652 18.7052 29.2345 18.8323 29.0786 18.9198L29.0764 18.921L24.4954 21.4678C24.3436 21.5536 24.1724 21.5984 23.9984 21.5984C23.8245 21.5984 23.6532 21.5536 23.5015 21.4678L18.9204 18.921L18.9183 18.9198C18.7624 18.8323 18.6317 18.7052 18.5401 18.5506C18.4485 18.396 18.3994 18.2197 18.3984 18.0395L18.3984 18.0362V12.9574C18.3994 12.7772 18.4485 12.6009 18.5401 12.4463C18.6317 12.2917 18.7624 12.1646 18.9183 12.0771L18.9204 12.0759L23.5015 9.5291ZM28.3984 17.9249V13.072L23.9984 10.6258L19.5984 13.072V17.9249L23.9984 20.3711L28.3984 17.9249Z" fill="white"/>
<path fill-rule="evenodd" clip-rule="evenodd" d="M20.9717 11.0395C21.1303 10.7486 21.4948 10.6413 21.7857 10.7999L26.8378 13.5539C27.0306 13.659 27.1506 13.861 27.1506 14.0807V16.7574C27.1506 17.0888 26.882 17.3574 26.5506 17.3574C26.2193 17.3574 25.9506 17.0888 25.9506 16.7574V14.4369L21.2114 11.8535C20.9204 11.6949 20.8131 11.3305 20.9717 11.0395Z" fill="white"/>
<path fill-rule="evenodd" clip-rule="evenodd" d="M18.5277 12.459C18.6876 12.1688 19.0525 12.0631 19.3428 12.223L24.0401 14.8108L28.6449 12.2254C28.9338 12.0631 29.2996 12.1659 29.4618 12.4548C29.6241 12.7437 29.5213 13.1095 29.2324 13.2717L24.3366 16.0206C24.1556 16.1222 23.935 16.123 23.7533 16.0229L18.7637 13.2741C18.4735 13.1142 18.3678 12.7493 18.5277 12.459Z" fill="white"/>
<path fill-rule="evenodd" clip-rule="evenodd" d="M24.0504 14.8985C24.3818 14.9013 24.6481 15.1722 24.6453 15.5036L24.5984 21.0012C24.5956 21.3326 24.3247 21.5989 23.9933 21.5961C23.662 21.5933 23.3956 21.3224 23.3985 20.991L23.4453 15.4933C23.4482 15.162 23.7191 14.8956 24.0504 14.8985Z" fill="white"/>
</svg>
