<svg width="40" height="40" viewBox="0 0 40 40" fill="none" xmlns="http://www.w3.org/2000/svg">
<rect width="40" height="40" rx="20" fill="#1BB800"/>
<path fill-rule="evenodd" clip-rule="evenodd" d="M19.3191 9.56197C19.5294 9.45358 19.7633 9.39844 19.9984 9.39844C20.2335 9.39844 20.4675 9.45358 20.6777 9.56197L29.8441 14.1947C30.0611 14.3054 30.25 14.4698 30.3854 14.6775C30.5212 14.8859 30.5969 15.1287 30.5984 15.3807L30.5984 15.3843L30.5984 24.6126L30.5984 24.6162C30.5969 24.8682 30.5212 25.1109 30.3854 25.3193C30.25 25.5271 30.0611 25.6914 29.8441 25.8022L29.842 25.8032L20.6777 30.4349C20.4675 30.5433 20.2335 30.5984 19.9984 30.5984C19.7623 30.5984 19.5272 30.5428 19.3163 30.4334C19.3161 30.4334 19.3164 30.4335 19.3163 30.4334L10.1528 25.688C10.1522 25.6877 10.1516 25.6874 10.151 25.6871C9.93467 25.5763 9.74652 25.4123 9.61148 25.2052C9.47562 24.9968 9.39995 24.754 9.39845 24.502L9.39844 24.4984V15.3807C9.39994 15.1287 9.47562 14.886 9.61148 14.6775C9.7469 14.4698 9.93573 14.3054 10.1528 14.1947L10.1549 14.1936L19.3191 9.56197ZM19.9984 10.5984C19.9495 10.5984 19.9044 10.6102 19.8685 10.6288L19.8628 10.6318L10.6982 15.2636C10.698 15.2637 10.6985 15.2634 10.6982 15.2636C10.6577 15.2844 10.6312 15.3107 10.6168 15.3329C10.6029 15.354 10.5987 15.3725 10.5984 15.3869V24.4958C10.5987 24.5102 10.6029 24.5287 10.6168 24.5499C10.6313 24.5722 10.6573 24.5983 10.6982 24.6191L10.7014 24.6208L19.8681 29.3678C19.9041 29.3865 19.9495 29.3984 19.9984 29.3984C20.0474 29.3984 20.0924 29.3867 20.1284 29.368L20.134 29.3651L29.2987 24.7333C29.2989 24.7332 29.2984 24.7335 29.2987 24.7333C29.3391 24.7125 29.3657 24.6862 29.3801 24.664C29.3939 24.6428 29.3982 24.6244 29.3984 24.61V15.3869C29.3982 15.3725 29.3939 15.354 29.3801 15.3329C29.3657 15.3107 29.3399 15.2848 29.2995 15.264C29.2992 15.2638 29.2997 15.2641 29.2995 15.264L20.1284 10.6289C20.0924 10.6102 20.0474 10.5984 19.9984 10.5984Z" fill="white"/>
<path fill-rule="evenodd" clip-rule="evenodd" d="M9.57928 14.7299C9.72767 14.4336 10.0882 14.3137 10.3844 14.4621L20.0924 19.3241L29.6138 14.4642C29.909 14.3135 30.2704 14.4306 30.421 14.7258C30.5717 15.0209 30.4545 15.3823 30.1594 15.533L20.3677 20.5309C20.1978 20.6176 19.9968 20.6184 19.8262 20.5329L9.84707 15.535C9.55078 15.3867 9.43089 15.0262 9.57928 14.7299Z" fill="white"/>
<path fill-rule="evenodd" clip-rule="evenodd" d="M20.0978 19.3985C20.4292 19.4016 20.6953 19.6727 20.6922 20.0041L20.5984 29.9999C20.5953 30.3312 20.3242 30.5973 19.9928 30.5942C19.6615 30.5911 19.3954 30.32 19.3985 29.9886L19.4922 19.9928C19.4953 19.6615 19.7665 19.3954 20.0978 19.3985Z" fill="white"/>
<path fill-rule="evenodd" clip-rule="evenodd" d="M14.9676 12.2191C15.1219 11.9259 15.4848 11.8133 15.778 11.9676L25.278 16.9676C25.4751 17.0714 25.5986 17.2758 25.5986 17.4986V19.4986C25.5986 19.8299 25.3299 20.0986 24.9986 20.0986C24.6672 20.0986 24.3986 19.8299 24.3986 19.4986V17.8608L15.2191 13.0295C14.9259 12.8752 14.8133 12.5123 14.9676 12.2191Z" fill="white"/>
</svg>
