<svg width="40" height="40" viewBox="0 0 40 40" fill="none" xmlns="http://www.w3.org/2000/svg">
<rect width="40" height="40" rx="20" fill="#1BB800"/>
<path fill-rule="evenodd" clip-rule="evenodd" d="M11.8984 18.9984C11.8984 18.6671 12.1671 18.3984 12.4984 18.3984H18.4984C18.8298 18.3984 19.0984 18.6671 19.0984 18.9984C19.0984 19.3298 18.8298 19.5984 18.4984 19.5984H12.4984C12.1671 19.5984 11.8984 19.3298 11.8984 18.9984Z" fill="white"/>
<path fill-rule="evenodd" clip-rule="evenodd" d="M11.8984 22.9984C11.8984 22.6671 12.1671 22.3984 12.4984 22.3984H22.4984C22.8298 22.3984 23.0984 22.6671 23.0984 22.9984C23.0984 23.3298 22.8298 23.5984 22.4984 23.5984H12.4984C12.1671 23.5984 11.8984 23.3298 11.8984 22.9984Z" fill="white"/>
<path fill-rule="evenodd" clip-rule="evenodd" d="M11.8984 26.9984C11.8984 26.6671 12.1671 26.3984 12.4984 26.3984H22.4984C22.8298 26.3984 23.0984 26.6671 23.0984 26.9984C23.0984 27.3298 22.8298 27.5984 22.4984 27.5984H12.4984C12.1671 27.5984 11.8984 27.3298 11.8984 26.9984Z" fill="white"/>
<path fill-rule="evenodd" clip-rule="evenodd" d="M11.9984 10.5984C11.2252 10.5984 10.5984 11.2252 10.5984 11.9984V27.9984C10.5984 28.7716 11.2252 29.3984 11.9984 29.3984H22.9984C23.7716 29.3984 24.3984 28.7716 24.3984 27.9984V22.4984C24.3984 22.1671 24.6671 21.8984 24.9984 21.8984C25.3298 21.8984 25.5984 22.1671 25.5984 22.4984V27.9984C25.5984 29.4344 24.4344 30.5984 22.9984 30.5984H11.9984C10.5625 30.5984 9.39844 29.4344 9.39844 27.9984V11.9984C9.39844 10.5625 10.5625 9.39844 11.9984 9.39844H18.9984C19.3298 9.39844 19.5984 9.66707 19.5984 9.99844C19.5984 10.3298 19.3298 10.5984 18.9984 10.5984H11.9984Z" fill="white"/>
<path fill-rule="evenodd" clip-rule="evenodd" d="M24.7593 10.6756C24.7591 10.6758 24.7594 10.6755 24.7593 10.6756L23.9726 11.3529C23.9723 11.3532 23.972 11.3534 23.9717 11.3537C23.8258 11.4799 23.6474 11.5699 23.4906 11.6281C23.3335 11.6865 23.1405 11.7344 22.9498 11.7344H22.0852C21.8868 11.7344 21.7205 11.9006 21.7205 12.0992V12.954C21.7205 13.1451 21.6724 13.3368 21.6151 13.4915C21.5576 13.6471 21.4703 13.8204 21.3516 13.9629L21.348 13.9672L20.6752 14.7597C20.6749 14.7599 20.6747 14.7602 20.6745 14.7605C20.5731 14.8822 20.5731 15.1148 20.6745 15.2365C20.6747 15.2367 20.6749 15.237 20.6752 15.2373L21.3516 16.034C21.4703 16.1765 21.5576 16.3498 21.6151 16.5054C21.6724 16.6601 21.7205 16.8518 21.7205 17.0429V17.8978C21.7205 18.0963 21.8868 18.2625 22.0852 18.2625H22.9498C23.1422 18.2625 23.3352 18.31 23.4935 18.3692C23.6514 18.4282 23.8273 18.5184 23.9717 18.6433C23.972 18.6435 23.9723 18.6438 23.9726 18.644L24.7577 19.3199C24.886 19.4262 25.1199 19.4224 25.2383 19.3217C25.2385 19.3216 25.2381 19.3219 25.2383 19.3217L26.0255 18.644C26.0259 18.6438 26.0262 18.6435 26.0265 18.6432C26.1724 18.517 26.3507 18.4271 26.5075 18.3688C26.6646 18.3104 26.8576 18.2625 27.0483 18.2625H27.898C28.0964 18.2625 28.2626 18.0963 28.2626 17.8978V17.0479C28.2626 16.8556 28.3101 16.6626 28.3693 16.5043C28.4283 16.3464 28.5185 16.1704 28.6434 16.0259C28.6436 16.0257 28.6439 16.0254 28.6441 16.0252L29.3199 15.24C29.4263 15.1116 29.4224 14.8775 29.3217 14.759C29.3215 14.7589 29.3218 14.7592 29.3217 14.759L28.6441 13.9718C28.6438 13.9715 28.6436 13.9712 28.6433 13.9709C28.5171 13.825 28.4272 13.6466 28.3689 13.4898C28.3105 13.3327 28.2626 13.1397 28.2626 12.949V12.0992C28.2626 11.9006 28.0964 11.7344 27.898 11.7344H27.0483C26.8559 11.7344 26.6629 11.6869 26.5047 11.6278C26.3468 11.5688 26.1709 11.4786 26.0265 11.3537C26.0262 11.3535 26.0259 11.3532 26.0255 11.3529L25.2404 10.6769C25.1121 10.5706 24.8777 10.575 24.7593 10.6756ZM23.9793 9.76364C24.5503 9.27534 25.4439 9.27899 26.0155 9.76088L26.0203 9.7649L26.8115 10.4461C26.8115 10.4461 26.8115 10.4461 26.8115 10.4461C26.8123 10.4468 26.8224 10.4548 26.8442 10.467C26.8663 10.4793 26.8939 10.4922 26.9247 10.5037C26.9554 10.5152 26.9848 10.5235 27.0096 10.5287C27.0346 10.534 27.0475 10.5344 27.0483 10.5344L27.898 10.5344C28.7592 10.5344 29.4626 11.238 29.4626 12.0992V12.949C29.4626 12.9486 29.4626 12.9486 29.4626 12.949C29.4627 12.9511 29.4636 12.9631 29.4682 12.9851C29.4735 13.0102 29.482 13.0402 29.4938 13.0718C29.5055 13.1034 29.5186 13.1317 29.5311 13.1542C29.5423 13.1746 29.5498 13.1843 29.5509 13.1858C29.5511 13.1861 29.5511 13.186 29.5509 13.1858L29.5523 13.1874L30.2333 13.9787C30.7215 14.5497 30.7179 15.4433 30.2361 16.015L30.2321 16.0197L29.5523 16.8095L29.551 16.811C29.551 16.811 29.551 16.811 29.551 16.811C29.5503 16.8119 29.5423 16.8219 29.5301 16.8437C29.5178 16.8658 29.5049 16.8935 29.4934 16.9242C29.4819 16.955 29.4735 16.9844 29.4683 17.0092C29.4629 17.0352 29.4626 17.0481 29.4626 17.0479V17.8978C29.4626 18.759 28.7592 19.4625 27.898 19.4625H27.0483C27.0487 19.4625 27.0487 19.4625 27.0483 19.4625C27.0462 19.4626 27.0342 19.4635 27.0122 19.4681C26.9871 19.4734 26.9571 19.4819 26.9255 19.4936C26.894 19.5054 26.8657 19.5185 26.8432 19.5309C26.8229 19.5422 26.8131 19.5496 26.8116 19.5508C26.8113 19.551 26.8114 19.5509 26.8116 19.5508L26.81 19.5521L26.0203 20.232L26.0188 20.2332C25.4478 20.7215 24.5542 20.7179 23.9826 20.236L23.9778 20.232L23.1882 19.5521L23.1866 19.5508C23.1869 19.5511 23.1771 19.5429 23.154 19.53C23.1319 19.5177 23.1042 19.5048 23.0735 19.4933C23.0427 19.4818 23.0134 19.4734 22.9885 19.4682C22.9635 19.4629 22.9506 19.4625 22.9499 19.4625L22.0852 19.4625C21.2239 19.4625 20.5205 18.759 20.5205 17.8978V17.0429C20.5205 17.0434 20.5205 17.0434 20.5205 17.0429C20.5204 17.0409 20.5196 17.0293 20.515 17.0078C20.5098 16.9831 20.5014 16.9534 20.4897 16.9219C20.4781 16.8904 20.4649 16.8617 20.4522 16.8383C20.446 16.8269 20.4405 16.8179 20.4361 16.8113C20.433 16.8065 20.4309 16.8038 20.43 16.8027L19.7565 16.0094C19.2791 15.4413 19.2791 14.5557 19.7565 13.9876L19.7585 13.9853L20.43 13.1943C20.4309 13.1932 20.433 13.1904 20.4361 13.1856C20.4405 13.179 20.446 13.17 20.4522 13.1586C20.4649 13.1352 20.4781 13.1065 20.4897 13.075C20.5014 13.0435 20.5098 13.0138 20.515 12.9892C20.5196 12.9677 20.5204 12.956 20.5205 12.954C20.5205 12.9536 20.5205 12.9536 20.5205 12.954L20.5205 12.0992C20.5205 11.238 21.2239 10.5344 22.0852 10.5344H22.9498C22.9494 10.5344 22.9494 10.5345 22.9498 10.5344C22.9519 10.5343 22.9639 10.5335 22.9859 10.5288C23.011 10.5236 23.041 10.515 23.0726 10.5033C23.1042 10.4916 23.1325 10.4784 23.155 10.466C23.1753 10.4548 23.185 10.4473 23.1865 10.4462C23.1868 10.446 23.1867 10.446 23.1865 10.4462L23.1881 10.4448L23.9793 9.76364Z" fill="white"/>
<path fill-rule="evenodd" clip-rule="evenodd" d="M27.3825 13.0375C27.6371 13.2497 27.6715 13.628 27.4594 13.8826L24.9594 16.8826C24.8515 17.0121 24.694 17.0902 24.5256 17.0978C24.3572 17.1055 24.1934 17.0419 24.0742 16.9227L22.5742 15.4227C22.3399 15.1884 22.3399 14.8085 22.5742 14.5742C22.8085 14.3399 23.1884 14.3399 23.4227 14.5742L24.4581 15.6096L26.5375 13.1143C26.7496 12.8598 27.128 12.8254 27.3825 13.0375Z" fill="white"/>
</svg>
