<svg width="40" height="40" viewBox="0 0 40 40" fill="none" xmlns="http://www.w3.org/2000/svg">
<rect width="40" height="40" rx="20" fill="#1BB800"/>
<path fill-rule="evenodd" clip-rule="evenodd" d="M21.3984 13.9984C21.3984 13.6671 21.6671 13.3984 21.9984 13.3984H27.4578C27.9976 13.3984 28.5009 13.6706 28.7965 14.1222L31.3372 18.0037C31.5076 18.2641 31.5984 18.5687 31.5984 18.8799V23.9984C31.5984 24.8821 30.8821 25.5984 29.9984 25.5984H28.4984C28.1671 25.5984 27.8984 25.3298 27.8984 24.9984C27.8984 24.6671 28.1671 24.3984 28.4984 24.3984H29.9984C30.2194 24.3984 30.3984 24.2194 30.3984 23.9984V18.8799C30.3984 18.8021 30.3757 18.726 30.3331 18.6609L27.7925 14.7794C27.7186 14.6665 27.5928 14.5984 27.4578 14.5984H21.9984C21.6671 14.5984 21.3984 14.3298 21.3984 13.9984Z" fill="white"/>
<path fill-rule="evenodd" clip-rule="evenodd" d="M23.3984 15.9984C23.3984 15.6671 23.6671 15.3984 23.9984 15.3984H26.9984C27.199 15.3984 27.3864 15.4987 27.4977 15.6656L29.4977 18.6656C29.6204 18.8497 29.6319 19.0865 29.5274 19.2816C29.423 19.4766 29.2197 19.5984 28.9984 19.5984H23.9984C23.6671 19.5984 23.3984 19.3298 23.3984 18.9984V15.9984ZM24.5984 16.5984V18.3984H27.8773L26.6773 16.5984H24.5984Z" fill="white"/>
<path fill-rule="evenodd" clip-rule="evenodd" d="M12.3984 11.9984C12.3984 11.6671 12.6671 11.3984 12.9984 11.3984H20.9984C21.8821 11.3984 22.5984 12.1148 22.5984 12.9984V24.9984C22.5984 25.3298 22.3298 25.5984 21.9984 25.5984H17.9984C17.6671 25.5984 17.3984 25.3298 17.3984 24.9984C17.3984 24.6671 17.6671 24.3984 17.9984 24.3984H21.3984V12.9984C21.3984 12.7775 21.2194 12.5984 20.9984 12.5984H12.9984C12.6671 12.5984 12.3984 12.3298 12.3984 11.9984ZM10.4984 22.3984C10.8298 22.3984 11.0984 22.6671 11.0984 22.9984V23.9984C11.0984 24.2194 11.2775 24.3984 11.4984 24.3984H12.9984C13.3298 24.3984 13.5984 24.6671 13.5984 24.9984C13.5984 25.3298 13.3298 25.5984 12.9984 25.5984H11.4984C10.6148 25.5984 9.89844 24.8821 9.89844 23.9984V22.9984C9.89844 22.6671 10.1671 22.3984 10.4984 22.3984Z" fill="white"/>
<path fill-rule="evenodd" clip-rule="evenodd" d="M25.9984 23.5984C24.9491 23.5984 24.0984 24.4491 24.0984 25.4984C24.0984 26.5478 24.9491 27.3984 25.9984 27.3984C27.0478 27.3984 27.8984 26.5478 27.8984 25.4984C27.8984 24.4491 27.0478 23.5984 25.9984 23.5984ZM22.8984 25.4984C22.8984 23.7864 24.2864 22.3984 25.9984 22.3984C27.7105 22.3984 29.0984 23.7864 29.0984 25.4984C29.0984 27.2105 27.7105 28.5984 25.9984 28.5984C24.2864 28.5984 22.8984 27.2105 22.8984 25.4984Z" fill="white"/>
<path fill-rule="evenodd" clip-rule="evenodd" d="M15.4984 23.5984C14.4491 23.5984 13.5984 24.4491 13.5984 25.4984C13.5984 26.5478 14.4491 27.3984 15.4984 27.3984C16.5478 27.3984 17.3984 26.5478 17.3984 25.4984C17.3984 24.4491 16.5478 23.5984 15.4984 23.5984ZM12.3984 25.4984C12.3984 23.7864 13.7864 22.3984 15.4984 22.3984C17.2105 22.3984 18.5984 23.7864 18.5984 25.4984C18.5984 27.2105 17.2105 28.5984 15.4984 28.5984C13.7864 28.5984 12.3984 27.2105 12.3984 25.4984Z" fill="white"/>
<path fill-rule="evenodd" clip-rule="evenodd" d="M20.3984 24.9984C20.3984 24.6671 20.6671 24.3984 20.9984 24.3984H22.9984C23.3298 24.3984 23.5984 24.6671 23.5984 24.9984C23.5984 25.3298 23.3298 25.5984 22.9984 25.5984H20.9984C20.6671 25.5984 20.3984 25.3298 20.3984 24.9984Z" fill="white"/>
<path fill-rule="evenodd" clip-rule="evenodd" d="M9.89844 14.4984C9.89844 14.1671 10.1671 13.8984 10.4984 13.8984L17.4984 13.8984C17.8298 13.8984 18.0984 14.1671 18.0984 14.4984C18.0984 14.8298 17.8298 15.0984 17.4984 15.0984L10.4984 15.0984C10.1671 15.0984 9.89844 14.8298 9.89844 14.4984Z" fill="white"/>
<path fill-rule="evenodd" clip-rule="evenodd" d="M8.39844 17.4984C8.39844 17.1671 8.66707 16.8984 8.99844 16.8984L13.4984 16.8984C13.8298 16.8984 14.0984 17.1671 14.0984 17.4984C14.0984 17.8298 13.8298 18.0984 13.4984 18.0984L8.99844 18.0984C8.66707 18.0984 8.39844 17.8298 8.39844 17.4984Z" fill="white"/>
<path fill-rule="evenodd" clip-rule="evenodd" d="M9.39844 20.4984C9.39844 20.1671 9.66707 19.8984 9.99844 19.8984H14.9984C15.3298 19.8984 15.5984 20.1671 15.5984 20.4984C15.5984 20.8298 15.3298 21.0984 14.9984 21.0984H9.99844C9.66707 21.0984 9.39844 20.8298 9.39844 20.4984Z" fill="white"/>
</svg>
