<svg width="24" height="24" viewBox="0 0 24 24" fill="none" xmlns="http://www.w3.org/2000/svg">
<path fill-rule="evenodd" clip-rule="evenodd" d="M19.1093 2.28278C18.7208 2.15209 18.3233 2.06462 18.0565 2.08986C17.8385 2.11048 17.6953 2.22125 17.3899 2.48063L17.3796 2.48942C17.102 2.72538 16.67 3.09252 16 3.09252C15.3325 3.09252 14.8981 2.70531 14.6326 2.46877C14.6221 2.45935 14.6118 2.45018 14.6018 2.44128C14.3005 2.17388 14.1792 2.09252 14 2.09252C13.8209 2.09252 13.6996 2.17388 13.3983 2.44128C13.3883 2.45018 13.378 2.45935 13.3674 2.46877C13.102 2.70531 12.6675 3.09252 12 3.09252C11.3325 3.09252 10.8981 2.70531 10.6326 2.46877C10.6221 2.45936 10.6118 2.45018 10.6018 2.44128C10.3005 2.17388 10.1792 2.09252 10 2.09252C9.82086 2.09252 9.69959 2.17388 9.39829 2.44128C9.38826 2.45018 9.37797 2.45936 9.36741 2.46877C9.10199 2.70531 8.66753 3.09252 8.00002 3.09252C7.33337 3.09252 6.92573 2.70463 6.68077 2.47154C6.66538 2.4569 6.65064 2.44287 6.63652 2.42959C6.38205 2.19029 6.25045 2.09251 6.00005 2.09252C5.69398 2.09254 5.26724 2.19311 4.87734 2.31514C4.77703 2.34654 4.68335 2.37799 4.60002 2.40719V21.5964C4.68644 21.6302 4.7849 21.6666 4.89073 21.7022C5.27928 21.8329 5.67673 21.9204 5.94351 21.8951C6.1615 21.8745 6.30478 21.7637 6.6101 21.5044L6.62045 21.4956C6.89809 21.2596 7.33009 20.8925 8.00002 20.8925C8.66753 20.8925 9.10199 21.2797 9.3674 21.5162C9.37797 21.5256 9.38826 21.5348 9.39829 21.5437C9.69959 21.8111 9.82086 21.8925 10 21.8925C10.1792 21.8925 10.3005 21.8111 10.6018 21.5437C10.6118 21.5348 10.6221 21.5256 10.6326 21.5162C10.8981 21.2797 11.3325 20.8925 12 20.8925C12.6675 20.8925 13.102 21.2797 13.3674 21.5162C13.378 21.5256 13.3883 21.5348 13.3983 21.5437C13.6996 21.8111 13.8209 21.8925 14 21.8925C14.1792 21.8925 14.3005 21.8111 14.6018 21.5437C14.6118 21.5348 14.6221 21.5256 14.6326 21.5162C14.8981 21.2797 15.3325 20.8925 16 20.8925C16.67 20.8925 17.102 21.2596 17.3796 21.4956L17.3899 21.5044C17.6953 21.7638 17.8385 21.8745 18.0565 21.8951C18.3233 21.9204 18.7208 21.8329 19.1093 21.7022C19.2151 21.6666 19.3136 21.6302 19.4 21.5964V2.38863C19.3136 2.35483 19.2151 2.31838 19.1093 2.28278ZM20 1.99252L20.2599 1.4517C20.4678 1.5516 20.6 1.76185 20.6 1.99252V21.9925C20.6 22.2232 20.4678 22.4334 20.2599 22.5333L20 21.9925C20.2599 22.5333 20.26 22.5333 20.2599 22.5333L20.2577 22.5344L20.2537 22.5362L20.2407 22.5424C20.2361 22.5445 20.2308 22.547 20.2247 22.5498C20.2163 22.5537 20.2064 22.5582 20.1951 22.5634C20.1565 22.5809 20.1017 22.6052 20.0339 22.6339C19.8988 22.691 19.7095 22.7664 19.4919 22.8396C19.0808 22.9779 18.4782 23.1404 17.9435 23.0898C17.3287 23.0317 16.9199 22.6816 16.6581 22.4575C16.6426 22.4441 16.6275 22.4313 16.613 22.4189C16.3259 22.175 16.1949 22.0925 16 22.0925C15.8209 22.0925 15.6996 22.1738 15.3983 22.4412C15.3883 22.4501 15.378 22.4593 15.3674 22.4687C15.102 22.7053 14.6675 23.0925 14 23.0925C13.3325 23.0925 12.8981 22.7053 12.6326 22.4687C12.6221 22.4593 12.6118 22.4501 12.6018 22.4412C12.3005 22.1738 12.1792 22.0925 12 22.0925C11.8209 22.0925 11.6996 22.1738 11.3983 22.4412C11.3883 22.4501 11.378 22.4593 11.3674 22.4687C11.102 22.7053 10.6675 23.0925 10 23.0925C9.33252 23.0925 8.89806 22.7053 8.63265 22.4687C8.62208 22.4593 8.61179 22.4501 8.60175 22.4412C8.30046 22.1738 8.17919 22.0925 8.00002 22.0925C7.80511 22.0925 7.67417 22.175 7.38704 22.4189C7.3725 22.4313 7.35746 22.4441 7.3419 22.4575C7.08013 22.6816 6.67135 23.0316 6.05653 23.0898C5.52182 23.1404 4.91926 22.9779 4.50819 22.8396C4.29061 22.7665 4.10128 22.6911 3.96618 22.6339C3.89838 22.6053 3.84357 22.5809 3.80496 22.5634C3.78564 22.5546 3.77032 22.5475 3.75941 22.5424L3.74637 22.5363L3.74241 22.5344L3.74108 22.5338C3.74099 22.5337 3.7402 22.5333 4.00002 21.9925L3.74108 22.5338C3.53316 22.4339 3.40002 22.2232 3.40002 21.9925V1.99252C3.40002 1.75063 3.54528 1.53239 3.76843 1.43902L4.00002 1.99252C3.76843 1.43902 3.76836 1.43905 3.76843 1.43902L3.77035 1.43822L3.77401 1.4367L3.7864 1.4316L3.83049 1.4138C3.86806 1.3988 3.92163 1.37781 3.98806 1.35282C4.12054 1.30298 4.30601 1.23656 4.5189 1.16993C4.92772 1.04197 5.50098 0.892544 6 0.892522C6.7496 0.892489 7.18138 1.29471 7.4586 1.55542C7.75126 1.83064 7.8353 1.89252 8.00002 1.89252C8.17919 1.89252 8.30046 1.81116 8.60175 1.54377C8.61179 1.53486 8.62208 1.52569 8.63264 1.51628C8.89806 1.27973 9.33252 0.892522 10 0.892522C10.6675 0.892522 11.102 1.27973 11.3674 1.51628C11.378 1.52569 11.3883 1.53486 11.3983 1.54377C11.6996 1.81116 11.8209 1.89252 12 1.89252C12.1792 1.89252 12.3005 1.81116 12.6018 1.54377C12.6118 1.53487 12.6221 1.52569 12.6326 1.51628C12.8981 1.27973 13.3325 0.892522 14 0.892522C14.6675 0.892522 15.102 1.27973 15.3674 1.51628C15.378 1.52569 15.3883 1.53487 15.3983 1.54377C15.6996 1.81116 15.8209 1.89252 16 1.89252C16.1949 1.89252 16.3259 1.81003 16.613 1.56609C16.6275 1.55375 16.6426 1.54087 16.6581 1.52754C16.9199 1.30339 17.3287 0.953348 17.9435 0.895189C18.4782 0.844607 19.0808 1.00713 19.4919 1.1454C19.7095 1.21858 19.8988 1.29398 20.0339 1.3511C20.1017 1.37976 20.1565 1.4041 20.1951 1.42164C20.2144 1.43042 20.2297 1.43752 20.2407 1.44262L20.2537 1.44876L20.2577 1.45065L20.2599 1.4517C20.26 1.45175 20.2599 1.4517 20 1.99252Z" fill="#FF2C00"/>
<path fill-rule="evenodd" clip-rule="evenodd" d="M8.50002 4.39258C8.8314 4.39258 9.10002 4.66121 9.10002 4.99258V5.82591C9.10002 6.15728 8.8314 6.42591 8.50002 6.42591C8.16865 6.42591 7.90002 6.15728 7.90002 5.82591V4.99258C7.90002 4.66121 8.16865 4.39258 8.50002 4.39258Z" fill="#FF2C00"/>
<path fill-rule="evenodd" clip-rule="evenodd" d="M8.50002 11.4766C8.8314 11.4766 9.10002 11.7452 9.10002 12.0766V13.3266C9.10002 13.6579 8.8314 13.9266 8.50002 13.9266C8.16865 13.9266 7.90002 13.6579 7.90002 13.3266V12.0766C7.90002 11.7452 8.16865 11.4766 8.50002 11.4766Z" fill="#FF2C00"/>
<path fill-rule="evenodd" clip-rule="evenodd" d="M6.52262 5.90939C6.85391 5.49528 7.33566 5.22656 7.87502 5.22656H9.00002C9.26411 5.22656 9.5209 5.29186 9.75425 5.41268C9.98683 5.53311 10.1886 5.70457 10.3524 5.90939C10.5162 6.11406 10.6409 6.35037 10.7244 6.60239C10.808 6.85451 10.85 7.12152 10.85 7.38906C10.85 7.72043 10.5814 7.98906 10.25 7.98906C9.91865 7.98906 9.65002 7.72043 9.65002 7.38906C9.65002 7.24622 9.62742 7.10687 9.58533 6.97985C9.54321 6.85273 9.4838 6.74454 9.41539 6.65903C9.3471 6.57367 9.27324 6.51494 9.2025 6.47832C9.13255 6.4421 9.06424 6.42656 9.00002 6.42656H7.87502C7.75134 6.42656 7.59721 6.48709 7.45966 6.65903C7.31933 6.83444 7.22502 7.0958 7.22502 7.38906C7.22502 7.68233 7.31933 7.94369 7.45966 8.1191C7.59721 8.29104 7.75134 8.35156 7.87502 8.35156H9.25002C9.78939 8.35156 10.2711 8.62028 10.6024 9.03439C10.9309 9.44503 11.1 9.97852 11.1 10.5141C11.1 11.0496 10.9309 11.5831 10.6024 11.9937C10.2711 12.4078 9.78939 12.6766 9.25002 12.6766H7.75002C7.21066 12.6766 6.72891 12.4078 6.39762 11.9937C6.06911 11.5831 5.90002 11.0496 5.90002 10.5141C5.90002 10.1827 6.16865 9.91406 6.50002 9.91406C6.8314 9.91406 7.10002 10.1827 7.10002 10.5141C7.10002 10.8073 7.19433 11.0687 7.33466 11.2441C7.47221 11.416 7.62634 11.4766 7.75002 11.4766H9.25002C9.3737 11.4766 9.52784 11.416 9.66539 11.2441C9.80572 11.0687 9.90002 10.8073 9.90002 10.5141C9.90002 10.2208 9.80572 9.95944 9.66539 9.78403C9.52784 9.61209 9.3737 9.55156 9.25002 9.55156H7.87502C7.33566 9.55156 6.85391 9.28285 6.52262 8.86873C6.19411 8.4581 6.02502 7.9246 6.02502 7.38906C6.02502 6.85352 6.19411 6.32003 6.52262 5.90939Z" fill="#FF2C00"/>
<path fill-rule="evenodd" clip-rule="evenodd" d="M12.9 6.99258C12.9 6.66121 13.1687 6.39258 13.5 6.39258H17.5C17.8314 6.39258 18.1 6.66121 18.1 6.99258C18.1 7.32395 17.8314 7.59258 17.5 7.59258H13.5C13.1687 7.59258 12.9 7.32395 12.9 6.99258Z" fill="#FF2C00"/>
<path fill-rule="evenodd" clip-rule="evenodd" d="M12.9 10.9926C12.9 10.6612 13.1687 10.3926 13.5 10.3926H17.5C17.8314 10.3926 18.1 10.6612 18.1 10.9926C18.1 11.3239 17.8314 11.5926 17.5 11.5926H13.5C13.1687 11.5926 12.9 11.3239 12.9 10.9926Z" fill="#FF2C00"/>
<path fill-rule="evenodd" clip-rule="evenodd" d="M5.90002 15.9926C5.90002 15.6612 6.16865 15.3926 6.50002 15.3926H17.5C17.8314 15.3926 18.1 15.6612 18.1 15.9926C18.1 16.3239 17.8314 16.5926 17.5 16.5926H6.50002C6.16865 16.5926 5.90002 16.3239 5.90002 15.9926Z" fill="#FF2C00"/>
<path fill-rule="evenodd" clip-rule="evenodd" d="M5.90002 18.9926C5.90002 18.6612 6.16865 18.3926 6.50002 18.3926H17.5C17.8314 18.3926 18.1 18.6612 18.1 18.9926C18.1 19.3239 17.8314 19.5926 17.5 19.5926H6.50002C6.16865 19.5926 5.90002 19.3239 5.90002 18.9926Z" fill="#FF2C00"/>
</svg>
