<svg width="32" height="32" viewBox="0 0 32 32" fill="none" xmlns="http://www.w3.org/2000/svg">
<path fill-rule="evenodd" clip-rule="evenodd" d="M18.1953 4.00313C18.1953 3.5613 18.5519 3.20312 18.9918 3.20312H24.3015C25.4745 3.20312 26.4254 4.15825 26.4254 5.33646V14.6699C26.4254 15.1117 26.0688 15.4699 25.629 15.4699C25.1891 15.4699 24.8325 15.1117 24.8325 14.6699V5.33646C24.8325 5.04191 24.5948 4.80313 24.3015 4.80313H18.9918C18.5519 4.80313 18.1953 4.44495 18.1953 4.00313Z" fill="#61B761"/>
<path fill-rule="evenodd" clip-rule="evenodd" d="M4.38952 4.80313C4.09627 4.80313 3.85855 5.04191 3.85855 5.33646V28.0031C3.85855 28.2977 4.09627 28.5365 4.38952 28.5365H16.3365C16.7763 28.5365 17.1329 28.8946 17.1329 29.3365C17.1329 29.7783 16.7763 30.1365 16.3365 30.1365H4.38952C3.21653 30.1365 2.26562 29.1813 2.26562 28.0031V5.33646C2.26562 4.15825 3.21653 3.20312 4.38952 3.20312H10.363C10.8029 3.20312 11.1595 3.5613 11.1595 4.00313C11.1595 4.44495 10.8029 4.80313 10.363 4.80313H4.38952Z" fill="#61B761"/>
<path fill-rule="evenodd" clip-rule="evenodd" d="M9.57031 2.66719C9.57031 2.22536 9.9269 1.86719 10.3668 1.86719H18.3314C18.7713 1.86719 19.1279 2.22536 19.1279 2.66719V5.33385C19.1279 5.77568 18.7713 6.13385 18.3314 6.13385H10.3668C9.9269 6.13385 9.57031 5.77568 9.57031 5.33385V2.66719ZM11.1632 3.46719V4.53385H17.5349V3.46719H11.1632Z" fill="#61B761"/>
<path fill-rule="evenodd" clip-rule="evenodd" d="M6.91406 11.3313C6.91406 10.8894 7.27065 10.5312 7.71052 10.5312H20.9849C21.4248 10.5312 21.7814 10.8894 21.7814 11.3313C21.7814 11.7731 21.4248 12.1313 20.9849 12.1313H7.71052C7.27065 12.1313 6.91406 11.7731 6.91406 11.3313Z" fill="#61B761"/>
<path fill-rule="evenodd" clip-rule="evenodd" d="M6.91406 16.0031C6.91406 15.5613 7.27065 15.2031 7.71052 15.2031H11.5602C12.0001 15.2031 12.3567 15.5613 12.3567 16.0031C12.3567 16.445 12.0001 16.8031 11.5602 16.8031H7.71052C7.27065 16.8031 6.91406 16.445 6.91406 16.0031Z" fill="#61B761"/>
<path fill-rule="evenodd" clip-rule="evenodd" d="M6.91406 21.3313C6.91406 20.8894 7.27065 20.5312 7.71052 20.5312H15.0114C15.4513 20.5312 15.8079 20.8894 15.8079 21.3313C15.8079 21.7731 15.4513 22.1313 15.0114 22.1313H7.71052C7.27065 22.1313 6.91406 21.7731 6.91406 21.3313Z" fill="#61B761"/>
<path d="M15.8671 15.4C15.5357 15.4 15.2671 15.6686 15.2671 16C15.2671 16.3314 15.5357 16.6 15.8671 16.6V15.4ZM17.8052 16.96L18.3814 16.7927L18.3814 16.7927L17.8052 16.96ZM19.5706 23.04L18.9944 23.2073H18.9944L19.5706 23.04ZM28.1682 23.22L28.7145 23.4681V23.4681L28.1682 23.22ZM29.6121 20.0405L29.0658 19.7924V19.7924L29.6121 20.0405ZM21.1768 17.5538C20.8455 17.5538 20.5768 17.8225 20.5768 18.1538C20.5768 18.4852 20.8455 18.7538 21.1768 18.7538V17.5538ZM28.4777 26.6C28.8091 26.6 29.0777 26.3314 29.0777 26C29.0777 25.6686 28.8091 25.4 28.4777 25.4V26.6ZM20.1591 24.5139C20.4429 24.3428 20.5343 23.9741 20.3633 23.6903C20.1923 23.4065 19.8235 23.3151 19.5397 23.4861L20.1591 24.5139ZM15.8671 16.6H16.5308V15.4H15.8671V16.6ZM17.229 17.1273L18.9944 23.2073L20.1468 22.8727L18.3814 16.7927L17.229 17.1273ZM20.845 24.6H26.9605V23.4H20.845V24.6ZM28.7145 23.4681L30.1584 20.2886L29.0658 19.7924L27.6219 22.9719L28.7145 23.4681ZM28.4044 17.5538H21.1768V18.7538H28.4044V17.5538ZM30.1584 20.2886C30.7381 19.0122 29.8111 17.5538 28.4044 17.5538V18.7538C28.9301 18.7538 29.2881 19.3029 29.0658 19.7924L30.1584 20.2886ZM26.9605 24.6C27.7169 24.6 28.4019 24.1565 28.7145 23.4681L27.6219 22.9719C27.503 23.2338 27.2439 23.4 26.9605 23.4V24.6ZM18.9944 23.2073C19.2336 24.0311 19.9866 24.6 20.845 24.6V23.4C20.5235 23.4 20.238 23.1867 20.1468 22.8727L18.9944 23.2073ZM16.5308 16.6C16.8523 16.6 17.1378 16.8133 17.229 17.1273L18.3814 16.7927C18.1422 15.9689 17.3893 15.4 16.5308 15.4V16.6ZM20.4009 26.6H28.4777V25.4H20.4009V26.6ZM19.5397 23.4861C18.0922 24.3585 18.6995 26.6 20.4009 26.6V25.4C19.928 25.4 19.7421 24.7652 20.1591 24.5139L19.5397 23.4861ZM19.9131 28.6667C19.9131 28.706 19.8821 28.7333 19.8494 28.7333V29.9333C20.5498 29.9333 21.1131 29.3637 21.1131 28.6667H19.9131ZM19.8494 28.7333C19.8167 28.7333 19.7857 28.706 19.7857 28.6667H18.5857C18.5857 29.3637 19.149 29.9333 19.8494 29.9333V28.7333ZM19.7857 28.6667C19.7857 28.6273 19.8167 28.6 19.8494 28.6V27.4C19.149 27.4 18.5857 27.9696 18.5857 28.6667H19.7857ZM19.8494 28.6C19.8821 28.6 19.9131 28.6273 19.9131 28.6667H21.1131C21.1131 27.9696 20.5498 27.4 19.8494 27.4V28.6ZM27.214 28.6667C27.214 28.706 27.183 28.7333 27.1503 28.7333V29.9333C27.8507 29.9333 28.414 29.3637 28.414 28.6667H27.214ZM27.1503 28.7333C27.1176 28.7333 27.0866 28.706 27.0866 28.6667H25.8866C25.8866 29.3637 26.4499 29.9333 27.1503 29.9333V28.7333ZM27.0866 28.6667C27.0866 28.6273 27.1176 28.6 27.1503 28.6V27.4C26.4499 27.4 25.8866 27.9696 25.8866 28.6667H27.0866ZM27.1503 28.6C27.183 28.6 27.214 28.6273 27.214 28.6667H28.414C28.414 27.9696 27.8507 27.4 27.1503 27.4V28.6Z" fill="#61B761"/>
</svg>
