<svg width="22" height="22" viewBox="0 0 22 22" fill="none" xmlns="http://www.w3.org/2000/svg">
<path fill-rule="evenodd" clip-rule="evenodd" d="M2.66641 11.7178C2.99778 11.7178 3.26641 11.9864 3.26641 12.3178V20.0905C3.26641 20.1886 3.30258 20.2732 3.35278 20.3279C3.40137 20.381 3.45554 20.3996 3.49974 20.3996H18.4997C18.5439 20.3996 18.5981 20.381 18.6467 20.3279C18.6969 20.2732 18.7331 20.1886 18.7331 20.0905V12.3178C18.7331 11.9864 19.0017 11.7178 19.3331 11.7178C19.6644 11.7178 19.9331 11.9864 19.9331 12.3178V20.0905C19.9331 20.4747 19.7937 20.8526 19.5313 21.1388C19.2673 21.4268 18.8976 21.5996 18.4997 21.5996H3.49974C3.10192 21.5996 2.73215 21.4268 2.46819 21.1388C2.20583 20.8526 2.06641 20.4747 2.06641 20.0905V12.3178C2.06641 11.9864 2.33504 11.7178 2.66641 11.7178Z" fill="#138300"/>
<path fill-rule="evenodd" clip-rule="evenodd" d="M3.29206 0.399414H18.7141C19.0369 0.402313 19.3439 0.518546 19.5904 0.721055C19.8358 0.922778 20.0076 1.1982 20.0899 1.50134L20.0914 1.50691L21.5809 7.2115C21.6279 7.39133 21.5889 7.58277 21.4752 7.72986C21.3616 7.87695 21.1863 7.96309 21.0004 7.96309H1.0004C0.814535 7.96309 0.639167 7.87695 0.525552 7.72986C0.411937 7.58277 0.372904 7.39133 0.419861 7.2115L1.9109 1.50133C1.99318 1.19819 2.16495 0.922777 2.41043 0.721055C2.65687 0.518547 2.96387 0.402337 3.28667 0.399438L3.29206 0.399414ZM3.29573 1.59941C3.2574 1.60015 3.21402 1.61389 3.17229 1.64819C3.12938 1.68345 3.09016 1.73953 3.06962 1.81354L1.77719 6.76309H20.2236L18.9318 1.81568C18.9316 1.81499 18.9314 1.81431 18.9312 1.81362C18.9107 1.73957 18.8714 1.68346 18.8285 1.64819C18.7868 1.61389 18.7434 1.60015 18.7051 1.59941H3.29573Z" fill="#138300"/>
<path fill-rule="evenodd" clip-rule="evenodd" d="M1.00039 6.7627C1.33176 6.7627 1.60039 7.03132 1.60039 7.3627V9.18089C1.60039 10.0022 1.89995 10.7805 2.41899 11.3468C2.93643 11.9112 3.62648 12.2173 4.33372 12.2173C5.04097 12.2173 5.73101 11.9112 6.24845 11.3468C6.76749 10.7805 7.06706 10.0022 7.06706 9.18089V7.3627C7.06706 7.03132 7.33569 6.7627 7.66706 6.7627C7.99843 6.7627 8.26706 7.03132 8.26706 7.3627V9.18089C8.26706 10.2884 7.86424 11.36 7.13304 12.1576C6.40024 12.9571 5.39459 13.4173 4.33372 13.4173C3.27286 13.4173 2.26721 12.9571 1.53441 12.1576C0.803205 11.36 0.400391 10.2884 0.400391 9.18089V7.3627C0.400391 7.03132 0.66902 6.7627 1.00039 6.7627Z" fill="#138300"/>
<path fill-rule="evenodd" clip-rule="evenodd" d="M7.66641 6.7627C7.99778 6.7627 8.26641 7.03132 8.26641 7.3627V9.18089C8.26641 10.0022 8.56597 10.7805 9.08501 11.3468C9.60245 11.9112 10.2925 12.2173 10.9997 12.2173C11.707 12.2173 12.397 11.9112 12.9145 11.3468C13.4335 10.7805 13.7331 10.0022 13.7331 9.18089V7.3627C13.7331 7.03132 14.0017 6.7627 14.3331 6.7627C14.6644 6.7627 14.9331 7.03132 14.9331 7.3627V9.18089C14.9331 10.2884 14.5303 11.36 13.7991 12.1576C13.0663 12.9571 12.0606 13.4173 10.9997 13.4173C9.93887 13.4173 8.93323 12.9571 8.20042 12.1576C7.46922 11.36 7.06641 10.2884 7.06641 9.18089V7.3627C7.06641 7.03132 7.33504 6.7627 7.66641 6.7627Z" fill="#138300"/>
<path fill-rule="evenodd" clip-rule="evenodd" d="M14.3324 6.7627C14.6638 6.7627 14.9324 7.03132 14.9324 7.3627V9.18089C14.9324 10.0022 15.232 10.7805 15.751 11.3468C16.2685 11.9112 16.9585 12.2173 17.6658 12.2173C18.373 12.2173 19.063 11.9112 19.5805 11.3468C20.0995 10.7805 20.3991 10.0022 20.3991 9.18089V7.3627C20.3991 7.03132 20.6677 6.7627 20.9991 6.7627C21.3305 6.7627 21.5991 7.03132 21.5991 7.3627V9.18089C21.5991 10.2884 21.1963 11.36 20.4651 12.1576C19.7323 12.9571 18.7266 13.4173 17.6658 13.4173C16.6049 13.4173 15.5992 12.9571 14.8664 12.1576C14.1352 11.36 13.7324 10.2884 13.7324 9.18089V7.3627C13.7324 7.03132 14.0011 6.7627 14.3324 6.7627Z" fill="#138300"/>
<path fill-rule="evenodd" clip-rule="evenodd" d="M8.40039 15.9994C8.40039 15.668 8.66902 15.3994 9.00039 15.3994H13.0004C13.3318 15.3994 13.6004 15.668 13.6004 15.9994V20.9994C13.6004 21.3308 13.3318 21.5994 13.0004 21.5994H9.00039C8.66902 21.5994 8.40039 21.3308 8.40039 20.9994V15.9994ZM9.60039 16.5994V20.3994H12.4004V16.5994H9.60039Z" fill="#138300"/>
</svg>
