<svg width="32" height="32" viewBox="0 0 32 32" fill="none" xmlns="http://www.w3.org/2000/svg">
<path fill-rule="evenodd" clip-rule="evenodd" d="M5.20312 14.6672C5.20312 14.2254 5.5613 13.8672 6.00313 13.8672H14.0031C14.445 13.8672 14.8031 14.2254 14.8031 14.6672C14.8031 15.109 14.445 15.4672 14.0031 15.4672H6.00313C5.5613 15.4672 5.20312 15.109 5.20312 14.6672Z" fill="#595959"/>
<path fill-rule="evenodd" clip-rule="evenodd" d="M5.20312 20.0031C5.20312 19.5613 5.5613 19.2031 6.00313 19.2031H19.3365C19.7783 19.2031 20.1365 19.5613 20.1365 20.0031C20.1365 20.445 19.7783 20.8031 19.3365 20.8031H6.00313C5.5613 20.8031 5.20312 20.445 5.20312 20.0031Z" fill="#595959"/>
<path fill-rule="evenodd" clip-rule="evenodd" d="M5.20312 25.3313C5.20312 24.8894 5.5613 24.5312 6.00313 24.5312H19.3365C19.7783 24.5312 20.1365 24.8894 20.1365 25.3313C20.1365 25.7731 19.7783 26.1313 19.3365 26.1313H6.00313C5.5613 26.1313 5.20312 25.7731 5.20312 25.3313Z" fill="#595959"/>
<path fill-rule="evenodd" clip-rule="evenodd" d="M5.33385 3.46719C4.30292 3.46719 3.46719 4.30292 3.46719 5.33385V26.6672C3.46719 27.6981 4.30292 28.5339 5.33385 28.5339H20.0005C21.0315 28.5339 21.8672 27.6981 21.8672 26.6672V19.3339C21.8672 18.892 22.2254 18.5339 22.6672 18.5339C23.109 18.5339 23.4672 18.892 23.4672 19.3339V26.6672C23.4672 28.5818 21.9151 30.1339 20.0005 30.1339H5.33385C3.41927 30.1339 1.86719 28.5818 1.86719 26.6672V5.33385C1.86719 3.41927 3.41927 1.86719 5.33385 1.86719H14.6672C15.109 1.86719 15.4672 2.22536 15.4672 2.66719C15.4672 3.10902 15.109 3.46719 14.6672 3.46719H5.33385Z" fill="#595959"/>
<path fill-rule="evenodd" clip-rule="evenodd" d="M22.3509 3.57011C22.3506 3.57032 22.3511 3.5699 22.3509 3.57011L21.302 4.47314C21.3016 4.47349 21.3012 4.47384 21.3008 4.47418C21.1062 4.64246 20.8684 4.76244 20.6593 4.84013C20.4499 4.91794 20.1926 4.98186 19.9383 4.98186H18.7854C18.5209 4.98186 18.2992 5.20344 18.2992 5.46816V6.60793C18.2992 6.86272 18.235 7.11838 18.1587 7.32467C18.0819 7.53205 17.9656 7.76316 17.8073 7.95317L17.8026 7.95883L16.9054 9.01549C16.9051 9.01585 16.9048 9.01621 16.9045 9.01656C16.7693 9.17881 16.7693 9.48897 16.9045 9.65122C16.9048 9.65158 16.9051 9.65194 16.9054 9.6523L17.8073 10.7146C17.9656 10.9046 18.0819 11.1357 18.1587 11.3431C18.235 11.5494 18.2992 11.8051 18.2992 12.0599V13.1996C18.2992 13.4644 18.5209 13.6859 18.7854 13.6859H19.9383C20.1948 13.6859 20.4521 13.7493 20.6632 13.8282C20.8737 13.9068 21.1083 14.0271 21.3008 14.1936C21.3012 14.194 21.3016 14.1943 21.302 14.1946L22.3488 15.0958C22.5198 15.2376 22.8317 15.2324 22.9896 15.0983C22.9898 15.098 22.9893 15.0985 22.9896 15.0983L24.0393 14.1946C24.0397 14.1943 24.0401 14.1939 24.0405 14.1936C24.235 14.0253 24.4729 13.9054 24.6819 13.8277C24.8913 13.7499 25.1487 13.6859 25.4029 13.6859H26.5358C26.8004 13.6859 27.022 13.4644 27.022 13.1996V12.0665C27.022 11.81 27.0854 11.5527 27.1642 11.3417C27.2429 11.1311 27.3632 10.8964 27.5297 10.7039C27.53 10.7035 27.5303 10.7032 27.5307 10.7028L28.4317 9.6559C28.5736 9.48479 28.5684 9.17258 28.4341 9.01464C28.4339 9.01442 28.4343 9.01487 28.4341 9.01464L27.5307 7.96496C27.5303 7.96457 27.53 7.96418 27.5296 7.96379C27.3614 7.76923 27.2414 7.53136 27.1637 7.32227C27.0859 7.11287 27.022 6.85553 27.022 6.60126V5.46816C27.022 5.20344 26.8004 4.98186 26.5358 4.98186H25.4029C25.1464 4.98186 24.8891 4.91847 24.6781 4.83962C24.4676 4.76097 24.233 4.64074 24.0405 4.47424C24.0401 4.47387 24.0397 4.47351 24.0393 4.47314L22.9924 3.57187C22.8214 3.4301 22.5087 3.43591 22.3509 3.57011ZM21.311 2.35412C22.0723 1.70305 23.2637 1.70793 24.0259 2.35044L24.0323 2.35581L25.0872 3.2641C25.0872 3.26409 25.0872 3.26405 25.0872 3.2641C25.0883 3.26499 25.1017 3.27569 25.1308 3.29188C25.1603 3.30831 25.1971 3.32551 25.2381 3.34083C25.2791 3.35616 25.3182 3.36734 25.3513 3.37427C25.3847 3.38126 25.4019 3.38183 25.4029 3.38186L26.5358 3.38186C27.6841 3.38186 28.622 4.31991 28.622 5.46816V6.60126C28.622 6.60074 28.622 6.6007 28.622 6.60126C28.6222 6.60402 28.6233 6.62007 28.6295 6.64945C28.6365 6.68293 28.6479 6.72292 28.6636 6.76503C28.6792 6.80715 28.6967 6.8449 28.7133 6.87493C28.7283 6.90202 28.7382 6.91502 28.7398 6.91704C28.74 6.91738 28.74 6.9173 28.7398 6.91704L28.7416 6.91918L29.6496 7.97423C30.3006 8.73558 30.2957 9.92699 29.6533 10.6892L29.6479 10.6956L28.7416 11.7486L28.7398 11.7506C28.7398 11.7506 28.7399 11.7506 28.7398 11.7506C28.7389 11.7518 28.7282 11.7652 28.712 11.7942C28.6956 11.8237 28.6784 11.8606 28.6631 11.9016C28.6477 11.9426 28.6366 11.9818 28.6296 12.0149C28.6224 12.0495 28.622 12.0668 28.622 12.0665V13.1996C28.622 14.3479 27.6841 15.2859 26.5358 15.2859H25.4029C25.4034 15.2859 25.4035 15.2859 25.4029 15.2859C25.4002 15.2861 25.3841 15.2872 25.3548 15.2934C25.3213 15.3004 25.2814 15.3118 25.2393 15.3275C25.1972 15.3431 25.1594 15.3606 25.1294 15.3772C25.1023 15.3922 25.0894 15.4021 25.0873 15.4036C25.087 15.4039 25.0871 15.4038 25.0873 15.4036L25.0852 15.4055L24.0322 16.3119L24.0302 16.3136C23.2689 16.9647 22.0775 16.9598 21.3153 16.3173L21.309 16.3119L20.2561 15.4055L20.254 15.4037C20.2545 15.4041 20.2414 15.3931 20.2105 15.3759C20.181 15.3595 20.1442 15.3423 20.1032 15.327C20.0621 15.3116 20.023 15.3005 19.9899 15.2935C19.9565 15.2865 19.9393 15.286 19.9384 15.2859L18.7854 15.2859C17.6371 15.2859 16.6992 14.3479 16.6992 13.1996V12.0599C16.6992 12.0604 16.6993 12.0604 16.6992 12.0599C16.699 12.0571 16.698 12.0416 16.6919 12.013C16.685 11.9801 16.6737 11.9405 16.6582 11.8985C16.6426 11.8565 16.6251 11.8182 16.6082 11.7871C16.5998 11.7718 16.5925 11.7598 16.5867 11.751C16.5825 11.7447 16.5797 11.7409 16.5786 11.7395L15.6806 10.6818C15.044 9.92429 15.044 8.74351 15.6806 7.98605L15.6832 7.98301L16.5786 6.92829C16.5797 6.92684 16.5825 6.92312 16.5867 6.91674C16.5925 6.90798 16.5998 6.896 16.6082 6.88073C16.6251 6.8496 16.6426 6.81131 16.6582 6.76931C16.6737 6.72725 16.685 6.68771 16.6919 6.65481C16.698 6.62618 16.699 6.61065 16.6992 6.60794C16.6992 6.60737 16.6992 6.60738 16.6992 6.60794L16.6992 5.46816C16.6992 4.31991 17.6371 3.38186 18.7854 3.38186H19.9383C19.9378 3.38186 19.9378 3.3819 19.9383 3.38186C19.9411 3.38168 19.9571 3.38057 19.9865 3.3744C20.0199 3.36737 20.0599 3.35597 20.102 3.34033C20.1441 3.32468 20.1818 3.3072 20.2118 3.2906C20.2389 3.27563 20.2519 3.26571 20.2539 3.26416C20.2542 3.26392 20.2542 3.26396 20.2539 3.26416L20.256 3.26236L21.311 2.35412Z" fill="#F1CE1A"/>
<path fill-rule="evenodd" clip-rule="evenodd" d="M25.8486 6.71669C26.188 6.99954 26.2339 7.504 25.951 7.84342L22.6177 11.8434C22.4738 12.0161 22.2639 12.1203 22.0394 12.1304C21.8148 12.1406 21.5964 12.0559 21.4374 11.897L19.4374 9.89696C19.125 9.58454 19.125 9.078 19.4374 8.76558C19.7499 8.45317 20.2564 8.45317 20.5688 8.76558L21.9494 10.1461L24.7219 6.81912C25.0047 6.4797 25.5092 6.43384 25.8486 6.71669Z" fill="#595959"/>
</svg>
