<svg width="20" height="20" viewBox="0 0 20 20" fill="none" xmlns="http://www.w3.org/2000/svg">
<path fill-rule="evenodd" clip-rule="evenodd" d="M1.16406 4.16927C1.16406 3.43289 1.76102 2.83594 2.4974 2.83594H17.4974C18.2338 2.83594 18.8307 3.43289 18.8307 4.16927V15.8359C18.8307 16.5723 18.2338 17.1693 17.4974 17.1693H2.4974C1.76102 17.1693 1.16406 16.5723 1.16406 15.8359V4.16927ZM2.4974 3.83594C2.3133 3.83594 2.16406 3.98518 2.16406 4.16927V15.8359C2.16406 16.02 2.3133 16.1693 2.4974 16.1693H17.4974C17.6815 16.1693 17.8307 16.02 17.8307 15.8359V4.16927C17.8307 3.98518 17.6815 3.83594 17.4974 3.83594H2.4974Z" fill="#707070"/>
<path fill-rule="evenodd" clip-rule="evenodd" d="M1.16406 6.17188H18.8307V8.00521H1.16406V6.17188Z" fill="#707070"/>
<path fill-rule="evenodd" clip-rule="evenodd" d="M5.32812 13.75C5.32812 13.4739 5.55198 13.25 5.82813 13.25H9.16146C9.4376 13.25 9.66146 13.4739 9.66146 13.75C9.66146 14.0261 9.4376 14.25 9.16146 14.25H5.82813C5.55198 14.25 5.32812 14.0261 5.32812 13.75Z" fill="#707070"/>
<path d="M4.32812 13.75C4.32812 14.0261 4.10427 14.25 3.82812 14.25C3.55198 14.25 3.32812 14.0261 3.32812 13.75C3.32812 13.4739 3.55198 13.25 3.82812 13.25C4.10427 13.25 4.32812 13.4739 4.32812 13.75Z" fill="#707070"/>
</svg>
