<svg width="24" height="24" viewBox="0 0 24 24" fill="none" xmlns="http://www.w3.org/2000/svg">
<path fill-rule="evenodd" clip-rule="evenodd" d="M10.5584 4.92426C6.65183 5.32575 3.60469 8.62667 3.60469 12.6393C3.60469 16.9228 7.07718 20.3953 11.3607 20.3953C15.3733 20.3953 18.6742 17.3482 19.0757 13.4416H11.3607C10.9176 13.4416 10.5584 13.0824 10.5584 12.6393V4.92426ZM2 12.6393C2 7.46951 6.19093 3.27857 11.3607 3.27857C11.8038 3.27857 12.1631 3.63779 12.1631 4.08092V11.8369H19.9191C20.3622 11.8369 20.7214 12.1962 20.7214 12.6393C20.7214 17.8091 16.5305 22 11.3607 22C6.19093 22 2 17.8091 2 12.6393Z" fill="#FF2C00"/>
<path fill-rule="evenodd" clip-rule="evenodd" d="M15.105 3.73178V8.895H20.2682C19.6659 6.34417 17.6558 4.33411 15.105 3.73178ZM14.568 2.00727C18.441 2.48925 21.5108 5.55902 21.9927 9.43202C22.0657 10.0183 21.5797 10.4997 20.9889 10.4997H14.0352C13.7398 10.4997 13.5003 10.2602 13.5003 9.9648V3.01112C13.5003 2.42029 13.9817 1.93431 14.568 2.00727Z" fill="#FF2C00"/>
</svg>
