<svg width="32" height="32" viewBox="0 0 32 32" fill="none" xmlns="http://www.w3.org/2000/svg">
<path fill-rule="evenodd" clip-rule="evenodd" d="M1.86719 19.3781C1.86719 18.9363 2.22536 18.5781 2.66719 18.5781H6.66719C7.10901 18.5781 7.46719 18.9363 7.46719 19.3781V29.3337C7.46719 29.7755 7.10901 30.1337 6.66719 30.1337H2.66719C2.22536 30.1337 1.86719 29.7755 1.86719 29.3337V19.3781ZM3.46719 20.1781V28.5337H5.86719V20.1781H3.46719Z" fill="#61B761"/>
<path fill-rule="evenodd" clip-rule="evenodd" d="M10.1313 21.2039V28.6227C10.1313 29.0646 9.77308 29.4227 9.33125 29.4227C8.88942 29.4227 8.53125 29.0646 8.53125 28.6227V20.8005C8.53125 20.5575 8.64172 20.3276 8.83149 20.1758L9.33125 20.8005C8.83149 20.1758 8.83132 20.176 8.83149 20.1758L8.83318 20.1745L8.83585 20.1724L8.84411 20.1658L8.87211 20.144C8.8958 20.1256 8.92945 20.0999 8.97241 20.0678C9.05828 20.0037 9.18162 19.9141 9.33716 19.8074C9.64756 19.5946 10.0898 19.3115 10.6214 19.028C11.6664 18.4706 13.138 17.8672 14.6646 17.8672C16.127 17.8672 17.5579 18.2543 18.5993 18.6245C19.1251 18.8115 19.5636 18.9985 19.8722 19.1396C20.0267 19.2102 20.1493 19.2696 20.2346 19.3121C20.2773 19.3334 20.3107 19.3504 20.3342 19.3625L20.362 19.377L20.3701 19.3813L20.3727 19.3827L20.3741 19.3834C20.3742 19.3834 20.3744 19.3835 19.9979 20.0894L20.3741 19.3834C21.8454 20.1681 22.4646 21.0992 22.4646 22.045C22.4646 22.4792 22.3293 22.8317 22.2031 23.0672C22.1393 23.1863 22.0747 23.2815 22.0233 23.35C21.9975 23.3844 21.9746 23.4127 21.9561 23.4345C21.9468 23.4454 21.9387 23.4548 21.9317 23.4625L21.9223 23.473L21.9183 23.4773L21.9165 23.4792C21.9161 23.4797 21.9149 23.481 21.3451 22.9469L21.9149 23.481C21.6127 23.8033 21.1064 23.8197 20.7841 23.5175C20.4658 23.2191 20.4459 22.7217 20.7364 22.3989C20.7378 22.3972 20.7401 22.3942 20.7433 22.39C20.7545 22.3751 20.7732 22.348 20.7927 22.3116C20.8332 22.2361 20.8646 22.1441 20.8646 22.045C20.8646 21.9241 20.8168 21.4329 19.622 20.7956C19.6218 20.7955 19.6222 20.7957 19.622 20.7956L19.9713 20.1393C19.6215 20.7953 19.6219 20.7955 19.622 20.7956L19.6184 20.7937L19.6004 20.7843C19.5835 20.7756 19.5571 20.7621 19.5216 20.7445C19.4507 20.7092 19.3441 20.6575 19.207 20.5948C18.9323 20.4692 18.5374 20.3007 18.0632 20.1321C17.1046 19.7912 15.8689 19.4672 14.6646 19.4672C13.5245 19.4672 12.3294 19.9304 11.3744 20.4397C10.906 20.6895 10.5149 20.9398 10.242 21.127C10.2025 21.1541 10.1655 21.1798 10.1313 21.2039ZM9.8303 21.4258C9.83006 21.426 9.83022 21.4258 9.8303 21.4258V21.4258Z" fill="#61B761"/>
<path fill-rule="evenodd" clip-rule="evenodd" d="M28.2088 20.0034C28.7358 20.0336 29.1934 20.2658 29.5777 20.6672C30.0104 21.1191 30.1834 21.6797 30.118 22.2637C30.0568 22.8098 29.7946 23.3296 29.4574 23.7953C28.7825 24.7275 27.6362 25.6762 26.2866 26.5329C23.5776 28.2523 19.7699 29.7749 16.4304 30.0873C14.9545 30.2253 13.1172 30.0283 11.6933 29.8111C10.972 29.701 10.339 29.5829 9.88589 29.4923C9.65916 29.4469 9.47699 29.4083 9.35079 29.3809C9.28768 29.3672 9.23853 29.3563 9.20477 29.3487L9.16582 29.3399L9.15533 29.3375L9.15239 29.3368C9.15228 29.3368 9.151 29.3365 9.32312 28.593L9.151 29.3365C8.72056 29.2368 8.45239 28.8071 8.55204 28.3766C8.65168 27.9462 9.08134 27.6781 9.51175 27.7777C9.51178 27.7777 9.51171 27.7776 9.51175 27.7777L9.51375 27.7781L9.52175 27.7799L9.55553 27.7876C9.58578 27.7944 9.63123 27.8045 9.69047 27.8174C9.80899 27.8431 9.98253 27.8799 10.1998 27.9234C10.6348 28.0104 11.243 28.1239 11.9346 28.2294C13.3364 28.4432 15.0113 28.613 16.2814 28.4942C19.3145 28.2105 22.8824 26.7985 25.4291 25.182C26.7073 24.3707 27.6589 23.5511 28.1614 22.857C28.413 22.5095 28.5093 22.2516 28.5279 22.0856C28.5422 21.9577 28.5161 21.872 28.422 21.7737C28.2794 21.6248 28.1883 21.6048 28.117 21.6007C28.0063 21.5944 27.8216 21.6269 27.502 21.7685C27.1849 21.909 26.8236 22.1148 26.3588 22.3796C25.9068 22.6372 25.3797 22.9366 24.7813 23.2251C22.329 24.4073 18.7728 25.3546 13.283 23.4433C12.8658 23.298 12.6453 22.842 12.7906 22.4247C12.9358 22.0074 13.3919 21.7869 13.8091 21.9322C18.856 23.6894 21.973 22.8027 24.0866 21.7838C24.6297 21.522 25.1128 21.248 25.5663 20.9897L25.6155 20.9616C26.0395 20.72 26.4617 20.4794 26.8538 20.3057C27.2585 20.1263 27.7214 19.9754 28.2088 20.0034Z" fill="#61B761"/>
<path fill-rule="evenodd" clip-rule="evenodd" d="M8.53125 4.00052C8.53125 2.82231 9.48638 1.86719 10.6646 1.86719H27.9979C29.1761 1.86719 30.1312 2.82231 30.1312 4.00052V13.3339C30.1312 14.5121 29.1761 15.4672 27.9979 15.4672H10.6646C9.48638 15.4672 8.53125 14.5121 8.53125 13.3339V4.00052ZM10.6646 3.46719C10.37 3.46719 10.1313 3.70597 10.1313 4.00052V13.3339C10.1313 13.6284 10.37 13.8672 10.6646 13.8672H27.9979C28.2925 13.8672 28.5312 13.6284 28.5312 13.3339V4.00052C28.5312 3.70597 28.2925 3.46719 27.9979 3.46719H10.6646Z" fill="#61B761"/>
<path fill-rule="evenodd" clip-rule="evenodd" d="M19.3359 4.66406C19.7041 4.66406 20.0026 4.96254 20.0026 5.33073V5.35249C20.4261 5.43107 20.7525 5.7108 20.9609 6.02069C21.2057 6.38482 21.3359 6.84909 21.3359 7.33073C21.3359 7.69892 21.0375 7.9974 20.6693 7.9974C20.3011 7.9974 20.0026 7.69892 20.0026 7.33073C20.0026 7.07904 19.9329 6.8814 19.8543 6.76458C19.805 6.69113 19.769 6.66955 19.7562 6.66406H18.8186C18.8102 6.67277 18.7987 6.68664 18.7845 6.70799C18.7263 6.79568 18.6693 6.95405 18.6693 7.1593C18.6693 7.44732 18.715 7.55696 18.7329 7.58946C18.7413 7.60464 18.7535 7.62686 18.8357 7.66858L20.442 8.47174C20.6742 8.59169 20.9257 8.77501 21.1016 9.09643C21.2682 9.40081 21.3293 9.76128 21.3293 10.1688C21.3293 10.6017 21.213 11.0243 20.9912 11.358C20.7897 11.6613 20.4533 11.9501 20.0026 11.9921V11.9974C20.0026 12.3656 19.7041 12.6641 19.3359 12.6641C18.9677 12.6641 18.6693 12.3656 18.6693 11.9974V11.9785C18.2401 11.9034 17.9132 11.6161 17.7084 11.3084C17.4659 10.944 17.3359 10.4785 17.3359 9.9974C17.3359 9.62921 17.6344 9.33073 18.0026 9.33073C18.3708 9.33073 18.6693 9.62921 18.6693 9.9974C18.6693 10.2497 18.7393 10.4508 18.8184 10.5697C18.8605 10.633 18.8914 10.6564 18.9049 10.6641H19.8467C19.855 10.6554 19.8665 10.6415 19.8807 10.6201C19.9389 10.5324 19.9959 10.3741 19.9959 10.1688C19.9959 9.88113 19.9504 9.77017 19.9319 9.73646C19.9229 9.72002 19.9114 9.69886 19.8333 9.65809L18.235 8.85893C17.9992 8.73964 17.7439 8.55672 17.5656 8.23391C17.3969 7.92831 17.3359 7.56652 17.3359 7.1593C17.3359 6.72646 17.4523 6.30387 17.674 5.97013C17.8765 5.66535 18.2152 5.37521 18.6693 5.33537V5.33073C18.6693 4.96254 18.9677 4.66406 19.3359 4.66406ZM19.7512 6.66242C19.7512 6.66233 19.7522 6.6625 19.754 6.66318L19.7512 6.66242Z" fill="#61B761"/>
</svg>
