<svg width="16" height="16" viewBox="0 0 16 16" fill="none" xmlns="http://www.w3.org/2000/svg">
    <path fill-rule="evenodd" clip-rule="evenodd" d="M2.09137 12.9913C2.005 12.9293 1.94688 12.8354 1.92985 12.7304L1.60553 10.7304C1.57017 10.5124 1.71828 10.3069 1.93634 10.2716C2.15441 10.2362 2.35985 10.3843 2.39522 10.6024L2.56907 11.6745L6.38316 6.59295C6.50239 6.43411 6.72011 6.3868 6.8945 6.48185L9.80695 8.06923L13.6847 3.08738C13.8204 2.91305 14.0717 2.88173 14.2461 3.01742C14.4204 3.15312 14.4517 3.40444 14.316 3.57877L10.2295 8.82877C10.1092 8.9834 9.89452 9.02807 9.72246 8.93429L6.81535 7.34982L3.24361 12.1085L4.26823 11.9385C4.48617 11.9023 4.69215 12.0497 4.72831 12.2676C4.76447 12.4855 4.61711 12.6915 4.39918 12.7277L2.39017 13.061C2.28526 13.0784 2.17774 13.0533 2.09137 12.9913Z" fill="#FF3434"/>
    </svg>
    