<svg width="22" height="22" viewBox="0 0 22 22" fill="none" xmlns="http://www.w3.org/2000/svg">
<path fill-rule="evenodd" clip-rule="evenodd" d="M0.400391 20.9999C0.400391 20.6685 0.66902 20.3999 1.00039 20.3999H21.0004C21.3318 20.3999 21.6004 20.6685 21.6004 20.9999C21.6004 21.3313 21.3318 21.5999 21.0004 21.5999H1.00039C0.66902 21.5999 0.400391 21.3313 0.400391 20.9999Z" fill="#F85555"/>
<path fill-rule="evenodd" clip-rule="evenodd" d="M1.68998 0.854176C1.94227 0.572642 2.29946 0.399902 2.68781 0.399902H12.0385C12.4268 0.399902 12.784 0.572641 13.0363 0.854176C13.2866 1.13355 13.4177 1.49967 13.4177 1.86947V20.9999C13.4177 21.3313 13.1491 21.5999 12.8177 21.5999C12.4863 21.5999 12.2177 21.3313 12.2177 20.9999V1.86947C12.2177 1.77802 12.1845 1.70179 12.1426 1.65501C12.1026 1.61039 12.0634 1.5999 12.0385 1.5999H2.68781C2.66285 1.5999 2.62364 1.61039 2.58366 1.65501C2.54175 1.70179 2.50859 1.77802 2.50859 1.86947V20.9999C2.50859 21.3313 2.23996 21.5999 1.90859 21.5999C1.57722 21.5999 1.30859 21.3313 1.30859 20.9999V1.86947C1.30859 1.49967 1.43963 1.13355 1.68998 0.854176Z" fill="#F85555"/>
<path fill-rule="evenodd" clip-rule="evenodd" d="M12.2188 7.36318C12.2188 7.03181 12.4874 6.76318 12.8188 6.76318H18.546C18.957 6.76318 19.2854 6.99667 19.4875 7.28537C19.6882 7.57204 19.7824 7.9282 19.7824 8.27227V20.9995C19.7824 21.3309 19.5138 21.5995 19.1824 21.5995C18.851 21.5995 18.5824 21.3309 18.5824 20.9995V8.27227C18.5824 8.13414 18.5425 8.02784 18.5045 7.97353C18.5017 7.96956 18.4991 7.96613 18.4968 7.96318H12.8188C12.4874 7.96318 12.2188 7.69455 12.2188 7.36318Z" fill="#F85555"/>
<path fill-rule="evenodd" clip-rule="evenodd" d="M4.03711 5.54482C4.03711 5.21345 4.30574 4.94482 4.63711 4.94482H7.36438C7.69575 4.94482 7.96438 5.21345 7.96438 5.54482C7.96438 5.8762 7.69575 6.14482 7.36438 6.14482H4.63711C4.30574 6.14482 4.03711 5.8762 4.03711 5.54482Z" fill="#F85555"/>
<path fill-rule="evenodd" clip-rule="evenodd" d="M5.85547 10.0917C5.85547 9.76033 6.1241 9.4917 6.45547 9.4917H9.18274C9.51411 9.4917 9.78274 9.76033 9.78274 10.0917C9.78274 10.4231 9.51411 10.6917 9.18274 10.6917H6.45547C6.1241 10.6917 5.85547 10.4231 5.85547 10.0917Z" fill="#F85555"/>
<path fill-rule="evenodd" clip-rule="evenodd" d="M4.03711 13.7265C4.03711 13.3951 4.30574 13.1265 4.63711 13.1265H7.36438C7.69575 13.1265 7.96438 13.3951 7.96438 13.7265C7.96438 14.0578 7.69575 14.3265 7.36438 14.3265H4.63711C4.30574 14.3265 4.03711 14.0578 4.03711 13.7265Z" fill="#F85555"/>
<path fill-rule="evenodd" clip-rule="evenodd" d="M14.9453 16.455C14.9453 16.1236 15.2139 15.855 15.5453 15.855H16.4544C16.7858 15.855 17.0544 16.1236 17.0544 16.455C17.0544 16.7864 16.7858 17.055 16.4544 17.055H15.5453C15.2139 17.055 14.9453 16.7864 14.9453 16.455Z" fill="#F85555"/>
<path fill-rule="evenodd" clip-rule="evenodd" d="M14.9453 11.9081C14.9453 11.5767 15.2139 11.3081 15.5453 11.3081H16.4544C16.7858 11.3081 17.0544 11.5767 17.0544 11.9081C17.0544 12.2395 16.7858 12.5081 16.4544 12.5081H15.5453C15.2139 12.5081 14.9453 12.2395 14.9453 11.9081Z" fill="#F85555"/>
<path fill-rule="evenodd" clip-rule="evenodd" d="M5.85547 17.3632C5.85547 17.0318 6.1241 16.7632 6.45547 16.7632H8.27365C8.60502 16.7632 8.87365 17.0318 8.87365 17.3632V20.9995C8.87365 21.3309 8.60502 21.5995 8.27365 21.5995H6.45547C6.1241 21.5995 5.85547 21.3309 5.85547 20.9995V17.3632ZM7.05547 17.9632V20.3995H7.67365V17.9632H7.05547Z" fill="#F85555"/>
</svg>
