<svg width="32" height="32" viewBox="0 0 32 32" fill="none" xmlns="http://www.w3.org/2000/svg">
<path fill-rule="evenodd" clip-rule="evenodd" d="M1.86719 19.3781C1.86719 18.9363 2.22536 18.5781 2.66719 18.5781H6.66719C7.10902 18.5781 7.46719 18.9363 7.46719 19.3781V29.3337C7.46719 29.7755 7.10902 30.1337 6.66719 30.1337H2.66719C2.22536 30.1337 1.86719 29.7755 1.86719 29.3337V19.3781ZM3.46719 20.1781V28.5337H5.86719V20.1781H3.46719Z" fill="#595959"/>
<path fill-rule="evenodd" clip-rule="evenodd" d="M10.1312 21.2039V28.6227C10.1312 29.0646 9.77308 29.4227 9.33125 29.4227C8.88942 29.4227 8.53125 29.0646 8.53125 28.6227V20.8005C8.53125 20.5575 8.64172 20.3276 8.83149 20.1758L9.33125 20.8005C8.83149 20.1758 8.83132 20.176 8.83149 20.1758L8.83318 20.1745L8.83585 20.1724L8.84411 20.1658L8.87211 20.144C8.8958 20.1256 8.92945 20.0999 8.97241 20.0678C9.05828 20.0037 9.18162 19.9141 9.33716 19.8074C9.64756 19.5946 10.0898 19.3115 10.6214 19.028C11.6664 18.4706 13.138 17.8672 14.6646 17.8672C16.127 17.8672 17.5579 18.2543 18.5993 18.6245C19.1251 18.8115 19.5636 18.9985 19.8722 19.1396C20.0267 19.2102 20.1493 19.2696 20.2346 19.3121C20.2773 19.3334 20.3107 19.3504 20.3342 19.3625L20.362 19.377L20.3701 19.3813L20.3727 19.3827L20.3741 19.3834C20.3742 19.3834 20.3744 19.3835 19.9979 20.0894L20.3741 19.3834C21.8454 20.1681 22.4646 21.0992 22.4646 22.045C22.4646 22.4792 22.3293 22.8317 22.2031 23.0672C22.1393 23.1863 22.0747 23.2815 22.0233 23.35C21.9975 23.3844 21.9746 23.4127 21.9561 23.4345C21.9468 23.4454 21.9387 23.4548 21.9317 23.4625L21.9223 23.473L21.9183 23.4773L21.9165 23.4792C21.9161 23.4797 21.9149 23.481 21.3451 22.9469L21.9149 23.481C21.6127 23.8033 21.1064 23.8197 20.7841 23.5175C20.4658 23.2191 20.4459 22.7217 20.7364 22.3989C20.7378 22.3972 20.7401 22.3942 20.7433 22.39C20.7545 22.3751 20.7732 22.348 20.7927 22.3116C20.8332 22.2361 20.8646 22.1441 20.8646 22.045C20.8646 21.9241 20.8168 21.4329 19.622 20.7956C19.6218 20.7955 19.6222 20.7957 19.622 20.7956L19.9713 20.1393C19.6215 20.7953 19.6219 20.7955 19.622 20.7956L19.6184 20.7937L19.6004 20.7843C19.5835 20.7756 19.5571 20.7621 19.5216 20.7445C19.4507 20.7092 19.3441 20.6575 19.207 20.5948C18.9323 20.4692 18.5374 20.3007 18.0632 20.1321C17.1046 19.7912 15.8689 19.4672 14.6646 19.4672C13.5245 19.4672 12.3294 19.9304 11.3744 20.4397C10.906 20.6895 10.5149 20.9398 10.242 21.127C10.2025 21.1541 10.1655 21.1798 10.1312 21.2039ZM9.8303 21.4258C9.83006 21.426 9.83022 21.4258 9.8303 21.4258Z" fill="#595959"/>
<path fill-rule="evenodd" clip-rule="evenodd" d="M28.2088 20.0034C28.7358 20.0336 29.1934 20.2658 29.5777 20.6672C30.0104 21.1191 30.1834 21.6797 30.118 22.2637C30.0568 22.8098 29.7946 23.3296 29.4574 23.7953C28.7825 24.7275 27.6362 25.6762 26.2866 26.5329C23.5776 28.2523 19.7699 29.7749 16.4304 30.0873C14.9545 30.2253 13.1172 30.0283 11.6933 29.8111C10.972 29.701 10.339 29.5829 9.88589 29.4923C9.65916 29.4469 9.47699 29.4083 9.35079 29.3809C9.28768 29.3672 9.23853 29.3563 9.20477 29.3487L9.16582 29.3399L9.15533 29.3375L9.15239 29.3368C9.15228 29.3368 9.151 29.3365 9.32312 28.593L9.151 29.3365C8.72056 29.2368 8.45239 28.8071 8.55204 28.3766C8.65168 27.9462 9.08134 27.6781 9.51175 27.7777C9.51178 27.7777 9.51171 27.7776 9.51175 27.7777L9.51375 27.7781L9.52175 27.7799L9.55553 27.7876C9.58578 27.7944 9.63123 27.8045 9.69047 27.8174C9.80899 27.8431 9.98253 27.8799 10.1998 27.9234C10.6348 28.0104 11.243 28.1239 11.9346 28.2294C13.3364 28.4432 15.0113 28.613 16.2814 28.4942C19.3145 28.2105 22.8824 26.7985 25.4291 25.182C26.7073 24.3707 27.6589 23.5511 28.1614 22.857C28.413 22.5095 28.5093 22.2516 28.5279 22.0856C28.5422 21.9577 28.5161 21.872 28.422 21.7737C28.2794 21.6248 28.1883 21.6048 28.117 21.6007C28.0063 21.5944 27.8216 21.6269 27.502 21.7685C27.1849 21.909 26.8236 22.1148 26.3588 22.3796C25.9068 22.6372 25.3797 22.9366 24.7813 23.2251C22.329 24.4073 18.7728 25.3546 13.283 23.4433C12.8658 23.298 12.6453 22.842 12.7906 22.4247C12.9358 22.0074 13.3919 21.7869 13.8091 21.9322C18.856 23.6894 21.973 22.8027 24.0866 21.7838C24.6297 21.522 25.1128 21.248 25.5663 20.9897L25.6155 20.9616C26.0395 20.72 26.4617 20.4794 26.8538 20.3057C27.2585 20.1263 27.7214 19.9754 28.2088 20.0034Z" fill="#595959"/>
<path fill-rule="evenodd" clip-rule="evenodd" d="M20.6712 2.0414C20.8736 1.92703 21.1019 1.86719 21.3339 1.86719C21.5658 1.86719 21.7941 1.92702 21.9964 2.04138L28.1074 5.43872C28.3152 5.55541 28.4895 5.72487 28.6116 5.93096C28.7338 6.13711 28.7992 6.37221 28.8005 6.61246L28.8005 6.6168L28.8005 13.3842H28.0005L28.8005 13.3886C28.7992 13.6288 28.7338 13.8639 28.6116 14.0701C28.4895 14.2762 28.3152 14.4456 28.1074 14.5623L28.1045 14.5639L21.9965 17.9596C21.7941 18.074 21.5658 18.1339 21.3339 18.1339C21.1019 18.1339 20.8735 18.074 20.6712 17.9596L14.5632 14.5639L14.5604 14.5623C14.3525 14.4456 14.1782 14.2762 14.0561 14.0701C13.9339 13.8639 13.8685 13.6288 13.8672 13.3886L13.8672 13.3842V6.61246C13.8685 6.37221 13.9339 6.13711 14.0561 5.93096C14.1782 5.72487 14.3525 5.55541 14.5604 5.43873L14.5632 5.43714L20.6712 2.0414ZM27.2005 13.2358V6.76521L21.3339 3.50366L15.4672 6.76521V13.2358L21.3339 16.4974L27.2005 13.2358Z" fill="#595959"/>
<path fill-rule="evenodd" clip-rule="evenodd" d="M17.3009 4.05788C17.5123 3.66994 17.9982 3.52689 18.3862 3.73836L25.1223 7.41035C25.3794 7.5505 25.5394 7.81993 25.5394 8.11276V11.6818C25.5394 12.1236 25.1812 12.4818 24.7394 12.4818C24.2976 12.4818 23.9394 12.1236 23.9394 11.6818V8.58781L17.6204 5.14319C17.2324 4.93172 17.0894 4.44581 17.3009 4.05788Z" fill="#FFD500"/>
<path fill-rule="evenodd" clip-rule="evenodd" d="M14.0448 5.95318C14.258 5.5662 14.7445 5.42531 15.1315 5.63851L21.3946 9.08893L27.5344 5.64164C27.9196 5.42533 28.4073 5.56229 28.6236 5.94755C28.8399 6.33281 28.7029 6.82047 28.3177 7.03678L21.7899 10.7019C21.5487 10.8374 21.2545 10.8385 21.0122 10.705L14.3594 7.03991C13.9724 6.82672 13.8316 6.34017 14.0448 5.95318Z" fill="#595959"/>
<path fill-rule="evenodd" clip-rule="evenodd" d="M21.4006 9.20315C21.8424 9.20692 22.1975 9.56813 22.1937 10.0099L22.1312 17.3402C22.1275 17.782 21.7662 18.1371 21.3244 18.1333C20.8826 18.1296 20.5275 17.7684 20.5313 17.3266L20.5938 9.9963C20.5975 9.55449 20.9588 9.19939 21.4006 9.20315Z" fill="#595959"/>
</svg>
