<svg width="33" height="32" viewBox="0 0 33 32" fill="none" xmlns="http://www.w3.org/2000/svg">
<path fill-rule="evenodd" clip-rule="evenodd" d="M1.83594 19.4719C1.83594 19.03 2.19411 18.6719 2.63594 18.6719H15.3026C15.7444 18.6719 16.1026 19.03 16.1026 19.4719V28.8052C16.1026 29.247 15.7444 29.6052 15.3026 29.6052H2.63594C2.19411 29.6052 1.83594 29.247 1.83594 28.8052V19.4719ZM3.43594 20.2719V28.0052H14.5026V20.2719H9.76927V21.4719C9.76927 21.9137 9.4111 22.2719 8.96927 22.2719C8.52744 22.2719 8.16927 21.9137 8.16927 21.4719V20.2719H3.43594Z" fill="#61B761"/>
<path fill-rule="evenodd" clip-rule="evenodd" d="M26.0729 18.9062C26.3853 18.5938 26.8918 18.5938 27.2042 18.9062L29.8709 21.5729C30.1833 21.8853 30.1833 22.3918 29.8709 22.7042L27.2042 25.3709C26.8918 25.6833 26.3853 25.6833 26.0729 25.3709C25.7604 25.0585 25.7604 24.5519 26.0729 24.2395L27.3738 22.9385H19.9719C19.53 22.9385 19.1719 22.5804 19.1719 22.1385C19.1719 21.6967 19.53 21.3385 19.9719 21.3385H27.3738L26.0729 20.0376C25.7604 19.7251 25.7604 19.2186 26.0729 18.9062Z" fill="#61B761"/>
<path fill-rule="evenodd" clip-rule="evenodd" d="M15.3134 1.33601C15.5364 1.33902 15.7481 1.43498 15.8973 1.60077L27.8973 14.9341C28.1086 15.1689 28.162 15.5061 28.0334 15.7947C27.9049 16.0833 27.6186 16.2693 27.3026 16.2693H25.436V17.4693C25.436 17.9111 25.0778 18.2693 24.636 18.2693C24.1941 18.2693 23.836 17.9111 23.836 17.4693V15.4693C23.836 15.0274 24.1941 14.6693 24.636 14.6693H25.5063L15.2867 3.31417L4.49941 14.6693H5.30262C5.74445 14.6693 6.10262 15.0274 6.10262 15.4693V16.8026C6.10262 17.2444 5.74445 17.6026 5.30262 17.6026C4.8608 17.6026 4.50262 17.2444 4.50262 16.8026V16.2693H2.63596C2.31612 16.2693 2.02701 16.0788 1.90084 15.7849C1.77466 15.491 1.83567 15.1502 2.05596 14.9183L14.7226 1.58494C14.8762 1.42324 15.0904 1.33301 15.3134 1.33601ZM24.636 25.3359C25.0778 25.3359 25.436 25.6941 25.436 26.1359V27.4693C25.436 27.9111 25.0778 28.2693 24.636 28.2693H17.9693C17.5275 28.2693 17.1693 27.9111 17.1693 27.4693C17.1693 27.0274 17.5275 26.6693 17.9693 26.6693H23.836V26.1359C23.836 25.6941 24.1941 25.3359 24.636 25.3359Z" fill="#61B761"/>
</svg>
