<svg width="11" height="6" viewBox="0 0 11 6" fill="none" xmlns="http://www.w3.org/2000/svg">
<path fill-rule="evenodd" clip-rule="evenodd" d="M3.72124 1.10474C3.19457 1.05355 2.45666 1.27701 1.33668 2.34831C1.18185 2.49642 0.931916 2.49535 0.778445 2.34593C0.624975 2.1965 0.626081 1.95531 0.780917 1.80721C1.96357 0.67596 2.92386 0.261509 3.80035 0.346701C4.60593 0.425 5.23455 0.927583 5.75517 1.34382C5.78005 1.36371 5.80468 1.3834 5.82907 1.40284C6.40685 1.86331 6.87796 2.21015 7.458 2.23881C8.0209 2.26663 8.80939 1.99182 9.99034 0.853278C10.1446 0.704586 10.3945 0.704705 10.5486 0.853544C10.7027 1.00238 10.7025 1.24358 10.5483 1.39227C9.31149 2.58467 8.31545 3.04406 7.41762 2.99969C6.53839 2.95624 5.87333 2.4262 5.32908 1.99245L5.32636 1.99028C4.73867 1.52191 4.28033 1.15908 3.72124 1.10474Z" fill="#707070"/>
<path fill-rule="evenodd" clip-rule="evenodd" d="M3.72124 3.7688C3.19457 3.71761 2.45666 3.94107 1.33668 5.01237C1.18185 5.16048 0.931916 5.15941 0.778445 5.00999C0.624975 4.86057 0.626081 4.61937 0.780917 4.47127C1.96357 3.34002 2.92386 2.92557 3.80035 3.01076C4.60593 3.08906 5.23455 3.59165 5.75517 4.00788C5.78005 4.02777 5.80468 4.04746 5.82907 4.0669C6.40685 4.52737 6.87796 4.87421 7.458 4.90288C8.0209 4.93069 8.80939 4.65588 9.99034 3.51734C10.1446 3.36865 10.3945 3.36877 10.5486 3.51761C10.7027 3.66644 10.7025 3.90764 10.5483 4.05633C9.31149 5.24873 8.31545 5.70812 7.41762 5.66376C6.53839 5.62031 5.87333 5.09027 5.32908 4.65651L5.32636 4.65435C4.73867 4.18598 4.28033 3.82314 3.72124 3.7688Z" fill="#707070"/>
</svg>
