<svg width="32" height="32" viewBox="0 0 32 32" fill="none" xmlns="http://www.w3.org/2000/svg">
<g clip-path="url(#clip0_6206_20737)">
<path fill-rule="evenodd" clip-rule="evenodd" d="M23.9546 0.331089C24.2289 -0.034568 24.7476 -0.108674 25.1133 0.165569L28.3939 2.62601C28.6023 2.7823 28.7249 3.02759 28.7249 3.28809C28.7249 3.54858 28.6023 3.79387 28.3939 3.95017L25.1133 6.4106C24.7476 6.68485 24.2289 6.61074 23.9546 6.24508C23.6804 5.87943 23.7545 5.36068 24.1202 5.08644L26.518 3.28809L24.1202 1.48973C23.7545 1.21549 23.6804 0.696746 23.9546 0.331089Z" fill="#61B761"/>
<path fill-rule="evenodd" clip-rule="evenodd" d="M4.77193 23.2998C4.49769 22.9342 3.97895 22.8601 3.61329 23.1343L0.332708 25.5948C0.124313 25.7511 0.0016675 25.9963 0.0016675 26.2568C0.0016675 26.5173 0.124313 26.7626 0.332708 26.9189L3.61329 29.3794C3.97895 29.6536 4.49769 29.5795 4.77193 29.2138C5.04617 28.8482 4.97207 28.3294 4.60641 28.0552L2.2086 26.2568L4.60641 24.4585C4.97207 24.1842 5.04617 23.6655 4.77193 23.2998Z" fill="#61B761"/>
<path fill-rule="evenodd" clip-rule="evenodd" d="M13.7969 3.28854C13.7969 2.83147 14.1674 2.46094 14.6245 2.46094H27.0361C27.4932 2.46094 27.8637 2.83147 27.8637 3.28854C27.8637 3.74561 27.4932 4.11614 27.0361 4.11614H14.6245C14.1674 4.11614 13.7969 3.74561 13.7969 3.28854Z" fill="#61B761"/>
<path fill-rule="evenodd" clip-rule="evenodd" d="M14.0703 26.2573C14.0703 25.8002 13.6998 25.4297 13.2427 25.4297H0.82959C0.372518 25.4297 0.00198746 25.8002 0.00198746 26.2573C0.00198746 26.7144 0.372518 27.0849 0.82959 27.0849H13.2427C13.6998 27.0849 14.0703 26.7144 14.0703 26.2573Z" fill="#61B761"/>
<path fill-rule="evenodd" clip-rule="evenodd" d="M26.3026 7.34807C26.5114 6.9415 27.0103 6.78121 27.4169 6.99005L31.5565 9.11643C31.963 9.32527 32.1233 9.82416 31.9145 10.2307C31.7056 10.6373 31.2068 10.7976 30.8002 10.5888L26.6606 8.46237C26.254 8.25353 26.0937 7.75464 26.3026 7.34807Z" fill="#61B761"/>
<path fill-rule="evenodd" clip-rule="evenodd" d="M12.6154 5.31886C12.8016 5.7363 12.6141 6.22562 12.1966 6.41178L4.45485 9.86426L16.4205 15.4952L30.8372 9.08776C31.2549 8.90213 31.744 9.09023 31.9296 9.50791C32.1152 9.92559 31.9271 10.4147 31.5094 10.6003L16.7468 17.1615C16.5271 17.2591 16.2758 17.2564 16.0583 17.154L2.11584 10.5929C1.82301 10.4551 1.63737 10.1592 1.64067 9.83561C1.64396 9.512 1.83558 9.22 2.13115 9.08818L11.5225 4.90008C11.9399 4.71392 12.4292 4.90142 12.6154 5.31886Z" fill="#61B761"/>
<path fill-rule="evenodd" clip-rule="evenodd" d="M2.46823 9.01562C2.9253 9.01562 3.29583 9.38615 3.29583 9.84323V20.1344C3.29583 20.5914 2.9253 20.962 2.46823 20.962C2.01115 20.962 1.64062 20.5914 1.64062 20.1344V9.84323C1.64062 9.38615 2.01115 9.01562 2.46823 9.01562Z" fill="#61B761"/>
<path fill-rule="evenodd" clip-rule="evenodd" d="M16.4104 15.5859C16.8674 15.5859 17.238 15.9565 17.238 16.4135V31.1762C17.238 31.4799 17.0715 31.7593 16.8044 31.9039C16.5373 32.0486 16.2123 32.0352 15.958 31.8692L12.7894 29.8008C12.4066 29.5509 12.2989 29.0381 12.5487 28.6553C12.7986 28.2726 13.3114 28.1649 13.6941 28.4147L15.5828 29.6476V16.4135C15.5828 15.9565 15.9533 15.5859 16.4104 15.5859Z" fill="#61B761"/>
<path fill-rule="evenodd" clip-rule="evenodd" d="M31.1763 9.01562C31.6334 9.01562 32.0039 9.38615 32.0039 9.84323V23.7857C32.0039 24.0992 31.8268 24.3857 31.5465 24.5259L16.7838 31.9072C16.375 32.1116 15.8779 31.9459 15.6735 31.5371C15.4691 31.1283 15.6348 30.6312 16.0436 30.4268L30.3487 23.2742V9.84323C30.3487 9.38615 30.7193 9.01562 31.1763 9.01562Z" fill="#61B761"/>
</g>
<defs>
<clipPath id="clip0_6206_20737">
<rect width="32" height="32" fill="white"/>
</clipPath>
</defs>
</svg>
