<svg width="24" height="24" viewBox="0 0 24 24" fill="none" xmlns="http://www.w3.org/2000/svg">
<path fill-rule="evenodd" clip-rule="evenodd" d="M12.0004 11.3999C12.3318 11.3999 12.6004 11.6685 12.6004 11.9999L12.6005 21.9992C12.6005 22.3305 12.3319 22.5992 12.0005 22.5992C11.6692 22.5992 11.4005 22.3306 11.4005 21.9992L11.4004 11.9999C11.4004 11.6685 11.669 11.3999 12.0004 11.3999Z" fill="#138300"/>
<path fill-rule="evenodd" clip-rule="evenodd" d="M12.0004 1.3999C12.3318 1.3999 12.6004 1.66853 12.6004 1.9999V5.9999C12.6004 6.33127 12.3318 6.5999 12.0004 6.5999C11.669 6.5999 11.4004 6.33127 11.4004 5.9999V1.9999C11.4004 1.66853 11.669 1.3999 12.0004 1.3999Z" fill="#138300"/>
<path fill-rule="evenodd" clip-rule="evenodd" d="M12.0004 6.5999C11.2272 6.5999 10.6004 7.2267 10.6004 7.9999C10.6004 8.7731 11.2272 9.3999 12.0004 9.3999C12.7736 9.3999 13.4004 8.7731 13.4004 7.9999C13.4004 7.2267 12.7736 6.5999 12.0004 6.5999ZM9.40039 7.9999C9.40039 6.56396 10.5645 5.3999 12.0004 5.3999C13.4363 5.3999 14.6004 6.56396 14.6004 7.9999C14.6004 9.43584 13.4363 10.5999 12.0004 10.5999C10.5645 10.5999 9.40039 9.43584 9.40039 7.9999Z" fill="#138300"/>
<path fill-rule="evenodd" clip-rule="evenodd" d="M18.0004 16.3999C18.3318 16.3999 18.6004 16.6685 18.6004 16.9999V21.9999C18.6004 22.3313 18.3318 22.5999 18.0004 22.5999C17.669 22.5999 17.4004 22.3313 17.4004 21.9999V16.9999C17.4004 16.6685 17.669 16.3999 18.0004 16.3999Z" fill="#138300"/>
<path fill-rule="evenodd" clip-rule="evenodd" d="M18.0004 1.3999C18.3318 1.3999 18.6004 1.66853 18.6004 1.9999V11.9999C18.6004 12.3313 18.3318 12.5999 18.0004 12.5999C17.669 12.5999 17.4004 12.3313 17.4004 11.9999V1.9999C17.4004 1.66853 17.669 1.3999 18.0004 1.3999Z" fill="#138300"/>
<path d="M18 18C19.1046 18 20 17.1046 20 16C20 14.8954 19.1046 14 18 14C16.8954 14 16 14.8954 16 16C16 17.1046 16.8954 18 18 18Z" fill="#138300"/>
<path fill-rule="evenodd" clip-rule="evenodd" d="M6.00039 14.3999C6.33176 14.3999 6.60039 14.6685 6.60039 14.9999V21.9999C6.60039 22.3313 6.33176 22.5999 6.00039 22.5999C5.66902 22.5999 5.40039 22.3313 5.40039 21.9999V14.9999C5.40039 14.6685 5.66902 14.3999 6.00039 14.3999Z" fill="#138300"/>
<path fill-rule="evenodd" clip-rule="evenodd" d="M6.00039 1.3999C6.33176 1.3999 6.60039 1.66853 6.60039 1.9999V9.9999C6.60039 10.3313 6.33176 10.5999 6.00039 10.5999C5.66902 10.5999 5.40039 10.3313 5.40039 9.9999V1.9999C5.40039 1.66853 5.66902 1.3999 6.00039 1.3999Z" fill="#138300"/>
<path d="M6 14C7.10457 14 8 13.1046 8 12C8 10.8954 7.10457 10 6 10C4.89543 10 4 10.8954 4 12C4 13.1046 4.89543 14 6 14Z" fill="#138300"/>
</svg>
