<svg width="26" height="26" viewBox="0 0 26 26" fill="none" xmlns="http://www.w3.org/2000/svg">
<path fill-rule="evenodd" clip-rule="evenodd" d="M1.51758 12.0166C1.51758 11.6024 1.80859 11.2666 2.16758 11.2666H11.0312C11.3902 11.2666 11.6812 11.6024 11.6812 12.0166C11.6812 12.4308 11.3902 12.7666 11.0312 12.7666H2.16758C1.80859 12.7666 1.51758 12.4308 1.51758 12.0166Z" fill="#D72F2F"/>
<path fill-rule="evenodd" clip-rule="evenodd" d="M1.51758 5.5166C1.51758 5.10239 1.80859 4.7666 2.16758 4.7666H18.9101C19.269 4.7666 19.5601 5.10239 19.5601 5.5166C19.5601 5.93082 19.269 6.2666 18.9101 6.2666H2.16758C1.80859 6.2666 1.51758 5.93082 1.51758 5.5166Z" fill="#D72F2F"/>
<path fill-rule="evenodd" clip-rule="evenodd" d="M1.51758 18.5166C1.51758 18.1024 1.80859 17.7666 2.16758 17.7666H9.06154C9.42053 17.7666 9.71154 18.1024 9.71154 18.5166C9.71154 18.9308 9.42053 19.2666 9.06154 19.2666H2.16758C1.80859 19.2666 1.51758 18.9308 1.51758 18.5166Z" fill="#D72F2F"/>
<path fill-rule="evenodd" clip-rule="evenodd" d="M24.5602 10.9706C24.9427 11.2078 25.0313 11.6691 24.7581 12.001L17.9486 20.2737C17.7888 20.4678 17.5309 20.583 17.256 20.583C16.9811 20.583 16.7231 20.4678 16.5633 20.2737L13.1586 16.1374C12.8854 15.8054 12.974 15.3441 13.3565 15.107C13.739 14.8699 14.2706 14.9468 14.5439 15.2787L17.256 18.5736L23.3728 11.1424C23.646 10.8104 24.1776 10.7335 24.5602 10.9706Z" fill="#D72F2F"/>
</svg>
