<svg width="26" height="26" viewBox="0 0 26 26" fill="none" xmlns="http://www.w3.org/2000/svg">
<path fill-rule="evenodd" clip-rule="evenodd" d="M13.5978 15.8178C13.8363 15.5495 14.2471 15.5253 14.5154 15.7638L18.9586 19.7133L23.4018 15.7638C23.6701 15.5253 24.0809 15.5495 24.3194 15.8178C24.5579 16.0861 24.5337 16.4969 24.2654 16.7354L19.3904 21.0688C19.1442 21.2877 18.773 21.2877 18.5268 21.0688L13.6518 16.7354C13.3835 16.4969 13.3593 16.0861 13.5978 15.8178Z" fill="#138300"/>
<path fill-rule="evenodd" clip-rule="evenodd" d="M18.9586 8.0166C19.3176 8.0166 19.6086 8.30762 19.6086 8.6666V20.0416C19.6086 20.4006 19.3176 20.6916 18.9586 20.6916C18.5996 20.6916 18.3086 20.4006 18.3086 20.0416V8.6666C18.3086 8.30762 18.5996 8.0166 18.9586 8.0166Z" fill="#138300"/>
<path fill-rule="evenodd" clip-rule="evenodd" d="M1.51758 12.1333C1.51758 11.6546 1.80859 11.2666 2.16758 11.2666H11.0312C11.3902 11.2666 11.6812 11.6546 11.6812 12.1333C11.6812 12.6119 11.3902 12.9999 11.0312 12.9999H2.16758C1.80859 12.9999 1.51758 12.6119 1.51758 12.1333Z" fill="#138300"/>
<path fill-rule="evenodd" clip-rule="evenodd" d="M1.51758 5.63327C1.51758 5.15462 1.80859 4.7666 2.16758 4.7666H18.9101C19.269 4.7666 19.5601 5.15462 19.5601 5.63327C19.5601 6.11191 19.269 6.49993 18.9101 6.49993H2.16758C1.80859 6.49993 1.51758 6.11191 1.51758 5.63327Z" fill="#138300"/>
<path fill-rule="evenodd" clip-rule="evenodd" d="M1.51758 18.6333C1.51758 18.1546 1.80859 17.7666 2.16758 17.7666H9.06154C9.42053 17.7666 9.71154 18.1546 9.71154 18.6333C9.71154 19.1119 9.42053 19.4999 9.06154 19.4999H2.16758C1.80859 19.4999 1.51758 19.1119 1.51758 18.6333Z" fill="#138300"/>
</svg>
