<svg width="16" height="16" viewBox="0 0 16 16" fill="none" xmlns="http://www.w3.org/2000/svg">
<path fill-rule="evenodd" clip-rule="evenodd" d="M13.9106 3.0126C13.997 3.07463 14.0551 3.1685 14.0721 3.27347L14.3964 5.27347C14.4318 5.49154 14.2837 5.69698 14.0656 5.73234C13.8475 5.76771 13.6421 5.6196 13.6067 5.40153L13.4329 4.32942L9.61879 9.41095C9.49956 9.5698 9.28184 9.6171 9.10745 9.52206L6.195 7.93467L2.31723 12.9165C2.18154 13.0909 1.93021 13.1222 1.75589 12.9865C1.58156 12.8508 1.55024 12.5995 1.68593 12.4251L5.77242 7.17514C5.89278 7.02051 6.10744 6.97584 6.27949 7.06961L9.1866 8.65408L12.7583 3.89544L11.7337 4.06544C11.5158 4.1016 11.3098 3.95424 11.2736 3.73631C11.2375 3.51837 11.3848 3.31239 11.6028 3.27623L13.6118 2.9429C13.7167 2.92549 13.8242 2.95057 13.9106 3.0126Z" fill="#138300"/>
</svg>
