<svg width="16" height="16" viewBox="0 0 16 16" fill="none" xmlns="http://www.w3.org/2000/svg">
<path fill-rule="evenodd" clip-rule="evenodd" d="M2.08942 12.9874C2.00304 12.9254 1.94492 12.8315 1.9279 12.7265L1.60358 10.7265C1.56822 10.5085 1.71632 10.303 1.93439 10.2677C2.15246 10.2323 2.3579 10.3804 2.39326 10.5985L2.56712 11.6706L6.38121 6.58905C6.50044 6.4302 6.71816 6.3829 6.89255 6.47794L9.805 8.06533L13.6828 3.08347C13.8185 2.90914 14.0698 2.87782 14.2441 3.01352C14.4184 3.14921 14.4498 3.40053 14.3141 3.57486L10.2276 8.82486C10.1072 8.97949 9.89256 9.02416 9.72051 8.93039L6.8134 7.34591L3.24166 12.1046L4.26628 11.9346C4.48421 11.8984 4.6902 12.0458 4.72636 12.2637C4.76252 12.4816 4.61516 12.6876 4.39723 12.7238L2.38822 13.0571C2.28331 13.0745 2.17579 13.0494 2.08942 12.9874Z" fill="#FF4D4D"/>
</svg>
