<svg width="33" height="32" viewBox="0 0 33 32" fill="none" xmlns="http://www.w3.org/2000/svg">
<path fill-rule="evenodd" clip-rule="evenodd" d="M2.36719 20.0031C2.36719 19.5613 2.72536 19.2031 3.16719 19.2031H15.8339C16.2757 19.2031 16.6339 19.5613 16.6339 20.0031V29.3365C16.6339 29.7783 16.2757 30.1365 15.8339 30.1365H3.16719C2.72536 30.1365 2.36719 29.7783 2.36719 29.3365V20.0031ZM3.96719 20.8031V28.5365H15.0339V20.8031H10.3005V22.0031C10.3005 22.445 9.94235 22.8031 9.50052 22.8031C9.05869 22.8031 8.70052 22.445 8.70052 22.0031V20.8031H3.96719Z" fill="#61B761"/>
<path fill-rule="evenodd" clip-rule="evenodd" d="M15.8447 1.86726C16.0677 1.87027 16.2793 1.96623 16.4285 2.13202L28.4285 15.4654C28.6399 15.7002 28.6932 16.0374 28.5647 16.326C28.4361 16.6146 28.1498 16.8005 27.8339 16.8005H25.9672V18.0005C25.9672 18.4424 25.609 18.8005 25.1672 18.8005C24.7254 18.8005 24.3672 18.4424 24.3672 18.0005V16.0005C24.3672 15.5587 24.7254 15.2005 25.1672 15.2005H26.0376L15.818 3.84542L5.03066 15.2005H5.83387C6.2757 15.2005 6.63387 15.5587 6.63387 16.0005V17.3339C6.63387 17.7757 6.2757 18.1339 5.83387 18.1339C5.39205 18.1339 5.03387 17.7757 5.03387 17.3339V16.8005H3.16721C2.84737 16.8005 2.55826 16.61 2.43209 16.3161C2.30591 16.0222 2.36692 15.6814 2.58721 15.4495L15.2539 2.11619C15.4075 1.95449 15.6216 1.86426 15.8447 1.86726ZM25.1672 25.8672C25.609 25.8672 25.9672 26.2254 25.9672 26.6672V28.0005C25.9672 28.4424 25.609 28.8005 25.1672 28.8005H18.5005C18.0587 28.8005 17.7005 28.4424 17.7005 28.0005C17.7005 27.5587 18.0587 27.2005 18.5005 27.2005H24.3672V26.6672C24.3672 26.2254 24.7254 25.8672 25.1672 25.8672Z" fill="#61B761"/>
<path fill-rule="evenodd" clip-rule="evenodd" d="M23.7318 19.4374C23.4194 19.125 22.9129 19.125 22.6005 19.4374L19.9338 22.1041C19.6214 22.4165 19.6214 22.9231 19.9338 23.2355L22.6005 25.9021C22.9129 26.2146 23.4194 26.2146 23.7318 25.9021C24.0443 25.5897 24.0443 25.0832 23.7318 24.7708L22.4309 23.4698H29.8328C30.2746 23.4698 30.6328 23.1116 30.6328 22.6698C30.6328 22.228 30.2746 21.8698 29.8328 21.8698H22.4309L23.7318 20.5688C24.0443 20.2564 24.0443 19.7499 23.7318 19.4374Z" fill="#61B761"/>
</svg>
