<svg width="24" height="24" viewBox="0 0 24 24" fill="none" xmlns="http://www.w3.org/2000/svg">
<path fill-rule="evenodd" clip-rule="evenodd" d="M11.5761 1.57564C11.8105 1.34132 12.1904 1.34132 12.4247 1.57564L22.4247 11.5756C22.5963 11.7472 22.6476 12.0053 22.5547 12.2295C22.4619 12.4537 22.2431 12.5999 22.0004 12.5999H20.6004V21.9999C20.6004 22.3313 20.3318 22.5999 20.0004 22.5999H4.00041C3.66904 22.5999 3.40041 22.3313 3.40041 21.9999L3.40041 12.5999H2.00041C1.75773 12.5999 1.53895 12.4537 1.44608 12.2295C1.35321 12.0053 1.40455 11.7472 1.57614 11.5756L11.5761 1.57564ZM3.44894 11.3999H4.00041C4.33178 11.3999 4.60041 11.6685 4.60041 11.9999V21.3999H19.4004V11.9999C19.4004 11.6685 19.669 11.3999 20.0004 11.3999H20.5519L12.0004 2.84843L3.44894 11.3999Z" fill="#FF2C00"/>
<path fill-rule="evenodd" clip-rule="evenodd" d="M6.5 14.1875L7.52549 13.4184L8.5 14.0681V20C8.5 20.2761 8.27614 20.5 8 20.5H7C6.72386 20.5 6.5 20.2761 6.5 20L6.5 14.1875ZM15.9011 12.0098C15.933 12.0034 15.9661 12 16 12H16.3125L16.2243 12.1175L15.9011 12.0098ZM17.5 12.9167V20C17.5 20.2761 17.2761 20.5 17 20.5H16C15.7239 20.5 15.5 20.2761 15.5 20V13.4572L16.2628 13.7115C16.5691 13.8136 16.9063 13.7083 17.1 13.45L17.5 12.9167ZM14.5 13.1239V20C14.5 20.2761 14.2761 20.5 14 20.5H13C12.7239 20.5 12.5 20.2761 12.5 20V13.8096L13.6592 12.8436L14.5 13.1239ZM11.5 14.6429V20C11.5 20.2761 11.2761 20.5 11 20.5H10C9.72386 20.5 9.5 20.2761 9.5 20V14.7347L10.084 15.124C10.3603 15.3083 10.725 15.2888 10.9801 15.0762L11.5 14.6429Z" fill="#FF2C00"/>
<path fill-rule="evenodd" clip-rule="evenodd" d="M16 11C16 10.7239 16.2239 10.5 16.5 10.5H18C18.2152 10.5 18.4063 10.6377 18.4744 10.8419L18.9744 12.3419C19.0617 12.6039 18.9201 12.887 18.6581 12.9743C18.3962 13.0617 18.113 12.9201 18.0257 12.6581L17.8275 12.0634L16.9 13.3C16.7709 13.4722 16.5461 13.5424 16.3419 13.4743L13.6062 12.5624L10.8201 14.8841C10.65 15.0259 10.4069 15.0389 10.2227 14.916L7.51702 13.1123L5.80003 14.4C5.57912 14.5657 5.26571 14.5209 5.10003 14.3C4.93434 14.0791 4.97912 13.7657 5.20003 13.6L7.20003 12.1C7.36962 11.9728 7.60099 11.9664 7.77738 12.084L10.4667 13.8769L13.1799 11.6159C13.313 11.505 13.4939 11.4709 13.6581 11.5257L16.3163 12.4117L17 11.5H16.5C16.2239 11.5 16 11.2761 16 11Z" fill="#FF2C00"/>
</svg>
