<svg width="20" height="20" viewBox="0 0 20 20" fill="none" xmlns="http://www.w3.org/2000/svg">
<path fill-rule="evenodd" clip-rule="evenodd" d="M9.9974 2.16406C5.67117 2.16406 2.16406 5.67117 2.16406 9.9974C2.16406 14.3236 5.67117 17.8307 9.9974 17.8307C14.3236 17.8307 17.8307 14.3236 17.8307 9.9974C17.8307 5.67117 14.3236 2.16406 9.9974 2.16406ZM1.16406 9.9974C1.16406 5.11888 5.11888 1.16406 9.9974 1.16406C14.8759 1.16406 18.8307 5.11888 18.8307 9.9974C18.8307 14.8759 14.8759 18.8307 9.9974 18.8307C5.11888 18.8307 1.16406 14.8759 1.16406 9.9974Z" fill="#3078F1"/>
<path d="M9.94007 5.82812C10.1812 5.82812 10.3717 5.89813 10.5117 6.03813C10.6595 6.17812 10.7334 6.37646 10.7334 6.63313C10.7334 6.88979 10.6595 7.08813 10.5117 7.22813C10.3717 7.36813 10.1812 7.43813 9.94007 7.43813C9.69896 7.43813 9.50452 7.36813 9.35674 7.22813C9.21674 7.08813 9.14674 6.88979 9.14674 6.63313C9.14674 6.37646 9.21674 6.17812 9.35674 6.03813C9.50452 5.89813 9.69896 5.82812 9.94007 5.82812ZM10.5233 13.1698L11.3167 13.5198V14.1615H8.75V13.5198L9.54333 13.1698V9.31979L8.75 8.99312V8.32812H10.5233V13.1698Z" fill="#3078F1"/>
</svg>
