<svg width="24" height="24" viewBox="0 0 24 24" fill="none" xmlns="http://www.w3.org/2000/svg">
<path fill-rule="evenodd" clip-rule="evenodd" d="M12.2832 2.93141C12.127 2.77521 11.8738 2.77521 11.7175 2.93142L4.10039 10.5486V20.8C4.10039 21.021 4.27948 21.2 4.50039 21.2H19.5004C19.7213 21.2 19.9004 21.021 19.9004 20.8V10.5486L12.2832 2.93141ZM21.1004 11.7486L21.5761 12.2243C21.8104 12.4586 22.1903 12.4586 22.4247 12.2243C22.659 11.99 22.659 11.6101 22.4247 11.3758L13.1318 2.08289C12.5069 1.45805 11.4939 1.45805 10.869 2.08289L1.57613 11.3758C1.34181 11.6101 1.34181 11.99 1.57613 12.2243C1.81044 12.4586 2.19034 12.4586 2.42465 12.2243L2.90039 11.7486V20.8C2.90039 21.6837 3.61674 22.4 4.50039 22.4H19.5004C20.384 22.4 21.1004 21.6837 21.1004 20.8V11.7486Z" fill="#138300"/>
<path fill-rule="evenodd" clip-rule="evenodd" d="M8.45455 9.3998C8.45455 9.06843 8.7191 8.7998 9.04545 8.7998H14.9545C15.2809 8.7998 15.5455 9.06843 15.5455 9.3998V14.7998H17.9091C18.2354 14.7998 18.5 15.0684 18.5 15.3998V21.3998C18.5 21.7312 18.2354 21.9998 17.9091 21.9998C17.5827 21.9998 17.3182 21.7312 17.3182 21.3998V15.9998H16.5303V17.3998C16.5303 17.7312 16.2657 17.9998 15.9394 17.9998H13.9697C13.6433 17.9998 13.3788 17.7312 13.3788 17.3998V15.9998H12.5909V21.3998C12.5909 21.7312 12.3263 21.9998 12 21.9998C11.6736 21.9998 11.4091 21.7312 11.4091 21.3998V15.9998H10.6212V17.3998C10.6212 17.7312 10.3567 17.9998 10.0303 17.9998H8.06061C7.73426 17.9998 7.4697 17.7312 7.4697 17.3998V15.9998H6.68182V21.3998C6.68182 21.7312 6.41726 21.9998 6.09091 21.9998C5.76456 21.9998 5.5 21.7312 5.5 21.3998V15.3998C5.5 15.0684 5.76456 14.7998 6.09091 14.7998H8.45455V9.3998ZM8.65151 15.9998H9.43939V16.7998H8.65151V15.9998ZM9.63636 14.7998V9.9998H10.4242V11.3998C10.4242 11.7312 10.6888 11.9998 11.0152 11.9998H12.9848C13.3112 11.9998 13.5758 11.7312 13.5758 11.3998V9.9998H14.3636V14.7998H9.63636ZM14.5606 15.9998V16.7998H15.3485V15.9998H14.5606ZM12.3939 9.9998H11.6061V10.7998H12.3939V9.9998Z" fill="#138300"/>
</svg>
