<svg width="24" height="24" viewBox="0 0 24 24" fill="none" xmlns="http://www.w3.org/2000/svg">
<path fill-rule="evenodd" clip-rule="evenodd" d="M2.26628 22.5354C2.26401 22.5365 2.26173 22.5377 2.25945 22.5388C2.25918 22.5389 2.25897 22.539 2.25881 22.539C2.25859 22.5391 2.25848 22.5392 2.25846 22.5392C2.25843 22.5392 2.25888 22.539 2.25981 22.5386L2.26261 22.5372L2.26457 22.5363L2.26569 22.5357L2.26628 22.5354ZM21.8337 22.5753C21.8338 22.5754 21.8338 22.5754 21.8339 22.5754L21.8341 22.5754L21.8341 22.5755C21.8342 22.5755 21.8342 22.5755 21.8343 22.5755C21.8344 22.5755 21.8344 22.5755 21.8345 22.5756L21.8346 22.5756C22.1529 22.666 22.4845 22.4816 22.5755 22.1633C22.6665 21.8447 22.4821 21.5126 22.1635 21.4215L21.9986 21.9984C22.1635 21.4215 22.1633 21.4215 22.1632 21.4215L22.1628 21.4214L22.162 21.4211L22.16 21.4206L22.1539 21.4189L22.1341 21.4134C22.1175 21.409 22.094 21.4028 22.0639 21.3952C22.0035 21.38 21.9162 21.3589 21.8024 21.3341C21.5748 21.2844 21.2412 21.2195 20.8055 21.1549C19.9342 21.0258 18.6548 20.8984 16.9986 20.8984C16.131 20.8984 15.053 21.0293 14.1178 21.1537C13.953 21.1756 13.7939 21.1971 13.6416 21.2177C12.8907 21.3192 12.304 21.3984 11.9986 21.3984C10.8519 21.3984 10.1516 21.2903 9.38615 21.1722C9.35003 21.1666 9.31377 21.161 9.2773 21.1554C8.44836 21.0279 7.54043 20.8984 5.99857 20.8984C4.46578 20.8984 3.42572 21.0261 2.7559 21.1601C2.4208 21.2271 2.17786 21.2958 2.01196 21.3511C1.92899 21.3788 1.86528 21.4031 1.81895 21.4221C1.79578 21.4317 1.77696 21.4399 1.76225 21.4466L1.74325 21.4554L1.736 21.4589L1.73294 21.4604L1.73154 21.4611L1.73088 21.4615C1.73056 21.4616 1.73024 21.4618 1.99857 21.9984L1.73024 21.4618C1.43385 21.61 1.31372 21.9704 1.46191 22.2668C1.60887 22.5607 1.9645 22.6813 2.25945 22.5388C2.26153 22.5378 2.26694 22.5354 2.27585 22.5318C2.29592 22.5235 2.33377 22.5087 2.39143 22.4895C2.50677 22.4511 2.70133 22.3948 2.99124 22.3368C3.57142 22.2208 4.53136 22.0984 5.99857 22.0984C7.45671 22.0984 8.29878 22.219 9.09483 22.3415C9.13235 22.3472 9.16981 22.353 9.20727 22.3588C9.98428 22.4788 10.7591 22.5984 11.9986 22.5984C12.3933 22.5984 13.0896 22.5039 13.8341 22.4028C13.9802 22.383 14.1282 22.3629 14.2761 22.3432C15.22 22.2176 16.2222 22.0984 16.9986 22.0984C18.5931 22.0984 19.8137 22.2211 20.6297 22.342C21.0377 22.4024 21.3446 22.4624 21.5465 22.5065C21.6475 22.5286 21.7222 22.5466 21.7703 22.5587C21.7943 22.5648 21.8116 22.5694 21.8222 22.5722L21.833 22.5752L21.8337 22.5753Z" fill="#138300"/>
<path fill-rule="evenodd" clip-rule="evenodd" d="M4.99844 1.39844C5.32981 1.39844 5.59844 1.66707 5.59844 1.99844V2.53415C5.59844 2.86552 5.32981 3.13415 4.99844 3.13415C4.66707 3.13415 4.39844 2.86552 4.39844 2.53415V1.99844C4.39844 1.66707 4.66707 1.39844 4.99844 1.39844ZM2.45273 2.45273C2.68705 2.21842 3.06695 2.21842 3.30126 2.45273L3.67894 2.83041C3.91326 3.06473 3.91326 3.44463 3.67894 3.67894C3.44463 3.91326 3.06473 3.91326 2.83041 3.67894L2.45273 3.30126C2.21842 3.06695 2.21842 2.68705 2.45273 2.45273ZM7.54406 2.45273C7.77838 2.68705 7.77838 3.06695 7.54406 3.30126L7.16638 3.67894C6.93207 3.91326 6.55217 3.91326 6.31785 3.67894C6.08354 3.44463 6.08354 3.06473 6.31785 2.83041L6.69553 2.45274C6.92985 2.21842 7.30975 2.21842 7.54406 2.45273ZM4.99844 4.59844C4.77752 4.59844 4.59844 4.77752 4.59844 4.99844C4.59844 5.21935 4.77752 5.39844 4.99844 5.39844C5.21935 5.39844 5.39844 5.21935 5.39844 4.99844C5.39844 4.77752 5.21935 4.59844 4.99844 4.59844ZM3.39844 4.99844C3.39844 4.11478 4.11478 3.39844 4.99844 3.39844C5.88209 3.39844 6.59844 4.11478 6.59844 4.99844C6.59844 5.88209 5.88209 6.59844 4.99844 6.59844C4.11478 6.59844 3.39844 5.88209 3.39844 4.99844ZM1.39844 4.99844C1.39844 4.66707 1.66707 4.39844 1.99844 4.39844H2.53415C2.86552 4.39844 3.13415 4.66707 3.13415 4.99844C3.13415 5.32981 2.86552 5.59844 2.53415 5.59844H1.99844C1.66707 5.59844 1.39844 5.32981 1.39844 4.99844ZM6.86274 4.99844C6.86274 4.66707 7.13136 4.39844 7.46274 4.39844H7.99845C8.32982 4.39844 8.59845 4.66707 8.59845 4.99844C8.59845 5.32981 8.32982 5.59844 7.99845 5.59844H7.46274C7.13136 5.59844 6.86274 5.32981 6.86274 4.99844ZM6.31785 6.31785C6.55217 6.08354 6.93207 6.08354 7.16638 6.31785L7.54406 6.69553C7.77838 6.92985 7.77838 7.30975 7.54406 7.54406C7.30975 7.77838 6.92985 7.77838 6.69553 7.54406L6.31785 7.16638C6.08354 6.93207 6.08354 6.55217 6.31785 6.31785ZM3.67894 6.31785C3.91326 6.55217 3.91326 6.93207 3.67894 7.16638L3.30126 7.54406C3.06695 7.77838 2.68705 7.77838 2.45273 7.54406C2.21842 7.30975 2.21842 6.92985 2.45274 6.69553L2.83041 6.31785C3.06473 6.08354 3.44463 6.08354 3.67894 6.31785ZM4.99844 6.86282C5.32981 6.86282 5.59844 7.13145 5.59844 7.46282V7.99854C5.59844 8.32991 5.32981 8.59854 4.99844 8.59854C4.66707 8.59854 4.39844 8.32991 4.39844 7.99854V7.46282C4.39844 7.13145 4.66707 6.86282 4.99844 6.86282Z" fill="#FFD500"/>
<path fill-rule="evenodd" clip-rule="evenodd" d="M9.19339 8.6157C9.35188 8.64508 9.52065 8.67813 9.69506 8.71484C10.1335 8.80715 10.6157 8.92435 11.0633 9.0676C11.4294 9.18476 11.8 9.32782 12.1099 9.50354C12.1163 9.49451 12.1228 9.48517 12.1296 9.47553C12.2147 9.3551 12.3382 9.18682 12.4953 8.99041C12.8079 8.59963 13.2612 8.08766 13.8165 7.61904C14.2031 7.29284 14.6643 6.96828 15.1786 6.72676C13.4972 6.38861 12.0941 6.76485 11.0138 7.31891C10.2425 7.71445 9.62726 8.20649 9.19339 8.6157ZM17.7798 7.76232C17.8929 7.82913 18.0024 7.89646 18.1084 7.96425C18.4499 8.22639 18.6485 8.5787 18.7532 8.99782C18.8922 9.55358 18.8615 10.2209 18.7344 10.899C18.6086 11.57 18.397 12.207 18.2139 12.681C18.1874 12.7494 18.1616 12.8143 18.1369 12.875C17.5691 12.6251 16.905 12.4414 16.3604 12.3133C15.965 12.2202 15.6055 12.1507 15.3449 12.1044C15.2557 12.0886 15.1778 12.0754 15.1138 12.0649C15.0685 12.0205 15.0134 11.9666 14.9498 11.9049C14.7618 11.7227 14.4997 11.472 14.2031 11.1981C13.863 10.8842 13.4665 10.5295 13.0794 10.2113C13.0887 10.1978 13.0988 10.1833 13.1098 10.1678C13.1831 10.064 13.2923 9.91514 13.4324 9.73995C13.7143 9.38755 14.1135 8.93858 14.5904 8.53615C15.57 7.70949 16.6851 7.22596 17.7798 7.76232ZM15.1604 13.2904L12.0302 19.2775C11.8766 19.5711 11.5141 19.6847 11.2205 19.5312C10.9268 19.3777 10.8132 19.0151 10.9667 18.7215L14.0918 12.7445C13.9108 12.5693 13.6651 12.3346 13.3892 12.0799C12.8044 11.5401 12.1163 10.9406 11.6206 10.6102C11.4207 10.4769 11.1017 10.3398 10.6976 10.2105C10.3025 10.0841 9.86331 9.97657 9.44785 9.8891C9.03372 9.80192 8.65111 9.7363 8.37175 9.69248C8.23231 9.67061 8.1192 9.65426 8.04146 9.64344C8.00261 9.63804 7.97263 9.63402 7.95267 9.63139L7.9304 9.62849L7.92517 9.62783L7.92408 9.62769C7.71303 9.60128 7.53159 9.46509 7.44742 9.26975C7.36324 9.07439 7.38879 8.84906 7.51459 8.67751L7.99844 9.03231C7.51459 8.67751 7.51437 8.6778 7.51459 8.67751L7.5155 8.67626L7.51679 8.67452L7.52046 8.66958L7.53222 8.65398C7.542 8.6411 7.55569 8.62332 7.57322 8.60109C7.60827 8.55664 7.65876 8.49431 7.72427 8.41769C7.85517 8.26458 8.04671 8.05361 8.29551 7.81378C8.79158 7.33561 9.52403 6.73432 10.4661 6.25115C12.2796 5.32108 14.8361 4.85161 17.8734 6.44125L18.2856 5.82331C18.4695 5.54763 18.842 5.47321 19.1177 5.65708C19.3934 5.84095 19.4678 6.21349 19.2839 6.48917L18.9079 7.0529C20.2103 7.91544 21.0755 8.87751 21.6195 9.86655C22.2349 10.9855 22.4205 12.1051 22.3958 13.0921C22.3713 14.0748 22.1386 14.9281 21.9149 15.5325C21.8027 15.836 21.6914 16.0802 21.6069 16.2508C21.5645 16.3363 21.5288 16.4036 21.5027 16.4509C21.4897 16.4746 21.4791 16.4934 21.4712 16.5069L21.4617 16.5234L21.4586 16.5287L21.4575 16.5305C21.4573 16.5309 21.4566 16.5319 20.9421 16.2232L21.4566 16.5319C21.3555 16.7004 21.1784 16.8087 20.9824 16.8219C20.7864 16.8351 20.5964 16.7515 20.4736 16.5981C20.4736 16.5981 20.4736 16.5981 20.4736 16.5981L20.4704 16.5941L20.4593 16.5803L20.4141 16.5249C20.3743 16.4763 20.3157 16.4055 20.2419 16.318C20.0941 16.1428 19.8862 15.902 19.6459 15.6398C19.1537 15.1029 18.5663 14.5214 18.0924 14.2054C17.6527 13.9123 16.8514 13.6615 16.0857 13.4814C15.7297 13.3976 15.4031 13.3339 15.1604 13.2904ZM20.7895 15.1161C20.7895 15.1161 20.7895 15.1162 20.7895 15.1161C20.9816 14.597 21.1758 13.8772 21.1962 13.0621C21.2165 12.2513 21.065 11.3484 20.568 10.4448C20.4248 10.1844 20.2513 9.92115 20.0422 9.65786C20.0565 10.1572 20.0006 10.6573 19.9138 11.1202C19.77 11.8874 19.5321 12.5986 19.3332 13.1134C19.2752 13.2637 19.22 13.3982 19.1709 13.5138C19.6541 13.906 20.1448 14.4082 20.5305 14.829C20.6217 14.9285 20.7086 15.0248 20.7895 15.1161Z" fill="#138300"/>
<path fill-rule="evenodd" clip-rule="evenodd" d="M3.17094 21.0732C3.17092 21.0732 3.17096 21.0731 3.17094 21.0732L3.17364 21.0723L3.18345 21.0694L3.22401 21.0575C3.26018 21.0469 3.31435 21.0313 3.38505 21.0112C3.52648 20.9711 3.73399 20.9134 3.99588 20.8441C4.5199 20.7054 5.26045 20.5202 6.12431 20.3351C7.85991 19.9632 10.0616 19.5984 11.9986 19.5984C13.9356 19.5984 16.1373 19.9632 17.8729 20.3351C18.7367 20.5202 19.4773 20.7054 20.0013 20.8441C20.2632 20.9134 20.4707 20.9711 20.6121 21.0112C20.6828 21.0313 20.737 21.0469 20.7732 21.0575L20.8137 21.0694L20.8235 21.0723L20.8258 21.073M3.17094 21.0732C2.85356 21.1683 2.51911 20.9882 2.4239 20.6708C2.32868 20.3535 2.50879 20.019 2.82619 19.9237L2.99856 20.4983C2.82619 19.9237 2.82609 19.9238 2.82619 19.9237L2.83082 19.9224L2.84267 19.9188L2.88744 19.9057C2.92646 19.8943 2.98363 19.8777 3.05745 19.8568C3.20508 19.8149 3.41945 19.7553 3.68881 19.684C4.22729 19.5415 4.98674 19.3516 5.87288 19.1618C7.63728 18.7837 9.93563 18.3984 11.9986 18.3984C14.0616 18.3984 16.3599 18.7837 18.1243 19.1618C19.0104 19.3516 19.7699 19.5415 20.3084 19.684C20.5777 19.7553 20.7921 19.8149 20.9397 19.8568C21.0136 19.8777 21.0707 19.8943 21.1098 19.9057L21.1545 19.9188L21.1664 19.9224L21.1708 19.9237C21.1709 19.9237 21.171 19.9237 20.9986 20.4984L21.1708 19.9237C21.4882 20.0189 21.6685 20.3535 21.5733 20.6708C21.4781 20.9882 21.1431 21.1682 20.8258 21.073" fill="#138300"/>
</svg>
