<svg width="20" height="20" viewBox="0 0 20 20" fill="none" xmlns="http://www.w3.org/2000/svg">
    <path fill-rule="evenodd" clip-rule="evenodd" d="M9.59128 8.25175C9.06108 8.28657 8.75 8.79069 8.75 9.24746C8.75 9.47152 8.7927 9.68251 8.91541 9.86032C9.03911 10.0396 9.20702 10.1308 9.34367 10.1861L10.3428 10.5857C10.3751 10.5992 10.3894 10.6085 10.3946 10.6125C10.399 10.622 10.4125 10.6596 10.4125 10.7522C10.4125 10.819 10.3895 10.869 10.367 10.8961C10.3554 10.9101 10.3472 10.915 10.3436 10.9165H9.72083C9.71275 10.9165 9.68527 10.9133 9.65001 10.8709C9.61434 10.828 9.58333 10.7566 9.58333 10.6665C9.58333 10.4364 9.39679 10.2498 9.16667 10.2498C8.93655 10.2498 8.75 10.4364 8.75 10.6665C8.75 11.1493 9.06518 11.6663 9.58992 11.7407C9.62493 11.9354 9.79521 12.0832 10 12.0832C10.2024 12.0832 10.371 11.9389 10.4088 11.7476C10.9364 11.7104 11.2458 11.2078 11.2458 10.7522C11.2458 10.528 11.2031 10.3179 11.0819 10.1408C10.9597 9.96208 10.7939 9.87046 10.6592 9.81477L9.65563 9.41333C9.62148 9.39946 9.60632 9.38986 9.60074 9.38565C9.59626 9.37563 9.58333 9.33819 9.58333 9.24746C9.58333 9.18068 9.6063 9.13072 9.62887 9.10355C9.64048 9.08957 9.64863 9.08468 9.65219 9.08317H10.2703C10.2874 9.08391 10.3173 9.09226 10.3508 9.13218C10.386 9.17412 10.4167 9.2436 10.4167 9.33317C10.4167 9.56329 10.6032 9.74984 10.8333 9.74984C11.0635 9.74984 11.25 9.56329 11.25 9.33317C11.25 8.84217 10.9298 8.33983 10.4104 8.26057C10.376 8.06506 10.2054 7.9165 10 7.9165C9.79775 7.9165 9.62915 8.06061 9.59128 8.25175ZM9.6542 9.0826C9.65421 9.08267 9.65332 9.08303 9.65219 9.08317L9.6542 9.0826ZM9.60164 9.38754C9.60206 9.38819 9.60225 9.38855 9.60224 9.38857L9.60164 9.38754ZM10.3416 10.9171C10.3416 10.917 10.3425 10.9166 10.3436 10.9165L10.3416 10.9171Z" fill="white"/>
    <path fill-rule="evenodd" clip-rule="evenodd" d="M10.0001 7.1665C8.43527 7.1665 7.16675 8.43503 7.16675 9.99984C7.16675 11.5646 8.43527 12.8332 10.0001 12.8332C11.5649 12.8332 12.8334 11.5646 12.8334 9.99984C12.8334 8.43503 11.5649 7.1665 10.0001 7.1665ZM6.16675 9.99984C6.16675 7.88275 7.88299 6.1665 10.0001 6.1665C12.1172 6.1665 13.8334 7.88275 13.8334 9.99984C13.8334 12.1169 12.1172 13.8332 10.0001 13.8332C7.88299 13.8332 6.16675 12.1169 6.16675 9.99984Z" fill="white"/>
    <path fill-rule="evenodd" clip-rule="evenodd" d="M0.333252 4.1665C0.333252 3.89036 0.55711 3.6665 0.833252 3.6665H19.1666C19.4427 3.6665 19.6666 3.89036 19.6666 4.1665V15.8332C19.6666 16.1093 19.4427 16.3332 19.1666 16.3332H0.833252C0.55711 16.3332 0.333252 16.1093 0.333252 15.8332V4.1665ZM1.33325 4.6665V15.3332H18.6666V4.6665H1.33325Z" fill="white"/>
    <path fill-rule="evenodd" clip-rule="evenodd" d="M3.45464 3.68155C3.72254 3.74853 3.88542 4.01999 3.81844 4.28789C3.60771 5.13083 3.37408 5.77052 2.90567 6.23893C2.43727 6.70733 1.79758 6.94096 0.954638 7.15169C0.686741 7.21867 0.415273 7.05579 0.348299 6.78789C0.281325 6.51999 0.444205 6.24853 0.712102 6.18155C1.53583 5.97562 1.9378 5.79258 2.19857 5.53182C2.45933 5.27105 2.64237 4.86908 2.8483 4.04535C2.91527 3.77746 3.18674 3.61458 3.45464 3.68155Z" fill="white"/>
    <path fill-rule="evenodd" clip-rule="evenodd" d="M0.348299 13.2121C0.415273 12.9442 0.686741 12.7813 0.954638 12.8483C1.79758 13.059 2.43727 13.2927 2.90567 13.7611C3.37408 14.2295 3.60771 14.8692 3.81844 15.7121C3.88542 15.98 3.72254 16.2515 3.45464 16.3184C3.18674 16.3854 2.91527 16.2225 2.8483 15.9546C2.64237 15.1309 2.45933 14.7289 2.19857 14.4682C1.9378 14.2074 1.53583 14.0244 0.712102 13.8184C0.444205 13.7515 0.281325 13.48 0.348299 13.2121Z" fill="white"/>
    <path fill-rule="evenodd" clip-rule="evenodd" d="M16.5454 16.3184C16.2775 16.2515 16.1146 15.98 16.1816 15.7121C16.3923 14.8692 16.6259 14.2295 17.0943 13.7611C17.5627 13.2927 18.2024 13.059 19.0454 12.8483C19.3133 12.7813 19.5847 12.9442 19.6517 13.2121C19.7187 13.48 19.5558 13.7515 19.2879 13.8184C18.4642 14.0244 18.0622 14.2074 17.8014 14.4682C17.5407 14.7289 17.3576 15.1309 17.1517 15.9546C17.0847 16.2225 16.8133 16.3854 16.5454 16.3184Z" fill="white"/>
    <path fill-rule="evenodd" clip-rule="evenodd" d="M19.6517 6.78789C19.5847 7.05579 19.3133 7.21867 19.0454 7.15169C18.2024 6.94096 17.5627 6.70733 17.0943 6.23893C16.6259 5.77052 16.3923 5.13083 16.1816 4.28789C16.1146 4.01999 16.2775 3.74853 16.5454 3.68155C16.8133 3.61458 17.0847 3.77746 17.1517 4.04535C17.3576 4.86908 17.5407 5.27105 17.8014 5.53182C18.0622 5.79258 18.4642 5.97562 19.2879 6.18155C19.5558 6.24853 19.7187 6.51999 19.6517 6.78789Z" fill="white"/>
    </svg>
    