<svg width="32" height="32" viewBox="0 0 32 32" fill="none" xmlns="http://www.w3.org/2000/svg">
<path fill-rule="evenodd" clip-rule="evenodd" d="M11.2031 2.66719C11.2031 2.22536 11.5613 1.86719 12.0031 1.86719H20.0031C20.445 1.86719 20.8031 2.22536 20.8031 2.66719V5.33385C20.8031 5.77568 20.445 6.13385 20.0031 6.13385H12.0031C11.5613 6.13385 11.2031 5.77568 11.2031 5.33385V2.66719ZM12.8031 3.46719V4.53385H19.2031V3.46719H12.8031Z" fill="#808080"/>
<path fill-rule="evenodd" clip-rule="evenodd" d="M15.7019 8.00007C15.8895 7.90623 16.1105 7.90623 16.2981 8.00007L21.6315 10.6667C21.8573 10.7797 22 11.0105 22 11.263V16.5964C22 16.8489 21.8573 17.0797 21.6315 17.1926L16.2981 19.8593C16.1105 19.9531 15.8895 19.9531 15.7019 19.8593L10.3685 17.1926C10.1427 17.0797 10 16.8489 10 16.5964V11.263C10 11.0105 10.1427 10.7797 10.3685 10.6667L15.7019 8.00007ZM11.3333 12.3417L15.3333 14.3417V18.1843L11.3333 16.1843V12.3417ZM16.6667 18.1843L20.6667 16.1843V12.3417L16.6667 14.3417V18.1843ZM16 13.1843L19.8426 11.263L16 9.34171L12.1574 11.263L16 13.1843Z" fill="#61B761"/>
<path fill-rule="evenodd" clip-rule="evenodd" d="M13.01 9.61932C13.1814 9.29351 13.5846 9.16839 13.9104 9.33988L18.9771 12.0065C19.1961 12.1218 19.3332 12.349 19.3332 12.5965V13.6632C19.3332 14.0313 19.0348 14.3298 18.6666 14.3298C18.2984 14.3298 17.9999 14.0313 17.9999 13.6632V12.999L13.2894 10.5198C12.9636 10.3483 12.8385 9.94514 13.01 9.61932Z" fill="#61B761"/>
<path fill-rule="evenodd" clip-rule="evenodd" d="M29.8041 19.3522C30.1636 19.609 30.2469 20.1086 29.9901 20.4682L23.3234 29.8015C23.1793 30.0032 22.9499 30.1267 22.7022 30.136C22.4545 30.1452 22.2165 30.0391 22.0578 29.8487L18.7245 25.8487C18.4417 25.5092 18.4875 25.0048 18.8269 24.7219C19.1664 24.4391 19.6708 24.485 19.9537 24.8244L22.6237 28.0284L28.6881 19.5382C28.9449 19.1787 29.4445 19.0954 29.8041 19.3522Z" fill="#61B761"/>
<path fill-rule="evenodd" clip-rule="evenodd" d="M19.2031 4.00313C19.2031 3.5613 19.5613 3.20312 20.0031 3.20312H26.6698C27.848 3.20312 28.8031 4.15825 28.8031 5.33646V17.3365C28.8031 17.7783 28.445 18.1365 28.0031 18.1365C27.5613 18.1365 27.2031 17.7783 27.2031 17.3365V5.33646C27.2031 5.04191 26.9643 4.80313 26.6698 4.80313H20.0031C19.5613 4.80313 19.2031 4.44495 19.2031 4.00313Z" fill="#808080"/>
<path fill-rule="evenodd" clip-rule="evenodd" d="M5.33646 4.80313C5.04191 4.80313 4.80313 5.04191 4.80313 5.33646V28.0031C4.80313 28.2977 5.04191 28.5365 5.33646 28.5365H18.6698C19.1116 28.5365 19.4698 28.8946 19.4698 29.3365C19.4698 29.7783 19.1116 30.1365 18.6698 30.1365H5.33646C4.15825 30.1365 3.20312 29.1813 3.20312 28.0031V5.33646C3.20312 4.15825 4.15825 3.20312 5.33646 3.20312H12.0031C12.445 3.20312 12.8031 3.5613 12.8031 4.00313C12.8031 4.44495 12.445 4.80313 12.0031 4.80313H5.33646Z" fill="#808080"/>
<path fill-rule="evenodd" clip-rule="evenodd" d="M7.20312 25.3313C7.20312 24.8894 7.5613 24.5312 8.00313 24.5312L14.6698 24.5312C15.1116 24.5312 15.4698 24.8894 15.4698 25.3313C15.4698 25.7731 15.1116 26.1313 14.6698 26.1313H8.00313C7.5613 26.1313 7.20312 25.7731 7.20312 25.3313Z" fill="#61B761"/>
<path fill-rule="evenodd" clip-rule="evenodd" d="M7.20312 22.6672C7.20312 22.2254 7.5613 21.8672 8.00313 21.8672H17.3365C17.7783 21.8672 18.1365 22.2254 18.1365 22.6672C18.1365 23.109 17.7783 23.4672 17.3365 23.4672H8.00313C7.5613 23.4672 7.20312 23.109 7.20312 22.6672Z" fill="#61B761"/>
</svg>
