<svg width="20" height="20" viewBox="0 0 20 20" fill="none" xmlns="http://www.w3.org/2000/svg">
<path fill-rule="evenodd" clip-rule="evenodd" d="M9.43131 1.30034C9.6065 1.21002 9.80149 1.16406 9.9974 1.16406C10.1933 1.16406 10.3883 1.21002 10.5635 1.30034L18.2021 5.16092C18.383 5.25323 18.5403 5.39021 18.6532 5.56331C18.7664 5.73699 18.8295 5.93925 18.8307 6.14927L18.8307 6.15226L18.8307 13.8425L18.8307 13.8455C18.8295 14.0555 18.7664 14.2578 18.6532 14.4315C18.5403 14.6046 18.383 14.7416 18.2021 14.8339L18.2004 14.8347L10.5634 18.6945C10.3882 18.7848 10.1933 18.8307 9.9974 18.8307C9.8006 18.8307 9.60474 18.7844 9.42893 18.6932C9.42882 18.6932 9.42903 18.6933 9.42893 18.6932L1.79272 14.7387C1.79221 14.7385 1.7917 14.7382 1.79119 14.738C1.61092 14.6457 1.45413 14.509 1.3416 14.3363C1.22839 14.1627 1.16533 13.9604 1.16407 13.7504L1.16406 13.7474V6.14927C1.16532 5.93925 1.22839 5.73699 1.3416 5.56331C1.45445 5.39021 1.61181 5.25323 1.79272 5.16093L1.79443 5.16005L9.43131 1.30034ZM9.9974 2.16406C9.9566 2.16406 9.91906 2.17386 9.88909 2.1894L9.8844 2.19184L2.24721 6.05167C2.247 6.05178 2.24743 6.05156 2.24721 6.05167C2.21347 6.06902 2.19137 6.09093 2.17932 6.10941C2.16781 6.12707 2.16427 6.14245 2.16406 6.15449V13.7452C2.16427 13.7572 2.16781 13.7726 2.17932 13.7902C2.19145 13.8088 2.2131 13.8306 2.24721 13.848L2.2499 13.8494L9.88878 17.8052C9.91875 17.8208 9.9566 17.8307 9.9974 17.8307C10.0382 17.8307 10.0757 17.8209 10.1057 17.8054L10.1104 17.803L17.7476 13.9431C17.7478 13.943 17.7473 13.9432 17.7476 13.9431C17.7813 13.9258 17.8034 13.9038 17.8155 13.8854C17.827 13.8677 17.8305 13.8524 17.8307 13.8403V6.15446C17.8305 6.14243 17.827 6.12705 17.8155 6.10941C17.8034 6.09094 17.782 6.06936 17.7483 6.05202C17.748 6.0519 17.7485 6.05213 17.7483 6.05202L10.1057 2.18943C10.0757 2.17388 10.0382 2.16406 9.9974 2.16406Z" fill="#595959"/>
<path fill-rule="evenodd" clip-rule="evenodd" d="M1.31086 5.61214C1.43452 5.36524 1.73492 5.26532 1.98183 5.38898L10.0718 9.44068L18.0063 5.39071C18.2523 5.26516 18.5534 5.36278 18.679 5.60873C18.8045 5.85469 18.7069 6.15585 18.4609 6.28139L10.3012 10.4463C10.1596 10.5186 9.99212 10.5192 9.84999 10.448L1.53402 6.28311C1.28711 6.15945 1.1872 5.85905 1.31086 5.61214Z" fill="#595959"/>
<path fill-rule="evenodd" clip-rule="evenodd" d="M10.0828 9.50002C10.3589 9.50261 10.5807 9.72856 10.5781 10.0047L10.5 18.3345C10.4974 18.6106 10.2714 18.8324 9.99531 18.8298C9.71918 18.8272 9.49743 18.6013 9.50002 18.3251L9.57815 9.99531C9.58074 9.71918 9.80668 9.49743 10.0828 9.50002Z" fill="#595959"/>
<path fill-rule="evenodd" clip-rule="evenodd" d="M5.80764 3.51723C5.93625 3.27286 6.23861 3.17903 6.48297 3.30764L14.3996 7.47431C14.5639 7.56077 14.6668 7.73113 14.6668 7.91677V9.58343C14.6668 9.85958 14.4429 10.0834 14.1668 10.0834C13.8906 10.0834 13.6668 9.85958 13.6668 9.58343V8.21863L6.01723 4.19256C5.77286 4.06395 5.67903 3.76159 5.80764 3.51723Z" fill="#595959"/>
</svg>
