<svg width="48" height="48" viewBox="0 0 48 48" fill="none" xmlns="http://www.w3.org/2000/svg">
<path fill-rule="evenodd" clip-rule="evenodd" d="M29.7969 11.9969C29.7969 11.3341 30.3341 10.7969 30.9969 10.7969H32.9969C33.6596 10.7969 34.1969 11.3341 34.1969 11.9969C34.1969 12.6596 33.6596 13.1969 32.9969 13.1969H30.9969C30.3341 13.1969 29.7969 12.6596 29.7969 11.9969Z" fill="#61B761"/>
<path fill-rule="evenodd" clip-rule="evenodd" d="M29.7969 15.9969C29.7969 15.3341 30.3341 14.7969 30.9969 14.7969H32.9969C33.6596 14.7969 34.1969 15.3341 34.1969 15.9969C34.1969 16.6596 33.6596 17.1969 32.9969 17.1969H30.9969C30.3341 17.1969 29.7969 16.6596 29.7969 15.9969Z" fill="#61B761"/>
<path fill-rule="evenodd" clip-rule="evenodd" d="M2.79688 33.9969C2.79688 33.3341 3.33413 32.7969 3.99688 32.7969H15.9969C16.6596 32.7969 17.1969 33.3341 17.1969 33.9969C17.1969 34.6596 16.6596 35.1969 15.9969 35.1969H5.19688V42.7969H42.7969V35.1969H31.9969C31.3341 35.1969 30.7969 34.6596 30.7969 33.9969C30.7969 33.3341 31.3341 32.7969 31.9969 32.7969H43.9969C44.6596 32.7969 45.1969 33.3341 45.1969 33.9969V43.9969C45.1969 44.6596 44.6596 45.1969 43.9969 45.1969H3.99688C3.33413 45.1969 2.79688 44.6596 2.79688 43.9969V33.9969Z" fill="#61B761"/>
<path fill-rule="evenodd" clip-rule="evenodd" d="M8.79688 7.99688C8.79688 7.33413 9.33413 6.79688 9.99687 6.79688H21.9969C22.6596 6.79688 23.1969 7.33413 23.1969 7.99688V23.9969C23.1969 24.6596 22.6596 25.1969 21.9969 25.1969H9.99687C9.33413 25.1969 8.79688 24.6596 8.79688 23.9969V7.99688ZM11.1969 9.19688V22.7969H20.7969V9.19688H11.1969Z" fill="#61B761"/>
<path fill-rule="evenodd" clip-rule="evenodd" d="M24.7969 11.9969C24.7969 11.3341 25.3341 10.7969 25.9969 10.7969H27.9969C28.6596 10.7969 29.1969 11.3341 29.1969 11.9969C29.1969 12.6596 28.6596 13.1969 27.9969 13.1969H25.9969C25.3341 13.1969 24.7969 12.6596 24.7969 11.9969Z" fill="#61B761"/>
<path fill-rule="evenodd" clip-rule="evenodd" d="M24.7969 15.9969C24.7969 15.3341 25.3341 14.7969 25.9969 14.7969H27.9969C28.6596 14.7969 29.1969 15.3341 29.1969 15.9969C29.1969 16.6596 28.6596 17.1969 27.9969 17.1969H25.9969C25.3341 17.1969 24.7969 16.6596 24.7969 15.9969Z" fill="#61B761"/>
<path fill-rule="evenodd" clip-rule="evenodd" d="M17.7969 33.9969C17.7969 33.3341 18.3341 32.7969 18.9969 32.7969H28.9969C29.6596 32.7969 30.1969 33.3341 30.1969 33.9969V36.9969C30.1969 37.6596 29.6596 38.1969 28.9969 38.1969H18.9969C18.3341 38.1969 17.7969 37.6596 17.7969 36.9969V33.9969ZM20.1969 35.1969V35.7969H27.7969V35.1969H20.1969Z" fill="#61B761"/>
<path fill-rule="evenodd" clip-rule="evenodd" d="M4.79688 3.99688C4.79688 3.33413 5.33413 2.79688 5.99688 2.79688H41.9969C42.6596 2.79688 43.1969 3.33413 43.1969 3.99688V27.9969C43.1969 28.6596 42.6596 29.1969 41.9969 29.1969H5.99688C5.33413 29.1969 4.79688 28.6596 4.79688 27.9969V3.99688ZM7.19688 5.19688V26.7969H40.7969V5.19688H7.19688Z" fill="#61B761"/>
<path fill-rule="evenodd" clip-rule="evenodd" d="M34.7969 11.9969C34.7969 11.3341 35.3341 10.7969 35.9969 10.7969H37.9969C38.6596 10.7969 39.1969 11.3341 39.1969 11.9969C39.1969 12.6596 38.6596 13.1969 37.9969 13.1969H35.9969C35.3341 13.1969 34.7969 12.6596 34.7969 11.9969Z" fill="#61B761"/>
<path fill-rule="evenodd" clip-rule="evenodd" d="M34.7969 15.9969C34.7969 15.3341 35.3341 14.7969 35.9969 14.7969H37.9969C38.6596 14.7969 39.1969 15.3341 39.1969 15.9969C39.1969 16.6596 38.6596 17.1969 37.9969 17.1969H35.9969C35.3341 17.1969 34.7969 16.6596 34.7969 15.9969Z" fill="#61B761"/>
<path fill-rule="evenodd" clip-rule="evenodd" d="M31.7969 19.9969C31.7969 19.3341 32.3341 18.7969 32.9969 18.7969H37.9969C38.6596 18.7969 39.1969 19.3341 39.1969 19.9969C39.1969 20.6596 38.6596 21.1969 37.9969 21.1969H32.9969C32.3341 21.1969 31.7969 20.6596 31.7969 19.9969Z" fill="#61B761"/>
</svg>
