<svg width="48" height="48" viewBox="0 0 48 48" fill="none" xmlns="http://www.w3.org/2000/svg">
<path fill-rule="evenodd" clip-rule="evenodd" d="M22.6383 3.12394C23.0587 2.90717 23.5267 2.79688 23.9969 2.79688C24.4671 2.79688 24.935 2.90717 25.3555 3.12394L43.6881 12.3893C44.1223 12.6109 44.5 12.9396 44.7708 13.3551C45.0425 13.7719 45.1938 14.2573 45.1969 14.7614L45.1969 14.7686L45.1969 33.2252L45.1969 33.2324C45.1938 33.7364 45.0425 34.2219 44.7708 34.6387C44.5 35.0541 44.1223 35.3829 43.6881 35.6044L43.684 35.6065L25.3554 44.8699C24.9349 45.0866 24.467 45.1969 23.9969 45.1969C23.5246 45.1969 23.0545 45.0856 22.6325 44.8669C22.6323 44.8667 22.6328 44.867 22.6325 44.8669L4.30565 35.3761C4.30442 35.3755 4.3032 35.3748 4.30198 35.3742C3.86934 35.1527 3.49304 34.8246 3.22297 34.4103C2.95125 33.9935 2.79991 33.5081 2.7969 33.004L2.79688 32.9969V14.7614C2.79989 14.2573 2.95125 13.7719 3.22297 13.3551C3.4938 12.9396 3.87147 12.6109 4.30565 12.3893L4.30976 12.3872L22.6383 3.12394ZM23.9969 5.19688C23.899 5.19688 23.8089 5.22038 23.7369 5.25769L23.7257 5.26353L5.39644 14.5271C5.39593 14.5274 5.39694 14.5269 5.39644 14.5271C5.31546 14.5688 5.26242 14.6214 5.2335 14.6657C5.20588 14.7081 5.19738 14.745 5.19688 14.7739V32.9915C5.19738 33.0204 5.20588 33.0573 5.2335 33.0997C5.2626 33.1444 5.31458 33.1965 5.39644 33.2383L5.40288 33.2416L23.7362 42.7357C23.8081 42.773 23.899 42.7969 23.9969 42.7969C24.0948 42.7969 24.1849 42.7734 24.2568 42.7361L24.2681 42.7302L42.5973 33.4666C42.5979 33.4663 42.5967 33.4669 42.5973 33.4666C42.6782 33.425 42.7314 33.3724 42.7602 33.328C42.7878 33.2857 42.7964 33.2488 42.7969 33.2199V14.7738C42.7964 14.745 42.7878 14.7081 42.7602 14.6657C42.7313 14.6214 42.6799 14.5696 42.5989 14.528C42.5984 14.5277 42.5995 14.5282 42.5989 14.528L24.2568 5.25775C24.1848 5.22044 24.0948 5.19688 23.9969 5.19688Z" fill="#1BA103"/>
<path fill-rule="evenodd" clip-rule="evenodd" d="M3.15074 13.4598C3.44753 12.8672 4.16849 12.6274 4.76107 12.9242L24.1769 22.6483L43.2198 12.9283C43.8101 12.627 44.5329 12.8613 44.8342 13.4516C45.1355 14.0419 44.9012 14.7647 44.3109 15.066L24.7276 25.0617C24.3878 25.2352 23.9858 25.2367 23.6447 25.0659L3.68633 15.0701C3.09375 14.7733 2.85396 14.0523 3.15074 13.4598Z" fill="#1BA103"/>
<path fill-rule="evenodd" clip-rule="evenodd" d="M24.1956 22.7969C24.8583 22.8031 25.3905 23.3454 25.3843 24.0081L25.1968 43.9997C25.1906 44.6624 24.6483 45.1946 23.9856 45.1884C23.3229 45.1822 22.7907 44.6399 22.7969 43.9772L22.9844 23.9856C22.9906 23.3229 23.5329 22.7907 24.1956 22.7969Z" fill="#1BA103"/>
<path fill-rule="evenodd" clip-rule="evenodd" d="M13.9352 8.43822C14.2439 7.85175 14.9695 7.62655 15.556 7.93522L34.556 17.9352C34.9503 18.1427 35.1971 18.5516 35.1971 18.9971V22.9971C35.1971 23.6599 34.6599 24.1971 33.9971 24.1971C33.3344 24.1971 32.7971 23.6599 32.7971 22.9971V19.7216L14.4382 10.059C13.8517 9.75035 13.6265 9.02469 13.9352 8.43822Z" fill="#1BA103"/>
</svg>
