<svg width="48" height="48" viewBox="0 0 48 48" fill="none" xmlns="http://www.w3.org/2000/svg">
<path fill-rule="evenodd" clip-rule="evenodd" d="M27.2891 5.99688C27.2891 5.33413 27.8239 4.79688 28.4838 4.79688H36.4484C38.2079 4.79688 39.6342 6.22956 39.6342 7.99688V21.9971C39.6342 22.6598 39.0993 23.1971 38.4395 23.1971C37.7797 23.1971 37.2448 22.6598 37.2448 21.9971V7.99688C37.2448 7.55505 36.8882 7.19688 36.4484 7.19688H28.4838C27.8239 7.19688 27.2891 6.65962 27.2891 5.99688Z" fill="#61B761"/>
<path fill-rule="evenodd" clip-rule="evenodd" d="M6.58429 7.19688C6.14441 7.19688 5.78782 7.55505 5.78782 7.99687V41.9969C5.78782 42.4387 6.14441 42.7969 6.58429 42.7969H24.5047C25.1645 42.7969 25.6994 43.3341 25.6994 43.9969C25.6994 44.6596 25.1645 45.1969 24.5047 45.1969H6.58429C4.82479 45.1969 3.39844 43.7642 3.39844 41.9969V7.99687C3.39844 6.22956 4.82479 4.79688 6.58429 4.79688H15.5445C16.2043 4.79688 16.7392 5.33413 16.7392 5.99688C16.7392 6.65962 16.2043 7.19688 15.5445 7.19688H6.58429Z" fill="#61B761"/>
<path fill-rule="evenodd" clip-rule="evenodd" d="M14.3516 3.99688C14.3516 3.33413 14.8864 2.79688 15.5463 2.79688H27.4932C28.153 2.79688 28.6879 3.33413 28.6879 3.99688V7.99687C28.6879 8.65962 28.153 9.19687 27.4932 9.19687H15.5463C14.8864 9.19687 14.3516 8.65962 14.3516 7.99687V3.99688ZM16.7409 5.19688V6.79688H26.2985V5.19688H16.7409Z" fill="#61B761"/>
<path fill-rule="evenodd" clip-rule="evenodd" d="M10.3672 16.9969C10.3672 16.3341 10.9021 15.7969 11.5619 15.7969H31.4734C32.1332 15.7969 32.6681 16.3341 32.6681 16.9969C32.6681 17.6596 32.1332 18.1969 31.4734 18.1969H11.5619C10.9021 18.1969 10.3672 17.6596 10.3672 16.9969Z" fill="#61B761"/>
<path fill-rule="evenodd" clip-rule="evenodd" d="M10.3672 23.9969C10.3672 23.3341 10.9021 22.7969 11.5619 22.7969H17.3364C17.9962 22.7969 18.5311 23.3341 18.5311 23.9969C18.5311 24.6596 17.9962 25.1969 17.3364 25.1969H11.5619C10.9021 25.1969 10.3672 24.6596 10.3672 23.9969Z" fill="#61B761"/>
<path fill-rule="evenodd" clip-rule="evenodd" d="M10.3672 31.9969C10.3672 31.3341 10.9021 30.7969 11.5619 30.7969H22.5132C23.173 30.7969 23.7079 31.3341 23.7079 31.9969C23.7079 32.6596 23.173 33.1969 22.5132 33.1969H11.5619C10.9021 33.1969 10.3672 32.6596 10.3672 31.9969Z" fill="#61B761"/>
<path fill-rule="evenodd" clip-rule="evenodd" d="M22.6016 23.9969C22.6016 23.3341 23.1388 22.7969 23.8016 22.7969H24.7971C26.219 22.7969 27.4652 23.7392 27.861 25.1022L30.5093 34.2222C30.6091 34.5658 30.9204 34.7969 31.2684 34.7969H40.4417C40.7486 34.7969 41.0307 34.6168 41.1607 34.3307L43.3265 29.5615C43.5706 29.0238 43.1758 28.4276 42.6075 28.4276H31.7662C31.1034 28.4276 30.5662 27.8904 30.5662 27.2276C30.5662 26.5649 31.1034 26.0276 31.7662 26.0276H42.6075C44.9378 26.0276 46.4705 28.4426 45.5117 30.5538L43.3459 35.3231C42.8285 36.4623 41.6945 37.1969 40.4417 37.1969H31.2684C30.9483 37.1969 30.6372 37.1491 30.3427 37.0596C30.2672 37.1169 30.2327 37.1759 30.2142 37.2274C30.1881 37.2999 30.1821 37.3944 30.2095 37.4939C30.237 37.5935 30.2902 37.6704 30.3483 37.7179C30.3978 37.7584 30.4724 37.7969 30.6023 37.7969H42.7175C43.3803 37.7969 43.9175 38.3341 43.9175 38.9969C43.9175 39.6596 43.3803 40.1969 42.7175 40.1969H30.6023C28.0615 40.1969 26.976 37.2247 28.4701 35.5354C28.36 35.3341 28.2704 35.1186 28.2045 34.8915L25.5563 25.7715C25.4565 25.4279 25.1452 25.1969 24.7971 25.1969H23.8016C23.1388 25.1969 22.6016 24.6596 22.6016 23.9969ZM29.775 43.1969C29.8929 43.1969 29.9795 43.1023 29.9795 42.9969C29.9795 42.8914 29.8929 42.7969 29.775 42.7969C29.6571 42.7969 29.5706 42.8914 29.5706 42.9969C29.5706 43.1023 29.6571 43.1969 29.775 43.1969ZM27.5795 42.9969C27.5795 41.7869 28.5574 40.7969 29.775 40.7969C30.9926 40.7969 31.9706 41.7869 31.9706 42.9969C31.9706 44.2069 30.9926 45.1969 29.775 45.1969C28.5574 45.1969 27.5795 44.2069 27.5795 42.9969ZM40.7264 43.1969C40.8443 43.1969 40.9308 43.1023 40.9308 42.9969C40.9308 42.8914 40.8443 42.7969 40.7264 42.7969C40.6085 42.7969 40.522 42.8914 40.522 42.9969C40.522 43.1023 40.6085 43.1969 40.7264 43.1969ZM38.5308 42.9969C38.5308 41.7869 39.5088 40.7969 40.7264 40.7969C41.944 40.7969 42.922 41.7869 42.922 42.9969C42.922 44.2069 41.944 45.1969 40.7264 45.1969C39.5088 45.1969 38.5308 44.2069 38.5308 42.9969Z" fill="#61B761"/>
</svg>
