<svg width="32" height="32" viewBox="0 0 32 32" fill="none" xmlns="http://www.w3.org/2000/svg">
<path fill-rule="evenodd" clip-rule="evenodd" d="M15.0948 2.08523C15.3751 1.94072 15.6871 1.86719 16.0005 1.86719C16.314 1.86719 16.626 1.94072 16.9063 2.08523L29.128 8.26216C29.4175 8.40986 29.6692 8.62902 29.8498 8.90599C30.0309 9.18387 30.1318 9.50749 30.1338 9.84352L30.1339 9.84831L30.1339 22.1527L30.1338 22.1575C30.1318 22.4936 30.0309 22.8172 29.8498 23.0951C29.6692 23.372 29.4175 23.5912 29.128 23.7389L29.1253 23.7403L16.9062 29.9159C16.6259 30.0603 16.3139 30.1339 16.0005 30.1339C15.6856 30.1339 15.3723 30.0597 15.091 29.9138C15.0908 29.9138 15.0911 29.9139 15.091 29.9138L2.87303 23.5867C2.87222 23.5862 2.8714 23.5858 2.87059 23.5854C2.58216 23.4377 2.3313 23.219 2.15125 22.9428C1.9701 22.665 1.86921 22.3413 1.8672 22.0053L1.86719 22.0005V9.84352C1.8692 9.50749 1.9701 9.18387 2.15125 8.90599C2.3318 8.62902 2.58358 8.40986 2.87303 8.26217L2.87577 8.26077L15.0948 2.08523ZM16.0005 3.46719C15.9353 3.46719 15.8752 3.48286 15.8272 3.50773L15.8197 3.51163L3.60023 9.68737C3.59989 9.68754 3.60057 9.68719 3.60023 9.68737C3.54624 9.71512 3.51088 9.75018 3.49161 9.77975C3.47319 9.808 3.46752 9.83261 3.46719 9.85187V21.997C3.46752 22.0162 3.47319 22.0408 3.49161 22.0691C3.511 22.0988 3.54566 22.1336 3.60023 22.1615L3.60452 22.1637L15.8267 28.4931C15.8747 28.5179 15.9352 28.5339 16.0005 28.5339C16.0658 28.5339 16.1259 28.5182 16.1738 28.4933L16.1813 28.4894L28.4008 22.3137C28.4012 22.3135 28.4004 22.3139 28.4008 22.3137C28.4547 22.2859 28.4902 22.2508 28.5094 22.2213C28.5278 22.1931 28.5335 22.1685 28.5339 22.1492V9.85182C28.5335 9.83257 28.5278 9.80797 28.5094 9.77975C28.4902 9.75019 28.4558 9.71567 28.4019 9.68792C28.4015 9.68773 28.4022 9.6881 28.4019 9.68792L16.1738 3.50777C16.1258 3.4829 16.0658 3.46719 16.0005 3.46719Z" fill="#595959"/>
<path fill-rule="evenodd" clip-rule="evenodd" d="M2.10831 8.98099C2.30616 8.58594 2.78681 8.42608 3.18186 8.62393L16.1257 15.1067L28.821 8.62669C29.2146 8.42583 29.6964 8.58201 29.8973 8.97554C30.0981 9.36907 29.942 9.85092 29.5484 10.0518L16.4929 16.7156C16.2663 16.8313 15.9983 16.8323 15.7709 16.7184L2.46536 10.0545C2.07031 9.85669 1.91045 9.37604 2.10831 8.98099Z" fill="#595959"/>
<path fill-rule="evenodd" clip-rule="evenodd" d="M16.1356 15.2032C16.5774 15.2073 16.9322 15.5688 16.9281 16.0106L16.8031 29.3383C16.7989 29.7802 16.4374 30.135 15.9956 30.1308C15.5538 30.1267 15.199 29.7651 15.2032 29.3233L15.3282 15.9956C15.3323 15.5538 15.6938 15.199 16.1356 15.2032Z" fill="#595959"/>
<path fill-rule="evenodd" clip-rule="evenodd" d="M9.29535 5.63069C9.50113 5.23971 9.9849 5.08957 10.3759 5.29535L23.0426 11.962C23.3054 12.1004 23.47 12.3729 23.47 12.67V15.3366C23.47 15.7784 23.1118 16.1366 22.67 16.1366C22.2281 16.1366 21.87 15.7784 21.87 15.3366V13.1529L9.63069 6.71122C9.23971 6.50544 9.08957 6.02167 9.29535 5.63069Z" fill="#F1CE1A"/>
</svg>
