<svg width="20" height="20" viewBox="0 0 20 20" fill="none" xmlns="http://www.w3.org/2000/svg">
    <path fill-rule="evenodd" clip-rule="evenodd" d="M10.0002 5.33301C10.2763 5.33301 10.5002 5.55687 10.5002 5.83301V6.16634H10.5598C11.0793 6.17637 11.4922 6.49105 11.7547 6.88143C12.0191 7.27476 12.1668 7.78845 12.1668 8.33301C12.1668 8.60915 11.943 8.83301 11.6668 8.83301C11.3907 8.83301 11.1668 8.60915 11.1668 8.33301C11.1668 7.96091 11.0645 7.6472 10.9248 7.43935C10.7848 7.23107 10.6412 7.1696 10.544 7.16634H9.30016C9.25444 7.16634 9.14975 7.19484 9.03329 7.37012C8.91959 7.54125 8.8335 7.80526 8.8335 8.11872C8.8335 8.50854 8.89442 8.70863 8.95455 8.81753C9.00742 8.91329 9.08237 8.98078 9.2249 9.05303C9.22523 9.05319 9.22556 9.05336 9.22589 9.05353L11.2297 10.0554C11.4822 10.1859 11.7367 10.3746 11.9148 10.7001C12.086 11.013 12.1585 11.4012 12.1585 11.8806C12.1585 12.3648 12.0279 12.827 11.7916 13.1826C11.5581 13.5341 11.1794 13.833 10.6918 13.833H10.5002V14.1663C10.5002 14.4425 10.2763 14.6663 10.0002 14.6663C9.72402 14.6663 9.50016 14.4425 9.50016 14.1663V13.833H9.44183C8.91641 13.833 8.50253 13.51 8.24329 13.1204C7.98097 12.7263 7.8335 12.2105 7.8335 11.6663C7.8335 11.3902 8.05735 11.1663 8.3335 11.1663C8.60964 11.1663 8.8335 11.3902 8.8335 11.6663C8.8335 12.0389 8.93603 12.3564 9.07578 12.5664C9.21863 12.781 9.35891 12.833 9.44183 12.833H10.6918C10.7376 12.833 10.8422 12.8045 10.9587 12.6292C11.0724 12.4581 11.1585 12.1941 11.1585 11.8806C11.1585 11.491 11.0977 11.29 11.0376 11.1802C10.9848 11.0838 10.9108 11.0167 10.7734 10.9453L8.77656 9.94689L8.77443 9.94582C8.51761 9.81588 8.25945 9.6275 8.07911 9.30087C7.9059 8.98715 7.8335 8.59795 7.8335 8.11872C7.8335 7.63457 7.96407 7.17239 8.20037 6.81673C8.43391 6.46523 8.81255 6.16634 9.30016 6.16634H9.50016V5.83301C9.50016 5.55687 9.72402 5.33301 10.0002 5.33301Z" fill="white"/>
    <path fill-rule="evenodd" clip-rule="evenodd" d="M10.0001 2.1665C5.67385 2.1665 2.16675 5.67361 2.16675 9.99984C2.16675 13.39 4.32063 16.2784 7.33622 17.3687C7.59591 17.4626 7.73031 17.7493 7.63642 18.0089C7.54252 18.2686 7.25588 18.403 6.99619 18.3091C3.59716 17.0801 1.16675 13.8245 1.16675 9.99984C1.16675 5.12132 5.12157 1.1665 10.0001 1.1665C14.8786 1.1665 18.8334 5.12132 18.8334 9.99984C18.8334 10.276 18.6096 10.4998 18.3334 10.4998C18.0573 10.4998 17.8334 10.276 17.8334 9.99984C17.8334 5.67361 14.3263 2.1665 10.0001 2.1665Z" fill="white"/>
    <path fill-rule="evenodd" clip-rule="evenodd" d="M17.9928 11.1715C18.2574 11.1339 18.5048 11.311 18.5545 11.5736L18.8248 13.0022C18.8761 13.2735 18.6978 13.5351 18.4264 13.5864C18.1551 13.6377 17.8935 13.4594 17.8422 13.1881L17.7628 12.7686L14.7907 16.1626C14.6441 16.33 14.4046 16.3804 14.2029 16.2862L11.8612 15.1923L8.70365 18.6694C8.51801 18.8738 8.20179 18.889 7.99736 18.7034C7.79293 18.5177 7.77771 18.2015 7.96335 17.9971L11.3688 14.2471C11.5161 14.0848 11.752 14.0375 11.9505 14.1302L14.2859 15.2212L16.7989 12.3514L16.4595 12.3997C16.1861 12.4386 15.9329 12.2484 15.894 11.9751C15.8552 11.7017 16.0453 11.4485 16.3187 11.4096L17.9928 11.1715Z" fill="white"/>
    </svg>
    