<svg width="32" height="32" viewBox="0 0 32 32" fill="none" xmlns="http://www.w3.org/2000/svg">
<path fill-rule="evenodd" clip-rule="evenodd" d="M24.5312 2.66719C24.5312 2.22536 24.8894 1.86719 25.3313 1.86719H29.3313C29.7731 1.86719 30.1313 2.22536 30.1313 2.66719V24.0005C30.1313 24.4424 29.7731 24.8005 29.3313 24.8005H25.3313C24.8894 24.8005 24.5312 24.4424 24.5312 24.0005V22.0005C24.5312 21.5587 24.8894 21.2005 25.3313 21.2005C25.7731 21.2005 26.1313 21.5587 26.1313 22.0005V23.2005H28.5313V3.46719H26.1313V5.33385C26.1313 5.77568 25.7731 6.13385 25.3313 6.13385C24.8894 6.13385 24.5312 5.77568 24.5312 5.33385V2.66719Z" fill="#808080"/>
<path fill-rule="evenodd" clip-rule="evenodd" d="M22.6641 8.66406C23.0323 8.66406 23.3307 8.96254 23.3307 9.33073V9.35249C23.7542 9.43107 24.0807 9.7108 24.289 10.0207C24.5338 10.3848 24.6641 10.8491 24.6641 11.3307C24.6641 11.6989 24.3656 11.9974 23.9974 11.9974C23.6292 11.9974 23.3307 11.6989 23.3307 11.3307C23.3307 11.079 23.261 10.8814 23.1825 10.7646C23.1331 10.6911 23.0971 10.6695 23.0844 10.6641H22.1467C22.1384 10.6728 22.1269 10.6866 22.1127 10.708C22.0544 10.7957 21.9974 10.954 21.9974 11.1593C21.9974 11.4473 22.0431 11.557 22.061 11.5895C22.0694 11.6046 22.0816 11.6269 22.1638 11.6686L23.7701 12.4717C24.0023 12.5917 24.2539 12.775 24.4297 13.0964C24.5963 13.4008 24.6574 13.7613 24.6574 14.1688C24.6574 14.6017 24.5411 15.0243 24.3193 15.358C24.1178 15.6613 23.7815 15.9501 23.3307 15.9921V15.9974C23.3307 16.3656 23.0323 16.6641 22.6641 16.6641C22.2959 16.6641 21.9974 16.3656 21.9974 15.9974V15.9785C21.5682 15.9034 21.2413 15.6161 21.0366 15.3084C20.794 14.944 20.6641 14.4785 20.6641 13.9974C20.6641 13.6292 20.9625 13.3307 21.3307 13.3307C21.6989 13.3307 21.9974 13.6292 21.9974 13.9974C21.9974 14.2497 22.0674 14.4508 22.1466 14.5697C22.1887 14.633 22.2195 14.6564 22.233 14.6641H23.1748C23.1831 14.6554 23.1946 14.6415 23.2088 14.6201C23.267 14.5324 23.3241 14.3741 23.3241 14.1688C23.3241 13.8811 23.2785 13.7702 23.2601 13.7365C23.2511 13.72 23.2395 13.6989 23.1614 13.6581L21.5631 12.8589C21.3273 12.7396 21.072 12.5567 20.8938 12.2339C20.725 11.9283 20.6641 11.5665 20.6641 11.1593C20.6641 10.7265 20.7804 10.3039 21.0021 9.97013C21.2046 9.66535 21.5433 9.37521 21.9974 9.33537V9.33073C21.9974 8.96254 22.2959 8.66406 22.6641 8.66406ZM23.0793 10.6624C23.0793 10.6623 23.0803 10.6625 23.0821 10.6632L23.0793 10.6624Z" fill="#61B761"/>
<path fill-rule="evenodd" clip-rule="evenodd" d="M22.6698 7.46719C19.4297 7.46719 16.8031 10.0938 16.8031 13.3339C16.8031 13.6243 16.8242 13.9094 16.8647 14.1878C16.9284 14.625 16.6256 15.0311 16.1884 15.0947C15.7512 15.1584 15.3451 14.8556 15.2814 14.4184C15.2298 14.0639 15.2031 13.7018 15.2031 13.3339C15.2031 9.21013 18.5461 5.86719 22.6698 5.86719C24.7583 5.86719 26.6478 6.72575 28.002 8.10715C28.3113 8.42266 28.3063 8.92917 27.9908 9.23847C27.6753 9.54777 27.1688 9.54273 26.8595 9.22722C25.7938 8.14014 24.3111 7.46719 22.6698 7.46719ZM27.9908 17.4292C28.3063 17.7385 28.3113 18.245 28.002 18.5606C26.6478 19.942 24.7583 20.8005 22.6698 20.8005C21.6094 20.8005 20.5985 20.579 19.6828 20.1789C19.278 20.002 19.0931 19.5304 19.27 19.1255C19.4469 18.7206 19.9186 18.5358 20.3234 18.7127C21.0409 19.0262 21.834 19.2005 22.6698 19.2005C24.3111 19.2005 25.7938 18.5276 26.8595 17.4405C27.1688 17.125 27.6753 17.1199 27.9908 17.4292Z" fill="#61B761"/>
<path fill-rule="evenodd" clip-rule="evenodd" d="M15.3803 10.3096C15.5779 10.7048 15.4178 11.1853 15.0226 11.3829L8.64103 14.5737L6.0833 21.6074C5.93231 22.0227 5.4733 22.2369 5.05807 22.0859C4.64285 21.9349 4.42864 21.4759 4.57963 21.0606L7.2463 13.7273C7.31625 13.5349 7.45728 13.3767 7.64036 13.2852L14.307 9.95182C14.7022 9.75423 15.1828 9.91441 15.3803 10.3096Z" fill="#808080"/>
<path fill-rule="evenodd" clip-rule="evenodd" d="M18.3786 16.7496C18.3138 16.6687 18.0733 16.5259 17.6945 16.7153L12.3611 19.3821C11.9659 19.5797 11.4854 19.4195 11.2878 19.0243C11.0902 18.6291 11.2503 18.1486 11.6455 17.951L16.9788 15.2844C16.9788 15.2843 16.9787 15.2844 16.9788 15.2844C17.9333 14.807 19.0261 14.9976 19.628 15.7502C19.9306 16.1285 20.076 16.6191 20.0041 17.1405C19.9333 17.6544 19.6613 18.14 19.2356 18.5656C19.2257 18.5755 19.2155 18.5851 19.2051 18.5945L12.5385 24.5945C12.2101 24.8901 11.7042 24.8634 11.4087 24.535C11.1131 24.2066 11.1397 23.7008 11.4681 23.4052L18.1179 17.4204C18.3477 17.1863 18.4069 17.0105 18.4191 16.9219C18.4306 16.8391 18.4093 16.788 18.3786 16.7496Z" fill="#808080"/>
<path fill-rule="evenodd" clip-rule="evenodd" d="M3.28515 22.3096C3.48275 21.9144 3.96328 21.7542 4.35847 21.9518L12.3585 25.9518C12.7537 26.1494 12.9138 26.63 12.7162 27.0251L11.3829 29.6918C11.1853 30.087 10.7048 30.2472 10.3096 30.0496L2.30959 26.0496C1.91441 25.852 1.75423 25.3714 1.95182 24.9763L3.28515 22.3096ZM10.9274 27.0251L4.35847 23.7407L3.74068 24.9763L10.3096 28.2607L10.9274 27.0251Z" fill="#808080"/>
</svg>
