<svg width="32" height="32" viewBox="0 0 32 32" fill="none" xmlns="http://www.w3.org/2000/svg">
<path fill-rule="evenodd" clip-rule="evenodd" d="M5.33385 24.8031C4.30292 24.8031 3.46719 25.6389 3.46719 26.6698C3.46719 27.7007 4.30292 28.5365 5.33385 28.5365H20.0005C20.4424 28.5365 20.8005 28.8946 20.8005 29.3365C20.8005 29.7783 20.4424 30.1365 20.0005 30.1365H5.33385C3.41927 30.1365 1.86719 28.5844 1.86719 26.6698C1.86719 24.7552 3.41927 23.2031 5.33385 23.2031H20.0005C20.4424 23.2031 20.8005 23.5613 20.8005 24.0031C20.8005 24.445 20.4424 24.8031 20.0005 24.8031H5.33385Z" fill="#61B761"/>
<path fill-rule="evenodd" clip-rule="evenodd" d="M8.66979 3.46719C7.63886 3.46719 6.80313 4.30292 6.80313 5.33385V22.0005C6.80313 22.4424 6.44495 22.8005 6.00313 22.8005C5.5613 22.8005 5.20312 22.4424 5.20312 22.0005V5.33385C5.20312 3.41927 6.7552 1.86719 8.66979 1.86719H26.6698C28.5844 1.86719 30.1365 3.41927 30.1365 5.33385C30.1365 7.24844 28.5844 8.80052 26.6698 8.80052H26.0031C25.5613 8.80052 25.2031 8.44235 25.2031 8.00052C25.2031 7.55869 25.5613 7.20052 26.0031 7.20052H26.6698C27.7007 7.20052 28.5365 6.36479 28.5365 5.33385C28.5365 4.30292 27.7007 3.46719 26.6698 3.46719H8.66979Z" fill="#61B761"/>
<path fill-rule="evenodd" clip-rule="evenodd" d="M25.9979 3.46719C24.967 3.46719 24.1313 4.30292 24.1313 5.33385V26.6672C24.1313 28.5818 22.5792 30.1339 20.6646 30.1339H19.9979C18.0833 30.1339 16.5312 28.5818 16.5312 26.6672C16.5312 24.7526 18.0833 23.2005 19.9979 23.2005H20.6646C21.1064 23.2005 21.4646 23.5587 21.4646 24.0005C21.4646 24.4424 21.1064 24.8005 20.6646 24.8005H19.9979C18.967 24.8005 18.1313 25.6363 18.1313 26.6672C18.1313 27.6981 18.967 28.5339 19.9979 28.5339H20.6646C21.6955 28.5339 22.5313 27.6981 22.5313 26.6672V5.33385C22.5313 3.41927 24.0833 1.86719 25.9979 1.86719H26.6646C27.1064 1.86719 27.4646 2.22536 27.4646 2.66719C27.4646 3.10902 27.1064 3.46719 26.6646 3.46719H25.9979Z" fill="#61B761"/>
<path fill-rule="evenodd" clip-rule="evenodd" d="M8.53125 16.0031C8.53125 15.5613 8.88942 15.2031 9.33125 15.2031H19.9979C20.4397 15.2031 20.7979 15.5613 20.7979 16.0031C20.7979 16.445 20.4397 16.8031 19.9979 16.8031H9.33125C8.88942 16.8031 8.53125 16.445 8.53125 16.0031Z" fill="#808080"/>
<path fill-rule="evenodd" clip-rule="evenodd" d="M8.53125 20.0031C8.53125 19.5613 8.88942 19.2031 9.33125 19.2031H14.6646C15.1064 19.2031 15.4646 19.5613 15.4646 20.0031C15.4646 20.445 15.1064 20.8031 14.6646 20.8031H9.33125C8.88942 20.8031 8.53125 20.445 8.53125 20.0031Z" fill="#808080"/>
<path fill-rule="evenodd" clip-rule="evenodd" d="M14.6645 4.53125C15.1063 4.53125 15.4645 4.88942 15.4645 5.33125V5.3833C15.9294 5.51708 16.2497 5.88545 16.4342 6.21469C16.6742 6.64312 16.7979 7.17996 16.7979 7.73142C16.7979 8.17325 16.4397 8.53142 15.9979 8.53142C15.5561 8.53142 15.1979 8.17325 15.1979 7.73142C15.1979 7.40287 15.1216 7.14541 15.0383 6.99669C15.0221 6.96777 15.0082 6.94659 14.997 6.93139H14.2564C14.1938 7.04597 14.1313 7.25518 14.1313 7.5257C14.1313 7.88622 14.1793 8.03898 14.2047 8.0942C14.2166 8.12016 14.2228 8.13286 14.2783 8.16671L15.8862 9.13148C16.1449 9.29191 16.4012 9.52492 16.5733 9.90241C16.7325 10.2515 16.7913 10.663 16.7913 11.1372C16.7913 11.6304 16.6813 12.1173 16.4645 12.509C16.2908 12.8227 15.963 13.2089 15.4645 13.3076V13.3313C15.4645 13.7731 15.1063 14.1313 14.6645 14.1313C14.2226 14.1313 13.8645 13.7731 13.8645 13.3313V13.2838C13.3924 13.1524 13.072 12.7731 12.8925 12.4495C12.6547 12.0208 12.5312 11.4825 12.5312 10.9315C12.5312 10.4896 12.8894 10.1315 13.3313 10.1315C13.7731 10.1315 14.1313 10.4896 14.1313 10.9315C14.1313 11.2605 14.2078 11.5221 14.2917 11.6735C14.3053 11.6981 14.3173 11.7171 14.3273 11.7315H14.6438C14.6507 11.7313 14.6576 11.7312 14.6645 11.7312C14.6714 11.7312 14.6782 11.7313 14.6851 11.7315H15.0661C15.1287 11.6169 15.1913 11.4077 15.1913 11.1372C15.1913 10.7771 15.1434 10.6229 15.1175 10.5662C15.105 10.5387 15.098 10.5259 15.0471 10.4939L13.4494 9.53527C13.1863 9.37551 12.9258 9.14248 12.7511 8.76295C12.5899 8.41245 12.5312 7.99948 12.5312 7.5257C12.5312 7.03247 12.6412 6.5456 12.858 6.1539C13.0324 5.83887 13.3623 5.45069 13.8645 5.354V5.33125C13.8645 4.88942 14.2226 4.53125 14.6645 4.53125ZM14.9657 6.89713C14.9658 6.8967 14.9687 6.89856 14.9742 6.90399C14.9683 6.90026 14.9656 6.89755 14.9657 6.89713ZM14.3624 11.7723C14.3623 11.7729 14.3589 11.7706 14.3526 11.7639C14.3594 11.7685 14.3625 11.7718 14.3624 11.7723Z" fill="#61B761"/>
</svg>
