<svg width="32" height="32" viewBox="0 0 32 32" fill="none" xmlns="http://www.w3.org/2000/svg">
<path fill-rule="evenodd" clip-rule="evenodd" d="M26.3025 20.4509C26.6074 20.7706 26.5955 21.277 26.2758 21.582L22.1994 25.4709C21.8902 25.7659 21.4036 25.7657 21.0945 25.4704L19.0598 23.5259C18.7404 23.2207 18.7289 22.7143 19.0341 22.3949C19.3394 22.0754 19.8458 22.0639 20.1652 22.3692L21.6477 23.7859L25.1714 20.4243C25.4911 20.1193 25.9975 20.1312 26.3025 20.4509Z" fill="#FFD500"/>
<path fill-rule="evenodd" clip-rule="evenodd" d="M22.6698 16.8031C19.4297 16.8031 16.8031 19.4297 16.8031 22.6698C16.8031 25.9099 19.4297 28.5365 22.6698 28.5365C25.9099 28.5365 28.5365 25.9099 28.5365 22.6698C28.5365 19.4297 25.9099 16.8031 22.6698 16.8031ZM15.2031 22.6698C15.2031 18.5461 18.5461 15.2031 22.6698 15.2031C26.7935 15.2031 30.1365 18.5461 30.1365 22.6698C30.1365 26.7935 26.7935 30.1365 22.6698 30.1365C18.5461 30.1365 15.2031 26.7935 15.2031 22.6698Z" fill="#595959"/>
<path fill-rule="evenodd" clip-rule="evenodd" d="M4.00052 3.46719C3.70597 3.46719 3.46719 3.70597 3.46719 4.00052V25.3339C3.46719 25.6284 3.70597 25.8672 4.00052 25.8672H14.0005C14.4424 25.8672 14.8005 26.2254 14.8005 26.6672C14.8005 27.109 14.4424 27.4672 14.0005 27.4672H4.00052C2.82231 27.4672 1.86719 26.5121 1.86719 25.3339V4.00052C1.86719 2.82231 2.82231 1.86719 4.00052 1.86719H28.0005C29.1787 1.86719 30.1339 2.82231 30.1339 4.00052V16.0005C30.1339 16.4423 29.7757 16.8005 29.3339 16.8005C28.892 16.8005 28.5339 16.4423 28.5339 16.0005V4.00052C28.5339 3.70597 28.2951 3.46719 28.0005 3.46719H4.00052Z" fill="#595959"/>
<path fill-rule="evenodd" clip-rule="evenodd" d="M13.3313 1.86719C13.7731 1.86719 14.1313 2.22536 14.1313 2.66719V7.20052H17.8646V2.66719C17.8646 2.22536 18.2228 1.86719 18.6646 1.86719C19.1064 1.86719 19.4646 2.22536 19.4646 2.66719V8.00052C19.4646 8.44235 19.1064 8.80052 18.6646 8.80052H13.3313C12.8894 8.80052 12.5312 8.44235 12.5312 8.00052V2.66719C12.5312 2.22536 12.8894 1.86719 13.3313 1.86719Z" fill="#595959"/>
</svg>
