<svg width="24" height="24" viewBox="0 0 24 24" fill="none" xmlns="http://www.w3.org/2000/svg">
<path fill-rule="evenodd" clip-rule="evenodd" d="M1.40039 21.9994C1.40039 21.668 1.66902 21.3994 2.00039 21.3994H22.0004C22.3318 21.3994 22.6004 21.668 22.6004 21.9994C22.6004 22.3308 22.3318 22.5994 22.0004 22.5994H2.00039C1.66902 22.5994 1.40039 22.3308 1.40039 21.9994Z" fill="#138300"/>
<path d="M4 13.3C4 13.1343 4.13431 13 4.3 13H7.7C7.86569 13 8 13.1343 8 13.3V19.7C8 19.8657 7.86569 20 7.7 20H4.3C4.13431 20 4 19.8657 4 19.7V13.3Z" fill="#138300"/>
<path d="M10 10.3C10 10.1343 10.1343 10 10.3 10H13.7C13.8657 10 14 10.1343 14 10.3V19.7C14 19.8657 13.8657 20 13.7 20H10.3C10.1343 20 10 19.8657 10 19.7V10.3Z" fill="#138300"/>
<path d="M16 8.3C16 8.13431 16.1343 8 16.3 8H19.7C19.8657 8 20 8.13431 20 8.3V19.7C20 19.8657 19.8657 20 19.7 20H16.3C16.1343 20 16 19.8657 16 19.7V8.3Z" fill="#138300"/>
<path fill-rule="evenodd" clip-rule="evenodd" d="M16.912 1.88186C16.977 1.55692 17.2931 1.34619 17.6181 1.41118L20.1181 1.91118C20.3985 1.96727 20.6004 2.21352 20.6004 2.49953V4.99953C20.6004 5.3309 20.3318 5.59953 20.0004 5.59953C19.669 5.59953 19.4004 5.3309 19.4004 4.99953V3.69953L14.3604 7.47953C14.2565 7.55742 14.1302 7.59953 14.0004 7.59953H10.7489L7.42465 10.9238C7.31213 11.0363 7.15952 11.0995 7.00039 11.0995H3.00039C2.66902 11.0995 2.40039 10.8309 2.40039 10.4995C2.40039 10.1682 2.66902 9.89953 3.00039 9.89953H6.75186L10.0761 6.57527C10.1886 6.46274 10.3413 6.39953 10.5004 6.39953H13.8004L18.5668 2.8247L17.3827 2.58788C17.0578 2.52289 16.8471 2.2068 16.912 1.88186Z" fill="#138300"/>
</svg>
