<svg width="32" height="32" viewBox="0 0 32 32" fill="none" xmlns="http://www.w3.org/2000/svg">
<path fill-rule="evenodd" clip-rule="evenodd" d="M15.2031 23.3313C15.2031 22.8894 15.5613 22.5312 16.0031 22.5312H22.0031C22.445 22.5312 22.8031 22.8894 22.8031 23.3313V29.3313C22.8031 29.7731 22.445 30.1313 22.0031 30.1313H16.0031C15.5613 30.1313 15.2031 29.7731 15.2031 29.3313V23.3313ZM16.8031 24.1313V28.5313H21.2031V24.1313H16.8031Z" fill="#61B761"/>
<path fill-rule="evenodd" clip-rule="evenodd" d="M21.2031 24.6672C21.2031 24.2254 21.5613 23.8672 22.0031 23.8672H29.3365C29.7783 23.8672 30.1365 24.2254 30.1365 24.6672V29.3339C30.1365 29.7757 29.7783 30.1339 29.3365 30.1339H22.0031C21.5613 30.1339 21.2031 29.7757 21.2031 29.3339C21.2031 28.892 21.5613 28.5339 22.0031 28.5339H28.5365V25.4672H22.0031C21.5613 25.4672 21.2031 25.109 21.2031 24.6672Z" fill="#61B761"/>
<path fill-rule="evenodd" clip-rule="evenodd" d="M18.6672 22.5312C19.109 22.5312 19.4672 22.8894 19.4672 23.3313V24.6646C19.4672 25.1064 19.109 25.4646 18.6672 25.4646C18.2254 25.4646 17.8672 25.1064 17.8672 24.6646V23.3313C17.8672 22.8894 18.2254 22.5312 18.6672 22.5312Z" fill="#61B761"/>
<path fill-rule="evenodd" clip-rule="evenodd" d="M26.0031 23.8672C26.445 23.8672 26.8031 24.2254 26.8031 24.6672V26.0005C26.8031 26.4423 26.445 26.8005 26.0031 26.8005C25.5613 26.8005 25.2031 26.4423 25.2031 26.0005V24.6672C25.2031 24.2254 25.5613 23.8672 26.0031 23.8672Z" fill="#61B761"/>
<path fill-rule="evenodd" clip-rule="evenodd" d="M19.8672 20.0031C19.8672 19.5613 20.2254 19.2031 20.6672 19.2031H27.3339C27.7757 19.2031 28.1339 19.5613 28.1339 20.0031V24.6698C28.1339 25.1116 27.7757 25.4698 27.3339 25.4698C26.892 25.4698 26.5339 25.1116 26.5339 24.6698V20.8031H21.4672V23.3365C21.4672 23.7783 21.109 24.1365 20.6672 24.1365C20.2254 24.1365 19.8672 23.7783 19.8672 23.3365V20.0031Z" fill="#61B761"/>
<path fill-rule="evenodd" clip-rule="evenodd" d="M24.0031 19.2031C24.445 19.2031 24.8031 19.5613 24.8031 20.0031V21.3365C24.8031 21.7783 24.445 22.1365 24.0031 22.1365C23.5613 22.1365 23.2031 21.7783 23.2031 21.3365V20.0031C23.2031 19.5613 23.5613 19.2031 24.0031 19.2031Z" fill="#61B761"/>
<path fill-rule="evenodd" clip-rule="evenodd" d="M16.5312 16.0031C16.5312 15.5613 16.8894 15.2031 17.3313 15.2031H24.6646C25.1064 15.2031 25.4646 15.5613 25.4646 16.0031V20.0031C25.4646 20.445 25.1064 20.8031 24.6646 20.8031C24.2228 20.8031 23.8646 20.445 23.8646 20.0031V16.8031H18.1313V23.3365C18.1313 23.7783 17.7731 24.1365 17.3313 24.1365C16.8894 24.1365 16.5312 23.7783 16.5312 23.3365V16.0031Z" fill="#61B761"/>
<path fill-rule="evenodd" clip-rule="evenodd" d="M21.0031 15.2031C21.445 15.2031 21.8031 15.5613 21.8031 16.0031V17.0031C21.8031 17.445 21.445 17.8031 21.0031 17.8031C20.5613 17.8031 20.2031 17.445 20.2031 17.0031V16.0031C20.2031 15.5613 20.5613 15.2031 21.0031 15.2031Z" fill="#61B761"/>
<path fill-rule="evenodd" clip-rule="evenodd" d="M18.0031 7.46719C17.5613 7.46719 17.2031 7.10902 17.2031 6.66719C17.2031 6.22536 17.5613 5.86719 18.0031 5.86719H21.3365C21.7783 5.86719 22.1365 6.22536 22.1365 6.66719V10.0005C22.1365 10.4423 21.7783 10.8005 21.3365 10.8005C20.8946 10.8005 20.5365 10.4423 20.5365 10.0005V8.59856L16.5688 12.5662C16.3495 12.7856 16.023 12.8583 15.7313 12.7529L12.789 11.6898L8.60823 16.5238C8.31921 16.858 7.814 16.8946 7.47982 16.6056C7.14563 16.3166 7.10902 15.8114 7.39805 15.4772L11.9386 10.2272C12.1553 9.97664 12.504 9.88556 12.8155 9.99813L15.7969 11.0754L19.4051 7.46719H18.0031Z" fill="#61B761"/>
<path fill-rule="evenodd" clip-rule="evenodd" d="M4.00052 3.46719C3.70597 3.46719 3.46719 3.70597 3.46719 4.00052V18.6672C3.46719 18.9617 3.70597 19.2005 4.00052 19.2005H14.6672C15.109 19.2005 15.4672 19.5587 15.4672 20.0005C15.4672 20.4424 15.109 20.8005 14.6672 20.8005H4.00052C2.82231 20.8005 1.86719 19.8454 1.86719 18.6672V4.00052C1.86719 2.82231 2.82231 1.86719 4.00052 1.86719H25.3339C26.5121 1.86719 27.4672 2.82231 27.4672 4.00052V13.3339C27.4672 13.7757 27.109 14.1339 26.6672 14.1339C26.2254 14.1339 25.8672 13.7757 25.8672 13.3339V4.00052C25.8672 3.70597 25.6284 3.46719 25.3339 3.46719H4.00052Z" fill="#61B761"/>
</svg>
