<svg width="20" height="20" viewBox="0 0 20 20" fill="none" xmlns="http://www.w3.org/2000/svg">
<path fill-rule="evenodd" clip-rule="evenodd" d="M8.03394 2.61039C5.03806 2.61039 2.60941 5.03903 2.60941 8.03492C2.60941 11.0308 5.03806 13.4594 8.03394 13.4594C11.0298 13.4594 13.4585 11.0308 13.4585 8.03492C13.4585 5.03903 11.0298 2.61039 8.03394 2.61039ZM1.66602 8.03492C1.66602 4.51801 4.51703 1.66699 8.03394 1.66699C11.5508 1.66699 14.4019 4.51801 14.4019 8.03492C14.4019 11.5518 11.5508 14.4028 8.03394 14.4028C4.51703 14.4028 1.66602 11.5518 1.66602 8.03492Z" fill="#707070"/>
<path fill-rule="evenodd" clip-rule="evenodd" d="M12.0249 12.0249C12.2091 11.8407 12.5077 11.8407 12.692 12.0249L18.1951 17.528C18.3793 17.7122 18.3793 18.0109 18.1951 18.1951C18.0109 18.3793 17.7122 18.3793 17.528 18.1951L12.0249 12.692C11.8407 12.5077 11.8407 12.2091 12.0249 12.0249Z" fill="#707070"/>
</svg>
