<svg width="48" height="48" viewBox="0 0 48 48" fill="none" xmlns="http://www.w3.org/2000/svg">
<path fill-rule="evenodd" clip-rule="evenodd" d="M0.796875 3.40313C0.796875 2.74038 1.33413 2.20312 1.99688 2.20312H5.46412C6.91104 2.20312 8.17793 3.17404 8.55409 4.57121L14.7571 27.6111C14.8512 27.9604 15.1679 28.2031 15.5296 28.2031H36.6689C36.9908 28.2031 37.2813 28.0102 37.4062 27.7136L44.8909 9.93746C45.1481 9.32665 45.8517 9.03998 46.4625 9.29716C47.0733 9.55434 47.36 10.258 47.1028 10.8688L39.6182 28.6449C39.1185 29.8315 37.9564 30.6031 36.6689 30.6031H15.5296C14.0827 30.6031 12.8158 29.6322 12.4397 28.235L6.23661 5.19515C6.14257 4.84585 5.82585 4.60313 5.46412 4.60313H1.99688C1.33413 4.60313 0.796875 4.06587 0.796875 3.40313Z" fill="#82C182"/>
<path fill-rule="evenodd" clip-rule="evenodd" d="M15.0716 28.8667C15.368 29.4595 15.1277 30.1803 14.5349 30.4767L12.1126 31.6878C11.3576 32.0654 11.6262 33.2034 12.4704 33.2034H39.9983C40.661 33.2034 41.1983 33.7406 41.1983 34.4034C41.1983 35.0661 40.661 35.6034 39.9983 35.6034H12.4704C9.09369 35.6034 8.01911 31.0513 11.0393 29.5412L13.4616 28.3301C14.0544 28.0337 14.7752 28.274 15.0716 28.8667Z" fill="#82C182"/>
<path fill-rule="evenodd" clip-rule="evenodd" d="M18.3938 41.4C18.3938 43.8301 16.4238 45.8 13.9938 45.8C11.5637 45.8 9.59375 43.8301 9.59375 41.4C9.59375 38.9699 11.5637 37 13.9938 37C16.4238 37 18.3938 38.9699 18.3938 41.4ZM13.9938 43.4C15.0983 43.4 15.9938 42.5046 15.9938 41.4C15.9938 40.2954 15.0983 39.4 13.9938 39.4C12.8892 39.4 11.9938 40.2954 11.9938 41.4C11.9938 42.5046 12.8892 43.4 13.9938 43.4Z" fill="#82C182"/>
<path fill-rule="evenodd" clip-rule="evenodd" d="M40.3938 41.4C40.3938 43.8301 38.4238 45.8 35.9938 45.8C33.5637 45.8 31.5938 43.8301 31.5938 41.4C31.5938 38.9699 33.5637 37 35.9938 37C38.4238 37 40.3938 38.9699 40.3938 41.4ZM35.9938 43.4C37.0983 43.4 37.9938 42.5046 37.9938 41.4C37.9938 40.2954 37.0983 39.4 35.9938 39.4C34.8892 39.4 33.9938 40.2954 33.9938 41.4C33.9938 42.5046 34.8892 43.4 35.9938 43.4Z" fill="#82C182"/>
<path fill-rule="evenodd" clip-rule="evenodd" d="M34 4.60625C34 3.94351 34.5373 3.40625 35.2 3.40625H39.2C39.8627 3.40625 40.4 3.94351 40.4 4.60625V8.60625C40.4 9.26899 39.8627 9.80625 39.2 9.80625C38.5373 9.80625 38 9.26899 38 8.60625V5.80625H35.2C34.5373 5.80625 34 5.26899 34 4.60625Z" fill="#82C182"/>
<path fill-rule="evenodd" clip-rule="evenodd" d="M39.003 4.71431C39.4956 5.15766 39.5356 5.91641 39.0922 6.40902L30.0922 16.409C29.8296 16.7008 29.4409 16.8457 29.0514 16.797L21.8939 15.9023L18.2736 23.1429C17.9772 23.7357 17.2564 23.976 16.6636 23.6796C16.0708 23.3832 15.8306 22.6624 16.127 22.0696L20.127 14.0696C20.3545 13.6145 20.8443 13.3524 21.3491 13.4155L28.7274 14.3378L37.3083 4.8035C37.7517 4.31089 38.5104 4.27096 39.003 4.71431Z" fill="#82C182"/>
</svg>
