<svg width="24" height="24" viewBox="0 0 24 24" fill="none" xmlns="http://www.w3.org/2000/svg">
<path fill-rule="evenodd" clip-rule="evenodd" d="M0.400391 1.69961C0.400391 1.36824 0.66902 1.09961 1.00039 1.09961H2.73401C3.45747 1.09961 4.09092 1.58507 4.279 2.28365L7.38052 13.8036C7.42754 13.9782 7.5859 14.0996 7.76677 14.0996H18.3364C18.4974 14.0996 18.6426 14.0032 18.7051 13.8548L22.4474 4.96678C22.576 4.66137 22.9278 4.51804 23.2332 4.64663C23.5386 4.77522 23.682 5.12704 23.5534 5.43244L19.811 14.3205C19.5612 14.9138 18.9802 15.2996 18.3364 15.2996H7.76677C7.04331 15.2996 6.40986 14.8142 6.22178 14.1156L3.12026 2.59562C3.07324 2.42097 2.91488 2.29961 2.73401 2.29961H1.00039C0.66902 2.29961 0.400391 2.03098 0.400391 1.69961Z" fill="#138300"/>
<path fill-rule="evenodd" clip-rule="evenodd" d="M7.53775 14.4314C7.68594 14.7278 7.56581 15.0882 7.26942 15.2364L6.05828 15.842C5.68075 16.0307 5.81507 16.5997 6.23716 16.5997H20.0011C20.3325 16.5997 20.6011 16.8684 20.6011 17.1997C20.6011 17.5311 20.3325 17.7997 20.0011 17.7997H6.23716C4.5488 17.7997 4.01151 15.5237 5.52162 14.7687L6.73276 14.1631C7.02915 14.0149 7.38956 14.135 7.53775 14.4314Z" fill="#138300"/>
<path fill-rule="evenodd" clip-rule="evenodd" d="M9.20078 20.7C9.20078 21.915 8.21581 22.9 7.00078 22.9C5.78575 22.9 4.80078 21.915 4.80078 20.7C4.80078 19.485 5.78575 18.5 7.00078 18.5C8.21581 18.5 9.20078 19.485 9.20078 20.7ZM7.00078 21.7C7.55307 21.7 8.00078 21.2523 8.00078 20.7C8.00078 20.1477 7.55307 19.7 7.00078 19.7C6.4485 19.7 6.00078 20.1477 6.00078 20.7C6.00078 21.2523 6.4485 21.7 7.00078 21.7Z" fill="#138300"/>
<path fill-rule="evenodd" clip-rule="evenodd" d="M20.2008 20.7C20.2008 21.915 19.2158 22.9 18.0008 22.9C16.7858 22.9 15.8008 21.915 15.8008 20.7C15.8008 19.485 16.7858 18.5 18.0008 18.5C19.2158 18.5 20.2008 19.485 20.2008 20.7ZM18.0008 21.7C18.5531 21.7 19.0008 21.2523 19.0008 20.7C19.0008 20.1477 18.5531 19.7 18.0008 19.7C17.4485 19.7 17.0008 20.1477 17.0008 20.7C17.0008 21.2523 17.4485 21.7 18.0008 21.7Z" fill="#138300"/>
<path fill-rule="evenodd" clip-rule="evenodd" d="M17 2.29922C17 1.96785 17.2686 1.69922 17.6 1.69922H19.6C19.9314 1.69922 20.2 1.96785 20.2 2.29922V4.29922C20.2 4.63059 19.9314 4.89922 19.6 4.89922C19.2686 4.89922 19 4.63059 19 4.29922V2.89922H17.6C17.2686 2.89922 17 2.63059 17 2.29922Z" fill="#138300"/>
<path fill-rule="evenodd" clip-rule="evenodd" d="M19.5015 2.35325C19.7478 2.57492 19.7678 2.9543 19.5461 3.2006L15.0461 8.2006C14.9148 8.34649 14.7205 8.41893 14.5257 8.39459L10.9469 7.94724L9.13679 11.5676C8.98859 11.8639 8.62819 11.9841 8.3318 11.8359C8.03542 11.6877 7.91528 11.3273 8.06348 11.0309L10.0635 7.0309C10.1772 6.80336 10.4221 6.6723 10.6746 6.70386L14.3637 7.165L18.6542 2.39785C18.8758 2.15154 19.2552 2.13157 19.5015 2.35325Z" fill="#138300"/>
</svg>
