<svg width="42" height="42" viewBox="0 0 42 42" fill="none" xmlns="http://www.w3.org/2000/svg">
    <path fill-rule="evenodd" clip-rule="evenodd" d="M2.4502 25.3752C2.4502 24.7953 2.9203 24.3252 3.5002 24.3252H7.87519C8.45509 24.3252 8.92519 24.7953 8.92519 25.3752V38.5002C8.92519 39.0801 8.45509 39.5502 7.87519 39.5502H3.5002C2.9203 39.5502 2.4502 39.0801 2.4502 38.5002V25.3752ZM4.5502 26.4252V37.4502H6.82519V26.4252H4.5502Z" fill="#9F7C00"/>
    <path fill-rule="evenodd" clip-rule="evenodd" d="M11.2002 17.5002C11.2002 16.9203 11.6703 16.4502 12.2502 16.4502H16.6252C17.2051 16.4502 17.6752 16.9203 17.6752 17.5002V38.5002C17.6752 39.0801 17.2051 39.5502 16.6252 39.5502H12.2502C11.6703 39.5502 11.2002 39.0801 11.2002 38.5002V17.5002ZM13.3002 18.5502V37.4502H15.5752V18.5502H13.3002Z" fill="#9F7C00"/>
    <path fill-rule="evenodd" clip-rule="evenodd" d="M19.9502 10.5002C19.9502 9.9203 20.4203 9.4502 21.0002 9.4502H25.3752C25.9551 9.4502 26.4252 9.9203 26.4252 10.5002V21.8752C26.4252 22.4551 25.9551 22.9252 25.3752 22.9252C24.7953 22.9252 24.3252 22.4551 24.3252 21.8752V11.5502H22.0502V29.7502C22.0502 30.3301 21.5801 30.8002 21.0002 30.8002C20.4203 30.8002 19.9502 30.3301 19.9502 29.7502V10.5002Z" fill="#9F7C00"/>
    <path fill-rule="evenodd" clip-rule="evenodd" d="M28.7002 3.5002C28.7002 2.9203 29.1703 2.4502 29.7502 2.4502H34.1252C34.7051 2.4502 35.1752 2.9203 35.1752 3.5002V21.8752C35.1752 22.4551 34.7051 22.9252 34.1252 22.9252C33.5453 22.9252 33.0752 22.4551 33.0752 21.8752V4.5502H30.8002V20.1252C30.8002 20.7051 30.3301 21.1752 29.7502 21.1752C29.1703 21.1752 28.7002 20.7051 28.7002 20.1252V3.5002Z" fill="#9F7C00"/>
    <path fill-rule="evenodd" clip-rule="evenodd" d="M28.7106 25.2265C28.1222 25.3297 27.6863 25.7215 27.4231 26.1176C27.1106 26.5879 26.9502 27.1772 26.9502 27.7752C26.9502 28.3253 27.0323 28.8333 27.2735 29.2702C27.5297 29.7343 27.8968 29.9955 28.2262 30.1621L30.3232 31.2106C30.3568 31.2282 30.3736 31.2399 30.3807 31.2452C30.3916 31.2676 30.4414 31.3889 30.4414 31.7252C30.4414 31.9465 30.3842 32.1111 30.3321 32.2002H29.2503C29.2411 32.1891 29.2298 32.1742 29.2167 32.1544C29.1343 32.0306 29.0502 31.8012 29.0502 31.5002C29.0502 30.9203 28.5801 30.4502 28.0002 30.4502C27.4203 30.4502 26.9502 30.9203 26.9502 31.5002C26.9502 32.1616 27.1286 32.8073 27.4684 33.3179C27.7332 33.7157 28.1525 34.1014 28.7067 34.2431C28.7654 34.7675 29.2102 35.1752 29.7502 35.1752C30.2802 35.1752 30.7184 34.7826 30.79 34.2723C31.3739 34.1667 31.8067 33.7769 32.0685 33.3828C32.381 32.9125 32.5414 32.3232 32.5414 31.7252C32.5414 31.1746 32.4592 30.6687 32.2212 30.2337C31.9684 29.7718 31.6067 29.51 31.2822 29.3424L29.1724 28.2874C29.136 28.2688 29.1175 28.2565 29.1096 28.2507C29.0981 28.2262 29.0502 28.1047 29.0502 27.7752C29.0502 27.5539 29.1074 27.3893 29.1595 27.3002H30.2435C30.2542 27.312 30.2684 27.3295 30.2854 27.3548C30.3666 27.4756 30.4502 27.7 30.4502 28.0002C30.4502 28.5801 30.9203 29.0502 31.5002 29.0502C32.0801 29.0502 32.5502 28.5801 32.5502 28.0002C32.5502 27.3379 32.3713 26.6935 32.0281 26.1831C31.7585 25.7821 31.3402 25.4066 30.7942 25.2624C30.7379 24.7355 30.292 24.3252 29.7502 24.3252C29.2208 24.3252 28.7829 24.717 28.7106 25.2265Z" fill="#9F7C00"/>
    <path fill-rule="evenodd" clip-rule="evenodd" d="M29.7502 22.0502C25.4976 22.0502 22.0502 25.4976 22.0502 29.7502C22.0502 34.0028 25.4976 37.4502 29.7502 37.4502C34.0028 37.4502 37.4502 34.0028 37.4502 29.7502C37.4502 25.4976 34.0028 22.0502 29.7502 22.0502ZM19.9502 29.7502C19.9502 24.3378 24.3378 19.9502 29.7502 19.9502C35.1626 19.9502 39.5502 24.3378 39.5502 29.7502C39.5502 35.1626 35.1626 39.5502 29.7502 39.5502C24.3378 39.5502 19.9502 35.1626 19.9502 29.7502Z" fill="#9F7C00"/>
    </svg>
    