<svg width="32" height="32" viewBox="0 0 32 32" fill="none" xmlns="http://www.w3.org/2000/svg">
<path fill-rule="evenodd" clip-rule="evenodd" d="M21.8804 19.2257C21.432 19.3044 21.0999 19.6029 20.8994 19.9047C20.6613 20.263 20.5391 20.712 20.5391 21.1676C20.5391 21.5868 20.6016 21.9738 20.7854 22.3067C20.9806 22.6603 21.2603 22.8593 21.5112 22.9862L23.109 23.7851C23.1345 23.7985 23.1474 23.8074 23.1528 23.8114C23.1611 23.8285 23.1991 23.9209 23.1991 24.1772C23.1991 24.3457 23.1555 24.4712 23.1158 24.5391H22.2916C22.2845 24.5306 22.2759 24.5192 22.2659 24.5042C22.2031 24.4098 22.1391 24.2351 22.1391 24.0057C22.1391 23.5639 21.7809 23.2057 21.3391 23.2057C20.8972 23.2057 20.5391 23.5639 20.5391 24.0057C20.5391 24.5097 20.675 25.0016 20.9339 25.3906C21.1356 25.6937 21.4551 25.9876 21.8774 26.0956C21.922 26.4951 22.2609 26.8057 22.6724 26.8057C23.0762 26.8057 23.4101 26.5066 23.4646 26.1178C23.9095 26.0373 24.2393 25.7403 24.4387 25.4401C24.6768 25.0818 24.7991 24.6328 24.7991 24.1772C24.7991 23.7576 24.7364 23.3722 24.555 23.0408C24.3625 22.6889 24.0869 22.4894 23.8396 22.3617L22.2322 21.5579C22.2044 21.5437 22.1903 21.5343 22.1843 21.5299C22.1756 21.5113 22.1391 21.4187 22.1391 21.1676C22.1391 20.999 22.1827 20.8736 22.2223 20.8057H23.0483C23.0564 20.8147 23.0672 20.828 23.0801 20.8473C23.1421 20.9394 23.2057 21.1104 23.2057 21.3391C23.2057 21.7809 23.5639 22.1391 24.0057 22.1391C24.4476 22.1391 24.8057 21.7809 24.8057 21.3391C24.8057 20.8344 24.6694 20.3435 24.408 19.9546C24.2026 19.6491 23.8838 19.363 23.4678 19.2531C23.4249 18.8517 23.0852 18.5391 22.6724 18.5391C22.269 18.5391 21.9354 18.8376 21.8804 19.2257Z" fill="#61B761"/>
<path fill-rule="evenodd" clip-rule="evenodd" d="M22.6698 16.8031C19.4297 16.8031 16.8031 19.4297 16.8031 22.6698C16.8031 25.9099 19.4297 28.5365 22.6698 28.5365C25.9099 28.5365 28.5365 25.9099 28.5365 22.6698C28.5365 19.4297 25.9099 16.8031 22.6698 16.8031ZM15.2031 22.6698C15.2031 18.5461 18.5461 15.2031 22.6698 15.2031C26.7935 15.2031 30.1365 18.5461 30.1365 22.6698C30.1365 26.7935 26.7935 30.1365 22.6698 30.1365C18.5461 30.1365 15.2031 26.7935 15.2031 22.6698Z" fill="#61B761"/>
<path fill-rule="evenodd" clip-rule="evenodd" d="M1.86719 19.3313C1.86719 18.8894 2.22536 18.5312 2.66719 18.5312H6.00052C6.44235 18.5312 6.80052 18.8894 6.80052 19.3313V29.3313C6.80052 29.7731 6.44235 30.1313 6.00052 30.1313H2.66719C2.22536 30.1313 1.86719 29.7731 1.86719 29.3313V19.3313ZM3.46719 20.1313V28.5313H5.20052V20.1313H3.46719Z" fill="#61B761"/>
<path fill-rule="evenodd" clip-rule="evenodd" d="M8.53125 13.3313C8.53125 12.8894 8.88942 12.5312 9.33125 12.5312H12.6646C13.1064 12.5312 13.4646 12.8894 13.4646 13.3313V29.3313C13.4646 29.7731 13.1064 30.1313 12.6646 30.1313H9.33125C8.88942 30.1313 8.53125 29.7731 8.53125 29.3313V13.3313ZM10.1313 14.1313V28.5312H11.8646V14.1313H10.1313Z" fill="#61B761"/>
<path fill-rule="evenodd" clip-rule="evenodd" d="M15.2031 8.00313C15.2031 7.5613 15.5613 7.20312 16.0031 7.20312H19.3365C19.7783 7.20312 20.1365 7.5613 20.1365 8.00313V16.6698C20.1365 17.1116 19.7783 17.4698 19.3365 17.4698C18.8946 17.4698 18.5365 17.1116 18.5365 16.6698V8.80313H16.8031V22.6698C16.8031 23.1116 16.445 23.4698 16.0031 23.4698C15.5613 23.4698 15.2031 23.1116 15.2031 22.6698V8.00313Z" fill="#61B761"/>
<path fill-rule="evenodd" clip-rule="evenodd" d="M21.8672 2.66719C21.8672 2.22536 22.2254 1.86719 22.6672 1.86719H26.0005C26.4423 1.86719 26.8005 2.22536 26.8005 2.66719V16.6672C26.8005 17.109 26.4423 17.4672 26.0005 17.4672C25.5587 17.4672 25.2005 17.109 25.2005 16.6672V3.46719H23.4672V15.3339C23.4672 15.7757 23.109 16.1339 22.6672 16.1339C22.2254 16.1339 21.8672 15.7757 21.8672 15.3339V2.66719Z" fill="#61B761"/>
</svg>
