<svg width="32" height="32" viewBox="0 0 32 32" fill="none" xmlns="http://www.w3.org/2000/svg">
<path fill-rule="evenodd" clip-rule="evenodd" d="M17.8672 7.99531C17.8672 7.55348 18.2254 7.19531 18.6672 7.19531H25.9464C26.666 7.19531 27.3372 7.55816 27.7313 8.16031L31.1188 13.3357C31.3461 13.6829 31.4672 14.0889 31.4672 14.504V21.3286C31.4672 22.5069 30.5121 23.462 29.3339 23.462H27.3339C26.892 23.462 26.5339 23.1038 26.5339 22.662C26.5339 22.2202 26.892 21.862 27.3339 21.862H29.3339C29.6284 21.862 29.8672 21.6232 29.8672 21.3286V14.504C29.8672 14.4002 29.8369 14.2987 29.7801 14.2119L26.3926 9.03656C26.2941 8.88602 26.1263 8.79531 25.9464 8.79531H18.6672C18.2254 8.79531 17.8672 8.43714 17.8672 7.99531Z" fill="#595959"/>
<path fill-rule="evenodd" clip-rule="evenodd" d="M20.5312 10.6672C20.5312 10.2254 20.8894 9.86719 21.3313 9.86719H25.3313C25.5987 9.86719 25.8485 10.0009 25.9969 10.2234L28.6636 14.2234C28.8272 14.4689 28.8425 14.7845 28.7033 15.0447C28.564 15.3048 28.293 15.4672 27.9979 15.4672H21.3313C20.8894 15.4672 20.5312 15.109 20.5312 14.6672V10.6672ZM22.1313 11.4672V13.8672H26.5031L24.9031 11.4672H22.1313Z" fill="#595959"/>
<path fill-rule="evenodd" clip-rule="evenodd" d="M5.86458 5.33125C5.86458 4.88942 6.22276 4.53125 6.66458 4.53125H17.3313C18.5095 4.53125 19.4646 5.48638 19.4646 6.66458V22.6646C19.4646 23.1064 19.1064 23.4646 18.6646 23.4646H13.3313C12.8894 23.4646 12.5313 23.1064 12.5313 22.6646C12.5313 22.2228 12.8894 21.8646 13.3313 21.8646H17.8646V6.66458C17.8646 6.37003 17.6258 6.13125 17.3313 6.13125H6.66458C6.22276 6.13125 5.86458 5.77308 5.86458 5.33125ZM3.33125 19.1979C3.77308 19.1979 4.13125 19.5561 4.13125 19.9979V21.3313C4.13125 21.6258 4.37003 21.8646 4.66458 21.8646H6.66458C7.10641 21.8646 7.46458 22.2228 7.46458 22.6646C7.46458 23.1064 7.10641 23.4646 6.66458 23.4646H4.66458C3.48638 23.4646 2.53125 22.5095 2.53125 21.3313V19.9979C2.53125 19.5561 2.88942 19.1979 3.33125 19.1979Z" fill="#595959"/>
<path fill-rule="evenodd" clip-rule="evenodd" d="M24.0005 20.7953C22.6014 20.7953 21.4672 21.9295 21.4672 23.3286C21.4672 24.7278 22.6014 25.862 24.0005 25.862C25.3996 25.862 26.5339 24.7278 26.5339 23.3286C26.5339 21.9295 25.3996 20.7953 24.0005 20.7953ZM19.8672 23.3286C19.8672 21.0459 21.7177 19.1953 24.0005 19.1953C26.2833 19.1953 28.1339 21.0459 28.1339 23.3286C28.1339 25.6114 26.2833 27.462 24.0005 27.462C21.7177 27.462 19.8672 25.6114 19.8672 23.3286Z" fill="#595959"/>
<path fill-rule="evenodd" clip-rule="evenodd" d="M10.0005 20.7953C8.6014 20.7953 7.46719 21.9295 7.46719 23.3286C7.46719 24.7278 8.6014 25.862 10.0005 25.862C11.3996 25.862 12.5339 24.7278 12.5339 23.3286C12.5339 21.9295 11.3996 20.7953 10.0005 20.7953ZM5.86719 23.3286C5.86719 21.0459 7.71774 19.1953 10.0005 19.1953C12.2833 19.1953 14.1339 21.0459 14.1339 23.3286C14.1339 25.6114 12.2833 27.462 10.0005 27.462C7.71774 27.462 5.86719 25.6114 5.86719 23.3286Z" fill="#595959"/>
<path fill-rule="evenodd" clip-rule="evenodd" d="M16.5312 22.6672C16.5312 22.2254 16.8894 21.8672 17.3313 21.8672H19.9979C20.4397 21.8672 20.7979 22.2254 20.7979 22.6672C20.7979 23.109 20.4397 23.4672 19.9979 23.4672H17.3313C16.8894 23.4672 16.5312 23.109 16.5312 22.6672Z" fill="#595959"/>
<path fill-rule="evenodd" clip-rule="evenodd" d="M2.53125 8.66719C2.53125 8.22536 2.88942 7.86719 3.33125 7.86719L12.6646 7.86719C13.1064 7.86719 13.4646 8.22536 13.4646 8.66719C13.4646 9.10902 13.1064 9.46719 12.6646 9.46719L3.33125 9.46719C2.88942 9.46719 2.53125 9.10902 2.53125 8.66719Z" fill="#F1CE1A"/>
<path fill-rule="evenodd" clip-rule="evenodd" d="M0.53125 12.6672C0.53125 12.2254 0.889422 11.8672 1.33125 11.8672L7.33125 11.8672C7.77308 11.8672 8.13125 12.2254 8.13125 12.6672C8.13125 13.109 7.77308 13.4672 7.33125 13.4672L1.33125 13.4672C0.889422 13.4672 0.53125 13.109 0.53125 12.6672Z" fill="#F1CE1A"/>
<path fill-rule="evenodd" clip-rule="evenodd" d="M1.86719 16.6672C1.86719 16.2254 2.22536 15.8672 2.66719 15.8672H9.33385C9.77568 15.8672 10.1339 16.2254 10.1339 16.6672C10.1339 17.109 9.77568 17.4672 9.33385 17.4672H2.66719C2.22536 17.4672 1.86719 17.109 1.86719 16.6672Z" fill="#F1CE1A"/>
</svg>
