<svg width="24" height="24" viewBox="0 0 24 24" fill="none" xmlns="http://www.w3.org/2000/svg">
<path fill-rule="evenodd" clip-rule="evenodd" d="M0.400391 6.9999C0.400391 5.01168 2.01217 3.3999 4.00039 3.3999H20.0004C21.9886 3.3999 23.6004 5.01168 23.6004 6.9999V16.9999C23.6004 18.9881 21.9886 20.5999 20.0004 20.5999H4.00039C2.01217 20.5999 0.400391 18.9881 0.400391 16.9999V6.9999ZM4.00039 4.5999C2.67491 4.5999 1.60039 5.67442 1.60039 6.9999V16.9999C1.60039 18.3254 2.67491 19.3999 4.00039 19.3999H20.0004C21.3259 19.3999 22.4004 18.3254 22.4004 16.9999V6.9999C22.4004 5.67442 21.3259 4.5999 20.0004 4.5999H4.00039Z" fill="#595959"/>
<path fill-rule="evenodd" clip-rule="evenodd" d="M4.64366 9.83105C4.64366 8.56487 5.67684 7.5 6.99989 7.5C8.32293 7.5 9.35611 8.56487 9.35611 9.83105C9.35611 11.0972 8.32293 12.1621 6.99989 12.1621C5.67684 12.1621 4.64366 11.0972 4.64366 9.83105ZM6.99989 8.64355C6.37615 8.64355 5.83327 9.15516 5.83327 9.83105C5.83327 10.5069 6.37615 11.0186 6.99989 11.0186C7.62362 11.0186 8.1665 10.5069 8.1665 9.83105C8.1665 9.15516 7.62362 8.64355 6.99989 8.64355ZM4.03737 12.1213C4.28851 11.9366 4.82475 11.6604 5.33286 11.9927C5.95195 12.3976 6.40609 12.5679 6.84804 12.5768C7.29275 12.5858 7.82745 12.4332 8.60667 11.9817C8.85146 11.8292 9.12125 11.8191 9.3388 11.864C9.55304 11.9083 9.74379 12.0088 9.89955 12.118C10.2128 12.3375 10.4981 12.6713 10.6974 13.0416C10.8971 13.4128 11.0368 13.8702 10.9914 14.3422C10.9442 14.8341 10.6972 15.3084 10.1913 15.6629C9.31426 16.2775 7.9964 16.5128 6.81683 16.4995C6.21405 16.4927 5.61409 16.421 5.08084 16.2843C4.55616 16.1498 4.05241 15.9411 3.68245 15.6323C2.75699 14.8596 2.92997 13.7467 3.28641 13.0416C3.47086 12.6767 3.73626 12.3428 4.03737 12.1213ZM4.78294 13.0173L4.77927 13.02C4.65554 13.111 4.49728 13.2917 4.37554 13.5325C4.12126 14.0355 4.14787 14.4998 4.4821 14.7789C4.66026 14.9276 4.9679 15.0748 5.39736 15.1849C5.81822 15.2928 6.3151 15.3545 6.83128 15.3603C7.88961 15.3723 8.89827 15.15 9.47176 14.7482C9.69114 14.5945 9.77211 14.4207 9.78953 14.2393C9.80888 14.0378 9.74983 13.7964 9.62141 13.5577C9.49249 13.3181 9.3201 13.1309 9.18001 13.0327C9.16592 13.0228 9.1532 13.0146 9.14188 13.0077C8.31271 13.4758 7.57059 13.7309 6.82224 13.7158C6.08824 13.701 5.43833 13.428 4.78294 13.0173Z" fill="#595959"/>
<path fill-rule="evenodd" clip-rule="evenodd" d="M12.9004 9.9999C12.9004 9.66853 13.169 9.3999 13.5004 9.3999H20.0004C20.3318 9.3999 20.6004 9.66853 20.6004 9.9999C20.6004 10.3313 20.3318 10.5999 20.0004 10.5999H13.5004C13.169 10.5999 12.9004 10.3313 12.9004 9.9999Z" fill="#595959"/>
<path fill-rule="evenodd" clip-rule="evenodd" d="M12.9004 14.9999C12.9004 14.6685 13.169 14.3999 13.5004 14.3999H20.0004C20.3318 14.3999 20.6004 14.6685 20.6004 14.9999C20.6004 15.3313 20.3318 15.5999 20.0004 15.5999H13.5004C13.169 15.5999 12.9004 15.3313 12.9004 14.9999Z" fill="#595959"/>
</svg>
