<svg width="20" height="20" viewBox="0 0 20 20" fill="none" xmlns="http://www.w3.org/2000/svg">
    <path fill-rule="evenodd" clip-rule="evenodd" d="M17.3863 3.76087C17.4942 3.83841 17.5669 3.95575 17.5882 4.08696L17.9936 6.58696C18.0378 6.85954 17.8526 7.11634 17.5801 7.16055C17.3075 7.20475 17.0507 7.01961 17.0065 6.74703L16.7891 5.40689L12.0215 11.7588C11.8725 11.9574 11.6003 12.0165 11.3824 11.8977L7.7418 9.91346L2.89458 16.1408C2.72497 16.3587 2.41082 16.3978 2.1929 16.2282C1.97499 16.0586 1.93585 15.7445 2.10546 15.5265L7.21357 8.96404C7.36402 8.77076 7.63234 8.71492 7.84741 8.83214L11.4813 10.8127L15.946 4.86441L14.6652 5.07692C14.3928 5.12212 14.1353 4.93792 14.0901 4.6655C14.0449 4.39308 14.2291 4.1356 14.5015 4.0904L17.0128 3.67374C17.1439 3.65198 17.2783 3.68333 17.3863 3.76087Z" fill="#138300"/>
    </svg>
    