<svg width="32" height="32" viewBox="0 0 32 32" fill="none" xmlns="http://www.w3.org/2000/svg">
<path fill-rule="evenodd" clip-rule="evenodd" d="M17.8672 4.00313C17.8672 3.5613 18.2254 3.20312 18.6672 3.20312H24.0005C25.1787 3.20312 26.1339 4.15825 26.1339 5.33646V13.3365C26.1339 13.7783 25.7757 14.1365 25.3339 14.1365C24.892 14.1365 24.5339 13.7783 24.5339 13.3365V5.33646C24.5339 5.04191 24.2951 4.80313 24.0005 4.80313H18.6672C18.2254 4.80313 17.8672 4.44495 17.8672 4.00313Z" fill="#61B761"/>
<path fill-rule="evenodd" clip-rule="evenodd" d="M4.00052 4.80313C3.70597 4.80313 3.46719 5.04191 3.46719 5.33646V28.0031C3.46719 28.2977 3.70597 28.5365 4.00052 28.5365H13.3339C13.7757 28.5365 14.1339 28.8946 14.1339 29.3365C14.1339 29.7783 13.7757 30.1365 13.3339 30.1365H4.00052C2.82231 30.1365 1.86719 29.1813 1.86719 28.0031V5.33646C1.86719 4.15825 2.82231 3.20312 4.00052 3.20312H10.0005C10.4423 3.20312 10.8005 3.5613 10.8005 4.00313C10.8005 4.44495 10.4423 4.80313 10.0005 4.80313H4.00052Z" fill="#61B761"/>
<path fill-rule="evenodd" clip-rule="evenodd" d="M9.20312 2.66719C9.20312 2.22536 9.5613 1.86719 10.0031 1.86719H18.0031C18.445 1.86719 18.8031 2.22536 18.8031 2.66719V5.33385C18.8031 5.77568 18.445 6.13385 18.0031 6.13385H10.0031C9.5613 6.13385 9.20312 5.77568 9.20312 5.33385V2.66719ZM10.8031 3.46719V4.53385H17.2031V3.46719H10.8031Z" fill="#61B761"/>
<path fill-rule="evenodd" clip-rule="evenodd" d="M6.53125 11.3313C6.53125 10.8894 6.88942 10.5312 7.33125 10.5312H20.6646C21.1064 10.5312 21.4646 10.8894 21.4646 11.3313C21.4646 11.7731 21.1064 12.1313 20.6646 12.1313H7.33125C6.88942 12.1313 6.53125 11.7731 6.53125 11.3313Z" fill="#61B761"/>
<path fill-rule="evenodd" clip-rule="evenodd" d="M6.53125 16.0031C6.53125 15.5613 6.88942 15.2031 7.33125 15.2031H14.6646C15.1064 15.2031 15.4646 15.5613 15.4646 16.0031C15.4646 16.445 15.1064 16.8031 14.6646 16.8031H7.33125C6.88942 16.8031 6.53125 16.445 6.53125 16.0031Z" fill="#61B761"/>
<path fill-rule="evenodd" clip-rule="evenodd" d="M6.53125 21.3313C6.53125 20.8894 6.88942 20.5312 7.33125 20.5312H13.3313C13.7731 20.5312 14.1312 20.8894 14.1312 21.3313C14.1312 21.7731 13.7731 22.1313 13.3313 22.1313H7.33125C6.88942 22.1313 6.53125 21.7731 6.53125 21.3313Z" fill="#61B761"/>
<path fill-rule="evenodd" clip-rule="evenodd" d="M15.2031 23.3391C15.2031 22.8972 15.5613 22.5391 16.0031 22.5391H22.0031C22.445 22.5391 22.8031 22.8972 22.8031 23.3391V29.3391C22.8031 29.7809 22.445 30.1391 22.0031 30.1391H16.0031C15.5613 30.1391 15.2031 29.7809 15.2031 29.3391V23.3391ZM16.8031 24.1391V28.5391H21.2031V24.1391H16.8031Z" fill="#61B761"/>
<path fill-rule="evenodd" clip-rule="evenodd" d="M21.2031 24.6672C21.2031 24.2254 21.5613 23.8672 22.0031 23.8672H29.3365C29.7783 23.8672 30.1365 24.2254 30.1365 24.6672V29.3339C30.1365 29.7757 29.7783 30.1339 29.3365 30.1339H22.0031C21.5613 30.1339 21.2031 29.7757 21.2031 29.3339C21.2031 28.892 21.5613 28.5339 22.0031 28.5339H28.5365V25.4672H22.0031C21.5613 25.4672 21.2031 25.109 21.2031 24.6672Z" fill="#61B761"/>
<path fill-rule="evenodd" clip-rule="evenodd" d="M18.6672 22.5391C19.109 22.5391 19.4672 22.8972 19.4672 23.3391V24.6724C19.4672 25.1142 19.109 25.4724 18.6672 25.4724C18.2254 25.4724 17.8672 25.1142 17.8672 24.6724V23.3391C17.8672 22.8972 18.2254 22.5391 18.6672 22.5391Z" fill="#61B761"/>
<path fill-rule="evenodd" clip-rule="evenodd" d="M26.0031 23.8672C26.445 23.8672 26.8031 24.2254 26.8031 24.6672V26.0005C26.8031 26.4423 26.445 26.8005 26.0031 26.8005C25.5613 26.8005 25.2031 26.4423 25.2031 26.0005V24.6672C25.2031 24.2254 25.5613 23.8672 26.0031 23.8672Z" fill="#61B761"/>
<path fill-rule="evenodd" clip-rule="evenodd" d="M19.8672 20.0031C19.8672 19.5613 20.2254 19.2031 20.6672 19.2031H27.3339C27.7757 19.2031 28.1339 19.5613 28.1339 20.0031V24.6698C28.1339 25.1116 27.7757 25.4698 27.3339 25.4698C26.892 25.4698 26.5339 25.1116 26.5339 24.6698V20.8031H21.4672V23.3365C21.4672 23.7783 21.109 24.1365 20.6672 24.1365C20.2254 24.1365 19.8672 23.7783 19.8672 23.3365V20.0031Z" fill="#61B761"/>
<path fill-rule="evenodd" clip-rule="evenodd" d="M24.0031 19.2031C24.445 19.2031 24.8031 19.5613 24.8031 20.0031V21.3365C24.8031 21.7783 24.445 22.1365 24.0031 22.1365C23.5613 22.1365 23.2031 21.7783 23.2031 21.3365V20.0031C23.2031 19.5613 23.5613 19.2031 24.0031 19.2031Z" fill="#61B761"/>
<path fill-rule="evenodd" clip-rule="evenodd" d="M16.5391 16.0031C16.5391 15.5613 16.8972 15.2031 17.3391 15.2031H24.6724C25.1142 15.2031 25.4724 15.5613 25.4724 16.0031V20.0031C25.4724 20.445 25.1142 20.8031 24.6724 20.8031C24.2306 20.8031 23.8724 20.445 23.8724 20.0031V16.8031H18.1391V23.3365C18.1391 23.7783 17.7809 24.1365 17.3391 24.1365C16.8972 24.1365 16.5391 23.7783 16.5391 23.3365V16.0031Z" fill="#61B761"/>
<path fill-rule="evenodd" clip-rule="evenodd" d="M21.0031 15.2031C21.445 15.2031 21.8031 15.5613 21.8031 16.0031V17.0031C21.8031 17.445 21.445 17.8031 21.0031 17.8031C20.5613 17.8031 20.2031 17.445 20.2031 17.0031V16.0031C20.2031 15.5613 20.5613 15.2031 21.0031 15.2031Z" fill="#61B761"/>
</svg>
