<svg width="48" height="48" viewBox="0 0 48 48" fill="none" xmlns="http://www.w3.org/2000/svg">
<path fill-rule="evenodd" clip-rule="evenodd" d="M21.9969 5.19688C20.4505 5.19688 19.1969 6.45048 19.1969 7.99687V9.99687C19.1969 10.6596 18.6596 11.1969 17.9969 11.1969C17.3341 11.1969 16.7969 10.6596 16.7969 9.99687V7.99687C16.7969 5.12499 19.125 2.79688 21.9969 2.79688H37.9969C40.8688 2.79688 43.1969 5.12499 43.1969 7.99687V39.9969C43.1969 42.8688 40.8688 45.1969 37.9969 45.1969H21.9969C19.125 45.1969 16.7969 42.8688 16.7969 39.9969V38.9969C16.7969 38.3341 17.3341 37.7969 17.9969 37.7969C18.6596 37.7969 19.1969 38.3341 19.1969 38.9969V39.9969C19.1969 41.5433 20.4505 42.7969 21.9969 42.7969H37.9969C39.5433 42.7969 40.7969 41.5433 40.7969 39.9969V7.99687C40.7969 6.45048 39.5433 5.19688 37.9969 5.19688H35.1969V5.99688C35.1969 6.65962 34.6596 7.19688 33.9969 7.19688H25.9969C25.3341 7.19688 24.7969 6.65962 24.7969 5.99688V5.19688H21.9969Z" fill="#61B761"/>
<path fill-rule="evenodd" clip-rule="evenodd" d="M4.79688 11.9969C4.79688 11.3341 5.33413 10.7969 5.99688 10.7969H7.84732C9.3003 10.7969 10.5709 11.7758 10.9415 13.1807L14.112 25.2006C14.2047 25.5519 14.5223 25.7966 14.8856 25.7966H25.6123C25.928 25.7966 26.2142 25.6109 26.3429 25.3226L29.6449 17.9228C29.881 17.3937 29.4938 16.7968 28.9143 16.7968H15.0404C14.3776 16.7968 13.8404 16.2595 13.8404 15.5968C13.8404 14.9341 14.3776 14.3968 15.0404 14.3968H28.9143C31.2321 14.3968 32.7811 16.7842 31.8366 18.9008L28.5345 26.3006C28.0199 27.4538 26.8752 28.1966 25.6123 28.1966H14.8856C14.769 28.1966 14.6535 28.1903 14.5396 28.178C14.4806 28.4732 14.6939 28.7968 15.0461 28.7968L27.9969 28.7969C28.6596 28.7969 29.1969 29.3341 29.1969 29.9969C29.1969 30.6596 28.6596 31.1969 27.9969 31.1969L15.0461 31.1968C12.7793 31.1968 11.5298 28.8285 12.407 27.021C12.1242 26.675 11.911 26.266 11.7914 25.8127L8.62086 13.7928C8.52822 13.4416 8.21056 13.1969 7.84732 13.1969H5.99688C5.33413 13.1969 4.79688 12.6596 4.79688 11.9969ZM14.9969 33.5969C14.2237 33.5969 13.5969 34.2237 13.5969 34.9969C13.5969 35.7701 14.2237 36.3969 14.9969 36.3969C15.7701 36.3969 16.3969 35.7701 16.3969 34.9969C16.3969 34.2237 15.7701 33.5969 14.9969 33.5969ZM18.3969 34.9969C18.3969 36.8746 16.8746 38.3969 14.9969 38.3969C13.1191 38.3969 11.5969 36.8746 11.5969 34.9969C11.5969 33.1191 13.1191 31.5969 14.9969 31.5969C16.8746 31.5969 18.3969 33.1191 18.3969 34.9969ZM26.9969 33.5969C26.2237 33.5969 25.5969 34.2237 25.5969 34.9969C25.5969 35.7701 26.2237 36.3969 26.9969 36.3969C27.7701 36.3969 28.3969 35.7701 28.3969 34.9969C28.3969 34.2237 27.7701 33.5969 26.9969 33.5969ZM30.3969 34.9969C30.3969 36.8746 28.8746 38.3969 26.9969 38.3969C25.1191 38.3969 23.5969 36.8746 23.5969 34.9969C23.5969 33.1191 25.1191 31.5969 26.9969 31.5969C28.8746 31.5969 30.3969 33.1191 30.3969 34.9969Z" fill="#61B761"/>
</svg>
