<svg xmlns="http://www.w3.org/2000/svg" width="20" height="20" viewBox="0 0 20 20" fill="none">
<path d="M7.4987 8.95833C6.23203 8.95833 5.20703 7.93333 5.20703 6.66667C5.20703 5.4 6.23203 4.375 7.4987 4.375C8.76536 4.375 9.79036 5.4 9.79036 6.66667C9.79036 7.93333 8.76536 8.95833 7.4987 8.95833ZM7.4987 5.625C6.9237 5.625 6.45703 6.09167 6.45703 6.66667C6.45703 7.24167 6.9237 7.70833 7.4987 7.70833C8.0737 7.70833 8.54036 7.24167 8.54036 6.66667C8.54036 6.09167 8.0737 5.625 7.4987 5.625Z" fill="#3750B2"/>
<path d="M12.5013 18.9577H7.5013C2.9763 18.9577 1.04297 17.0243 1.04297 12.4993V7.49935C1.04297 2.97435 2.9763 1.04102 7.5013 1.04102H10.8346C11.1763 1.04102 11.4596 1.32435 11.4596 1.66602C11.4596 2.00768 11.1763 2.29102 10.8346 2.29102H7.5013C3.65964 2.29102 2.29297 3.65768 2.29297 7.49935V12.4993C2.29297 16.341 3.65964 17.7077 7.5013 17.7077H12.5013C16.343 17.7077 17.7096 16.341 17.7096 12.4993V8.33268C17.7096 7.99102 17.993 7.70768 18.3346 7.70768C18.6763 7.70768 18.9596 7.99102 18.9596 8.33268V12.4993C18.9596 17.0243 17.0263 18.9577 12.5013 18.9577Z" fill="#3750B2"/>
<path d="M17.7083 4.79102H13.125C12.7833 4.79102 12.5 4.50768 12.5 4.16602C12.5 3.82435 12.7833 3.54102 13.125 3.54102H17.7083C18.05 3.54102 18.3333 3.82435 18.3333 4.16602C18.3333 4.50768 18.05 4.79102 17.7083 4.79102Z" fill="#3750B2"/>
<path d="M15.418 7.08333C15.0763 7.08333 14.793 6.8 14.793 6.45833V1.875C14.793 1.53333 15.0763 1.25 15.418 1.25C15.7596 1.25 16.043 1.53333 16.043 1.875V6.45833C16.043 6.8 15.7596 7.08333 15.418 7.08333Z" fill="#3750B2"/>
<path d="M2.22443 16.4168C2.02443 16.4168 1.82443 16.3168 1.70776 16.1418C1.5161 15.8585 1.5911 15.4668 1.87443 15.2751L5.98276 12.5168C6.88276 11.9168 8.12443 11.9835 8.9411 12.6751L9.2161 12.9168C9.63276 13.2751 10.3411 13.2751 10.7494 12.9168L14.2161 9.9418C15.1078 9.18346 16.4911 9.18346 17.3828 9.9418L18.7411 11.1085C18.9994 11.3335 19.0328 11.7251 18.8078 11.9918C18.5828 12.2501 18.1911 12.2835 17.9244 12.0585L16.5661 10.8918C16.1494 10.5335 15.4411 10.5335 15.0328 10.8918L11.5661 13.8668C10.6828 14.6251 9.2911 14.6251 8.39943 13.8668L8.12443 13.6251C7.7411 13.3001 7.10776 13.2668 6.68276 13.5585L2.58276 16.3168C2.4661 16.3835 2.3411 16.4168 2.22443 16.4168Z" fill="#3750B2"/>
</svg>