<svg xmlns="http://www.w3.org/2000/svg" width="17.8" height="17.8" viewBox="0 0 17.8 17.8">
    <g id="Group_4728" data-name="Group 4728" transform="translate(0.4 0.4)">
      <path id="Path_4247" data-name="Path 4247" d="M13.167,21.667,10.73,19.733A29.8,29.8,0,0,1,8.308,17.55c-1.7-1.714-3.641-4.1-3.641-7.371,0-3.044,2.01-5.512,4.489-5.512A4.5,4.5,0,0,1,13.167,7.7a4.5,4.5,0,0,1,4.011-3.035c2.479,0,4.489,2.468,4.489,5.512,0,3.271-1.946,5.657-3.641,7.371A29.8,29.8,0,0,1,15.6,19.733Z" transform="translate(-4.667 -4.667)" fill="none" stroke="#707070" stroke-linejoin="round" stroke-width="1.2"/>
    </g>
  </svg>