<svg xmlns="http://www.w3.org/2000/svg" width="20" height="21" viewBox="0 0 20 21" fill="none">
<path d="M6.23438 15.3077L8.81771 17.3077C9.15104 17.641 9.90104 17.8077 10.401 17.8077H13.5677C14.5677 17.8077 15.651 17.0577 15.901 16.0577L17.901 9.97434C18.3177 8.80767 17.5677 7.80767 16.3177 7.80767H12.9844C12.4844 7.80767 12.0677 7.391 12.151 6.80767L12.5677 4.14101C12.7344 3.39101 12.2344 2.55767 11.4844 2.30767C10.8177 2.05767 9.98437 2.39101 9.65104 2.89101L6.23438 7.97434" stroke="#8A8A8A" stroke-width="1.5" stroke-miterlimit="10"/>
<path d="M1.98438 15.3066V7.13997C1.98438 5.97331 2.48438 5.55664 3.65104 5.55664H4.48437C5.65104 5.55664 6.15104 5.97331 6.15104 7.13997V15.3066C6.15104 16.4733 5.65104 16.89 4.48437 16.89H3.65104C2.48438 16.89 1.98438 16.4733 1.98438 15.3066Z" stroke="#8A8A8A" stroke-width="1.5" stroke-linecap="round" stroke-linejoin="round"/>
</svg>