<svg xmlns="http://www.w3.org/2000/svg" width="1em" height="1em" viewBox="0 0 17 17">
    <g id="Group_5488" data-name="Group 5488" transform="translate(-4.667 -4.667)">
      <path id="Path_4543" data-name="Path 4543" d="M13.167,21.667,10.73,19.733A29.8,29.8,0,0,1,8.308,17.55c-1.7-1.714-3.641-4.1-3.641-7.371,0-3.044,2.01-5.512,4.489-5.512A4.5,4.5,0,0,1,13.167,7.7a4.5,4.5,0,0,1,4.011-3.035c2.479,0,4.489,2.468,4.489,5.512,0,3.271-1.946,5.657-3.641,7.371A29.8,29.8,0,0,1,15.6,19.733Z" fill="#ff2c00"/>
    </g>
  </svg>
  