<svg xmlns="http://www.w3.org/2000/svg" width="16" height="16" viewBox="0 0 16 16" fill="none">
<path d="M7.9987 15.2151C7.5387 15.2151 7.10536 14.9818 6.7987 14.5751L5.7987 13.2418C5.7787 13.2151 5.6987 13.1818 5.66536 13.1751H5.33203C2.55203 13.1751 0.832031 12.4218 0.832031 8.67513V5.3418C0.832031 2.39513 2.38536 0.841797 5.33203 0.841797H10.6654C13.612 0.841797 15.1654 2.39513 15.1654 5.3418V8.67513C15.1654 11.6218 13.612 13.1751 10.6654 13.1751H10.332C10.2787 13.1751 10.232 13.2018 10.1987 13.2418L9.1987 14.5751C8.89203 14.9818 8.4587 15.2151 7.9987 15.2151ZM5.33203 1.8418C2.94536 1.8418 1.83203 2.95513 1.83203 5.3418V8.67513C1.83203 11.6885 2.86536 12.1751 5.33203 12.1751H5.66536C6.00536 12.1751 6.39203 12.3685 6.5987 12.6418L7.5987 13.9751C7.83203 14.2818 8.16537 14.2818 8.3987 13.9751L9.3987 12.6418C9.6187 12.3485 9.96536 12.1751 10.332 12.1751H10.6654C13.052 12.1751 14.1654 11.0618 14.1654 8.67513V5.3418C14.1654 2.95513 13.052 1.8418 10.6654 1.8418H5.33203Z" fill="#8A8A8A"/>
<path d="M7.9987 8.00716C7.62536 8.00716 7.33203 7.70716 7.33203 7.34049C7.33203 6.97383 7.63203 6.67383 7.9987 6.67383C8.36536 6.67383 8.66536 6.97383 8.66536 7.34049C8.66536 7.70716 8.37203 8.00716 7.9987 8.00716Z" fill="#8A8A8A"/>
<path d="M10.6667 8.00716C10.2933 8.00716 10 7.70716 10 7.34049C10 6.97383 10.3 6.67383 10.6667 6.67383C11.0333 6.67383 11.3333 6.97383 11.3333 7.34049C11.3333 7.70716 11.04 8.00716 10.6667 8.00716Z" fill="#8A8A8A"/>
<path d="M5.33464 8.00716C4.9613 8.00716 4.66797 7.70716 4.66797 7.34049C4.66797 6.97383 4.96797 6.67383 5.33464 6.67383C5.7013 6.67383 6.0013 6.97383 6.0013 7.34049C6.0013 7.70716 5.70797 8.00716 5.33464 8.00716Z" fill="#8A8A8A"/>
</svg>