<svg xmlns="http://www.w3.org/2000/svg" width="24" height="24" viewBox="0 0 24 24" fill="none">
<path fill-rule="evenodd" clip-rule="evenodd" d="M12.713 2.31492C12.9933 2.19884 13.3159 2.26301 13.5304 2.4775L22.5304 11.4775C22.8233 11.7704 22.8233 12.2453 22.5304 12.5382L13.5304 21.5382C13.3159 21.7527 12.9933 21.8168 12.713 21.7007C12.4328 21.5847 12.25 21.3112 12.25 21.0078V15.686C11.0137 15.6396 9.43648 15.9793 7.80064 16.695C5.88907 17.5313 3.98601 18.8433 2.56947 20.4959C2.3547 20.7465 2.00138 20.8272 1.6991 20.6948C1.39682 20.5624 1.21661 20.248 1.25517 19.9202C1.77931 15.465 3.76204 12.6539 6.11528 10.9058C8.18019 9.37185 10.4895 8.68535 12.25 8.36911V3.00783C12.25 2.70449 12.4328 2.43101 12.713 2.31492ZM13.75 4.81849V9.00783C13.75 9.38107 13.4756 9.69751 13.1061 9.7503C11.4187 9.99135 9.05704 10.5891 7.00977 12.1099C5.40579 13.3014 3.96199 15.0827 3.19617 17.7878C4.43368 16.7584 5.81841 15.9249 7.19941 15.3207C9.27217 14.4139 11.4263 13.9852 13.1233 14.268C13.485 14.3283 13.75 14.6412 13.75 15.0078V19.1972L20.9394 12.0078L13.75 4.81849Z" fill="#8A8A8A"/>
</svg>