<svg xmlns="http://www.w3.org/2000/svg" width="25" height="24" viewBox="0 0 25 24" fill="none">
<path fill-rule="evenodd" clip-rule="evenodd" d="M12.5 2.75C10.1528 2.75 8.25 4.65279 8.25 7C8.25 9.34721 10.1528 11.25 12.5 11.25C14.8472 11.25 16.75 9.34721 16.75 7C16.75 4.65279 14.8472 2.75 12.5 2.75ZM6.75 7C6.75 3.82436 9.32436 1.25 12.5 1.25C15.6756 1.25 18.25 3.82436 18.25 7C18.25 10.1756 15.6756 12.75 12.5 12.75C9.32436 12.75 6.75 10.1756 6.75 7Z" fill="white"/>
<path fill-rule="evenodd" clip-rule="evenodd" d="M12.5002 15.75C8.02303 15.75 4.66016 18.6809 4.66016 22C4.66016 22.4142 4.32437 22.75 3.91016 22.75C3.49594 22.75 3.16016 22.4142 3.16016 22C3.16016 17.5791 7.49728 14.25 12.5002 14.25C13.5276 14.25 14.5247 14.3891 15.4596 14.647C15.8589 14.7572 16.0933 15.1701 15.9832 15.5694C15.873 15.9687 15.46 16.2031 15.0607 16.093C14.2556 15.8709 13.3927 15.75 12.5002 15.75Z" fill="white"/>
<path fill-rule="evenodd" clip-rule="evenodd" d="M18.5 14.75C16.7051 14.75 15.25 16.2051 15.25 18C15.25 19.7949 16.7051 21.25 18.5 21.25C20.2949 21.25 21.75 19.7949 21.75 18C21.75 16.2051 20.2949 14.75 18.5 14.75ZM13.75 18C13.75 15.3766 15.8766 13.25 18.5 13.25C21.1234 13.25 23.25 15.3766 23.25 18C23.25 20.6234 21.1234 22.75 18.5 22.75C15.8766 22.75 13.75 20.6234 13.75 18Z" fill="white"/>
<path fill-rule="evenodd" clip-rule="evenodd" d="M16.2598 17.9805C16.2598 17.5663 16.5956 17.2305 17.0098 17.2305H19.9897C20.404 17.2305 20.7397 17.5663 20.7397 17.9805C20.7397 18.3947 20.404 18.7305 19.9897 18.7305H17.0098C16.5956 18.7305 16.2598 18.3947 16.2598 17.9805Z" fill="white"/>
<path fill-rule="evenodd" clip-rule="evenodd" d="M18.5 15.7695C18.9142 15.7695 19.25 16.1053 19.25 16.5195V19.5095C19.25 19.9237 18.9142 20.2595 18.5 20.2595C18.0858 20.2595 17.75 19.9237 17.75 19.5095V16.5195C17.75 16.1053 18.0858 15.7695 18.5 15.7695Z" fill="white"/>
</svg>