<svg xmlns="http://www.w3.org/2000/svg" width="393" height="264" viewBox="0 0 393 264" fill="none">
  <g opacity="0.3">
    <path d="M95.943 194.823C82.1295 194.806 68.3894 192.548 55.1409 188.118C19.3365 176.311 -11.0676 151.079 -43.2649 124.364C-97.5899 79.2759 -153.776 32.669 -238.958 53.3761C-274.422 61.9948 -303.009 89.9194 -330.653 116.922C-333.839 120.036 -337.136 123.255 -340.343 126.345L-340.639 125.96C-337.435 122.872 -334.129 119.654 -330.951 116.543C-303.258 89.497 -274.629 61.5289 -239.05 52.8766C-153.67 32.1159 -97.4064 78.7965 -43.0016 123.945C20.7006 176.801 80.8667 226.723 182.033 167.806C194.742 160.405 207.946 148.554 223.232 134.833C252.02 108.994 287.849 76.8388 336.158 62.7256C392.711 46.2056 454.996 57.2581 526.572 96.52C532.375 99.7014 538.168 102.926 544.305 106.336C624.377 150.854 724.028 206.234 807.766 147.934L808 148.363C770.642 174.384 727.088 180.264 674.861 166.348C629.502 154.28 584.137 129.044 544.11 106.788C537.973 103.379 532.179 100.157 526.377 96.9726C364.846 8.36828 283.144 81.6895 223.51 135.226C208.203 148.97 194.985 160.83 182.237 168.252C157.84 182.463 135.23 190.78 113.114 193.679C107.415 194.434 101.681 194.816 95.943 194.823Z" fill="url(#paint0_linear_578_94811)"/>
    <path d="M70.3474 182.342C64.3556 182.344 58.369 181.945 52.4186 181.148C10.8471 175.952 -22.7824 152.419 -58.3826 127.512C-110.124 91.2969 -163.621 53.8618 -245.882 72.457C-278.727 79.9661 -306.451 103.355 -333.268 125.976C-337.819 129.815 -342.527 133.784 -347.12 137.548L-347.38 137.143C-342.791 133.378 -338.083 129.409 -333.535 125.571C-306.678 102.919 -278.908 79.4934 -245.971 71.9642C-163.529 53.3221 -109.956 90.8175 -58.14 127.076C-22.5842 151.96 11.0039 175.463 52.4778 180.649C86.9713 185.275 123.234 176.425 163.35 153.579C175.346 146.75 188.138 136.11 201.684 124.847C225.623 104.944 252.757 82.3831 287.224 69.7115C316.619 58.907 346.426 55.5782 378.339 59.5306C415.889 64.1802 455.466 78.6755 499.334 103.844C503.392 106.175 507.504 108.547 511.67 110.958C589.789 156.083 686.993 212.247 775.8 157.411L776.013 157.853C749.76 174.061 722.771 180.602 695.776 180.602C631.242 180.602 566.608 143.261 511.469 111.407C507.303 109 503.191 106.629 499.133 104.294C417.999 57.7438 350.707 46.9058 287.36 70.1942C252.962 82.8357 225.86 105.373 201.948 125.256C188.386 136.529 175.577 147.179 163.548 154.032C130.229 172.999 99.5561 182.342 70.3474 182.342Z" fill="url(#paint1_linear_578_94811)"/>
    <path d="M664.987 187.639C597.923 187.639 533.458 148.752 478.635 115.709C476.363 114.334 474.107 112.974 471.868 111.629C394.019 64.7874 329.242 50.215 268.035 65.7797C233.044 74.6666 204.984 96.1212 180.219 115.072C167.791 124.585 156.044 133.57 144.838 139.805C105.462 161.719 70.1846 171.816 36.9812 170.646C-5.13773 169.848 -38.6429 150.995 -74.1129 131.032C-123.171 103.426 -173.898 74.8744 -252.839 91.5319C-283.021 97.9013 -309.638 117.07 -335.378 135.608C-341.459 139.996 -347.741 144.528 -353.911 148.752L-354.141 148.323C-347.978 144.096 -341.687 139.564 -335.603 135.185C-309.827 116.624 -283.166 97.4286 -252.907 91.0425C-173.827 74.3615 -123.032 102.943 -73.9088 130.599C-38.4832 150.536 -5.0253 169.365 36.999 170.156C70.1224 171.306 105.353 161.236 144.646 139.359C155.825 133.141 167.555 124.163 179.977 114.663C204.779 95.6854 232.864 74.1872 267.937 65.2802C329.263 49.6954 394.128 64.2745 472.075 111.176L478.845 115.256C554.893 161.119 649.564 218.198 743.815 166.881L744.008 167.337C717.557 181.735 691.071 187.639 664.987 187.639Z" fill="url(#paint2_linear_578_94811)"/>
    <path d="M634.453 194.678C564.323 194.678 500.083 154.035 445.636 119.587L444.613 118.94C368.479 70.7678 308.065 53.0007 248.724 61.3378C213.216 66.326 183.921 86.7951 158.089 104.854C146.913 112.665 136.355 120.043 126.152 125.591C88.1343 146.258 52.9454 157.89 21.5677 160.163C-21.5928 164.132 -55.2815 150.106 -90.9409 135.236C-137.102 116 -184.828 96.1077 -259.751 110.63C-287.309 115.957 -312.605 131.253 -337.074 146.043C-344.806 150.717 -352.798 155.55 -360.699 159.962L-360.894 159.51C-352.999 155.101 -345.01 150.271 -337.284 145.601C-312.783 130.79 -287.448 115.474 -259.831 110.124C-184.79 95.5781 -137.004 115.487 -90.7929 134.753C-55.1808 149.593 -21.5514 163.616 21.5293 159.65C52.8536 157.381 87.9863 145.765 125.954 125.122C136.136 119.587 146.685 112.215 157.852 104.411C183.729 86.309 213.056 65.8265 248.662 60.8316C308.112 52.481 368.613 70.2649 444.829 118.491L445.852 119.141C519.734 165.886 611.68 224.068 711.84 176.365L712.012 176.827C685.526 189.439 659.604 194.678 634.453 194.678Z" fill="url(#paint3_linear_578_94811)"/>
    <path d="M604.451 201.718C582.134 201.718 559.388 197.826 535.925 190.045C493.753 176.056 455.774 151.883 417.357 126.245C340.872 75.1994 284.185 65.9035 229.363 56.8892C194.589 51.1903 164.178 72.7757 137.355 91.8301C126.901 99.2588 117.023 106.275 107.448 111.357C70.226 131.102 36.1349 143.988 6.13327 149.654C-38.995 159.04 -73.4382 149.989 -109.9 140.388C-150.752 129.644 -197.058 117.458 -266.69 129.701C-291.546 134.059 -315.242 145.825 -338.169 157.19C-347.726 161.93 -357.609 166.827 -367.487 171.159L-367.647 170.686C-357.778 166.362 -347.901 161.464 -338.352 156.727C-315.396 145.329 -291.664 133.573 -266.761 129.195C-197.043 116.939 -150.696 129.131 -109.802 139.889C-73.385 149.469 -38.9891 158.521 6.05634 149.151C36.0255 143.492 70.0721 130.619 107.255 110.891C116.807 105.826 126.673 98.823 137.118 91.3977C164.004 72.2896 194.476 50.6439 229.44 56.3864C284.301 65.394 341.034 74.7066 417.593 125.802C483.349 169.687 573.402 229.787 679.874 185.832L680.028 186.304C655.145 196.586 630.073 201.718 604.451 201.718Z" fill="url(#paint4_linear_578_94811)"/>
    <path d="M574.659 208.865C551.162 208.865 527.625 204.823 503.719 196.737C460.905 182.258 422.624 156.533 390.092 133.56C323.629 86.6008 272.82 71.3143 219.03 55.1563C216.038 54.2623 213.041 53.3594 210.041 52.4476C176.012 42.1762 143.826 62.8397 115.414 81.0762C106.096 87.06 97.2924 92.712 88.7527 97.1303C52.2588 116.014 19.2715 130.15 -9.28912 139.151C-58.3943 155.333 -93.2578 151.659 -133.628 147.401C-170.409 143.523 -212.096 139.128 -273.626 148.779C-295.629 152.232 -316.399 160.415 -338.388 169.077C-350.028 173.663 -362.06 178.403 -374.275 182.366L-374.396 181.883C-362.199 177.924 -350.167 173.184 -338.535 168.601C-316.523 159.929 -295.733 151.739 -273.685 148.279C-212.102 138.625 -170.391 143.02 -133.589 146.898C-93.2637 151.149 -58.4299 154.82 -9.41345 138.665C19.1295 129.671 52.0931 115.534 88.5663 96.671C97.0883 92.2628 105.886 86.6142 115.198 80.637C143.681 62.3536 175.964 41.6231 210.159 51.9616C213.159 52.8711 216.156 53.774 219.149 54.6702C272.971 70.8483 323.81 86.1314 390.338 133.134C463.491 184.813 543.637 232.184 647.89 195.312L648.023 195.795C623.377 204.507 599.039 208.865 574.659 208.865Z" fill="url(#paint5_linear_578_94811)"/>
    <path d="M545.335 216.08C520.393 216.08 495.919 211.872 471.49 203.452C430.341 189.258 394.954 164.987 362.842 140.874C293.122 88.5217 247.363 59.7859 190.763 48.016C152.227 40.004 115.934 58.9914 83.9147 75.7428C79.121 78.2503 74.5937 80.617 70.0545 82.9066C33.537 101.314 1.65045 116.701 -24.7176 128.642C-83.2325 155.383 -120.203 156.898 -171.37 158.993C-201.079 160.21 -234.75 161.588 -280.559 167.86C-299.447 170.448 -317.822 175.929 -337.275 181.735C-351.381 185.946 -365.978 190.297 -381.069 193.566L-381.152 193.073C-366.06 189.808 -351.493 185.456 -337.396 181.249C-317.926 175.44 -299.538 169.952 -280.618 167.361C-234.792 161.085 -201.109 159.708 -171.394 158.487C-120.271 156.395 -83.3332 154.884 -24.8892 128.176C1.47583 116.235 33.3535 100.851 69.8681 82.444C74.4043 80.1577 78.9316 77.791 83.7223 75.2835C115.801 58.4986 152.159 39.4811 190.84 47.5199C247.52 59.3065 293.317 88.0758 363.088 140.455C427.527 188.842 505.521 237.712 615.911 204.789L616.024 205.279C591.878 212.476 568.41 216.08 545.335 216.08Z" fill="url(#paint6_linear_578_94811)"/>
    <path d="M516.662 223.381C489.906 223.381 464.255 218.989 439.245 210.189C397.868 195.63 363.621 170.679 335.578 148.172C332.498 145.714 329.458 143.274 326.458 140.854C271.964 97.0731 228.922 62.4909 171.434 43.5572C130.188 29.9637 89.3118 50.0305 53.25 67.7306L51.3503 68.6625C17.9132 85.0686 -13.7485 102.185 -40.152 118.115C-124.988 168.235 -158.431 172.087 -269.247 184.826L-287.504 186.931C-302.734 188.698 -317.896 191.883 -333.961 195.252C-351.159 198.862 -368.946 202.596 -387.875 204.752L-387.919 204.252C-369.008 202.097 -351.227 198.366 -334.041 194.755C-317.979 191.383 -302.808 188.198 -287.56 186.428L-269.3 184.323C-158.555 171.584 -125.13 167.749 -40.371 117.676C-13.9468 101.723 17.7061 84.616 51.1609 68.2066L53.0606 67.2747C89.1935 49.5411 130.146 29.4407 171.546 43.0778C229.106 62.0384 272.177 96.6407 326.704 140.448L335.82 147.766C394.705 194.99 467.296 242.971 583.915 214.256L584.007 214.748C560.695 220.491 538.322 223.381 516.662 223.381Z" fill="url(#paint7_linear_578_94811)"/>
    <path d="M488.921 230.782C459.831 230.782 432.717 226.183 407 216.958C365.751 202.15 333.965 177.582 308.328 155.503C298.536 147.069 289.136 138.742 280.046 130.696C238.513 93.9018 202.643 62.1288 152.126 39.1321C112.884 21.2644 71.5162 35.9407 32.661 54.4621C-0.25531 70.1508 -30.766 88.5381 -55.5686 107.629L-61.1641 111.723C-143.775 172.181 -174.688 194.802 -294.428 206.029C-304.853 207.005 -315.334 208.376 -326.433 209.837C-347.871 212.653 -370.04 215.563 -394.642 215.965V215.462C-370.064 215.06 -347.907 212.15 -326.477 209.338C-315.375 207.88 -304.876 206.502 -294.458 205.526C-174.83 194.309 -143.943 171.708 -61.4008 111.297L-55.8083 107.207C-30.9849 88.0989 -0.447632 69.6983 32.4953 53.9962C71.4363 35.4345 112.901 20.728 152.298 38.6661C202.874 61.6963 238.767 93.4894 280.327 130.301C289.417 138.346 298.815 146.677 308.603 155.108C365.84 204.386 434.954 246.833 551.963 223.753L552.04 224.249C529.942 228.6 508.969 230.782 488.921 230.782Z" fill="url(#paint8_linear_578_94811)"/>
    <path d="M462.512 238.322C430.329 238.322 401.307 233.484 374.723 223.756C333.542 208.691 303.04 183.281 281.069 162.832C268.417 151.048 256.367 139.03 244.712 127.391C210.908 93.6538 178.98 61.787 132.813 34.6971C101.121 16.102 62.2455 17.9156 13.9629 40.2452C-17.6988 54.888 -47.881 75.0889 -71 97.1234C-85.5022 109.865 -98.0042 121.501 -110.08 132.748C-167.237 185.962 -201.736 218.101 -301.364 225.104C-304.041 225.291 -306.745 225.485 -309.475 225.684C-336.284 227.618 -366.67 229.814 -401.43 227.152L-401.4 226.649C-366.67 229.304 -336.301 227.115 -309.504 225.177L-301.391 224.598C-201.908 217.608 -167.45 185.52 -110.358 132.359C-98.2793 121.112 -85.7981 109.48 -71.2752 96.7178C-48.1237 74.6531 -17.9059 54.4254 13.8001 39.7624C35.7799 29.5983 55.1971 23.7888 73.1614 21.9953C95.3009 19.7996 115.44 23.9095 133.023 34.2245C179.237 61.3411 211.186 93.2247 245.013 126.989C256.663 138.618 268.709 150.643 281.359 162.419C332.642 210.173 397.058 251.801 519.985 233.216L520.044 233.716C499.778 236.786 480.642 238.322 462.512 238.322Z" fill="url(#paint9_linear_578_94811)"/>
    <path d="M438.171 246.045C401.701 246.045 370.095 240.923 342.404 230.595C301.738 215.432 273.698 190.314 253.811 170.129C240.495 156.62 228.242 142.691 215.26 127.944C186.584 95.3701 156.932 61.6896 113.499 30.2318C73.1851 1.03336 26.9413 11.8177 -4.72046 26.0045C-35.5743 39.8026 -64.5907 61.3309 -86.4313 86.5938C-105.881 106.731 -122.212 126.171 -136.623 143.321C-160.366 171.591 -180.89 196.019 -206.559 213.625C-234.312 232.673 -266.628 242.381 -308.297 244.181C-342.489 245.807 -374.239 243.954 -408.215 238.345L-408.153 237.846C-374.204 243.451 -342.48 245.305 -308.315 243.679C-218.289 239.79 -184.168 199.18 -136.945 142.973C-122.532 125.816 -106.192 106.372 -86.742 86.2317C-64.8659 60.922 -35.7903 39.3701 -4.89801 25.5352C26.885 11.3048 73.2679 0.496981 113.739 29.806C157.213 61.2941 186.88 94.9946 215.574 127.589C228.552 142.339 240.809 156.251 254.11 169.754C306.573 223.008 366.417 255.794 488.004 242.703L488.045 243.203C470.474 245.098 453.85 246.045 438.171 246.045Z" fill="url(#paint10_linear_578_94811)"/>
    <path d="M-319.701 263.303C-346.691 263.303 -377.956 258.781 -415 249.535L-414.905 249.042C-337.734 268.305 -285.362 267.514 -245.098 246.475C-208.11 227.155 -184.29 191.678 -156.694 150.599C-141.327 127.726 -123.913 101.803 -102.203 75.7459C-78.5307 42.9873 -45.1882 17.7144 -10.7332 6.42058C7.92648 0.306011 26.1038 -1.45058 43.2929 1.19102C62.0858 4.08405 79.2985 12.2234 94.4576 25.3811C136.304 61.7233 164.619 98.5046 189.6 130.958C248.68 207.705 291.373 263.162 456.026 252.18L456.049 252.683C380.088 257.748 325.035 248.835 282.8 224.634C244.022 202.419 218.648 169.456 189.265 131.29C164.297 98.8566 136.003 62.092 94.1854 25.78C32.7528 -27.5549 -53.7399 9.47452 -101.869 76.0644C-123.573 102.115 -140.981 128.025 -156.339 150.891C-183.97 192.023 -207.826 227.548 -244.912 246.92C-264.417 257.111 -286.684 262.435 -312.987 263.196C-315.201 263.267 -317.439 263.303 -319.701 263.303Z" fill="url(#paint11_linear_578_94811)"/>
  </g>
  <defs>
    <linearGradient id="paint0_linear_578_94811" x1="-415" y1="131.652" x2="456.049" y2="131.652" gradientUnits="userSpaceOnUse">
      <stop stop-color="#ABB9F2"/>
      <stop offset="0.06" stop-color="#8696D7"/>
      <stop offset="0.12" stop-color="#6879BA"/>
      <stop offset="0.18" stop-color="#44579F"/>
      <stop offset="0.24" stop-color="#4054A4"/>
      <stop offset="0.29" stop-color="#3750B2"/>
      <stop offset="0.33" stop-color="#3750B2"/>
      <stop offset="0.39" stop-color="#3750B2"/>
      <stop offset="0.46" stop-color="#7D8CC4"/>
      <stop offset="0.55" stop-color="#BAC5F1"/>
      <stop offset="0.58" stop-color="#CAD2F0"/>
      <stop offset="0.76" stop-color="#9CACED"/>
      <stop offset="0.8" stop-color="#7C8BC9"/>
      <stop offset="1" stop-color="#D1D9F9"/>
    </linearGradient>
    <linearGradient id="paint1_linear_578_94811" x1="-415" y1="131.652" x2="456.049" y2="131.652" gradientUnits="userSpaceOnUse">
      <stop stop-color="#ABB9F2"/>
      <stop offset="0.06" stop-color="#8696D7"/>
      <stop offset="0.12" stop-color="#6879BA"/>
      <stop offset="0.18" stop-color="#44579F"/>
      <stop offset="0.24" stop-color="#4054A4"/>
      <stop offset="0.29" stop-color="#3750B2"/>
      <stop offset="0.33" stop-color="#3750B2"/>
      <stop offset="0.39" stop-color="#3750B2"/>
      <stop offset="0.46" stop-color="#7D8CC4"/>
      <stop offset="0.55" stop-color="#BAC5F1"/>
      <stop offset="0.58" stop-color="#CAD2F0"/>
      <stop offset="0.76" stop-color="#9CACED"/>
      <stop offset="0.8" stop-color="#7C8BC9"/>
      <stop offset="1" stop-color="#D1D9F9"/>
    </linearGradient>
    <linearGradient id="paint2_linear_578_94811" x1="-415" y1="131.652" x2="456.049" y2="131.652" gradientUnits="userSpaceOnUse">
      <stop stop-color="#ABB9F2"/>
      <stop offset="0.06" stop-color="#8696D7"/>
      <stop offset="0.12" stop-color="#6879BA"/>
      <stop offset="0.18" stop-color="#44579F"/>
      <stop offset="0.24" stop-color="#4054A4"/>
      <stop offset="0.29" stop-color="#3750B2"/>
      <stop offset="0.33" stop-color="#3750B2"/>
      <stop offset="0.39" stop-color="#3750B2"/>
      <stop offset="0.46" stop-color="#7D8CC4"/>
      <stop offset="0.55" stop-color="#BAC5F1"/>
      <stop offset="0.58" stop-color="#CAD2F0"/>
      <stop offset="0.76" stop-color="#9CACED"/>
      <stop offset="0.8" stop-color="#7C8BC9"/>
      <stop offset="1" stop-color="#D1D9F9"/>
    </linearGradient>
    <linearGradient id="paint3_linear_578_94811" x1="-415" y1="131.652" x2="456.049" y2="131.652" gradientUnits="userSpaceOnUse">
      <stop stop-color="#ABB9F2"/>
      <stop offset="0.06" stop-color="#8696D7"/>
      <stop offset="0.12" stop-color="#6879BA"/>
      <stop offset="0.18" stop-color="#44579F"/>
      <stop offset="0.24" stop-color="#4054A4"/>
      <stop offset="0.29" stop-color="#3750B2"/>
      <stop offset="0.33" stop-color="#3750B2"/>
      <stop offset="0.39" stop-color="#3750B2"/>
      <stop offset="0.46" stop-color="#7D8CC4"/>
      <stop offset="0.55" stop-color="#BAC5F1"/>
      <stop offset="0.58" stop-color="#CAD2F0"/>
      <stop offset="0.76" stop-color="#9CACED"/>
      <stop offset="0.8" stop-color="#7C8BC9"/>
      <stop offset="1" stop-color="#D1D9F9"/>
    </linearGradient>
    <linearGradient id="paint4_linear_578_94811" x1="-415" y1="131.652" x2="456.049" y2="131.652" gradientUnits="userSpaceOnUse">
      <stop stop-color="#ABB9F2"/>
      <stop offset="0.06" stop-color="#8696D7"/>
      <stop offset="0.12" stop-color="#6879BA"/>
      <stop offset="0.18" stop-color="#44579F"/>
      <stop offset="0.24" stop-color="#4054A4"/>
      <stop offset="0.29" stop-color="#3750B2"/>
      <stop offset="0.33" stop-color="#3750B2"/>
      <stop offset="0.39" stop-color="#3750B2"/>
      <stop offset="0.46" stop-color="#7D8CC4"/>
      <stop offset="0.55" stop-color="#BAC5F1"/>
      <stop offset="0.58" stop-color="#CAD2F0"/>
      <stop offset="0.76" stop-color="#9CACED"/>
      <stop offset="0.8" stop-color="#7C8BC9"/>
      <stop offset="1" stop-color="#D1D9F9"/>
    </linearGradient>
    <linearGradient id="paint5_linear_578_94811" x1="-415" y1="131.652" x2="456.049" y2="131.652" gradientUnits="userSpaceOnUse">
      <stop stop-color="#ABB9F2"/>
      <stop offset="0.06" stop-color="#8696D7"/>
      <stop offset="0.12" stop-color="#6879BA"/>
      <stop offset="0.18" stop-color="#44579F"/>
      <stop offset="0.24" stop-color="#4054A4"/>
      <stop offset="0.29" stop-color="#3750B2"/>
      <stop offset="0.33" stop-color="#3750B2"/>
      <stop offset="0.39" stop-color="#3750B2"/>
      <stop offset="0.46" stop-color="#7D8CC4"/>
      <stop offset="0.55" stop-color="#BAC5F1"/>
      <stop offset="0.58" stop-color="#CAD2F0"/>
      <stop offset="0.76" stop-color="#9CACED"/>
      <stop offset="0.8" stop-color="#7C8BC9"/>
      <stop offset="1" stop-color="#D1D9F9"/>
    </linearGradient>
    <linearGradient id="paint6_linear_578_94811" x1="-415" y1="131.652" x2="456.049" y2="131.652" gradientUnits="userSpaceOnUse">
      <stop stop-color="#ABB9F2"/>
      <stop offset="0.06" stop-color="#8696D7"/>
      <stop offset="0.12" stop-color="#6879BA"/>
      <stop offset="0.18" stop-color="#44579F"/>
      <stop offset="0.24" stop-color="#4054A4"/>
      <stop offset="0.29" stop-color="#3750B2"/>
      <stop offset="0.33" stop-color="#3750B2"/>
      <stop offset="0.39" stop-color="#3750B2"/>
      <stop offset="0.46" stop-color="#7D8CC4"/>
      <stop offset="0.55" stop-color="#BAC5F1"/>
      <stop offset="0.58" stop-color="#CAD2F0"/>
      <stop offset="0.76" stop-color="#9CACED"/>
      <stop offset="0.8" stop-color="#7C8BC9"/>
      <stop offset="1" stop-color="#D1D9F9"/>
    </linearGradient>
    <linearGradient id="paint7_linear_578_94811" x1="-415" y1="131.652" x2="456.049" y2="131.652" gradientUnits="userSpaceOnUse">
      <stop stop-color="#ABB9F2"/>
      <stop offset="0.06" stop-color="#8696D7"/>
      <stop offset="0.12" stop-color="#6879BA"/>
      <stop offset="0.18" stop-color="#44579F"/>
      <stop offset="0.24" stop-color="#4054A4"/>
      <stop offset="0.29" stop-color="#3750B2"/>
      <stop offset="0.33" stop-color="#3750B2"/>
      <stop offset="0.39" stop-color="#3750B2"/>
      <stop offset="0.46" stop-color="#7D8CC4"/>
      <stop offset="0.55" stop-color="#BAC5F1"/>
      <stop offset="0.58" stop-color="#CAD2F0"/>
      <stop offset="0.76" stop-color="#9CACED"/>
      <stop offset="0.8" stop-color="#7C8BC9"/>
      <stop offset="1" stop-color="#D1D9F9"/>
    </linearGradient>
    <linearGradient id="paint8_linear_578_94811" x1="-415" y1="131.652" x2="456.049" y2="131.652" gradientUnits="userSpaceOnUse">
      <stop stop-color="#ABB9F2"/>
      <stop offset="0.06" stop-color="#8696D7"/>
      <stop offset="0.12" stop-color="#6879BA"/>
      <stop offset="0.18" stop-color="#44579F"/>
      <stop offset="0.24" stop-color="#4054A4"/>
      <stop offset="0.29" stop-color="#3750B2"/>
      <stop offset="0.33" stop-color="#3750B2"/>
      <stop offset="0.39" stop-color="#3750B2"/>
      <stop offset="0.46" stop-color="#7D8CC4"/>
      <stop offset="0.55" stop-color="#BAC5F1"/>
      <stop offset="0.58" stop-color="#CAD2F0"/>
      <stop offset="0.76" stop-color="#9CACED"/>
      <stop offset="0.8" stop-color="#7C8BC9"/>
      <stop offset="1" stop-color="#D1D9F9"/>
    </linearGradient>
    <linearGradient id="paint9_linear_578_94811" x1="-415" y1="131.652" x2="456.049" y2="131.652" gradientUnits="userSpaceOnUse">
      <stop stop-color="#ABB9F2"/>
      <stop offset="0.06" stop-color="#8696D7"/>
      <stop offset="0.12" stop-color="#6879BA"/>
      <stop offset="0.18" stop-color="#44579F"/>
      <stop offset="0.24" stop-color="#4054A4"/>
      <stop offset="0.29" stop-color="#3750B2"/>
      <stop offset="0.33" stop-color="#3750B2"/>
      <stop offset="0.39" stop-color="#3750B2"/>
      <stop offset="0.46" stop-color="#7D8CC4"/>
      <stop offset="0.55" stop-color="#BAC5F1"/>
      <stop offset="0.58" stop-color="#CAD2F0"/>
      <stop offset="0.76" stop-color="#9CACED"/>
      <stop offset="0.8" stop-color="#7C8BC9"/>
      <stop offset="1" stop-color="#D1D9F9"/>
    </linearGradient>
    <linearGradient id="paint10_linear_578_94811" x1="-415" y1="131.652" x2="456.049" y2="131.652" gradientUnits="userSpaceOnUse">
      <stop stop-color="#ABB9F2"/>
      <stop offset="0.06" stop-color="#8696D7"/>
      <stop offset="0.12" stop-color="#6879BA"/>
      <stop offset="0.18" stop-color="#44579F"/>
      <stop offset="0.24" stop-color="#4054A4"/>
      <stop offset="0.29" stop-color="#3750B2"/>
      <stop offset="0.33" stop-color="#3750B2"/>
      <stop offset="0.39" stop-color="#3750B2"/>
      <stop offset="0.46" stop-color="#7D8CC4"/>
      <stop offset="0.55" stop-color="#BAC5F1"/>
      <stop offset="0.58" stop-color="#CAD2F0"/>
      <stop offset="0.76" stop-color="#9CACED"/>
      <stop offset="0.8" stop-color="#7C8BC9"/>
      <stop offset="1" stop-color="#D1D9F9"/>
    </linearGradient>
    <linearGradient id="paint11_linear_578_94811" x1="-415" y1="131.652" x2="456.049" y2="131.652" gradientUnits="userSpaceOnUse">
      <stop stop-color="#ABB9F2"/>
      <stop offset="0.06" stop-color="#8696D7"/>
      <stop offset="0.12" stop-color="#6879BA"/>
      <stop offset="0.18" stop-color="#44579F"/>
      <stop offset="0.24" stop-color="#4054A4"/>
      <stop offset="0.29" stop-color="#3750B2"/>
      <stop offset="0.33" stop-color="#3750B2"/>
      <stop offset="0.39" stop-color="#3750B2"/>
      <stop offset="0.46" stop-color="#7D8CC4"/>
      <stop offset="0.55" stop-color="#BAC5F1"/>
      <stop offset="0.58" stop-color="#CAD2F0"/>
      <stop offset="0.76" stop-color="#9CACED"/>
      <stop offset="0.8" stop-color="#7C8BC9"/>
      <stop offset="1" stop-color="#D1D9F9"/>
    </linearGradient>
  </defs>
</svg>