<svg width="16" height="16" viewBox="0 0 16 16" fill="none" xmlns="http://www.w3.org/2000/svg">
<path fill-rule="evenodd" clip-rule="evenodd" d="M0.933594 5.33229C0.933594 4.74319 1.41116 4.26562 2.00026 4.26562H6.00026C6.22117 4.26562 6.40026 4.44471 6.40026 4.66563C6.40026 4.88654 6.22117 5.06563 6.00026 5.06563H2.00026C1.85298 5.06563 1.73359 5.18502 1.73359 5.33229V13.3323C1.73359 13.4796 1.85298 13.599 2.00026 13.599H14.0003C14.1475 13.599 14.2669 13.4796 14.2669 13.3323V5.33229C14.2669 5.18502 14.1475 5.06563 14.0003 5.06563H10.0003C9.77935 5.06563 9.60026 4.88654 9.60026 4.66563C9.60026 4.44471 9.77935 4.26562 10.0003 4.26562H14.0003C14.5894 4.26562 15.0669 4.74319 15.0669 5.33229V13.3323C15.0669 13.9214 14.5894 14.399 14.0003 14.399H2.00026C1.41116 14.399 0.933594 13.9214 0.933594 13.3323V5.33229Z" fill="#333333"/>
<path fill-rule="evenodd" clip-rule="evenodd" d="M6.93359 2.66628C6.93359 2.07717 7.41116 1.59961 8.00026 1.59961C8.58936 1.59961 9.06693 2.07717 9.06693 2.66628V5.33294C9.06693 5.92205 8.58936 6.39961 8.00026 6.39961C7.41116 6.39961 6.93359 5.92205 6.93359 5.33294V2.66628ZM8.00026 2.39961C7.85298 2.39961 7.73359 2.519 7.73359 2.66628V5.33294C7.73359 5.48022 7.85298 5.59961 8.00026 5.59961C8.14754 5.59961 8.26693 5.48022 8.26693 5.33294V2.66628C8.26693 2.519 8.14754 2.39961 8.00026 2.39961Z" fill="#333333"/>
<path fill-rule="evenodd" clip-rule="evenodd" d="M2.93359 8.66563C2.93359 8.44471 3.11268 8.26562 3.33359 8.26562H4.00026C4.22117 8.26562 4.40026 8.44471 4.40026 8.66563C4.40026 8.88654 4.22117 9.06563 4.00026 9.06563H3.33359C3.11268 9.06563 2.93359 8.88654 2.93359 8.66563Z" fill="#333333"/>
<path fill-rule="evenodd" clip-rule="evenodd" d="M2.93359 11.3336C2.93359 11.1127 3.11268 10.9336 3.33359 10.9336H4.00026C4.22117 10.9336 4.40026 11.1127 4.40026 11.3336C4.40026 11.5545 4.22117 11.7336 4.00026 11.7336H3.33359C3.11268 11.7336 2.93359 11.5545 2.93359 11.3336Z" fill="#333333"/>
<path fill-rule="evenodd" clip-rule="evenodd" d="M6.26758 8.66563C6.26758 8.44471 6.44666 8.26562 6.66758 8.26562H12.6676C12.8885 8.26562 13.0676 8.44471 13.0676 8.66563C13.0676 8.88654 12.8885 9.06563 12.6676 9.06563H6.66758C6.44666 9.06563 6.26758 8.88654 6.26758 8.66563Z" fill="#333333"/>
<path fill-rule="evenodd" clip-rule="evenodd" d="M6.26758 11.3336C6.26758 11.1127 6.44666 10.9336 6.66758 10.9336H12.6676C12.8885 10.9336 13.0676 11.1127 13.0676 11.3336C13.0676 11.5545 12.8885 11.7336 12.6676 11.7336H6.66758C6.44666 11.7336 6.26758 11.5545 6.26758 11.3336Z" fill="#333333"/>
</svg>
