<svg width="16" height="16" viewBox="0 0 16 16" fill="none" xmlns="http://www.w3.org/2000/svg">
<path fill-rule="evenodd" clip-rule="evenodd" d="M4.93359 2.00026C4.93359 1.41116 5.41116 0.933594 6.00026 0.933594H10.0003C10.5894 0.933594 11.0669 1.41116 11.0669 2.00026V4.66693C11.0669 5.25603 10.5894 5.73359 10.0003 5.73359H6.00026C5.41116 5.73359 4.93359 5.25603 4.93359 4.66693V2.00026ZM6.00026 1.73359C5.85298 1.73359 5.73359 1.85298 5.73359 2.00026V4.66693C5.73359 4.8142 5.85298 4.93359 6.00026 4.93359H10.0003C10.1475 4.93359 10.2669 4.8142 10.2669 4.66693V2.00026C10.2669 1.85298 10.1475 1.73359 10.0003 1.73359H6.00026Z" fill="#333333"/>
<path fill-rule="evenodd" clip-rule="evenodd" d="M0.267578 12.0003C0.267578 11.4112 0.745141 10.9336 1.33424 10.9336H4.00091C4.59002 10.9336 5.06758 11.4112 5.06758 12.0003V14.0003C5.06758 14.5894 4.59002 15.0669 4.00091 15.0669H1.33424C0.745141 15.0669 0.267578 14.5894 0.267578 14.0003V12.0003ZM1.33424 11.7336C1.18697 11.7336 1.06758 11.853 1.06758 12.0003V14.0003C1.06758 14.1475 1.18697 14.2669 1.33424 14.2669H4.00091C4.14819 14.2669 4.26758 14.1475 4.26758 14.0003V12.0003C4.26758 11.853 4.14819 11.7336 4.00091 11.7336H1.33424Z" fill="#333333"/>
<path fill-rule="evenodd" clip-rule="evenodd" d="M5.60156 12.0003C5.60156 11.4112 6.07913 10.9336 6.66823 10.9336H9.3349C9.924 10.9336 10.4016 11.4112 10.4016 12.0003V14.0003C10.4016 14.5894 9.924 15.0669 9.3349 15.0669H6.66823C6.07913 15.0669 5.60156 14.5894 5.60156 14.0003V12.0003ZM6.66823 11.7336C6.52095 11.7336 6.40156 11.853 6.40156 12.0003V14.0003C6.40156 14.1475 6.52095 14.2669 6.66823 14.2669H9.3349C9.48217 14.2669 9.60156 14.1475 9.60156 14.0003V12.0003C9.60156 11.853 9.48217 11.7336 9.3349 11.7336H6.66823Z" fill="#333333"/>
<path fill-rule="evenodd" clip-rule="evenodd" d="M10.9336 12.0003C10.9336 11.4112 11.4112 10.9336 12.0003 10.9336H14.6669C15.256 10.9336 15.7336 11.4112 15.7336 12.0003V14.0003C15.7336 14.5894 15.256 15.0669 14.6669 15.0669H12.0003C11.4112 15.0669 10.9336 14.5894 10.9336 14.0003V12.0003ZM12.0003 11.7336C11.853 11.7336 11.7336 11.853 11.7336 12.0003V14.0003C11.7336 14.1475 11.853 14.2669 12.0003 14.2669H14.6669C14.8142 14.2669 14.9336 14.1475 14.9336 14.0003V12.0003C14.9336 11.853 14.8142 11.7336 14.6669 11.7336H12.0003Z" fill="#333333"/>
<path fill-rule="evenodd" clip-rule="evenodd" d="M8.00156 4.93359C8.22248 4.93359 8.40156 5.11268 8.40156 5.33359V11.3336C8.40156 11.5545 8.22248 11.7336 8.00156 11.7336C7.78065 11.7336 7.60156 11.5545 7.60156 11.3336V5.33359C7.60156 5.11268 7.78065 4.93359 8.00156 4.93359Z" fill="#333333"/>
<path fill-rule="evenodd" clip-rule="evenodd" d="M3.33424 8.39961C3.18697 8.39961 3.06758 8.519 3.06758 8.66628V11.3329C3.06758 11.5539 2.88849 11.7329 2.66758 11.7329C2.44666 11.7329 2.26758 11.5539 2.26758 11.3329V8.66628C2.26758 8.07717 2.74514 7.59961 3.33424 7.59961H12.6676C13.2567 7.59961 13.7342 8.07717 13.7342 8.66628V11.3329C13.7342 11.5539 13.5552 11.7329 13.3342 11.7329C13.1133 11.7329 12.9342 11.5539 12.9342 11.3329V8.66628C12.9342 8.519 12.8149 8.39961 12.6676 8.39961H3.33424Z" fill="#333333"/>
</svg>
