<svg width="32" height="32" viewBox="0 0 32 32" fill="none" xmlns="http://www.w3.org/2000/svg">
<path fill-rule="evenodd" clip-rule="evenodd" d="M5.86719 6.66704C5.86719 6.2253 6.22536 5.86719 6.66719 5.86719H25.3339C25.7757 5.86719 26.1339 6.2253 26.1339 6.66704V13.3325C26.1339 13.7743 25.7757 14.1324 25.3339 14.1324H6.66719C6.22536 14.1324 5.86719 13.7743 5.86719 13.3325V6.66704ZM7.46719 7.4669V12.5327H24.5339V7.4669H7.46719Z" fill="#19B6CF"/>
<path fill-rule="evenodd" clip-rule="evenodd" d="M20.8189 7.86868H20.7754C20.1067 7.86868 19.4688 8.3718 19.4688 9.09893C19.4688 9.40358 19.5497 9.68693 19.7563 9.91135C19.9473 10.1188 20.1919 10.2147 20.3805 10.2719L21.9796 10.7516C22.0723 10.7805 22.108 10.8022 22.1188 10.8098C22.1219 10.8198 22.1287 10.8481 22.1287 10.9043C22.1287 10.9287 22.1186 10.9639 22.078 11.0006C22.0367 11.0379 21.971 11.0681 21.8888 11.0681H20.8887C20.6433 11.0681 20.5354 10.8963 20.5354 10.8015C20.5354 10.507 20.2966 10.2682 20.0021 10.2682C19.7075 10.2682 19.4688 10.507 19.4688 10.8015C19.4688 11.5612 20.1169 12.099 20.8185 12.1329C20.8771 12.3637 21.0863 12.5345 21.3354 12.5345C21.5839 12.5345 21.7927 12.3646 21.8519 12.1346H21.8888C22.5575 12.1346 23.1954 11.6315 23.1954 10.9043C23.1954 10.5996 23.1145 10.3175 22.9103 10.0937C22.7212 9.88627 22.4791 9.78983 22.2934 9.73226L20.6896 9.25119C20.6285 9.23261 20.5897 9.21663 20.5649 9.20361C20.5551 9.1985 20.5488 9.19449 20.545 9.19182C20.5418 9.18138 20.5354 9.15336 20.5354 9.09893C20.5354 9.0746 20.5456 9.03933 20.5862 9.00263C20.6274 8.96539 20.6932 8.93515 20.7754 8.93515H21.7718C22.0356 8.93935 22.1354 9.11473 22.1354 9.20177C22.1354 9.49627 22.3742 9.73501 22.6688 9.73501C22.9633 9.73501 23.2021 9.49627 23.2021 9.20177C23.2021 8.43531 22.5478 7.91233 21.8526 7.87123C21.7943 7.63995 21.5848 7.46875 21.3354 7.46875C21.0869 7.46875 20.8781 7.63869 20.8189 7.86868Z" fill="#19B6CF"/>
<path fill-rule="evenodd" clip-rule="evenodd" d="M27.2047 3.77796C27.2047 3.66302 27.0847 3.4669 26.8047 3.4669L5.20469 3.4669C4.92468 3.4669 4.80469 3.66302 4.80469 3.77796V28.218C4.80469 28.333 4.92468 28.5291 5.20469 28.5291H26.8047C27.0847 28.5291 27.2047 28.333 27.2047 28.218V3.77796ZM26.8047 1.86719C27.8502 1.86719 28.8047 2.66582 28.8047 3.77796V28.218C28.8047 29.3302 27.8502 30.1288 26.8047 30.1288H5.20469C4.15921 30.1288 3.20469 29.3302 3.20469 28.218V3.77796C3.20469 2.66582 4.15921 1.86719 5.20469 1.86719L26.8047 1.86719Z" fill="#19B6CF"/>
<path d="M9.33333 19.9943C10.0697 19.9943 10.6667 19.3975 10.6667 18.6612C10.6667 17.925 10.0697 17.3281 9.33333 17.3281C8.59695 17.3281 8 17.925 8 18.6612C8 19.3975 8.59695 19.9943 9.33333 19.9943Z" fill="#19B6CF"/>
<path d="M16.0052 19.9943C16.7416 19.9943 17.3385 19.3975 17.3385 18.6612C17.3385 17.925 16.7416 17.3281 16.0052 17.3281C15.2688 17.3281 14.6719 17.925 14.6719 18.6612C14.6719 19.3975 15.2688 19.9943 16.0052 19.9943Z" fill="#19B6CF"/>
<path d="M22.6693 19.9943C23.4057 19.9943 24.0026 19.3975 24.0026 18.6612C24.0026 17.925 23.4057 17.3281 22.6693 17.3281C21.9329 17.3281 21.3359 17.925 21.3359 18.6612C21.3359 19.3975 21.9329 19.9943 22.6693 19.9943Z" fill="#19B6CF"/>
<path d="M9.33333 25.3302C10.0697 25.3302 10.6667 24.7334 10.6667 23.9972C10.6667 23.2609 10.0697 22.6641 9.33333 22.6641C8.59695 22.6641 8 23.2609 8 23.9972C8 24.7334 8.59695 25.3302 9.33333 25.3302Z" fill="#19B6CF"/>
<path d="M16.0052 25.3302C16.7416 25.3302 17.3385 24.7334 17.3385 23.9972C17.3385 23.2609 16.7416 22.6641 16.0052 22.6641C15.2688 22.6641 14.6719 23.2609 14.6719 23.9972C14.6719 24.7334 15.2688 25.3302 16.0052 25.3302Z" fill="#19B6CF"/>
<path d="M22.6693 25.3302C23.4057 25.3302 24.0026 24.7334 24.0026 23.9972C24.0026 23.2609 23.4057 22.6641 22.6693 22.6641C21.9329 22.6641 21.3359 23.2609 21.3359 23.9972C21.3359 24.7334 21.9329 25.3302 22.6693 25.3302Z" fill="#19B6CF"/>
</svg>
