<svg width="32" height="32" viewBox="0 0 32 32" fill="none" xmlns="http://www.w3.org/2000/svg">
<path fill-rule="evenodd" clip-rule="evenodd" d="M10.0236 15.4984C8.50819 15.4984 7.27969 16.7269 7.27969 18.2424C7.27969 19.7578 8.50819 20.9863 10.0236 20.9863C11.5391 20.9863 12.7676 19.7578 12.7676 18.2424C12.7676 16.7269 11.5391 15.4984 10.0236 15.4984ZM5.67969 18.2424C5.67969 15.8433 7.62454 13.8984 10.0236 13.8984C12.4227 13.8984 14.3676 15.8433 14.3676 18.2424C14.3676 20.6415 12.4227 22.5863 10.0236 22.5863C7.62454 22.5863 5.67969 20.6415 5.67969 18.2424Z" fill="#19B6CF"/>
<path fill-rule="evenodd" clip-rule="evenodd" d="M13.6807 11.8748L13.9561 13.8021C14.1349 13.9668 14.3043 14.1362 14.4644 14.3104L16.3916 14.5857C16.7057 15.1311 16.9477 15.7148 17.1117 16.3224L15.9398 17.8826C15.9398 17.8826 15.961 18.3626 15.9398 18.6026L17.1117 20.1628C16.9485 20.7706 16.7064 21.3545 16.3916 21.8995L14.4644 22.1748C14.4644 22.1748 14.1326 22.5207 13.9561 22.6831L13.6807 24.6104C13.1354 24.9244 12.5516 25.1665 11.9441 25.3305L10.3839 24.1586C10.1443 24.1798 9.90336 24.1798 9.6638 24.1586L8.10362 25.3305C7.4958 25.1672 6.91195 24.9251 6.36694 24.6104L6.09162 22.6831C5.91748 22.5184 5.74805 22.349 5.58332 22.1748L3.65604 21.8995C3.34201 21.3541 3.09997 20.7704 2.93595 20.1628L4.10785 18.6026C4.10785 18.6026 4.08667 18.1226 4.10785 17.8826L2.93595 16.3224C3.09921 15.7145 3.34129 15.1307 3.65604 14.5857L5.58332 14.3104C5.74805 14.1362 5.91748 13.9668 6.09162 13.8021L6.36694 11.8748C6.9123 11.5608 7.49606 11.3187 8.10362 11.1547L9.6638 12.3266C9.90336 12.3054 10.1443 12.3054 10.3839 12.3266L11.9441 11.1547C12.5519 11.318 13.1357 11.56 13.6807 11.8748ZM10.0238 10.596L10.9831 9.8754C11.3765 9.57992 11.884 9.48185 12.3591 9.60947C13.1017 9.80893 13.815 10.1047 14.4809 10.4892C14.9062 10.7349 15.1952 11.1623 15.2647 11.6485L15.4338 12.8326L16.6179 13.0018C17.1049 13.0713 17.5328 13.361 17.7782 13.7873C18.1612 14.4524 18.4564 15.1644 18.6564 15.9054C18.7848 16.381 18.6869 16.8893 18.391 17.2833L17.6705 18.2426L18.391 19.2019C18.6865 19.5953 18.7846 20.1027 18.657 20.5779C18.4575 21.3205 18.1617 22.0338 17.7772 22.6997C17.5316 23.125 17.1042 23.4139 16.6179 23.4834L15.4338 23.6526L15.2647 24.8367C15.1951 25.3236 14.9054 25.7515 14.4791 25.997C13.814 26.38 13.1021 26.6752 12.3611 26.8752C11.8854 27.0036 11.3771 26.9057 10.9831 26.6098L10.0238 25.8892L9.06454 26.6098C8.67117 26.9053 8.16373 27.0033 7.68858 26.8757C6.94597 26.6763 6.23265 26.3805 5.56678 25.9959C5.14143 25.7503 4.85249 25.3229 4.78302 24.8367L4.61387 23.6526L3.42976 23.4834C2.94281 23.4138 2.51493 23.1242 2.26947 22.6979C1.88648 22.0328 1.59128 21.3208 1.39125 20.5798C1.26284 20.1041 1.36074 19.5958 1.65665 19.2019L2.37721 18.2426L1.65665 17.2833C1.36117 16.8899 1.2631 16.3825 1.39072 15.9073C1.59018 15.1647 1.88594 14.4514 2.27049 13.7855C2.51613 13.3602 2.94352 13.0712 3.42976 13.0018L4.61386 12.8326L4.78302 11.6485C4.85259 11.1616 5.14227 10.7337 5.56854 10.4882C6.23367 10.1052 6.94562 9.81003 7.68661 9.61C8.16229 9.48159 8.6706 9.57949 9.06454 9.8754L10.0238 10.596Z" fill="#19B6CF"/>
<path d="M24.6887 11.3462C25.9968 11.3462 27.0572 10.2858 27.0572 8.9778C27.0572 7.66975 25.9968 6.60938 24.6887 6.60938C23.3807 6.60938 22.3203 7.66975 22.3203 8.9778C22.3203 10.2858 23.3807 11.3462 24.6887 11.3462Z" stroke="#19B6CF" stroke-width="1.2" stroke-linecap="round" stroke-linejoin="round"/>
<path d="M28.1947 5.02305C28.354 5.16983 28.505 5.3208 28.6476 5.47597L30.3649 5.72131C30.6448 6.20726 30.8604 6.72742 31.0066 7.2688L29.9623 8.65903C29.9623 8.65903 29.9812 9.08679 29.9623 9.30067L31.0066 10.6909C30.8611 11.2325 30.6454 11.7528 30.3649 12.2384L28.6476 12.4837C28.6476 12.4837 28.3519 12.792 28.1947 12.9367L27.9493 14.654C27.4634 14.9338 26.9432 15.1495 26.4018 15.2956L25.0116 14.2514C24.7981 14.2703 24.5834 14.2703 24.37 14.2514L22.9797 15.2956C22.4381 15.1502 21.9179 14.9345 21.4322 14.654L21.1869 12.9367C21.0317 12.7899 20.8808 12.6389 20.734 12.4837L19.0166 12.2384C18.7368 11.7524 18.5211 11.2323 18.375 10.6909L19.4192 9.30067C19.4192 9.30067 19.4004 8.87291 19.4192 8.65903L18.375 7.2688C18.5205 6.72719 18.7362 6.20695 19.0166 5.72131L20.734 5.47597C20.8808 5.3208 21.0317 5.16983 21.1869 5.02305L21.4322 3.30571C21.9182 3.02589 22.4384 2.81021 22.9797 2.66406L24.37 3.70831C24.5834 3.68943 24.7981 3.68943 25.0116 3.70831L26.4018 2.66406C26.9435 2.80953 27.4637 3.02525 27.9493 3.30571L28.1947 5.02305Z" stroke="#19B6CF" stroke-width="1.2" stroke-linecap="round" stroke-linejoin="round"/>
<path d="M25.1146 25.3651C26.1808 25.3651 27.0451 24.5008 27.0451 23.4346C27.0451 22.3684 26.1808 21.5041 25.1146 21.5041C24.0484 21.5041 23.1841 22.3684 23.1841 23.4346C23.1841 24.5008 24.0484 25.3651 25.1146 25.3651Z" stroke="#19B6CF" stroke-width="1.2" stroke-linecap="round" stroke-linejoin="round"/>
<path d="M25.9754 19.2138C26.1477 19.2525 26.3158 19.2975 26.4797 19.349L27.7919 18.8222C28.1875 19.0512 28.5517 19.3305 28.8755 19.6531L28.705 21.06C28.705 21.06 28.8926 21.3543 28.9665 21.513L30.2702 22.0687C30.3882 22.5103 30.448 22.9655 30.4479 23.4226L29.3356 24.2957C29.3356 24.2957 29.2526 24.6337 29.2005 24.8L29.7272 26.1122C29.4982 26.5078 29.219 26.872 28.8964 27.1958L27.4894 27.0253C27.3465 27.1256 27.1949 27.2131 27.0365 27.2868L26.4807 28.5905C26.0391 28.7085 25.584 28.7683 25.1269 28.7682L24.2538 27.656C24.0845 27.6156 23.9164 27.5705 23.7495 27.5208L22.4373 28.0475C22.0417 27.8186 21.6775 27.5393 21.3537 27.2167L21.5242 25.8098C21.5242 25.8098 21.3365 25.5155 21.2627 25.3568L19.959 24.8011C19.841 24.3595 19.7812 23.9043 19.7813 23.4472L20.8935 22.5741C20.9339 22.4048 20.9789 22.2367 21.0286 22.0698L20.5019 20.7576C20.7309 20.362 21.0102 19.9978 21.3328 19.674L22.7397 19.8445C22.8827 19.7442 23.0343 19.6567 23.1927 19.583L23.7484 18.2793C24.19 18.1613 24.6452 18.1015 25.1023 18.1016L25.9754 19.2138Z" stroke="#19B6CF" stroke-width="1.2" stroke-linecap="round" stroke-linejoin="round"/>
</svg>
