<svg width="32" height="32" viewBox="0 0 32 32" fill="none" xmlns="http://www.w3.org/2000/svg">
<path fill-rule="evenodd" clip-rule="evenodd" d="M29.2753 11.5207C29.4318 11.8896 29.2454 12.3098 28.8591 12.4592L15.6817 17.555C15.4917 17.6285 15.2786 17.625 15.0913 17.5453L3.11186 12.4495C2.73111 12.2876 2.55995 11.8615 2.72956 11.4979C2.89916 11.1344 3.34531 10.9709 3.72605 11.1329L15.4125 16.104L28.2925 11.1232C28.6789 10.9738 29.1189 11.1518 29.2753 11.5207Z" fill="#19B6CF"/>
<path fill-rule="evenodd" clip-rule="evenodd" d="M3.41877 11.0703C3.83558 11.0703 4.17347 11.393 4.17347 11.791V22.5524L15.4135 27.8117L27.8209 22.5339V11.791C27.8209 11.393 28.1588 11.0703 28.5756 11.0703C28.9924 11.0703 29.3303 11.393 29.3303 11.791V23.0018C29.3303 23.2864 29.155 23.5443 28.8827 23.6601L15.7053 29.2655C15.5011 29.3524 15.267 29.3483 15.0661 29.2543L3.08669 23.649C2.82802 23.5279 2.66406 23.2768 2.66406 23.0018V11.791C2.66406 11.393 3.00196 11.0703 3.41877 11.0703Z" fill="#19B6CF"/>
<path fill-rule="evenodd" clip-rule="evenodd" d="M15.3953 16.1719C15.8121 16.1719 16.15 16.4945 16.15 16.8926V28.6129C16.15 29.011 15.8121 29.3336 15.3953 29.3336C14.9785 29.3336 14.6406 29.011 14.6406 28.6129V16.8926C14.6406 16.4945 14.9785 16.1719 15.3953 16.1719Z" fill="#19B6CF"/>
<path fill-rule="evenodd" clip-rule="evenodd" d="M9.40314 13.6172C9.81996 13.6172 10.1579 13.9399 10.1579 14.3379V25.5487C10.1579 25.9467 9.81996 26.2693 9.40314 26.2693C8.98633 26.2693 8.64844 25.9467 8.64844 25.5487V14.3379C8.64844 13.9399 8.98633 13.6172 9.40314 13.6172Z" fill="#19B6CF"/>
<path fill-rule="evenodd" clip-rule="evenodd" d="M15.0708 10.527C15.2606 10.4493 15.4755 10.4493 15.6654 10.527L20.0678 12.3288C20.3453 12.4423 20.5253 12.7029 20.5253 12.9912C20.5253 13.2795 20.3453 13.54 20.0678 13.6536L15.6654 15.4553C15.4755 15.533 15.2606 15.533 15.0708 15.4553L10.6684 13.6536C10.3909 13.54 10.2109 13.2795 10.2109 12.9912C10.2109 12.7029 10.3909 12.4423 10.6684 12.3288L15.0708 10.527ZM12.8815 12.9912L15.3681 14.0088L17.8547 12.9912L15.3681 11.9735L12.8815 12.9912Z" fill="#19B6CF"/>
<path fill-rule="evenodd" clip-rule="evenodd" d="M10.9656 12.2734C11.3825 12.2734 11.7204 12.5961 11.7204 12.9941V14.7959C11.7204 15.1939 11.3825 15.5166 10.9656 15.5166C10.5488 15.5166 10.2109 15.1939 10.2109 14.7959V12.9941C10.2109 12.5961 10.5488 12.2734 10.9656 12.2734Z" fill="#19B6CF"/>
<path fill-rule="evenodd" clip-rule="evenodd" d="M13.4813 8.07031C13.8981 8.07031 14.236 8.39298 14.236 8.79101V11.1933C14.236 11.5913 13.8981 11.914 13.4813 11.914C13.0645 11.914 12.7266 11.5913 12.7266 11.1933V8.79101C12.7266 8.39298 13.0645 8.07031 13.4813 8.07031Z" fill="#19B6CF"/>
<path fill-rule="evenodd" clip-rule="evenodd" d="M19.7703 12.2734C20.1871 12.2734 20.525 12.5961 20.525 12.9941V14.7959C20.525 15.1939 20.1871 15.5166 19.7703 15.5166C19.3535 15.5166 19.0156 15.1939 19.0156 14.7959V12.9941C19.0156 12.5961 19.3535 12.2734 19.7703 12.2734Z" fill="#19B6CF"/>
<path fill-rule="evenodd" clip-rule="evenodd" d="M22.6177 7.51921C22.8075 7.44151 23.0224 7.44151 23.2123 7.51921L27.6147 9.32094C27.8922 9.43451 28.0721 9.69506 28.0721 9.98336C28.0721 10.2717 27.8922 10.5322 27.6147 10.6458L23.2123 12.4475C23.0224 12.5252 22.8075 12.5252 22.6177 12.4475L18.2152 10.6458C17.9377 10.5322 17.7578 10.2717 17.7578 9.98336C17.7578 9.69506 17.9377 9.43451 18.2152 9.32094L22.6177 7.51921ZM20.4284 9.98336L22.915 11.001L25.4015 9.98336L22.915 8.96572L20.4284 9.98336Z" fill="#19B6CF"/>
<path fill-rule="evenodd" clip-rule="evenodd" d="M8.78174 6.3239C8.97158 6.2462 9.18648 6.2462 9.37633 6.3239L13.7788 8.12563C14.0563 8.23919 14.2362 8.49975 14.2362 8.78805C14.2362 9.07635 14.0563 9.3369 13.7788 9.45047L9.37633 11.2522C9.18648 11.3299 8.97158 11.3299 8.78174 11.2522L4.37929 9.45047C4.10179 9.3369 3.92188 9.07635 3.92188 8.78805C3.92188 8.49975 4.10179 8.23919 4.37929 8.12563L8.78174 6.3239ZM6.59247 8.78805L9.07903 9.80569L11.5656 8.78805L9.07903 7.77041L6.59247 8.78805Z" fill="#19B6CF"/>
<path fill-rule="evenodd" clip-rule="evenodd" d="M4.67658 8.07031C5.09339 8.07031 5.43129 8.39298 5.43129 8.79101V11.7939C5.43129 12.1919 5.09339 12.5146 4.67658 12.5146C4.25977 12.5146 3.92188 12.1919 3.92188 11.7939V8.79101C3.92188 8.39298 4.25977 8.07031 4.67658 8.07031Z" fill="#19B6CF"/>
<path fill-rule="evenodd" clip-rule="evenodd" d="M16.3364 2.72233C16.5263 2.64464 16.7412 2.64464 16.931 2.72233L21.3335 4.52407C21.611 4.63763 21.7909 4.89819 21.7909 5.18649C21.7909 5.47478 21.611 5.73534 21.3335 5.84891L16.931 7.65064C16.7412 7.72834 16.5263 7.72834 16.3364 7.65064L11.934 5.84891C11.6565 5.73534 11.4766 5.47478 11.4766 5.18649C11.4766 4.89819 11.6565 4.63763 11.934 4.52407L16.3364 2.72233ZM14.1472 5.18649L16.6337 6.20413L19.1203 5.18649L16.6337 4.16885L14.1472 5.18649Z" fill="#19B6CF"/>
<path fill-rule="evenodd" clip-rule="evenodd" d="M12.2313 4.46875C12.6481 4.46875 12.986 4.79142 12.986 5.18944V8.19233C12.986 8.59036 12.6481 8.91302 12.2313 8.91302C11.8145 8.91302 11.4766 8.59036 11.4766 8.19233V5.18944C11.4766 4.79142 11.8145 4.46875 12.2313 4.46875Z" fill="#19B6CF"/>
<path fill-rule="evenodd" clip-rule="evenodd" d="M18.5125 9.27344C18.9293 9.27344 19.2672 9.5961 19.2672 9.99413V11.7959C19.2672 12.1939 18.9293 12.5166 18.5125 12.5166C18.0957 12.5166 17.7578 12.1939 17.7578 11.7959V9.99413C17.7578 9.5961 18.0957 9.27344 18.5125 9.27344Z" fill="#19B6CF"/>
<path fill-rule="evenodd" clip-rule="evenodd" d="M27.3094 9.27344C27.7262 9.27344 28.0641 9.5961 28.0641 9.99413V11.7959C28.0641 12.1939 27.7262 12.5166 27.3094 12.5166C26.8926 12.5166 26.5547 12.1939 26.5547 11.7959V9.99413C26.5547 9.5961 26.8926 9.27344 27.3094 9.27344Z" fill="#19B6CF"/>
<path fill-rule="evenodd" clip-rule="evenodd" d="M21.0281 4.46875C21.445 4.46875 21.7829 4.79142 21.7829 5.18944V8.79291C21.7829 9.19093 21.445 9.5136 21.0281 9.5136C20.6113 9.5136 20.2734 9.19093 20.2734 8.79291V5.18944C20.2734 4.79142 20.6113 4.46875 21.0281 4.46875Z" fill="#19B6CF"/>
</svg>
