<svg width="32" height="32" viewBox="0 0 32 32" fill="none" xmlns="http://www.w3.org/2000/svg">
<path fill-rule="evenodd" clip-rule="evenodd" d="M16.0031 1.86719C16.445 1.86719 16.8031 2.22536 16.8031 2.66719V29.3339C16.8031 29.7757 16.445 30.1339 16.0031 30.1339C15.5613 30.1339 15.2031 29.7757 15.2031 29.3339V2.66719C15.2031 2.22536 15.5613 1.86719 16.0031 1.86719Z" fill="#19B6CF"/>
<path fill-rule="evenodd" clip-rule="evenodd" d="M11.2031 29.3313C11.2031 28.8894 11.5613 28.5312 12.0031 28.5312H20.0031C20.445 28.5312 20.8031 28.8894 20.8031 29.3313C20.8031 29.7731 20.445 30.1313 20.0031 30.1313H12.0031C11.5613 30.1313 11.2031 29.7731 11.2031 29.3313Z" fill="#19B6CF"/>
<path fill-rule="evenodd" clip-rule="evenodd" d="M26.4069 4.89403C26.5147 5.32251 26.2547 5.75725 25.8263 5.86507L6.55791 10.7136C6.12944 10.8214 5.69469 10.5614 5.58687 10.133C5.47906 9.70448 5.739 9.26974 6.16747 9.16192L25.4358 4.31344C25.8643 4.20562 26.299 4.46556 26.4069 4.89403Z" fill="#19B6CF"/>
<path fill-rule="evenodd" clip-rule="evenodd" d="M6.37292 9.14065C6.72934 9.14357 7.04084 9.38194 7.13682 9.72521L10.5125 21.7985C10.7198 22.5928 10.7037 23.3177 10.4893 23.9575C10.2755 24.5955 9.88229 25.0955 9.41915 25.4708C8.51449 26.2041 7.30523 26.4982 6.36637 26.4982C5.43061 26.4982 4.17937 26.206 3.22819 25.4878C2.74178 25.1205 2.3147 24.6262 2.07289 23.9859C1.82906 23.3403 1.79587 22.6047 2.00623 21.7985C2.0085 21.7898 2.01093 21.7811 2.0135 21.7725L5.59955 9.71261C5.70114 9.37096 6.0165 9.13773 6.37292 9.14065ZM3.5512 22.2149C3.41748 22.7358 3.45813 23.1252 3.56969 23.4206C3.68414 23.7237 3.89599 23.9871 4.19236 24.2109C4.80673 24.6749 5.69642 24.8982 6.36637 24.8982C7.0332 24.8982 7.85781 24.6768 8.41167 24.2279C8.67777 24.0122 8.86994 23.7544 8.97226 23.4491C9.07357 23.1468 9.10465 22.7448 8.9659 22.2089L6.34271 12.827L3.5512 22.2149Z" fill="#19B6CF"/>
<path fill-rule="evenodd" clip-rule="evenodd" d="M25.6303 4.28909C25.9879 4.2862 26.3039 4.52099 26.4045 4.86418L29.9904 17.1064L29.9968 17.1293C30.2063 17.9322 30.1759 18.6611 29.9266 19.2974C29.679 19.9293 29.242 20.4026 28.7502 20.7453C27.7913 21.4136 26.5432 21.6466 25.6367 21.6466C24.7288 21.6466 23.5219 21.4128 22.6085 20.7295C22.1388 20.3782 21.7358 19.8983 21.5167 19.2683C21.2975 18.638 21.2843 17.9203 21.4906 17.1293L21.4934 17.1188L21.4934 17.1188L24.8655 4.87662C24.9604 4.53185 25.2727 4.29198 25.6303 4.28909ZM25.6604 8.01573L23.0375 17.5382C22.8975 18.078 22.9312 18.4647 23.0279 18.7428C23.125 19.0219 23.3073 19.2542 23.5669 19.4483C24.112 19.8561 24.939 20.0466 25.6367 20.0466C26.336 20.0466 27.2288 19.8553 27.8354 19.4326C28.1264 19.2298 28.3282 18.9909 28.4369 18.7137C28.5431 18.4427 28.5864 18.0688 28.4514 17.5441L25.6604 8.01573Z" fill="#19B6CF"/>
</svg>
