<svg width="33" height="32" viewBox="0 0 33 32" fill="none" xmlns="http://www.w3.org/2000/svg">
<rect x="0.875" width="32" height="32" rx="6" fill="url(#paint0_linear_117_17277)"/>
<path d="M9.875 9.5C9.875 9.22386 10.0989 9 10.375 9H11.375C11.6511 9 11.875 9.22386 11.875 9.5V22.5C11.875 22.7761 11.6511 23 11.375 23H10.375C10.0989 23 9.875 22.7761 9.875 22.5V9.5Z" fill="white" fill-opacity="0.5"/>
<path d="M18.875 9.5C18.875 9.22386 19.0989 9 19.375 9H22.375C22.6511 9 22.875 9.22386 22.875 9.5V22.5C22.875 22.7761 22.6511 23 22.375 23H19.375C19.0989 23 18.875 22.7761 18.875 22.5V9.5Z" fill="white" fill-opacity="0.5"/>
<path d="M13.875 9.5C13.875 9.22386 14.0989 9 14.375 9C14.6511 9 14.875 9.22386 14.875 9.5V22.5C14.875 22.7761 14.6511 23 14.375 23C14.0989 23 13.875 22.7761 13.875 22.5V9.5Z" fill="white" fill-opacity="0.5"/>
<path d="M15.875 9.5C15.875 9.22386 16.0989 9 16.375 9C16.6511 9 16.875 9.22386 16.875 9.5V22.5C16.875 22.7761 16.6511 23 16.375 23C16.0989 23 15.875 22.7761 15.875 22.5V9.5Z" fill="white" fill-opacity="0.5"/>
<path d="M23.875 9.5C23.875 9.22386 24.0989 9 24.375 9C24.6511 9 24.875 9.22386 24.875 9.5V22.5C24.875 22.7761 24.6511 23 24.375 23C24.0989 23 23.875 22.7761 23.875 22.5V9.5Z" fill="white" fill-opacity="0.5"/>
<path fill-rule="evenodd" clip-rule="evenodd" d="M6.125 8C6.125 6.48122 7.35622 5.25 8.875 5.25H11.875C12.2892 5.25 12.625 5.58579 12.625 6C12.625 6.41421 12.2892 6.75 11.875 6.75H8.875C8.18464 6.75 7.625 7.30964 7.625 8V11C7.625 11.4142 7.28921 11.75 6.875 11.75C6.46079 11.75 6.125 11.4142 6.125 11V8Z" fill="white"/>
<path fill-rule="evenodd" clip-rule="evenodd" d="M27.625 8C27.625 6.48122 26.3938 5.25 24.875 5.25H21.875C21.4608 5.25 21.125 5.58579 21.125 6C21.125 6.41421 21.4608 6.75 21.875 6.75H24.875C25.5654 6.75 26.125 7.30964 26.125 8V11C26.125 11.4142 26.4608 11.75 26.875 11.75C27.2892 11.75 27.625 11.4142 27.625 11V8Z" fill="white"/>
<path fill-rule="evenodd" clip-rule="evenodd" d="M6.125 24C6.125 25.5188 7.35622 26.75 8.875 26.75H11.875C12.2892 26.75 12.625 26.4142 12.625 26C12.625 25.5858 12.2892 25.25 11.875 25.25H8.875C8.18464 25.25 7.625 24.6904 7.625 24V21C7.625 20.5858 7.28921 20.25 6.875 20.25C6.46079 20.25 6.125 20.5858 6.125 21V24Z" fill="white"/>
<path fill-rule="evenodd" clip-rule="evenodd" d="M27.625 24C27.625 25.5188 26.3938 26.75 24.875 26.75H21.875C21.4608 26.75 21.125 26.4142 21.125 26C21.125 25.5858 21.4608 25.25 21.875 25.25H24.875C25.5654 25.25 26.125 24.6904 26.125 24V21C26.125 20.5858 26.4608 20.25 26.875 20.25C27.2892 20.25 27.625 20.5858 27.625 21V24Z" fill="white"/>
<path fill-rule="evenodd" clip-rule="evenodd" d="M6.125 16C6.125 15.5858 6.46079 15.25 6.875 15.25H26.875C27.2892 15.25 27.625 15.5858 27.625 16C27.625 16.4142 27.2892 16.75 26.875 16.75H6.875C6.46079 16.75 6.125 16.4142 6.125 16Z" fill="white"/>
<defs>
<linearGradient id="paint0_linear_117_17277" x1="0.875" y1="32" x2="32.875" y2="-1.19209e-07" gradientUnits="userSpaceOnUse">
<stop stop-color="#00774E"/>
<stop offset="1" stop-color="#15B980"/>
</linearGradient>
</defs>
</svg>
