<svg width="24" height="24" viewBox="0 0 24 24" fill="none" xmlns="http://www.w3.org/2000/svg">
<path fill-rule="evenodd" clip-rule="evenodd" d="M9.64151 3.13208C6.04645 3.13208 3.13208 6.04645 3.13208 9.64151C3.13208 13.2366 6.04645 16.1509 9.64151 16.1509C13.2366 16.1509 16.1509 13.2366 16.1509 9.64151C16.1509 6.04645 13.2366 3.13208 9.64151 3.13208ZM2 9.64151C2 5.42122 5.42122 2 9.64151 2C13.8618 2 17.283 5.42122 17.283 9.64151C17.283 13.8618 13.8618 17.283 9.64151 17.283C5.42122 17.283 2 13.8618 2 9.64151Z" fill="#212121"/>
<path fill-rule="evenodd" clip-rule="evenodd" d="M14.4314 14.4314C14.6525 14.2104 15.0109 14.2104 15.2319 14.4314L21.8357 21.0352C22.0567 21.2562 22.0567 21.6146 21.8357 21.8357C21.6146 22.0567 21.2562 22.0567 21.0352 21.8357L14.4314 15.2319C14.2104 15.0109 14.2104 14.6525 14.4314 14.4314Z" fill="#212121"/>
</svg>
