<svg width="20" height="20" viewBox="0 0 20 20" fill="none" xmlns="http://www.w3.org/2000/svg">
<path fill-rule="evenodd" clip-rule="evenodd" d="M8.31316 3.05261C5.40804 3.05261 3.05298 5.40702 3.05298 8.31133C3.05298 11.2156 5.40804 13.57 8.31316 13.57C11.2183 13.57 13.5733 11.2156 13.5733 8.31133C13.5733 5.40702 11.2183 3.05261 8.31316 3.05261ZM1.75 8.31133C1.75 4.68761 4.68843 1.75 8.31316 1.75C11.9379 1.75 14.8763 4.68761 14.8763 8.31133C14.8763 11.935 11.9379 14.8727 8.31316 14.8727C4.68843 14.8727 1.75 11.935 1.75 8.31133Z" fill="black" fill-opacity="0.87"/>
<path fill-rule="evenodd" clip-rule="evenodd" d="M12.0736 12.0736C12.3281 11.8192 12.7406 11.8192 12.995 12.0736L18.0621 17.1393C18.3165 17.3937 18.3165 17.806 18.0621 18.0604C17.8077 18.3147 17.3952 18.3147 17.1408 18.0604L12.0736 12.9947C11.8192 12.7403 11.8192 12.3279 12.0736 12.0736Z" fill="black" fill-opacity="0.87"/>
</svg>
