<svg width="20" height="20" viewBox="0 0 20 20" fill="none" xmlns="http://www.w3.org/2000/svg">
<path fill-rule="evenodd" clip-rule="evenodd" d="M6.66704 1.14272H2.8573C1.91048 1.14272 1.14292 1.91014 1.14292 2.85681V6.66588C1.14292 7.61255 1.91048 8.37997 2.8573 8.37997H6.66704C7.61386 8.37997 8.38142 7.61255 8.38142 6.66588V2.85681C8.38142 1.91014 7.61386 1.14272 6.66704 1.14272ZM2.8573 0C1.27926 0 0 1.27904 0 2.85681V6.66588C0 8.24365 1.27926 9.52269 2.8573 9.52269H6.66704C8.24508 9.52269 9.52434 8.24365 9.52434 6.66588V2.85681C9.52434 1.27904 8.24508 0 6.66704 0H2.8573Z" fill="black" fill-opacity="0.87"/>
<path fill-rule="evenodd" clip-rule="evenodd" d="M6.66704 11.6193H2.8573C1.91048 11.6193 1.14292 12.3867 1.14292 13.3334V17.1424C1.14292 18.0891 1.91048 18.8565 2.8573 18.8565H6.66704C7.61386 18.8565 8.38142 18.0891 8.38142 17.1424V13.3334C8.38142 12.3867 7.61386 11.6193 6.66704 11.6193ZM2.8573 10.4766C1.27926 10.4766 0 11.7556 0 13.3334V17.1424C0 18.7202 1.27926 19.9993 2.8573 19.9993H6.66704C8.24508 19.9993 9.52434 18.7202 9.52434 17.1424V13.3334C9.52434 11.7556 8.24508 10.4766 6.66704 10.4766H2.8573Z" fill="black" fill-opacity="0.87"/>
<path fill-rule="evenodd" clip-rule="evenodd" d="M17.1436 11.6193H13.3339C12.387 11.6193 11.6195 12.3867 11.6195 13.3334V17.1424C11.6195 18.0891 12.387 18.8565 13.3339 18.8565H17.1436C18.0904 18.8565 18.858 18.0891 18.858 17.1424V13.3334C18.858 12.3867 18.0904 11.6193 17.1436 11.6193ZM13.3339 10.4766C11.7558 10.4766 10.4766 11.7556 10.4766 13.3334V17.1424C10.4766 18.7202 11.7558 19.9993 13.3339 19.9993H17.1436C18.7216 19.9993 20.0009 18.7202 20.0009 17.1424V13.3334C20.0009 11.7556 18.7216 10.4766 17.1436 10.4766H13.3339Z" fill="black" fill-opacity="0.87"/>
<path fill-rule="evenodd" clip-rule="evenodd" d="M12.7578 12.3839C12.7578 12.0683 13.0137 11.8125 13.3293 11.8125H15.2341C15.5497 11.8125 15.8056 12.0683 15.8056 12.3839C15.8056 12.6994 15.5497 12.9552 15.2341 12.9552H13.3293C13.0137 12.9552 12.7578 12.6994 12.7578 12.3839Z" fill="black" fill-opacity="0.87"/>
<path fill-rule="evenodd" clip-rule="evenodd" d="M17.1436 1.14272H13.3339C12.387 1.14272 11.6195 1.91014 11.6195 2.85681V6.66588C11.6195 7.61255 12.387 8.37997 13.3339 8.37997H17.1436C18.0904 8.37997 18.858 7.61255 18.858 6.66588V2.85681C18.858 1.91014 18.0904 1.14272 17.1436 1.14272ZM13.3339 0C11.7558 0 10.4766 1.27904 10.4766 2.85681V6.66588C10.4766 8.24365 11.7558 9.52269 13.3339 9.52269H17.1436C18.7216 9.52269 20.0009 8.24365 20.0009 6.66588V2.85681C20.0009 1.27904 18.7216 0 17.1436 0H13.3339Z" fill="black" fill-opacity="0.87"/>
<path d="M12.8509 16.6636C12.8509 16.9266 12.6377 17.1398 12.3747 17.1398C12.1116 17.1398 11.8984 16.9266 11.8984 16.6636C11.8984 16.4007 12.1116 16.1875 12.3747 16.1875C12.6377 16.1875 12.8509 16.4007 12.8509 16.6636Z" fill="black" fill-opacity="0.87"/>
<path fill-rule="evenodd" clip-rule="evenodd" d="M12.384 13.2266C12.6996 13.2266 12.9554 13.4824 12.9554 13.7979V15.2263C12.9554 15.5419 12.6996 15.7977 12.384 15.7977C12.0684 15.7977 11.8125 15.5419 11.8125 15.2263V13.7979C11.8125 13.4824 12.0684 13.2266 12.384 13.2266Z" fill="black" fill-opacity="0.87"/>
<path fill-rule="evenodd" clip-rule="evenodd" d="M13.0336 13.1317C12.9622 13.3102 12.9555 13.5548 12.9555 13.8123C12.9555 14.1278 12.6996 14.3836 12.384 14.3836C12.0684 14.3836 11.8125 14.1278 11.8125 13.8123C11.8125 13.8044 11.8125 13.7962 11.8125 13.7876C11.8123 13.5598 11.8118 13.1089 11.9725 12.7073C12.061 12.486 12.2079 12.2526 12.4512 12.0769C12.6982 11.8986 12.999 11.8125 13.3364 11.8125C13.652 11.8125 13.9079 12.0683 13.9079 12.3839C13.9079 12.6994 13.652 12.9552 13.3364 12.9552C13.1976 12.9552 13.1413 12.9882 13.1204 13.0033C13.0959 13.021 13.0642 13.0554 13.0336 13.1317Z" fill="black" fill-opacity="0.87"/>
</svg>
