<svg width="18" height="18" viewBox="0 0 18 18" fill="none" xmlns="http://www.w3.org/2000/svg">
<path d="M11.0455 16.5949V12.1798C11.0455 11.9847 10.9736 11.7975 10.8458 11.6595C10.7179 11.5215 10.5445 11.444 10.3636 11.444H7.63636C7.45553 11.444 7.28211 11.5215 7.15425 11.6595C7.02638 11.7975 6.95455 11.9847 6.95455 12.1798V16.5949C6.95455 16.79 6.88271 16.9772 6.75485 17.1152C6.62698 17.2532 6.45356 17.3307 6.27273 17.3307H2.18182C2.00099 17.3307 1.82757 17.2532 1.6997 17.1152C1.57183 16.9772 1.5 16.79 1.5 16.5949V8.08667C1.50153 7.98483 1.52192 7.88436 1.55997 7.79116C1.59803 7.69796 1.65298 7.61392 1.72159 7.54398L8.53977 0.856988C8.66546 0.732887 8.82965 0.664062 9 0.664062C9.17035 0.664062 9.33454 0.732887 9.46023 0.856988L16.2784 7.54398C16.347 7.61392 16.402 7.69796 16.44 7.79116C16.4781 7.88436 16.4985 7.98483 16.5 8.08667V16.5949C16.5 16.79 16.4282 16.9772 16.3003 17.1152C16.1724 17.2532 15.999 17.3307 15.8182 17.3307H11.7273C11.5464 17.3307 11.373 17.2532 11.2452 17.1152C11.1173 16.9772 11.0455 16.79 11.0455 16.5949Z" stroke="black" stroke-opacity="0.87" stroke-width="1.2" stroke-linecap="round" stroke-linejoin="round"/>
</svg>
