<svg width="20" height="20" viewBox="0 0 20 20" fill="none" xmlns="http://www.w3.org/2000/svg">
<path fill-rule="evenodd" clip-rule="evenodd" d="M8.33073 2.16406C4.92497 2.16406 2.16406 4.92497 2.16406 8.33073C2.16406 11.7365 4.92497 14.4974 8.33073 14.4974C11.7365 14.4974 14.4974 11.7365 14.4974 8.33073C14.4974 4.92497 11.7365 2.16406 8.33073 2.16406ZM1.16406 8.33073C1.16406 4.37269 4.37269 1.16406 8.33073 1.16406C12.2888 1.16406 15.4974 4.37269 15.4974 8.33073C15.4974 12.2888 12.2888 15.4974 8.33073 15.4974C4.37269 15.4974 1.16406 12.2888 1.16406 8.33073Z" fill="#595959"/>
<path fill-rule="evenodd" clip-rule="evenodd" d="M12.9746 12.9746C13.1698 12.7793 13.4864 12.7793 13.6817 12.9746L18.6817 17.9746C18.8769 18.1698 18.8769 18.4864 18.6817 18.6817C18.4864 18.8769 18.1698 18.8769 17.9746 18.6817L12.9746 13.6817C12.7793 13.4864 12.7793 13.1698 12.9746 12.9746Z" fill="#595959"/>
</svg>
