<svg width="20" height="20" viewBox="0 0 20 20" fill="none" xmlns="http://www.w3.org/2000/svg">
<path fill-rule="evenodd" clip-rule="evenodd" d="M7 8.33333C7 7.59695 7.59695 7 8.33333 7H11.6667C12.403 7 13 7.59695 13 8.33333V11.6667C13 12.403 12.403 13 11.6667 13H8.33333C7.59695 13 7 12.403 7 11.6667V8.33333ZM8.33333 8C8.14924 8 8 8.14924 8 8.33333V11.6667C8 11.8508 8.14924 12 8.33333 12H11.6667C11.8508 12 12 11.8508 12 11.6667V8.33333C12 8.14924 11.8508 8 11.6667 8H8.33333Z" fill="#707070"/>
<path fill-rule="evenodd" clip-rule="evenodd" d="M8.66406 10C8.66406 9.72386 8.88792 9.5 9.16406 9.5H10.8307C11.1069 9.5 11.3307 9.72386 11.3307 10C11.3307 10.2761 11.1069 10.5 10.8307 10.5H9.16406C8.88792 10.5 8.66406 10.2761 8.66406 10Z" fill="#707070"/>
<path fill-rule="evenodd" clip-rule="evenodd" d="M9.9974 2.16406C9.8133 2.16406 9.66406 2.3133 9.66406 2.4974C9.66406 2.68149 9.8133 2.83073 9.9974 2.83073C10.1815 2.83073 10.3307 2.68149 10.3307 2.4974C10.3307 2.3133 10.1815 2.16406 9.9974 2.16406ZM8.66406 2.4974C8.66406 1.76102 9.26102 1.16406 9.9974 1.16406C10.7338 1.16406 11.3307 1.76102 11.3307 2.4974C11.3307 3.23378 10.7338 3.83073 9.9974 3.83073C9.26102 3.83073 8.66406 3.23378 8.66406 2.4974Z" fill="#707070"/>
<path fill-rule="evenodd" clip-rule="evenodd" d="M15.8333 3.82812C15.6492 3.82812 15.5 3.97736 15.5 4.16146C15.5 4.34555 15.6492 4.49479 15.8333 4.49479C16.0174 4.49479 16.1667 4.34555 16.1667 4.16146C16.1667 3.97736 16.0174 3.82812 15.8333 3.82812ZM14.5 4.16146C14.5 3.42508 15.097 2.82812 15.8333 2.82812C16.5697 2.82812 17.1667 3.42508 17.1667 4.16146C17.1667 4.89784 16.5697 5.49479 15.8333 5.49479C15.097 5.49479 14.5 4.89784 14.5 4.16146Z" fill="#707070"/>
<path fill-rule="evenodd" clip-rule="evenodd" d="M15.8333 15.5C15.6492 15.5 15.5 15.6492 15.5 15.8333C15.5 16.0174 15.6492 16.1667 15.8333 16.1667C16.0174 16.1667 16.1667 16.0174 16.1667 15.8333C16.1667 15.6492 16.0174 15.5 15.8333 15.5ZM14.5 15.8333C14.5 15.097 15.097 14.5 15.8333 14.5C16.5697 14.5 17.1667 15.097 17.1667 15.8333C17.1667 16.5697 16.5697 17.1667 15.8333 17.1667C15.097 17.1667 14.5 16.5697 14.5 15.8333Z" fill="#707070"/>
<path fill-rule="evenodd" clip-rule="evenodd" d="M4.16146 15.5C3.97736 15.5 3.82812 15.6492 3.82812 15.8333C3.82812 16.0174 3.97736 16.1667 4.16146 16.1667C4.34555 16.1667 4.49479 16.0174 4.49479 15.8333C4.49479 15.6492 4.34555 15.5 4.16146 15.5ZM2.82812 15.8333C2.82812 15.097 3.42508 14.5 4.16146 14.5C4.89784 14.5 5.49479 15.097 5.49479 15.8333C5.49479 16.5697 4.89784 17.1667 4.16146 17.1667C3.42508 17.1667 2.82812 16.5697 2.82812 15.8333Z" fill="#707070"/>
<path fill-rule="evenodd" clip-rule="evenodd" d="M9.5 3.32812H10.5V5.82812H9.5V3.32812Z" fill="#707070"/>
<path fill-rule="evenodd" clip-rule="evenodd" d="M9.5 14.1641H10.5V16.6641H9.5V14.1641Z" fill="#707070"/>
<path fill-rule="evenodd" clip-rule="evenodd" d="M17.4974 9.66406C17.3133 9.66406 17.1641 9.8133 17.1641 9.9974C17.1641 10.1815 17.3133 10.3307 17.4974 10.3307C17.6815 10.3307 17.8307 10.1815 17.8307 9.9974C17.8307 9.8133 17.6815 9.66406 17.4974 9.66406ZM16.1641 9.9974C16.1641 9.26102 16.761 8.66406 17.4974 8.66406C18.2338 8.66406 18.8307 9.26102 18.8307 9.9974C18.8307 10.7338 18.2338 11.3307 17.4974 11.3307C16.761 11.3307 16.1641 10.7338 16.1641 9.9974Z" fill="#707070"/>
<path fill-rule="evenodd" clip-rule="evenodd" d="M2.4974 9.66406C2.3133 9.66406 2.16406 9.8133 2.16406 9.9974C2.16406 10.1815 2.3133 10.3307 2.4974 10.3307C2.68149 10.3307 2.83073 10.1815 2.83073 9.9974C2.83073 9.8133 2.68149 9.66406 2.4974 9.66406ZM1.16406 9.9974C1.16406 9.26102 1.76102 8.66406 2.4974 8.66406C3.23378 8.66406 3.83073 9.26102 3.83073 9.9974C3.83073 10.7338 3.23378 11.3307 2.4974 11.3307C1.76102 11.3307 1.16406 10.7338 1.16406 9.9974Z" fill="#707070"/>
<path fill-rule="evenodd" clip-rule="evenodd" d="M4.16146 3.82812C3.97736 3.82812 3.82812 3.97736 3.82812 4.16146C3.82812 4.34555 3.97736 4.49479 4.16146 4.49479C4.34555 4.49479 4.49479 4.34555 4.49479 4.16146C4.49479 3.97736 4.34555 3.82812 4.16146 3.82812ZM2.82812 4.16146C2.82812 3.42508 3.42508 2.82812 4.16146 2.82812C4.89784 2.82812 5.49479 3.42508 5.49479 4.16146C5.49479 4.89784 4.89784 5.49479 4.16146 5.49479C3.42508 5.49479 2.82812 4.89784 2.82812 4.16146Z" fill="#707070"/>
<path fill-rule="evenodd" clip-rule="evenodd" d="M9.9974 17.1641C9.8133 17.1641 9.66406 17.3133 9.66406 17.4974C9.66406 17.6815 9.8133 17.8307 9.9974 17.8307C10.1815 17.8307 10.3307 17.6815 10.3307 17.4974C10.3307 17.3133 10.1815 17.1641 9.9974 17.1641ZM8.66406 17.4974C8.66406 16.761 9.26102 16.1641 9.9974 16.1641C10.7338 16.1641 11.3307 16.761 11.3307 17.4974C11.3307 18.2338 10.7338 18.8307 9.9974 18.8307C9.26102 18.8307 8.66406 18.2338 8.66406 17.4974Z" fill="#707070"/>
<path fill-rule="evenodd" clip-rule="evenodd" d="M14.1641 9.5H16.6641V10.5H14.1641V9.5Z" fill="#707070"/>
<path fill-rule="evenodd" clip-rule="evenodd" d="M3.32812 9.5H5.82812V10.5H3.32812V9.5Z" fill="#707070"/>
<path fill-rule="evenodd" clip-rule="evenodd" d="M6.36198 6.64375L4.69531 5.39375L5.29531 4.59375L6.96198 5.84375L6.36198 6.64375Z" fill="#707070"/>
<path fill-rule="evenodd" clip-rule="evenodd" d="M13.0312 5.84375L14.6979 4.59375L15.2979 5.39375L13.6313 6.64375L13.0312 5.84375Z" fill="#707070"/>
<path fill-rule="evenodd" clip-rule="evenodd" d="M13.6837 12.9766L15.3503 14.6432L14.6432 15.3503L12.9766 13.6837L13.6837 12.9766Z" fill="#707070"/>
<path fill-rule="evenodd" clip-rule="evenodd" d="M7.0144 13.6837L5.34773 15.3503L4.64062 14.6432L6.30729 12.9766L7.0144 13.6837Z" fill="#707070"/>
</svg>
