<svg width="20" height="20" viewBox="0 0 20 20" fill="none" xmlns="http://www.w3.org/2000/svg">
<path fill-rule="evenodd" clip-rule="evenodd" d="M10.4544 12.1678C10.6379 11.9614 10.9539 11.9428 11.1603 12.1263L14.5781 15.1644L17.9959 12.1263C18.2023 11.9428 18.5184 11.9614 18.7018 12.1678C18.8853 12.3742 18.8667 12.6903 18.6603 12.8737L14.9103 16.207C14.7209 16.3754 14.4354 16.3754 14.2459 16.207L10.4959 12.8737C10.2896 12.6903 10.271 12.3742 10.4544 12.1678Z" fill="#595959"/>
<path fill-rule="evenodd" clip-rule="evenodd" d="M14.5781 6.16406C14.8543 6.16406 15.0781 6.38792 15.0781 6.66406V15.4141C15.0781 15.6902 14.8543 15.9141 14.5781 15.9141C14.302 15.9141 14.0781 15.6902 14.0781 15.4141V6.66406C14.0781 6.38792 14.302 6.16406 14.5781 6.16406Z" fill="#595959"/>
<path fill-rule="evenodd" clip-rule="evenodd" d="M1.16406 9.16406C1.16406 8.88792 1.38792 8.66406 1.66406 8.66406H8.48227C8.75841 8.66406 8.98227 8.88792 8.98227 9.16406C8.98227 9.4402 8.75841 9.66406 8.48227 9.66406H1.66406C1.38792 9.66406 1.16406 9.4402 1.16406 9.16406Z" fill="#595959"/>
<path fill-rule="evenodd" clip-rule="evenodd" d="M1.16406 4.16406C1.16406 3.88792 1.38792 3.66406 1.66406 3.66406H14.5429C14.819 3.66406 15.0429 3.88792 15.0429 4.16406C15.0429 4.44021 14.819 4.66406 14.5429 4.66406H1.66406C1.38792 4.66406 1.16406 4.44021 1.16406 4.16406Z" fill="#595959"/>
<path fill-rule="evenodd" clip-rule="evenodd" d="M1.16406 14.1641C1.16406 13.8879 1.38792 13.6641 1.66406 13.6641H6.96711C7.24326 13.6641 7.46711 13.8879 7.46711 14.1641C7.46711 14.4402 7.24326 14.6641 6.96711 14.6641H1.66406C1.38792 14.6641 1.16406 14.4402 1.16406 14.1641Z" fill="#595959"/>
</svg>
