<svg width="36" height="18" viewBox="0 0 36 18" fill="none" xmlns="http://www.w3.org/2000/svg">
<path d="M34.0022 17.9491C32.1043 17.8352 31.1764 7.47642 31.1219 6.90193C31.0187 7.49252 29.404 16.6745 27.1874 16.6745C25.0227 16.6745 23.2109 7.84972 23.1248 7.41452C23.1248 7.74138 23.4724 18.2636 20.4856 17.9491C17.7505 17.6612 18.4227 9.41533 18.4832 8.70774C18.5437 8.00015 18.6416 7.25913 18.7789 6.47911C18.9163 5.69909 20.0275 0.052001 22.6516 0.052001C24.886 0.052001 27.0172 6.88336 27.1368 7.22508C27.2741 6.85364 29.8391 0 32.0997 0C34.9459 0 36.027 5.81919 35.9974 10.846C35.9744 14.6594 35.3935 18.0333 34.0022 17.9491Z" fill="#FF2C00"/>
<path d="M17.1232 2.60982C16.7235 2.23557 16.2643 1.92227 15.7622 1.68122C15.2062 1.40327 10.8912 -0.296063 7.54429 0.0450406C7.20412 0.0572989 6.88014 0.18505 6.63214 0.404717C6.27332 0.695057 5.67136 4.37167 5.44924 7.70037C2.27643 7.96719 0 8.74349 0 9.61947C0 10.4954 2.26197 11.2383 5.41966 11.515C5.63193 14.5484 6.47113 17.936 8.2606 17.936C9.24635 17.936 9.93309 15.6083 10.1992 11.5664C13.7026 11.3417 16.2886 10.5549 16.2886 9.61947C16.2886 8.68406 13.7572 7.93562 10.2893 7.68737C10.2406 5.72494 10.0704 4.25591 10.0704 4.25591C10.8406 4.47217 11.6796 4.67708 12.5874 4.87064C13.4949 5.06378 16.5823 5.5516 17.4281 4.47629C17.5874 4.24583 17.6641 3.97331 17.6469 3.69875C17.6406 3.49359 17.5911 3.29167 17.5012 3.10472C17.4113 2.91778 17.2828 2.74954 17.1232 2.60982Z" fill="#FF2C00"/>
</svg>
