<svg width="48" height="48" viewBox="0 0 48 48" fill="none" xmlns="http://www.w3.org/2000/svg">
<path fill-rule="evenodd" clip-rule="evenodd" d="M0.800049 3.9998C0.800049 3.33706 1.33731 2.7998 2.00005 2.7998H14C14.6628 2.7998 15.2 3.33706 15.2 3.9998C15.2 4.66255 14.6628 5.1998 14 5.1998H3.20005V11.9998C3.20005 12.6625 2.66279 13.1998 2.00005 13.1998C1.33731 13.1998 0.800049 12.6625 0.800049 11.9998V3.9998Z" fill="#FFD500"/>
<path fill-rule="evenodd" clip-rule="evenodd" d="M47.2001 3.9998C47.2001 3.33706 46.6628 2.7998 46.0001 2.7998H34C33.3373 2.7998 32.8 3.33706 32.8 3.9998C32.8 4.66255 33.3373 5.1998 34 5.1998H44.8001V11.9998C44.8001 12.6625 45.3373 13.1998 46.0001 13.1998C46.6628 13.1998 47.2001 12.6625 47.2001 11.9998V3.9998Z" fill="#FFD500"/>
<path fill-rule="evenodd" clip-rule="evenodd" d="M47.2001 43.9997C47.2001 44.6624 46.6628 45.1997 46.0001 45.1997H36C35.3373 45.1997 34.8 44.6624 34.8 43.9997C34.8 43.337 35.3373 42.7997 36 42.7997H44.8001V35.9997C44.8001 35.337 45.3373 34.7997 46.0001 34.7997C46.6628 34.7997 47.2001 35.337 47.2001 35.9997V43.9997Z" fill="#FFD500"/>
<path fill-rule="evenodd" clip-rule="evenodd" d="M0.800049 43.9997C0.800049 44.6624 1.33731 45.1997 2.00005 45.1997H14C14.6628 45.1997 15.2 44.6624 15.2 43.9997C15.2 43.337 14.6628 42.7997 14 42.7997H3.20005V35.9997C3.20005 35.337 2.66279 34.7997 2.00005 34.7997C1.33731 34.7997 0.800049 35.337 0.800049 35.9997V43.9997Z" fill="#FFD500"/>
<path fill-rule="evenodd" clip-rule="evenodd" d="M7.00005 7.99976V39.9998H5.00005V7.99976H7.00005Z" fill="#212121"/>
<path fill-rule="evenodd" clip-rule="evenodd" d="M22 7.99976V39.9998H20V7.99976H22Z" fill="#212121"/>
<path fill-rule="evenodd" clip-rule="evenodd" d="M32 7.99976V39.9998H30V7.99976H32Z" fill="#212121"/>
<path fill-rule="evenodd" clip-rule="evenodd" d="M35 7.99976V39.9998H33V7.99976H35Z" fill="#212121"/>
<path fill-rule="evenodd" clip-rule="evenodd" d="M43 7.99976V39.9998H41V7.99976H43Z" fill="#212121"/>
<path fill-rule="evenodd" clip-rule="evenodd" d="M12 7.99976V39.9998H8.00005V7.99976H12Z" fill="#212121"/>
<path fill-rule="evenodd" clip-rule="evenodd" d="M40 7.99976V39.9998H36V7.99976H40Z" fill="#212121"/>
<path fill-rule="evenodd" clip-rule="evenodd" d="M19.0001 7.99976V39.9998H13V7.99976H19.0001Z" fill="#212121"/>
<path fill-rule="evenodd" clip-rule="evenodd" d="M29 7.99976V39.9998H23V7.99976H29Z" fill="#212121"/>
</svg>
